
<svg width="27" height="26" viewBox="0 0 27 26" fill="none" xmlns="http://www.w3.org/2000/svg">
<path d="M1 12.9708C1 6.09097 6.57719 0.513794 13.457 0.513794H13.7419C20.6217 0.513794 26.1989 6.09097 26.1989 12.9708C26.1989 19.8506 20.6217 25.4278 13.7419 25.4278H13.457C6.57719 25.4278 1 19.8506 1 12.9708Z" stroke="#373C4B"/>
<path fill-rule="evenodd" clip-rule="evenodd" d="M8.69139 9.92917L10.4156 8.20493C10.6705 7.95008 11.0888 7.95008 11.3442 8.20493C11.5991 8.45977 11.5991 8.87813 11.3442 9.13352L10.7416 9.73618H16.0424C16.4033 9.73618 16.6997 10.0326 16.6997 10.3935C16.6997 10.7545 16.4033 11.0509 16.0424 11.0509L10.7427 11.0503L11.3453 11.653C11.6002 11.9078 11.6002 12.3262 11.3453 12.5816C11.0905 12.8364 10.6721 12.8364 10.4168 12.5816L8.69251 10.8573C8.43603 10.6025 8.436 10.184 8.69139 9.92917ZM18.5073 15.0831L16.7831 13.3589C16.5282 13.1041 16.1099 13.1041 15.8534 13.3589C15.5985 13.6137 15.5985 14.0321 15.8534 14.2875L16.456 14.8902H11.1568C10.7958 14.8902 10.4994 15.1866 10.4994 15.5475C10.4994 15.9084 10.7958 16.2048 11.1568 16.2048L16.456 16.2043L15.8534 16.807C15.5985 17.0618 15.5985 17.4802 15.8534 17.7366C16.1082 17.9915 16.5266 17.9915 16.7831 17.7366L18.5073 16.0124C18.7627 15.7565 18.7627 15.338 18.5073 15.0831Z" fill="white"/>
</svg>
