<svg xmlns="http://www.w3.org/2000/svg" width="195" height="182" viewBox="0 0 195 182" fill="none">
  <g opacity="0.05">
    <path d="M77.2103 75.7942L76.1532 76.1299L53.8643 108.778L53.4409 110.611L144.711 75.2365L77.2103 75.7942Z" fill="#8C8C8C"/>
    <path d="M53.4412 110.611L77.2106 75.7945L44.0605 26.0939L53.4412 110.611Z" fill="#343434"/>
    <path d="M144.576 -22.8433L141.319 -20.2199L82.4738 65.9745L83.5731 66.5112L146.692 72.3416L144.576 -22.8433Z" fill="#8C8C8C"/>
    <path d="M144.572 -22.8444L46.0376 23.1975L83.5695 66.5101L109.57 28.4257L144.572 -22.8444Z" fill="#343434"/>
    <path d="M83.566 66.5096L146.684 72.34L109.566 28.4253L83.566 66.5096Z" fill="#393939"/>
    <path d="M46.038 23.1991L83.57 66.5116L109.57 28.4273L46.038 23.1991Z" fill="#141414"/>
    <path d="M-16.5677 112.793L7.708 77.2348L76.6172 76.6511L-16.5677 112.793Z" fill="#E7E7E7"/>
    <path d="M6.53835 76.6736L6.67705 77.6331L-17.2789 111.878L-19.0087 113.193L-24.2676 26.8405L6.53835 76.6736Z" fill="#8C8C8C"/>
    <path d="M80.4069 -29.2583L79.3266 -25.4839L15.4211 68.1227L13.652 68.522L-20.1944 17.7507L80.4069 -29.2583Z" fill="#343434"/>
    <path d="M13.4821 68.7541L-20.3641 17.983L44.5 23.3202L13.4821 68.7541Z" fill="#474747"/>
    <path d="M80.0797 -28.7733L82.2427 68.4109L13.3248 69.007L44.3428 23.573L80.0797 -28.7733Z" fill="#E7E7E7"/>
    <path d="M82.0832 68.6459L13.1655 69.242L44.1834 23.8081L82.0832 68.6459Z" fill="white"/>
  </g>
</svg>