<svg width="157" height="164" viewBox="0 0 157 164" fill="none" xmlns="http://www.w3.org/2000/svg">
<path opacity="0.2" d="M153.404 12.5874H156.897V0.944092H87.794V12.5874H91.287C98.9833 12.5874 103.291 13.321 105.236 14.986C106.796 16.3133 107.401 18.968 107.401 24.4287L107.367 69.1042H19.238V24.4287C19.238 15.3353 19.238 12.5874 35.1545 12.5874H38.6475V0.944092H-30.2578V12.5874H-26.7648C-9.68402 12.5874 -9.68402 15.3353 -9.68402 24.4287V68.2961C-9.68402 68.7424 -10.0458 69.1042 -10.4922 69.1042H-26.7648V77.697H-10.4922C-10.0458 77.697 -9.68402 78.0588 -9.68402 78.5052V86.4877H-26.7648V95.0805H-10.4922C-10.0458 95.0805 -9.68402 95.4423 -9.68402 95.8887V139.756C-9.68402 148.849 -9.68402 151.597 -26.7648 151.597H-30.2578V163.241H38.6475V151.597H35.1545C19.238 151.597 19.238 148.849 19.238 139.756V95.8887C19.238 95.4423 19.5999 95.0805 20.0462 95.0805H106.593C107.04 95.0805 107.401 95.4423 107.401 95.8887V139.756C107.401 145.228 106.796 147.871 105.236 149.199C103.291 150.852 98.9833 151.597 91.287 151.597H87.794V163.241H156.897V151.597H153.404C136.126 151.597 136.126 148.617 136.126 139.756V95.8887C136.126 95.4423 136.487 95.0805 136.934 95.0805H153.404V86.4877H136.126V78.5052C136.126 78.0588 136.487 77.697 136.934 77.697H153.404V69.1042H136.934C136.487 69.1042 136.126 68.7424 136.126 68.2961V24.4287C136.126 15.5681 136.126 12.5874 153.404 12.5874ZM107.401 86.4761H19.238V77.6854H107.367V81.8886L107.413 85.3816V86.4645C107.413 86.4709 107.408 86.4761 107.401 86.4761Z" fill="#111A15"/>
</svg>