<svg width="125" height="147" viewBox="0 0 125 147" fill="none" xmlns="http://www.w3.org/2000/svg">
<g opacity="0.03">
<path d="M67.9426 29.8877C77.5229 39.9044 80.5546 52.5261 74.7244 58.1037C68.8941 63.6813 56.4036 60.0722 46.8364 50.0752C37.2692 40.0781 34.2244 27.4368 40.0546 21.8592C45.8849 16.2816 58.3787 19.8907 67.9426 29.8877Z" fill="white"/>
<path d="M-11.4977 105.885C-1.91737 115.902 1.11387 128.523 -4.71636 134.101C-10.5466 139.679 -23.0371 136.069 -32.6043 126.069C-42.1715 116.069 -45.2159 103.431 -39.3857 97.8532C-33.5555 92.2756 -21.0616 95.8847 -11.4977 105.885Z" fill="white"/>
<path d="M27.2684 117.198C40.7203 113.917 53.1879 117.595 55.1007 125.4C57.0135 133.205 47.6593 142.231 34.1943 145.522C20.7294 148.813 8.27523 145.125 6.36245 137.32C4.44966 129.514 13.8002 120.489 27.2684 117.198Z" fill="white"/>
<path d="M77.4899 69.3018C85.2264 71.5558 88.3402 84.1644 84.4523 97.4719C80.5644 110.779 71.1546 119.717 63.4182 117.463C55.6817 115.209 52.5712 102.597 56.4558 89.2926C60.3404 75.9884 69.7404 67.0478 77.4899 69.3018Z" fill="white"/>
<path d="M106.832 -23.8946C116.413 -13.8779 119.444 -1.256 113.614 4.3216C107.784 9.89919 95.2933 6.29017 85.726 -3.71013C76.1588 -13.7104 73.1141 -26.3487 78.9443 -31.9263C84.7745 -37.5039 97.2683 -33.8949 106.832 -23.8946Z" fill="#979FAA"/>
<path d="M27.3928 52.0956C36.9731 62.1123 40.0048 74.7342 34.1746 80.3118C28.3443 85.8894 15.8538 82.2803 6.28659 72.2832C-3.28063 62.2862 -6.32539 49.6449 -0.495164 44.0673C5.33506 38.4897 17.8289 42.1019 27.3928 52.0956Z" fill="#979FAA"/>
<path d="M66.1536 63.4297C79.6054 60.1488 92.0727 63.8267 93.9855 71.632C95.8983 79.4374 86.5445 88.4664 73.0795 91.7572C59.6145 95.048 47.16 91.3602 45.2472 83.5549C43.3344 75.7495 52.6853 66.7106 66.1536 63.4297Z" fill="#979FAA"/>
<path d="M10.8413 -15.3179C18.5778 -13.0639 21.7076 -0.438875 17.8361 12.8522C13.9646 26.1433 4.53846 35.0968 -3.19799 32.8428C-10.9344 30.5888 -14.061 17.9605 -10.1928 4.67269C-6.32459 -8.61511 3.10486 -17.5588 10.8413 -15.3179Z" fill="#979FAA"/>
<path d="M116.363 15.5194C124.1 17.7734 127.213 30.382 123.325 43.6895C119.438 56.997 110.028 65.9343 102.292 63.6803C94.5553 61.4263 91.4414 48.8176 95.3293 35.5102C99.2172 22.2027 108.627 13.2588 116.363 15.5194Z" fill="#979FAA"/>
<path d="M1.18441 10.389C14.6363 7.10808 27.1035 10.7828 29.0163 18.6308C30.9291 26.4788 21.5622 35.4816 8.11035 38.756C-5.3415 42.0304 -17.8092 38.3591 -19.722 30.5144C-21.6347 22.6697 -12.2642 13.6634 1.18441 10.389Z" fill="white"/>
</g>
</svg>
