<svg width="203" height="171" viewBox="0 0 203 171" fill="none" xmlns="http://www.w3.org/2000/svg">
<path opacity="0.05" d="M271.071 213.367L271.071 213.367C265.127 209.761 262.182 202.295 262.355 192.987C262.528 183.695 265.814 172.673 272.196 162.152C278.578 151.631 286.833 143.634 294.993 139.197C303.166 134.754 311.148 133.924 317.092 137.531C323.036 141.137 325.979 148.601 325.806 157.907C325.634 167.198 322.348 178.218 315.969 188.74C309.59 199.262 301.333 207.263 293.171 211.703C284.996 216.149 277.014 216.979 271.071 213.367ZM102.522 112.154L102.523 112.154C108.909 116.024 117.293 115.045 125.616 110.516C133.952 105.981 142.323 97.8437 148.794 87.1907C149.606 85.8537 150.37 84.5083 151.084 83.1589C151.421 83.3526 151.752 83.5492 152.078 83.7488C160.014 88.6008 164.719 95.0873 164.57 102.019C164.421 108.95 159.436 115.232 151.292 119.735C143.162 124.232 131.973 126.897 119.655 126.616L119.655 126.616C107.35 126.338 96.2928 123.186 88.3666 118.343C80.4277 113.492 75.7164 107.008 75.8652 100.077C76.0141 93.146 80.9997 86.8689 89.1429 82.3673C90.9141 81.3882 92.8306 80.4958 94.8722 79.7017C93.9211 83.5995 93.409 87.377 93.3398 90.9182C93.1544 100.394 96.1464 108.286 102.522 112.154ZM96.3228 78.1013C97.9546 72.2165 100.588 66.0826 104.221 60.1048C110.621 49.5732 118.877 41.5745 127.033 37.1391C135.202 32.6968 143.175 31.8712 149.119 35.4775C155.063 39.0835 158.001 46.5404 157.818 55.8401C157.664 63.6961 155.278 72.7916 150.673 81.7828C142.763 77.4698 132.305 74.7341 120.802 74.4799C111.831 74.2815 103.427 75.6216 96.3228 78.1013ZM96.01 79.2741C103.119 76.6935 111.639 75.2775 120.78 75.4796C132.159 75.7311 142.461 78.4401 150.211 82.67C149.503 84.0086 148.746 85.344 147.939 86.6716C141.543 97.2012 133.293 105.201 125.139 109.638C116.972 114.081 108.997 114.908 103.041 111.299C97.0972 107.693 94.1577 100.237 94.3396 90.9378C94.4112 87.2742 94.9684 83.3409 96.01 79.2741ZM9.40028 258.885L8.96179 259.125L9.40025 258.885C3.47893 248.08 0.681467 236.932 0.922581 227.649C1.16405 218.353 4.44208 211.033 10.5473 207.686C16.652 204.34 24.5899 205.524 32.5589 210.328C40.5156 215.124 48.4087 223.482 54.3224 234.269C60.2362 245.056 63.0337 256.205 62.7944 265.492C62.5548 274.793 59.2803 282.121 53.1754 285.467C47.0706 288.814 39.1314 287.63 31.1616 282.826C23.2043 278.029 15.3112 269.671 9.40028 258.885ZM115.268 323.21L115.268 323.21C102.964 322.932 91.9062 319.78 83.9823 314.928C76.0462 310.07 71.3385 303.569 71.4961 296.604C71.6539 289.638 76.6491 283.355 84.7939 278.86C92.9261 274.371 104.11 271.723 116.411 272.005C128.711 272.288 139.768 275.44 147.694 280.291C155.631 285.148 160.341 291.646 160.183 298.612C160.025 305.578 155.03 311.86 146.885 316.355C138.753 320.844 127.569 323.493 115.268 323.21ZM176.995 240.59C176.673 240.404 176.356 240.216 176.043 240.025C168.107 235.166 163.4 228.666 163.558 221.698C163.717 214.729 168.711 208.446 176.854 203.951C184.986 199.463 196.169 196.816 208.473 197.099C220.776 197.383 231.833 200.535 239.758 205.385C247.694 210.243 252.403 216.74 252.245 223.706C252.087 230.672 247.092 236.954 238.947 241.449C237.173 242.429 235.253 243.32 233.208 244.113C234.158 240.207 234.667 236.421 234.733 232.872C234.91 223.389 231.915 215.488 225.539 211.62C219.163 207.752 210.772 208.736 202.443 213.265C194.101 217.802 185.724 225.938 179.267 236.583C178.461 237.911 177.704 239.249 176.995 240.59ZM232.072 244.539C224.966 247.11 216.455 248.514 207.33 248.304L207.33 248.304C195.942 248.047 185.622 245.329 177.867 241.08C178.57 239.749 179.322 238.421 180.122 237.101C186.504 226.581 194.76 218.582 202.92 214.144C211.094 209.699 219.076 208.869 225.02 212.475C230.964 216.081 233.907 223.547 233.734 232.853C233.665 236.524 233.111 240.465 232.072 244.539ZM231.761 245.71C230.136 251.592 227.513 257.719 223.896 263.684C217.518 274.203 209.264 282.196 201.103 286.632C192.929 291.074 184.946 291.906 178.998 288.311C173.054 284.705 170.11 277.24 170.282 267.934C170.428 260.067 172.806 250.961 177.405 241.968C185.322 246.3 195.796 249.044 207.307 249.304C216.262 249.509 224.659 248.181 231.761 245.71ZM11.0001 186.206L10.9998 186.206C5.05579 182.6 2.11647 175.144 2.29852 165.845C2.4803 156.56 5.78032 145.544 12.1802 135.012C18.5801 124.48 26.8358 116.482 34.992 112.046C43.1607 107.604 51.1333 106.778 57.0779 110.385C63.0219 113.991 65.9613 121.447 65.7794 130.746C65.5978 140.03 62.2979 151.047 55.8981 161.579C49.4982 172.11 41.2415 180.112 33.0848 184.549C24.9155 188.992 16.943 189.818 11.0001 186.206ZM101.468 183.985C95.5468 173.181 92.7493 162.032 92.9904 152.75C93.2319 143.454 96.5099 136.134 102.615 132.787C108.72 129.441 116.658 130.625 124.627 135.428C132.584 140.223 140.477 148.58 146.392 159.365C152.306 170.149 155.104 181.297 154.864 190.585C154.625 199.886 151.35 207.216 145.245 210.562C139.14 213.909 131.201 212.725 123.231 207.921C115.273 203.126 107.38 194.769 101.468 183.985ZM273.861 89.4819C267.94 78.6773 265.142 67.5288 265.384 58.2468C265.625 48.9506 268.903 41.631 275.009 38.2841C281.113 34.9375 289.051 36.1214 297.02 40.9252C304.977 45.7215 312.87 54.0795 318.784 64.8668C324.698 75.6541 327.495 86.8026 327.256 96.089C327.016 105.39 323.741 112.718 317.636 116.065C311.531 119.411 303.592 118.227 295.622 113.423C287.665 108.626 279.772 100.268 273.861 89.4819ZM211.709 51.7395C199.405 51.4618 188.347 48.3093 180.421 43.4662C172.482 38.6153 167.77 32.1315 167.919 25.2004C168.068 18.2694 173.053 11.9937 181.196 7.49358C189.326 3.00061 200.515 0.336391 212.833 0.608699C225.151 0.881001 236.208 4.03344 244.131 8.87773C252.066 13.7297 256.771 20.2162 256.622 27.1476C256.474 34.0787 251.49 40.3548 243.348 44.8551C235.219 49.3483 224.03 52.0126 211.709 51.7395ZM181.79 164.393C175.868 153.589 173.071 142.44 173.312 133.158C173.553 123.862 176.831 116.542 182.937 113.195C189.041 109.848 196.979 111.032 204.948 115.835C212.905 120.631 220.799 128.988 226.713 139.772C232.628 150.557 235.425 161.705 235.186 170.992C234.946 180.294 231.671 187.623 225.566 190.97C219.462 194.317 211.523 193.131 203.553 188.327C195.595 183.531 187.702 175.174 181.79 164.393Z" stroke="white"/>
</svg>
