<svg width="219" height="239" viewBox="0 0 219 239" fill="none" xmlns="http://www.w3.org/2000/svg">
<g opacity="0.03">
<path d="M116.23 29.1939C133.362 47.1063 138.783 69.677 128.357 79.6511C117.931 89.6252 95.5951 83.1713 78.4865 65.2941C61.378 47.417 55.9332 24.8111 66.3591 14.837C76.7849 4.86284 99.127 11.3168 116.23 29.1939Z" fill="white"/>
<path d="M43.4929 185.326C67.5482 179.459 89.8434 186.036 93.264 199.994C96.6845 213.952 79.9569 230.092 55.8782 235.977C31.7995 241.862 9.52842 235.267 6.10789 221.309C2.68735 207.351 19.4084 191.211 43.4929 185.326Z" fill="white"/>
<path d="M133.302 99.6764C147.136 103.707 152.705 126.255 145.752 150.052C138.799 173.849 121.972 189.831 108.138 185.8C94.3031 181.769 88.7407 159.216 95.6873 135.425C102.634 111.634 119.443 95.6457 133.302 99.6764Z" fill="white"/>
<path d="M43.716 68.9072C60.848 86.8195 66.2693 109.391 55.8434 119.365C45.4175 129.339 23.0814 122.885 5.97283 105.008C-11.1357 87.1306 -16.5805 64.5247 -6.15462 54.5505C4.27127 44.5764 26.6133 51.0359 43.716 68.9072Z" fill="#979FAA"/>
<path d="M113.031 89.1754C137.086 83.3083 159.381 89.8853 162.801 103.843C166.222 117.801 149.495 133.947 125.416 139.832C101.337 145.717 79.0655 139.122 75.645 125.164C72.2244 111.206 88.9462 95.0425 113.031 89.1754Z" fill="#979FAA"/>
<path d="M14.1186 -51.6449C27.9533 -47.6142 33.5502 -25.0375 26.627 -1.26973C19.7038 22.498 2.8475 38.5092 -10.9872 34.4784C-24.8219 30.4477 -30.413 7.86514 -23.4957 -15.8967C-16.5783 -39.6586 0.283875 -55.6521 14.1186 -51.6449Z" fill="#979FAA"/>
<path d="M202.819 3.49969C216.653 7.5304 222.221 30.0778 215.269 53.8748C208.316 77.6719 191.49 93.6541 177.655 89.6234C163.82 85.5927 158.252 63.0453 165.205 39.2482C172.157 15.4511 188.984 -0.542767 202.819 3.49969Z" fill="#979FAA"/>
<path d="M-3.15163 -5.67432C20.9036 -11.5414 43.1982 -4.97012 46.6187 9.06405C50.0392 23.0982 33.2889 39.1975 9.23365 45.0528C-14.8216 50.9082 -37.1169 44.3431 -40.5374 30.3148C-43.9579 16.2865 -27.201 0.181075 -3.15163 -5.67432Z" fill="white"/>
</g>
</svg>
