<svg xmlns="http://www.w3.org/2000/svg" width="24" height="24" fill="none" viewBox="0 0 24 24">
  <g fill="currentColor">
    <path d="M12.815 2.84 10.128.797 9.229 1.98l.787.598a10.408 10.408 0 0 0-8.161 12.465 10.41 10.41 0 0 0 18.427 4.079 10.411 10.411 0 0 0 2.106-5.436.802.802 0 1 0-1.596-.135A8.811 8.811 0 0 1 10.114 21.4a8.81 8.81 0 0 1 .195-17.246l-.586.987L11 5.899Z"/>
    <g opacity=".2">
      <path d="M20.19 8.953a1.2 1.2 0 1 0 1.997 1.333 1.2 1.2 0 0 0-1.997-1.333ZM19.455 7.018a1.2 1.2 0 1 1-1.333-1.995 1.2 1.2 0 0 1 1.333 1.995zM15.856 4.618a1.2 1.2 0 1 1-1.333-1.994 1.2 1.2 0 0 1 1.333 1.994Z"/>
    </g>
    <path d="M7.723 15.384h.866v-.866h.865v-.866h.866v-.865h.866v-.866h.865v-.866h.866v-.865h.866v-.866h.865V8.46h1.732v1.73h-.866v.866h-.866v.866h-.865v.866h-.866v.865h-.866v.866h-.865v.866h-.866v.865h-.866v.866H7.723Zm0-6.925h3.463v2.596h-.866v.866H7.723Zm5.194 6.06h.866v-.867h2.597v3.463h-3.463Zm-3.463-3.464h.866v-.865h-.866Zm4.329 4.329h.865v-.866h-.865Z"/>
    <path d="M9.454 11.055h.866v-.865h-.866ZM13.783 15.384h.865v-.866h-.865Z"/>
  </g>
</svg>