<svg width="24" height="25" viewBox="0 0 24 25" fill="none" xmlns="http://www.w3.org/2000/svg">
<g clip-path="url(#clip0_23447_2000)">
<path d="M21.079 8.50726C20.932 8.72723 20.8536 8.98584 20.8536 9.2504C20.8536 9.60516 20.9945 9.94538 21.2453 10.1962C21.4961 10.4471 21.8363 10.588 22.191 10.588C22.4555 10.588 22.7141 10.5096 22.9341 10.3626C23.154 10.2156 23.3254 10.0067 23.4267 9.76228C23.5279 9.51787 23.5544 9.24892 23.5028 8.98944C23.4512 8.72997 23.3238 8.49163 23.1367 8.30456C22.9497 8.1175 22.7114 7.9901 22.452 7.93849C22.1925 7.88687 21.9236 7.91336 21.6792 8.01461C21.4348 8.11585 21.226 8.28729 21.079 8.50726Z" fill="currentColor" fill-opacity="0.2"/>
<path d="M20.2592 6.34974C20.0393 6.49672 19.7807 6.57517 19.5162 6.57517C19.1615 6.57517 18.8213 6.43424 18.5705 6.18339C18.3197 5.93254 18.1787 5.59231 18.1787 5.23755C18.1787 4.973 18.2572 4.71439 18.4041 4.49442C18.5511 4.27445 18.76 4.103 19.0044 4.00176C19.2487 3.90052 19.5177 3.87403 19.7771 3.92564C20.0365 3.97725 20.2748 4.10465 20.4619 4.29172C20.6489 4.47879 20.7763 4.71713 20.8279 4.9766C20.8795 5.23607 20.853 5.50502 20.7518 5.74944C20.6506 5.99385 20.4791 6.20276 20.2592 6.34974Z" fill="currentColor" fill-opacity="0.2"/>
<path d="M22.0608 13.0257C22.2412 12.8729 22.4748 12.7979 22.7104 12.8174C22.8276 12.8266 22.9419 12.859 23.0465 12.9126C23.1512 12.9662 23.2442 13.04 23.3203 13.1298C23.3963 13.2195 23.4539 13.3234 23.4896 13.4354C23.5253 13.5475 23.5385 13.6655 23.5285 13.7827C23.339 15.9853 22.5246 18.0879 21.1809 19.8433C19.8372 21.5986 18.0202 22.9336 15.9436 23.6913C13.8671 24.4489 11.6174 24.5976 9.45921 24.1199C7.30103 23.6422 5.32415 22.558 3.76116 20.9948C2.19817 19.4316 1.11409 17.4544 0.636461 15.2959C0.158831 13.1374 0.307523 10.8874 1.06504 8.81058C1.82256 6.73375 3.1574 4.91649 4.9125 3.57262C6.6676 2.22875 8.76996 1.41417 10.9722 1.22471C11.0893 1.21505 11.2072 1.22855 11.319 1.26444C11.4309 1.30032 11.5346 1.3579 11.6242 1.43387C11.7139 1.50985 11.7877 1.60273 11.8414 1.70723C11.8951 1.81172 11.9278 1.92578 11.9374 2.04288C11.9471 2.15999 11.9336 2.27785 11.8977 2.38974C11.8618 2.50163 11.8042 2.60535 11.7283 2.69499C11.6523 2.78463 11.5594 2.85842 11.455 2.91216C11.3505 2.9659 11.2364 2.99854 11.1194 3.0082C9.25546 3.16896 7.47625 3.8588 5.99106 4.99657C4.50587 6.13434 3.3765 7.6727 2.73583 9.43064C2.09516 11.1886 1.96984 13.093 2.37463 14.9197C2.77941 16.7465 3.69745 18.4196 5.02073 19.7422C6.34401 21.0648 8.01747 21.982 9.84422 22.3856C11.671 22.7893 13.575 22.6628 15.3323 22.0209C17.0896 21.3791 18.627 20.2486 19.7637 18.7625C20.9004 17.2764 21.589 15.4965 21.7486 13.6322C21.7682 13.3966 21.8805 13.1784 22.0608 13.0257Z" fill="currentColor" fill-opacity="0.2"/>
<path d="M16.2469 3.67451C16.027 3.82149 15.7684 3.89994 15.5039 3.89994C15.1492 3.89994 14.809 3.75901 14.5582 3.50816C14.3074 3.25731 14.1665 2.91708 14.1665 2.56232C14.1665 2.29777 14.2449 2.03915 14.3919 1.81919C14.5388 1.59922 14.7477 1.42777 14.9921 1.32653C15.2365 1.22529 15.5054 1.1988 15.7648 1.25041C16.0242 1.30202 16.2625 1.42942 16.4496 1.61649C16.6366 1.80356 16.764 2.0419 16.8156 2.30137C16.8672 2.56084 16.8407 2.82979 16.7395 3.07421C16.6383 3.31862 16.4669 3.52753 16.2469 3.67451Z" fill="currentColor" fill-opacity="0.2"/>
<path d="M11.9298 4.79199C13.517 4.79199 15.0684 5.26269 16.3881 6.14456C17.7077 7.02644 18.7362 8.27988 19.3436 9.74638C19.9509 11.2129 20.1099 12.8266 19.8002 14.3834C19.4906 15.9402 18.7263 17.3703 17.6041 18.4927C16.4818 19.6151 15.052 20.3795 13.4954 20.6892C11.9387 20.9988 10.3253 20.8399 8.85897 20.2325C7.39268 19.625 6.13941 18.5963 5.25766 17.2765C4.37591 15.9567 3.90527 14.405 3.90527 12.8177C3.90763 10.6899 4.75384 8.64987 6.25822 7.14527C7.76261 5.64067 9.80232 4.79435 11.9298 4.79199ZM11.0382 12.8177C11.0382 13.0542 11.1322 13.281 11.2994 13.4482C11.4666 13.6155 11.6934 13.7094 11.9298 13.7094H17.2796C17.516 13.7094 17.7428 13.6155 17.91 13.4482C18.0772 13.281 18.1712 13.0542 18.1712 12.8177C18.1712 12.5812 18.0772 12.3544 17.91 12.1871C17.7428 12.0199 17.516 11.9259 17.2796 11.9259H12.8215V7.46722C12.8215 7.23072 12.7275 7.0039 12.5603 6.83666C12.3931 6.66943 12.1663 6.57548 11.9298 6.57548C11.6934 6.57548 11.4666 6.66943 11.2994 6.83666C11.1322 7.0039 11.0382 7.23072 11.0382 7.46722V12.8177Z" fill="currentColor"/>
</g>
<defs>
<clipPath id="clip0_23447_2000">
<rect width="24" height="24" fill="white" transform="translate(0 0.425781)"/>
</clipPath>
</defs>
</svg>
