<svg xmlns="http://www.w3.org/2000/svg" viewBox="0 0 960 960" width="32" height="32">
  <path d="M0 480C0 214.9 214.9 0 480 0s480 214.9 480 480-214.9 480-480 480S0 745.1 0 480" style="fill:#6067F9"/>
  <path d="M702.9 192c-42.1 58.8-95 99.6-157.3 126.9-21.7-6-43.8-9-65.7-8.8-21.9-.2-44 2.9-65.7 8.8-62.3-27.4-115.1-68-157.3-126.9-12.8 32.1-61.8 142.5-2.9 296.9 0 0-18.9 80.6 15.8 149.9 0 0 50-22.7 89.9 9.3 41.6 33.7 28.3 66.2 57.6 94.2 25.3 25.9 62.8 25.9 62.8 25.9s37.5 0 62.8-25.8c29.4-27.9 16.2-60.3 57.6-94.2 39.6-31.8 89.9-9.3 89.9-9.3 34.4-69.2 15.8-149.9 15.8-149.9 58.5-154.5 9.6-264.9-3.3-297M285.4 467.7c-32.1-65.7-40.8-156-20.7-227.1 26.8 67.7 63 97.9 106.2 130-18.3 37.9-52.6 73.7-85.5 97.1m92 115.8c-25.3-11.2-30.6-33.1-30.6-33.1 34.3-21.7 85-5.1 86.6 46.1-26.5-16.2-35.4-4.1-56-13M480 765.2c-18.1 0-32.6-13-32.6-28.9s14.7-28.9 32.6-28.9 32.6 13 32.6 28.9-14.6 28.9-32.6 28.9m102.6-181.7c-20.6 9-29.4-3.2-56 13 1.7-51.2 52.1-67.8 86.6-46.1-.2-.3-5.6 21.9-30.6 33.1m91.9-115.8c-32.8-23.4-67.3-59.1-85.7-97.1 43.1-32 79.6-62.5 106.2-130 20.5 71.1 11.7 161.5-20.5 227.1" style="fill:#f7f7f7"/>
</svg>