<svg width="2000" height="1000" preserveAspectRatio="none" viewBox="0 0 2000 1000" xmlns="http://www.w3.org/2000/svg">
  <path fill="currentColor" d="M0 331.575c26.6-42.406 79.8-282.156 133-212.031S212.8 635.882 266 682.2c53.2 46.319 79.8-330.38 133-331.063 53.2-.683 79.8 286.18 133 327.645 53.2 41.465 79.8-81.44 133-120.32 53.2-38.88 79.8-59.378 133-74.083 53.2-14.705 79.8 24.726 133 .557 53.2-24.17 79.8-118.536 133-121.405 53.2-2.87 79.8 44.794 133 107.06 53.2 62.267 79.8 217.117 133 204.271 53.2-12.846 79.8-162.995 133-268.502 53.2-105.506 79.8-259.134 133-259.033 53.2.102 79.8 222.545 133 259.543 53.2 36.997 79.8-94.168 133-74.554 53.2 19.615 106.4 138.1 133 172.626l5 495.057H0Z" opacity=".1"/>
  <path fill="none" stroke="currentColor" d="M0 331.575c26.6-42.406 79.8-282.156 133-212.031S212.8 635.882 266 682.2c53.2 46.319 79.8-330.38 133-331.063 53.2-.683 79.8 286.18 133 327.645 53.2 41.465 79.8-81.44 133-120.32 53.2-38.88 79.8-59.378 133-74.083 53.2-14.705 79.8 24.726 133 .557 53.2-24.17 79.8-118.536 133-121.405 53.2-2.87 79.8 44.794 133 107.06 53.2 62.267 79.8 217.117 133 204.271 53.2-12.846 79.8-162.995 133-268.502 53.2-105.506 79.8-259.134 133-259.033 53.2.102 79.8 222.545 133 259.543 53.2 36.997 79.8-94.168 133-74.554 53.2 19.615 106.4 138.1 133 172.626"/>
</svg>