
<svg width="16" height="16" viewBox="0 0 16 16" fill="none" xmlns="http://www.w3.org/2000/svg">
<path d="M7.99998 14.8304C11.7299 14.8304 14.8304 11.7366 14.8304 7.99999C14.8304 4.27007 11.7232 1.16962 7.99329 1.16962C4.25666 1.16962 1.16963 4.27007 1.16963 7.99999C1.16963 11.7366 4.26338 14.8304 7.99998 14.8304ZM7.99329 9.00445C7.63837 9.00445 7.44417 8.79685 7.43078 8.44196L7.33703 5.13393C7.32363 4.76562 7.60489 4.50445 7.98657 4.50445C8.36157 4.50445 8.64952 4.7723 8.63615 5.14062L8.54238 8.44196C8.52898 8.80356 8.32809 9.00445 7.99329 9.00445ZM7.99329 11.4687C7.60489 11.4687 7.24326 11.1607 7.24326 10.7455C7.24326 10.3304 7.59818 10.0223 7.99329 10.0223C8.38166 10.0223 8.74326 10.3236 8.74326 10.7455C8.74326 11.1674 8.37497 11.4687 7.99329 11.4687Z" fill="currentColor"/>
</svg>
