<svg xmlns="http://www.w3.org/2000/svg" width="22" height="22" viewBox="0 0 22 22" fill="none">
<path fill-rule="evenodd" clip-rule="evenodd" d="M5.54655 2.75H7.37988H9.21322H11.0465H12.8799H14.7132H16.5465H18.3799V4.58333H16.5465H14.7132H12.8799H11.0465H9.21322H7.37988H5.54655H3.71322V2.75H5.54655ZM3.71322 4.58333V6.41667V8.25H5.54655H7.37988H9.21322V10.0833H7.37988H5.54655H3.71322H1.87988V8.25V6.41667V4.58333H3.71322ZM18.3799 4.58333H20.2132V6.41667V8.25V10.0833H18.3799H16.5465H14.7132H12.8799V8.25H14.7132H16.5465H18.3799V6.41667V4.58333ZM10.1299 11H11.9632V12.8333H12.8799V14.6667H11.9632H11.0465H10.1299H9.21322V12.8333H10.1299V11ZM2.79655 11.9167H4.62988V13.75V15.5833V17.4167H6.46322H8.29655H10.1299H11.9632H13.7965H15.6299H17.4632V15.5833V13.75V11.9167H19.2965V13.75V15.5833V17.4167V19.25H17.4632H15.6299H13.7965H11.9632H10.1299H8.29655H6.46322H4.62988H2.79655V17.4167V15.5833V13.75V11.9167Z" fill="#66697C"/>
</svg>