<svg xmlns="http://www.w3.org/2000/svg" width="13" height="40" fill="none">
  <path fill="url(#paint0_linear_41070_146681)" fill-rule="evenodd" d="M5.428 38.538c-.094-.048-.353-.132-.541-.295-.126-.108-.2-.328-.211-.503-.018-.277.15-.494.416-.577.18-.056.384-.07.574-.056.58.039 1.162.16 1.739.132.397-.017.973.362 1.17-.172.13-.353-.4-.612-.66-.88-1.223-1.253-2.378-2.552-3.343-4.026-1.43-2.184-2.524-4.5-3.185-7.032a26.584 26.584 0 0 1-.765-9.053c.3-3.443 1.33-6.714 3.11-9.725 1.063-1.797 2.364-3.396 3.783-4.908.217-.23.486-.43.766-.577a.558.558 0 0 1 .702.142c.178.206.27.459.145.71a3.16 3.16 0 0 1-.447.622c-.762.88-1.578 1.719-2.289 2.638-1.928 2.494-3.2 5.287-3.873 8.382a22.541 22.541 0 0 0-.516 5.39c.04 1.625.114 3.232.734 4.766.12.297.177.622.25.937.884 3.742 2.737 6.96 5.303 9.789.565.622 1.156 1.22 1.742 1.824.171.177.492.214.518.08.023-.121.07-.252.042-.364-.165-.692-.356-1.378-.52-2.07a6.972 6.972 0 0 1-.154-.953c-.027-.283.304-.614.607-.654.303-.04.475.153.643.35.04.048.07.112.085.174.469 1.816.948 3.63 1.393 5.451.112.46-.253.906-.713 1-.063.012-.125.037-.188.044-1.164.14-4.927-.194-6.317-.586Z" clip-rule="evenodd"/>
  <defs>
    <linearGradient id="paint0_linear_41070_146681" x1="14.602" x2="7.211" y1="38.309" y2="-.7" gradientUnits="userSpaceOnUse">
      <stop stop-color="#96D0EB"/>
      <stop offset="1" stop-color="#393C4A" stop-opacity=".54"/>
    </linearGradient>
  </defs>
</svg>