<svg xmlns="http://www.w3.org/2000/svg" width="17" height="17" viewBox="0 0 17 17" fill="none">
<g clip-path="url(#clip0_468_68617)">
<path fill-rule="evenodd" clip-rule="evenodd" d="M8.25337 1.84273V2.24214L7.87783 2.25112L7.5023 2.26013L7.4938 3.11507L7.48527 3.97L7.39792 3.97486C7.34985 3.97751 7.16672 3.98253 6.99094 3.98605L6.67134 3.99241L6.66236 4.36289C6.65437 4.69189 6.6467 4.73548 6.59374 4.75229C6.56095 4.76271 6.52186 4.76901 6.50687 4.76632C6.49185 4.76364 6.34119 4.76313 6.17202 4.76523L5.86447 4.76901L5.84098 5.59997L5.81749 6.43093H5.41051H5.00356L4.9825 7.0593C4.97093 7.40489 4.96147 7.96579 4.96147 8.30575V8.92383H4.56197H4.16246L4.15486 10.7296C4.15067 11.7227 4.14706 12.8266 4.14687 13.1825L4.14648 13.8297L4.55398 13.8387L4.96147 13.8476V14.2781V14.7086H5.39197H5.82248L5.83142 15.1161L5.84037 15.5236L7.04687 15.5118L8.25337 15.4999V15.9512V16.4025H8.68483H9.11629V15.9774C9.11629 15.6894 9.12866 15.54 9.15464 15.514C9.18309 15.4856 9.50051 15.4757 10.3851 15.4757H11.5772V15.0762V14.6767H11.9927H12.4082V14.2612V13.8457H12.8237H13.2392V11.4007V8.95579H12.8237H12.4082V7.67738V6.39897H11.9927H11.5772V5.59997V4.80097H11.1467H10.7162L10.7073 4.39347L10.6983 3.98598L10.3077 3.977L9.91715 3.96805L9.90823 3.54554L9.89931 3.12306L9.52432 3.11405L9.14934 3.10506L9.1408 2.28308L9.13227 1.46113L8.69282 1.45224L8.25337 1.44336V1.84273ZM9.91529 10.5378V12.1518H10.3148H10.7143V12.5494C10.7143 12.8327 10.7258 12.9543 10.7542 12.9724C10.7762 12.9864 10.9556 13.0032 11.1528 13.0097L11.5114 13.0216L11.5203 12.5947L11.5293 12.1678L11.9528 12.1589L12.3762 12.15V11.7194V11.2889H11.9767H11.5772V10.1064V8.92383H10.7463H9.91529V10.5378ZM10.7275 13.843C10.7202 13.8504 10.7143 14.0409 10.7143 14.2665V14.6767H11.1458H11.5772V14.263V13.8492L11.159 13.8395C10.9289 13.8341 10.7348 13.8357 10.7275 13.843Z" fill="currentColor"/>
</g>
<defs>
<clipPath id="clip0_468_68617">
<rect width="16.3636" height="16.3636" fill="white" transform="translate(0.392578 0.197266)"/>
</clipPath>
</defs>
</svg>