<svg width="24" height="24" viewBox="0 0 24 24" fill="none" xmlns="http://www.w3.org/2000/svg">
  <path d="M18.0571 17.8805H7.04447H5.94321C5.63898 17.8805 5.39258 17.6341 5.39258 17.3299C5.39258 17.0256 5.63898 16.7792 5.94321 16.7792H6.49384V10.7223C6.49522 9.40836 7.01763 8.14887 7.94682 7.21958C8.876 6.2904 10.1356 5.76798 11.4495 5.7666H12.5508C13.8647 5.76798 15.1242 6.2904 16.0535 7.21958C16.9827 8.14877 17.5051 9.40836 17.5065 10.7223V16.7792H18.0571C18.3614 16.7792 18.6078 17.0256 18.6078 17.3299C18.6078 17.6341 18.3613 17.8805 18.0571 17.8805ZM13.2377 3.97852H11.0352C10.7309 3.97852 10.4845 4.22492 10.4845 4.52915C10.4845 4.83338 10.7309 5.07978 11.0352 5.07978H13.2377C13.5419 5.07978 13.7883 4.83338 13.7883 4.52915C13.7883 4.22492 13.5419 3.97852 13.2377 3.97852ZM9.29874 18.919C9.69038 19.6011 10.4172 20.0216 11.2038 20.0203H12.3051C13.0918 20.0216 13.8186 19.6011 14.2102 18.919H9.29874Z" fill="currentColor" />
</svg>
  