<svg width="18" height="19" viewBox="0 0 18 19" fill="currentColor" xmlns="http://www.w3.org/2000/svg">
<path d="M17.0011 1.49976H1.00098V11.0998H2.60099V3.09976H15.4011V11.0998H17.0011V1.49976ZM4.201 11.0998H2.60099V12.6998H4.201V11.0998ZM4.201 12.6998H5.80101V14.2998H7.40102V15.8998H5.80101V14.2998H4.201V12.6998ZM7.40102 15.8998V17.4998H10.601V15.8998H12.2011V14.2998H10.601V15.8998H7.40102ZM15.4011 11.0998H13.8011V12.6998H12.2011V14.2998H13.8011V12.6998H15.4011V11.0998Z" fill="currentColor"/>
<rect x="2.60156" y="9.5094" width="1.59844" height="1.59844" fill="currentColor"/>
<rect x="5.7915" y="12.7271" width="1.59844" height="1.59844" fill="currentColor"/>
<rect x="4.2002" y="11.1031" width="1.59844" height="1.59844" fill="currentColor"/>
<rect x="7.38965" y="14.3208" width="1.59844" height="1.59844" fill="currentColor"/>
<rect width="1.69688" height="1.59844" transform="matrix(1 0 0 -1 8.93457 15.9238)" fill="currentColor"/>
<rect width="1.74844" height="1.59844" transform="matrix(1 0 0 -1 12.1992 12.7062)" fill="currentColor"/>
<rect width="1.59844" height="1.59844" transform="matrix(1 0 0 -1 10.6079 14.3301)" fill="currentColor"/>
<rect width="1.78359" height="1.59844" transform="matrix(1 0 0 -1 13.7979 11.1124)" fill="currentColor"/>
<path d="M6.07715 4.9555H8.31027V4.39722H9.42684V4.9555H11.66V6.07206H9.42684V7.18862H11.66V10.5383H9.42684V11.0966H8.31027V10.5383H6.07715V9.42175H8.31027V8.30519H6.07715V4.9555ZM7.19371 7.18862H8.31027V6.07206H7.19371V7.18862ZM9.42684 9.42175H10.5434V8.30519H9.42684V9.42175Z" fill="currentColor"/>
</svg>
