<svg xmlns="http://www.w3.org/2000/svg" width="20" height="20" viewBox="0 0 20 20" fill="none">
<path d="M4.28302 17.7051H15.7172C17.4667 17.7051 18.3454 16.8345 18.3454 15.1102V4.88978C18.3454 3.16546 17.4667 2.29492 15.7172 2.29492H4.28302C2.54195 2.29492 1.65466 3.15706 1.65466 4.88978V15.1102C1.65466 16.8429 2.54195 17.7051 4.28302 17.7051ZM4.16584 16.3574C3.42084 16.3574 3.00234 15.964 3.00234 15.1855V7.29214C3.00234 6.52203 3.42084 6.12024 4.16584 6.12024H15.826C16.5709 6.12024 16.9978 6.52203 16.9978 7.29214V15.1855C16.9978 15.964 16.5709 16.3574 15.826 16.3574H4.16584ZM8.35948 9.12528H8.85334C9.14631 9.12528 9.24673 9.04156 9.24673 8.7486V8.25474C9.24673 7.96178 9.14631 7.86971 8.85334 7.86971H8.35948C8.06648 7.86971 7.97441 7.96178 7.97441 8.25474V8.7486C7.97441 9.04156 8.06648 9.12528 8.35948 9.12528ZM11.1469 9.12528H11.6323C11.9337 9.12528 12.0258 9.04156 12.0258 8.7486V8.25474C12.0258 7.96178 11.9337 7.86971 11.6323 7.86971H11.1469C10.8539 7.86971 10.7534 7.96178 10.7534 8.25474V8.7486C10.7534 9.04156 10.8539 9.12528 11.1469 9.12528ZM13.9259 9.12528H14.4197C14.7127 9.12528 14.8132 9.04156 14.8132 8.7486V8.25474C14.8132 7.96178 14.7127 7.86971 14.4197 7.86971H13.9259C13.6329 7.86971 13.5324 7.96178 13.5324 8.25474V8.7486C13.5324 9.04156 13.6329 9.12528 13.9259 9.12528ZM5.58045 11.8625H6.07431C6.36727 11.8625 6.46773 11.7787 6.46773 11.4858V10.9919C6.46773 10.699 6.36727 10.6152 6.07431 10.6152H5.58045C5.28748 10.6152 5.18702 10.699 5.18702 10.9919V11.4858C5.18702 11.7787 5.28748 11.8625 5.58045 11.8625ZM8.35948 11.8625H8.85334C9.14631 11.8625 9.24673 11.7787 9.24673 11.4858V10.9919C9.24673 10.699 9.14631 10.6152 8.85334 10.6152H8.35948C8.06648 10.6152 7.97441 10.699 7.97441 10.9919V11.4858C7.97441 11.7787 8.06648 11.8625 8.35948 11.8625ZM11.1469 11.8625H11.6323C11.9337 11.8625 12.0258 11.7787 12.0258 11.4858V10.9919C12.0258 10.699 11.9337 10.6152 11.6323 10.6152H11.1469C10.8539 10.6152 10.7534 10.699 10.7534 10.9919V11.4858C10.7534 11.7787 10.8539 11.8625 11.1469 11.8625ZM13.9259 11.8625H14.4197C14.7127 11.8625 14.8132 11.7787 14.8132 11.4858V10.9919C14.8132 10.699 14.7127 10.6152 14.4197 10.6152H13.9259C13.6329 10.6152 13.5324 10.699 13.5324 10.9919V11.4858C13.5324 11.7787 13.6329 11.8625 13.9259 11.8625ZM5.58045 14.608H6.07431C6.36727 14.608 6.46773 14.5159 6.46773 14.2229V13.7291C6.46773 13.4361 6.36727 13.3524 6.07431 13.3524H5.58045C5.28748 13.3524 5.18702 13.4361 5.18702 13.7291V14.2229C5.18702 14.5159 5.28748 14.608 5.58045 14.608ZM8.35948 14.608H8.85334C9.14631 14.608 9.24673 14.5159 9.24673 14.2229V13.7291C9.24673 13.4361 9.14631 13.3524 8.85334 13.3524H8.35948C8.06648 13.3524 7.97441 13.4361 7.97441 13.7291V14.2229C7.97441 14.5159 8.06648 14.608 8.35948 14.608ZM11.1469 14.608H11.6323C11.9337 14.608 12.0258 14.5159 12.0258 14.2229V13.7291C12.0258 13.4361 11.9337 13.3524 11.6323 13.3524H11.1469C10.8539 13.3524 10.7534 13.4361 10.7534 13.7291V14.2229C10.7534 14.5159 10.8539 14.608 11.1469 14.608Z" fill="currentColor"/>
</svg>