<svg width="15" height="15" viewBox="0 0 15 15" fill="none" xmlns="http://www.w3.org/2000/svg">
<g clip-path="url(#clip0_23103_65847)">
<path d="M14 7.75C14 9.03558 13.6188 10.2923 12.9046 11.3612C12.1903 12.4301 11.1752 13.2632 9.98744 13.7552C8.79972 14.2472 7.49279 14.3759 6.23191 14.1251C4.97104 13.8743 3.81285 13.2552 2.90381 12.3462C1.99476 11.4372 1.3757 10.279 1.1249 9.01809C0.874092 7.75721 1.00281 6.45028 1.49478 5.26256C1.98675 4.07484 2.81987 3.05968 3.88879 2.34545C4.95771 1.63122 6.21442 1.25 7.5 1.25L7.5 7.75H14Z" fill="currentColor"/>
<path opacity="0.6" d="M8.43444 1.96643C9.06245 1.96643 9.68431 2.09013 10.2645 2.33046C10.8447 2.57078 11.3719 2.92304 11.816 3.36711C12.2601 3.81118 12.6123 4.33837 12.8526 4.91858C13.093 5.49878 13.2167 6.12064 13.2167 6.74865L8.43444 6.74865L8.43444 1.96643Z" fill="currentColor" fill-opacity="0.7"/>
</g>
<defs>
<clipPath id="clip0_23103_65847">
<rect width="14.5" height="14.5" fill="currentColor" transform="translate(0 0.25)"/>
</clipPath>
</defs>
</svg>
