<svg width="58" height="58" viewBox="0 0 58 58" fill="none" xmlns="http://www.w3.org/2000/svg">
<rect width="4.33424" height="4.33424" transform="matrix(1 0 0 -1 20.3369 7.32812)" fill="#25CBFF" fill-opacity="0.2"/>
<rect width="4.33424" height="4.33424" transform="matrix(1 0 0 -1 24.6709 7.32812)" fill="#25CBFF" fill-opacity="0.2"/>
<rect width="4.33424" height="4.33424" transform="matrix(1 0 0 -1 29.0059 7.32812)" fill="#25CBFF" fill-opacity="0.2"/>
<rect width="4.33424" height="4.33424" transform="matrix(1 0 0 -1 33.3398 7.32812)" fill="#25CBFF" fill-opacity="0.2"/>
<rect width="4.33424" height="4.33424" transform="matrix(1 0 0 -1 11.6689 11.6631)" fill="#25CBFF" fill-opacity="0.2"/>
<rect width="4.33424" height="4.33424" transform="matrix(1 0 0 -1 16.0029 11.6631)" fill="#25CBFF" fill-opacity="0.2"/>
<rect width="4.33424" height="4.33424" transform="matrix(1 0 0 -1 20.3379 11.6631)" fill="#25CBFF" fill-opacity="0.2"/>
<rect width="4.33424" height="4.33424" transform="matrix(1 0 0 -1 24.6719 11.6631)" fill="#25CBFF" fill-opacity="0.2"/>
<rect width="4.33424" height="4.33424" transform="matrix(1 0 0 -1 29.0059 11.6631)" fill="#25CBFF" fill-opacity="0.2"/>
<rect width="4.33424" height="4.33424" transform="matrix(1 0 0 -1 33.3398 11.6631)" fill="#25CBFF" fill-opacity="0.2"/>
<rect width="4.33424" height="4.33424" transform="matrix(1 0 0 -1 37.6748 11.6631)" fill="#25CBFF" fill-opacity="0.2"/>
<rect width="4.33424" height="4.33424" transform="matrix(1 0 0 -1 42.0088 11.6631)" fill="#25CBFF" fill-opacity="0.2"/>
<rect width="4.33424" height="4.33424" transform="matrix(1 0 0 -1 7.33398 15.9971)" fill="#25CBFF" fill-opacity="0.2"/>
<rect width="4.33424" height="4.33424" transform="matrix(1 0 0 -1 11.668 15.9971)" fill="#25CBFF" fill-opacity="0.2"/>
<rect width="4.33424" height="4.33424" transform="matrix(1 0 0 -1 16.0029 15.9971)" fill="#25CBFF" fill-opacity="0.2"/>
<rect width="4.33424" height="4.33424" transform="matrix(1 0 0 -1 20.3369 15.9971)" fill="#25CBFF" fill-opacity="0.2"/>
<rect width="4.33424" height="4.33424" transform="matrix(1 0 0 -1 24.6709 15.9971)" fill="#25CBFF" fill-opacity="0.2"/>
<rect width="4.33424" height="4.33424" transform="matrix(1 0 0 -1 29.0049 15.9971)" fill="#25CBFF" fill-opacity="0.2"/>
<rect width="4.33424" height="4.33424" transform="matrix(1 0 0 -1 33.3398 15.9971)" fill="#25CBFF" fill-opacity="0.2"/>
<rect width="4.33424" height="4.33424" transform="matrix(1 0 0 -1 37.6738 15.9971)" fill="#25CBFF" fill-opacity="0.2"/>
<rect width="4.33424" height="4.33424" transform="matrix(1 0 0 -1 42.0078 15.9971)" fill="#25CBFF" fill-opacity="0.2"/>
<rect width="4.33424" height="4.33424" transform="matrix(1 0 0 -1 46.3418 15.9971)" fill="#25CBFF" fill-opacity="0.2"/>
<rect width="4.33424" height="4.33424" transform="matrix(1 0 0 -1 5.16699 20.3311)" fill="#25CBFF" fill-opacity="0.2"/>
<rect width="4.33424" height="4.33424" transform="matrix(1 0 0 -1 9.50098 20.3311)" fill="#25CBFF" fill-opacity="0.2"/>
<rect width="4.33424" height="4.33424" transform="matrix(1 0 0 -1 13.8359 20.3311)" fill="#25CBFF" fill-opacity="0.2"/>
<rect width="4.33424" height="4.33424" transform="matrix(1 0 0 -1 18.1699 20.3311)" fill="#25CBFF" fill-opacity="0.2"/>
<rect width="4.33424" height="4.33424" transform="matrix(1 0 0 -1 22.5039 20.3311)" fill="#25CBFF" fill-opacity="0.2"/>
<rect width="4.33424" height="4.33424" transform="matrix(1 0 0 -1 26.8379 20.3311)" fill="#25CBFF" fill-opacity="0.2"/>
<rect width="4.33424" height="4.33424" transform="matrix(1 0 0 -1 31.1729 20.3311)" fill="#25CBFF" fill-opacity="0.2"/>
<rect width="4.33424" height="4.33424" transform="matrix(1 0 0 -1 35.5068 20.3311)" fill="#25CBFF" fill-opacity="0.2"/>
<rect width="4.33424" height="4.33424" transform="matrix(1 0 0 -1 39.8408 20.3311)" fill="#25CBFF" fill-opacity="0.2"/>
<rect width="4.33424" height="4.33424" transform="matrix(1 0 0 -1 44.1748 20.3311)" fill="#25CBFF" fill-opacity="0.2"/>
<rect width="4.33424" height="4.33424" transform="matrix(1 0 0 -1 48.5098 20.3311)" fill="#25CBFF" fill-opacity="0.2"/>
<rect width="4.33424" height="4.33424" transform="matrix(1 0 0 -1 3 24.665)" fill="#25CBFF" fill-opacity="0.2"/>
<rect width="4.33424" height="4.33424" transform="matrix(1 0 0 -1 7.33398 24.665)" fill="#25CBFF" fill-opacity="0.2"/>
<rect width="4.33424" height="4.33424" transform="matrix(1 0 0 -1 11.6689 24.665)" fill="#25CBFF" fill-opacity="0.2"/>
<rect width="4.33424" height="4.33424" transform="matrix(1 0 0 -1 16.0029 24.665)" fill="#25CBFF" fill-opacity="0.2"/>
<rect width="4.33424" height="4.33424" transform="matrix(1 0 0 -1 20.3369 24.665)" fill="#25CBFF" fill-opacity="0.2"/>
<rect width="4.33424" height="4.33424" transform="matrix(1 0 0 -1 24.6709 24.665)" fill="#25CBFF" fill-opacity="0.2"/>
<rect width="4.33424" height="4.33424" transform="matrix(1 0 0 -1 29.0059 24.665)" fill="#25CBFF" fill-opacity="0.2"/>
<rect width="4.33424" height="4.33424" transform="matrix(1 0 0 -1 33.3398 24.665)" fill="#25CBFF" fill-opacity="0.2"/>
<rect width="4.33424" height="4.33424" transform="matrix(1 0 0 -1 37.6738 24.665)" fill="#25CBFF" fill-opacity="0.2"/>
<rect width="4.33424" height="4.33424" transform="matrix(1 0 0 -1 42.0078 24.665)" fill="#25CBFF" fill-opacity="0.2"/>
<rect width="4.33424" height="4.33424" transform="matrix(1 0 0 -1 46.3428 24.665)" fill="#25CBFF" fill-opacity="0.2"/>
<rect width="4.33424" height="4.33424" transform="matrix(1 0 0 -1 50.6768 24.665)" fill="#25CBFF" fill-opacity="0.2"/>
<rect x="3" y="24.665" width="4.33424" height="4.33424" fill="#25CBFF" fill-opacity="0.2"/>
<rect x="7.33398" y="24.665" width="4.33424" height="4.33424" fill="#25CBFF" fill-opacity="0.2"/>
<rect x="11.6689" y="24.665" width="4.33424" height="4.33424" fill="#25CBFF" fill-opacity="0.2"/>
<rect x="16.0029" y="24.665" width="4.33424" height="4.33424" fill="#25CBFF" fill-opacity="0.2"/>
<rect x="20.3369" y="24.665" width="4.33424" height="4.33424" fill="#25CBFF" fill-opacity="0.2"/>
<rect x="24.6709" y="24.665" width="4.33424" height="4.33424" fill="#25CBFF" fill-opacity="0.2"/>
<rect x="29.0059" y="24.665" width="4.33424" height="4.33424" fill="#25CBFF" fill-opacity="0.2"/>
<rect x="33.3398" y="24.665" width="4.33424" height="4.33424" fill="#25CBFF" fill-opacity="0.2"/>
<rect x="37.6738" y="24.665" width="4.33424" height="4.33424" fill="#25CBFF" fill-opacity="0.2"/>
<rect x="42.0078" y="24.665" width="4.33424" height="4.33424" fill="#25CBFF" fill-opacity="0.2"/>
<rect x="46.3428" y="24.665" width="4.33424" height="4.33424" fill="#25CBFF" fill-opacity="0.2"/>
<rect x="50.6768" y="24.665" width="4.33424" height="4.33424" fill="#25CBFF" fill-opacity="0.2"/>
<rect x="3" y="29" width="4.33424" height="4.33424" fill="#25CBFF" fill-opacity="0.2"/>
<rect x="7.33398" y="29" width="4.33424" height="4.33424" fill="#25CBFF" fill-opacity="0.2"/>
<rect x="11.6689" y="29" width="4.33424" height="4.33424" fill="#25CBFF" fill-opacity="0.2"/>
<rect x="16.0029" y="29" width="4.33424" height="4.33424" fill="#25CBFF" fill-opacity="0.2"/>
<rect x="20.3369" y="29" width="4.33424" height="4.33424" fill="#25CBFF" fill-opacity="0.2"/>
<rect x="24.6709" y="29" width="4.33424" height="4.33424" fill="#25CBFF" fill-opacity="0.2"/>
<rect x="29.0059" y="29" width="4.33424" height="4.33424" fill="#25CBFF" fill-opacity="0.2"/>
<rect x="33.3398" y="29" width="4.33424" height="4.33424" fill="#25CBFF" fill-opacity="0.2"/>
<rect x="37.6738" y="29" width="4.33424" height="4.33424" fill="#25CBFF" fill-opacity="0.2"/>
<rect x="42.0078" y="29" width="4.33424" height="4.33424" fill="#25CBFF" fill-opacity="0.2"/>
<rect x="46.3428" y="29" width="4.33424" height="4.33424" fill="#25CBFF" fill-opacity="0.2"/>
<rect x="50.6768" y="29" width="4.33424" height="4.33424" fill="#25CBFF" fill-opacity="0.2"/>
<rect x="3" y="33.334" width="4.33424" height="4.33424" fill="#25CBFF" fill-opacity="0.2"/>
<rect x="7.33398" y="33.334" width="4.33424" height="4.33424" fill="#25CBFF" fill-opacity="0.2"/>
<rect x="11.6689" y="33.334" width="4.33424" height="4.33424" fill="#25CBFF" fill-opacity="0.2"/>
<rect x="16.0029" y="33.334" width="4.33424" height="4.33424" fill="#25CBFF" fill-opacity="0.2"/>
<rect x="20.3369" y="33.334" width="4.33424" height="4.33424" fill="#25CBFF" fill-opacity="0.2"/>
<rect x="24.6709" y="33.334" width="4.33424" height="4.33424" fill="#25CBFF" fill-opacity="0.2"/>
<rect x="29.0059" y="33.334" width="4.33424" height="4.33424" fill="#25CBFF" fill-opacity="0.2"/>
<rect x="33.3398" y="33.334" width="4.33424" height="4.33424" fill="#25CBFF" fill-opacity="0.2"/>
<rect x="37.6738" y="33.334" width="4.33424" height="4.33424" fill="#25CBFF" fill-opacity="0.2"/>
<rect x="42.0078" y="33.334" width="4.33424" height="4.33424" fill="#25CBFF" fill-opacity="0.2"/>
<rect x="46.3428" y="33.334" width="4.33424" height="4.33424" fill="#25CBFF" fill-opacity="0.2"/>
<rect x="50.6768" y="33.334" width="4.33424" height="4.33424" fill="#25CBFF" fill-opacity="0.2"/>
<rect x="5.16699" y="37.668" width="4.33424" height="4.33424" fill="#25CBFF" fill-opacity="0.2"/>
<rect x="9.50098" y="37.668" width="4.33424" height="4.33424" fill="#25CBFF" fill-opacity="0.2"/>
<rect x="13.8359" y="37.668" width="4.33424" height="4.33424" fill="#25CBFF" fill-opacity="0.2"/>
<rect x="18.1699" y="37.668" width="4.33424" height="4.33424" fill="#25CBFF" fill-opacity="0.2"/>
<rect x="22.5039" y="37.668" width="4.33424" height="4.33424" fill="#25CBFF" fill-opacity="0.2"/>
<rect x="26.8379" y="37.668" width="4.33424" height="4.33424" fill="#25CBFF" fill-opacity="0.2"/>
<rect x="31.1729" y="37.668" width="4.33424" height="4.33424" fill="#25CBFF" fill-opacity="0.2"/>
<rect x="35.5068" y="37.668" width="4.33424" height="4.33424" fill="#25CBFF" fill-opacity="0.2"/>
<rect x="39.8408" y="37.668" width="4.33424" height="4.33424" fill="#25CBFF" fill-opacity="0.2"/>
<rect x="44.1748" y="37.668" width="4.33424" height="4.33424" fill="#25CBFF" fill-opacity="0.2"/>
<rect x="48.5098" y="37.668" width="4.33424" height="4.33424" fill="#25CBFF" fill-opacity="0.2"/>
<rect x="7.33398" y="42.002" width="4.33424" height="4.33424" fill="#25CBFF" fill-opacity="0.2"/>
<rect x="11.668" y="42.002" width="4.33424" height="4.33424" fill="#25CBFF" fill-opacity="0.2"/>
<rect x="16.0029" y="42.002" width="4.33424" height="4.33424" fill="#25CBFF" fill-opacity="0.2"/>
<rect x="20.3369" y="42.002" width="4.33424" height="4.33424" fill="#25CBFF" fill-opacity="0.2"/>
<rect x="24.6709" y="42.002" width="4.33424" height="4.33424" fill="#25CBFF" fill-opacity="0.2"/>
<rect x="29.0049" y="42.002" width="4.33424" height="4.33424" fill="#25CBFF" fill-opacity="0.2"/>
<rect x="33.3398" y="42.002" width="4.33424" height="4.33424" fill="#25CBFF" fill-opacity="0.2"/>
<rect x="37.6738" y="42.002" width="4.33424" height="4.33424" fill="#25CBFF" fill-opacity="0.2"/>
<rect x="42.0078" y="42.002" width="4.33424" height="4.33424" fill="#25CBFF" fill-opacity="0.2"/>
<rect x="46.3418" y="42.002" width="4.33424" height="4.33424" fill="#25CBFF" fill-opacity="0.2"/>
<rect x="11.6689" y="46.3369" width="4.33424" height="4.33424" fill="#25CBFF" fill-opacity="0.2"/>
<rect x="16.0029" y="46.3369" width="4.33424" height="4.33424" fill="#25CBFF" fill-opacity="0.2"/>
<rect x="20.3379" y="46.3369" width="4.33424" height="4.33424" fill="#25CBFF" fill-opacity="0.2"/>
<rect x="24.6719" y="46.3369" width="4.33424" height="4.33424" fill="#25CBFF" fill-opacity="0.2"/>
<rect x="29.0059" y="46.3369" width="4.33424" height="4.33424" fill="#25CBFF" fill-opacity="0.2"/>
<rect x="33.3398" y="46.3369" width="4.33424" height="4.33424" fill="#25CBFF" fill-opacity="0.2"/>
<rect x="37.6748" y="46.3369" width="4.33424" height="4.33424" fill="#25CBFF" fill-opacity="0.2"/>
<rect x="42.0088" y="46.3369" width="4.33424" height="4.33424" fill="#25CBFF" fill-opacity="0.2"/>
<rect x="20.3369" y="50.6709" width="4.33424" height="4.33424" fill="#25CBFF" fill-opacity="0.2"/>
<rect x="24.6709" y="50.6709" width="4.33424" height="4.33424" fill="#25CBFF" fill-opacity="0.2"/>
<rect x="29.0059" y="50.6709" width="4.33424" height="4.33424" fill="#25CBFF" fill-opacity="0.2"/>
<rect x="33.3398" y="50.6709" width="4.33424" height="4.33424" fill="#25CBFF" fill-opacity="0.2"/>
<path d="M37.336 19.3834V16.1328H21.0873V19.3834H17.8369V42.1328H21.0873V38.8822H24.3377L24.3361 42.1328H27.5865V38.8822H30.8369V42.1328H34.0872V38.8822H37.3376L37.336 42.1328H40.5864V19.3834H37.336ZM27.5864 29.1337H24.336V25.8831H21.0856V22.6325H27.5847L27.5864 29.1337ZM37.336 29.1337H34.0856V25.8831H30.8368V22.6325H37.3358L37.336 29.1337Z" fill="#9CDDFF"/>
</svg>
