<svg xmlns="http://www.w3.org/2000/svg" width="20" height="21" fill="none" viewBox="0 0 20 21">
  <path fill="currentColor" fill-rule="evenodd" d="M19.527 3.797c.018.029.054 4.385.08 7.599l.049 5.843-9.601-.02c-5.28-.01-9.615-.034-9.63-.052-.017-.018-.042-2.653-.055-5.855L.346 3.788l9.574-.022c5.266-.012 9.59.002 9.607.031Zm-1.776 4.326v.715H2.135V5.704H17.75v2.419Zm-.602 2.589.602.018v4.55l-2.977.005c-1.637.002-4.236.01-5.775.016l-2.797.011-.02-.596-.018-.597-.404-.042a5.825 5.825 0 0 0-.762-.021l-.358.02-.033.618-.032.618H2.167v-4.62h7.19c3.955 0 7.46.01 7.792.02Zm-.548 1.423c.024.024.044.449.044.944v.9h-1.692v-1.887h.802c.442 0 .822.02.846.043Zm-2.67-.002c.026.025.046.45.046.946v.9h-1.63l.018-.928.018-.927.752-.018c.413-.01.772.002.797.027Zm-3.159.01.537.02v1.88H9.748v-1.872l.244-.024c.134-.012.485-.014.78-.004Z" clip-rule="evenodd"/>
</svg>