<svg width="26" height="27" viewBox="0 0 26 27" fill="none" xmlns="http://www.w3.org/2000/svg">
<path d="M12.0486 1.69629H11.0486V2.69629V7.69601V8.69601H12.0486H13.2757H14.2757V7.69601V2.69629V1.69629H13.2757H12.0486ZM18.322 11.7905H17.322V12.7905V14.0293V15.0293H18.322H23.2745H24.2745V14.0293V12.7905V11.7905H23.2745H18.322ZM2.0498 11.7905H1.0498V12.7905V14.0293V15.0293H2.0498H7.0023H8.0023V14.0293V12.7905V11.7905H7.0023H2.0498ZM12.0486 18.124H11.0486V19.124V24.1237V25.1237H12.0486H13.2757H14.2757V24.1237V19.124V18.124H13.2757H12.0486ZM10 9.49995H9V10.5V16.5V17.5H10H16H17V16.5V10.5V9.49995H16H10Z" fill="white" stroke="#060917" stroke-width="2"/>
</svg>
