<svg width="13" height="19" viewBox="0 0 13 19" fill="none" xmlns="http://www.w3.org/2000/svg">
<path fill-rule="evenodd" clip-rule="evenodd" d="M5.15726 0.82446C5.14404 0.845837 5.13738 1.06738 5.14243 1.31681C5.14748 1.56624 5.14927 1.84676 5.14641 1.94018L5.14121 2.10998L2.86527 2.11922L0.589355 2.12842L0.592578 6.6024C0.594333 9.06311 0.600062 11.0807 0.60529 11.0859C0.610518 11.0911 1.63625 11.101 2.88475 11.108C4.59354 11.1175 5.15819 11.1312 5.16882 11.1631C5.17663 11.1864 5.21387 11.2056 5.25161 11.2056C5.35359 11.2056 5.34757 11.4294 5.24377 11.4983C5.16814 11.5485 5.16703 11.5665 5.14909 13.0603L5.13094 14.5715H4.00913H2.88732L2.87737 14.0612L2.86745 13.5509L1.82904 13.5409C1.25791 13.5354 0.754356 13.5397 0.710062 13.5506L0.629496 13.5702V15.3599V17.1496H2.9009H5.17229L5.18361 17.7615L5.19492 18.3734L5.2954 18.4597L5.39588 18.5461H6.37947H7.36306L7.39797 18.4542C7.41716 18.4037 7.43288 18.0975 7.43288 17.7739V17.1854H9.75581H12.0787L12.0625 15.6725C12.0536 14.8404 12.0436 12.8384 12.0402 11.2235L12.0341 8.28727L9.7514 8.27807L7.46869 8.26883V6.47875V4.68864H8.64925H9.82982L9.83985 5.14518L9.84987 5.60173H10.942H12.0341L12.0434 3.83238L12.0527 2.06303L9.76071 2.0876L7.46869 2.11216L7.46837 1.63689C7.46822 1.3755 7.45791 1.07704 7.44548 0.973633L7.42289 0.785645H6.30209C5.53538 0.785645 5.17366 0.797926 5.15726 0.82446ZM3.99717 4.75184C3.1793 4.75897 2.89993 4.77239 2.8792 4.80555C2.86401 4.82986 2.85173 5.6096 2.85191 6.5383L2.85223 8.22687L3.2179 8.25028C3.41903 8.26317 3.9421 8.26872 4.38024 8.2626L5.17691 8.25147L5.18522 6.91764C5.1994 4.64732 5.20148 4.74958 5.14121 4.74575C5.11167 4.74389 4.59684 4.74661 3.99717 4.75184ZM8.18036 8.92919C8.17789 8.96016 8.17287 9.00567 8.16922 9.03027C8.15988 9.09286 8.21953 9.16455 8.2809 9.16455C8.36072 9.16455 8.32917 8.90019 8.2475 8.88472C8.21054 8.8777 8.18301 8.89596 8.18036 8.92919ZM9.15163 9.54053C9.15163 9.64197 9.16527 9.66585 9.22324 9.66585C9.28122 9.66585 9.29486 9.64197 9.29486 9.54053C9.29486 9.43909 9.28122 9.4152 9.22324 9.4152C9.16527 9.4152 9.15163 9.43909 9.15163 9.54053ZM8.18483 9.63005C8.18483 9.64974 8.20191 9.66585 8.22275 9.66585C8.24359 9.66585 8.25072 9.64974 8.23854 9.63005C8.22637 9.61035 8.20933 9.59424 8.20062 9.59424C8.19192 9.59424 8.18483 9.61035 8.18483 9.63005ZM7.49236 11.8053C7.47947 12.1746 7.46883 12.9319 7.46879 13.4883L7.46869 14.4998H8.63719H9.80569L9.78377 12.9512C9.77174 12.0994 9.76154 11.3421 9.76114 11.2682L9.76035 11.134H8.63808H7.51581L7.49236 11.8053ZM5.19242 11.3603C5.16377 11.435 5.19958 11.4838 5.24774 11.4356C5.26808 11.4153 5.26862 11.3811 5.24907 11.3495C5.2216 11.305 5.21301 11.3067 5.19242 11.3603Z" fill="currentColor"/>
</svg>
