<svg width="8" height="18" viewBox="0 0 8 18" fill="none" xmlns="http://www.w3.org/2000/svg">
<path d="M8 12.1621C8 10.1193 6.30913 9.24321 4.76593 8.56291V3.99072C5.76103 4.18456 6.40824 4.67102 6.60647 4.96369C6.85524 5.30385 7.30224 5.35326 7.65211 5.15753C8.00001 4.91428 8.05054 4.47723 7.85036 4.13513C7.35281 3.45483 6.30716 2.7251 4.76595 2.52934V0.729729C4.76595 0.340161 4.41806 0 4.01963 0C3.6212 0 3.27331 0.340161 3.27331 0.729729V2.48186C1.43278 2.77261 0.0392446 4.13513 0.0392446 5.83783C0.0392446 7.93011 1.73011 8.85365 3.27331 9.48647V14.0112C2.22766 13.8173 1.631 13.3309 1.38223 13.0382C1.13345 12.698 0.686457 12.6011 0.336581 12.8444C-0.0113149 13.0876 -0.110437 13.5247 0.138337 13.8668C0.585354 14.5471 1.68153 15.3262 3.22274 15.52V17.2703C3.22274 17.6598 3.57063 18 3.96906 18C4.36749 18 4.71538 17.6598 4.71538 17.2703V15.5181C6.60647 15.2274 8 13.8649 8 12.1622V12.1621ZM1.53187 5.83781C1.53187 5.05865 2.17908 4.23202 3.27329 3.98877V7.88066C2.17908 7.34664 1.53187 6.81078 1.53187 5.83781ZM4.76593 14.0113V10.1688C5.86014 10.7047 6.50735 11.1912 6.50735 12.1642C6.50735 12.9414 5.86014 13.7681 4.76593 14.0113V14.0113Z" fill="currentColor"/>
</svg>
