<svg width="18" height="18" viewBox="0 0 18 18" fill="none" xmlns="http://www.w3.org/2000/svg">
  <path d="M13 12.1621C13 10.1193 11.3091 9.24321 9.76593 8.56291V3.99072C10.761 4.18456 11.4082 4.67102 11.6065 4.96369C11.8552 5.30385 12.3022 5.35326 12.6521 5.15753C13 4.91428 13.0505 4.47723 12.8504 4.13513C12.3528 3.45483 11.3072 2.7251 9.76595 2.52934V0.729729C9.76595 0.340161 9.41806 0 9.01963 0C8.6212 0 8.27331 0.340161 8.27331 0.729729V2.48186C6.43278 2.77261 5.03924 4.13513 5.03924 5.83783C5.03924 7.93011 6.73011 8.85365 8.27331 9.48647V14.0112C7.22766 13.8173 6.631 13.3309 6.38223 13.0382C6.13345 12.698 5.68646 12.6011 5.33658 12.8444C4.98869 13.0876 4.88956 13.5247 5.13834 13.8668C5.58535 14.5471 6.68153 15.3262 8.22274 15.52V17.2703C8.22274 17.6598 8.57063 18 8.96906 18C9.36749 18 9.71538 17.6598 9.71538 17.2703V15.5181C11.6065 15.2274 13 13.8649 13 12.1622V12.1621ZM6.53187 5.83781C6.53187 5.05865 7.17908 4.23202 8.27329 3.98877V7.88066C7.17908 7.34664 6.53187 6.81078 6.53187 5.83781ZM9.76593 14.0113V10.1688C10.8601 10.7047 11.5074 11.1912 11.5074 12.1642C11.5074 12.9414 10.8601 13.7681 9.76593 14.0113V14.0113Z" fill="currentColor" />
</svg>
  