<svg width="24" height="25" viewBox="0 0 24 25" fill="none" xmlns="http://www.w3.org/2000/svg">
  <path d="M12.4431 5.83226L12.443 14.7235M12.443 14.7235L9.63057 11.911M12.443 14.7235L15.2473 11.9192" stroke="currentcolor" stroke-width="2" stroke-linecap="round" stroke-linejoin="round" />
  <path d="M12.4431 5.83226L12.443 14.7235M12.443 14.7235L9.63057 11.911M12.443 14.7235L15.2473 11.9192" stroke="currentcolor" stroke-width="2" stroke-linecap="round" stroke-linejoin="round" />
  <path d="M6.22266 15.6113V16.1669C6.22266 17.8237 7.5658 19.1669 9.22266 19.1669H15.6671C17.324 19.1669 18.6671 17.8237 18.6671 16.1669V16.0558" stroke="currentcolor" stroke-width="2" stroke-linecap="round" stroke-linejoin="round" />
  <path d="M6.22266 15.6113V16.1669C6.22266 17.8237 7.5658 19.1669 9.22266 19.1669H15.6671C17.324 19.1669 18.6671 17.8237 18.6671 16.1669V16.0558" stroke="currentcolor" stroke-width="2" stroke-linecap="round" stroke-linejoin="round" />
</svg>
  