<svg xmlns="http://www.w3.org/2000/svg" width="24" height="24" fill="none" viewBox="0 0 24 24">
  <g stroke="currentColor" stroke-linecap="round" stroke-linejoin="round" stroke-width="2">
    <path stroke-width="2.70678" d="M11.998 2.977V15.01m0 0L8.19 11.203m3.806 3.807 3.796-3.795M11.998 2.977V15.01m0 0L8.19 11.203m3.806 3.807 3.796-3.795M3.579 16.211v.752a4.06 4.06 0 0 0 4.06 4.06h8.722a4.06 4.06 0 0 0 4.06-4.06v-.15"/>
    <path stroke-width="2.70678" d="M3.579 16.211v.752a4.06 4.06 0 0 0 4.06 4.06h8.722a4.06 4.06 0 0 0 4.06-4.06v-.15"/>
  </g>
</svg>