<svg width="25" height="25" viewBox="0 0 25 25" fill="none" xmlns="http://www.w3.org/2000/svg">
<path fill-rule="evenodd" clip-rule="evenodd" d="M12.0721 2.45294V3.03873L11.5214 3.05191L10.9706 3.06512L10.9581 4.31903L10.9456 5.57294L10.8175 5.58006C10.747 5.58395 10.4784 5.59131 10.2206 5.59647L9.75183 5.6058L9.73866 6.14917C9.72694 6.6317 9.71569 6.69564 9.63802 6.7203C9.58993 6.73558 9.5326 6.74481 9.51061 6.74088C9.48858 6.73694 9.26761 6.73619 9.0195 6.73928L8.56842 6.74481L8.53397 7.96356L8.49952 9.18231H7.90261H7.30575L7.27486 10.1039C7.25789 10.6108 7.24402 11.4334 7.24402 11.932V12.8386H6.65808H6.07214L6.06099 15.487C6.05485 16.9436 6.04955 18.5626 6.04927 19.0847L6.04871 20.0339L6.64636 20.047L7.24402 20.0601V20.6915V21.3229H7.87542H8.50683L8.51996 21.9206L8.53308 22.5182L10.3026 22.5009L12.0721 22.4835V23.1454V23.8073H12.705H13.3378V23.1839C13.3378 22.7615 13.3559 22.5423 13.394 22.5042C13.4357 22.4625 13.9013 22.4479 15.1987 22.4479H16.9471V21.862V21.2761H17.5565H18.1659V20.6667V20.0573H18.7753H19.3846V16.4714V12.8854H18.7753H18.1659V11.0104V9.13544H17.5565H16.9471V7.96356V6.79169H16.3157H15.6843L15.6712 6.19403L15.6581 5.59637L15.0852 5.5832L14.5124 5.57008L14.4993 4.95039L14.4862 4.33075L13.9362 4.31753L13.3862 4.30436L13.3737 3.09878L13.3612 1.89325L12.7167 1.88022L12.0721 1.86719V2.45294ZM14.5096 15.2057V17.5729H15.0956H15.6815V18.1561C15.6815 18.5716 15.6984 18.75 15.7401 18.7765C15.7724 18.797 16.0354 18.8216 16.3246 18.8312L16.8506 18.8486L16.8637 18.2225L16.8768 17.5964L17.4979 17.5833L18.119 17.5702V16.9388V16.3073H17.5331H16.9471V14.5729V12.8386H15.7284H14.5096V15.2057ZM15.7009 20.0534C15.6902 20.0642 15.6815 20.3436 15.6815 20.6745V21.2761H16.3143H16.9471V20.6693V20.0625L16.3337 20.0482C15.9963 20.0403 15.7115 20.0427 15.7009 20.0534Z" fill="white"/>
</svg>
