<svg width="24" height="24" viewBox="0 0 24 24" fill="none" xmlns="http://www.w3.org/2000/svg">
  <g clip-path="url(#clip0_14270_159142)">
    <path fill-rule="evenodd" clip-rule="evenodd" d="M22.9831 9.13007C23.1372 9.40104 23.2916 9.67232 23.4463 9.94396C23.8503 10.6279 23.9764 11.3613 24 12.1442C23.9754 12.8529 23.798 13.4855 23.4452 14.1181C22.3963 15.9044 21.3783 17.6749 20.3551 19.4543C20.0739 19.9435 19.7922 20.4333 19.5094 20.9243C18.9547 21.9364 18.0964 22.4939 17.0371 22.8478C16.6843 22.9496 16.3059 23 15.9275 23H7.88087C7.17433 23 6.51906 22.7213 5.93865 22.3674C5.308 22.0136 4.80348 21.5332 4.45071 20.8749C3.82222 19.7846 3.19404 18.7003 2.56599 17.6161C1.8822 16.4358 1.19857 15.2557 0.514923 14.0687C0.0862749 13.3343 -0.0398559 12.5505 0.0103997 11.7152C0.0606503 11.0322 0.238041 10.3996 0.590804 9.81744C1.2351 8.70261 1.8791 7.57515 2.52309 6.44771C3.16553 5.32297 3.80797 4.19826 4.45066 3.08613C4.98082 2.12439 5.8381 1.5422 6.84715 1.18835C7.22554 1.06183 7.62856 1.01142 8.03258 1.01142C8.89691 1.01142 9.7668 1.00858 10.6385 1.00573C12.3876 1.00001 14.1442 0.994271 15.8784 1.01142C17.4679 1.01142 18.679 1.74483 19.486 3.08613C20.6871 5.09486 21.8301 7.10368 22.9831 9.13007ZM17.7594 7.45261L13.2225 11.9895L17.7594 16.5263C17.9155 16.688 18.0019 16.9045 18 17.1292C17.998 17.354 17.9079 17.569 17.7489 17.7279C17.59 17.8868 17.375 17.9769 17.1503 17.9789C16.9256 17.9809 16.709 17.8945 16.5474 17.7383L12.0105 13.2015L7.47368 17.7383C7.39461 17.8202 7.30003 17.8855 7.19545 17.9304C7.09088 17.9753 6.9784 17.999 6.86459 18C6.75078 18.001 6.63791 17.9793 6.53257 17.9362C6.42723 17.8931 6.33153 17.8294 6.25105 17.7489C6.17057 17.6685 6.10693 17.5728 6.06383 17.4674C6.02073 17.3621 5.99904 17.2492 6.00003 17.1354C6.00102 17.0216 6.02467 16.9091 6.06959 16.8045C6.11451 16.7 6.17981 16.6054 6.26168 16.5263L10.7985 11.9895L6.26168 7.45261C6.10554 7.29095 6.01915 7.07443 6.0211 6.84969C6.02305 6.62495 6.1132 6.40997 6.27212 6.25105C6.43104 6.09213 6.64602 6.00199 6.87076 6.00003C7.0955 5.99808 7.31202 6.08447 7.47368 6.24061L12.0105 10.7775L16.5474 6.24061C16.709 6.08447 16.9256 5.99808 17.1503 6.00003C17.375 6.00199 17.59 6.09213 17.7489 6.25105C17.9079 6.40997 17.998 6.62495 18 6.84969C18.0019 7.07443 17.9155 7.29095 17.7594 7.45261Z" fill="url(#paint0_linear_14270_159142)" />
  </g>
  <defs>
    <linearGradient id="paint0_linear_14270_159142" x1="12" y1="1" x2="12" y2="23" gradientUnits="userSpaceOnUse">
      <stop stop-color="#FF8A8A" />
      <stop offset="1" stop-color="#FF8A8A" stop-opacity="0.27" />
    </linearGradient>
    <clipPath id="clip0_14270_159142">
      <rect width="24" height="24" fill="white" />
    </clipPath>
  </defs>
</svg>
  