<svg width="24" height="24" viewBox="0 0 24 24" fill="none" xmlns="http://www.w3.org/2000/svg">
  <path fill-rule="evenodd" clip-rule="evenodd" d="M6.00001 1.68347H18L24 12.0758L18 22.4681H6.00001L0 12.0758L6.00001 1.68347ZM17.1976 7.20328V9.21856H15.1905V11.2337H13.1752V9.21843H15.1823V7.20328H17.1976ZM13.1637 13.2465V13.2488H11.1565V15.2634H9.14121V13.2481H11.1484V13.2465V11.2335V11.2319H9.14121V9.21666H11.1565V11.2312H13.1637V11.2335V13.2465ZM9.12966 15.2632V17.2785H7.11438V15.2632H9.12966ZM17.1976 15.2615V17.2768H15.1823V15.2616H13.1752V13.2463H15.1905V15.2615H17.1976ZM9.12966 7.20152V9.2168H7.11438V7.20152H9.12966Z" fill="url(#paint0_linear_3_6)" />
  <defs>
    <linearGradient id="paint0_linear_3_6" x1="6.17008" y1="1.58585" x2="18.3654" y2="22.7088" gradientUnits="userSpaceOnUse">
      <stop stop-color="#FF8A8A" />
      <stop offset="1" stop-color="#FF8A8A" stop-opacity="0.27" />
    </linearGradient>
  </defs>
</svg>
  