<svg width="24" height="22" viewBox="0 0 24 22" fill="none" xmlns="http://www.w3.org/2000/svg">
<path fill-rule="evenodd" clip-rule="evenodd" d="M6.10298 0.520508H18.0155L23.9717 10.837L18.0155 21.1536H6.10298L0.146729 10.837L6.10298 0.520508ZM17.2189 6.00006V8.00064H15.2264V10.0011H13.2258V8.00051H15.2183V6.00006H17.2189ZM13.2144 11.9992V12.0015H11.2219V14.0014H9.22127V12.0008H11.2138L11.2138 11.9992V10.0009L11.2138 9.99934H9.22127V7.99876H11.2219V9.99859L13.2144 9.99859V10.0009V11.9992ZM9.20981 14.0012V16.0018H7.20923V14.0012H9.20981ZM17.2189 13.9995V16.0001H15.2183V13.9996H13.2258V11.999H15.2264V13.9995H17.2189ZM9.20981 5.99831V7.9989H7.20923V5.99831H9.20981Z" fill="url(#paint0_linear_13487_8168)"/>
<defs>
<linearGradient id="paint0_linear_13487_8168" x1="6.27181" y1="0.423601" x2="18.3782" y2="21.3925" gradientUnits="userSpaceOnUse">
<stop stop-color="#FF8A8A"/>
<stop offset="1" stop-color="#FF8A8A" stop-opacity="0.27"/>
</linearGradient>
</defs>
</svg>
