<svg width="26" height="26" viewBox="0 0 26 26" fill="none" xmlns="http://www.w3.org/2000/svg">
<path fill-rule="evenodd" clip-rule="evenodd" d="M9.14316 2.2894C9.12524 2.30728 9.1106 3.0104 9.1106 3.8519V5.38184H8.47583H7.84106V6.30957V7.2373H6.01001H4.17896V8.21328V9.18926L5.9978 9.20205L7.81665 9.21484L7.82944 11.1069L7.84219 12.999H8.47642H9.1106V13.2172V13.4354L9.70874 13.4492L10.3069 13.4629L10.3204 14.2075L10.3338 14.9521H10.9185H11.5032V15.6357V16.3193H13.1877H14.8723V15.6357V14.9521H13.2122H11.552V14.1953V13.4385H10.9172H10.2825V12.6328V11.8271H9.69653H9.1106V10.9482V10.0693H13.2366H17.3625V10.9727V11.876H16.7766H16.1907V12.6572V13.4385H15.5559H14.9211V14.1967V14.955L15.5681 14.9414L16.2151 14.9277L16.2286 14.2075L16.2421 13.4873L16.3995 13.4795C16.4861 13.4751 16.7381 13.4758 16.9597 13.481L17.3625 13.4903V13.2202V12.9502H17.9973H18.6321V11.0703C18.6321 9.31377 18.6377 9.19024 18.7175 9.18711C19.3007 9.16445 20.6067 9.14199 21.3542 9.14185L22.2942 9.1416V8.16504V7.18848H20.4875H18.6809V6.26074V5.33301H18.0217H17.3625V3.79492V2.25684H13.2691C11.0177 2.25684 9.16104 2.27148 9.14316 2.2894ZM9.1106 6.11426V6.84668L12.4187 6.85591C14.2381 6.86099 16.0894 6.8665 16.5325 6.86811L17.3381 6.87109L17.3516 6.12646L17.3651 5.38184H13.2378H9.1106V6.11426Z" fill="white"/>
<path d="M9.1106 6.11426V6.84668L12.4187 6.85591C14.2381 6.86099 16.0894 6.8665 16.5325 6.86811L17.3381 6.87109L17.3516 6.12646L17.3651 5.38184H13.2378H9.1106V6.11426Z" fill="white"/>
<path d="M7.42954 15.9816L7.42415 17.3117V18.5896L6.73217 18.6042L6.0402 18.6188L6.02526 19.128L6.01033 19.6372H5.33329H4.65625V20.2638V20.8905H5.33517H6.01409V21.9341V22.9778L7.38169 22.9917L8.74934 23.0056L8.75258 23.554L8.75587 24.1023H9.56535H10.3748V21.9873V19.8722L10.1252 19.8562L9.87551 19.8402L9.89018 19.2034L9.90481 18.5666L10.649 18.5521L11.4063 18.5418L11.3932 19.1135V19.6894H11.8371H12.281V21.3345V22.9795H13.2428C13.9658 22.9795 14.2101 22.9633 14.2265 22.9142C14.2386 22.8784 14.2373 22.1498 14.2237 21.2953L14.1989 19.7416H14.8067H15.4145V19.1671V18.5418L16.0934 18.5927H16.7723V19.2428V19.8928L16.4981 19.9086L16.224 19.9244L16.2103 22.0538L16.1967 24.1831L17.0981 24.1689L17.9996 24.1546V23.5801V23.0056L18.6655 22.991L19.3313 22.9764V22.405V21.8336L20.0233 21.819L20.7153 21.8045L20.7304 21.349L20.7454 20.8935L21.4615 20.8789L22.1776 20.8644L22.1923 20.2769L22.2071 19.6894H21.4761H20.745L20.7302 19.1541L20.7153 18.6188L19.9962 18.6043L19.2773 18.5897L19.2912 17.3248L19.3052 16.0598L18.7089 15.9814C18.3953 15.9814 18.1015 15.9957 18.0561 16.0131C17.9875 16.0395 17.9735 16.1454 17.9735 16.639V17.233L16.6809 17.247L15.4145 17.1826V17.9137V18.5418H15.0228C14.8217 18.5514 13.9229 18.5619 13.0252 18.5418H11.4063V17.8843V17.1957C11.2411 17.1982 10.3285 17.1997 9.76119 17.1957H8.72976V16.6081V15.9814H8.10306L7.42954 15.9816Z" fill="white"/>
</svg>
