<svg width="26" height="26" viewBox="0 0 26 26" fill="none" xmlns="http://www.w3.org/2000/svg">
  <circle cx="13" cy="13" r="13" fill="#00041c"/>
  <g fill="#fff">
    <path fill-rule="evenodd" d="M10.085 5.216c-.013.013-.023.514-.023 1.113v1.09h-.904v1.32H6.55v1.391l1.295.009 1.295.009.01 1.347.009 1.348h.903v.31l.426.01.426.01.01.53.009.53h.833v.974h2.399v-.974H11.8v-1.078h-.904V12.009h-.834v-1.252h5.876v1.287h-.834v1.113H14.2v1.08l.46-.01.461-.01.01-.513.01-.513.111-.005c.062-.003.241-.003.4 0l.286.008v-.385h.904v-1.339c0-1.25.004-1.339.061-1.34a65.014 65.014 0 0 1 1.878-.033h.669V8.705h-2.573V7.384h-.939V5.193h-2.915c-1.603 0-2.925.01-2.938.023zm-.023 2.724v.522l2.356.006 2.93.009.573.002.01-.53.009-.53h-5.878Z" clip-rule="evenodd"/>
    <path d="M10.062 7.94v.522l2.356.006 2.93.009.573.002.01-.53.009-.53h-5.878Z"/>
    <path d="m8.865 14.967-.004.947v.91l-.493.01-.493.01-.01.363-.01.363H6.89v.892h.967v1.487l.974.01.974.01.002.39.002.39h1.153v-3.012l-.178-.011-.177-.012.01-.453.01-.454.53-.01.54-.007-.01.407v.41h.633v2.343h.684c.515 0 .69-.012.7-.047.01-.025.009-.544-.001-1.152l-.018-1.107h.866v-.854l.483.036h.484v.926l-.195.011-.196.011-.01 1.517-.01 1.516.643-.01.642-.01v-.819l.474-.01.474-.01v-.814l.493-.01.493-.01.01-.325.011-.325.51-.01.51-.01.01-.419.011-.418h-1.041l-.01-.381-.011-.381-.512-.01-.512-.011.01-.9.01-.902-.425-.056c-.223 0-.433.01-.465.023-.049.019-.059.094-.059.446v.423l-.92.01-.902-.046v.968h-.279c-.143.007-.783.014-1.423 0h-1.152v-.958c-.118 0-.768.002-1.172 0h-.734v-.866h-.447z"/>
  </g>
</svg>