<svg width="40" height="40" viewBox="0 0 40 40" fill="none" xmlns="http://www.w3.org/2000/svg">
<rect width="40" height="40" rx="20" fill="#00041D"/>
<path fill-rule="evenodd" clip-rule="evenodd" d="M9 11.7503V26.417H11.75V29.167H28.25V26.417H31V17.2395H29.1769V16.3157H27.3477V14.5003H12.726V12.6669H28.25V9.91699H10.8088V11.7503H9Z" fill="white"/>
<path d="M19.6436 17.167H21.0479V15.7627H16.8342V17.167H19.6437H19.6436Z" fill="#000107"/>
<path d="M22.4556 18.5723V17.168H21.0513V18.5723H22.4556Z" fill="#000107"/>
<path d="M21.1175 18.5723V17.168H19.7131V18.5723H21.1175Z" fill="#000107"/>
<path d="M21.0513 22.8379V24.2422H22.5717V22.8379H21.0513Z" fill="#000107"/>
<path d="M21.0513 21.4512V22.8555H22.6094V21.4512H21.0513Z" fill="#000107"/>
<path d="M19.6519 22.8193V24.2237H21.0562V22.8193H19.6519Z" fill="#000107"/>
<path d="M16.8096 22.7852V24.1895H18.2139V22.7852H16.8096Z" fill="#000107"/>
<path d="M15.447 21.417V22.8213H16.8514V21.417H15.447Z" fill="#000107"/>
<path d="M15.447 18.5439V19.9483H16.8514V18.5439H15.447Z" fill="#000107"/>
<path d="M21.082 18.5439V19.9483H22.4864V18.5439H21.082Z" fill="#000107"/>
<path d="M22.457 21.4772V22.9304H23.8614V18.5703H22.457V21.4773V21.4772Z" fill="#000107"/>
<path d="M16.8328 17.167H15.4285V18.5713H16.8328V17.167Z" fill="#000107"/>
<path d="M18.1956 17.167H16.7913V18.5713H18.1956V17.167Z" fill="#000107"/>
<path d="M18.2386 24.1895H16.8342V25.5938H21.0479V24.1895H18.2385H18.2386Z" fill="#000107"/>
<path d="M15.4456 19.9613V18.5498H14.0413V22.7851H15.4456V19.9613V19.9613Z" fill="#000107"/>
<path d="M15.4285 22.7852V24.1895H16.8328V22.7852H15.4285Z" fill="#000107"/>
<path d="M21.0195 22.8174V24.5661H22.8848V22.8174H21.0195Z" fill="#000107"/>
<path d="M22.8794 24.5664V26.3151H24.6281V24.5664H22.8794Z" fill="#000107"/>
<path d="M24.635 26.3105V28.0602H26.3846V26.3105H24.635Z" fill="#000107"/>
</svg>
