<svg width="14" height="18" viewBox="0 0 14 18" fill="none" xmlns="http://www.w3.org/2000/svg">
<path fill-rule="evenodd" clip-rule="evenodd" d="M9.04339 12.6499V15.1709C9.04339 15.7232 9.49111 16.1709 10.0434 16.1709H13.1105C13.5583 16.1709 13.9213 16.5339 13.9213 16.9817C13.9213 17.4295 13.5583 17.7925 13.1105 17.7925H3.35858C2.91237 17.7925 2.55066 17.4308 2.55066 16.9846C2.55066 16.5361 2.91589 16.1735 3.36433 16.1767L6.60107 16.1997C7.15378 16.2036 7.60486 15.7584 7.60817 15.2057L7.63733 10.3401C7.83386 10.4029 8.02049 10.4446 8.2259 10.4413C8.48187 11.3044 8.59981 11.8637 9.04339 12.6499ZM6.06717 7.11091C3.97469 6.56058 2.60266 6.6488 1.92156 6.96153C1.51481 7.14497 1.52184 7.2236 1.92069 7.40704C2.60183 7.72064 3.9746 7.80801 6.06719 7.25854C6.06544 7.20962 6.06542 7.15982 6.06717 7.11091ZM9.95672 4.94536L10.0207 4.9838C11.5443 3.45332 12.1535 2.22421 12.2219 1.47908C12.2622 1.04231 12.1947 1.00386 11.8362 1.25719C11.2234 1.68873 10.4599 2.82871 9.89184 4.90951L9.95672 4.94536ZM10.7588 5.66429C11.3418 6.46446 11.4347 7.56514 10.9061 8.47531C10.8605 8.55393 10.8114 8.62993 10.7588 8.70156C11.8765 9.84505 13.1037 11.3755 13.2352 12.7967C13.3527 14.1035 12.3262 14.6966 11.2506 13.9384C10.0812 13.1138 9.36584 11.2897 8.93102 9.75318C8.40416 9.80821 7.85627 9.70513 7.36274 9.42122C6.87008 9.13733 6.50541 8.71628 6.29064 8.23406C4.73727 8.62716 2.79651 8.92242 1.49378 8.32491C0.298082 7.77545 0.297207 6.59178 1.49378 6.04322C2.79294 5.44396 4.73725 5.73747 6.29064 6.13145C6.32659 6.05021 6.36779 5.97071 6.41337 5.89122C6.9411 4.98011 7.94307 4.51013 8.93108 4.61233C9.36588 3.07575 10.0812 1.25274 11.2497 0.428892C12.3209 -0.325858 13.3562 0.269033 13.2353 1.57151C13.1038 2.99278 11.8774 4.52065 10.7588 5.66429ZM10.0198 9.38482C9.97775 9.41102 9.93479 9.43548 9.89184 9.45819C10.4608 11.539 11.2234 12.6798 11.8362 13.1114C12.1956 13.3647 12.2657 13.3315 12.2245 12.8887C12.1544 12.1435 11.5451 10.9153 10.0198 9.38482ZM9.44739 5.82508C8.69437 5.3918 7.73185 5.64862 7.29705 6.399C6.86225 7.14939 7.11998 8.10854 7.87299 8.54182C8.62601 8.9751 9.58852 8.71828 10.0233 7.9679C10.4581 7.21751 10.2004 6.25836 9.44739 5.82508Z" fill="currentColor"/>
<path d="M9.95672 4.94536L10.0207 4.9838C11.5443 3.45332 12.1535 2.22421 12.2219 1.47908C12.2622 1.04231 12.1947 1.00386 11.8362 1.25719C11.2234 1.68873 10.4599 2.82871 9.89184 4.90951L9.95672 4.94536Z" fill="currentColor"/>
<path d="M6.06717 7.11091C3.97469 6.56058 2.60266 6.6488 1.92156 6.96153C1.51481 7.14497 1.52184 7.2236 1.92069 7.40704C2.60183 7.72064 3.9746 7.80801 6.06719 7.25854C6.06544 7.20962 6.06542 7.15982 6.06717 7.11091Z" fill="currentColor"/>
<path d="M10.0198 9.38482C9.97775 9.41102 9.93479 9.43548 9.89184 9.45819C10.4608 11.539 11.2234 12.6798 11.8362 13.1114C12.1956 13.3647 12.2657 13.3315 12.2245 12.8887C12.1544 12.1435 11.5451 10.9153 10.0198 9.38482Z" fill="currentColor"/>
</svg>
