<svg xmlns="http://www.w3.org/2000/svg" width="210" height="22" viewBox="0 0 210 22" fill="none">
  <g filter="url(#filter0_d_5272_91401)">
    <path d="M198.945 15.5679C199.137 15.6479 199.233 15.7439 199.233 15.8239C199.233 15.9519 199.137 16.0159 198.929 15.9999C197.841 15.9359 196.945 15.9359 195.857 15.9999C195.649 16.0159 195.553 15.9519 195.553 15.8239C195.553 15.7439 195.649 15.6479 195.841 15.5679C196.113 15.4559 196.177 15.1999 196.177 14.5599V10.4799C196.177 8.71987 195.585 7.83987 194.401 7.83987C193.745 7.83987 193.249 8.09587 192.913 8.60787C192.577 9.10387 192.417 9.71187 192.417 10.3999V14.5599C192.417 15.1519 192.529 15.4879 192.769 15.5679C192.945 15.6479 193.041 15.7439 193.041 15.8239C193.041 15.9519 192.945 16.0159 192.737 15.9999C192.225 15.9679 191.713 15.9519 191.217 15.9519C190.737 15.9519 190.225 15.9679 189.681 15.9999C189.473 16.0159 189.377 15.9519 189.377 15.8239C189.377 15.7439 189.473 15.6639 189.649 15.5679C189.889 15.4879 190.001 15.1519 190.001 14.5599V9.23187C190.001 8.65587 189.889 8.31987 189.649 8.22387C189.457 8.14387 189.361 8.06387 189.361 7.95187C189.361 7.83987 189.441 7.75987 189.585 7.72787C190.401 7.55188 191.201 7.27987 191.969 6.87987C192.145 6.78387 192.257 6.83187 192.273 7.03988L192.385 8.33587L192.401 8.49587C192.961 7.27987 193.937 6.67188 195.313 6.67188C197.601 6.67188 198.609 7.90387 198.609 10.4799V14.5599C198.609 15.1999 198.673 15.4559 198.945 15.5679Z" fill="black"/>
  </g>
  <g filter="url(#filter1_d_5272_91401)">
    <path d="M183.685 6.67188C185.077 6.67188 186.213 7.13587 187.061 8.04787C187.925 8.95987 188.357 10.0959 188.357 11.4399C188.357 12.7999 187.925 13.9359 187.061 14.8479C186.213 15.7599 185.077 16.2079 183.685 16.2079C182.293 16.2079 181.157 15.7599 180.309 14.8479C179.461 13.9359 179.029 12.7999 179.029 11.4399C179.045 10.0799 179.477 8.95987 180.325 8.04787C181.173 7.13587 182.293 6.67188 183.685 6.67188ZM182.885 7.21587C181.381 7.50387 181.141 9.59987 181.541 11.8079C181.749 13.0079 182.117 13.9679 182.645 14.7199C183.173 15.4719 183.797 15.7759 184.517 15.6639C185.973 15.3759 186.229 13.2799 185.845 11.0719C185.637 9.87187 185.269 8.91187 184.741 8.15987C184.213 7.40788 183.589 7.10387 182.885 7.21587Z" fill="black"/>
  </g>
  <g filter="url(#filter2_d_5272_91401)">
    <path d="M177.056 5.79176C176.432 6.28776 175.44 6.28776 174.816 5.79176C174.192 5.27976 174.192 4.44776 174.816 3.93576C175.44 3.42376 176.432 3.42376 177.056 3.93576C177.68 4.44776 177.68 5.27976 177.056 5.79176ZM177.6 15.5678C177.792 15.6478 177.888 15.7438 177.888 15.8238C177.888 15.9518 177.792 16.0158 177.584 15.9998C177.008 15.9678 176.496 15.9518 176.048 15.9518C175.568 15.9518 175.056 15.9678 174.512 15.9998C174.304 16.0158 174.208 15.9518 174.208 15.8238C174.208 15.7438 174.304 15.6478 174.496 15.5678C174.768 15.4558 174.832 15.1998 174.832 14.5598V9.24776C174.832 8.62376 174.768 8.36776 174.496 8.23976C174.304 8.15976 174.208 8.07976 174.208 7.96776C174.208 7.85576 174.304 7.75976 174.496 7.69576C175.392 7.51976 176.208 7.24776 176.96 6.87976C177.168 6.78376 177.264 6.83176 177.264 7.03976V14.5598C177.264 15.1998 177.328 15.4558 177.6 15.5678Z" fill="black"/>
  </g>
  <g filter="url(#filter3_d_5272_91401)">
    <path d="M172.98 15.0085C173.06 15.0885 173.06 15.2005 172.964 15.3605C172.564 15.9045 171.956 16.1765 171.14 16.1765C169.748 16.1765 169.06 15.4725 169.06 14.0645V7.53648H168.5C168.324 7.53648 168.244 7.42448 168.244 7.20048C168.244 6.94448 168.292 6.88048 168.5 6.88048H168.708C169.172 6.88048 169.62 6.70448 170.036 6.36848C170.468 6.01648 170.756 5.60048 170.916 5.10448C170.964 4.96048 171.06 4.89648 171.204 4.89648C171.38 4.89648 171.476 4.97648 171.476 5.15248V6.88048H172.756C172.916 6.88048 172.996 6.99248 172.996 7.20048C172.996 7.42448 172.916 7.53648 172.756 7.53648H171.476V14.1765C171.476 14.8005 171.636 15.1365 171.972 15.2005C172.068 15.2165 172.292 15.1685 172.628 15.0565C172.804 14.9605 172.916 14.9445 172.98 15.0085Z" fill="black"/>
  </g>
  <g filter="url(#filter4_d_5272_91401)">
    <path d="M167.16 15.5039C167.288 15.6319 167.448 15.6639 167.448 15.7919C167.448 15.9359 167.336 15.9999 167.128 15.9999H166.952C166.52 15.9999 166.504 15.9999 166.072 15.9519C165.864 15.9359 165.688 15.8879 165.576 15.8399C165.176 15.6159 164.744 15.3119 164.6 14.5599C164.088 15.5999 162.936 16.2079 161.672 16.2079C159.928 16.2079 158.92 15.2959 158.872 13.9999C158.776 12.0799 160.52 11.2319 162.008 10.8959C163.032 10.6239 164.168 10.3519 164.552 10.0479V9.79187C164.552 7.91988 164.264 7.08787 163.176 7.08787C161.032 7.08787 162.568 9.77587 160.632 9.66387C160.2 9.64787 159.928 9.42387 159.8 9.02387C159.64 8.54387 159.768 8.07987 160.2 7.61587C160.808 6.99187 161.8 6.67188 163.176 6.67188C165.672 6.67188 166.936 7.71187 166.936 10.0159C166.936 10.1599 166.936 10.8319 166.952 12.0319C166.968 13.2319 166.968 13.9999 166.968 14.3359C166.968 14.9759 167.032 15.3599 167.16 15.5039ZM162.744 14.8319C163.832 14.8319 164.536 14.0479 164.536 13.1519L164.552 10.8159C164.408 10.9119 164.12 11.0559 163.688 11.2319C163.256 11.4079 162.888 11.5839 162.552 11.7439C161.912 12.0639 161.256 12.7679 161.32 13.6479C161.368 14.3999 161.976 14.8479 162.744 14.8319Z" fill="black"/>
  </g>
  <g filter="url(#filter5_d_5272_91401)">
    <path d="M156.45 6.67188C157.394 6.67188 158.018 6.99187 158.322 7.63188C158.562 8.12787 158.562 8.57587 158.29 9.00787C158.082 9.34387 157.778 9.51987 157.362 9.50387C156.802 9.50387 156.53 9.08787 156.45 8.70387C156.386 8.30387 156.082 7.88787 155.49 7.88787C154.738 7.88787 154.354 8.68787 154.354 10.2719V14.5599C154.354 15.1999 154.498 15.4719 154.898 15.5839C155.106 15.6479 155.202 15.7279 155.202 15.8239C155.202 15.9519 155.09 16.0159 154.882 15.9999C153.666 15.9359 152.754 15.9359 151.602 15.9999C151.394 16.0159 151.298 15.9519 151.298 15.8239C151.298 15.7439 151.394 15.6479 151.586 15.5679C151.826 15.4879 151.938 15.1519 151.938 14.5599V9.23187C151.938 8.65587 151.826 8.31987 151.586 8.22387C151.394 8.14387 151.298 8.06387 151.298 7.95187C151.298 7.83987 151.378 7.75987 151.522 7.72787C152.338 7.55188 153.138 7.27987 153.906 6.87987C154.082 6.78387 154.194 6.83187 154.21 7.03988L154.322 8.33587V8.38387C154.706 7.24787 155.41 6.67188 156.45 6.67188Z" fill="black"/>
  </g>
  <g filter="url(#filter6_d_5272_91401)">
    <path d="M149.878 15.4401C150.07 15.5201 150.166 15.6161 150.166 15.6961C150.166 15.8081 150.07 15.8721 149.862 15.8721C148.758 15.9041 147.942 15.9521 147.398 16.0161C147.206 16.0481 147.11 15.9521 147.11 15.7441V14.5281C146.518 15.6481 145.558 16.2081 144.246 16.2081C143.014 16.2081 142.022 15.7441 141.302 14.8161C140.582 13.8881 140.246 12.6241 140.294 11.0401C140.342 9.58411 140.79 8.46411 141.654 7.68011C142.534 6.89611 143.606 6.57611 144.902 6.72011C145.91 6.83211 146.646 7.32811 147.11 8.19211V6.60811C147.11 6.03211 146.998 5.69611 146.774 5.60011C146.582 5.52011 146.486 5.44011 146.486 5.32811C146.486 5.21611 146.582 5.12011 146.758 5.05611C147.654 4.89611 148.486 4.62411 149.238 4.24011C149.382 4.16011 149.526 4.22411 149.526 4.40011V14.4481C149.526 15.0721 149.606 15.3281 149.878 15.4401ZM145.11 15.1841C146.326 15.1361 147.078 13.9201 147.142 11.6961V10.9601C147.078 8.64011 146.166 7.42411 144.806 7.48811C144.166 7.50411 143.67 7.90411 143.302 8.67211C142.934 9.44011 142.774 10.4001 142.79 11.5521C142.806 12.7201 143.03 13.6161 143.478 14.2721C143.926 14.9121 144.47 15.2161 145.11 15.1841Z" fill="black"/>
  </g>
  <g filter="url(#filter7_d_5272_91401)">
    <path d="M140.202 6.88036C140.394 6.86436 140.49 6.92836 140.49 7.04036C140.49 7.16836 140.41 7.24836 140.25 7.29636C139.882 7.36036 139.53 7.79236 139.226 8.60836L136.346 15.8564C136.138 16.3524 135.962 16.7364 135.818 17.0404C135.674 17.3444 135.466 17.6644 135.226 18.0004C134.73 18.6884 134.106 19.0084 133.322 19.0724C132.522 19.1524 131.962 18.9444 131.642 18.4484C131.402 18.0804 131.402 17.7444 131.642 17.4404C131.722 17.3444 131.818 17.2644 131.946 17.2004C132.586 16.9604 132.73 17.0724 133.178 17.2804C133.418 17.3924 133.594 17.4564 133.738 17.4724C134.426 17.5364 135.002 17.0724 135.434 16.0964L131.978 8.32036C131.722 7.74436 131.69 7.64836 131.546 7.50436C131.482 7.42436 131.402 7.36036 131.306 7.31236C131.114 7.23236 131.018 7.13636 131.018 7.04036C131.018 6.92836 131.114 6.86436 131.322 6.88036C132.538 6.94436 133.37 6.94436 134.586 6.88036C134.794 6.86436 134.89 6.92836 134.89 7.04036C134.89 7.13636 134.794 7.23236 134.602 7.31236C134.298 7.42436 134.314 7.68036 134.57 8.32036L136.506 13.3764C137.674 10.4804 138.298 8.88036 138.41 8.60836C138.73 7.82436 138.666 7.39236 138.218 7.31236C137.834 7.20036 137.834 6.88036 138.234 6.88036C138.778 6.91236 139.13 6.92836 139.274 6.92836C139.386 6.92836 139.69 6.91236 140.202 6.88036Z" fill="black"/>
  </g>
  <g filter="url(#filter8_d_5272_91401)">
    <path d="M130.204 15.5679C130.396 15.6479 130.492 15.7439 130.492 15.8239C130.492 15.9519 130.396 16.0159 130.188 15.9999C129.036 15.9359 128.108 15.9359 126.956 15.9999C126.748 16.0159 126.652 15.9519 126.652 15.8239C126.652 15.7439 126.748 15.6479 126.94 15.5679C127.212 15.4559 127.276 15.1999 127.276 14.5599V11.1679H122.044V14.5599C122.044 15.1999 122.108 15.4559 122.38 15.5679C122.572 15.6479 122.668 15.7439 122.668 15.8239C122.668 15.9519 122.572 16.0159 122.364 15.9999C121.212 15.9359 120.284 15.9359 119.132 15.9999C118.924 16.0159 118.828 15.9519 118.828 15.8239C118.828 15.7439 118.924 15.6639 119.1 15.5679C119.404 15.4559 119.452 15.1999 119.452 14.5599V5.83988C119.452 5.19988 119.404 4.94388 119.1 4.83188C118.924 4.75188 118.828 4.65588 118.828 4.57588C118.828 4.44788 118.924 4.38388 119.132 4.39988C120.284 4.46388 121.212 4.46388 122.364 4.39988C122.572 4.38388 122.668 4.44788 122.668 4.57588C122.668 4.65588 122.572 4.75188 122.38 4.83188C122.108 4.94388 122.044 5.19988 122.044 5.83988V10.5119H127.276V5.83988C127.276 5.19988 127.212 4.94388 126.94 4.83188C126.748 4.75188 126.652 4.65588 126.652 4.57588C126.652 4.44788 126.748 4.38388 126.956 4.39988C128.108 4.46388 129.036 4.46388 130.188 4.39988C130.396 4.38388 130.492 4.44788 130.492 4.57588C130.492 4.65588 130.396 4.75188 130.204 4.83188C129.932 4.94388 129.868 5.19988 129.868 5.83988V14.5599C129.868 15.1999 129.932 15.4559 130.204 15.5679Z" fill="black"/>
  </g>
  <g filter="url(#filter9_d_5272_91401)">
    <path d="M117.709 15.5681C117.901 15.6481 117.997 15.7281 117.997 15.8241C117.997 15.9521 117.901 16.0161 117.693 16.0001C117.117 15.9681 116.573 15.9521 116.061 15.9521C115.533 15.9521 114.973 15.9681 114.397 16.0001C114.205 16.0161 114.109 15.9521 114.109 15.8241C114.109 15.7441 114.189 15.6641 114.349 15.5841C114.653 15.4561 114.653 15.1841 114.445 14.5601L113.709 12.2881H109.357L108.877 13.7921C108.509 14.9281 108.669 15.4401 109.517 15.5681C109.693 15.6161 109.789 15.7121 109.789 15.8241C109.789 15.9521 109.693 16.0161 109.501 16.0001C109.117 15.9841 108.573 15.9681 107.885 15.9681C107.581 15.9681 107.229 15.9841 106.845 16.0001C106.637 16.0161 106.541 15.9521 106.541 15.8241C106.541 15.7281 106.637 15.6481 106.829 15.5681C107.197 15.4561 107.469 14.9601 107.869 13.7921L111.197 4.35212C111.197 4.28812 111.229 4.24012 111.293 4.20812C111.533 4.16012 111.581 4.19212 111.917 4.30412C112.093 4.35212 112.237 4.38412 112.381 4.40012C112.829 4.46412 113.117 4.49612 113.261 4.49612C113.405 4.51212 113.501 4.59212 113.533 4.70412L117.053 14.5601C117.261 15.2161 117.389 15.4561 117.709 15.5681ZM111.517 5.55212L109.565 11.6321H113.501L111.517 5.55212Z" fill="black"/>
  </g>
  <g filter="url(#filter10_d_5272_91401)">
    <path d="M105.847 9.84038C106.023 9.76038 106.151 9.82438 106.151 10.0004V13.6004C106.151 13.7284 106.119 13.8404 106.039 13.9524C105.783 14.3524 105.351 14.7844 104.631 15.3124C103.911 15.8404 102.743 16.2084 101.511 16.2084C99.8954 16.2084 98.5354 15.6804 97.4314 14.6404C96.3274 13.5844 95.7034 12.2244 95.5914 10.5604C95.4474 8.46438 96.2954 6.43238 98.1514 5.15238C99.0794 4.51238 100.151 4.19238 101.383 4.19238C103.127 4.19238 104.439 4.65638 105.303 5.56838C105.831 6.12838 106.055 6.70438 105.959 7.26438C105.879 7.72838 105.607 7.98438 105.127 8.04838L105.047 8.06438C103.751 8.16038 103.687 6.89638 103.367 5.88838C103.159 5.18438 102.535 4.60838 101.383 4.60838C100.599 4.60838 99.9434 4.91238 99.3994 5.52038C98.8554 6.11238 98.4874 6.84838 98.2794 7.71238C98.0874 8.57638 98.0394 9.47238 98.1514 10.3844C98.4874 13.6324 100.823 15.9364 103.719 14.8004V12.2084C103.719 11.5844 103.655 11.3284 103.383 11.2004C103.191 11.1204 103.095 11.0404 103.095 10.9284C103.095 10.8164 103.191 10.7204 103.383 10.6564C104.279 10.4804 105.095 10.2084 105.847 9.84038Z" fill="black"/>
  </g>
  <g filter="url(#filter11_d_5272_91401)">
    <path d="M94.2268 15.5679C94.4028 15.6479 94.4988 15.7439 94.4988 15.8239C94.4988 15.9519 94.4028 16.0159 94.2108 15.9999C93.6028 15.9679 93.0588 15.9519 92.5788 15.9519C92.0828 15.9519 91.5388 15.9679 90.9628 15.9999C90.7708 16.0159 90.6748 15.9519 90.6748 15.8239C90.6748 15.7439 90.7708 15.6479 90.9468 15.5679C91.1868 15.4879 91.2988 15.1519 91.2988 14.5599V5.83988C91.2988 5.24788 91.1868 4.91188 90.9468 4.83188C90.7708 4.75188 90.6748 4.65588 90.6748 4.57588C90.6748 4.44788 90.7708 4.38388 90.9628 4.39988C91.5388 4.43188 92.0828 4.44788 92.5788 4.44788C93.0588 4.44788 93.6028 4.43188 94.2108 4.39988C94.4028 4.38388 94.4988 4.44788 94.4988 4.57588C94.4988 4.65588 94.4028 4.75188 94.2268 4.83188C93.9868 4.91188 93.8748 5.24788 93.8748 5.83988V14.5599C93.8748 15.1519 93.9868 15.4879 94.2268 15.5679Z" fill="black"/>
  </g>
  <g filter="url(#filter12_d_5272_91401)">
    <path d="M89.113 9.84038C89.289 9.76038 89.417 9.82438 89.417 10.0004V13.6004C89.417 13.7284 89.385 13.8404 89.305 13.9524C89.049 14.3524 88.617 14.7844 87.897 15.3124C87.177 15.8404 86.009 16.2084 84.777 16.2084C83.161 16.2084 81.801 15.6804 80.697 14.6404C79.593 13.5844 78.969 12.2244 78.857 10.5604C78.713 8.46438 79.561 6.43238 81.417 5.15238C82.345 4.51238 83.417 4.19238 84.649 4.19238C86.393 4.19238 87.705 4.65638 88.569 5.56838C89.097 6.12838 89.321 6.70438 89.225 7.26438C89.145 7.72838 88.873 7.98438 88.393 8.04838L88.313 8.06438C87.017 8.16038 86.953 6.89638 86.633 5.88838C86.425 5.18438 85.801 4.60838 84.649 4.60838C83.865 4.60838 83.209 4.91238 82.665 5.52038C82.121 6.11238 81.753 6.84838 81.545 7.71238C81.353 8.57638 81.305 9.47238 81.417 10.3844C81.753 13.6324 84.089 15.9364 86.985 14.8004V12.2084C86.985 11.5844 86.921 11.3284 86.649 11.2004C86.457 11.1204 86.361 11.0404 86.361 10.9284C86.361 10.8164 86.457 10.7204 86.649 10.6564C87.545 10.4804 88.361 10.2084 89.113 9.84038Z" fill="black"/>
  </g>
  <g filter="url(#filter13_d_5272_91401)">
    <path d="M73.7609 15.0085C73.8409 15.0885 73.8409 15.2005 73.7449 15.3605C73.3449 15.9045 72.7369 16.1765 71.9209 16.1765C70.5289 16.1765 69.8409 15.4725 69.8409 14.0645V7.53648H69.2809C69.1049 7.53648 69.0249 7.42448 69.0249 7.20048C69.0249 6.94448 69.0729 6.88048 69.2809 6.88048H69.4889C69.9529 6.88048 70.4009 6.70448 70.8169 6.36848C71.2489 6.01648 71.5369 5.60048 71.6969 5.10448C71.7449 4.96048 71.8409 4.89648 71.9849 4.89648C72.1609 4.89648 72.2569 4.97648 72.2569 5.15248V6.88048H73.5369C73.6969 6.88048 73.7769 6.99248 73.7769 7.20048C73.7769 7.42448 73.6969 7.53648 73.5369 7.53648H72.2569V14.1765C72.2569 14.8005 72.4169 15.1365 72.7529 15.2005C72.8489 15.2165 73.0729 15.1685 73.4089 15.0565C73.5849 14.9605 73.6969 14.9445 73.7609 15.0085Z" fill="black"/>
  </g>
  <g filter="url(#filter14_d_5272_91401)">
    <path d="M63.3721 6.67188C64.7641 6.67188 65.9001 7.13587 66.7481 8.04787C67.6121 8.95987 68.0441 10.0959 68.0441 11.4399C68.0441 12.7999 67.6121 13.9359 66.7481 14.8479C65.9001 15.7599 64.7641 16.2079 63.3721 16.2079C61.9801 16.2079 60.8441 15.7599 59.9961 14.8479C59.1481 13.9359 58.7161 12.7999 58.7161 11.4399C58.7321 10.0799 59.1641 8.95987 60.0121 8.04787C60.8601 7.13587 61.9801 6.67188 63.3721 6.67188ZM62.5721 7.21587C61.0681 7.50387 60.8281 9.59987 61.2281 11.8079C61.4361 13.0079 61.8041 13.9679 62.3321 14.7199C62.8601 15.4719 63.4841 15.7759 64.2041 15.6639C65.6601 15.3759 65.9161 13.2799 65.5321 11.0719C65.3241 9.87187 64.9561 8.91187 64.4281 8.15987C63.9001 7.40788 63.2761 7.10387 62.5721 7.21587Z" fill="black"/>
  </g>
  <g filter="url(#filter15_d_5272_91401)">
    <path d="M57.5031 15.4401C57.6951 15.5201 57.7911 15.6161 57.7911 15.6961C57.7911 15.8081 57.6951 15.8721 57.4871 15.8721C56.3831 15.9041 55.5671 15.9521 55.0231 16.0161C54.8311 16.0481 54.7351 15.9521 54.7351 15.7441V14.5281C54.1431 15.6481 53.1831 16.2081 51.8711 16.2081C50.6391 16.2081 49.6471 15.7441 48.9271 14.8161C48.2071 13.8881 47.8711 12.6241 47.9191 11.0401C47.9671 9.58411 48.4151 8.46411 49.2791 7.68011C50.1591 6.89611 51.2311 6.57611 52.5271 6.72011C53.5351 6.83211 54.2711 7.32811 54.7351 8.19211V6.60811C54.7351 6.03211 54.6231 5.69611 54.3991 5.60011C54.2071 5.52011 54.1111 5.44011 54.1111 5.32811C54.1111 5.21611 54.2071 5.12011 54.3831 5.05611C55.2791 4.89611 56.1111 4.62411 56.8631 4.24011C57.0071 4.16011 57.1511 4.22411 57.1511 4.40011V14.4481C57.1511 15.0721 57.2311 15.3281 57.5031 15.4401ZM52.7351 15.1841C53.9511 15.1361 54.7031 13.9201 54.7671 11.6961V10.9601C54.7031 8.64011 53.7911 7.42411 52.4311 7.48811C51.7911 7.50411 51.2951 7.90411 50.9271 8.67211C50.5591 9.44011 50.399 10.4001 50.415 11.5521C50.431 12.7201 50.655 13.6161 51.103 14.2721C51.551 14.9121 52.0951 15.2161 52.7351 15.1841Z" fill="black"/>
  </g>
  <g filter="url(#filter16_d_5272_91401)">
    <path d="M46.6758 15.5039C46.8038 15.6319 46.9638 15.6639 46.9638 15.7919C46.9638 15.9359 46.8518 15.9999 46.6438 15.9999H46.4678C46.0358 15.9999 46.0198 15.9999 45.5878 15.9519C45.3798 15.9359 45.2038 15.8879 45.0918 15.8399C44.6918 15.6159 44.2598 15.3119 44.1158 14.5599C43.6038 15.5999 42.4518 16.2079 41.1878 16.2079C39.4438 16.2079 38.4358 15.2959 38.3878 13.9999C38.2918 12.0799 40.0358 11.2319 41.5238 10.8959C42.5478 10.6239 43.6838 10.3519 44.0678 10.0479V9.79187C44.0678 7.91988 43.7798 7.08787 42.6918 7.08787C40.5478 7.08787 42.0838 9.77587 40.1478 9.66387C39.7158 9.64787 39.4438 9.42387 39.3158 9.02387C39.1558 8.54387 39.2838 8.07987 39.7158 7.61587C40.3238 6.99187 41.3158 6.67188 42.6918 6.67188C45.1878 6.67188 46.4518 7.71187 46.4518 10.0159C46.4518 10.1599 46.4518 10.8319 46.4678 12.0319C46.4838 13.2319 46.4838 13.9999 46.4838 14.3359C46.4838 14.9759 46.5478 15.3599 46.6758 15.5039ZM42.2598 14.8319C43.3478 14.8319 44.0518 14.0479 44.0518 13.1519L44.0678 10.8159C43.9238 10.9119 43.6358 11.0559 43.2038 11.2319C42.7718 11.4079 42.4038 11.5839 42.0678 11.7439C41.4278 12.0639 40.7718 12.7679 40.8358 13.6479C40.8838 14.3999 41.4918 14.8479 42.2598 14.8319Z" fill="black"/>
  </g>
  <g filter="url(#filter17_d_5272_91401)">
    <path d="M37.6009 15.5841C37.7929 15.6481 37.8889 15.7281 37.8889 15.8401C37.8889 15.9521 37.7929 16.0161 37.5849 16.0001C37.3289 15.9841 36.8809 15.9681 36.2409 15.9681C35.7289 15.9681 35.3289 15.9841 35.0569 16.0001C34.8809 16.0161 34.7689 15.9361 34.7209 15.7921C34.6889 15.7441 34.6889 15.6641 34.7049 15.5681C34.6889 15.4401 34.5609 15.1201 34.2889 14.6241L32.5129 11.2161L31.6809 12.3521V14.5601C31.6809 15.1521 31.7929 15.4881 32.0329 15.5681C32.2089 15.6481 32.3049 15.7441 32.3049 15.8241C32.3049 15.9681 32.2089 16.0161 32.0169 16.0001C30.9289 15.9361 30.0329 15.9361 28.9449 16.0001C28.7369 16.0161 28.6409 15.9521 28.6409 15.8241C28.6409 15.7441 28.7369 15.6641 28.9129 15.5681C29.2169 15.4561 29.2649 15.2001 29.2649 14.5601V6.59212C29.2649 5.96811 29.2009 5.71211 28.9289 5.60011C28.7369 5.50411 28.6409 5.40811 28.6409 5.32811C28.6409 5.20011 28.7369 5.10411 28.9129 5.05611C29.8249 4.89611 30.6409 4.62411 31.3929 4.22411C31.5689 4.14411 31.6809 4.20811 31.6809 4.40011V11.4881L34.4969 7.56811C35.0729 6.75212 35.7769 6.43211 36.6249 6.59212C37.9849 6.86411 37.6329 8.48011 36.4489 8.48011C36.0809 8.48011 35.6329 8.20811 35.3929 8.09611C35.1529 7.96811 34.7369 8.12811 34.2889 8.83211L33.8729 9.37611L36.7369 14.5761C37.1049 15.2161 37.2809 15.4721 37.6009 15.5841Z" fill="black"/>
  </g>
  <g filter="url(#filter18_d_5272_91401)">
    <path d="M27.2829 15.5681C27.4589 15.6481 27.5549 15.7441 27.5549 15.8241C27.5549 15.9681 27.4589 16.0161 27.2669 16.0001C26.1789 15.9361 25.2829 15.9361 24.1949 16.0001C23.9869 16.0161 23.8909 15.9521 23.8909 15.8241C23.8909 15.7441 23.9869 15.6641 24.1629 15.5681C24.4669 15.4561 24.5149 15.2001 24.5149 14.5601V6.59212C24.5149 5.96811 24.4509 5.71211 24.1789 5.60011C23.9869 5.50411 23.8909 5.40811 23.8909 5.32811C23.8909 5.20011 23.9869 5.10411 24.1629 5.05611C25.0749 4.89611 25.8909 4.62411 26.6429 4.22411C26.8189 4.14411 26.9309 4.20811 26.9309 4.40011V14.5601C26.9309 15.1521 27.0429 15.4881 27.2829 15.5681Z" fill="black"/>
  </g>
  <g filter="url(#filter19_d_5272_91401)">
    <path d="M18.2627 6.67188C19.6547 6.67188 20.7907 7.13587 21.6387 8.04787C22.5027 8.95987 22.9347 10.0959 22.9347 11.4399C22.9347 12.7999 22.5027 13.9359 21.6387 14.8479C20.7907 15.7599 19.6547 16.2079 18.2627 16.2079C16.8707 16.2079 15.7347 15.7599 14.8867 14.8479C14.0387 13.9359 13.6067 12.7999 13.6067 11.4399C13.6227 10.0799 14.0547 8.95987 14.9027 8.04787C15.7507 7.13587 16.8707 6.67188 18.2627 6.67188ZM17.4627 7.21587C15.9587 7.50387 15.7187 9.59987 16.1187 11.8079C16.3267 13.0079 16.6947 13.9679 17.2227 14.7199C17.7507 15.4719 18.3747 15.7759 19.0947 15.6639C20.5507 15.3759 20.8067 13.2799 20.4227 11.0719C20.2147 9.87187 19.8467 8.91187 19.3187 8.15987C18.7907 7.40788 18.1667 7.10387 17.4627 7.21587Z" fill="black"/>
  </g>
  <g filter="url(#filter20_d_5272_91401)">
    <path d="M3.38087 4.40039H7.14087C8.77287 4.40039 10.4369 4.70439 11.5729 5.66439C12.2929 6.25639 12.7889 7.28039 12.7889 8.56039C12.7249 10.7684 11.7809 11.8884 10.2609 12.3524C9.22087 12.6884 8.35687 12.7524 7.14087 12.7524H6.35687V14.5604C6.35687 15.1844 6.43687 15.4564 6.80487 15.5684C6.99687 15.6484 7.09287 15.7284 7.09287 15.8244C7.09287 15.9524 6.98087 16.0164 6.77287 16.0004C6.06887 15.9684 5.49287 15.9524 5.06087 15.9524C4.56487 15.9524 4.02087 15.9684 3.44487 16.0004C3.23687 16.0164 3.14087 15.9524 3.14087 15.8244C3.14087 15.7444 3.22087 15.6644 3.38087 15.5844L3.41287 15.5684C3.42887 15.5524 3.42887 15.5524 3.44487 15.5524C3.71687 15.4244 3.76487 15.1524 3.76487 14.4324V5.96839C3.76487 5.21639 3.71687 4.97639 3.44487 4.84839C3.23687 4.75239 3.14087 4.67239 3.14087 4.59239C3.14087 4.48039 3.22087 4.41639 3.38087 4.40039ZM6.35687 12.1124H7.14087C9.14087 12.1124 10.1329 10.9284 10.1329 8.56039C10.1329 6.27239 8.99687 5.05639 7.14087 5.05639H6.35687V12.1124Z" fill="black"/>
  </g>
  <defs>
    <filter id="filter0_d_5272_91401" x="186.761" y="4.07188" width="15.0721" height="14.5301" filterUnits="userSpaceOnUse" color-interpolation-filters="sRGB">
      <feFlood flood-opacity="0" result="BackgroundImageFix"/>
      <feColorMatrix in="SourceAlpha" type="matrix" values="0 0 0 0 0 0 0 0 0 0 0 0 0 0 0 0 0 0 127 0" result="hardAlpha"/>
      <feOffset/>
      <feGaussianBlur stdDeviation="1.3"/>
      <feComposite in2="hardAlpha" operator="out"/>
      <feColorMatrix type="matrix" values="0 0 0 0 1 0 0 0 0 1 0 0 0 0 1 0 0 0 1 0"/>
      <feBlend mode="normal" in2="BackgroundImageFix" result="effect1_dropShadow_5272_91401"/>
      <feBlend mode="normal" in="SourceGraphic" in2="effect1_dropShadow_5272_91401" result="shape"/>
    </filter>
    <filter id="filter1_d_5272_91401" x="176.429" y="4.07188" width="14.5279" height="14.7361" filterUnits="userSpaceOnUse" color-interpolation-filters="sRGB">
      <feFlood flood-opacity="0" result="BackgroundImageFix"/>
      <feColorMatrix in="SourceAlpha" type="matrix" values="0 0 0 0 0 0 0 0 0 0 0 0 0 0 0 0 0 0 127 0" result="hardAlpha"/>
      <feOffset/>
      <feGaussianBlur stdDeviation="1.3"/>
      <feComposite in2="hardAlpha" operator="out"/>
      <feColorMatrix type="matrix" values="0 0 0 0 1 0 0 0 0 1 0 0 0 0 1 0 0 0 1 0"/>
      <feBlend mode="normal" in2="BackgroundImageFix" result="effect1_dropShadow_5272_91401"/>
      <feBlend mode="normal" in="SourceGraphic" in2="effect1_dropShadow_5272_91401" result="shape"/>
    </filter>
    <filter id="filter2_d_5272_91401" x="171.608" y="0.951758" width="8.87993" height="17.6502" filterUnits="userSpaceOnUse" color-interpolation-filters="sRGB">
      <feFlood flood-opacity="0" result="BackgroundImageFix"/>
      <feColorMatrix in="SourceAlpha" type="matrix" values="0 0 0 0 0 0 0 0 0 0 0 0 0 0 0 0 0 0 127 0" result="hardAlpha"/>
      <feOffset/>
      <feGaussianBlur stdDeviation="1.3"/>
      <feComposite in2="hardAlpha" operator="out"/>
      <feColorMatrix type="matrix" values="0 0 0 0 1 0 0 0 0 1 0 0 0 0 1 0 0 0 1 0"/>
      <feBlend mode="normal" in2="BackgroundImageFix" result="effect1_dropShadow_5272_91401"/>
      <feBlend mode="normal" in="SourceGraphic" in2="effect1_dropShadow_5272_91401" result="shape"/>
    </filter>
    <filter id="filter3_d_5272_91401" x="165.644" y="2.29648" width="9.99419" height="16.4803" filterUnits="userSpaceOnUse" color-interpolation-filters="sRGB">
      <feFlood flood-opacity="0" result="BackgroundImageFix"/>
      <feColorMatrix in="SourceAlpha" type="matrix" values="0 0 0 0 0 0 0 0 0 0 0 0 0 0 0 0 0 0 127 0" result="hardAlpha"/>
      <feOffset/>
      <feGaussianBlur stdDeviation="1.3"/>
      <feComposite in2="hardAlpha" operator="out"/>
      <feColorMatrix type="matrix" values="0 0 0 0 1 0 0 0 0 1 0 0 0 0 1 0 0 0 1 0"/>
      <feBlend mode="normal" in2="BackgroundImageFix" result="effect1_dropShadow_5272_91401"/>
      <feBlend mode="normal" in="SourceGraphic" in2="effect1_dropShadow_5272_91401" result="shape"/>
    </filter>
    <filter id="filter4_d_5272_91401" x="156.268" y="4.07188" width="13.7798" height="14.7361" filterUnits="userSpaceOnUse" color-interpolation-filters="sRGB">
      <feFlood flood-opacity="0" result="BackgroundImageFix"/>
      <feColorMatrix in="SourceAlpha" type="matrix" values="0 0 0 0 0 0 0 0 0 0 0 0 0 0 0 0 0 0 127 0" result="hardAlpha"/>
      <feOffset/>
      <feGaussianBlur stdDeviation="1.3"/>
      <feComposite in2="hardAlpha" operator="out"/>
      <feColorMatrix type="matrix" values="0 0 0 0 1 0 0 0 0 1 0 0 0 0 1 0 0 0 1 0"/>
      <feBlend mode="normal" in2="BackgroundImageFix" result="effect1_dropShadow_5272_91401"/>
      <feBlend mode="normal" in="SourceGraphic" in2="effect1_dropShadow_5272_91401" result="shape"/>
    </filter>
    <filter id="filter5_d_5272_91401" x="148.698" y="4.07188" width="12.4002" height="14.5301" filterUnits="userSpaceOnUse" color-interpolation-filters="sRGB">
      <feFlood flood-opacity="0" result="BackgroundImageFix"/>
      <feColorMatrix in="SourceAlpha" type="matrix" values="0 0 0 0 0 0 0 0 0 0 0 0 0 0 0 0 0 0 127 0" result="hardAlpha"/>
      <feOffset/>
      <feGaussianBlur stdDeviation="1.3"/>
      <feComposite in2="hardAlpha" operator="out"/>
      <feColorMatrix type="matrix" values="0 0 0 0 1 0 0 0 0 1 0 0 0 0 1 0 0 0 1 0"/>
      <feBlend mode="normal" in2="BackgroundImageFix" result="effect1_dropShadow_5272_91401"/>
      <feBlend mode="normal" in="SourceGraphic" in2="effect1_dropShadow_5272_91401" result="shape"/>
    </filter>
    <filter id="filter6_d_5272_91401" x="137.69" y="1.60605" width="15.0765" height="17.202" filterUnits="userSpaceOnUse" color-interpolation-filters="sRGB">
      <feFlood flood-opacity="0" result="BackgroundImageFix"/>
      <feColorMatrix in="SourceAlpha" type="matrix" values="0 0 0 0 0 0 0 0 0 0 0 0 0 0 0 0 0 0 127 0" result="hardAlpha"/>
      <feOffset/>
      <feGaussianBlur stdDeviation="1.3"/>
      <feComposite in2="hardAlpha" operator="out"/>
      <feColorMatrix type="matrix" values="0 0 0 0 1 0 0 0 0 1 0 0 0 0 1 0 0 0 1 0"/>
      <feBlend mode="normal" in2="BackgroundImageFix" result="effect1_dropShadow_5272_91401"/>
      <feBlend mode="normal" in="SourceGraphic" in2="effect1_dropShadow_5272_91401" result="shape"/>
    </filter>
    <filter id="filter7_d_5272_91401" x="128.418" y="4.27793" width="14.6719" height="17.4109" filterUnits="userSpaceOnUse" color-interpolation-filters="sRGB">
      <feFlood flood-opacity="0" result="BackgroundImageFix"/>
      <feColorMatrix in="SourceAlpha" type="matrix" values="0 0 0 0 0 0 0 0 0 0 0 0 0 0 0 0 0 0 127 0" result="hardAlpha"/>
      <feOffset/>
      <feGaussianBlur stdDeviation="1.3"/>
      <feComposite in2="hardAlpha" operator="out"/>
      <feColorMatrix type="matrix" values="0 0 0 0 1 0 0 0 0 1 0 0 0 0 1 0 0 0 1 0"/>
      <feBlend mode="normal" in2="BackgroundImageFix" result="effect1_dropShadow_5272_91401"/>
      <feBlend mode="normal" in="SourceGraphic" in2="effect1_dropShadow_5272_91401" result="shape"/>
    </filter>
    <filter id="filter8_d_5272_91401" x="116.228" y="1.79746" width="16.8641" height="16.8045" filterUnits="userSpaceOnUse" color-interpolation-filters="sRGB">
      <feFlood flood-opacity="0" result="BackgroundImageFix"/>
      <feColorMatrix in="SourceAlpha" type="matrix" values="0 0 0 0 0 0 0 0 0 0 0 0 0 0 0 0 0 0 127 0" result="hardAlpha"/>
      <feOffset/>
      <feGaussianBlur stdDeviation="1.3"/>
      <feComposite in2="hardAlpha" operator="out"/>
      <feColorMatrix type="matrix" values="0 0 0 0 1 0 0 0 0 1 0 0 0 0 1 0 0 0 1 0"/>
      <feBlend mode="normal" in2="BackgroundImageFix" result="effect1_dropShadow_5272_91401"/>
      <feBlend mode="normal" in="SourceGraphic" in2="effect1_dropShadow_5272_91401" result="shape"/>
    </filter>
    <filter id="filter9_d_5272_91401" x="103.941" y="1.58652" width="16.6561" height="17.0164" filterUnits="userSpaceOnUse" color-interpolation-filters="sRGB">
      <feFlood flood-opacity="0" result="BackgroundImageFix"/>
      <feColorMatrix in="SourceAlpha" type="matrix" values="0 0 0 0 0 0 0 0 0 0 0 0 0 0 0 0 0 0 127 0" result="hardAlpha"/>
      <feOffset/>
      <feGaussianBlur stdDeviation="1.3"/>
      <feComposite in2="hardAlpha" operator="out"/>
      <feColorMatrix type="matrix" values="0 0 0 0 1 0 0 0 0 1 0 0 0 0 1 0 0 0 1 0"/>
      <feBlend mode="normal" in2="BackgroundImageFix" result="effect1_dropShadow_5272_91401"/>
      <feBlend mode="normal" in="SourceGraphic" in2="effect1_dropShadow_5272_91401" result="shape"/>
    </filter>
    <filter id="filter10_d_5272_91401" x="92.9757" y="1.59238" width="15.7757" height="17.2156" filterUnits="userSpaceOnUse" color-interpolation-filters="sRGB">
      <feFlood flood-opacity="0" result="BackgroundImageFix"/>
      <feColorMatrix in="SourceAlpha" type="matrix" values="0 0 0 0 0 0 0 0 0 0 0 0 0 0 0 0 0 0 127 0" result="hardAlpha"/>
      <feOffset/>
      <feGaussianBlur stdDeviation="1.3"/>
      <feComposite in2="hardAlpha" operator="out"/>
      <feColorMatrix type="matrix" values="0 0 0 0 1 0 0 0 0 1 0 0 0 0 1 0 0 0 1 0"/>
      <feBlend mode="normal" in2="BackgroundImageFix" result="effect1_dropShadow_5272_91401"/>
      <feBlend mode="normal" in="SourceGraphic" in2="effect1_dropShadow_5272_91401" result="shape"/>
    </filter>
    <filter id="filter11_d_5272_91401" x="88.0748" y="1.79746" width="9.02397" height="16.8045" filterUnits="userSpaceOnUse" color-interpolation-filters="sRGB">
      <feFlood flood-opacity="0" result="BackgroundImageFix"/>
      <feColorMatrix in="SourceAlpha" type="matrix" values="0 0 0 0 0 0 0 0 0 0 0 0 0 0 0 0 0 0 127 0" result="hardAlpha"/>
      <feOffset/>
      <feGaussianBlur stdDeviation="1.3"/>
      <feComposite in2="hardAlpha" operator="out"/>
      <feColorMatrix type="matrix" values="0 0 0 0 1 0 0 0 0 1 0 0 0 0 1 0 0 0 1 0"/>
      <feBlend mode="normal" in2="BackgroundImageFix" result="effect1_dropShadow_5272_91401"/>
      <feBlend mode="normal" in="SourceGraphic" in2="effect1_dropShadow_5272_91401" result="shape"/>
    </filter>
    <filter id="filter12_d_5272_91401" x="76.2413" y="1.59238" width="15.7757" height="17.2156" filterUnits="userSpaceOnUse" color-interpolation-filters="sRGB">
      <feFlood flood-opacity="0" result="BackgroundImageFix"/>
      <feColorMatrix in="SourceAlpha" type="matrix" values="0 0 0 0 0 0 0 0 0 0 0 0 0 0 0 0 0 0 127 0" result="hardAlpha"/>
      <feOffset/>
      <feGaussianBlur stdDeviation="1.3"/>
      <feComposite in2="hardAlpha" operator="out"/>
      <feColorMatrix type="matrix" values="0 0 0 0 1 0 0 0 0 1 0 0 0 0 1 0 0 0 1 0"/>
      <feBlend mode="normal" in2="BackgroundImageFix" result="effect1_dropShadow_5272_91401"/>
      <feBlend mode="normal" in="SourceGraphic" in2="effect1_dropShadow_5272_91401" result="shape"/>
    </filter>
    <filter id="filter13_d_5272_91401" x="66.4249" y="2.29648" width="9.99419" height="16.4803" filterUnits="userSpaceOnUse" color-interpolation-filters="sRGB">
      <feFlood flood-opacity="0" result="BackgroundImageFix"/>
      <feColorMatrix in="SourceAlpha" type="matrix" values="0 0 0 0 0 0 0 0 0 0 0 0 0 0 0 0 0 0 127 0" result="hardAlpha"/>
      <feOffset/>
      <feGaussianBlur stdDeviation="1.3"/>
      <feComposite in2="hardAlpha" operator="out"/>
      <feColorMatrix type="matrix" values="0 0 0 0 1 0 0 0 0 1 0 0 0 0 1 0 0 0 1 0"/>
      <feBlend mode="normal" in2="BackgroundImageFix" result="effect1_dropShadow_5272_91401"/>
      <feBlend mode="normal" in="SourceGraphic" in2="effect1_dropShadow_5272_91401" result="shape"/>
    </filter>
    <filter id="filter14_d_5272_91401" x="56.1161" y="4.07188" width="14.5279" height="14.7361" filterUnits="userSpaceOnUse" color-interpolation-filters="sRGB">
      <feFlood flood-opacity="0" result="BackgroundImageFix"/>
      <feColorMatrix in="SourceAlpha" type="matrix" values="0 0 0 0 0 0 0 0 0 0 0 0 0 0 0 0 0 0 127 0" result="hardAlpha"/>
      <feOffset/>
      <feGaussianBlur stdDeviation="1.3"/>
      <feComposite in2="hardAlpha" operator="out"/>
      <feColorMatrix type="matrix" values="0 0 0 0 1 0 0 0 0 1 0 0 0 0 1 0 0 0 1 0"/>
      <feBlend mode="normal" in2="BackgroundImageFix" result="effect1_dropShadow_5272_91401"/>
      <feBlend mode="normal" in="SourceGraphic" in2="effect1_dropShadow_5272_91401" result="shape"/>
    </filter>
    <filter id="filter15_d_5272_91401" x="45.3146" y="1.60605" width="15.0765" height="17.202" filterUnits="userSpaceOnUse" color-interpolation-filters="sRGB">
      <feFlood flood-opacity="0" result="BackgroundImageFix"/>
      <feColorMatrix in="SourceAlpha" type="matrix" values="0 0 0 0 0 0 0 0 0 0 0 0 0 0 0 0 0 0 127 0" result="hardAlpha"/>
      <feOffset/>
      <feGaussianBlur stdDeviation="1.3"/>
      <feComposite in2="hardAlpha" operator="out"/>
      <feColorMatrix type="matrix" values="0 0 0 0 1 0 0 0 0 1 0 0 0 0 1 0 0 0 1 0"/>
      <feBlend mode="normal" in2="BackgroundImageFix" result="effect1_dropShadow_5272_91401"/>
      <feBlend mode="normal" in="SourceGraphic" in2="effect1_dropShadow_5272_91401" result="shape"/>
    </filter>
    <filter id="filter16_d_5272_91401" x="35.784" y="4.07188" width="13.7798" height="14.7361" filterUnits="userSpaceOnUse" color-interpolation-filters="sRGB">
      <feFlood flood-opacity="0" result="BackgroundImageFix"/>
      <feColorMatrix in="SourceAlpha" type="matrix" values="0 0 0 0 0 0 0 0 0 0 0 0 0 0 0 0 0 0 127 0" result="hardAlpha"/>
      <feOffset/>
      <feGaussianBlur stdDeviation="1.3"/>
      <feComposite in2="hardAlpha" operator="out"/>
      <feColorMatrix type="matrix" values="0 0 0 0 1 0 0 0 0 1 0 0 0 0 1 0 0 0 1 0"/>
      <feBlend mode="normal" in2="BackgroundImageFix" result="effect1_dropShadow_5272_91401"/>
      <feBlend mode="normal" in="SourceGraphic" in2="effect1_dropShadow_5272_91401" result="shape"/>
    </filter>
    <filter id="filter17_d_5272_91401" x="26.0409" y="1.59043" width="14.448" height="17.0125" filterUnits="userSpaceOnUse" color-interpolation-filters="sRGB">
      <feFlood flood-opacity="0" result="BackgroundImageFix"/>
      <feColorMatrix in="SourceAlpha" type="matrix" values="0 0 0 0 0 0 0 0 0 0 0 0 0 0 0 0 0 0 127 0" result="hardAlpha"/>
      <feOffset/>
      <feGaussianBlur stdDeviation="1.3"/>
      <feComposite in2="hardAlpha" operator="out"/>
      <feColorMatrix type="matrix" values="0 0 0 0 1 0 0 0 0 1 0 0 0 0 1 0 0 0 1 0"/>
      <feBlend mode="normal" in2="BackgroundImageFix" result="effect1_dropShadow_5272_91401"/>
      <feBlend mode="normal" in="SourceGraphic" in2="effect1_dropShadow_5272_91401" result="shape"/>
    </filter>
    <filter id="filter18_d_5272_91401" x="21.2909" y="1.59043" width="8.86406" height="17.0125" filterUnits="userSpaceOnUse" color-interpolation-filters="sRGB">
      <feFlood flood-opacity="0" result="BackgroundImageFix"/>
      <feColorMatrix in="SourceAlpha" type="matrix" values="0 0 0 0 0 0 0 0 0 0 0 0 0 0 0 0 0 0 127 0" result="hardAlpha"/>
      <feOffset/>
      <feGaussianBlur stdDeviation="1.3"/>
      <feComposite in2="hardAlpha" operator="out"/>
      <feColorMatrix type="matrix" values="0 0 0 0 1 0 0 0 0 1 0 0 0 0 1 0 0 0 1 0"/>
      <feBlend mode="normal" in2="BackgroundImageFix" result="effect1_dropShadow_5272_91401"/>
      <feBlend mode="normal" in="SourceGraphic" in2="effect1_dropShadow_5272_91401" result="shape"/>
    </filter>
    <filter id="filter19_d_5272_91401" x="11.0067" y="4.07188" width="14.5279" height="14.7361" filterUnits="userSpaceOnUse" color-interpolation-filters="sRGB">
      <feFlood flood-opacity="0" result="BackgroundImageFix"/>
      <feColorMatrix in="SourceAlpha" type="matrix" values="0 0 0 0 0 0 0 0 0 0 0 0 0 0 0 0 0 0 127 0" result="hardAlpha"/>
      <feOffset/>
      <feGaussianBlur stdDeviation="1.3"/>
      <feComposite in2="hardAlpha" operator="out"/>
      <feColorMatrix type="matrix" values="0 0 0 0 1 0 0 0 0 1 0 0 0 0 1 0 0 0 1 0"/>
      <feBlend mode="normal" in2="BackgroundImageFix" result="effect1_dropShadow_5272_91401"/>
      <feBlend mode="normal" in="SourceGraphic" in2="effect1_dropShadow_5272_91401" result="shape"/>
    </filter>
    <filter id="filter20_d_5272_91401" x="0.540869" y="1.80039" width="14.8479" height="16.8025" filterUnits="userSpaceOnUse" color-interpolation-filters="sRGB">
      <feFlood flood-opacity="0" result="BackgroundImageFix"/>
      <feColorMatrix in="SourceAlpha" type="matrix" values="0 0 0 0 0 0 0 0 0 0 0 0 0 0 0 0 0 0 127 0" result="hardAlpha"/>
      <feOffset/>
      <feGaussianBlur stdDeviation="1.3"/>
      <feComposite in2="hardAlpha" operator="out"/>
      <feColorMatrix type="matrix" values="0 0 0 0 1 0 0 0 0 1 0 0 0 0 1 0 0 0 1 0"/>
      <feBlend mode="normal" in2="BackgroundImageFix" result="effect1_dropShadow_5272_91401"/>
      <feBlend mode="normal" in="SourceGraphic" in2="effect1_dropShadow_5272_91401" result="shape"/>
    </filter>
  </defs>
</svg>