<svg width="197" height="17" viewBox="0 0 197 17" fill="none" xmlns="http://www.w3.org/2000/svg">
<path d="M0.380924 1.4H4.14092C5.77292 1.4 7.43692 1.704 8.57292 2.664C9.29292 3.256 9.78892 4.28 9.78892 5.56C9.72492 7.768 8.78092 8.888 7.26092 9.352C6.22092 9.688 5.35692 9.752 4.14092 9.752H3.35692V11.56C3.35692 12.184 3.43692 12.456 3.80492 12.568C3.99692 12.648 4.09292 12.728 4.09292 12.824C4.09292 12.952 3.98092 13.016 3.77292 13C3.06892 12.968 2.49292 12.952 2.06092 12.952C1.56492 12.952 1.02092 12.968 0.444924 13C0.236924 13.016 0.140924 12.952 0.140924 12.824C0.140924 12.744 0.220924 12.664 0.380924 12.584L0.412924 12.568C0.428924 12.552 0.428924 12.552 0.444924 12.552C0.716924 12.424 0.764924 12.152 0.764924 11.432V2.968C0.764924 2.216 0.716924 1.976 0.444924 1.848C0.236924 1.752 0.140924 1.672 0.140924 1.592C0.140924 1.48 0.220924 1.416 0.380924 1.4ZM3.35692 9.112H4.14092C6.14092 9.112 7.13292 7.928 7.13292 5.56C7.13292 3.272 5.99692 2.056 4.14092 2.056H3.35692V9.112ZM15.2627 3.672C16.6547 3.672 17.7907 4.136 18.6387 5.048C19.5027 5.96 19.9347 7.096 19.9347 8.44C19.9347 9.8 19.5027 10.936 18.6387 11.848C17.7907 12.76 16.6547 13.208 15.2627 13.208C13.8707 13.208 12.7347 12.76 11.8867 11.848C11.0387 10.936 10.6067 9.8 10.6067 8.44C10.6227 7.08 11.0547 5.96 11.9027 5.048C12.7507 4.136 13.8707 3.672 15.2627 3.672ZM14.4627 4.216C12.9587 4.504 12.7187 6.6 13.1187 8.808C13.3267 10.008 13.6947 10.968 14.2227 11.72C14.7507 12.472 15.3747 12.776 16.0947 12.664C17.5507 12.376 17.8067 10.28 17.4227 8.072C17.2147 6.872 16.8467 5.912 16.3187 5.16C15.7907 4.408 15.1667 4.104 14.4627 4.216ZM24.2829 12.568C24.4589 12.648 24.5549 12.744 24.5549 12.824C24.5549 12.968 24.4589 13.016 24.2669 13C23.1789 12.936 22.2829 12.936 21.1949 13C20.9869 13.016 20.8909 12.952 20.8909 12.824C20.8909 12.744 20.9869 12.664 21.1629 12.568C21.4669 12.456 21.5149 12.2 21.5149 11.56V3.592C21.5149 2.968 21.4509 2.712 21.1789 2.6C20.9869 2.504 20.8909 2.408 20.8909 2.328C20.8909 2.2 20.9869 2.104 21.1629 2.056C22.0749 1.896 22.8909 1.624 23.6429 1.224C23.8189 1.144 23.9309 1.208 23.9309 1.4V11.56C23.9309 12.152 24.0429 12.488 24.2829 12.568ZM34.6009 12.584C34.7929 12.648 34.8889 12.728 34.8889 12.84C34.8889 12.952 34.7929 13.016 34.5849 13C34.3289 12.984 33.8809 12.968 33.2409 12.968C32.7289 12.968 32.3289 12.984 32.0569 13C31.8809 13.016 31.7689 12.936 31.7209 12.792C31.6889 12.744 31.6889 12.664 31.7049 12.568C31.6889 12.44 31.5609 12.12 31.2889 11.624L29.5129 8.216L28.6809 9.352V11.56C28.6809 12.152 28.7929 12.488 29.0329 12.568C29.2089 12.648 29.3049 12.744 29.3049 12.824C29.3049 12.968 29.2089 13.016 29.0169 13C27.9289 12.936 27.0329 12.936 25.9449 13C25.7369 13.016 25.6409 12.952 25.6409 12.824C25.6409 12.744 25.7369 12.664 25.9129 12.568C26.2169 12.456 26.2649 12.2 26.2649 11.56V3.592C26.2649 2.968 26.2009 2.712 25.9289 2.6C25.7369 2.504 25.6409 2.408 25.6409 2.328C25.6409 2.2 25.7369 2.104 25.9129 2.056C26.8249 1.896 27.6409 1.624 28.3929 1.224C28.5689 1.144 28.6809 1.208 28.6809 1.4V8.488L31.4969 4.568C32.0729 3.752 32.7769 3.432 33.6249 3.592C34.9849 3.864 34.6329 5.48 33.4489 5.48C33.0809 5.48 32.6329 5.208 32.3929 5.096C32.1529 4.968 31.7369 5.128 31.2889 5.832L30.8729 6.376L33.7369 11.576C34.1049 12.216 34.2809 12.472 34.6009 12.584ZM43.6759 12.504C43.8039 12.632 43.9639 12.664 43.9639 12.792C43.9639 12.936 43.8519 13 43.6439 13H43.4679C43.0359 13 43.0199 13 42.5879 12.952C42.3799 12.936 42.2039 12.888 42.0919 12.84C41.6919 12.616 41.2599 12.312 41.1159 11.56C40.6039 12.6 39.4519 13.208 38.1879 13.208C36.4439 13.208 35.4359 12.296 35.3879 11C35.2919 9.08 37.0359 8.232 38.5239 7.896C39.5479 7.624 40.6839 7.352 41.0679 7.048V6.792C41.0679 4.92 40.7799 4.088 39.6919 4.088C37.5479 4.088 39.0839 6.776 37.1479 6.664C36.7159 6.648 36.4439 6.424 36.3159 6.024C36.1559 5.544 36.2839 5.08 36.7159 4.616C37.3239 3.992 38.3159 3.672 39.6919 3.672C42.1879 3.672 43.4519 4.712 43.4519 7.016C43.4519 7.16 43.4519 7.832 43.4679 9.032C43.4839 10.232 43.4839 11 43.4839 11.336C43.4839 11.976 43.5479 12.36 43.6759 12.504ZM39.2599 11.832C40.3479 11.832 41.0519 11.048 41.0519 10.152L41.0679 7.816C40.9239 7.912 40.6359 8.056 40.2039 8.232C39.7719 8.408 39.4039 8.584 39.0679 8.744C38.4279 9.064 37.7719 9.768 37.8359 10.648C37.8839 11.4 38.4919 11.848 39.2599 11.832ZM54.5032 12.44C54.6952 12.52 54.7912 12.616 54.7912 12.696C54.7912 12.808 54.6952 12.872 54.4872 12.872C53.3832 12.904 52.5672 12.952 52.0232 13.016C51.8312 13.048 51.7352 12.952 51.7352 12.744V11.528C51.1432 12.648 50.1832 13.208 48.8712 13.208C47.6392 13.208 46.6472 12.744 45.9272 11.816C45.2072 10.888 44.8712 9.624 44.9192 8.04C44.9672 6.584 45.4152 5.464 46.2792 4.68C47.1592 3.896 48.2312 3.576 49.5272 3.72C50.5352 3.832 51.2712 4.328 51.7352 5.192V3.608C51.7352 3.032 51.6232 2.696 51.3992 2.6C51.2072 2.52 51.1112 2.44 51.1112 2.328C51.1112 2.216 51.2072 2.12 51.3832 2.056C52.2792 1.896 53.1112 1.624 53.8632 1.24C54.0072 1.16 54.1512 1.224 54.1512 1.4V11.448C54.1512 12.072 54.2312 12.328 54.5032 12.44ZM49.7352 12.184C50.9512 12.136 51.7032 10.92 51.7672 8.696V7.96C51.7032 5.64 50.7912 4.424 49.4312 4.488C48.7912 4.504 48.2952 4.904 47.9272 5.672C47.5592 6.44 47.3992 7.4 47.4152 8.552C47.4312 9.72 47.6552 10.616 48.1032 11.272C48.5512 11.912 49.0952 12.216 49.7352 12.184ZM60.372 3.672C61.764 3.672 62.9 4.136 63.748 5.048C64.612 5.96 65.044 7.096 65.044 8.44C65.044 9.8 64.612 10.936 63.748 11.848C62.9 12.76 61.764 13.208 60.372 13.208C58.98 13.208 57.844 12.76 56.996 11.848C56.148 10.936 55.716 9.8 55.716 8.44C55.732 7.08 56.164 5.96 57.012 5.048C57.86 4.136 58.98 3.672 60.372 3.672ZM59.572 4.216C58.068 4.504 57.828 6.6 58.228 8.808C58.436 10.008 58.804 10.968 59.332 11.72C59.86 12.472 60.484 12.776 61.204 12.664C62.66 12.376 62.916 10.28 62.532 8.072C62.324 6.872 61.956 5.912 61.428 5.16C60.9 4.408 60.276 4.104 59.572 4.216ZM70.7608 12.008C70.8408 12.088 70.8408 12.2 70.7448 12.36C70.3448 12.904 69.7368 13.176 68.9208 13.176C67.5288 13.176 66.8408 12.472 66.8408 11.064V4.536H66.2808C66.1048 4.536 66.0248 4.424 66.0248 4.2C66.0248 3.944 66.0728 3.88 66.2808 3.88H66.4888C66.9528 3.88 67.4008 3.704 67.8168 3.368C68.2488 3.016 68.5368 2.6 68.6968 2.104C68.7448 1.96 68.8408 1.896 68.9848 1.896C69.1608 1.896 69.2568 1.976 69.2568 2.152V3.88H70.5368C70.6968 3.88 70.7768 3.992 70.7768 4.2C70.7768 4.424 70.6968 4.536 70.5368 4.536H69.2568V11.176C69.2568 11.8 69.4168 12.136 69.7528 12.2C69.8488 12.216 70.0728 12.168 70.4088 12.056C70.5848 11.96 70.6968 11.944 70.7608 12.008ZM86.113 6.84C86.289 6.76 86.417 6.824 86.417 7V10.6C86.417 10.728 86.385 10.84 86.305 10.952C86.049 11.352 85.617 11.784 84.897 12.312C84.177 12.84 83.009 13.208 81.777 13.208C80.161 13.208 78.801 12.68 77.697 11.64C76.593 10.584 75.969 9.224 75.857 7.56C75.713 5.464 76.561 3.432 78.417 2.152C79.345 1.512 80.417 1.192 81.649 1.192C83.393 1.192 84.705 1.656 85.569 2.568C86.097 3.128 86.321 3.704 86.225 4.264C86.145 4.728 85.873 4.984 85.393 5.048L85.313 5.064C84.017 5.16 83.953 3.896 83.633 2.888C83.425 2.184 82.801 1.608 81.649 1.608C80.865 1.608 80.209 1.912 79.665 2.52C79.121 3.112 78.753 3.848 78.545 4.712C78.353 5.576 78.305 6.472 78.417 7.384C78.753 10.632 81.089 12.936 83.985 11.8V9.208C83.985 8.584 83.921 8.328 83.649 8.2C83.457 8.12 83.361 8.04 83.361 7.928C83.361 7.816 83.457 7.72 83.649 7.656C84.545 7.48 85.361 7.208 86.113 6.84ZM91.2268 12.568C91.4028 12.648 91.4988 12.744 91.4988 12.824C91.4988 12.952 91.4028 13.016 91.2108 13C90.6028 12.968 90.0588 12.952 89.5788 12.952C89.0828 12.952 88.5388 12.968 87.9628 13C87.7708 13.016 87.6748 12.952 87.6748 12.824C87.6748 12.744 87.7708 12.648 87.9468 12.568C88.1868 12.488 88.2988 12.152 88.2988 11.56V2.84C88.2988 2.248 88.1868 1.912 87.9468 1.832C87.7708 1.752 87.6748 1.656 87.6748 1.576C87.6748 1.448 87.7708 1.384 87.9628 1.4C88.5388 1.432 89.0828 1.448 89.5788 1.448C90.0588 1.448 90.6028 1.432 91.2108 1.4C91.4028 1.384 91.4988 1.448 91.4988 1.576C91.4988 1.656 91.4028 1.752 91.2268 1.832C90.9868 1.912 90.8748 2.248 90.8748 2.84V11.56C90.8748 12.152 90.9868 12.488 91.2268 12.568ZM102.847 6.84C103.023 6.76 103.151 6.824 103.151 7V10.6C103.151 10.728 103.119 10.84 103.039 10.952C102.783 11.352 102.351 11.784 101.631 12.312C100.911 12.84 99.7434 13.208 98.5114 13.208C96.8954 13.208 95.5354 12.68 94.4314 11.64C93.3274 10.584 92.7034 9.224 92.5914 7.56C92.4474 5.464 93.2954 3.432 95.1514 2.152C96.0794 1.512 97.1514 1.192 98.3834 1.192C100.127 1.192 101.439 1.656 102.303 2.568C102.831 3.128 103.055 3.704 102.959 4.264C102.879 4.728 102.607 4.984 102.127 5.048L102.047 5.064C100.751 5.16 100.687 3.896 100.367 2.888C100.159 2.184 99.5354 1.608 98.3834 1.608C97.5994 1.608 96.9434 1.912 96.3994 2.52C95.8554 3.112 95.4874 3.848 95.2794 4.712C95.0874 5.576 95.0394 6.472 95.1514 7.384C95.4874 10.632 97.8234 12.936 100.719 11.8V9.208C100.719 8.584 100.655 8.328 100.383 8.2C100.191 8.12 100.095 8.04 100.095 7.928C100.095 7.816 100.191 7.72 100.383 7.656C101.279 7.48 102.095 7.208 102.847 6.84ZM114.709 12.568C114.901 12.648 114.997 12.728 114.997 12.824C114.997 12.952 114.901 13.016 114.693 13C114.117 12.968 113.573 12.952 113.061 12.952C112.533 12.952 111.973 12.968 111.397 13C111.205 13.016 111.109 12.952 111.109 12.824C111.109 12.744 111.189 12.664 111.349 12.584C111.653 12.456 111.653 12.184 111.445 11.56L110.709 9.288H106.357L105.877 10.792C105.509 11.928 105.669 12.44 106.517 12.568C106.693 12.616 106.789 12.712 106.789 12.824C106.789 12.952 106.693 13.016 106.501 13C106.117 12.984 105.573 12.968 104.885 12.968C104.581 12.968 104.229 12.984 103.845 13C103.637 13.016 103.541 12.952 103.541 12.824C103.541 12.728 103.637 12.648 103.829 12.568C104.197 12.456 104.469 11.96 104.869 10.792L108.197 1.352C108.197 1.288 108.229 1.24 108.293 1.208C108.533 1.16 108.581 1.192 108.917 1.304C109.093 1.352 109.237 1.384 109.381 1.4C109.829 1.464 110.117 1.496 110.261 1.496C110.405 1.512 110.501 1.592 110.533 1.704L114.053 11.56C114.261 12.216 114.389 12.456 114.709 12.568ZM108.517 2.552L106.565 8.632H110.501L108.517 2.552ZM127.204 12.568C127.396 12.648 127.492 12.744 127.492 12.824C127.492 12.952 127.396 13.016 127.188 13C126.036 12.936 125.108 12.936 123.956 13C123.748 13.016 123.652 12.952 123.652 12.824C123.652 12.744 123.748 12.648 123.94 12.568C124.212 12.456 124.276 12.2 124.276 11.56V8.168H119.044V11.56C119.044 12.2 119.108 12.456 119.38 12.568C119.572 12.648 119.668 12.744 119.668 12.824C119.668 12.952 119.572 13.016 119.364 13C118.212 12.936 117.284 12.936 116.132 13C115.924 13.016 115.828 12.952 115.828 12.824C115.828 12.744 115.924 12.664 116.1 12.568C116.404 12.456 116.452 12.2 116.452 11.56V2.84C116.452 2.2 116.404 1.944 116.1 1.832C115.924 1.752 115.828 1.656 115.828 1.576C115.828 1.448 115.924 1.384 116.132 1.4C117.284 1.464 118.212 1.464 119.364 1.4C119.572 1.384 119.668 1.448 119.668 1.576C119.668 1.656 119.572 1.752 119.38 1.832C119.108 1.944 119.044 2.2 119.044 2.84V7.512H124.276V2.84C124.276 2.2 124.212 1.944 123.94 1.832C123.748 1.752 123.652 1.656 123.652 1.576C123.652 1.448 123.748 1.384 123.956 1.4C125.108 1.464 126.036 1.464 127.188 1.4C127.396 1.384 127.492 1.448 127.492 1.576C127.492 1.656 127.396 1.752 127.204 1.832C126.932 1.944 126.868 2.2 126.868 2.84V11.56C126.868 12.2 126.932 12.456 127.204 12.568ZM137.202 3.88C137.394 3.864 137.49 3.928 137.49 4.04C137.49 4.168 137.41 4.248 137.25 4.296C136.882 4.36 136.53 4.792 136.226 5.608L133.346 12.856C133.138 13.352 132.962 13.736 132.818 14.04C132.674 14.344 132.466 14.664 132.226 15C131.73 15.688 131.106 16.008 130.322 16.072C129.522 16.152 128.962 15.944 128.642 15.448C128.402 15.08 128.402 14.744 128.642 14.44C128.722 14.344 128.818 14.264 128.946 14.2C129.586 13.96 129.73 14.072 130.178 14.28C130.418 14.392 130.594 14.456 130.738 14.472C131.426 14.536 132.002 14.072 132.434 13.096L128.978 5.32C128.722 4.744 128.69 4.648 128.546 4.504C128.482 4.424 128.402 4.36 128.306 4.312C128.114 4.232 128.018 4.136 128.018 4.04C128.018 3.928 128.114 3.864 128.322 3.88C129.538 3.944 130.37 3.944 131.586 3.88C131.794 3.864 131.89 3.928 131.89 4.04C131.89 4.136 131.794 4.232 131.602 4.312C131.298 4.424 131.314 4.68 131.57 5.32L133.506 10.376C134.674 7.48 135.298 5.88 135.41 5.608C135.73 4.824 135.666 4.392 135.218 4.312C134.834 4.2 134.834 3.88 135.234 3.88C135.778 3.912 136.13 3.928 136.274 3.928C136.386 3.928 136.69 3.912 137.202 3.88ZM146.878 12.44C147.07 12.52 147.166 12.616 147.166 12.696C147.166 12.808 147.07 12.872 146.862 12.872C145.758 12.904 144.942 12.952 144.398 13.016C144.206 13.048 144.11 12.952 144.11 12.744V11.528C143.518 12.648 142.558 13.208 141.246 13.208C140.014 13.208 139.022 12.744 138.302 11.816C137.582 10.888 137.246 9.624 137.294 8.04C137.342 6.584 137.79 5.464 138.654 4.68C139.534 3.896 140.606 3.576 141.902 3.72C142.91 3.832 143.646 4.328 144.11 5.192V3.608C144.11 3.032 143.998 2.696 143.774 2.6C143.582 2.52 143.486 2.44 143.486 2.328C143.486 2.216 143.582 2.12 143.758 2.056C144.654 1.896 145.486 1.624 146.238 1.24C146.382 1.16 146.526 1.224 146.526 1.4V11.448C146.526 12.072 146.606 12.328 146.878 12.44ZM142.11 12.184C143.326 12.136 144.078 10.92 144.142 8.696V7.96C144.078 5.64 143.166 4.424 141.806 4.488C141.166 4.504 140.67 4.904 140.302 5.672C139.934 6.44 139.774 7.4 139.79 8.552C139.806 9.72 140.03 10.616 140.478 11.272C140.926 11.912 141.47 12.216 142.11 12.184ZM153.45 3.672C154.394 3.672 155.018 3.992 155.322 4.632C155.562 5.128 155.562 5.576 155.29 6.008C155.082 6.344 154.778 6.52 154.362 6.504C153.802 6.504 153.53 6.088 153.45 5.704C153.386 5.304 153.082 4.888 152.49 4.888C151.738 4.888 151.354 5.688 151.354 7.272V11.56C151.354 12.2 151.498 12.472 151.898 12.584C152.106 12.648 152.202 12.728 152.202 12.824C152.202 12.952 152.09 13.016 151.882 13C150.666 12.936 149.754 12.936 148.602 13C148.394 13.016 148.298 12.952 148.298 12.824C148.298 12.744 148.394 12.648 148.586 12.568C148.826 12.488 148.938 12.152 148.938 11.56V6.232C148.938 5.656 148.826 5.32 148.586 5.224C148.394 5.144 148.298 5.064 148.298 4.952C148.298 4.84 148.378 4.76 148.522 4.728C149.338 4.552 150.138 4.28 150.906 3.88C151.082 3.784 151.194 3.832 151.21 4.04L151.322 5.336V5.384C151.706 4.248 152.41 3.672 153.45 3.672ZM164.16 12.504C164.288 12.632 164.448 12.664 164.448 12.792C164.448 12.936 164.336 13 164.128 13H163.952C163.52 13 163.504 13 163.072 12.952C162.864 12.936 162.688 12.888 162.576 12.84C162.176 12.616 161.744 12.312 161.6 11.56C161.088 12.6 159.936 13.208 158.672 13.208C156.928 13.208 155.92 12.296 155.872 11C155.776 9.08 157.52 8.232 159.008 7.896C160.032 7.624 161.168 7.352 161.552 7.048V6.792C161.552 4.92 161.264 4.088 160.176 4.088C158.032 4.088 159.568 6.776 157.632 6.664C157.2 6.648 156.928 6.424 156.8 6.024C156.64 5.544 156.768 5.08 157.2 4.616C157.808 3.992 158.8 3.672 160.176 3.672C162.672 3.672 163.936 4.712 163.936 7.016C163.936 7.16 163.936 7.832 163.952 9.032C163.968 10.232 163.968 11 163.968 11.336C163.968 11.976 164.032 12.36 164.16 12.504ZM159.744 11.832C160.832 11.832 161.536 11.048 161.536 10.152L161.552 7.816C161.408 7.912 161.12 8.056 160.688 8.232C160.256 8.408 159.888 8.584 159.552 8.744C158.912 9.064 158.256 9.768 158.32 10.648C158.368 11.4 158.976 11.848 159.744 11.832ZM169.98 12.008C170.06 12.088 170.06 12.2 169.964 12.36C169.564 12.904 168.956 13.176 168.14 13.176C166.748 13.176 166.06 12.472 166.06 11.064V4.536H165.5C165.324 4.536 165.244 4.424 165.244 4.2C165.244 3.944 165.292 3.88 165.5 3.88H165.708C166.172 3.88 166.62 3.704 167.036 3.368C167.468 3.016 167.756 2.6 167.916 2.104C167.964 1.96 168.06 1.896 168.204 1.896C168.38 1.896 168.476 1.976 168.476 2.152V3.88H169.756C169.916 3.88 169.996 3.992 169.996 4.2C169.996 4.424 169.916 4.536 169.756 4.536H168.476V11.176C168.476 11.8 168.636 12.136 168.972 12.2C169.068 12.216 169.292 12.168 169.628 12.056C169.804 11.96 169.916 11.944 169.98 12.008ZM174.056 2.792C173.432 3.288 172.44 3.288 171.816 2.792C171.192 2.28 171.192 1.448 171.816 0.936C172.44 0.424 173.432 0.424 174.056 0.936C174.68 1.448 174.68 2.28 174.056 2.792ZM174.6 12.568C174.792 12.648 174.888 12.744 174.888 12.824C174.888 12.952 174.792 13.016 174.584 13C174.008 12.968 173.496 12.952 173.048 12.952C172.568 12.952 172.056 12.968 171.512 13C171.304 13.016 171.208 12.952 171.208 12.824C171.208 12.744 171.304 12.648 171.496 12.568C171.768 12.456 171.832 12.2 171.832 11.56V6.248C171.832 5.624 171.768 5.368 171.496 5.24C171.304 5.16 171.208 5.08 171.208 4.968C171.208 4.856 171.304 4.76 171.496 4.696C172.392 4.52 173.208 4.248 173.96 3.88C174.168 3.784 174.264 3.832 174.264 4.04V11.56C174.264 12.2 174.328 12.456 174.6 12.568ZM180.685 3.672C182.077 3.672 183.213 4.136 184.061 5.048C184.925 5.96 185.357 7.096 185.357 8.44C185.357 9.8 184.925 10.936 184.061 11.848C183.213 12.76 182.077 13.208 180.685 13.208C179.293 13.208 178.157 12.76 177.309 11.848C176.461 10.936 176.029 9.8 176.029 8.44C176.045 7.08 176.477 5.96 177.325 5.048C178.173 4.136 179.293 3.672 180.685 3.672ZM179.885 4.216C178.381 4.504 178.141 6.6 178.541 8.808C178.749 10.008 179.117 10.968 179.645 11.72C180.173 12.472 180.797 12.776 181.517 12.664C182.973 12.376 183.229 10.28 182.845 8.072C182.637 6.872 182.269 5.912 181.741 5.16C181.213 4.408 180.589 4.104 179.885 4.216ZM195.945 12.568C196.137 12.648 196.233 12.744 196.233 12.824C196.233 12.952 196.137 13.016 195.929 13C194.841 12.936 193.945 12.936 192.857 13C192.649 13.016 192.553 12.952 192.553 12.824C192.553 12.744 192.649 12.648 192.841 12.568C193.113 12.456 193.177 12.2 193.177 11.56V7.48C193.177 5.72 192.585 4.84 191.401 4.84C190.745 4.84 190.249 5.096 189.913 5.608C189.577 6.104 189.417 6.712 189.417 7.4V11.56C189.417 12.152 189.529 12.488 189.769 12.568C189.945 12.648 190.041 12.744 190.041 12.824C190.041 12.952 189.945 13.016 189.737 13C189.225 12.968 188.713 12.952 188.217 12.952C187.737 12.952 187.225 12.968 186.681 13C186.473 13.016 186.377 12.952 186.377 12.824C186.377 12.744 186.473 12.664 186.649 12.568C186.889 12.488 187.001 12.152 187.001 11.56V6.232C187.001 5.656 186.889 5.32 186.649 5.224C186.457 5.144 186.361 5.064 186.361 4.952C186.361 4.84 186.441 4.76 186.585 4.728C187.401 4.552 188.201 4.28 188.969 3.88C189.145 3.784 189.257 3.832 189.273 4.04L189.385 5.336L189.401 5.496C189.961 4.28 190.937 3.672 192.313 3.672C194.601 3.672 195.609 4.904 195.609 7.48V11.56C195.609 12.2 195.673 12.456 195.945 12.568Z" fill="black"/>
</svg>
