<svg width="32" height="31" viewBox="0 0 32 31" fill="none" xmlns="http://www.w3.org/2000/svg">
<g clip-path="url(#clip0_29808_42836)">
<rect x="3.46094" y="26.2373" width="2.48694" height="2.48694" fill="#676C80"/>
<rect x="5.94727" y="26.2373" width="2.48694" height="2.48694" fill="#676C80"/>
<rect x="8.43457" y="26.2373" width="2.48694" height="2.48694" fill="#676C80"/>
<rect x="10.9219" y="26.2373" width="2.48694" height="2.48694" fill="#676C80"/>
<rect x="13.4082" y="26.2373" width="2.48694" height="2.48694" fill="#676C80"/>
<rect x="15.8955" y="26.2373" width="2.48694" height="2.48694" fill="#676C80"/>
<rect x="18.3818" y="26.2373" width="2.48694" height="2.48694" fill="#676C80"/>
<rect x="20.8691" y="26.2373" width="2.48694" height="2.48694" fill="#676C80"/>
<rect x="23.3564" y="26.2373" width="2.48694" height="2.48694" fill="#676C80"/>
<rect x="25.8428" y="26.2373" width="2.48694" height="2.48694" fill="#676C80"/>
<rect x="0.973633" y="27.4805" width="2.48694" height="2.48694" fill="#676C80"/>
<rect x="3.46094" y="27.4805" width="2.48694" height="2.48694" fill="#676C80"/>
<rect x="5.94727" y="27.4805" width="2.48694" height="2.48694" fill="#676C80"/>
<rect x="8.43457" y="27.4805" width="2.48694" height="2.48694" fill="#676C80"/>
<rect x="10.9219" y="27.4805" width="2.48694" height="2.48694" fill="#676C80"/>
<rect x="13.4082" y="27.4805" width="2.48694" height="2.48694" fill="#676C80"/>
<rect x="15.8955" y="27.4805" width="2.48694" height="2.48694" fill="#676C80"/>
<rect x="18.3818" y="27.4805" width="2.48694" height="2.48694" fill="#676C80"/>
<rect x="20.8691" y="27.4805" width="2.48694" height="2.48694" fill="#676C80"/>
<rect x="23.3564" y="27.4805" width="2.48694" height="2.48694" fill="#676C80"/>
<rect x="25.8428" y="27.4805" width="2.48694" height="2.48694" fill="#676C80"/>
<rect x="28.3301" y="27.4805" width="2.48694" height="2.48694" fill="#676C80"/>
<g opacity="0.4">
<g clip-path="url(#clip1_29808_42836)">
<rect x="7.19141" y="12.5586" width="2.48694" height="2.48694" transform="rotate(90 7.19141 12.5586)" fill="#676C80"/>
<rect x="7.19141" y="15.0459" width="2.48694" height="2.48694" transform="rotate(90 7.19141 15.0459)" fill="#676C80"/>
<rect x="7.19141" y="17.5322" width="2.48694" height="2.48694" transform="rotate(90 7.19141 17.5322)" fill="#676C80"/>
<rect x="7.19141" y="20.0195" width="2.48694" height="2.48694" transform="rotate(90 7.19141 20.0195)" fill="#676C80"/>
<rect x="7.19141" y="22.5059" width="2.48694" height="2.48694" transform="rotate(90 7.19141 22.5059)" fill="#676C80"/>
<rect x="8.43457" y="12.5586" width="2.48694" height="2.48694" transform="rotate(90 8.43457 12.5586)" fill="#676C80"/>
<rect x="8.43457" y="15.0459" width="2.48694" height="2.48694" transform="rotate(90 8.43457 15.0459)" fill="#676C80"/>
<rect x="8.43457" y="17.5322" width="2.48694" height="2.48694" transform="rotate(90 8.43457 17.5322)" fill="#676C80"/>
<rect x="8.43457" y="20.0195" width="2.48694" height="2.48694" transform="rotate(90 8.43457 20.0195)" fill="#676C80"/>
<rect x="8.43457" y="22.5059" width="2.48694" height="2.48694" transform="rotate(90 8.43457 22.5059)" fill="#676C80"/>
</g>
<g clip-path="url(#clip2_29808_42836)">
<rect x="15.8955" y="12.5586" width="2.48694" height="2.48694" transform="rotate(90 15.8955 12.5586)" fill="#676C80"/>
<rect x="15.8955" y="15.0459" width="2.48694" height="2.48694" transform="rotate(90 15.8955 15.0459)" fill="#676C80"/>
<rect x="15.8955" y="17.5322" width="2.48694" height="2.48694" transform="rotate(90 15.8955 17.5322)" fill="#676C80"/>
<rect x="15.8955" y="20.0195" width="2.48694" height="2.48694" transform="rotate(90 15.8955 20.0195)" fill="#676C80"/>
<rect x="15.8955" y="22.5059" width="2.48694" height="2.48694" transform="rotate(90 15.8955 22.5059)" fill="#676C80"/>
<rect x="17.1387" y="12.5586" width="2.48694" height="2.48694" transform="rotate(90 17.1387 12.5586)" fill="#676C80"/>
<rect x="17.1387" y="15.0459" width="2.48694" height="2.48694" transform="rotate(90 17.1387 15.0459)" fill="#676C80"/>
<rect x="17.1387" y="17.5322" width="2.48694" height="2.48694" transform="rotate(90 17.1387 17.5322)" fill="#676C80"/>
<rect x="17.1387" y="20.0195" width="2.48694" height="2.48694" transform="rotate(90 17.1387 20.0195)" fill="#676C80"/>
<rect x="17.1387" y="22.5059" width="2.48694" height="2.48694" transform="rotate(90 17.1387 22.5059)" fill="#676C80"/>
</g>
<g clip-path="url(#clip3_29808_42836)">
<rect x="24.5996" y="12.5586" width="2.48694" height="2.48694" transform="rotate(90 24.5996 12.5586)" fill="#676C80"/>
<rect x="24.5996" y="15.0459" width="2.48694" height="2.48694" transform="rotate(90 24.5996 15.0459)" fill="#676C80"/>
<rect x="24.5996" y="17.5322" width="2.48694" height="2.48694" transform="rotate(90 24.5996 17.5322)" fill="#676C80"/>
<rect x="24.5996" y="20.0195" width="2.48694" height="2.48694" transform="rotate(90 24.5996 20.0195)" fill="#676C80"/>
<rect x="24.5996" y="22.5059" width="2.48694" height="2.48694" transform="rotate(90 24.5996 22.5059)" fill="#676C80"/>
<rect x="25.8428" y="12.5586" width="2.48694" height="2.48694" transform="rotate(90 25.8428 12.5586)" fill="#676C80"/>
<rect x="25.8428" y="15.0459" width="2.48694" height="2.48694" transform="rotate(90 25.8428 15.0459)" fill="#676C80"/>
<rect x="25.8428" y="17.5322" width="2.48694" height="2.48694" transform="rotate(90 25.8428 17.5322)" fill="#676C80"/>
<rect x="25.8428" y="20.0195" width="2.48694" height="2.48694" transform="rotate(90 25.8428 20.0195)" fill="#676C80"/>
<rect x="25.8428" y="22.5059" width="2.48694" height="2.48694" transform="rotate(90 25.8428 22.5059)" fill="#676C80"/>
</g>
</g>
<rect x="13.4092" y="0.124023" width="2.48694" height="2.48694" fill="#676C80"/>
<rect x="15.8955" y="0.124023" width="2.48694" height="2.48694" fill="#676C80"/>
<rect x="8.43457" y="2.61133" width="2.48694" height="2.48694" fill="#676C80"/>
<rect x="10.9219" y="2.61133" width="2.48694" height="2.48694" fill="#676C80"/>
<rect x="13.4092" y="2.61133" width="2.48694" height="2.48694" fill="#676C80"/>
<rect x="15.8955" y="2.61133" width="2.48694" height="2.48694" fill="#676C80"/>
<rect x="18.3828" y="2.61133" width="2.48694" height="2.48694" fill="#676C80"/>
<rect x="20.8691" y="2.61133" width="2.48694" height="2.48694" fill="#676C80"/>
<rect x="3.46094" y="5.09766" width="2.48694" height="2.48694" fill="#676C80"/>
<rect x="5.94824" y="5.09766" width="2.48694" height="2.48694" fill="#676C80"/>
<rect x="8.43457" y="5.09766" width="2.48694" height="2.48694" fill="#676C80"/>
<rect x="10.9219" y="5.09766" width="2.48694" height="2.48694" fill="#676C80"/>
<rect x="13.4092" y="5.09766" width="2.48694" height="2.48694" fill="#676C80"/>
<rect x="15.8955" y="5.09766" width="2.48694" height="2.48694" fill="#676C80"/>
<rect x="18.3828" y="5.09766" width="2.48694" height="2.48694" fill="#676C80"/>
<rect x="20.8691" y="5.09766" width="2.48694" height="2.48694" fill="#676C80"/>
<rect x="23.3564" y="5.09766" width="2.48694" height="2.48694" fill="#676C80"/>
<rect x="25.8438" y="5.09766" width="2.48694" height="2.48694" fill="#676C80"/>
<rect x="0.973633" y="7.58496" width="2.48694" height="2.48694" fill="#676C80"/>
<rect x="3.46094" y="7.58496" width="2.48694" height="2.48694" fill="#676C80"/>
<rect x="5.94727" y="7.58496" width="2.48694" height="2.48694" fill="#676C80"/>
<rect x="8.43457" y="7.58496" width="2.48694" height="2.48694" fill="#676C80"/>
<rect x="10.9219" y="7.58496" width="2.48694" height="2.48694" fill="#676C80"/>
<rect x="13.4082" y="7.58496" width="2.48694" height="2.48694" fill="#676C80"/>
<rect x="15.8955" y="7.58496" width="2.48694" height="2.48694" fill="#676C80"/>
<rect x="18.3818" y="7.58496" width="2.48694" height="2.48694" fill="#676C80"/>
<rect x="20.8691" y="7.58496" width="2.48694" height="2.48694" fill="#676C80"/>
<rect x="23.3564" y="7.58496" width="2.48694" height="2.48694" fill="#676C80"/>
<rect x="25.8428" y="7.58496" width="2.48694" height="2.48694" fill="#676C80"/>
<rect x="28.3301" y="7.58496" width="2.48694" height="2.48694" fill="#676C80"/>
<rect x="4.70605" y="11.3154" width="1.24347" height="1.24347" transform="rotate(90 4.70605 11.3154)" fill="#444559"/>
<rect x="5.9502" y="11.3154" width="1.24347" height="1.24347" transform="rotate(90 5.9502 11.3154)" fill="#444559"/>
<rect x="7.19336" y="11.3154" width="1.24347" height="1.24347" transform="rotate(90 7.19336 11.3154)" fill="#444559"/>
<rect x="8.43652" y="11.3154" width="1.24347" height="1.24347" transform="rotate(90 8.43652 11.3154)" fill="#444559"/>
<rect x="9.68066" y="11.3154" width="1.24347" height="1.24347" transform="rotate(90 9.68066 11.3154)" fill="#444559"/>
<rect x="4.70605" y="23.75" width="1.24347" height="1.24347" transform="rotate(90 4.70605 23.75)" fill="#444559"/>
<rect x="5.9502" y="23.75" width="1.24347" height="1.24347" transform="rotate(90 5.9502 23.75)" fill="#444559"/>
<rect x="7.19336" y="23.75" width="1.24347" height="1.24347" transform="rotate(90 7.19336 23.75)" fill="#444559"/>
<rect x="8.43652" y="23.75" width="1.24347" height="1.24347" transform="rotate(90 8.43652 23.75)" fill="#444559"/>
<rect x="9.68066" y="23.75" width="1.24347" height="1.24347" transform="rotate(90 9.68066 23.75)" fill="#444559"/>
<rect x="13.4082" y="23.75" width="1.24347" height="1.24347" transform="rotate(90 13.4082 23.75)" fill="#444559"/>
<rect x="14.6523" y="23.75" width="1.24347" height="1.24347" transform="rotate(90 14.6523 23.75)" fill="#444559"/>
<rect x="15.8955" y="23.75" width="1.24347" height="1.24347" transform="rotate(90 15.8955 23.75)" fill="#444559"/>
<rect x="17.1387" y="23.75" width="1.24347" height="1.24347" transform="rotate(90 17.1387 23.75)" fill="#444559"/>
<rect x="18.3828" y="23.75" width="1.24347" height="1.24347" transform="rotate(90 18.3828 23.75)" fill="#444559"/>
<rect x="22.1094" y="23.75" width="1.24347" height="1.24347" transform="rotate(90 22.1094 23.75)" fill="#444559"/>
<rect x="23.3535" y="23.75" width="1.24347" height="1.24347" transform="rotate(90 23.3535 23.75)" fill="#444559"/>
<rect x="24.5967" y="23.75" width="1.24347" height="1.24347" transform="rotate(90 24.5967 23.75)" fill="#444559"/>
<rect x="25.8398" y="23.75" width="1.24347" height="1.24347" transform="rotate(90 25.8398 23.75)" fill="#444559"/>
<rect x="27.084" y="23.75" width="1.24347" height="1.24347" transform="rotate(90 27.084 23.75)" fill="#444559"/>
<rect x="13.4082" y="11.3154" width="1.24347" height="1.24347" transform="rotate(90 13.4082 11.3154)" fill="#444559"/>
<rect x="14.6523" y="11.3154" width="1.24347" height="1.24347" transform="rotate(90 14.6523 11.3154)" fill="#444559"/>
<rect x="15.8955" y="11.3154" width="1.24347" height="1.24347" transform="rotate(90 15.8955 11.3154)" fill="#444559"/>
<rect x="17.1387" y="11.3154" width="1.24347" height="1.24347" transform="rotate(90 17.1387 11.3154)" fill="#444559"/>
<rect x="18.3828" y="11.3154" width="1.24347" height="1.24347" transform="rotate(90 18.3828 11.3154)" fill="#444559"/>
<rect x="22.1094" y="11.3154" width="1.24347" height="1.24347" transform="rotate(90 22.1094 11.3154)" fill="#444559"/>
<rect x="23.3535" y="11.3154" width="1.24347" height="1.24347" transform="rotate(90 23.3535 11.3154)" fill="#444559"/>
<rect x="24.5967" y="11.3154" width="1.24347" height="1.24347" transform="rotate(90 24.5967 11.3154)" fill="#444559"/>
<rect x="25.8398" y="11.3154" width="1.24347" height="1.24347" transform="rotate(90 25.8398 11.3154)" fill="#444559"/>
<rect x="27.084" y="11.3154" width="1.24347" height="1.24347" transform="rotate(90 27.084 11.3154)" fill="#444559"/>
</g>
<defs>
<clipPath id="clip0_29808_42836">
<rect width="29.8433" height="29.8433" fill="white" transform="translate(0.972656 0.124023)"/>
</clipPath>
<clipPath id="clip1_29808_42836">
<rect width="3.73041" height="11.1912" fill="white" transform="translate(4.7041 12.5586)"/>
</clipPath>
<clipPath id="clip2_29808_42836">
<rect width="3.73041" height="11.1912" fill="white" transform="translate(13.4082 12.5586)"/>
</clipPath>
<clipPath id="clip3_29808_42836">
<rect width="3.73041" height="11.1912" fill="white" transform="translate(22.1123 12.5586)"/>
</clipPath>
</defs>
</svg>
