<svg width="15" height="15" viewBox="0 0 15 15" fill="none" xmlns="http://www.w3.org/2000/svg">
<g clip-path="url(#clip0_27991_12108)">
<rect x="1.66675" y="12.5" width="1.16667" height="1.16667" fill="currentColor"/>
<rect x="2.83325" y="12.5" width="1.16667" height="1.16667" fill="currentColor"/>
<rect x="4" y="12.5" width="1.16667" height="1.16667" fill="currentColor"/>
<rect x="5.16675" y="12.5" width="1.16667" height="1.16667" fill="currentColor"/>
<rect x="6.33325" y="12.5" width="1.16667" height="1.16667" fill="currentColor"/>
<rect x="7.5" y="12.5" width="1.16667" height="1.16667" fill="currentColor"/>
<rect x="8.66675" y="12.5" width="1.16667" height="1.16667" fill="currentColor"/>
<rect x="9.83325" y="12.5" width="1.16667" height="1.16667" fill="currentColor"/>
<rect x="11" y="12.5" width="1.16667" height="1.16667" fill="currentColor"/>
<rect x="12.1667" y="12.5" width="1.16667" height="1.16667" fill="currentColor"/>
<rect x="0.5" y="13.083" width="1.16667" height="1.16667" fill="currentColor"/>
<rect x="1.66675" y="13.083" width="1.16667" height="1.16667" fill="currentColor"/>
<rect x="2.83325" y="13.083" width="1.16667" height="1.16667" fill="currentColor"/>
<rect x="4" y="13.083" width="1.16667" height="1.16667" fill="currentColor"/>
<rect x="5.16675" y="13.083" width="1.16667" height="1.16667" fill="currentColor"/>
<rect x="6.33325" y="13.083" width="1.16667" height="1.16667" fill="currentColor"/>
<rect x="7.5" y="13.083" width="1.16667" height="1.16667" fill="currentColor"/>
<rect x="8.66675" y="13.083" width="1.16667" height="1.16667" fill="currentColor"/>
<rect x="9.83325" y="13.083" width="1.16667" height="1.16667" fill="currentColor"/>
<rect x="11" y="13.083" width="1.16667" height="1.16667" fill="currentColor"/>
<rect x="12.1667" y="13.083" width="1.16667" height="1.16667" fill="currentColor"/>
<rect x="13.3333" y="13.083" width="1.16667" height="1.16667" fill="currentColor"/>
<g clip-path="url(#clip1_27991_12108)">
<rect x="3.41675" y="6.08301" width="1.16667" height="1.16667" transform="rotate(90 3.41675 6.08301)" fill="currentColor"/>
<rect x="3.41675" y="7.25" width="1.16667" height="1.16667" transform="rotate(90 3.41675 7.25)" fill="currentColor"/>
<rect x="3.41675" y="8.41602" width="1.16667" height="1.16667" transform="rotate(90 3.41675 8.41602)" fill="currentColor"/>
<rect x="3.41675" y="9.58301" width="1.16667" height="1.16667" transform="rotate(90 3.41675 9.58301)" fill="currentColor"/>
<rect x="3.41675" y="10.75" width="1.16667" height="1.16667" transform="rotate(90 3.41675 10.75)" fill="currentColor"/>
<rect x="4" y="6.08301" width="1.16667" height="1.16667" transform="rotate(90 4 6.08301)" fill="currentColor"/>
<rect x="4" y="7.25" width="1.16667" height="1.16667" transform="rotate(90 4 7.25)" fill="currentColor"/>
<rect x="4" y="8.41602" width="1.16667" height="1.16667" transform="rotate(90 4 8.41602)" fill="currentColor"/>
<rect x="4" y="9.58301" width="1.16667" height="1.16667" transform="rotate(90 4 9.58301)" fill="currentColor"/>
<rect x="4" y="10.75" width="1.16667" height="1.16667" transform="rotate(90 4 10.75)" fill="currentColor"/>
</g>
<g clip-path="url(#clip2_27991_12108)">
<rect x="7.5" y="6.08301" width="1.16667" height="1.16667" transform="rotate(90 7.5 6.08301)" fill="currentColor"/>
<rect x="7.5" y="7.25" width="1.16667" height="1.16667" transform="rotate(90 7.5 7.25)" fill="currentColor"/>
<rect x="7.5" y="8.41602" width="1.16667" height="1.16667" transform="rotate(90 7.5 8.41602)" fill="currentColor"/>
<rect x="7.5" y="9.58301" width="1.16667" height="1.16667" transform="rotate(90 7.5 9.58301)" fill="currentColor"/>
<rect x="7.5" y="10.75" width="1.16667" height="1.16667" transform="rotate(90 7.5 10.75)" fill="currentColor"/>
<rect x="8.08325" y="6.08301" width="1.16667" height="1.16667" transform="rotate(90 8.08325 6.08301)" fill="currentColor"/>
<rect x="8.08325" y="7.25" width="1.16667" height="1.16667" transform="rotate(90 8.08325 7.25)" fill="currentColor"/>
<rect x="8.08325" y="8.41602" width="1.16667" height="1.16667" transform="rotate(90 8.08325 8.41602)" fill="currentColor"/>
<rect x="8.08325" y="9.58301" width="1.16667" height="1.16667" transform="rotate(90 8.08325 9.58301)" fill="currentColor"/>
<rect x="8.08325" y="10.75" width="1.16667" height="1.16667" transform="rotate(90 8.08325 10.75)" fill="currentColor"/>
</g>
<g clip-path="url(#clip3_27991_12108)">
<rect x="11.5835" y="6.08301" width="1.16667" height="1.16667" transform="rotate(90 11.5835 6.08301)" fill="currentColor"/>
<rect x="11.5835" y="7.25" width="1.16667" height="1.16667" transform="rotate(90 11.5835 7.25)" fill="currentColor"/>
<rect x="11.5835" y="8.41602" width="1.16667" height="1.16667" transform="rotate(90 11.5835 8.41602)" fill="currentColor"/>
<rect x="11.5835" y="9.58301" width="1.16667" height="1.16667" transform="rotate(90 11.5835 9.58301)" fill="currentColor"/>
<rect x="11.5835" y="10.75" width="1.16667" height="1.16667" transform="rotate(90 11.5835 10.75)" fill="currentColor"/>
<rect x="12.1667" y="6.08301" width="1.16667" height="1.16667" transform="rotate(90 12.1667 6.08301)" fill="currentColor"/>
<rect x="12.1667" y="7.25" width="1.16667" height="1.16667" transform="rotate(90 12.1667 7.25)" fill="currentColor"/>
<rect x="12.1667" y="8.41602" width="1.16667" height="1.16667" transform="rotate(90 12.1667 8.41602)" fill="currentColor"/>
<rect x="12.1667" y="9.58301" width="1.16667" height="1.16667" transform="rotate(90 12.1667 9.58301)" fill="currentColor"/>
<rect x="12.1667" y="10.75" width="1.16667" height="1.16667" transform="rotate(90 12.1667 10.75)" fill="currentColor"/>
</g>
<rect x="6.3335" y="0.25" width="1.16667" height="1.16667" fill="currentColor"/>
<rect x="7.5" y="0.25" width="1.16667" height="1.16667" fill="currentColor"/>
<rect x="4" y="1.41699" width="1.16667" height="1.16667" fill="currentColor"/>
<rect x="5.16675" y="1.41699" width="1.16667" height="1.16667" fill="currentColor"/>
<rect x="6.3335" y="1.41699" width="1.16667" height="1.16667" fill="currentColor"/>
<rect x="7.5" y="1.41699" width="1.16667" height="1.16667" fill="currentColor"/>
<rect x="8.66675" y="1.41699" width="1.16667" height="1.16667" fill="currentColor"/>
<rect x="9.8335" y="1.41699" width="1.16667" height="1.16667" fill="currentColor"/>
<rect x="1.66675" y="2.58301" width="1.16667" height="1.16667" fill="currentColor"/>
<rect x="2.8335" y="2.58301" width="1.16667" height="1.16667" fill="currentColor"/>
<rect x="4" y="2.58301" width="1.16667" height="1.16667" fill="currentColor"/>
<rect x="5.16675" y="2.58301" width="1.16667" height="1.16667" fill="currentColor"/>
<rect x="6.3335" y="2.58301" width="1.16667" height="1.16667" fill="currentColor"/>
<rect x="7.5" y="2.58301" width="1.16667" height="1.16667" fill="currentColor"/>
<rect x="8.66675" y="2.58301" width="1.16667" height="1.16667" fill="currentColor"/>
<rect x="9.8335" y="2.58301" width="1.16667" height="1.16667" fill="currentColor"/>
<rect x="11" y="2.58301" width="1.16667" height="1.16667" fill="currentColor"/>
<rect x="12.1667" y="2.58301" width="1.16667" height="1.16667" fill="currentColor"/>
<rect x="0.5" y="3.75" width="1.16667" height="1.16667" fill="currentColor"/>
<rect x="1.66675" y="3.75" width="1.16667" height="1.16667" fill="currentColor"/>
<rect x="2.83325" y="3.75" width="1.16667" height="1.16667" fill="currentColor"/>
<rect x="4" y="3.75" width="1.16667" height="1.16667" fill="currentColor"/>
<rect x="5.16675" y="3.75" width="1.16667" height="1.16667" fill="currentColor"/>
<rect x="6.33325" y="3.75" width="1.16667" height="1.16667" fill="currentColor"/>
<rect x="7.5" y="3.75" width="1.16667" height="1.16667" fill="currentColor"/>
<rect x="8.66675" y="3.75" width="1.16667" height="1.16667" fill="currentColor"/>
<rect x="9.83325" y="3.75" width="1.16667" height="1.16667" fill="currentColor"/>
<rect x="11" y="3.75" width="1.16667" height="1.16667" fill="currentColor"/>
<rect x="12.1667" y="3.75" width="1.16667" height="1.16667" fill="currentColor"/>
<rect x="13.3333" y="3.75" width="1.16667" height="1.16667" fill="currentColor"/>
<rect x="2.25" y="5.5" width="0.583333" height="0.583333" transform="rotate(90 2.25 5.5)" fill="currentColor"/>
<rect x="2.8335" y="5.5" width="0.583333" height="0.583333" transform="rotate(90 2.8335 5.5)" fill="currentColor"/>
<rect x="3.41675" y="5.5" width="0.583333" height="0.583333" transform="rotate(90 3.41675 5.5)" fill="currentColor"/>
<rect x="4" y="5.5" width="0.583333" height="0.583333" transform="rotate(90 4 5.5)" fill="currentColor"/>
<rect x="4.5835" y="5.5" width="0.583333" height="0.583333" transform="rotate(90 4.5835 5.5)" fill="currentColor"/>
<rect x="2.25" y="11.333" width="0.583333" height="0.583333" transform="rotate(90 2.25 11.333)" fill="currentColor"/>
<rect x="2.8335" y="11.333" width="0.583333" height="0.583333" transform="rotate(90 2.8335 11.333)" fill="currentColor"/>
<rect x="3.41675" y="11.333" width="0.583333" height="0.583333" transform="rotate(90 3.41675 11.333)" fill="currentColor"/>
<rect x="4" y="11.333" width="0.583333" height="0.583333" transform="rotate(90 4 11.333)" fill="currentColor"/>
<rect x="4.5835" y="11.333" width="0.583333" height="0.583333" transform="rotate(90 4.5835 11.333)" fill="currentColor"/>
<rect x="6.33325" y="11.333" width="0.583333" height="0.583333" transform="rotate(90 6.33325 11.333)" fill="currentColor"/>
<rect x="6.91675" y="11.333" width="0.583333" height="0.583333" transform="rotate(90 6.91675 11.333)" fill="currentColor"/>
<rect x="7.5" y="11.333" width="0.583333" height="0.583333" transform="rotate(90 7.5 11.333)" fill="currentColor"/>
<rect x="8.08325" y="11.333" width="0.583333" height="0.583333" transform="rotate(90 8.08325 11.333)" fill="currentColor"/>
<rect x="8.66675" y="11.333" width="0.583333" height="0.583333" transform="rotate(90 8.66675 11.333)" fill="currentColor"/>
<rect x="10.4165" y="11.333" width="0.583333" height="0.583333" transform="rotate(90 10.4165 11.333)" fill="currentColor"/>
<rect x="11" y="11.333" width="0.583333" height="0.583333" transform="rotate(90 11 11.333)" fill="currentColor"/>
<rect x="11.5833" y="11.333" width="0.583333" height="0.583333" transform="rotate(90 11.5833 11.333)" fill="currentColor"/>
<rect x="12.1665" y="11.333" width="0.583333" height="0.583333" transform="rotate(90 12.1665 11.333)" fill="currentColor"/>
<rect x="12.75" y="11.333" width="0.583333" height="0.583333" transform="rotate(90 12.75 11.333)" fill="currentColor"/>
<rect x="6.33325" y="5.5" width="0.583333" height="0.583333" transform="rotate(90 6.33325 5.5)" fill="currentColor"/>
<rect x="6.91675" y="5.5" width="0.583333" height="0.583333" transform="rotate(90 6.91675 5.5)" fill="currentColor"/>
<rect x="7.5" y="5.5" width="0.583333" height="0.583333" transform="rotate(90 7.5 5.5)" fill="currentColor"/>
<rect x="8.08325" y="5.5" width="0.583333" height="0.583333" transform="rotate(90 8.08325 5.5)" fill="currentColor"/>
<rect x="8.66675" y="5.5" width="0.583333" height="0.583333" transform="rotate(90 8.66675 5.5)" fill="currentColor"/>
<rect x="10.4165" y="5.5" width="0.583333" height="0.583333" transform="rotate(90 10.4165 5.5)" fill="currentColor"/>
<rect x="11" y="5.5" width="0.583333" height="0.583333" transform="rotate(90 11 5.5)" fill="currentColor"/>
<rect x="11.5833" y="5.5" width="0.583333" height="0.583333" transform="rotate(90 11.5833 5.5)" fill="currentColor"/>
<rect x="12.1665" y="5.5" width="0.583333" height="0.583333" transform="rotate(90 12.1665 5.5)" fill="currentColor"/>
<rect x="12.75" y="5.5" width="0.583333" height="0.583333" transform="rotate(90 12.75 5.5)" fill="currentColor"/>
</g>
<defs>
<clipPath id="clip0_27991_12108">
<rect width="14" height="14" fill="currentColor" transform="translate(0.5 0.25)"/>
</clipPath>
<clipPath id="clip1_27991_12108">
<rect width="1.75" height="5.25" fill="currentColor" transform="translate(2.25 6.08301)"/>
</clipPath>
<clipPath id="clip2_27991_12108">
<rect width="1.75" height="5.25" fill="currentColor" transform="translate(6.33325 6.08301)"/>
</clipPath>
<clipPath id="clip3_27991_12108">
<rect width="1.75" height="5.25" fill="currentColor" transform="translate(10.4167 6.08301)"/>
</clipPath>
</defs>
</svg>
