<svg xmlns="http://www.w3.org/2000/svg" width="154" height="18" fill="none" class="text-snow" viewBox="0 0 249 29">
  <path fill="#ffffff" d="M25.775 11.297H12.333C3.525 11.297.46 13.442.46 19.033v8.502h5.936v-11.22h13.442c8.808 0 11.872-1.954 11.872-7.545V.727h-5.936v10.57Z"/>
  <path fill="#ffffff" d="M6.397.727H.46v9.498h5.936V.727ZM31.71 17.386h-5.935v10.149h5.936V17.386ZM53.107 0c-6.893 0-9.153 3.217-10.953 7.66L34.19 27.534h6.089L49.163 5.17h7.889l8.884 22.365h6.09L64.06 7.66C62.26 3.217 60 0 53.107 0ZM106.675 7.697c0-5.016-3.83-6.97-11.872-6.97H74.43v5.17h26.31v5.936h-26.31v15.702h5.936v-11.26h19.991v11.26h5.936v-4.06c0-5.453-1.749-8.267-5.042-9.579 3.656-.9 5.425-2.842 5.425-6.199ZM242.593 13.896c3.657-.9 5.426-2.842 5.426-6.199 0-5.016-3.83-6.97-11.872-6.97h-20.374v5.17h26.31v5.936h-26.31v15.702h5.936v-11.26H241.7v11.26h5.936v-4.06c0-5.453-1.75-8.267-5.043-9.579ZM135.767 13.828c4.098-1.115 6.29-3.003 6.29-5.863 0-5.17-3.945-7.238-12.293-7.238H110.73v26.77l20.068.038c8.655 0 12.752-2.106 12.752-7.353 0-3.347-2.547-5.35-7.783-6.354Zm.354-7.93v5.935h-19.455V5.897h19.455Zm1.493 16.467h-20.948v-6.05h20.948v6.05ZM166.016 0h-8.119c-7.646 0-11.857 4.542-11.872 12.178v3.868c0 7.66 4.213 12.217 11.872 12.217h8.119c7.659 0 11.872-4.558 11.872-12.217v-3.868h-.001C177.873 4.542 173.662 0 166.016 0Zm5.936 22.71h-19.991V5.553h19.991V22.71ZM181.339 1.072h5.936V22.71h19.224V1.072h5.936V16.43c0 7.66-4.212 11.834-11.872 11.834h-7.352c-7.66 0-11.872-4.175-11.872-11.834V1.072Z"/>
</svg>