<svg width="200" height="44" viewBox="0 0 200 44" fill="none" xmlns="http://www.w3.org/2000/svg">
<path fill-rule="evenodd" clip-rule="evenodd" d="M34.0879 21.9295L48.5259 7.50507L62.9537 21.9333L48.5259 36.3529L34.0879 21.9295ZM57.0516 17.6001C56.4517 18.27 55.1438 19.9567 55.1438 21.9295C55.1438 23.9023 56.4517 25.5891 57.0516 26.2589C53.1981 26.0551 50.1171 21.9295 50.1171 21.9295C50.1171 21.9295 53.1981 17.8039 57.0516 17.6001ZM40.011 17.6001C43.8644 17.8039 46.9454 21.9295 46.9454 21.9295C46.9454 21.9295 43.8644 26.0551 40.011 26.2589C40.6108 25.5891 41.9188 23.9023 41.9188 21.9295C41.9188 19.9567 40.6108 18.27 40.011 17.6001ZM39.4005 17.6256C38.7908 18.3114 37.5147 19.9809 37.5147 21.9295C37.5147 23.8857 38.8008 25.5607 39.4076 26.2414L42.5288 29.3632L42.5435 29.3488C43.793 28.1277 45.8702 26.5228 48.2383 26.4006C47.6421 27.0648 46.3274 28.7538 46.3274 30.7303C46.3274 32.7068 47.6421 34.3957 48.2383 35.06L48.5259 35.3613L48.8136 35.06C49.4098 34.3957 50.7245 32.7068 50.7245 30.7303C50.7245 28.7538 49.4098 27.0648 48.8136 26.4006C51.191 26.5233 53.2751 28.1403 54.5231 29.3632L57.7179 26.1678L57.7253 26.1593C58.357 25.4339 59.5478 23.8119 59.5478 21.9295C59.5478 20.0398 58.3477 18.4125 57.7179 17.6913L54.538 14.5107L54.5233 14.5251C53.275 15.7479 51.1909 17.3648 48.8136 17.4875C49.4098 16.8233 50.7245 15.1343 50.7245 13.1578C50.7245 11.1813 49.4098 9.49237 48.8136 8.8281L48.5259 8.49773L48.2383 8.8281C47.6421 9.49237 46.3274 11.1813 46.3274 13.1578C46.3274 15.1343 47.6421 16.8233 48.2383 17.4875C45.8517 17.3643 43.7606 15.7352 42.5139 14.5107L39.4005 17.6256Z" fill="white"/>
<path d="M67.1906 28.2643L68.1447 28.2199L69.0989 28.2643L68.8548 22.7169L68.877 21.6961H80.5709L80.5931 22.7169L80.349 28.2643L81.3032 28.2199L82.2573 28.2643L82.0132 22.7169L82.2573 13.8632L81.3032 13.9076L80.349 13.8632L80.5043 19.7656H68.9435L69.0989 13.8632L68.1447 13.9076L67.1906 13.8632L67.4346 22.7169L67.1906 28.2643Z" fill="white"/>
<path d="M90.7539 28.2643L91.708 28.2199L92.6622 28.2643L92.4847 22.7169V22.6725L94.9033 19.2109L99.2747 13.841H96.5454L93.7273 18.1014L91.708 20.7864L89.6888 18.1458L86.8041 13.841H84.3189L88.5127 19.1443L90.887 22.6725V22.7169L90.7539 28.2643Z" fill="white"/>
<path d="M101.255 13.8632L101.499 22.7169L101.255 28.2643L103.141 28.2199L107.911 28.2643C111.772 28.3087 116.277 26.8219 116.277 20.8751C116.277 16.2153 112.993 13.8188 108.466 13.8632L103.141 13.9076L101.255 13.8632ZM102.919 22.7169L103.119 15.7493H108.466C111.639 15.7493 114.901 16.9032 114.901 20.8307C114.901 26.1784 109.753 26.356 108.178 26.356H103.074L102.919 22.7169Z" fill="white"/>
<path d="M130.643 28.3308L132.839 28.2643L129.267 22.6725L128.934 22.0734C131.264 21.7849 133.106 20.6754 133.106 17.9683C133.106 14.6398 130.443 13.841 127.492 13.8632L121.234 13.9076L119.37 13.8632L119.614 22.7169L119.37 28.2643L120.325 28.2199L121.279 28.2643L121.057 22.1621H127.248L128.024 23.4047L130.643 28.3308ZM127.004 15.7271C130.155 15.7271 131.774 16.0156 131.774 17.9905C131.774 19.9432 130.155 20.3648 127.004 20.3648H121.101L121.234 15.7271H127.004Z" fill="white"/>
<path d="M148.561 28.2643H150.381L146.897 21.3411L143.369 13.8632L142.282 13.9076L141.15 13.8632L137.866 20.8751L134.205 28.2643H136.335L137.955 24.5586H146.897L148.561 28.2643ZM142.282 15.4609L145.654 21.8293L146.054 22.6947H138.776L139.264 21.5852L142.282 15.4609Z" fill="white"/>
<path d="M157.518 20.0536V13.7172H156.885V13.0836H156.251V12.45H151.182V21.3209H156.251V20.6872H156.885V20.0536H157.518ZM155.617 14.3509H156.251V19.42H155.617V20.0536H152.449V13.7172H155.617V14.3509Z" fill="white"/>
<path d="M160.689 15.6181H161.323V16.2518H161.956V17.519H161.323V18.1527H160.689V19.42H160.055V21.3209H161.323V20.0536H161.956V18.7863H162.59V18.1527H163.857V18.7863H164.491V20.0536H165.124V21.3209H166.392V19.42H165.758V18.1527H165.124V17.519H164.491V16.2518H165.124V15.6181H165.758V14.3509H166.392V12.45H165.124V13.7172H164.491V14.9845H163.857V15.6181H162.59V14.9845H161.956V13.7172H161.323V12.45H160.055V14.3509H160.689V15.6181Z" fill="white"/>
</svg>
