<svg xmlns="http://www.w3.org/2000/svg" width="24" height="26" viewBox="0 0 24 26" fill="none">
<path d="M17.66 17.5538C18.929 16.8615 20.7547 15.2616 22.1841 13.9172C23.4328 12.7428 23.4163 10.7829 22.2042 9.57072L21.6324 8.99898C17.1672 13.8771 11.9391 12.0987 11.9391 12.0987C9.23228 11.1973 8.35666 9.43036 8.35666 9.43036C8.35666 9.43036 12.092 11.4259 15.4959 11.0116C18.0385 10.7017 19.0527 8.82614 18.5285 6.97347C18.0028 5.11652 14.9617 2.37108 14.9617 2.37108L13.8111 1.22101C12.5839 -0.00572056 10.5946 -0.00558072 9.36755 1.22132L1.4845 9.10326C2.41298 8.22334 4.98129 6.07785 8.28524 5.69075C11.9977 5.25508 14.8446 8.44189 14.8446 8.44189C14.8446 8.44189 14.2175 8.07764 12.0363 7.42914C9.52082 6.67922 7.89813 7.14488 5.51552 8.44475C4.24733 9.13704 2.42203 10.7369 0.992754 12.0813C-0.255899 13.2558 -0.239378 15.2157 0.972752 16.4278L1.5445 16.9996C5.99833 12.0372 11.2378 13.8999 11.2378 13.8999C14.0118 14.8812 14.8203 16.5682 14.8203 16.5682C14.8203 16.5682 11.085 14.5727 7.68101 14.9869C5.13842 15.2969 4.12423 17.1724 4.64847 19.0251C5.17413 20.8821 8.21524 23.6275 8.21524 23.6275L9.36565 24.7779C10.5929 26.0051 12.5826 26.0051 13.8099 24.7779L21.691 16.8967C20.7625 17.7767 18.1942 19.9221 14.8903 20.3093C11.1778 20.7449 8.33095 17.5581 8.33095 17.5581C8.33095 17.5581 8.95802 17.9224 11.1392 18.5709C13.6547 19.3208 15.2774 18.8551 17.66 17.5552V17.5538Z" fill="currentColor"/>
</svg>
