<svg xmlns="http://www.w3.org/2000/svg" width="102" height="34" viewBox="0 0 102 34" fill="none">
  <path fill="#fff" fill-rule="evenodd" d="m.79 17 11-10.99 10.992 10.993L11.79 27.99.79 17Zm17.495-3.298c-.457.51-1.453 1.795-1.453 3.298 0 1.503.996 2.789 1.453 3.299C15.35 20.144 13.002 17 13.002 17s2.347-3.143 5.283-3.298Zm-12.983 0C8.238 13.857 10.585 17 10.585 17S8.238 20.144 5.302 20.3c.457-.51 1.453-1.796 1.453-3.299s-.996-2.788-1.453-3.298Zm-.465.02C4.372 14.243 3.4 15.515 3.4 17c0 1.49.98 2.767 1.442 3.286l2.378 2.378.011-.01c.952-.931 2.535-2.154 4.34-2.247-.455.506-1.457 1.793-1.457 3.299s1.002 2.793 1.456 3.299l.22.23.219-.23c.454-.506 1.456-1.793 1.456-3.3 0-1.505-1.002-2.792-1.456-3.298 1.811.093 3.399 1.325 4.35 2.257l2.434-2.434.006-.007c.48-.553 1.388-1.788 1.388-3.223 0-1.44-.914-2.68-1.394-3.229l-2.423-2.423-.011.01c-.951.933-2.54 2.165-4.35 2.258.454-.506 1.456-1.793 1.456-3.299s-1.002-2.793-1.456-3.299l-.22-.251-.219.251c-.454.506-1.456 1.793-1.456 3.3 0 1.505 1.002 2.792 1.456 3.298-1.818-.094-3.411-1.335-4.361-2.268l-2.372 2.373Z" clip-rule="evenodd"/>
  <path fill="#fff" d="m26.01 21.827.728-.034.727.034-.186-4.227.017-.777h8.91l.016.777-.186 4.227.727-.034.727.034-.186-4.227.186-6.745-.727.033-.727-.033.119 4.497h-8.809l.119-4.497-.727.033-.727-.033.186 6.745-.186 4.227Z"/>
  <path fill="#fff" d="m43.964 21.827.727-.034.727.034-.136-4.227v-.034l1.843-2.637 3.33-4.091h-2.079l-2.147 3.246-1.538 2.045-1.539-2.012-2.197-3.28H39.06l3.195 4.041 1.81 2.689v.033l-.102 4.227Z"/>
  <path fill="#fff" d="m51.964 10.855.186 6.745-.186 4.227 1.437-.034 3.635.034c2.942.034 6.374-1.1 6.374-5.63 0-3.55-2.502-5.376-5.951-5.342l-4.058.033-1.437-.033Zm1.268 6.745.153-5.308h4.074c2.418 0 4.903.879 4.903 3.871 0 4.075-3.922 4.21-5.123 4.21h-3.888l-.119-2.773Z"/>
  <path fill="#fff" d="m74.355 21.878 1.674-.051-2.722-4.26-.254-.457c1.776-.22 3.179-1.065 3.179-3.128 0-2.536-2.029-3.144-4.277-3.127l-4.768.033-1.42-.033.186 6.745-.186 4.227.727-.034.727.034-.17-4.65h4.718l.591.947 1.995 3.754Zm-2.772-9.603c2.4 0 3.635.22 3.635 1.724 0 1.488-1.235 1.81-3.635 1.81h-4.498l.102-3.534h4.396Z"/>
  <path fill="#fff" d="M88.009 21.827h1.386l-2.654-5.275-2.688-5.697-.829.034-.862-.034-2.502 5.342-2.79 5.63h1.623l1.234-2.824h6.814l1.268 2.824Zm-4.785-9.755 2.57 4.852.304.66h-5.545l.372-.846 2.3-4.666Z"/>
  <path fill="#fff" d="M94.831 15.571v-4.828h-.483v-.482h-.483v-.483h-3.862v6.759h3.862v-.483h.483v-.483h.483Zm-1.448-4.345h.483v3.862h-.483v.483h-2.414v-4.828h2.414v.483Z"/>
  <path fill="#fff" d="M97.247 12.192h.483v.482h.482v.966h-.482v.483h-.483v.965h-.483v1.449h.966v-.966h.482v-.966h.483v-.482h.966v.482h.482v.966h.483v.966h.966v-1.449h-.483v-.965h-.483v-.483h-.483v-.966h.483v-.482h.483v-.966h.483V9.778h-.966v.965h-.483v.966h-.482v.483h-.966v-.483h-.483v-.966h-.482v-.965h-.966v1.448h.483v.966Z"/>
</svg>