<svg width="34" height="40" viewBox="0 0 29 30" fill="none" xmlns="http://www.w3.org/2000/svg">
<path fill-rule="evenodd" clip-rule="evenodd" d="M0.0898438 14.6226L14.5279 0.198181L28.9557 14.6264L14.5279 29.0461L0.0898438 14.6226ZM23.0535 10.2933C22.4537 10.9631 21.1457 12.6498 21.1457 14.6226C21.1457 16.5954 22.4537 18.2822 23.0535 18.952C19.2001 18.7482 16.1191 14.6226 16.1191 14.6226C16.1191 14.6226 19.2001 10.497 23.0535 10.2933ZM6.01297 10.2933C9.86637 10.497 12.9474 14.6226 12.9474 14.6226C12.9474 14.6226 9.86637 18.7482 6.01297 18.952C6.61279 18.2822 7.92076 16.5954 7.92076 14.6226C7.92076 12.6498 6.61279 10.9631 6.01297 10.2933ZM5.40241 10.3188C4.79275 11.0045 3.51668 12.674 3.51668 14.6226C3.51668 16.5788 4.80278 18.2538 5.40955 18.9345L8.53078 22.0563L8.54545 22.0419C9.795 20.8208 11.8722 19.2159 14.2402 19.0937C13.644 19.7579 12.3293 21.4469 12.3293 23.4234C12.3293 25.3999 13.644 27.0889 14.2402 27.7531L14.5279 28.0544L14.8156 27.7531C15.4117 27.0889 16.7265 25.3999 16.7265 23.4234C16.7265 21.4469 15.4117 19.7579 14.8156 19.0937C17.1929 19.2164 19.277 20.8334 20.525 22.0563L23.7199 18.8609L23.7273 18.8524C24.359 18.127 25.5498 16.505 25.5498 14.6226C25.5498 12.7329 24.3496 11.1056 23.7199 10.3844L20.5399 7.20386L20.5252 7.21824C19.277 8.44099 17.1928 10.0579 14.8156 10.1806C15.4117 9.51637 16.7265 7.82744 16.7265 5.85094C16.7265 3.87445 15.4117 2.18548 14.8156 1.52121L14.5279 1.19084L14.2402 1.52121C13.644 2.18548 12.3293 3.87445 12.3293 5.85094C12.3293 7.82744 13.644 9.51637 14.2402 10.1806C11.8536 10.0575 9.76252 8.4283 8.51588 7.20386L5.40241 10.3188Z" fill="white"/>
</svg>
