<svg width="23" height="22" viewBox="0 0 23 22" fill="none">
  <path fill="currentColor" fill-rule="evenodd" d="M22.26 11 11.5.24.743 11l10.759 10.759 10.758-10.76ZM6.961 13.946h.907v-.907h.908v-.907h.907v-.907h.907v-.908h.907V9.41h.908v-.907h.907v-.907h.907v-.908h1.815v1.815h-.908v.907h-.907v.907h-.907v.908h-.907v.907h-.908v.907h-.907v.907h-.907v.908h-.907v.907H6.962v-1.815Zm0-7.258h3.629V9.41h-.907v.907H6.962V6.688Zm5.444 6.351h.907v-.907h2.722v3.629h-3.63v-2.722Z" clip-rule="evenodd"/>
</svg>