<svg width="13" height="20" viewBox="0 0 13 20" fill="none" xmlns="http://www.w3.org/2000/svg">
<path fill-rule="evenodd" clip-rule="evenodd" d="M5.4159 0.0814063C5.40149 0.104727 5.39422 0.346406 5.39973 0.618516C5.40524 0.890625 5.40719 1.19664 5.40407 1.29855L5.3984 1.48379L2.91555 1.49387L0.432739 1.50391L0.436255 6.38461C0.438169 9.06902 0.444419 11.27 0.450122 11.2757C0.455825 11.2814 1.57481 11.2922 2.9368 11.2998C4.80094 11.3102 5.41692 11.3251 5.42852 11.3599C5.43704 11.3854 5.47766 11.4062 5.51883 11.4062C5.63008 11.4062 5.62352 11.6504 5.51028 11.7256C5.42778 11.7804 5.42657 11.8 5.407 13.4296L5.38719 15.0781H4.1634H2.93961L2.92875 14.5215L2.91793 13.9648L1.78512 13.9539C1.16208 13.9479 0.612739 13.9526 0.564419 13.9644L0.476528 13.9859V15.9382V17.8906H2.95442H5.43231L5.44465 18.5582L5.457 19.2257L5.56661 19.3199L5.67622 19.4141H6.74922H7.82223L7.86032 19.3139C7.88125 19.2587 7.8984 18.9248 7.8984 18.5717V17.9297H10.4325H12.9666L12.949 16.2793C12.9392 15.3716 12.9282 13.1875 12.9246 11.4258L12.9179 8.22266L10.4277 8.21262L7.93747 8.20254V6.24973V4.29688H9.22536H10.5132L10.5242 4.79492L10.5351 5.29297H11.7265H12.9179L12.9281 3.36277L12.9382 1.43258L10.4379 1.45938L7.93747 1.48617L7.93711 0.967695C7.93696 0.682539 7.92571 0.356953 7.91215 0.244141L7.88751 0.0390625H6.66481C5.8284 0.0390625 5.43379 0.0524609 5.4159 0.0814063ZM4.15036 4.36582C3.25813 4.37359 2.95336 4.38824 2.93075 4.42441C2.91418 4.45094 2.90079 5.30156 2.90098 6.31469L2.90133 8.15676L3.30024 8.1823C3.51965 8.19637 4.09028 8.20242 4.56825 8.19574L5.43735 8.18359L5.44641 6.72852C5.46188 4.2518 5.46415 4.36336 5.3984 4.35918C5.36618 4.35715 4.80454 4.36012 4.15036 4.36582ZM8.71383 8.92293C8.71114 8.95672 8.70567 9.00637 8.70168 9.0332C8.69149 9.10148 8.75657 9.17969 8.82352 9.17969C8.91059 9.17969 8.87618 8.89129 8.78708 8.87441C8.74676 8.86676 8.71672 8.88668 8.71383 8.92293ZM9.7734 9.58984C9.7734 9.70051 9.78829 9.72656 9.85153 9.72656C9.91477 9.72656 9.92965 9.70051 9.92965 9.58984C9.92965 9.47918 9.91477 9.45312 9.85153 9.45312C9.78829 9.45312 9.7734 9.47918 9.7734 9.58984ZM8.71872 9.6875C8.71872 9.70898 8.73735 9.72656 8.76008 9.72656C8.78282 9.72656 8.79059 9.70898 8.77731 9.6875C8.76403 9.66602 8.74543 9.64844 8.73594 9.64844C8.72645 9.64844 8.71872 9.66602 8.71872 9.6875ZM7.96329 12.0605C7.94922 12.4634 7.93762 13.2895 7.93758 13.8965L7.93747 15H9.21219H10.4869L10.463 13.3105C10.4499 12.3813 10.4388 11.5552 10.4383 11.4746L10.4375 11.3281H9.21317H7.98887L7.96329 12.0605ZM5.45426 11.575C5.42301 11.6566 5.46208 11.7098 5.51461 11.6572C5.5368 11.635 5.53739 11.5978 5.51606 11.5633C5.4861 11.5148 5.47672 11.5166 5.45426 11.575Z" fill="currentColor"/>
</svg>
