<svg width="17" height="17" viewBox="0 0 17 17" fill="none" xmlns="http://www.w3.org/2000/svg">
<path d="M14.3065 5.96941L14.0346 5.31003C14.9671 3.15818 14.9065 3.09369 14.724 2.91001L13.5321 1.72125L13.414 1.61875H13.2765C13.2027 1.61875 12.9871 1.61875 11.1739 2.45689L10.5064 2.18188C9.6439 0.0012207 9.55639 0.0012207 9.30013 0.0012207H7.62204C7.36955 0.0012207 7.27142 0.0012207 6.47329 2.19004L5.80891 2.46505C4.58516 1.93692 3.86634 1.66504 3.67258 1.66504H3.51258L2.23257 2.94505C2.03631 3.14505 1.96758 3.21068 2.95445 5.32939L2.68257 5.9869C0.5 6.84753 0.5 6.93065 0.5 7.20127V8.87809C0.5 9.14183 0.5 9.23497 2.69057 10.0362L2.96245 10.6925C2.02995 12.8443 2.09182 12.9088 2.27307 13.0925L3.46495 14.2831L3.58307 14.3869H3.72245C3.79432 14.3869 4.00871 14.3869 5.8231 13.5469L6.48874 13.8238C7.35124 16.0012 7.43937 16.0012 7.69999 16.0012H9.37504C9.63255 16.0012 9.7238 16.0012 10.5257 13.8137L11.1932 13.5387C12.4169 14.0668 13.1326 14.3387 13.3257 14.3387H13.4857L14.7782 13.0474C14.9619 12.8587 15.0263 12.7931 14.0457 10.6824L14.3163 10.0249C16.5 9.15493 16.5 9.06368 16.5 8.80118V7.12437C16.5 6.86062 16.5 6.76749 14.3062 5.96935L14.3065 5.96941ZM8.5002 10.7995C7.75708 10.8014 7.04394 10.5077 6.51763 9.98327C5.99075 9.4589 5.69451 8.74638 5.69388 8.00325C5.69263 7.26075 5.987 6.54761 6.51201 6.02132C7.03701 5.49568 7.74953 5.20006 8.49267 5.19944C9.23579 5.19944 9.94831 5.49445 10.474 6.02007C10.9996 6.5457 11.294 7.25821 11.294 8.00136C11.2927 8.74262 10.9977 9.45262 10.4746 9.97706C9.95084 10.5014 9.24146 10.7971 8.50017 10.7996L8.5002 10.7995Z" fill="currentColor"/>
</svg>
