<svg width="14" height="14" viewBox="0 0 14 14" fill="none" xmlns="http://www.w3.org/2000/svg">
  <path fill-rule="evenodd" clip-rule="evenodd" d="M7.66971 3.01043C7.66971 3.56577 7.25742 4.01314 6.72939 4.01314C6.20859 4.01314 5.78906 3.56577 5.78906 3.01043C5.78906 2.44736 6.20859 2 6.72939 2C7.25742 2 7.66971 2.44736 7.66971 3.01043ZM9 10.4601C9 10.7764 8.76854 11.0001 8.47197 11.0001H5.52803C5.23146 11.0001 5 10.7764 5 10.4601C5 10.1593 5.23146 9.92021 5.52803 9.92021H6.42495V6.37986H5.65099C5.35443 6.37986 5.12297 6.15618 5.12297 5.83994C5.12297 5.53913 5.35443 5.30002 5.65099 5.30002H7.01085C7.37975 5.30002 7.57505 5.57769 7.57505 5.9942V9.92021H8.47197C8.76854 9.92021 9 10.1593 9 10.4601Z" fill="currentColor" />
</svg>
  