<svg xmlns="http://www.w3.org/2000/svg" width="18" height="18" viewBox="0 0 18 18" fill="none">
<path opacity="0.3" d="M13.5412 10.6516C13.5412 11.7843 13.2053 12.8915 12.576 13.8333C11.9468 14.7751 11.0524 15.5091 10.0059 15.9425C8.95948 16.376 7.808 16.4894 6.69711 16.2684C5.58621 16.0475 4.56579 15.502 3.76487 14.7011C2.96396 13.9002 2.41853 12.8798 2.19756 11.7689C1.97659 10.658 2.09 9.50652 2.52345 8.46007C2.9569 7.41363 3.69093 6.51922 4.6327 5.88995C5.57447 5.26068 6.6817 4.9248 7.81436 4.9248V10.6516H13.5412Z" fill="currentColor" fill-opacity="0.7"/>
<path d="M8.96733 1.53516C10.0262 1.53516 11.0746 1.74371 12.0529 2.14891C13.0311 2.55411 13.92 3.14802 14.6687 3.89673C15.4174 4.64544 16.0113 5.53429 16.4165 6.51253C16.8217 7.49076 17.0302 8.53923 17.0302 9.59807L8.96733 9.59807V1.53516Z" fill="currentColor" fill-opacity="0.7"/>
</svg>