<svg width="100" height="16" viewBox="0 0 100 16" fill="none" xmlns="http://www.w3.org/2000/svg">
  <g clip-path="url(#clip0_17630_243852)">
    <path d="M9.80842 0.533325C4.56108 0.533325 0.307617 4.78901 0.307617 10.0386V14.1119C0.307617 14.8612 0.91462 15.4683 1.66392 15.4683C2.41323 15.4683 3.02467 14.8612 3.02467 14.1119V10.0386C3.02467 9.28703 3.62945 8.68005 4.38098 8.68005C5.13028 8.68005 5.73727 9.28703 5.73727 10.0386V14.1119C5.73727 14.8612 6.34431 15.4683 7.09359 15.4683C7.84511 15.4683 8.4521 14.8612 8.4521 14.1119V10.0386C8.4521 9.28703 9.05914 8.68005 9.80842 8.68005C10.5599 8.68005 11.1692 9.28703 11.1692 10.0386V14.1119C11.1692 14.8612 11.7762 15.4683 12.5255 15.4683C13.2748 15.4683 13.8818 14.8612 13.8818 14.1119V10.0386C13.8818 9.28703 14.4888 8.68005 15.2425 8.68005C15.9918 8.68005 16.5988 9.28703 16.5988 10.0386V14.1119C16.5988 14.8612 17.2059 15.4683 17.9574 15.4683C18.7067 15.4683 19.3137 14.8612 19.3137 14.1119V10.0386C19.3137 4.78901 15.058 0.533325 9.80842 0.533325Z" fill="white"/>
    <path d="M21.447 0.53479H23.8584V6.87606L30.2935 0.53479H33.4998L27.7615 6.08561L33.8214 15.4635H30.615L25.9193 7.86742L23.8584 9.86134V15.4658H21.447V0.53479Z" fill="white"/>
    <path d="M35.1321 0.534998H37.5168V3.11392C37.711 2.61154 38.1911 2.00197 38.9525 1.28076C39.7139 0.561793 40.5936 0.200073 41.5872 0.200073C41.6341 0.200073 41.7122 0.204539 41.8239 0.213471C41.9355 0.222402 42.1253 0.240265 42.3955 0.269291V2.91966C42.2459 2.89064 42.1097 2.87277 41.9847 2.86385C41.8596 2.85491 41.7212 2.85045 41.5738 2.85045C40.3101 2.85045 39.3387 3.25682 38.66 4.06957C37.9812 4.88233 37.6418 5.81791 37.6418 6.87849V15.466H35.1321V0.534998Z" fill="white"/>
    <path d="M51.7422 6.42963C52.3183 6.35592 52.7046 6.1148 52.8988 5.70616C53.0104 5.48291 53.0663 5.16137 53.0663 4.7416C53.0663 3.88419 52.7626 3.26123 52.1553 2.87272C51.5479 2.48643 50.6794 2.29218 49.5474 2.29218C48.2389 2.29218 47.3123 2.6472 46.7652 3.35724C46.4594 3.75022 46.2606 4.33299 46.1668 5.10778H43.8246C43.8715 3.26346 44.4676 1.97958 45.6131 1.25614C46.7607 0.534936 48.0893 0.173218 49.6032 0.173218C51.3582 0.173218 52.7827 0.508143 53.8768 1.17576C54.9643 1.84561 55.5067 2.88611 55.5067 4.2995V12.9003C55.5067 13.1616 55.5605 13.3693 55.6677 13.5278C55.7723 13.6863 55.9979 13.7645 56.344 13.7645C56.456 13.7645 56.5808 13.7578 56.7216 13.7444C56.8597 13.731 57.0096 13.7087 57.168 13.6818V15.5351C56.7771 15.6467 56.4805 15.716 56.2773 15.745C56.0715 15.7718 55.7947 15.7874 55.44 15.7874C54.5755 15.7874 53.9483 15.4815 53.5575 14.8675C53.3543 14.5415 53.2092 14.0815 53.1266 13.4876C52.6152 14.1575 51.8829 14.738 50.925 15.2292C49.9671 15.7227 48.9132 15.9683 47.7611 15.9683C46.3767 15.9683 45.2447 15.5485 44.3672 14.709C43.4896 13.8694 43.0498 12.8177 43.0498 11.5562C43.0498 10.1741 43.483 9.10232 44.3471 8.34094C45.2112 7.57955 46.3455 7.11064 47.7477 6.93422L51.7422 6.42963ZM46.4594 13.2085C46.9885 13.6261 47.6159 13.8337 48.3416 13.8337C49.2236 13.8337 50.0788 13.6305 50.9071 13.2219C52.3004 12.5454 52.9971 11.4357 52.9971 9.89496V7.87651C52.6912 8.07299 52.2959 8.23598 51.8136 8.36547C51.3313 8.49502 50.858 8.58878 50.3958 8.64462L48.8797 8.83886C47.971 8.95944 47.2877 9.1492 46.83 9.40824C46.053 9.8436 45.6667 10.5403 45.6667 11.4937C45.6644 12.2216 45.9302 12.791 46.4594 13.2085Z" fill="white"/>
    <path d="M61.2117 0.534912V6.87617L67.6469 0.534912H70.8507L65.1125 6.08577L71.1723 15.4636H67.9659L63.2704 7.86753L61.2096 9.86144V15.4659H58.7979V0.534912H61.2117Z" fill="white"/>
    <path d="M81.4075 0.94582C82.3968 1.44374 83.1494 2.0868 83.6651 2.87722C84.1632 3.62969 84.4955 4.50719 84.663 5.51196C84.8107 6.1997 84.8843 7.29602 84.8843 8.80092H74.0262C74.0731 10.3193 74.4278 11.5384 75.0912 12.4561C75.7542 13.3738 76.7835 13.8337 78.1744 13.8337C79.4742 13.8337 80.5126 13.4006 81.287 12.532C81.7206 12.0274 82.0283 11.4446 82.2091 10.7815H84.6768C84.6118 11.3307 84.3952 11.9403 84.0288 12.6146C83.663 13.2889 83.2523 13.8382 82.8011 14.2669C82.0443 15.0105 81.1083 15.5128 79.992 15.7719C79.3936 15.9215 78.7147 15.9951 77.9579 15.9951C76.1115 15.9951 74.5462 15.3186 73.2624 13.9677C71.9787 12.6146 71.3376 10.7234 71.3376 8.28738C71.3376 5.8893 71.983 3.94228 73.2779 2.44628C74.5707 0.950284 76.2608 0.202285 78.3488 0.202285C79.3979 0.200053 80.4187 0.45013 81.4075 0.94582ZM82.3051 6.80924C82.2048 5.72183 81.968 4.85328 81.5995 4.20353C80.919 2.99556 79.7798 2.39047 78.1856 2.39047C77.0427 2.39047 76.0848 2.80577 75.312 3.63862C74.5371 4.47147 74.1286 5.52759 74.0816 6.80924H82.3051Z" fill="white"/>
    <path d="M89.4724 0.534998V2.65396C90.178 1.78092 90.9263 1.15349 91.7167 0.771681C92.5071 0.389864 93.3844 0.200073 94.3514 0.200073C96.4703 0.200073 97.9018 0.939142 98.6452 2.41728C99.0538 3.22556 99.2591 4.38217 99.2591 5.88932V15.466H96.7071V6.05678C96.7071 5.1458 96.5732 4.4112 96.3028 3.85522C95.8564 2.92636 95.0479 2.46194 93.8778 2.46194C93.2842 2.46194 92.7951 2.52222 92.4132 2.6428C91.7252 2.84821 91.1226 3.25682 90.5999 3.86862C90.1828 4.36208 89.9103 4.86893 89.785 5.39588C89.6602 5.92281 89.5978 6.67081 89.5978 7.6466V15.466H87.0879V0.534998H89.4724Z" fill="white"/>
  </g>
  <defs>
    <clipPath id="clip0_17630_243852">
      <rect width="99.2" height="16" fill="white" transform="translate(0.307617)"/>
    </clipPath>
  </defs>
</svg>
