<svg width="14" height="19" viewBox="0 0 14 19" fill="currentColor" xmlns="http://www.w3.org/2000/svg">
<path fill-rule="evenodd" clip-rule="evenodd" d="M6.46482 0.321664C6.68894 0.0789767 7.11274 0.0789767 7.33688 0.321664H7.33692C7.59817 0.604574 13.7287 7.29314 13.7287 11.7091C13.7287 15.4744 10.6657 18.5373 6.90049 18.5373C3.13526 18.5373 0.0722656 15.4742 0.0722656 11.7091C0.0722656 7.29295 6.20283 0.604441 6.46482 0.321664ZM7.06641 7.50006C7.61869 7.50006 8.06641 7.94778 8.06641 8.50006V10.5001H10.0664C10.6187 10.5001 11.0664 10.9478 11.0664 11.5001C11.0664 12.0523 10.6187 12.5001 10.0664 12.5001H8.06641V14.5001C8.06641 15.0523 7.61869 15.5001 7.06641 15.5001C6.51412 15.5001 6.06641 15.0523 6.06641 14.5001V12.5001H4.06641C3.51412 12.5001 3.06641 12.0523 3.06641 11.5001C3.06641 10.9478 3.51412 10.5001 4.06641 10.5001H6.06641V8.50006C6.06641 7.94778 6.51412 7.50006 7.06641 7.50006Z" fill="currentColor"/>
<path fill-rule="evenodd" clip-rule="evenodd" d="M6.46482 0.321664C6.68894 0.0789767 7.11274 0.0789767 7.33688 0.321664H7.33692C7.59817 0.604574 13.7287 7.29314 13.7287 11.7091C13.7287 15.4744 10.6657 18.5373 6.90049 18.5373C3.13526 18.5373 0.0722656 15.4742 0.0722656 11.7091C0.0722656 7.29295 6.20283 0.604441 6.46482 0.321664ZM7.06641 7.50006C7.61869 7.50006 8.06641 7.94778 8.06641 8.50006V10.5001H10.0664C10.6187 10.5001 11.0664 10.9478 11.0664 11.5001C11.0664 12.0523 10.6187 12.5001 10.0664 12.5001H8.06641V14.5001C8.06641 15.0523 7.61869 15.5001 7.06641 15.5001C6.51412 15.5001 6.06641 15.0523 6.06641 14.5001V12.5001H4.06641C3.51412 12.5001 3.06641 12.0523 3.06641 11.5001C3.06641 10.9478 3.51412 10.5001 4.06641 10.5001H6.06641V8.50006C6.06641 7.94778 6.51412 7.50006 7.06641 7.50006Z" fill="currentColor"/>
</svg>
