<svg width="15" height="16" viewBox="0 0 15 16" fill="none" xmlns="http://www.w3.org/2000/svg">
<path d="M14 8.25C14 9.53558 13.6188 10.7923 12.9046 11.8612C12.1903 12.9301 11.1752 13.7632 9.98744 14.2552C8.79972 14.7472 7.49279 14.8759 6.23191 14.6251C4.97104 14.3743 3.81285 13.7552 2.90381 12.8462C1.99476 11.9372 1.3757 10.779 1.1249 9.51809C0.874092 8.25721 1.00281 6.95028 1.49478 5.76256C1.98675 4.57484 2.81987 3.55968 3.88879 2.84545C4.95771 2.13122 6.21442 1.75 7.5 1.75V8.25H14Z" fill="currentColor"/>
<path d="M8.43456 2.46631C9.06257 2.46631 9.68444 2.59 10.2646 2.83033C10.8448 3.07066 11.372 3.42292 11.8161 3.86699C12.2602 4.31106 12.6124 4.83825 12.8528 5.41845C13.0931 5.99866 13.2168 6.62052 13.2168 7.24853L8.43456 7.24853V2.46631Z" fill="currentColor" fill-opacity="0.6"/>
</svg>
