<svg width="23" height="30" viewBox="0 0 23 30" fill="none" xmlns="http://www.w3.org/2000/svg">
<path d="M1.21191 0.700195C1.21191 0.424053 0.988056 0.200195 0.711914 0.200195C0.435772 0.200195 0.211914 0.424053 0.211914 0.700195H1.21191ZM17.3314 26.9863C17.3314 28.4591 18.5253 29.653 19.998 29.653C21.4708 29.653 22.6647 28.4591 22.6647 26.9863C22.6647 25.5136 21.4708 24.3197 19.998 24.3197C18.5253 24.3197 17.3314 25.5136 17.3314 26.9863ZM19.998 26.4863H12.7119V27.4863H19.998V26.4863ZM1.21191 14.986C1.21191 14.9774 1.21191 14.9688 1.21191 14.9603C1.21191 14.9517 1.21191 14.9431 1.21191 14.9345C1.21191 14.9259 1.21191 14.9173 1.21191 14.9087C1.21191 14.9002 1.21191 14.8916 1.21191 14.883C1.21191 14.8744 1.21191 14.8658 1.21191 14.8572C1.21191 14.8487 1.21191 14.8401 1.21191 14.8315C1.21191 14.8229 1.21191 14.8143 1.21191 14.8057C1.21191 14.7972 1.21191 14.7886 1.21191 14.78C1.21191 14.7714 1.21191 14.7628 1.21191 14.7543C1.21191 14.7457 1.21191 14.7371 1.21191 14.7285C1.21191 14.7199 1.21191 14.7114 1.21191 14.7028C1.21191 14.6942 1.21191 14.6856 1.21191 14.6771C1.21191 14.6685 1.21191 14.6599 1.21191 14.6513C1.21191 14.6427 1.21191 14.6342 1.21191 14.6256C1.21191 14.617 1.21191 14.6084 1.21191 14.5999C1.21191 14.5913 1.21191 14.5827 1.21191 14.5741C1.21191 14.5656 1.21191 14.557 1.21191 14.5484C1.21191 14.5398 1.21191 14.5313 1.21191 14.5227C1.21191 14.5141 1.21191 14.5055 1.21191 14.497C1.21191 14.4884 1.21191 14.4798 1.21191 14.4713C1.21191 14.4627 1.21191 14.4541 1.21191 14.4455C1.21191 14.437 1.21191 14.4284 1.21191 14.4198C1.21191 14.4112 1.21191 14.4027 1.21191 14.3941C1.21191 14.3855 1.21191 14.377 1.21191 14.3684C1.21191 14.3598 1.21191 14.3513 1.21191 14.3427C1.21191 14.3341 1.21191 14.3255 1.21191 14.317C1.21191 14.3084 1.21191 14.2998 1.21191 14.2913C1.21191 14.2827 1.21191 14.2741 1.21191 14.2656C1.21191 14.257 1.21191 14.2484 1.21191 14.2399C1.21191 14.2313 1.21191 14.2227 1.21191 14.2141C1.21191 14.2056 1.21191 14.197 1.21191 14.1884C1.21191 14.1799 1.21191 14.1713 1.21191 14.1627C1.21191 14.1542 1.21191 14.1456 1.21191 14.137C1.21191 14.1285 1.21191 14.1199 1.21191 14.1113C1.21191 14.1028 1.21191 14.0942 1.21191 14.0856C1.21191 14.0771 1.21191 14.0685 1.21191 14.0599C1.21191 14.0514 1.21191 14.0428 1.21191 14.0342C1.21191 14.0257 1.21191 14.0171 1.21191 14.0085C1.21191 14 1.21191 13.9914 1.21191 13.9828C1.21191 13.9743 1.21191 13.9657 1.21191 13.9571C1.21191 13.9486 1.21191 13.94 1.21191 13.9314C1.21191 13.9229 1.21191 13.9143 1.21191 13.9057C1.21191 13.8972 1.21191 13.8886 1.21191 13.88C1.21191 13.8715 1.21191 13.8629 1.21191 13.8543C1.21191 13.8458 1.21191 13.8372 1.21191 13.8286C1.21191 13.8201 1.21191 13.8115 1.21191 13.8029C1.21191 13.7944 1.21191 13.7858 1.21191 13.7772C1.21191 13.7687 1.21191 13.7601 1.21191 13.7515C1.21191 13.743 1.21191 13.7344 1.21191 13.7259C1.21191 13.7173 1.21191 13.7087 1.21191 13.7002C1.21191 13.6916 1.21191 13.683 1.21191 13.6745C1.21191 13.6659 1.21191 13.6573 1.21191 13.6488C1.21191 13.6402 1.21191 13.6316 1.21191 13.6231C1.21191 13.6145 1.21191 13.6059 1.21191 13.5974C1.21191 13.5888 1.21191 13.5802 1.21191 13.5717C1.21191 13.5631 1.21191 13.5545 1.21191 13.5459C1.21191 13.5374 1.21191 13.5288 1.21191 13.5202C1.21191 13.5117 1.21191 13.5031 1.21191 13.4945C1.21191 13.486 1.21191 13.4774 1.21191 13.4688C1.21191 13.4603 1.21191 13.4517 1.21191 13.4431C1.21191 13.4346 1.21191 13.426 1.21191 13.4174C1.21191 13.4089 1.21191 13.4003 1.21191 13.3917C1.21191 13.3831 1.21191 13.3746 1.21191 13.366C1.21191 13.3574 1.21191 13.3489 1.21191 13.3403C1.21191 13.3317 1.21191 13.3232 1.21191 13.3146C1.21191 13.306 1.21191 13.2974 1.21191 13.2889C1.21191 13.2803 1.21191 13.2717 1.21191 13.2632C1.21191 13.2546 1.21191 13.246 1.21191 13.2374C1.21191 13.2289 1.21191 13.2203 1.21191 13.2117C1.21191 13.2032 1.21191 13.1946 1.21191 13.186C1.21191 13.1774 1.21191 13.1689 1.21191 13.1603C1.21191 13.1517 1.21191 13.1431 1.21191 13.1346C1.21191 13.126 1.21191 13.1174 1.21191 13.1088C1.21191 13.1003 1.21191 13.0917 1.21191 13.0831C1.21191 13.0745 1.21191 13.066 1.21191 13.0574C1.21191 13.0488 1.21191 13.0402 1.21191 13.0317C1.21191 13.0231 1.21191 13.0145 1.21191 13.0059C1.21191 12.9973 1.21191 12.9888 1.21191 12.9802C1.21191 12.9716 1.21191 12.963 1.21191 12.9545C1.21191 12.9459 1.21191 12.9373 1.21191 12.9287C1.21191 12.9201 1.21191 12.9116 1.21191 12.903C1.21191 12.8944 1.21191 12.8858 1.21191 12.8772C1.21191 12.8687 1.21191 12.8601 1.21191 12.8515C1.21191 12.8429 1.21191 12.8343 1.21191 12.8257C1.21191 12.8172 1.21191 12.8086 1.21191 12.8C1.21191 12.7914 1.21191 12.7828 1.21191 12.7742C1.21191 12.7656 1.21191 12.7571 1.21191 12.7485C1.21191 12.7399 1.21191 12.7313 1.21191 12.7227C1.21191 12.7141 1.21191 12.7055 1.21191 12.697C1.21191 12.6884 1.21191 12.6798 1.21191 12.6712C1.21191 12.6626 1.21191 12.654 1.21191 12.6454C1.21191 12.6368 1.21191 12.6282 1.21191 12.6197C1.21191 12.6111 1.21191 12.6025 1.21191 12.5939C1.21191 12.5853 1.21191 12.5767 1.21191 12.5681C1.21191 12.5595 1.21191 12.5509 1.21191 12.5423C1.21191 12.5337 1.21191 12.5251 1.21191 12.5165C1.21191 12.5079 1.21191 12.4993 1.21191 12.4907C1.21191 12.4822 1.21191 12.4736 1.21191 12.465C1.21191 12.4564 1.21191 12.4478 1.21191 12.4392C1.21191 12.4306 1.21191 12.422 1.21191 12.4134C1.21191 12.4048 1.21191 12.3962 1.21191 12.3876C1.21191 12.379 1.21191 12.3704 1.21191 12.3618C1.21191 12.3532 1.21191 12.3445 1.21191 12.3359C1.21191 12.3273 1.21191 12.3187 1.21191 12.3101C1.21191 12.3015 1.21191 12.2929 1.21191 12.2843C1.21191 12.2757 1.21191 12.2671 1.21191 12.2585C1.21191 12.2499 1.21191 12.2413 1.21191 12.2327C1.21191 12.2241 1.21191 12.2154 1.21191 12.2068C1.21191 12.1982 1.21191 12.1896 1.21191 12.181C1.21191 12.1724 1.21191 12.1638 1.21191 12.1552C1.21191 12.1466 1.21191 12.1379 1.21191 12.1293C1.21191 12.1207 1.21191 12.1121 1.21191 12.1035C1.21191 12.0949 1.21191 12.0862 1.21191 12.0776C1.21191 12.069 1.21191 12.0604 1.21191 12.0518C1.21191 12.0431 1.21191 12.0345 1.21191 12.0259C1.21191 12.0173 1.21191 12.0087 1.21191 12C1.21191 11.9914 1.21191 11.9828 1.21191 11.9742C1.21191 11.9655 1.21191 11.9569 1.21191 11.9483C1.21191 11.9397 1.21191 11.931 1.21191 11.9224C1.21191 11.9138 1.21191 11.9052 1.21191 11.8965C1.21191 11.8879 1.21191 11.8793 1.21191 11.8706C1.21191 11.862 1.21191 11.8534 1.21191 11.8448C1.21191 11.8361 1.21191 11.8275 1.21191 11.8189C1.21191 11.8102 1.21191 11.8016 1.21191 11.7929C1.21191 11.7843 1.21191 11.7757 1.21191 11.767C1.21191 11.7584 1.21191 11.7498 1.21191 11.7411C1.21191 11.7325 1.21191 11.7238 1.21191 11.7152C1.21191 11.7066 1.21191 11.6979 1.21191 11.6893C1.21191 11.6806 1.21191 11.672 1.21191 11.6633C1.21191 11.6547 1.21191 11.6461 1.21191 11.6374C1.21191 11.6288 1.21191 11.6201 1.21191 11.6115C1.21191 11.6028 1.21191 11.5942 1.21191 11.5855C1.21191 11.5769 1.21191 11.5682 1.21191 11.5596C1.21191 11.5509 1.21191 11.5423 1.21191 11.5336C1.21191 11.5249 1.21191 11.5163 1.21191 11.5076C1.21191 11.499 1.21191 11.4903 1.21191 11.4817C1.21191 11.473 1.21191 11.4643 1.21191 11.4557C1.21191 11.447 1.21191 11.4384 1.21191 11.4297C1.21191 11.421 1.21191 11.4124 1.21191 11.4037C1.21191 11.395 1.21191 11.3864 1.21191 11.3777C1.21191 11.369 1.21191 11.3604 1.21191 11.3517C1.21191 11.343 1.21191 11.3344 1.21191 11.3257C1.21191 11.317 1.21191 11.3084 1.21191 11.2997C1.21191 11.291 1.21191 11.2823 1.21191 11.2737C1.21191 11.265 1.21191 11.2563 1.21191 11.2476C1.21191 11.2389 1.21191 11.2303 1.21191 11.2216C1.21191 11.2129 1.21191 11.2042 1.21191 11.1955C1.21191 11.1869 1.21191 11.1782 1.21191 11.1695C1.21191 11.1608 1.21191 11.1521 1.21191 11.1434C1.21191 11.1348 1.21191 11.1261 1.21191 11.1174C1.21191 11.1087 1.21191 11.1 1.21191 11.0913C1.21191 11.0826 1.21191 11.0739 1.21191 11.0652C1.21191 11.0565 1.21191 11.0478 1.21191 11.0391C1.21191 11.0305 1.21191 11.0218 1.21191 11.0131C1.21191 11.0044 1.21191 10.9957 1.21191 10.987C1.21191 10.9783 1.21191 10.9696 1.21191 10.9608C1.21191 10.9521 1.21191 10.9434 1.21191 10.9347C1.21191 10.926 1.21191 10.9173 1.21191 10.9086C1.21191 10.8999 1.21191 10.8912 1.21191 10.8825C1.21191 10.8738 1.21191 10.8651 1.21191 10.8564C1.21191 10.8476 1.21191 10.8389 1.21191 10.8302C1.21191 10.8215 1.21191 10.8128 1.21191 10.8041C1.21191 10.7953 1.21191 10.7866 1.21191 10.7779C1.21191 10.7692 1.21191 10.7605 1.21191 10.7517C1.21191 10.743 1.21191 10.7343 1.21191 10.7256C1.21191 10.7168 1.21191 10.7081 1.21191 10.6994C1.21191 10.6906 1.21191 10.6819 1.21191 10.6732C1.21191 10.6644 1.21191 10.6557 1.21191 10.647C1.21191 10.6382 1.21191 10.6295 1.21191 10.6208C1.21191 10.612 1.21191 10.6033 1.21191 10.5946C1.21191 10.5858 1.21191 10.5771 1.21191 10.5683C1.21191 10.5596 1.21191 10.5508 1.21191 10.5421C1.21191 10.5334 1.21191 10.5246 1.21191 10.5159C1.21191 10.5071 1.21191 10.4984 1.21191 10.4896C1.21191 10.4809 1.21191 10.4721 1.21191 10.4634C1.21191 10.4546 1.21191 10.4458 1.21191 10.4371C1.21191 10.4283 1.21191 10.4196 1.21191 10.4108C1.21191 10.4021 1.21191 10.3933 1.21191 10.3845C1.21191 10.3758 1.21191 10.367 1.21191 10.3582C1.21191 10.3495 1.21191 10.3407 1.21191 10.3319C1.21191 10.3232 1.21191 10.3144 1.21191 10.3056C1.21191 10.2969 1.21191 10.2881 1.21191 10.2793C1.21191 10.2705 1.21191 10.2618 1.21191 10.253C1.21191 10.2442 1.21191 10.2354 1.21191 10.2266C1.21191 10.2179 1.21191 10.2091 1.21191 10.2003C1.21191 10.1915 1.21191 10.1827 1.21191 10.1739C1.21191 10.1651 1.21191 10.1564 1.21191 10.1476C1.21191 10.1388 1.21191 10.13 1.21191 10.1212C1.21191 10.1124 1.21191 10.1036 1.21191 10.0948C1.21191 10.086 1.21191 10.0772 1.21191 10.0684C1.21191 10.0596 1.21191 10.0508 1.21191 10.042C1.21191 10.0332 1.21191 10.0244 1.21191 10.0156C1.21191 10.0068 1.21191 9.99798 1.21191 9.98917C1.21191 9.98036 1.21191 9.97155 1.21191 9.96274C1.21191 9.95393 1.21191 9.94511 1.21191 9.9363C1.21191 9.92748 1.21191 9.91866 1.21191 9.90984C1.21191 9.90102 1.21191 9.8922 1.21191 9.88338C1.21191 9.87456 1.21191 9.86573 1.21191 9.85691C1.21191 9.84808 1.21191 9.83925 1.21191 9.83042C1.21191 9.82159 1.21191 9.81276 1.21191 9.80393C1.21191 9.7951 1.21191 9.78626 1.21191 9.77743C1.21191 9.76859 1.21191 9.75975 1.21191 9.75091C1.21191 9.74207 1.21191 9.73323 1.21191 9.72439C1.21191 9.71554 1.21191 9.7067 1.21191 9.69785C1.21191 9.689 1.21191 9.68016 1.21191 9.67131C1.21191 9.66245 1.21191 9.6536 1.21191 9.64475C1.21191 9.63589 1.21191 9.62704 1.21191 9.61818C1.21191 9.60932 1.21191 9.60046 1.21191 9.5916C1.21191 9.58274 1.21191 9.57388 1.21191 9.56501C1.21191 9.55615 1.21191 9.54728 1.21191 9.53841C1.21191 9.52955 1.21191 9.52068 1.21191 9.5118C1.21191 9.50293 1.21191 9.49406 1.21191 9.48518C1.21191 9.47631 1.21191 9.46743 1.21191 9.45855C1.21191 9.44967 1.21191 9.44079 1.21191 9.43191C1.21191 9.42302 1.21191 9.41414 1.21191 9.40525C1.21191 9.39637 1.21191 9.38748 1.21191 9.37859C1.21191 9.36969 1.21191 9.3608 1.21191 9.35191C1.21191 9.34301 1.21191 9.33412 1.21191 9.32522C1.21191 9.31632 1.21191 9.30742 1.21191 9.29852C1.21191 9.28962 1.21191 9.28071 1.21191 9.27181C1.21191 9.2629 1.21191 9.25399 1.21191 9.24508C1.21191 9.23617 1.21191 9.22726 1.21191 9.21835C1.21191 9.20943 1.21191 9.20052 1.21191 9.1916C1.21191 9.18268 1.21191 9.17376 1.21191 9.16484C1.21191 9.15592 1.21191 9.14699 1.21191 9.13807C1.21191 9.12914 1.21191 9.12022 1.21191 9.11129C1.21191 9.10236 1.21191 9.09343 1.21191 9.08449C1.21191 9.07556 1.21191 9.06662 1.21191 9.05768C1.21191 9.04875 1.21191 9.03981 1.21191 9.03087C1.21191 9.02192 1.21191 9.01298 1.21191 9.00403C1.21191 8.99509 1.21191 8.98614 1.21191 8.97719C1.21191 8.96824 1.21191 8.95929 1.21191 8.95033C1.21191 8.94138 1.21191 8.93242 1.21191 8.92347C1.21191 8.91451 1.21191 8.90555 1.21191 8.89659C1.21191 8.88762 1.21191 8.87866 1.21191 8.86969C1.21191 8.86073 1.21191 8.85176 1.21191 8.84279C1.21191 8.83382 1.21191 8.82484 1.21191 8.81587C1.21191 8.80689 1.21191 8.79792 1.21191 8.78894C1.21191 8.77996 1.21191 8.77098 1.21191 8.76199C1.21191 8.75301 1.21191 8.74402 1.21191 8.73503C1.21191 8.72605 1.21191 8.71706 1.21191 8.70807C1.21191 8.69907 1.21191 8.69008 1.21191 8.68108C1.21191 8.67208 1.21191 8.66309 1.21191 8.65409C1.21191 8.64508 1.21191 8.63608 1.21191 8.62708C1.21191 8.61807 1.21191 8.60906 1.21191 8.60005C1.21191 8.59104 1.21191 8.58203 1.21191 8.57302C1.21191 8.564 1.21191 8.55499 1.21191 8.54597C1.21191 8.53695 1.21191 8.52793 1.21191 8.51891C1.21191 8.50988 1.21191 8.50086 1.21191 8.49183C1.21191 8.4828 1.21191 8.47377 1.21191 8.46474C1.21191 8.45571 1.21191 8.44667 1.21191 8.43764C1.21191 8.4286 1.21191 8.41956 1.21191 8.41052C1.21191 8.40148 1.21191 8.39244 1.21191 8.38339C1.21191 8.37434 1.21191 8.3653 1.21191 8.35625C1.21191 8.3472 1.21191 8.33814 1.21191 8.32909C1.21191 8.32003 1.21191 8.31098 1.21191 8.30192C1.21191 8.29286 1.21191 8.28379 1.21191 8.27473C1.21191 8.26567 1.21191 8.2566 1.21191 8.24753C1.21191 8.23846 1.21191 8.22939 1.21191 8.22031C1.21191 8.21124 1.21191 8.20216 1.21191 8.19309C1.21191 8.18401 1.21191 8.17493 1.21191 8.16584C1.21191 8.15676 1.21191 8.14767 1.21191 8.13859C1.21191 8.1295 1.21191 8.12041 1.21191 8.11131C1.21191 8.10222 1.21191 8.09313 1.21191 8.08403C1.21191 8.07493 1.21191 8.06583 1.21191 8.05673C1.21191 8.04763 1.21191 8.03852 1.21191 8.02941C1.21191 8.02031 1.21191 8.0112 1.21191 8.00208C1.21191 7.99297 1.21191 7.98386 1.21191 7.97474C1.21191 7.96562 1.21191 7.9565 1.21191 7.94738C1.21191 7.93826 1.21191 7.92913 1.21191 7.92001C1.21191 7.91088 1.21191 7.90175 1.21191 7.89262C1.21191 7.88348 1.21191 7.87435 1.21191 7.86521C1.21191 7.85607 1.21191 7.84694 1.21191 7.83779C1.21191 7.82865 1.21191 7.81951 1.21191 7.81036C1.21191 7.80121 1.21191 7.79206 1.21191 7.78291C1.21191 7.77376 1.21191 7.7646 1.21191 7.75544C1.21191 7.74629 1.21191 7.73713 1.21191 7.72796C1.21191 7.7188 1.21191 7.70964 1.21191 7.70047C1.21191 7.6913 1.21191 7.68213 1.21191 7.67296C1.21191 7.66378 1.21191 7.65461 1.21191 7.64543C1.21191 7.63625 1.21191 7.62707 1.21191 7.61789C1.21191 7.60871 1.21191 7.59952 1.21191 7.59033C1.21191 7.58114 1.21191 7.57195 1.21191 7.56276C1.21191 7.55356 1.21191 7.54437 1.21191 7.53517C1.21191 7.52597 1.21191 7.51677 1.21191 7.50756C1.21191 7.49836 1.21191 7.48915 1.21191 7.47994C1.21191 7.47073 1.21191 7.46152 1.21191 7.45231C1.21191 7.44309 1.21191 7.43387 1.21191 7.42465C1.21191 7.41543 1.21191 7.40621 1.21191 7.39698C1.21191 7.38776 1.21191 7.37853 1.21191 7.3693C1.21191 7.36007 1.21191 7.35083 1.21191 7.3416C1.21191 7.33236 1.21191 7.32312 1.21191 7.31388C1.21191 7.30464 1.21191 7.29539 1.21191 7.28614C1.21191 7.2769 1.21191 7.26765 1.21191 7.25839C1.21191 7.24914 1.21191 7.23989 1.21191 7.23063C1.21191 7.22137 1.21191 7.21211 1.21191 7.20284C1.21191 7.19358 1.21191 7.18431 1.21191 7.17504C1.21191 7.16577 1.21191 7.1565 1.21191 7.14723C1.21191 7.13795 1.21191 7.12867 1.21191 7.11939C1.21191 7.11011 1.21191 7.10083 1.21191 7.09154C1.21191 7.08225 1.21191 7.07296 1.21191 7.06367C1.21191 7.05438 1.21191 7.04509 1.21191 7.03579C1.21191 7.02649 1.21191 7.01719 1.21191 7.00789C1.21191 6.99858 1.21191 6.98928 1.21191 6.97997C1.21191 6.97066 1.21191 6.96135 1.21191 6.95203C1.21191 6.94272 1.21191 6.9334 1.21191 6.92408C1.21191 6.91476 1.21191 6.90543 1.21191 6.89611C1.21191 6.88678 1.21191 6.87745 1.21191 6.86812C1.21191 6.85879 1.21191 6.84945 1.21191 6.84011C1.21191 6.83078 1.21191 6.82143 1.21191 6.81209C1.21191 6.80275 1.21191 6.7934 1.21191 6.78405C1.21191 6.7747 1.21191 6.76535 1.21191 6.75599C1.21191 6.74664 1.21191 6.73728 1.21191 6.72792C1.21191 6.71855 1.21191 6.70919 1.21191 6.69982C1.21191 6.69046 1.21191 6.68109 1.21191 6.67171C1.21191 6.66234 1.21191 6.65296 1.21191 6.64358C1.21191 6.6342 1.21191 6.62482 1.21191 6.61543C1.21191 6.60605 1.21191 6.59666 1.21191 6.58727C1.21191 6.57788 1.21191 6.56848 1.21191 6.55909C1.21191 6.54969 1.21191 6.54029 1.21191 6.53088C1.21191 6.52148 1.21191 6.51207 1.21191 6.50266C1.21191 6.49325 1.21191 6.48384 1.21191 6.47443C1.21191 6.46501 1.21191 6.45559 1.21191 6.44617C1.21191 6.43675 1.21191 6.42732 1.21191 6.41789C1.21191 6.40847 1.21191 6.39903 1.21191 6.3896C1.21191 6.38017 1.21191 6.37073 1.21191 6.36129C1.21191 6.35185 1.21191 6.3424 1.21191 6.33296C1.21191 6.32351 1.21191 6.31406 1.21191 6.30461C1.21191 6.29516 1.21191 6.2857 1.21191 6.27624C1.21191 6.26678 1.21191 6.25732 1.21191 6.24785C1.21191 6.23839 1.21191 6.22892 1.21191 6.21945C1.21191 6.20998 1.21191 6.2005 1.21191 6.19102C1.21191 6.18154 1.21191 6.17206 1.21191 6.16258C1.21191 6.15309 1.21191 6.14361 1.21191 6.13412C1.21191 6.12462 1.21191 6.11513 1.21191 6.10563C1.21191 6.09614 1.21191 6.08664 1.21191 6.07713C1.21191 6.06763 1.21191 6.05812 1.21191 6.04861C1.21191 6.0391 1.21191 6.02959 1.21191 6.02007C1.21191 6.01055 1.21191 6.00103 1.21191 5.99151C1.21191 5.98199 1.21191 5.97246 1.21191 5.96293C1.21191 5.9534 1.21191 5.94387 1.21191 5.93433C1.21191 5.9248 1.21191 5.91526 1.21191 5.90572C1.21191 5.89617 1.21191 5.88663 1.21191 5.87708C1.21191 5.86753 1.21191 5.85798 1.21191 5.84842C1.21191 5.83886 1.21191 5.82931 1.21191 5.81974C1.21191 5.81018 1.21191 5.80061 1.21191 5.79105C1.21191 5.78148 1.21191 5.7719 1.21191 5.76233C1.21191 5.75275 1.21191 5.74317 1.21191 5.73359C1.21191 5.72401 1.21191 5.71442 1.21191 5.70483C1.21191 5.69524 1.21191 5.68565 1.21191 5.67606C1.21191 5.66646 1.21191 5.65686 1.21191 5.64726C1.21191 5.63766 1.21191 5.62805 1.21191 5.61844C1.21191 5.60883 1.21191 5.59922 1.21191 5.5896C1.21191 5.57999 1.21191 5.57037 1.21191 5.56074C1.21191 5.55112 1.21191 5.54149 1.21191 5.53186C1.21191 5.52223 1.21191 5.5126 1.21191 5.50296C1.21191 5.49333 1.21191 5.48369 1.21191 5.47404C1.21191 5.4644 1.21191 5.45475 1.21191 5.4451C1.21191 5.43545 1.21191 5.4258 1.21191 5.41614C1.21191 5.40648 1.21191 5.39682 1.21191 5.38716C1.21191 5.37749 1.21191 5.36783 1.21191 5.35815C1.21191 5.34848 1.21191 5.33881 1.21191 5.32913C1.21191 5.31945 1.21191 5.30977 1.21191 5.30008C1.21191 5.2904 1.21191 5.28071 1.21191 5.27102C1.21191 5.26132 1.21191 5.25163 1.21191 5.24193C1.21191 5.23223 1.21191 5.22253 1.21191 5.21282C1.21191 5.20311 1.21191 5.1934 1.21191 5.18369C1.21191 5.17398 1.21191 5.16426 1.21191 5.15454C1.21191 5.14482 1.21191 5.13509 1.21191 5.12536C1.21191 5.11564 1.21191 5.10591 1.21191 5.09617C1.21191 5.08643 1.21191 5.0767 1.21191 5.06695C1.21191 5.05721 1.21191 5.04747 1.21191 5.03772C1.21191 5.02797 1.21191 5.01821 1.21191 5.00846C1.21191 4.9987 1.21191 4.98894 1.21191 4.97918C1.21191 4.96941 1.21191 4.95964 1.21191 4.94987C1.21191 4.9401 1.21191 4.93033 1.21191 4.92055C1.21191 4.91077 1.21191 4.90099 1.21191 4.8912C1.21191 4.88141 1.21191 4.87162 1.21191 4.86183C1.21191 4.85204 1.21191 4.84224 1.21191 4.83244C1.21191 4.82264 1.21191 4.81284 1.21191 4.80303C1.21191 4.79322 1.21191 4.78341 1.21191 4.77359C1.21191 4.76378 1.21191 4.75396 1.21191 4.74413C1.21191 4.73431 1.21191 4.72449 1.21191 4.71465C1.21191 4.70482 1.21191 4.69499 1.21191 4.68515C1.21191 4.67531 1.21191 4.66547 1.21191 4.65563C1.21191 4.64578 1.21191 4.63593 1.21191 4.62608C1.21191 4.61623 1.21191 4.60637 1.21191 4.59651C1.21191 4.58665 1.21191 4.57679 1.21191 4.56692C1.21191 4.55705 1.21191 4.54718 1.21191 4.5373C1.21191 4.52743 1.21191 4.51755 1.21191 4.50766C1.21191 4.49778 1.21191 4.48789 1.21191 4.478C1.21191 4.46811 1.21191 4.45822 1.21191 4.44832C1.21191 4.43842 1.21191 4.42852 1.21191 4.41861C1.21191 4.40871 1.21191 4.3988 1.21191 4.38888C1.21191 4.37897 1.21191 4.36905 1.21191 4.35913C1.21191 4.34921 1.21191 4.33928 1.21191 4.32935C1.21191 4.31942 1.21191 4.30949 1.21191 4.29955C1.21191 4.28962 1.21191 4.27968 1.21191 4.26973C1.21191 4.25979 1.21191 4.24984 1.21191 4.23988C1.21191 4.22993 1.21191 4.21998 1.21191 4.21002C1.21191 4.20005 1.21191 4.19009 1.21191 4.18012C1.21191 4.17015 1.21191 4.16018 1.21191 4.1502C1.21191 4.14023 1.21191 4.13025 1.21191 4.12026C1.21191 4.11028 1.21191 4.10029 1.21191 4.0903C1.21191 4.08031 1.21191 4.07031 1.21191 4.06031C1.21191 4.05031 1.21191 4.04031 1.21191 4.0303C1.21191 4.02029 1.21191 4.01028 1.21191 4.00026C1.21191 3.99025 1.21191 3.98023 1.21191 3.9702C1.21191 3.96018 1.21191 3.95015 1.21191 3.94012C1.21191 3.93009 1.21191 3.92005 1.21191 3.91001C1.21191 3.89997 1.21191 3.88993 1.21191 3.87988C1.21191 3.86983 1.21191 3.85978 1.21191 3.84972C1.21191 3.83967 1.21191 3.82961 1.21191 3.81954C1.21191 3.80948 1.21191 3.79941 1.21191 3.78934C1.21191 3.77926 1.21191 3.76919 1.21191 3.75911C1.21191 3.74903 1.21191 3.73894 1.21191 3.72885C1.21191 3.71876 1.21191 3.70867 1.21191 3.69857C1.21191 3.68848 1.21191 3.67838 1.21191 3.66827C1.21191 3.65817 1.21191 3.64806 1.21191 3.63794C1.21191 3.62783 1.21191 3.61771 1.21191 3.60759C1.21191 3.59747 1.21191 3.58734 1.21191 3.57721C1.21191 3.56708 1.21191 3.55695 1.21191 3.54681C1.21191 3.53667 1.21191 3.52653 1.21191 3.51638C1.21191 3.50623 1.21191 3.49608 1.21191 3.48593C1.21191 3.47577 1.21191 3.46561 1.21191 3.45545C1.21191 3.44529 1.21191 3.43512 1.21191 3.42495C1.21191 3.41478 1.21191 3.4046 1.21191 3.39442C1.21191 3.38424 1.21191 3.37405 1.21191 3.36387C1.21191 3.35368 1.21191 3.34348 1.21191 3.33329C1.21191 3.32309 1.21191 3.31289 1.21191 3.30268C1.21191 3.29248 1.21191 3.28227 1.21191 3.27205C1.21191 3.26184 1.21191 3.25162 1.21191 3.2414C1.21191 3.23117 1.21191 3.22095 1.21191 3.21071C1.21191 3.20048 1.21191 3.19025 1.21191 3.18001C1.21191 3.16977 1.21191 3.15952 1.21191 3.14928C1.21191 3.13903 1.21191 3.12877 1.21191 3.11852C1.21191 3.10826 1.21191 3.098 1.21191 3.08773C1.21191 3.07747 1.21191 3.0672 1.21191 3.05692C1.21191 3.04665 1.21191 3.03637 1.21191 3.02608C1.21191 3.0158 1.21191 3.00551 1.21191 2.99522C1.21191 2.98493 1.21191 2.97463 1.21191 2.96433C1.21191 2.95403 1.21191 2.94373 1.21191 2.93342C1.21191 2.92311 1.21191 2.9128 1.21191 2.90248C1.21191 2.89216 1.21191 2.88184 1.21191 2.87151C1.21191 2.86118 1.21191 2.85085 1.21191 2.84051C1.21191 2.83018 1.21191 2.81984 1.21191 2.80949C1.21191 2.79915 1.21191 2.7888 1.21191 2.77845C1.21191 2.76809 1.21191 2.75774 1.21191 2.74737C1.21191 2.73701 1.21191 2.72664 1.21191 2.71627C1.21191 2.7059 1.21191 2.69552 1.21191 2.68514C1.21191 2.67476 1.21191 2.66438 1.21191 2.65399C1.21191 2.6436 1.21191 2.63321 1.21191 2.62281C1.21191 2.61241 1.21191 2.60201 1.21191 2.5916C1.21191 2.58119 1.21191 2.57078 1.21191 2.56037C1.21191 2.54995 1.21191 2.53953 1.21191 2.5291C1.21191 2.51868 1.21191 2.50825 1.21191 2.49781C1.21191 2.48738 1.21191 2.47694 1.21191 2.4665C1.21191 2.45605 1.21191 2.44561 1.21191 2.43515C1.21191 2.4247 1.21191 2.41424 1.21191 2.40378C1.21191 2.39332 1.21191 2.38285 1.21191 2.37238C1.21191 2.36191 1.21191 2.35144 1.21191 2.34096C1.21191 2.33048 1.21191 2.31999 1.21191 2.3095C1.21191 2.29901 1.21191 2.28852 1.21191 2.27802C1.21191 2.26752 1.21191 2.25702 1.21191 2.24651C1.21191 2.236 1.21191 2.22549 1.21191 2.21498C1.21191 2.20446 1.21191 2.19394 1.21191 2.18341C1.21191 2.17288 1.21191 2.16235 1.21191 2.15182C1.21191 2.14128 1.21191 2.13074 1.21191 2.1202C1.21191 2.10965 1.21191 2.0991 1.21191 2.08855C1.21191 2.07799 1.21191 2.06743 1.21191 2.05687C1.21191 2.04631 1.21191 2.03574 1.21191 2.02517C1.21191 2.01459 1.21191 2.00402 1.21191 1.99343C1.21191 1.98285 1.21191 1.97226 1.21191 1.96167C1.21191 1.95108 1.21191 1.94048 1.21191 1.92988C1.21191 1.91928 1.21191 1.90867 1.21191 1.89806C1.21191 1.88745 1.21191 1.87684 1.21191 1.86622C1.21191 1.8556 1.21191 1.84497 1.21191 1.83434C1.21191 1.82371 1.21191 1.81308 1.21191 1.80244C1.21191 1.7918 1.21191 1.78115 1.21191 1.7705C1.21191 1.75986 1.21191 1.7492 1.21191 1.73854C1.21191 1.72788 1.21191 1.71722 1.21191 1.70655C1.21191 1.69588 1.21191 1.68521 1.21191 1.67453C1.21191 1.66386 1.21191 1.65317 1.21191 1.64249C1.21191 1.6318 1.21191 1.62111 1.21191 1.61041C1.21191 1.59971 1.21191 1.58901 1.21191 1.5783C1.21191 1.5676 1.21191 1.55688 1.21191 1.54617C1.21191 1.53545 1.21191 1.52473 1.21191 1.514C1.21191 1.50328 1.21191 1.49254 1.21191 1.48181C1.21191 1.47107 1.21191 1.46033 1.21191 1.44958C1.21191 1.43884 1.21191 1.42809 1.21191 1.41733C1.21191 1.40658 1.21191 1.39582 1.21191 1.38505C1.21191 1.37428 1.21191 1.36351 1.21191 1.35274C1.21191 1.34196 1.21191 1.33118 1.21191 1.3204C1.21191 1.30961 1.21191 1.29882 1.21191 1.28803C1.21191 1.27723 1.21191 1.26643 1.21191 1.25563C1.21191 1.24482 1.21191 1.23401 1.21191 1.22319C1.21191 1.21238 1.21191 1.20156 1.21191 1.19073C1.21191 1.17991 1.21191 1.16908 1.21191 1.15824C1.21191 1.14741 1.21191 1.13657 1.21191 1.12572C1.21191 1.11488 1.21191 1.10403 1.21191 1.09317C1.21191 1.08232 1.21191 1.07146 1.21191 1.06059C1.21191 1.04973 1.21191 1.03886 1.21191 1.02798C1.21191 1.01711 1.21191 1.00623 1.21191 0.99534C1.21191 0.984454 1.21191 0.973564 1.21191 0.962668C1.21191 0.951773 1.21191 0.940872 1.21191 0.929966C1.21191 0.91906 1.21191 0.90815 1.21191 0.897234C1.21191 0.886318 1.21191 0.875397 1.21191 0.864471C1.21191 0.853545 1.21191 0.842613 1.21191 0.831677C1.21191 0.820741 1.21191 0.809799 1.21191 0.798853C1.21191 0.787906 1.21191 0.776955 1.21191 0.765998C1.21191 0.755041 1.21191 0.744079 1.21191 0.733112C1.21191 0.722145 1.21191 0.711173 1.21191 0.700195H0.211914C0.211914 0.711173 0.211914 0.722145 0.211914 0.733112C0.211914 0.744079 0.211914 0.755041 0.211914 0.765998C0.211914 0.776955 0.211914 0.787906 0.211914 0.798853C0.211914 0.809799 0.211914 0.820741 0.211914 0.831677C0.211914 0.842613 0.211914 0.853545 0.211914 0.864471C0.211914 0.875397 0.211914 0.886318 0.211914 0.897234C0.211914 0.90815 0.211914 0.91906 0.211914 0.929966C0.211914 0.940872 0.211914 0.951773 0.211914 0.962668C0.211914 0.973564 0.211914 0.984454 0.211914 0.99534C0.211914 1.00623 0.211914 1.01711 0.211914 1.02798C0.211914 1.03886 0.211914 1.04973 0.211914 1.06059C0.211914 1.07146 0.211914 1.08232 0.211914 1.09317C0.211914 1.10403 0.211914 1.11488 0.211914 1.12572C0.211914 1.13657 0.211914 1.14741 0.211914 1.15824C0.211914 1.16908 0.211914 1.17991 0.211914 1.19073C0.211914 1.20156 0.211914 1.21238 0.211914 1.22319C0.211914 1.23401 0.211914 1.24482 0.211914 1.25563C0.211914 1.26643 0.211914 1.27723 0.211914 1.28803C0.211914 1.29882 0.211914 1.30961 0.211914 1.3204C0.211914 1.33118 0.211914 1.34196 0.211914 1.35274C0.211914 1.36351 0.211914 1.37428 0.211914 1.38505C0.211914 1.39582 0.211914 1.40658 0.211914 1.41733C0.211914 1.42809 0.211914 1.43884 0.211914 1.44958C0.211914 1.46033 0.211914 1.47107 0.211914 1.48181C0.211914 1.49254 0.211914 1.50328 0.211914 1.514C0.211914 1.52473 0.211914 1.53545 0.211914 1.54617C0.211914 1.55688 0.211914 1.5676 0.211914 1.5783C0.211914 1.58901 0.211914 1.59971 0.211914 1.61041C0.211914 1.62111 0.211914 1.6318 0.211914 1.64249C0.211914 1.65317 0.211914 1.66386 0.211914 1.67453C0.211914 1.68521 0.211914 1.69588 0.211914 1.70655C0.211914 1.71722 0.211914 1.72788 0.211914 1.73854C0.211914 1.7492 0.211914 1.75986 0.211914 1.7705C0.211914 1.78115 0.211914 1.7918 0.211914 1.80244C0.211914 1.81308 0.211914 1.82371 0.211914 1.83434C0.211914 1.84497 0.211914 1.8556 0.211914 1.86622C0.211914 1.87684 0.211914 1.88745 0.211914 1.89806C0.211914 1.90867 0.211914 1.91928 0.211914 1.92988C0.211914 1.94048 0.211914 1.95108 0.211914 1.96167C0.211914 1.97226 0.211914 1.98285 0.211914 1.99343C0.211914 2.00402 0.211914 2.01459 0.211914 2.02517C0.211914 2.03574 0.211914 2.04631 0.211914 2.05687C0.211914 2.06743 0.211914 2.07799 0.211914 2.08855C0.211914 2.0991 0.211914 2.10965 0.211914 2.1202C0.211914 2.13074 0.211914 2.14128 0.211914 2.15182C0.211914 2.16235 0.211914 2.17288 0.211914 2.18341C0.211914 2.19394 0.211914 2.20446 0.211914 2.21498C0.211914 2.22549 0.211914 2.236 0.211914 2.24651C0.211914 2.25702 0.211914 2.26752 0.211914 2.27802C0.211914 2.28852 0.211914 2.29901 0.211914 2.3095C0.211914 2.31999 0.211914 2.33048 0.211914 2.34096C0.211914 2.35144 0.211914 2.36191 0.211914 2.37238C0.211914 2.38285 0.211914 2.39332 0.211914 2.40378C0.211914 2.41424 0.211914 2.4247 0.211914 2.43515C0.211914 2.44561 0.211914 2.45605 0.211914 2.4665C0.211914 2.47694 0.211914 2.48738 0.211914 2.49781C0.211914 2.50825 0.211914 2.51868 0.211914 2.5291C0.211914 2.53953 0.211914 2.54995 0.211914 2.56037C0.211914 2.57078 0.211914 2.58119 0.211914 2.5916C0.211914 2.60201 0.211914 2.61241 0.211914 2.62281C0.211914 2.63321 0.211914 2.6436 0.211914 2.65399C0.211914 2.66438 0.211914 2.67476 0.211914 2.68514C0.211914 2.69552 0.211914 2.7059 0.211914 2.71627C0.211914 2.72664 0.211914 2.73701 0.211914 2.74737C0.211914 2.75774 0.211914 2.76809 0.211914 2.77845C0.211914 2.7888 0.211914 2.79915 0.211914 2.80949C0.211914 2.81984 0.211914 2.83018 0.211914 2.84051C0.211914 2.85085 0.211914 2.86118 0.211914 2.87151C0.211914 2.88184 0.211914 2.89216 0.211914 2.90248C0.211914 2.9128 0.211914 2.92311 0.211914 2.93342C0.211914 2.94373 0.211914 2.95403 0.211914 2.96433C0.211914 2.97463 0.211914 2.98493 0.211914 2.99522C0.211914 3.00551 0.211914 3.0158 0.211914 3.02608C0.211914 3.03637 0.211914 3.04665 0.211914 3.05692C0.211914 3.0672 0.211914 3.07747 0.211914 3.08773C0.211914 3.098 0.211914 3.10826 0.211914 3.11852C0.211914 3.12877 0.211914 3.13903 0.211914 3.14928C0.211914 3.15952 0.211914 3.16977 0.211914 3.18001C0.211914 3.19025 0.211914 3.20048 0.211914 3.21071C0.211914 3.22095 0.211914 3.23117 0.211914 3.2414C0.211914 3.25162 0.211914 3.26184 0.211914 3.27205C0.211914 3.28227 0.211914 3.29248 0.211914 3.30268C0.211914 3.31289 0.211914 3.32309 0.211914 3.33329C0.211914 3.34348 0.211914 3.35368 0.211914 3.36387C0.211914 3.37405 0.211914 3.38424 0.211914 3.39442C0.211914 3.4046 0.211914 3.41478 0.211914 3.42495C0.211914 3.43512 0.211914 3.44529 0.211914 3.45545C0.211914 3.46561 0.211914 3.47577 0.211914 3.48593C0.211914 3.49608 0.211914 3.50623 0.211914 3.51638C0.211914 3.52653 0.211914 3.53667 0.211914 3.54681C0.211914 3.55695 0.211914 3.56708 0.211914 3.57721C0.211914 3.58734 0.211914 3.59747 0.211914 3.60759C0.211914 3.61771 0.211914 3.62783 0.211914 3.63794C0.211914 3.64806 0.211914 3.65817 0.211914 3.66827C0.211914 3.67838 0.211914 3.68848 0.211914 3.69857C0.211914 3.70867 0.211914 3.71876 0.211914 3.72885C0.211914 3.73894 0.211914 3.74903 0.211914 3.75911C0.211914 3.76919 0.211914 3.77926 0.211914 3.78934C0.211914 3.79941 0.211914 3.80948 0.211914 3.81954C0.211914 3.82961 0.211914 3.83967 0.211914 3.84972C0.211914 3.85978 0.211914 3.86983 0.211914 3.87988C0.211914 3.88993 0.211914 3.89997 0.211914 3.91001C0.211914 3.92005 0.211914 3.93009 0.211914 3.94012C0.211914 3.95015 0.211914 3.96018 0.211914 3.9702C0.211914 3.98023 0.211914 3.99025 0.211914 4.00026C0.211914 4.01028 0.211914 4.02029 0.211914 4.0303C0.211914 4.04031 0.211914 4.05031 0.211914 4.06031C0.211914 4.07031 0.211914 4.08031 0.211914 4.0903C0.211914 4.10029 0.211914 4.11028 0.211914 4.12026C0.211914 4.13025 0.211914 4.14023 0.211914 4.1502C0.211914 4.16018 0.211914 4.17015 0.211914 4.18012C0.211914 4.19009 0.211914 4.20005 0.211914 4.21002C0.211914 4.21998 0.211914 4.22993 0.211914 4.23988C0.211914 4.24984 0.211914 4.25979 0.211914 4.26973C0.211914 4.27968 0.211914 4.28962 0.211914 4.29955C0.211914 4.30949 0.211914 4.31942 0.211914 4.32935C0.211914 4.33928 0.211914 4.34921 0.211914 4.35913C0.211914 4.36905 0.211914 4.37897 0.211914 4.38888C0.211914 4.3988 0.211914 4.40871 0.211914 4.41861C0.211914 4.42852 0.211914 4.43842 0.211914 4.44832C0.211914 4.45822 0.211914 4.46811 0.211914 4.478C0.211914 4.48789 0.211914 4.49778 0.211914 4.50766C0.211914 4.51755 0.211914 4.52743 0.211914 4.5373C0.211914 4.54718 0.211914 4.55705 0.211914 4.56692C0.211914 4.57679 0.211914 4.58665 0.211914 4.59651C0.211914 4.60637 0.211914 4.61623 0.211914 4.62608C0.211914 4.63593 0.211914 4.64578 0.211914 4.65563C0.211914 4.66547 0.211914 4.67531 0.211914 4.68515C0.211914 4.69499 0.211914 4.70482 0.211914 4.71465C0.211914 4.72449 0.211914 4.73431 0.211914 4.74413C0.211914 4.75396 0.211914 4.76378 0.211914 4.77359C0.211914 4.78341 0.211914 4.79322 0.211914 4.80303C0.211914 4.81284 0.211914 4.82264 0.211914 4.83244C0.211914 4.84224 0.211914 4.85204 0.211914 4.86183C0.211914 4.87162 0.211914 4.88141 0.211914 4.8912C0.211914 4.90099 0.211914 4.91077 0.211914 4.92055C0.211914 4.93033 0.211914 4.9401 0.211914 4.94987C0.211914 4.95964 0.211914 4.96941 0.211914 4.97918C0.211914 4.98894 0.211914 4.9987 0.211914 5.00846C0.211914 5.01821 0.211914 5.02797 0.211914 5.03772C0.211914 5.04747 0.211914 5.05721 0.211914 5.06695C0.211914 5.0767 0.211914 5.08643 0.211914 5.09617C0.211914 5.10591 0.211914 5.11564 0.211914 5.12536C0.211914 5.13509 0.211914 5.14482 0.211914 5.15454C0.211914 5.16426 0.211914 5.17398 0.211914 5.18369C0.211914 5.1934 0.211914 5.20311 0.211914 5.21282C0.211914 5.22253 0.211914 5.23223 0.211914 5.24193C0.211914 5.25163 0.211914 5.26132 0.211914 5.27102C0.211914 5.28071 0.211914 5.2904 0.211914 5.30008C0.211914 5.30977 0.211914 5.31945 0.211914 5.32913C0.211914 5.33881 0.211914 5.34848 0.211914 5.35815C0.211914 5.36783 0.211914 5.37749 0.211914 5.38716C0.211914 5.39682 0.211914 5.40648 0.211914 5.41614C0.211914 5.4258 0.211914 5.43545 0.211914 5.4451C0.211914 5.45475 0.211914 5.4644 0.211914 5.47404C0.211914 5.48369 0.211914 5.49333 0.211914 5.50296C0.211914 5.5126 0.211914 5.52223 0.211914 5.53186C0.211914 5.54149 0.211914 5.55112 0.211914 5.56074C0.211914 5.57037 0.211914 5.57999 0.211914 5.5896C0.211914 5.59922 0.211914 5.60883 0.211914 5.61844C0.211914 5.62805 0.211914 5.63766 0.211914 5.64726C0.211914 5.65686 0.211914 5.66646 0.211914 5.67606C0.211914 5.68565 0.211914 5.69524 0.211914 5.70483C0.211914 5.71442 0.211914 5.72401 0.211914 5.73359C0.211914 5.74317 0.211914 5.75275 0.211914 5.76233C0.211914 5.7719 0.211914 5.78148 0.211914 5.79105C0.211914 5.80061 0.211914 5.81018 0.211914 5.81974C0.211914 5.82931 0.211914 5.83886 0.211914 5.84842C0.211914 5.85798 0.211914 5.86753 0.211914 5.87708C0.211914 5.88663 0.211914 5.89617 0.211914 5.90572C0.211914 5.91526 0.211914 5.9248 0.211914 5.93433C0.211914 5.94387 0.211914 5.9534 0.211914 5.96293C0.211914 5.97246 0.211914 5.98199 0.211914 5.99151C0.211914 6.00103 0.211914 6.01055 0.211914 6.02007C0.211914 6.02959 0.211914 6.0391 0.211914 6.04861C0.211914 6.05812 0.211914 6.06763 0.211914 6.07713C0.211914 6.08664 0.211914 6.09614 0.211914 6.10563C0.211914 6.11513 0.211914 6.12462 0.211914 6.13412C0.211914 6.14361 0.211914 6.15309 0.211914 6.16258C0.211914 6.17206 0.211914 6.18154 0.211914 6.19102C0.211914 6.2005 0.211914 6.20998 0.211914 6.21945C0.211914 6.22892 0.211914 6.23839 0.211914 6.24785C0.211914 6.25732 0.211914 6.26678 0.211914 6.27624C0.211914 6.2857 0.211914 6.29516 0.211914 6.30461C0.211914 6.31406 0.211914 6.32351 0.211914 6.33296C0.211914 6.3424 0.211914 6.35185 0.211914 6.36129C0.211914 6.37073 0.211914 6.38017 0.211914 6.3896C0.211914 6.39903 0.211914 6.40847 0.211914 6.41789C0.211914 6.42732 0.211914 6.43675 0.211914 6.44617C0.211914 6.45559 0.211914 6.46501 0.211914 6.47443C0.211914 6.48384 0.211914 6.49325 0.211914 6.50266C0.211914 6.51207 0.211914 6.52148 0.211914 6.53088C0.211914 6.54029 0.211914 6.54969 0.211914 6.55909C0.211914 6.56848 0.211914 6.57788 0.211914 6.58727C0.211914 6.59666 0.211914 6.60605 0.211914 6.61543C0.211914 6.62482 0.211914 6.6342 0.211914 6.64358C0.211914 6.65296 0.211914 6.66234 0.211914 6.67171C0.211914 6.68109 0.211914 6.69046 0.211914 6.69982C0.211914 6.70919 0.211914 6.71855 0.211914 6.72792C0.211914 6.73728 0.211914 6.74664 0.211914 6.75599C0.211914 6.76535 0.211914 6.7747 0.211914 6.78405C0.211914 6.7934 0.211914 6.80275 0.211914 6.81209C0.211914 6.82143 0.211914 6.83078 0.211914 6.84011C0.211914 6.84945 0.211914 6.85879 0.211914 6.86812C0.211914 6.87745 0.211914 6.88678 0.211914 6.89611C0.211914 6.90543 0.211914 6.91476 0.211914 6.92408C0.211914 6.9334 0.211914 6.94272 0.211914 6.95203C0.211914 6.96135 0.211914 6.97066 0.211914 6.97997C0.211914 6.98928 0.211914 6.99858 0.211914 7.00789C0.211914 7.01719 0.211914 7.02649 0.211914 7.03579C0.211914 7.04509 0.211914 7.05438 0.211914 7.06367C0.211914 7.07296 0.211914 7.08225 0.211914 7.09154C0.211914 7.10083 0.211914 7.11011 0.211914 7.11939C0.211914 7.12867 0.211914 7.13795 0.211914 7.14723C0.211914 7.1565 0.211914 7.16577 0.211914 7.17504C0.211914 7.18431 0.211914 7.19358 0.211914 7.20284C0.211914 7.21211 0.211914 7.22137 0.211914 7.23063C0.211914 7.23989 0.211914 7.24914 0.211914 7.25839C0.211914 7.26765 0.211914 7.2769 0.211914 7.28614C0.211914 7.29539 0.211914 7.30464 0.211914 7.31388C0.211914 7.32312 0.211914 7.33236 0.211914 7.3416C0.211914 7.35083 0.211914 7.36007 0.211914 7.3693C0.211914 7.37853 0.211914 7.38776 0.211914 7.39698C0.211914 7.40621 0.211914 7.41543 0.211914 7.42465C0.211914 7.43387 0.211914 7.44309 0.211914 7.45231C0.211914 7.46152 0.211914 7.47073 0.211914 7.47994C0.211914 7.48915 0.211914 7.49836 0.211914 7.50756C0.211914 7.51677 0.211914 7.52597 0.211914 7.53517C0.211914 7.54437 0.211914 7.55356 0.211914 7.56276C0.211914 7.57195 0.211914 7.58114 0.211914 7.59033C0.211914 7.59952 0.211914 7.60871 0.211914 7.61789C0.211914 7.62707 0.211914 7.63625 0.211914 7.64543C0.211914 7.65461 0.211914 7.66378 0.211914 7.67296C0.211914 7.68213 0.211914 7.6913 0.211914 7.70047C0.211914 7.70964 0.211914 7.7188 0.211914 7.72796C0.211914 7.73713 0.211914 7.74629 0.211914 7.75544C0.211914 7.7646 0.211914 7.77376 0.211914 7.78291C0.211914 7.79206 0.211914 7.80121 0.211914 7.81036C0.211914 7.81951 0.211914 7.82865 0.211914 7.83779C0.211914 7.84694 0.211914 7.85607 0.211914 7.86521C0.211914 7.87435 0.211914 7.88348 0.211914 7.89262C0.211914 7.90175 0.211914 7.91088 0.211914 7.92001C0.211914 7.92913 0.211914 7.93826 0.211914 7.94738C0.211914 7.9565 0.211914 7.96562 0.211914 7.97474C0.211914 7.98386 0.211914 7.99297 0.211914 8.00208C0.211914 8.0112 0.211914 8.02031 0.211914 8.02941C0.211914 8.03852 0.211914 8.04763 0.211914 8.05673C0.211914 8.06583 0.211914 8.07493 0.211914 8.08403C0.211914 8.09313 0.211914 8.10222 0.211914 8.11131C0.211914 8.12041 0.211914 8.1295 0.211914 8.13859C0.211914 8.14767 0.211914 8.15676 0.211914 8.16584C0.211914 8.17493 0.211914 8.18401 0.211914 8.19309C0.211914 8.20216 0.211914 8.21124 0.211914 8.22031C0.211914 8.22939 0.211914 8.23846 0.211914 8.24753C0.211914 8.2566 0.211914 8.26567 0.211914 8.27473C0.211914 8.28379 0.211914 8.29286 0.211914 8.30192C0.211914 8.31098 0.211914 8.32003 0.211914 8.32909C0.211914 8.33814 0.211914 8.3472 0.211914 8.35625C0.211914 8.3653 0.211914 8.37434 0.211914 8.38339C0.211914 8.39244 0.211914 8.40148 0.211914 8.41052C0.211914 8.41956 0.211914 8.4286 0.211914 8.43764C0.211914 8.44667 0.211914 8.45571 0.211914 8.46474C0.211914 8.47377 0.211914 8.4828 0.211914 8.49183C0.211914 8.50086 0.211914 8.50988 0.211914 8.51891C0.211914 8.52793 0.211914 8.53695 0.211914 8.54597C0.211914 8.55499 0.211914 8.564 0.211914 8.57302C0.211914 8.58203 0.211914 8.59104 0.211914 8.60005C0.211914 8.60906 0.211914 8.61807 0.211914 8.62708C0.211914 8.63608 0.211914 8.64508 0.211914 8.65409C0.211914 8.66309 0.211914 8.67208 0.211914 8.68108C0.211914 8.69008 0.211914 8.69907 0.211914 8.70807C0.211914 8.71706 0.211914 8.72605 0.211914 8.73503C0.211914 8.74402 0.211914 8.75301 0.211914 8.76199C0.211914 8.77098 0.211914 8.77996 0.211914 8.78894C0.211914 8.79792 0.211914 8.80689 0.211914 8.81587C0.211914 8.82484 0.211914 8.83382 0.211914 8.84279C0.211914 8.85176 0.211914 8.86073 0.211914 8.86969C0.211914 8.87866 0.211914 8.88762 0.211914 8.89659C0.211914 8.90555 0.211914 8.91451 0.211914 8.92347C0.211914 8.93242 0.211914 8.94138 0.211914 8.95033C0.211914 8.95929 0.211914 8.96824 0.211914 8.97719C0.211914 8.98614 0.211914 8.99509 0.211914 9.00403C0.211914 9.01298 0.211914 9.02192 0.211914 9.03087C0.211914 9.03981 0.211914 9.04875 0.211914 9.05768C0.211914 9.06662 0.211914 9.07556 0.211914 9.08449C0.211914 9.09343 0.211914 9.10236 0.211914 9.11129C0.211914 9.12022 0.211914 9.12914 0.211914 9.13807C0.211914 9.14699 0.211914 9.15592 0.211914 9.16484C0.211914 9.17376 0.211914 9.18268 0.211914 9.1916C0.211914 9.20052 0.211914 9.20943 0.211914 9.21835C0.211914 9.22726 0.211914 9.23617 0.211914 9.24508C0.211914 9.25399 0.211914 9.2629 0.211914 9.27181C0.211914 9.28071 0.211914 9.28962 0.211914 9.29852C0.211914 9.30742 0.211914 9.31632 0.211914 9.32522C0.211914 9.33412 0.211914 9.34301 0.211914 9.35191C0.211914 9.3608 0.211914 9.36969 0.211914 9.37859C0.211914 9.38748 0.211914 9.39637 0.211914 9.40525C0.211914 9.41414 0.211914 9.42302 0.211914 9.43191C0.211914 9.44079 0.211914 9.44967 0.211914 9.45855C0.211914 9.46743 0.211914 9.47631 0.211914 9.48518C0.211914 9.49406 0.211914 9.50293 0.211914 9.5118C0.211914 9.52068 0.211914 9.52955 0.211914 9.53841C0.211914 9.54728 0.211914 9.55615 0.211914 9.56501C0.211914 9.57388 0.211914 9.58274 0.211914 9.5916C0.211914 9.60046 0.211914 9.60932 0.211914 9.61818C0.211914 9.62704 0.211914 9.63589 0.211914 9.64475C0.211914 9.6536 0.211914 9.66245 0.211914 9.67131C0.211914 9.68016 0.211914 9.689 0.211914 9.69785C0.211914 9.7067 0.211914 9.71554 0.211914 9.72439C0.211914 9.73323 0.211914 9.74207 0.211914 9.75091C0.211914 9.75975 0.211914 9.76859 0.211914 9.77743C0.211914 9.78626 0.211914 9.7951 0.211914 9.80393C0.211914 9.81276 0.211914 9.82159 0.211914 9.83042C0.211914 9.83925 0.211914 9.84808 0.211914 9.85691C0.211914 9.86573 0.211914 9.87456 0.211914 9.88338C0.211914 9.8922 0.211914 9.90102 0.211914 9.90984C0.211914 9.91866 0.211914 9.92748 0.211914 9.9363C0.211914 9.94511 0.211914 9.95393 0.211914 9.96274C0.211914 9.97155 0.211914 9.98036 0.211914 9.98917C0.211914 9.99798 0.211914 10.0068 0.211914 10.0156C0.211914 10.0244 0.211914 10.0332 0.211914 10.042C0.211914 10.0508 0.211914 10.0596 0.211914 10.0684C0.211914 10.0772 0.211914 10.086 0.211914 10.0948C0.211914 10.1036 0.211914 10.1124 0.211914 10.1212C0.211914 10.13 0.211914 10.1388 0.211914 10.1476C0.211914 10.1564 0.211914 10.1651 0.211914 10.1739C0.211914 10.1827 0.211914 10.1915 0.211914 10.2003C0.211914 10.2091 0.211914 10.2179 0.211914 10.2266C0.211914 10.2354 0.211914 10.2442 0.211914 10.253C0.211914 10.2618 0.211914 10.2705 0.211914 10.2793C0.211914 10.2881 0.211914 10.2969 0.211914 10.3056C0.211914 10.3144 0.211914 10.3232 0.211914 10.3319C0.211914 10.3407 0.211914 10.3495 0.211914 10.3582C0.211914 10.367 0.211914 10.3758 0.211914 10.3845C0.211914 10.3933 0.211914 10.4021 0.211914 10.4108C0.211914 10.4196 0.211914 10.4283 0.211914 10.4371C0.211914 10.4458 0.211914 10.4546 0.211914 10.4634C0.211914 10.4721 0.211914 10.4809 0.211914 10.4896C0.211914 10.4984 0.211914 10.5071 0.211914 10.5159C0.211914 10.5246 0.211914 10.5334 0.211914 10.5421C0.211914 10.5508 0.211914 10.5596 0.211914 10.5683C0.211914 10.5771 0.211914 10.5858 0.211914 10.5946C0.211914 10.6033 0.211914 10.612 0.211914 10.6208C0.211914 10.6295 0.211914 10.6382 0.211914 10.647C0.211914 10.6557 0.211914 10.6644 0.211914 10.6732C0.211914 10.6819 0.211914 10.6906 0.211914 10.6994C0.211914 10.7081 0.211914 10.7168 0.211914 10.7256C0.211914 10.7343 0.211914 10.743 0.211914 10.7517C0.211914 10.7605 0.211914 10.7692 0.211914 10.7779C0.211914 10.7866 0.211914 10.7953 0.211914 10.8041C0.211914 10.8128 0.211914 10.8215 0.211914 10.8302C0.211914 10.8389 0.211914 10.8476 0.211914 10.8564C0.211914 10.8651 0.211914 10.8738 0.211914 10.8825C0.211914 10.8912 0.211914 10.8999 0.211914 10.9086C0.211914 10.9173 0.211914 10.926 0.211914 10.9347C0.211914 10.9434 0.211914 10.9521 0.211914 10.9608C0.211914 10.9696 0.211914 10.9783 0.211914 10.987C0.211914 10.9957 0.211914 11.0044 0.211914 11.0131C0.211914 11.0218 0.211914 11.0305 0.211914 11.0391C0.211914 11.0478 0.211914 11.0565 0.211914 11.0652C0.211914 11.0739 0.211914 11.0826 0.211914 11.0913C0.211914 11.1 0.211914 11.1087 0.211914 11.1174C0.211914 11.1261 0.211914 11.1348 0.211914 11.1434C0.211914 11.1521 0.211914 11.1608 0.211914 11.1695C0.211914 11.1782 0.211914 11.1869 0.211914 11.1955C0.211914 11.2042 0.211914 11.2129 0.211914 11.2216C0.211914 11.2303 0.211914 11.2389 0.211914 11.2476C0.211914 11.2563 0.211914 11.265 0.211914 11.2737C0.211914 11.2823 0.211914 11.291 0.211914 11.2997C0.211914 11.3084 0.211914 11.317 0.211914 11.3257C0.211914 11.3344 0.211914 11.343 0.211914 11.3517C0.211914 11.3604 0.211914 11.369 0.211914 11.3777C0.211914 11.3864 0.211914 11.395 0.211914 11.4037C0.211914 11.4124 0.211914 11.421 0.211914 11.4297C0.211914 11.4384 0.211914 11.447 0.211914 11.4557C0.211914 11.4643 0.211914 11.473 0.211914 11.4817C0.211914 11.4903 0.211914 11.499 0.211914 11.5076C0.211914 11.5163 0.211914 11.5249 0.211914 11.5336C0.211914 11.5423 0.211914 11.5509 0.211914 11.5596C0.211914 11.5682 0.211914 11.5769 0.211914 11.5855C0.211914 11.5942 0.211914 11.6028 0.211914 11.6115C0.211914 11.6201 0.211914 11.6288 0.211914 11.6374C0.211914 11.6461 0.211914 11.6547 0.211914 11.6633C0.211914 11.672 0.211914 11.6806 0.211914 11.6893C0.211914 11.6979 0.211914 11.7066 0.211914 11.7152C0.211914 11.7238 0.211914 11.7325 0.211914 11.7411C0.211914 11.7498 0.211914 11.7584 0.211914 11.767C0.211914 11.7757 0.211914 11.7843 0.211914 11.7929C0.211914 11.8016 0.211914 11.8102 0.211914 11.8189C0.211914 11.8275 0.211914 11.8361 0.211914 11.8448C0.211914 11.8534 0.211914 11.862 0.211914 11.8706C0.211914 11.8793 0.211914 11.8879 0.211914 11.8965C0.211914 11.9052 0.211914 11.9138 0.211914 11.9224C0.211914 11.931 0.211914 11.9397 0.211914 11.9483C0.211914 11.9569 0.211914 11.9655 0.211914 11.9742C0.211914 11.9828 0.211914 11.9914 0.211914 12C0.211914 12.0087 0.211914 12.0173 0.211914 12.0259C0.211914 12.0345 0.211914 12.0431 0.211914 12.0518C0.211914 12.0604 0.211914 12.069 0.211914 12.0776C0.211914 12.0862 0.211914 12.0949 0.211914 12.1035C0.211914 12.1121 0.211914 12.1207 0.211914 12.1293C0.211914 12.1379 0.211914 12.1466 0.211914 12.1552C0.211914 12.1638 0.211914 12.1724 0.211914 12.181C0.211914 12.1896 0.211914 12.1982 0.211914 12.2068C0.211914 12.2154 0.211914 12.2241 0.211914 12.2327C0.211914 12.2413 0.211914 12.2499 0.211914 12.2585C0.211914 12.2671 0.211914 12.2757 0.211914 12.2843C0.211914 12.2929 0.211914 12.3015 0.211914 12.3101C0.211914 12.3187 0.211914 12.3273 0.211914 12.3359C0.211914 12.3445 0.211914 12.3532 0.211914 12.3618C0.211914 12.3704 0.211914 12.379 0.211914 12.3876C0.211914 12.3962 0.211914 12.4048 0.211914 12.4134C0.211914 12.422 0.211914 12.4306 0.211914 12.4392C0.211914 12.4478 0.211914 12.4564 0.211914 12.465C0.211914 12.4736 0.211914 12.4822 0.211914 12.4907C0.211914 12.4993 0.211914 12.5079 0.211914 12.5165C0.211914 12.5251 0.211914 12.5337 0.211914 12.5423C0.211914 12.5509 0.211914 12.5595 0.211914 12.5681C0.211914 12.5767 0.211914 12.5853 0.211914 12.5939C0.211914 12.6025 0.211914 12.6111 0.211914 12.6197C0.211914 12.6282 0.211914 12.6368 0.211914 12.6454C0.211914 12.654 0.211914 12.6626 0.211914 12.6712C0.211914 12.6798 0.211914 12.6884 0.211914 12.697C0.211914 12.7055 0.211914 12.7141 0.211914 12.7227C0.211914 12.7313 0.211914 12.7399 0.211914 12.7485C0.211914 12.7571 0.211914 12.7656 0.211914 12.7742C0.211914 12.7828 0.211914 12.7914 0.211914 12.8C0.211914 12.8086 0.211914 12.8172 0.211914 12.8257C0.211914 12.8343 0.211914 12.8429 0.211914 12.8515C0.211914 12.8601 0.211914 12.8687 0.211914 12.8772C0.211914 12.8858 0.211914 12.8944 0.211914 12.903C0.211914 12.9116 0.211914 12.9201 0.211914 12.9287C0.211914 12.9373 0.211914 12.9459 0.211914 12.9545C0.211914 12.963 0.211914 12.9716 0.211914 12.9802C0.211914 12.9888 0.211914 12.9973 0.211914 13.0059C0.211914 13.0145 0.211914 13.0231 0.211914 13.0317C0.211914 13.0402 0.211914 13.0488 0.211914 13.0574C0.211914 13.066 0.211914 13.0745 0.211914 13.0831C0.211914 13.0917 0.211914 13.1003 0.211914 13.1088C0.211914 13.1174 0.211914 13.126 0.211914 13.1346C0.211914 13.1431 0.211914 13.1517 0.211914 13.1603C0.211914 13.1689 0.211914 13.1774 0.211914 13.186C0.211914 13.1946 0.211914 13.2032 0.211914 13.2117C0.211914 13.2203 0.211914 13.2289 0.211914 13.2374C0.211914 13.246 0.211914 13.2546 0.211914 13.2632C0.211914 13.2717 0.211914 13.2803 0.211914 13.2889C0.211914 13.2974 0.211914 13.306 0.211914 13.3146C0.211914 13.3232 0.211914 13.3317 0.211914 13.3403C0.211914 13.3489 0.211914 13.3574 0.211914 13.366C0.211914 13.3746 0.211914 13.3831 0.211914 13.3917C0.211914 13.4003 0.211914 13.4089 0.211914 13.4174C0.211914 13.426 0.211914 13.4346 0.211914 13.4431C0.211914 13.4517 0.211914 13.4603 0.211914 13.4688C0.211914 13.4774 0.211914 13.486 0.211914 13.4945C0.211914 13.5031 0.211914 13.5117 0.211914 13.5202C0.211914 13.5288 0.211914 13.5374 0.211914 13.5459C0.211914 13.5545 0.211914 13.5631 0.211914 13.5717C0.211914 13.5802 0.211914 13.5888 0.211914 13.5974C0.211914 13.6059 0.211914 13.6145 0.211914 13.6231C0.211914 13.6316 0.211914 13.6402 0.211914 13.6488C0.211914 13.6573 0.211914 13.6659 0.211914 13.6745C0.211914 13.683 0.211914 13.6916 0.211914 13.7002C0.211914 13.7087 0.211914 13.7173 0.211914 13.7259C0.211914 13.7344 0.211914 13.743 0.211914 13.7515C0.211914 13.7601 0.211914 13.7687 0.211914 13.7772C0.211914 13.7858 0.211914 13.7944 0.211914 13.8029C0.211914 13.8115 0.211914 13.8201 0.211914 13.8286C0.211914 13.8372 0.211914 13.8458 0.211914 13.8543C0.211914 13.8629 0.211914 13.8715 0.211914 13.88C0.211914 13.8886 0.211914 13.8972 0.211914 13.9057C0.211914 13.9143 0.211914 13.9229 0.211914 13.9314C0.211914 13.94 0.211914 13.9486 0.211914 13.9571C0.211914 13.9657 0.211914 13.9743 0.211914 13.9828C0.211914 13.9914 0.211914 14 0.211914 14.0085C0.211914 14.0171 0.211914 14.0257 0.211914 14.0342C0.211914 14.0428 0.211914 14.0514 0.211914 14.0599C0.211914 14.0685 0.211914 14.0771 0.211914 14.0856C0.211914 14.0942 0.211914 14.1028 0.211914 14.1113C0.211914 14.1199 0.211914 14.1285 0.211914 14.137C0.211914 14.1456 0.211914 14.1542 0.211914 14.1627C0.211914 14.1713 0.211914 14.1799 0.211914 14.1884C0.211914 14.197 0.211914 14.2056 0.211914 14.2141C0.211914 14.2227 0.211914 14.2313 0.211914 14.2399C0.211914 14.2484 0.211914 14.257 0.211914 14.2656C0.211914 14.2741 0.211914 14.2827 0.211914 14.2913C0.211914 14.2998 0.211914 14.3084 0.211914 14.317C0.211914 14.3255 0.211914 14.3341 0.211914 14.3427C0.211914 14.3513 0.211914 14.3598 0.211914 14.3684C0.211914 14.377 0.211914 14.3855 0.211914 14.3941C0.211914 14.4027 0.211914 14.4112 0.211914 14.4198C0.211914 14.4284 0.211914 14.437 0.211914 14.4455C0.211914 14.4541 0.211914 14.4627 0.211914 14.4713C0.211914 14.4798 0.211914 14.4884 0.211914 14.497C0.211914 14.5055 0.211914 14.5141 0.211914 14.5227C0.211914 14.5313 0.211914 14.5398 0.211914 14.5484C0.211914 14.557 0.211914 14.5656 0.211914 14.5741C0.211914 14.5827 0.211914 14.5913 0.211914 14.5999C0.211914 14.6084 0.211914 14.617 0.211914 14.6256C0.211914 14.6342 0.211914 14.6427 0.211914 14.6513C0.211914 14.6599 0.211914 14.6685 0.211914 14.6771C0.211914 14.6856 0.211914 14.6942 0.211914 14.7028C0.211914 14.7114 0.211914 14.7199 0.211914 14.7285C0.211914 14.7371 0.211914 14.7457 0.211914 14.7543C0.211914 14.7628 0.211914 14.7714 0.211914 14.78C0.211914 14.7886 0.211914 14.7972 0.211914 14.8057C0.211914 14.8143 0.211914 14.8229 0.211914 14.8315C0.211914 14.8401 0.211914 14.8487 0.211914 14.8572C0.211914 14.8658 0.211914 14.8744 0.211914 14.883C0.211914 14.8916 0.211914 14.9002 0.211914 14.9087C0.211914 14.9173 0.211914 14.9259 0.211914 14.9345C0.211914 14.9431 0.211914 14.9517 0.211914 14.9603C0.211914 14.9688 0.211914 14.9774 0.211914 14.986H1.21191ZM12.7119 26.4863C6.36066 26.4863 1.21191 21.3373 1.21191 14.986H0.211914C0.211914 21.8896 5.80834 27.4863 12.7119 27.4863V26.4863Z" fill="#FF67A4"/>
</svg>
