<svg width="15" height="15" viewBox="0 0 15 15" fill="none" xmlns="http://www.w3.org/2000/svg">
<path d="M14 7.5C14 8.78558 13.6188 10.0423 12.9046 11.1112C12.1903 12.1801 11.1752 13.0132 9.98744 13.5052C8.79972 13.9972 7.49279 14.1259 6.23191 13.8751C4.97104 13.6243 3.81285 13.0052 2.90381 12.0962C1.99476 11.1872 1.3757 10.029 1.1249 8.76809C0.874092 7.50721 1.00281 6.20028 1.49478 5.01256C1.98675 3.82484 2.81987 2.80968 3.88879 2.09545C4.95771 1.38122 6.21442 1 7.5 1V7.5H14Z" fill="currentColor"/>
<path d="M8.43456 1.71631C9.06257 1.71631 9.68444 1.84 10.2646 2.08033C10.8448 2.32066 11.372 2.67292 11.8161 3.11699C12.2602 3.56106 12.6124 4.08825 12.8528 4.66845C13.0931 5.24866 13.2168 5.87052 13.2168 6.49853L8.43456 6.49853V1.71631Z" fill="currentColor" fill-opacity="0.6"/>
</svg>
