<svg width="24" height="24" viewBox="0 0 24 24" fill="none" xmlns="http://www.w3.org/2000/svg">
<path d="M21.8507 8.00659V4.93989H20.3173V3.40654H18.784V1.87319H15.7173V0.339844H8.05054V1.87319H4.98384V3.40654H3.45049V4.93989H1.91714V8.00659H0.383789V15.6733H1.91714V18.74H3.45049V20.2734H4.98384V21.8067H8.05054V23.3401H15.7173V21.8067H18.784V20.2734H20.3173V18.74H21.8507V15.6733H23.384V8.00659H21.8507Z" fill="url(#paint0_linear_21192_23561)" fill-opacity="0.5"/>
<path d="M10.8486 7.50344V6.35144L11.6766 5.52344H12.9366L13.7646 6.35144V7.50344L12.9366 8.33144H11.6766L10.8486 7.50344ZM11.1186 9.37544H13.4946V18.3394H11.1186V9.37544Z" fill="#85D1FF"/>
<defs>
<linearGradient id="paint0_linear_21192_23561" x1="11.9673" y1="-4.94415" x2="11.9673" y2="21.3418" gradientUnits="userSpaceOnUse">
<stop stop-color="#85D1FF"/>
<stop offset="1" stop-color="#85D1FF" stop-opacity="0"/>
</linearGradient>
</defs>
</svg>
