<svg xmlns="http://www.w3.org/2000/svg" width="64" height="64" viewBox="0 0 851.5 851.5">
  <path id="Warstwa_2_00000014609654253180946460000008647852002116918688_" d="M124 0h603.6c68.5 0 124 55.5 124 124v603.6c0 68.5-55.5 124-124 124H124c-68.5 0-124-55.5-124-124V124C0 55.5 55.5 0 124 0z" style="fill:#6067f9"/>
  <path id="Warstwa_3" d="M623.5 170.3c-37.4 52.2-84.2 88.4-139.5 112.6-19.2-5.3-38.9-8-58.3-7.8-19.4-.2-39.1 2.6-58.3 7.8-55.3-24.3-102.1-60.3-139.5-112.6-11.3 28.4-54.8 126.4-2.6 263.4 0 0-16.7 71.5 14 132.9 0 0 44.4-20.1 79.7 8.2 36.9 29.9 25.1 58.7 51.1 83.5 22.4 22.9 55.7 22.9 55.7 22.9s33.3 0 55.7-22.8c26-24.7 14.3-53.5 51.1-83.5 35.2-28.3 79.7-8.2 79.7-8.2 30.6-61.4 14-132.9 14-132.9 52-137.1 8.6-235.1-2.8-263.5zM253.1 414.8c-28.4-58.3-36.2-138.3-18.3-201.5 23.7 60 55.9 86.9 94.2 115.3-16.2 33.7-46.7 65.5-75.9 86.2zm81.7 102.7c-22.4-9.9-27.1-29.4-27.1-29.4 30.5-19.2 75.4-4.5 76.8 40.9-23.6-14.3-31.5-3.6-49.7-11.5zm90.9 161.2c-16 0-29-11.5-29-25.6s13-25.6 29-25.6 29 11.5 29 25.6c0 14.2-13 25.6-29 25.6zm91-161.2c-18.2 8-26-2.8-49.7 11.5 1.5-45.4 46.2-60.1 76.8-40.9 0-.1-4.8 19.5-27.1 29.4zm81.6-102.7c-29.1-20.7-59.7-52.4-76-86.2 38.3-28.4 70.6-55.4 94.2-115.3 18.1 63.2 10.3 143.3-18.2 201.5z" style="fill:#f7f7f7"/>
</svg>