<svg xmlns="http://www.w3.org/2000/svg" width="93" height="66" fill="none">
  <path fill="#878C9E" d="M12.575 11.61c0 2.5-3.75 2.5-3.75 0s3.75-2.5 3.75 0Z"/>
  <path fill="#878C9E" d="M20.7 11.61c0 2.5-3.75 2.5-3.75 0s3.75-2.5 3.75 0Z"/>
  <path fill="#878C9E" d="M28.824 11.61c0 2.5-3.75 2.5-3.75 0s3.75-2.5 3.75 0Z" opacity=".4"/>
  <g opacity=".4">
    <mask id="a" fill="#fff">
      <path fill-rule="evenodd" d="M.053 58.622v6.496h7.225v-2H2.053v-4.496h-2Zm10.225 6.496h73.444v-2H10.278v2Zm-8.225-9.496V11.18h-2v44.443h2Zm90.894 7.496v-4.496h-2v4.496h-4.225v2h6.225v-2Zm0-51.939v44.443h-2V11.18h2ZM7.278 2.619H2.053v5.56h-2V.619h7.225V2.617Zm3 0h73.444v-2H10.278v2Zm80.67 0v5.56h2V.619h-6.226V2.617h4.225Z" clip-rule="evenodd"/>
    </mask>
    <path fill="#878C9E" d="M.053 58.622v-1h-1v1h1Zm0 6.496h-1v1h1v-1Zm7.225 0v1h1v-1h-1Zm0-2h1v-1h-1v1Zm-5.225 0h-1v1h1v-1Zm0-4.496h1v-1h-1v1Zm81.668 6.496v1h1v-1h-1Zm-73.443 0h-1v1h1v-1Zm73.444-2h1v-1h-1v1Zm-73.444 0v-1h-1v1h1ZM2.053 11.179h1v-1h-1v1Zm0 44.443v1h1v-1h-1Zm-2-44.443v-1h-1v1h1Zm0 44.443h-1v1h1v-1Zm92.894 3h1v-1h-1v1Zm-2 0v-1h-1v1h1Zm0 4.496v1h1v-1h-1Zm-4.225 0v-1h-1v1h1Zm0 2h-1v1h1v-1Zm6.225 0v1h1v-1h-1Zm0-9.496v1h1v-1h-1Zm0-44.443h1v-1h-1v1Zm-2 44.443h-1v1h1v-1Zm0-44.443v-1h-1v1h1ZM2.053 2.619v-1h-1v1h1Zm5.225 0v1h1v-1h-1Zm-5.225 5.56v1h1v-1h-1Zm-2 0h-1v1h1v-1Zm0-7.56v-1h-1v1h1Zm7.225 0h1v-1h-1v1Zm76.444 2v1h1v-1h-1Zm-73.444 0h-1v1h1v-1Zm73.444-2h1v-1h-1v1Zm-73.444 0v-1h-1v1h1Zm80.67 7.56h-1v1h1v-1Zm0-5.56h1v-1h-1v1Zm2 5.56v1h1v-1h-1Zm0-7.56h1v-1h-1v1Zm-6.226 0v-1h-1v1h1Zm0 2h-1v1h1v-1ZM1.052 63.117v-4.496h-2v4.496h2Zm0 2v-2h-2v2h2Zm1-1h-2v2h2v-2Zm5.226 0H2.053v2h5.225v-2Zm1 1v-2h-2v2h2Zm-6.225-1h5.225v-2H2.053v2Zm-1-5.496v4.496h2v-4.496h-2Zm1-1H.72v2h1.332v-2Zm-1.332 0H.053v2H.72v-2Zm83 6.496H10.279v2h73.444v-2Zm-1-1v2h2v-2h-2Zm-72.443 1h73.444v-2H10.278v2Zm-1-1v2h2v-2h-2ZM1.053 11.179v44.443h2V11.18h-2Zm-1 1h2v-2h-2v2Zm1 43.443V11.18h-2v44.443h2Zm-1 1h2v-2h-2v2Zm91.894 2v4.496h2v-4.496h-2Zm-1 1h2v-2h-2v2Zm1 3.496v-4.496h-2v4.496h2Zm-5.225 1h4.225v-2h-4.225v2Zm1 1v-2h-2v2h2Zm3.225-1h-4.225v2h4.225v-2Zm2 0h-2v2h2v-2Zm-1-1v2h2v-2h-2Zm2-7.496V11.18h-2v44.443h2Zm-3 1h2v-2h-2v2Zm-1-45.443v44.443h2V11.18h-2Zm3-1h-2v2h2v-2ZM2.053 3.619h5.225v-2H2.053v2Zm1 4.56v-5.56h-2v5.56h2Zm-2.332 1h1.332v-2H.72v2Zm-.668 0H.72v-2H.053v2Zm-1-6.56v5.56h2v-5.56h-2Zm0-2v2h2v-2h-2Zm3-1h-2v2h2v-2Zm5.225 0H2.053v2h5.225v-2Zm1 2.003V.618h-2v1.004h2Zm0 .996v-.996h-2v.996h2Zm75.444-1H10.278v2h73.444v-2Zm-1-1v2h2v-2h-2Zm-72.444 1h73.444v-2H10.278v2Zm1 1v-2h-2v2h2Zm80.67 5.561v-5.56h-2v5.56h2Zm1-1h-2v2h2v-2Zm-1-4.56v5.56h2v-5.56h-2Zm0-2v2h2v-2h-2Zm-1 1h2v-2h-2v2Zm-4.226 0h4.225v-2h-4.225v2Zm1 .003V.618h-2v1.004h2Zm0 .996v-.996h-2v.996h2Zm3.225-1h-4.225v2h4.225v-2Z" mask="url(#a)"/>
  </g>
  <path fill="#878C9E" fill-rule="evenodd" d="M54.001 48.136v3.076H38.617v-3.077H54Zm3.077-3.079v3.078H54v-3.078h3.077Zm-18.461 0v3.078H35.54v-3.078h3.077Zm21.54-3.076v3.076h-3.08l.001-3.076h3.078Zm-24.616 0v3.076h-3.078v-3.076h3.078Zm6.153-3.077v3.077h-3.077v-3.077h3.077Zm12.308 0v3.077h-3.077v-3.077h3.077Zm9.231-12.308v15.385h-3.077V26.596h3.077Zm-33.847 0h3.077v15.385h-3.077V26.596Zm21.54 9.231v3.077h-9.232v-3.077h9.231Zm-9.232-6.154v3.076h-3.076v-3.076h3.076Zm12.308 0v3.076h-3.076v-3.076h3.076Zm6.155-6.154v3.077h-3.078v-3.077h3.078Zm-24.616 0v3.077h-3.078v-3.077h3.078Zm21.538-3.078v3.078h-3.077v-3.078h3.077Zm-18.46 0v3.078H35.54v-3.078h3.077Zm15.384-3.076v3.076H38.617v-3.076h15.385Z" clip-rule="evenodd"/>
</svg>