<svg xmlns="http://www.w3.org/2000/svg" width="17" height="17" viewBox="0 0 17 17" fill="none">
    <path fill-rule="evenodd" clip-rule="evenodd" d="M5.7954 2.23829C5.68533 2.25979 5.63914 2.33373 5.63914 2.48838C5.63914 2.65269 5.58833 2.68663 5.34226 2.68663C5.08975 2.68663 5.05759 2.71247 5.03238 2.9355L5.01103 3.12413H4.7648C4.46492 3.12413 4.42036 3.15635 4.42036 3.373C4.42036 3.54941 4.40223 3.56163 4.14038 3.56163C3.93334 3.56163 3.90537 3.58391 3.87406 3.77375L3.85196 3.90772L3.58145 3.89875L3.31095 3.88975L3.29423 3.76475C3.26863 3.57341 3.25247 3.56163 3.01603 3.56163C2.88143 3.56163 2.79077 3.54694 2.76987 3.52178C2.75168 3.49984 2.7324 3.41228 2.72699 3.32719C2.71336 3.11228 2.66686 3.09391 2.13503 3.09335C1.78408 3.09297 1.70196 3.1016 1.66805 3.14241C1.63842 3.17813 1.62908 3.28856 1.63455 3.53856C1.63874 3.72919 1.6493 3.89675 1.65805 3.91091C1.6668 3.92503 1.76874 3.93662 1.88462 3.93662C2.00681 3.93662 2.11103 3.95237 2.13278 3.97412C2.15341 3.99475 2.17028 4.09269 2.17028 4.19178C2.17028 4.41668 2.20066 4.43662 2.54323 4.43662H2.7953V4.57028C2.7953 4.64381 2.81659 4.73434 2.84262 4.77149C2.88903 4.83778 2.90287 4.83887 3.59164 4.82996C4.10197 4.8234 4.30641 4.81009 4.34123 4.78118C4.37051 4.7569 4.3891 4.68981 4.3891 4.6085C4.3891 4.53537 4.40739 4.46034 4.42973 4.44181C4.45208 4.42328 4.58917 4.40397 4.73443 4.39893L4.9985 4.38975L4.99853 4.197C4.99856 4.091 5.01028 3.99256 5.02456 3.97825C5.03888 3.96397 5.16825 3.95225 5.31204 3.95225C5.45958 3.95225 5.58839 3.93737 5.60768 3.91809C5.62649 3.89928 5.6518 3.79381 5.66393 3.68372L5.68602 3.4835L5.95534 3.47453L6.22463 3.46556L6.24441 3.56438C6.25526 3.61872 6.26416 3.711 6.26416 3.76944C6.26416 3.90144 6.33942 3.93662 6.62177 3.93662C6.74224 3.93662 6.83106 3.95184 6.84996 3.97569C6.86697 3.99719 6.88834 4.10169 6.8975 4.20793C6.90665 4.31418 6.92228 4.41434 6.93228 4.4305C6.94225 4.44665 7.07257 4.46228 7.22185 4.46521C7.37111 4.46815 7.50502 4.47781 7.51936 4.48668C7.53371 4.49556 7.54546 4.56243 7.54546 4.63534C7.54546 4.70824 7.56233 4.78474 7.58296 4.80537C7.60983 4.83224 7.81328 4.84287 8.30064 4.84287C9.06582 4.84287 9.0455 4.84946 9.0455 4.60118C9.0455 4.42809 9.08357 4.40537 9.37364 4.40537C9.52886 4.40537 9.64127 4.39087 9.66427 4.36787C9.6849 4.34725 9.70177 4.26568 9.70177 4.18662C9.70177 4.10756 9.71865 4.026 9.73928 4.00537C9.76143 3.98322 9.86806 3.96787 10.0001 3.96787C10.2791 3.96787 10.3194 3.93181 10.3328 3.6705L10.3424 3.4835L10.612 3.47453L10.8816 3.46556L10.8951 3.65159C10.9141 3.91406 10.9411 3.93662 11.2358 3.93662C11.5208 3.93662 11.5456 3.95869 11.5456 4.21247C11.5456 4.39765 11.5586 4.40537 11.87 4.40537C12.0038 4.40537 12.1109 4.42062 12.1331 4.44287C12.1537 4.4635 12.1706 4.54053 12.1706 4.61403C12.1706 4.8414 12.2057 4.85062 12.9864 4.82787C13.3516 4.81721 13.662 4.80134 13.6762 4.79259C13.6903 4.78384 13.7019 4.71506 13.7019 4.63974C13.7019 4.56428 13.7194 4.49165 13.741 4.47796C13.7625 4.46428 13.891 4.44471 14.0266 4.43446C14.3194 4.41234 14.3582 4.37759 14.3582 4.13712C14.3582 3.94337 14.3691 3.93662 14.6829 3.93662C14.975 3.93662 15.0096 3.9094 15.0211 3.671L15.0301 3.4835L15.2645 3.46788L15.4988 3.45225L15.5074 2.87641C15.5139 2.43666 15.5065 2.29463 15.4761 2.27535C15.4542 2.26144 15.3565 2.24988 15.2589 2.2496C15.0468 2.24904 14.9834 2.29785 14.9827 2.46229C14.9824 2.52554 14.9701 2.59641 14.9553 2.61982C14.9258 2.66625 14.7206 2.71438 14.5427 2.7165C14.4024 2.71822 14.3269 2.79657 14.3269 2.94066C14.3269 3.09038 14.2803 3.12413 14.0732 3.12413C13.8344 3.12413 13.8005 3.1416 13.7791 3.2756C13.7373 3.53634 13.7544 3.51953 13.5101 3.54C13.3868 3.55034 13.2721 3.57266 13.2551 3.58963C13.2382 3.60656 13.2175 3.69159 13.2091 3.77853L13.1939 3.93662H12.9323H12.6706V3.78662C12.6706 3.70412 12.6537 3.61975 12.6331 3.59913C12.6121 3.57816 12.5116 3.56163 12.405 3.56163C12.1825 3.56163 12.1394 3.53019 12.1394 3.36788C12.1394 3.18538 12.0585 3.12413 11.8175 3.12413C11.5943 3.12413 11.5456 3.09282 11.5456 2.94947C11.5456 2.89466 11.5191 2.81716 11.4868 2.77725C11.4372 2.71594 11.3925 2.70279 11.1978 2.69219C11.0711 2.68532 10.9499 2.66544 10.9284 2.64807C10.9069 2.63069 10.8891 2.55141 10.8888 2.47188C10.8882 2.27126 10.8603 2.24144 10.6582 2.22466C10.4143 2.20444 10.34 2.25779 10.3105 2.47438C10.2981 2.56532 10.2721 2.6501 10.2527 2.66272C10.2333 2.67535 10.1171 2.68588 9.99444 2.68616C9.79218 2.6866 9.76678 2.69379 9.72099 2.76366C9.69324 2.806 9.67052 2.88757 9.67052 2.94491C9.67052 3.09028 9.62252 3.12413 9.41648 3.12413C9.18904 3.12413 9.13926 3.16941 9.13926 3.37635V3.53038H8.93472C8.75918 3.53038 8.71927 3.54125 8.65346 3.60709C8.61127 3.64928 8.57674 3.71844 8.57674 3.76078C8.57674 3.92194 8.55455 3.93662 8.31111 3.93662C8.06766 3.93662 8.04547 3.92194 8.04547 3.76078C8.04547 3.71844 8.01094 3.64928 7.96875 3.60709C7.90294 3.54125 7.86303 3.53038 7.68749 3.53038H7.48295V3.40741C7.48295 3.33978 7.46923 3.24838 7.45248 3.20428C7.42358 3.12832 7.41005 3.12413 7.1931 3.12413C6.92966 3.12413 6.88918 3.09835 6.88918 2.93038C6.88918 2.7436 6.80974 2.68663 6.54924 2.68663C6.41467 2.68663 6.32273 2.67204 6.30332 2.64757C6.28629 2.6261 6.26507 2.54047 6.25616 2.45735C6.24726 2.37423 6.22676 2.29298 6.2106 2.27682C6.17557 2.24179 5.90568 2.21673 5.7954 2.23829ZM5.70483 5.0109C5.68518 5.03459 5.65886 5.1359 5.6463 5.23605C5.6203 5.44393 5.59736 5.45893 5.29538 5.46524C5.20085 5.46721 5.10288 5.48187 5.07766 5.4978C5.05106 5.51465 5.02481 5.59643 5.01516 5.69265L4.9985 5.85849L4.76412 5.86746C4.49908 5.87761 4.42232 5.93243 4.42104 6.11249C4.42011 6.24596 4.36854 6.2788 4.12422 6.30161C3.90178 6.32239 3.88712 6.33458 3.84471 6.53445C3.82527 6.62605 3.75755 6.65427 3.5557 6.65492C3.37173 6.65555 3.32657 6.63102 3.32657 6.53049C3.32657 6.37727 3.23463 6.30239 3.03153 6.29021C2.7964 6.27608 2.7328 6.24005 2.7328 6.12096C2.7328 5.90877 2.72365 5.90536 2.15416 5.90536C1.55201 5.90536 1.59955 5.86686 1.61423 6.34286L1.62339 6.63974L1.87212 6.65536C2.15056 6.67286 2.16056 6.68308 2.16716 6.95623C2.16888 7.02717 2.18857 7.10039 2.21091 7.11892C2.23325 7.13745 2.37035 7.15676 2.51561 7.1618L2.77968 7.17098L2.78812 7.28036C2.79274 7.34051 2.80362 7.42161 2.81227 7.46061L2.82802 7.53145L3.58477 7.52311L4.34148 7.51473L4.36295 7.36448C4.39426 7.14545 4.41911 7.12789 4.71224 7.11751L4.96725 7.10848L4.98544 6.9187C4.99544 6.81433 5.01384 6.71236 5.02634 6.69214C5.04097 6.66849 5.14644 6.65536 5.32223 6.65536C5.49301 6.65536 5.60946 6.6413 5.63289 6.61786C5.65418 6.59658 5.6704 6.49467 5.6704 6.3823V6.18427L5.95947 6.19324L6.24854 6.20224L6.25801 6.40417C6.26323 6.51524 6.28254 6.6242 6.30092 6.64636C6.32251 6.67236 6.41379 6.68661 6.55889 6.68661C6.85368 6.68661 6.89878 6.72042 6.91981 6.95708L6.93606 7.13973L7.22513 7.14873L7.5142 7.1577V7.31167C7.5142 7.43192 7.52746 7.47273 7.57464 7.49801C7.66421 7.54592 8.95959 7.54126 9.008 7.49286C9.02863 7.47223 9.0455 7.39714 9.0455 7.32601C9.0455 7.16092 9.1166 7.12411 9.43552 7.12411C9.69421 7.12411 9.72659 7.09433 9.68852 6.89136C9.66109 6.74514 9.72649 6.70295 9.98697 6.69895C10.2521 6.69486 10.2955 6.66214 10.2955 6.46658C10.2955 6.22261 10.301 6.21786 10.5776 6.21786C10.9123 6.21786 10.9206 6.22277 10.9206 6.42211C10.9206 6.65586 10.9604 6.68661 11.2632 6.68661C11.5405 6.68661 11.5456 6.69111 11.5456 6.93733C11.5456 7.02461 11.5622 7.0998 11.5846 7.1142C11.6061 7.12795 11.7292 7.14158 11.8581 7.14445C11.987 7.1473 12.1101 7.15095 12.1315 7.15251C12.1565 7.15433 12.1706 7.20539 12.1706 7.29376C12.1706 7.52945 12.1736 7.53036 12.9503 7.53036C13.7215 7.53036 13.7032 7.53611 13.7321 7.28464L13.7488 7.13973L13.9988 7.12411C14.1363 7.11551 14.2664 7.09711 14.2879 7.0832C14.3101 7.06876 14.3269 6.9937 14.3269 6.90836C14.3269 6.69474 14.3769 6.66024 14.7029 6.64892L14.9676 6.63974L14.9833 6.45224C15.0051 6.19289 15.0167 6.18127 15.244 6.19143C15.3498 6.19618 15.4539 6.18914 15.4754 6.17586C15.5043 6.15799 15.5145 6.00649 15.5145 5.59437C15.5145 5.11499 15.5076 5.0344 15.465 5.01809C15.3777 4.98459 15.0594 4.99787 15.0207 5.03662C15.0001 5.05724 14.9832 5.1324 14.9832 5.20365C14.9832 5.38918 14.9183 5.43662 14.6642 5.43662C14.4296 5.43662 14.3924 5.46374 14.3669 5.65368C14.3448 5.8188 14.2985 5.85174 14.0523 5.87721C13.8271 5.90052 13.7644 5.94824 13.7644 6.09627C13.7644 6.2518 13.7368 6.28011 13.5814 6.28405C13.2895 6.29149 13.2558 6.31005 13.219 6.48352L13.186 6.63974L12.9439 6.64886L12.7019 6.65799V6.55427C12.7019 6.37089 12.6395 6.32189 12.3746 6.29708L12.1394 6.27502L12.1389 6.16052C12.1386 6.09752 12.1207 6.01083 12.0991 5.96786C12.0636 5.89755 12.0364 5.88818 11.8261 5.87411L11.5925 5.85849L11.5544 5.7044C11.5335 5.61965 11.4984 5.53233 11.4763 5.51037C11.4542 5.48843 11.3202 5.4608 11.1784 5.44905L10.9206 5.42762V5.27587C10.9206 5.04827 10.8474 4.98852 10.5891 5.00499C10.4793 5.01196 10.3722 5.03496 10.3511 5.05606C10.33 5.07715 10.3054 5.1679 10.2963 5.25771L10.2799 5.42099L10.1393 5.42893C9.79193 5.44849 9.67052 5.51458 9.67052 5.68405C9.67052 5.85196 9.64662 5.87411 9.46552 5.87411C9.17526 5.87411 9.13366 5.91333 9.10082 6.21786C9.09282 6.29186 9.08007 6.2968 8.85859 6.31161C8.60446 6.32861 8.61174 6.32224 8.56133 6.57074L8.54364 6.65795L8.30314 6.64886L8.06266 6.63974L8.03882 6.49911C8.02569 6.42177 7.991 6.34092 7.96175 6.31942C7.93247 6.29796 7.82156 6.28036 7.71527 6.28036C7.52383 6.28036 7.52183 6.27946 7.50249 6.18271C7.49174 6.12899 7.48295 6.05246 7.48295 6.01261C7.48295 5.89427 7.37201 5.84286 7.1166 5.84286H6.88918L6.88875 5.7413C6.88772 5.49355 6.85487 5.46812 6.49864 5.4389L6.27998 5.42099L6.2547 5.23349C6.23957 5.12115 6.20894 5.03034 6.17832 5.00693C6.10738 4.95271 5.75065 4.95571 5.70483 5.0109ZM5.71949 7.8607C5.69249 7.88773 5.6704 7.94189 5.6704 7.98104C5.6704 8.02023 5.65496 8.09657 5.63608 8.1507L5.60177 8.2491H5.3566C5.13866 8.2491 5.106 8.25682 5.06278 8.31857C5.03603 8.35676 5.01412 8.43238 5.01412 8.4866C5.01412 8.62185 4.96172 8.65473 4.70183 8.68251C4.45333 8.70907 4.42157 8.73501 4.42082 8.91207C4.42023 9.05604 4.36164 9.09263 4.16691 9.07069C3.98587 9.05029 3.89978 9.09569 3.87368 9.22541C3.82912 9.44669 3.84321 9.4366 3.57858 9.4366H3.33479L3.31788 9.31038C3.29179 9.11582 3.25763 9.09285 2.99462 9.09285H2.76405V8.95222C2.76405 8.85326 2.74552 8.79307 2.70155 8.7491C2.64464 8.69219 2.59774 8.68663 2.1781 8.68707C1.92459 8.68735 1.69971 8.69863 1.67836 8.71219C1.65183 8.72904 1.63702 8.85466 1.63149 9.11013L1.62339 9.48347L1.88902 9.4991L2.15466 9.51472L2.17028 9.71785L2.18591 9.92097L2.46464 9.93659L2.7434 9.95222L2.79296 10.1397L2.84252 10.3272H3.57674H4.31098L4.3377 10.2022C4.39551 9.93156 4.38898 9.93659 4.68349 9.93659C4.86103 9.93659 4.95606 9.92375 4.97265 9.89753C4.98625 9.87606 5.00466 9.78816 5.01356 9.70222L5.02975 9.54597L5.26413 9.53807C5.64733 9.52513 5.63914 9.53041 5.63914 9.29647C5.63914 9.12932 5.64943 9.08954 5.69958 9.06269C5.7809 9.01919 6.19213 9.02091 6.21932 9.06485C6.23104 9.08385 6.24785 9.18932 6.25666 9.29922L6.27273 9.4991H6.54746C6.87765 9.4991 6.92044 9.52732 6.92044 9.74506C6.92044 9.82634 6.93731 9.90972 6.95794 9.93034C6.98019 9.95259 7.08732 9.96784 7.22135 9.96784C7.47395 9.96784 7.54546 10.0082 7.54546 10.1506C7.54546 10.1971 7.56736 10.2664 7.59411 10.3046C7.64168 10.3725 7.65687 10.3741 8.27382 10.3736C9.025 10.3731 9.06638 10.3617 9.051 10.1597C9.03594 9.96203 9.07272 9.93659 9.37364 9.93659C9.67993 9.93659 9.7109 9.91303 9.71474 9.67716L9.7174 9.51472L9.99866 9.4991L10.2799 9.48347L10.2955 9.28035L10.3112 9.07722H10.6081H10.9049L10.9206 9.26472L10.9362 9.45222L11.2072 9.46785C11.3562 9.47644 11.4886 9.49403 11.5015 9.50694C11.5143 9.51985 11.5355 9.60894 11.5485 9.70491C11.5784 9.92563 11.6288 9.96556 11.879 9.96684C12.1495 9.96825 12.1706 9.98088 12.1706 10.1413C12.1706 10.3658 12.199 10.3741 12.9727 10.3741C13.6226 10.3741 13.6368 10.3727 13.6845 10.3046C13.7112 10.2664 13.7332 10.1849 13.7332 10.1234C13.7332 9.965 13.7769 9.93659 14.0207 9.93659C14.2864 9.93659 14.3582 9.88088 14.3582 9.67463C14.3582 9.51182 14.3825 9.50016 14.724 9.49953L14.9491 9.4991L14.9659 9.39753C14.9752 9.34166 14.9794 9.24675 14.9752 9.1866L14.9676 9.07722L15.2332 9.0616L15.4988 9.04597V8.45885C15.4988 7.79236 15.5069 7.81285 15.2448 7.81207C15.0488 7.81151 15.0161 7.84554 14.9924 8.07507L14.9744 8.2491H14.7348C14.4445 8.2491 14.3845 8.28388 14.3747 8.45782C14.3652 8.62573 14.342 8.65535 14.2201 8.65535C14.1633 8.65535 14.0514 8.66432 13.9714 8.67529C13.8199 8.69607 13.8048 8.71473 13.7845 8.90666C13.7698 9.04525 13.7413 9.0616 13.5136 9.0616C13.2748 9.0616 13.2331 9.09347 13.2331 9.27607C13.2331 9.42219 13.1634 9.46785 12.9403 9.46785C12.7149 9.46785 12.6706 9.43685 12.6706 9.27894C12.6706 9.11329 12.5979 9.0616 12.3645 9.0616C12.1519 9.0616 12.1081 9.02491 12.1081 8.84666C12.1081 8.71438 12.0107 8.65535 11.7925 8.65535C11.5947 8.65535 11.5636 8.63207 11.5328 8.46104C11.5008 8.28329 11.4478 8.2491 11.2044 8.2491C10.9502 8.2491 10.8893 8.20201 10.8893 8.00554C10.8893 7.90976 10.8737 7.86792 10.8289 7.84395C10.7549 7.80436 10.3996 7.80089 10.3757 7.83954C10.3662 7.85489 10.3393 7.94279 10.3158 8.03485L10.2731 8.20223L10.0317 8.21785C9.75118 8.23601 9.70177 8.27629 9.70177 8.48698C9.70177 8.63273 9.71084 8.62751 9.38192 8.67082C9.21838 8.69235 9.13926 8.76907 9.13926 8.90607C9.13926 9.02638 9.08282 9.0616 8.88997 9.0616C8.65055 9.0616 8.57674 9.11725 8.57674 9.29775V9.4366H8.31111H8.04547V9.31757C8.04547 9.12335 7.99119 9.07957 7.72799 9.0616L7.49908 9.04597L7.47739 8.89326C7.46542 8.80929 7.44005 8.72491 7.42095 8.70576C7.40189 8.68663 7.28567 8.66394 7.16269 8.65535L6.93916 8.63973L6.90631 8.48438C6.86675 8.29704 6.79528 8.25045 6.54542 8.24907C6.45089 8.24857 6.35448 8.23607 6.33117 8.22129C6.30789 8.20654 6.27629 8.12738 6.26098 8.04542C6.24566 7.96345 6.21729 7.87732 6.19794 7.85401C6.14626 7.79173 5.7834 7.79682 5.71949 7.8607ZM10.3735 10.8232C10.3468 10.8639 10.3145 10.9588 10.3016 11.0341L10.2784 11.171L10.0456 11.1803C9.774 11.1912 9.71703 11.2279 9.6929 11.4078C9.66812 11.5926 9.62818 11.6241 9.41892 11.6241C9.20573 11.6241 9.13926 11.6724 9.13926 11.8272C9.13926 11.9816 9.07263 12.0303 8.86175 12.0303C8.63237 12.0303 8.5748 12.0733 8.55374 12.26L8.53708 12.4078L8.29907 12.3988L8.0611 12.3897L8.07 12.3043C8.07491 12.2574 8.05697 12.1765 8.03013 12.1246C7.98294 12.0334 7.97434 12.0303 7.76265 12.0303C7.55661 12.0303 7.54214 12.0257 7.51342 11.9502C7.49667 11.9061 7.48295 11.838 7.48295 11.7988C7.48295 11.6809 7.38901 11.6241 7.19398 11.6241C6.961 11.6241 6.92044 11.6048 6.92044 11.4942C6.92044 11.3691 6.84243 11.2276 6.75671 11.1972C6.66383 11.1644 6.65386 11.1632 6.44386 11.1589L6.26416 11.1553V11.0373C6.26416 10.9724 6.24226 10.888 6.21551 10.8498C6.17341 10.7897 6.13847 10.7803 5.95612 10.7803C5.72212 10.7803 5.6704 10.8101 5.6704 10.9449C5.6704 11.1082 5.62199 11.1553 5.45445 11.1553C5.12347 11.1553 5.03063 11.2146 5.00219 11.4438C4.99431 11.5075 4.97887 11.5741 4.9679 11.5918C4.9569 11.6096 4.85737 11.6241 4.74665 11.6241C4.50864 11.6241 4.44051 11.6729 4.4097 11.8657L4.38954 11.9918L4.18579 12.0047C3.9464 12.02 3.89712 12.0577 3.86431 12.2508L3.84068 12.3897L3.60983 12.399C3.35445 12.4093 3.32785 12.3931 3.32704 12.2269C3.32676 12.1637 3.30048 12.1019 3.25626 12.0602C3.19597 12.0033 3.15628 11.9954 2.97809 12.0051L2.77027 12.0164L2.7503 11.8659C2.71549 11.6035 2.67793 11.5866 2.15556 11.5984C1.56017 11.6118 1.56264 11.6098 1.58495 12.0544C1.60555 12.4636 1.61774 12.4795 1.8914 12.452C2.13663 12.4273 2.14669 12.4358 2.16994 12.6866L2.18591 12.8585L2.45154 12.8671C2.75737 12.8772 2.7953 12.904 2.7953 13.1106C2.7953 13.1841 2.8143 13.2572 2.83868 13.2774C2.89515 13.3243 4.28635 13.2955 4.34573 13.2462C4.36782 13.2279 4.39014 13.1472 4.39529 13.0669L4.40473 12.921L4.62349 12.913C4.97219 12.9003 4.97137 12.9008 4.99203 12.7005C5.01741 12.4547 5.04022 12.4366 5.3242 12.4366C5.46917 12.4366 5.57899 12.4217 5.60164 12.3991C5.62227 12.3785 5.63914 12.2937 5.63914 12.2108C5.63914 12.0777 5.64855 12.0565 5.7193 12.0296C5.83434 11.9858 6.1175 11.992 6.18272 12.0397C6.21813 12.0656 6.24573 12.1418 6.25901 12.2506L6.27979 12.421L6.54449 12.4301C6.8739 12.4416 6.91406 12.4713 6.92678 12.7135L6.93606 12.8897L7.20169 12.9053C7.34779 12.9139 7.48492 12.9323 7.50639 12.9462C7.52789 12.9601 7.54546 13.0258 7.54546 13.0921C7.54546 13.3235 7.50549 13.3116 8.2821 13.3116C9.06235 13.3116 9.0455 13.3166 9.0455 13.0855C9.0455 12.9312 9.09001 12.9054 9.35645 12.9049C9.48624 12.9046 9.61046 12.8929 9.63255 12.8789C9.65465 12.8649 9.68018 12.7983 9.68927 12.7309C9.72378 12.4756 9.72318 12.4764 9.88728 12.4371C9.97231 12.4167 10.0703 12.409 10.105 12.42C10.2255 12.4582 10.2955 12.3867 10.296 12.2246C10.2963 12.1435 10.3074 12.0601 10.3207 12.0392C10.3524 11.9892 10.6605 11.9576 10.7799 11.992C10.8632 12.016 10.8772 12.0379 10.9049 12.1887C10.9221 12.2821 10.9476 12.3761 10.9615 12.3975C10.9773 12.4221 11.0609 12.4366 11.186 12.4366C11.2956 12.4366 11.4213 12.4503 11.4654 12.4671C11.5378 12.4946 11.5456 12.5139 11.5456 12.6664C11.5456 12.7667 11.5621 12.8488 11.5862 12.8689C11.6086 12.8874 11.7457 12.9067 11.8909 12.9118L12.155 12.921L12.1645 13.0864C12.1727 13.2302 12.1843 13.2558 12.2524 13.2817C12.2956 13.2981 12.6236 13.3116 12.9813 13.3116C13.7011 13.3116 13.6978 13.3125 13.7167 13.1095C13.7328 12.9357 13.7757 12.9053 14.0047 12.9053C14.2831 12.9053 14.3269 12.8763 14.3269 12.6917C14.3269 12.6098 14.3438 12.526 14.3644 12.5053C14.3875 12.4822 14.501 12.4678 14.6602 12.4678C14.9563 12.4678 14.9832 12.4464 14.9832 12.2105C14.9832 12.1355 15.0001 12.0572 15.0207 12.0366C15.0413 12.016 15.1386 11.9991 15.2369 11.9991C15.532 11.9991 15.5145 12.0366 15.5145 11.4058C15.5145 10.9656 15.5053 10.8429 15.4703 10.8138C15.4438 10.7918 15.3472 10.781 15.2281 10.7866L15.0301 10.796L15.0117 10.9338C14.9858 11.128 14.9035 11.1866 14.6564 11.1866C14.4278 11.1866 14.3582 11.2389 14.3582 11.4108C14.3582 11.5666 14.282 11.624 14.0744 11.6246C13.9813 11.6248 13.8841 11.6383 13.8585 11.6545C13.8328 11.6707 13.7977 11.7513 13.7802 11.8337L13.7486 11.9835L13.5246 11.9991C13.4014 12.0077 13.2905 12.025 13.278 12.0375C13.2655 12.05 13.2485 12.131 13.2402 12.2176C13.2226 12.4006 13.1971 12.4144 12.9046 12.3993L12.7192 12.3897L12.6918 12.2491C12.6523 12.0466 12.6298 12.0303 12.3883 12.0303H12.1761L12.1547 11.8975C12.1174 11.6655 12.072 11.6241 11.8553 11.6241C11.5991 11.6241 11.5583 11.5966 11.5331 11.407C11.5072 11.2114 11.4652 11.1866 11.1606 11.1866C10.902 11.1866 10.8907 11.1761 10.8898 10.935C10.8892 10.7799 10.8441 10.7491 10.6181 10.7491C10.4463 10.7491 10.416 10.7582 10.3735 10.8232Z" fill="currentColor"/>
</svg>  