<svg xmlns="http://www.w3.org/2000/svg" width="18" height="18" viewBox="0 0 18 18" fill="none">
<path fill-rule="evenodd" clip-rule="evenodd" d="M9.97958 4.42769H9.80237C9.6059 4.42769 9.56123 4.43986 9.48757 4.51356C9.44035 4.56078 9.40169 4.63818 9.40169 4.68558C9.40169 4.86595 9.37686 4.88239 9.10438 4.88239C8.8319 4.88239 8.80706 4.86595 8.80706 4.68558C8.80706 4.63818 8.76841 4.56078 8.72119 4.51356C8.64753 4.43986 8.60286 4.42769 8.40639 4.42769H8.17745V4.29006C8.17745 4.21437 8.1621 4.11206 8.14335 4.06271C8.111 3.97768 8.09585 3.97299 7.85303 3.97299C7.55816 3.97299 7.51287 3.94413 7.51287 3.75613C7.51287 3.54708 7.42395 3.48331 7.13237 3.48331C6.98176 3.48331 6.87885 3.46698 6.85713 3.43959C6.83807 3.41556 6.81432 3.31973 6.80435 3.22669C6.79438 3.13365 6.77143 3.04271 6.75335 3.02462C6.71414 2.98542 6.41207 2.95736 6.28863 2.9815C6.16543 3.00556 6.11374 3.08832 6.11374 3.26142C6.11374 3.44533 6.05686 3.48331 5.78144 3.48331C5.49882 3.48331 5.46282 3.51224 5.4346 3.76187L5.41071 3.97299H5.13511C4.79946 3.97299 4.74958 4.00905 4.74958 4.25155C4.74958 4.44899 4.72929 4.46267 4.43621 4.46267C4.20448 4.46267 4.17317 4.48761 4.13813 4.70009L4.1134 4.85004L3.81062 4.84L3.50785 4.82993L3.48914 4.69002C3.46049 4.47585 3.44241 4.46267 3.17776 4.46267C3.02711 4.46267 2.92564 4.44623 2.90224 4.41807C2.88188 4.39352 2.8603 4.29551 2.85425 4.20027C2.839 3.95973 2.78695 3.93917 2.19169 3.93854C1.79888 3.93812 1.70696 3.94777 1.66901 3.99345C1.63585 4.03343 1.62539 4.15704 1.63151 4.43686C1.6362 4.65022 1.64802 4.83776 1.65782 4.85361C1.66761 4.86942 1.78171 4.88239 1.91141 4.88239C2.04817 4.88239 2.16483 4.90002 2.18917 4.92436C2.21226 4.94745 2.23114 5.05707 2.23114 5.16798C2.23114 5.41971 2.26514 5.44202 2.64858 5.44202H2.93071V5.59162C2.93071 5.67392 2.95453 5.77525 2.98367 5.81684C3.03561 5.89102 3.05111 5.89225 3.82203 5.88228C4.39322 5.87493 4.62205 5.86003 4.66102 5.82768C4.69379 5.8005 4.7146 5.72541 4.7146 5.6344C4.7146 5.55255 4.73507 5.46857 4.76008 5.44783C4.78508 5.42709 4.93853 5.40547 5.10111 5.39984L5.39668 5.38956L5.39671 5.17382C5.39675 5.05518 5.40987 4.945 5.42585 4.92898C5.44187 4.913 5.58668 4.89988 5.74762 4.89988C5.91275 4.89988 6.05693 4.88323 6.07851 4.86165C6.09957 4.8406 6.1279 4.72255 6.14147 4.59932L6.1662 4.37523L6.46765 4.36519L6.76905 4.35515L6.79119 4.46575C6.80333 4.52657 6.8133 4.62986 6.8133 4.69527C6.8133 4.84301 6.89753 4.88239 7.21356 4.88239C7.3484 4.88239 7.44781 4.89943 7.46897 4.92611C7.488 4.95018 7.51192 5.06714 7.52217 5.18606C7.53242 5.30498 7.54991 5.41709 7.5611 5.43517C7.57226 5.45325 7.71812 5.47074 7.88521 5.47403C8.05227 5.47732 8.20215 5.48812 8.2182 5.49806C8.23426 5.50799 8.24741 5.58284 8.24741 5.66444C8.24741 5.74604 8.2663 5.83167 8.28938 5.85475C8.31947 5.88483 8.54717 5.89673 9.09266 5.89673C9.66635 5.89673 9.84555 5.90004 9.90135 5.8187C9.92885 5.77861 9.92637 5.71796 9.92637 5.62621C9.92637 5.53508 9.9358 5.48119 9.97958 5.44967V4.42769ZM9.97958 7.4791C9.96255 7.52141 9.91206 7.52761 9.71716 7.54064C9.57471 7.55017 9.50565 7.55314 9.4651 7.58866C9.42469 7.62407 9.41262 7.69183 9.38445 7.83067L9.36465 7.92829L9.09546 7.91812L8.8263 7.9079L8.79961 7.75051C8.78492 7.66394 8.7461 7.57345 8.71336 7.54939C8.68058 7.52536 8.55644 7.50567 8.43748 7.50567C8.22321 7.50567 8.22097 7.50465 8.19932 7.39636C8.18728 7.33624 8.17745 7.25058 8.17745 7.20598C8.17745 7.07353 8.05328 7.01599 7.7674 7.01599H7.51287L7.51238 6.90231C7.51122 6.62502 7.47446 6.59655 7.07574 6.56384L6.831 6.5438L6.8027 6.33394C6.78577 6.2082 6.75149 6.10655 6.71722 6.08035C6.63782 6.01967 6.23854 6.02303 6.18726 6.0848C6.16526 6.11131 6.13581 6.2247 6.12175 6.33681C6.09264 6.56947 6.06697 6.58626 5.72897 6.59333C5.62316 6.59553 5.51351 6.61194 5.48528 6.62977C5.45551 6.64863 5.42613 6.74016 5.41532 6.84785L5.39668 7.03348L5.13434 7.04352C4.83769 7.05488 4.75179 7.11623 4.75035 7.31777C4.7493 7.46716 4.69159 7.50392 4.41813 7.52945C4.16915 7.55271 4.15275 7.56635 4.10528 7.79007C4.08352 7.89258 4.00773 7.92417 3.7818 7.9249C3.57589 7.9256 3.52534 7.89814 3.52534 7.78562C3.52534 7.61413 3.42244 7.53033 3.19511 7.51669C2.93193 7.50088 2.86075 7.46055 2.86075 7.32725C2.86075 7.08976 2.85051 7.08594 2.2131 7.08594C1.85412 7.08594 1.70144 7.07372 1.63962 7.1428C1.58538 7.20341 1.60109 7.32663 1.60878 7.57562L1.61902 7.9079L1.89742 7.92539C2.20907 7.94498 2.22027 7.95642 2.22765 8.26215C2.22957 8.34155 2.25161 8.4235 2.27662 8.44424C2.30163 8.46498 2.45508 8.4866 2.61765 8.49223L2.91322 8.50251L2.92267 8.62493C2.92784 8.69226 2.94001 8.78303 2.9497 8.82668L2.96733 8.90597L3.81433 8.89663L4.6613 8.88726L4.68533 8.71909C4.72037 8.47394 4.74818 8.45428 5.07628 8.44267L5.3617 8.43256L5.38206 8.22014C5.39325 8.10332 5.41385 7.98919 5.42785 7.96656C5.44422 7.94008 5.56227 7.92539 5.75902 7.92539C5.95018 7.92539 6.08051 7.90965 6.10674 7.88342C6.13056 7.8596 6.14871 7.74554 6.14871 7.61976V7.39811L6.47226 7.40815L6.79581 7.41822L6.80641 7.64425C6.81225 7.76856 6.83387 7.89052 6.85444 7.91532C6.87861 7.94442 6.98078 7.96037 7.14318 7.96037C7.47313 7.96037 7.5236 7.99821 7.54715 8.26309L7.56533 8.46754L7.88888 8.47761L8.21243 8.48765V8.65998C8.21243 8.79457 8.22726 8.84025 8.28008 8.86855C8.38033 8.92217 9.83021 8.91695 9.88439 8.86278C9.90748 8.83969 9.92637 8.75564 9.92637 8.67603C9.92637 8.60062 9.93962 8.54912 9.97958 8.51458V7.4791ZM11.378 9.35995C11.3683 9.39314 11.3579 9.43095 11.3481 9.46942L11.3004 9.65675L11.0302 9.67424C10.7162 9.69456 10.6609 9.73965 10.6609 9.97546C10.6609 10.0355 10.6623 10.0726 10.6457 10.098C10.6172 10.1417 10.5356 10.1506 10.3029 10.1812C10.1199 10.2053 10.0313 10.2912 10.0313 10.4445C10.0313 10.5792 9.96813 10.6186 9.75228 10.6186C9.48431 10.6186 9.40169 10.6809 9.40169 10.8829V11.0383H9.10438H8.80706V10.9051C8.80706 10.6877 8.74631 10.6387 8.45172 10.6186L8.1955 10.6011L8.17123 10.4302C8.15783 10.3362 8.12943 10.2418 8.10806 10.2203C8.08672 10.1989 7.95664 10.1735 7.819 10.1639L7.5688 10.1464L7.53204 9.97256C7.48775 9.76287 7.40776 9.71072 7.12811 9.70918C7.0223 9.70862 6.91439 9.69463 6.88829 9.67809C6.86224 9.66158 6.82687 9.57298 6.80973 9.48124C6.79259 9.38949 6.76083 9.2931 6.73918 9.267C6.68133 9.1973 6.2752 9.203 6.20366 9.27449C6.17344 9.30474 6.14871 9.36536 6.14871 9.40919C6.14871 9.45305 6.13143 9.5385 6.11031 9.59908L6.0719 9.70922H5.7975C5.55356 9.70922 5.51701 9.71786 5.46863 9.78697C5.43869 9.82971 5.41417 9.91436 5.41417 9.97504C5.41417 10.1264 5.35551 10.1632 5.06463 10.1943C4.78648 10.224 4.75095 10.2531 4.75011 10.4513C4.74944 10.6124 4.68386 10.6534 4.46591 10.6288C4.26328 10.606 4.16691 10.6568 4.13771 10.802C4.11406 10.9194 4.10517 10.9786 4.07078 11.0084C4.03265 11.0415 3.96316 11.0383 3.80741 11.0383H3.53454L3.51562 10.8971C3.48641 10.6793 3.44818 10.6536 3.1538 10.6536H2.89573V10.4962C2.89573 10.3854 2.87499 10.3181 2.82578 10.2689C2.76208 10.2052 2.70958 10.1989 2.23989 10.1994C1.95615 10.1997 1.70444 10.2124 1.68055 10.2275C1.65085 10.2464 1.63428 10.387 1.62808 10.6729L1.61902 11.0908L1.91634 11.1083L2.21366 11.1258L2.23114 11.3531L2.24863 11.5805L2.56061 11.598L2.87261 11.6155L2.92809 11.8253L2.98356 12.0352H3.80534H4.62716L4.65706 11.8953C4.68872 11.7471 4.70314 11.6727 4.74822 11.6354C4.79528 11.5965 4.87574 11.598 5.0441 11.598C5.24281 11.598 5.34918 11.5836 5.36775 11.5543C5.38297 11.5302 5.40357 11.4318 5.41354 11.3356L5.43166 11.1608L5.694 11.1519C5.94235 11.1435 6.04383 11.142 6.08525 11.0913C6.11536 11.0545 6.11374 10.9917 6.11374 10.8815C6.11374 10.6944 6.12524 10.6499 6.18138 10.6198C6.2724 10.5712 6.73268 10.5731 6.76311 10.6223C6.77622 10.6435 6.79504 10.7616 6.80491 10.8846L6.82289 11.1083H7.13038C7.49996 11.1083 7.54785 11.1399 7.54785 11.3836C7.54785 11.4746 7.56673 11.5679 7.58982 11.591C7.61472 11.6159 7.73463 11.633 7.88465 11.633C8.16738 11.633 8.24741 11.6781 8.24741 11.8375C8.24741 11.8896 8.27193 11.9672 8.30187 12.0099C8.35511 12.0859 8.37211 12.0877 9.06265 12.0871C9.90342 12.0865 9.94973 12.0738 9.93252 11.8477C9.91566 11.6264 9.95683 11.598 10.2936 11.598C10.6365 11.598 10.6711 11.5716 10.6754 11.3076L10.6784 11.1258L10.9932 11.1083L11.308 11.0908L11.3255 10.8635L11.343 10.6361H11.6753H12.0076L12.0251 10.846L12.0426 11.0558L12.3459 11.0733C12.5127 11.0829 12.6609 11.1026 12.6753 11.1171C12.6896 11.1315 12.7133 11.2312 12.7279 11.3387C12.7614 11.5857 12.8178 11.6304 13.0978 11.6318C13.4006 11.6334 13.4242 11.6475 13.4242 11.8271C13.4242 12.0784 13.456 12.0877 14.3219 12.0877C15.0493 12.0877 15.0653 12.0861 15.1187 12.0099C15.1486 11.9672 15.1731 11.8759 15.1731 11.807C15.1731 11.6298 15.2221 11.598 15.4949 11.598C15.7923 11.598 15.8727 11.5356 15.8727 11.3048C15.8727 11.1225 15.8999 11.1095 16.2821 11.1088L16.5341 11.1083L16.5529 10.9946C16.5633 10.9321 16.568 10.8259 16.5633 10.7585L16.5548 10.6361L16.8521 10.6186L17.1494 10.6011V9.94398C17.1494 9.63853 17.1509 9.46199 17.1325 9.35995H16.607C16.5964 9.39964 16.5892 9.4502 16.5826 9.51443L16.5624 9.70922H16.2942C15.9693 9.70922 15.9021 9.74815 15.8911 9.94283C15.8805 10.1308 15.8546 10.1639 15.7181 10.1639C15.6546 10.1639 15.5293 10.174 15.4398 10.1862C15.2702 10.2095 15.2534 10.2304 15.2306 10.4452C15.2142 10.6003 15.1822 10.6186 14.9274 10.6186C14.6601 10.6186 14.6135 10.6543 14.6135 10.8587C14.6135 11.0222 14.5354 11.0733 14.2857 11.0733C14.0334 11.0733 13.9838 11.0386 13.9838 10.8619C13.9838 10.6765 13.9024 10.6186 13.6413 10.6186C13.4032 10.6186 13.3542 10.5776 13.3542 10.378C13.3542 10.23 13.2452 10.1639 13.001 10.1639C12.7796 10.1639 12.7448 10.1379 12.7103 9.94643C12.6745 9.74748 12.6152 9.70922 12.3428 9.70922C12.0583 9.70922 11.9901 9.65651 11.9901 9.43661C11.9901 9.40663 11.9887 9.38137 11.9856 9.35995H11.378ZM11.3323 12.8264C11.3467 12.7421 11.3828 12.6359 11.4127 12.5903C11.4603 12.5176 11.4942 12.5074 11.6866 12.5074C11.9395 12.5074 11.9899 12.5419 11.9906 12.7155C11.9916 12.9853 12.0043 12.9971 12.2938 12.9971C12.6347 12.9971 12.6816 13.0249 12.7107 13.2438C12.7388 13.456 12.7845 13.4867 13.0713 13.4867C13.3138 13.4867 13.3646 13.5331 13.4064 13.7928L13.4304 13.9414H13.6678C13.9381 13.9414 13.9634 13.9597 14.0076 14.1863L14.0382 14.3437L14.2457 14.3544C14.5732 14.3713 14.6017 14.3558 14.6214 14.151C14.6307 14.0541 14.6497 13.9634 14.6637 13.9494C14.6776 13.9354 14.8018 13.9161 14.9397 13.9065L15.1904 13.889L15.2258 13.7214C15.2453 13.6292 15.2847 13.5389 15.3134 13.5208C15.342 13.5026 15.4508 13.4876 15.5551 13.4873C15.7874 13.4866 15.8727 13.4224 15.8727 13.248C15.8727 13.0556 15.9506 12.9971 16.2065 12.9971C16.483 12.9971 16.5751 12.9315 16.6041 12.7141L16.6247 12.5598L16.8464 12.5494C16.9797 12.5431 17.0878 12.5552 17.1174 12.5799C17.1566 12.6124 17.1669 12.7497 17.1669 13.2424C17.1669 13.6728 17.1742 13.8253 17.105 13.8787C17.0607 13.9128 16.9851 13.9065 16.8562 13.9065C16.7462 13.9065 16.6373 13.9253 16.6142 13.9484C16.5911 13.9715 16.5722 14.0591 16.5722 14.1431C16.5722 14.4071 16.5421 14.4311 16.2107 14.4311C16.0325 14.4311 15.9056 14.4472 15.8797 14.4731C15.8566 14.4962 15.8377 14.59 15.8377 14.6817C15.8377 14.8883 15.7886 14.9208 15.477 14.9208C15.2207 14.9208 15.1727 14.9548 15.1547 15.1493C15.1484 15.2169 15.1443 15.2642 15.1205 15.2975C15.0642 15.376 14.8977 15.3755 14.3316 15.3755C13.9312 15.3755 13.5641 15.3605 13.5158 15.3421C13.4395 15.3131 13.4266 15.2844 13.4173 15.1235L13.4067 14.9383L13.1111 14.928C12.9486 14.9224 12.7951 14.9008 12.7701 14.88C12.7431 14.8576 12.7246 14.7657 12.7246 14.6533C12.7246 14.4827 12.7159 14.4611 12.6349 14.4302C12.5856 14.4115 12.4448 14.3961 12.3222 14.3961C12.1822 14.3961 12.0886 14.3799 12.0709 14.3524C12.0553 14.3284 12.0268 14.2232 12.0076 14.1187C11.9765 13.9499 11.9609 13.9253 11.8677 13.8985C11.734 13.86 11.3891 13.8954 11.3536 13.9514C11.3387 13.9748 11.3263 14.0681 11.326 14.1588C11.3254 14.3403 11.2471 14.4204 11.1123 14.3776C11.0734 14.3653 10.9637 14.3739 10.8685 14.3967C10.7912 14.4152 10.7466 14.4258 10.7179 14.4531C10.6785 14.4907 10.6693 14.5601 10.6469 14.7256C10.6367 14.801 10.6082 14.8755 10.5834 14.8912C10.5587 14.9069 10.4197 14.92 10.2744 14.9203C9.97618 14.9209 9.92637 14.9498 9.92637 15.1225C9.92637 15.2042 9.92825 15.2595 9.90331 15.297C9.84928 15.3781 9.66939 15.3755 9.07192 15.3755C8.4876 15.3755 8.31629 15.3815 8.26676 15.3068C8.2426 15.2704 8.24741 15.2147 8.24741 15.1298C8.24741 15.0556 8.22775 14.9821 8.20369 14.9666C8.17966 14.951 8.02617 14.9304 7.86265 14.9208L7.56533 14.9033L7.55495 14.7061C7.54071 14.435 7.49576 14.4017 7.12706 14.3889L6.83079 14.3786L6.80753 14.188C6.79266 14.0662 6.76178 13.9809 6.72215 13.9519C6.64915 13.8985 6.33221 13.8916 6.20345 13.9406C6.12426 13.9707 6.11374 13.9945 6.11374 14.1434C6.11374 14.2363 6.09485 14.3311 6.07176 14.3542C6.0464 14.3795 5.92349 14.3961 5.76122 14.3961C5.44338 14.3961 5.41784 14.4164 5.38944 14.6916C5.38007 14.7825 5.37464 14.8364 5.34549 14.8694C5.30275 14.9177 5.20898 14.921 4.97694 14.9294L4.73209 14.9383L4.72153 15.1016C4.71576 15.1915 4.69078 15.2818 4.66605 15.3023C4.59959 15.3574 3.04247 15.3897 2.97926 15.3373C2.95198 15.3146 2.93071 15.2328 2.93071 15.1506C2.93071 14.9193 2.88825 14.8893 2.54595 14.8781L2.24863 14.8683L2.23076 14.676C2.20474 14.3953 2.19347 14.3858 1.919 14.4133C1.61269 14.4441 1.59905 14.4264 1.576 13.9683C1.5647 13.7432 1.55795 13.6204 1.61568 13.552C1.68553 13.4692 1.8498 13.4662 2.21467 13.4579C2.79933 13.4448 2.84138 13.4637 2.88034 13.7574L2.90269 13.9258L3.1353 13.9132C3.33474 13.9024 3.37917 13.9111 3.44664 13.9748C3.49613 14.0215 3.52555 14.0908 3.52587 14.1614C3.52678 14.3474 3.55654 14.3656 3.84238 14.3541L4.10077 14.3437L4.12721 14.1882C4.16394 13.9721 4.2191 13.9299 4.48703 13.9128L4.71509 13.8983L4.73765 13.7571C4.77214 13.5414 4.8484 13.4867 5.11479 13.4867C5.23872 13.4867 5.35012 13.4705 5.36244 13.4506C5.37471 13.4307 5.39199 13.3562 5.40081 13.285C5.43264 13.0284 5.53656 12.9621 5.90701 12.9621C6.09453 12.9621 6.14871 12.9093 6.14871 12.7265C6.14871 12.5757 6.2066 12.5424 6.46852 12.5424C6.67262 12.5424 6.71172 12.5528 6.75884 12.6201C6.78878 12.6629 6.8133 12.7573 6.8133 12.83V12.9621L7.01443 12.9661C7.24948 12.9708 7.26064 12.9722 7.36459 13.009C7.46054 13.0429 7.54785 13.2013 7.54785 13.3413C7.54785 13.4652 7.59325 13.4867 7.85401 13.4867C8.07231 13.4867 8.17745 13.5503 8.17745 13.6823C8.17745 13.7261 8.19281 13.8024 8.21156 13.8517C8.2437 13.9362 8.2599 13.9414 8.49051 13.9414C8.72745 13.9414 8.73707 13.9448 8.78989 14.047C8.81994 14.1051 8.84001 14.1955 8.83452 14.2481L8.82455 14.3437L9.09091 14.3538L9.35731 14.3639L9.37595 14.1985C9.39953 13.9895 9.46396 13.9414 9.7207 13.9414C9.95673 13.9414 10.0313 13.8869 10.0313 13.7141C10.0313 13.5408 10.1057 13.4867 10.3443 13.4867C10.5785 13.4867 10.6232 13.4514 10.651 13.2447C10.678 13.0433 10.7417 13.0022 11.0457 12.99L11.3063 12.9796L11.3323 12.8264Z" fill="currentColor" fill-opacity="0.7"/>
<path fill-rule="evenodd" clip-rule="evenodd" d="M14.4831 1.35171V1.5572L14.2899 1.56182L14.0966 1.56646L14.0923 2.00632L14.0879 2.44617L14.0429 2.44867C14.0182 2.45003 13.924 2.45262 13.8336 2.45442L13.6691 2.4577L13.6645 2.6483C13.6604 2.81757 13.6564 2.84 13.6292 2.84865C13.6123 2.85401 13.5922 2.85725 13.5845 2.85587C13.5768 2.85449 13.4993 2.85422 13.4122 2.85531L13.254 2.85725L13.2419 3.28477L13.2298 3.71229H13.0204H12.8111L12.8002 4.03558C12.7943 4.21338 12.7894 4.50196 12.7894 4.67686V4.99486H12.5839H12.3783L12.3744 5.92389C12.3723 6.43486 12.3704 7.00278 12.3703 7.1859L12.3701 7.51888L12.5798 7.52348L12.7894 7.52809V7.74958V7.97107H13.0109H13.2324L13.237 8.18072L13.2416 8.39037L13.8623 8.38428L14.4831 8.37818V8.61037V8.84255H14.705H14.927V8.62386C14.927 8.47569 14.9334 8.3988 14.9468 8.38543C14.9614 8.3708 15.1247 8.3657 15.5798 8.3657H16.1931V8.16016V7.95462H16.4069H16.6207V7.74086V7.5271H16.8344H17.0482V6.2692V5.0113H16.8344H16.6207V4.35357V3.69585H16.4069H16.1931V3.28477V2.87369H15.9717H15.7502L15.7456 2.66404L15.741 2.45439L15.54 2.44977L15.3391 2.44517L15.3345 2.22779L15.3299 2.01043L15.137 2.00579L14.944 2.00117L14.9396 1.57827L14.9352 1.15538L14.7092 1.15081L14.4831 1.14624V1.35171ZM15.3381 5.82524V6.65561H15.5436H15.7492V6.86018C15.7492 7.00592 15.7551 7.0685 15.7697 7.07781C15.781 7.08499 15.8733 7.09363 15.9748 7.09698L16.1593 7.1031L16.1639 6.88347L16.1685 6.66384L16.3864 6.65925L16.6042 6.65466V6.43315V6.21165H16.3987H16.1931V5.60325V4.99486H15.7656H15.3381V5.82524ZM15.756 7.52574C15.7522 7.5295 15.7492 7.62753 15.7492 7.74361V7.95462H15.9712H16.1931V7.74178V7.52893L15.978 7.52391C15.8596 7.52115 15.7597 7.52197 15.756 7.52574Z" fill="currentColor" fill-opacity="0.7"/>
</svg>