<svg width="23" height="23" viewBox="0 0 23 23" fill="none" xmlns="http://www.w3.org/2000/svg">
<path d="M3.09961 16.3501H4.79961V14.6501H6.49961V12.9501H8.19961V11.2501H9.89961V9.55006H11.5996V7.85006H13.2996V6.15006H14.9996V4.45006H16.6996V2.75006H20.0996V6.15006H18.3996V7.85006H16.6996V9.55006H14.9996V11.2501H13.2996V12.9501H11.5996V14.6501H9.89961V16.3501H8.19961V18.0501H6.49961V19.7501H3.09961V16.3501ZM3.09961 2.75006H9.89961V7.85006H8.19961V9.55006H3.09961V2.75006ZM13.2996 14.6501H14.9996V12.9501H20.0996V19.7501H13.2996V14.6501ZM6.49961 7.85006H8.19961V6.15006H6.49961V7.85006ZM14.9996 16.3501H16.6996V14.6501H14.9996V16.3501Z" fill="currentColor"/>
<path d="M6.49961 7.85006H8.19961V6.15006H6.49961V7.85006Z" fill="currentColor"/>
<path d="M14.9996 16.3501H16.6996V14.6501H14.9996V16.3501Z" fill="currentColor"/>
</svg>
