<svg width="40" height="41" viewBox="0 0 40 41" fill="none" xmlns="http://www.w3.org/2000/svg">
  <rect y="0.5" width="40" height="40" rx="20" fill="#211F24" />
  <g clip-path="url(#clip0_8917_6377)">
    <path d="M20 37.5C29.3888 37.5 37 29.8888 37 20.5C37 11.1112 29.3888 3.5 20 3.5C10.6112 3.5 3 11.1112 3 20.5C3 29.8888 10.6112 37.5 20 37.5Z" fill="#FF8C00" />
    <path d="M20.0003 8.28418C14.9489 8.28418 10.8203 12.3885 10.8203 17.4642C10.8203 18.4842 10.9903 19.4799 11.306 20.4513C11.5246 21.107 12.2532 21.4713 12.9332 21.2528C13.5889 21.0342 13.9532 20.3056 13.7346 19.6256C13.4675 18.8728 13.346 18.0713 13.3703 17.2699C13.4675 13.8456 16.236 11.0285 19.6603 10.8585C23.4732 10.6642 26.6303 13.6999 26.6303 17.4642C26.6303 20.9856 23.8617 23.8756 20.3889 24.0699C20.3889 24.0699 19.1017 24.1428 18.4703 24.2399C18.1546 24.2885 17.9117 24.337 17.7417 24.3613C17.6689 24.3856 17.596 24.3127 17.6203 24.2399L17.8389 23.1713L19.0289 17.6828C19.1746 17.0028 18.7375 16.3228 18.0575 16.177C17.3775 16.0313 16.6975 16.4685 16.5517 17.1485C16.5517 17.1485 13.686 30.5056 13.6617 30.6513C13.516 31.3313 13.9532 32.0113 14.6332 32.157C15.3132 32.3028 15.9932 31.8656 16.1389 31.1856C16.1632 31.0399 16.5517 29.267 16.5517 29.267C16.8432 27.907 17.9603 26.9113 19.2717 26.7413C19.5632 26.6928 20.7046 26.6199 20.7046 26.6199C25.4403 26.2556 29.1803 22.297 29.1803 17.4642C29.1803 12.3885 25.0517 8.28418 20.0003 8.28418ZM20.656 29.4128C19.8303 29.2428 19.0046 29.7528 18.8346 30.6027C18.6646 31.4285 19.1746 32.2542 20.0246 32.4242C20.8503 32.5942 21.676 32.0842 21.846 31.2342C22.016 30.3842 21.506 29.5828 20.656 29.4128Z" fill="white" />
  </g>
  <defs>
    <clipPath id="clip0_8917_6377">
      <rect width="34" height="34" fill="white" transform="translate(3 3.5)" />
    </clipPath>
  </defs>
</svg>
  