<svg width="24" height="18" viewBox="0 0 24 18" fill="none" xmlns="http://www.w3.org/2000/svg">
<path d="M6.72006 2.48047H4.56006V6.80047H6.72006V4.64047V2.48047Z" fill="currentColor"/>
<path d="M6.71997 6.80078H8.87997V8.96078H6.71997V6.80078Z" fill="currentColor"/>
<path d="M8.88013 8.96094H11.0401V11.1209H8.88013V8.96094Z" fill="currentColor"/>
<path d="M19.68 2.48047H17.52V6.80047H19.68V4.64047V2.48047Z" fill="currentColor"/>
<path d="M15.3599 6.80078H17.5199V8.96078H15.3599V6.80078Z" fill="currentColor"/>
<path d="M13.2 8.96094H15.36V11.1209H13.2V8.96094Z" fill="currentColor"/>
<path d="M11.04 13.2811H8.87997V15.4411H6.71997V17.6011H17.52V15.4411H15.36V13.2811H13.2V11.1211H11.04V13.2811Z" fill="currentColor"/>
<path d="M19.6799 6.80078H21.8399V8.96078H19.6799V6.80078Z" fill="currentColor"/>
<path d="M21.8401 2.48047V6.80047H24.0001V2.48047H21.8401Z" fill="currentColor"/>
<path d="M19.6799 0.320312H21.8399V2.48031H19.6799V0.320312Z" fill="currentColor"/>
<path d="M2.3999 0.320312H4.5599V2.48031H2.3999V0.320312Z" fill="currentColor"/>
<path d="M2.39999 2.48047H0.23999V6.80047H2.39999V4.64047V2.48047Z" fill="currentColor"/>
<path d="M2.3999 6.80078H4.5599V8.96078H2.3999V6.80078Z" fill="currentColor"/>
<path d="M11.04 2.48031H17.52V0.320312H6.71997V2.48031H8.87997H11.04Z" fill="currentColor"/>
</svg>
