<svg xmlns="http://www.w3.org/2000/svg" width="22" height="23" viewBox="0 0 22 23" fill="none">
<g clip-path="url(#clip0_179_50095)">
<path d="M18.9191 7.53993L17.9012 6.53068C17.7739 6.40236 17.7028 6.22874 17.7028 6.04761V4.9305C17.6931 3.61393 16.6299 2.54858 15.3133 2.53671H14.1962C14.0161 2.53779 13.8425 2.46878 13.7131 2.34262L12.7039 1.32042C11.7625 0.380173 10.2379 0.380173 9.29645 1.32042L8.28719 2.34262C8.15888 2.46986 7.98526 2.54103 7.80412 2.54103H6.68702C5.37045 2.55073 4.3051 3.61391 4.29323 4.93048V6.03464C4.29755 6.21903 4.22853 6.39802 4.09914 6.53066L3.08556 7.54425C2.14531 8.4856 2.14531 10.0103 3.08556 10.9517L4.09914 11.9566C4.22638 12.0849 4.29755 12.2586 4.29755 12.4397V13.5568C4.30725 14.8734 5.37043 15.9387 6.687 15.9506V20.7382C6.687 21.3895 7.02344 21.9934 7.57767 22.3352C8.13082 22.677 8.82308 22.7083 9.40428 22.416L11.0001 21.2253L12.596 22.416C13.1772 22.7083 13.8694 22.677 14.4226 22.3352C14.9768 21.9934 15.3132 21.3895 15.3132 20.7382V15.9506C16.6309 15.9409 17.6973 14.8745 17.707 13.5568V12.4397C17.7059 12.2596 17.776 12.086 17.9011 11.9566L18.9147 10.943C19.8528 10.0039 19.855 8.4823 18.9191 7.53993ZM13.5148 20.8633C13.4695 20.8902 13.4134 20.8902 13.3681 20.8633L11.3841 19.4784C11.1415 19.3565 10.8546 19.3565 10.612 19.4784L8.6323 20.8891C8.58593 20.9129 8.52986 20.9107 8.48457 20.8837C8.44036 20.8568 8.41233 20.8083 8.41233 20.7554V16.2783L9.29651 17.1625C10.2379 18.1028 11.7625 18.1028 12.7039 17.1625L13.5881 16.2783V20.738C13.5881 20.7898 13.56 20.8385 13.5148 20.8633Z" fill="currentColor"/>
</g>
<defs>
<clipPath id="clip0_179_50095">
<rect width="22" height="22" fill="white" transform="translate(0 0.615234)"/>
</clipPath>
</defs>
</svg>