<svg width="10" height="16" viewBox="0 0 10 16" fill="none" xmlns="http://www.w3.org/2000/svg">
<path d="M6.43416 12.544V15.496C6.43416 15.832 6.28216 16 5.97816 16H3.84216C3.52216 16 3.36216 15.824 3.36216 15.472V12.568C3.36216 12.248 3.52216 12.088 3.84216 12.088H5.97816C6.28216 12.088 6.43416 12.24 6.43416 12.544ZM6.41016 9.40004V10.024C6.41016 10.36 6.24216 10.528 5.90616 10.528H4.01016C3.67416 10.528 3.50616 10.36 3.50616 10.024V9.37604C3.50616 8.84804 3.59416 8.42404 3.77016 8.10404C3.94616 7.76804 4.24216 7.43204 4.65816 7.09604L6.00216 5.99204C6.51416 5.59204 6.77016 5.15204 6.77016 4.67204V4.52804C6.77016 4.03204 6.65016 3.68004 6.41016 3.47204C6.18616 3.24804 5.81016 3.13604 5.28216 3.13604H4.85016C4.35416 3.13604 3.99416 3.24004 3.77016 3.44804C3.56216 3.65604 3.45816 4.01604 3.45816 4.52804V5.03204C3.45816 5.38404 3.29016 5.56004 2.95416 5.56004H0.914156C0.578156 5.56004 0.410156 5.38404 0.410156 5.03204V4.48004C0.410156 3.23204 0.754156 2.27204 1.44216 1.60004C2.13016 0.928041 3.10616 0.592041 4.37016 0.592041H5.78616C7.05016 0.592041 8.02616 0.928041 8.71416 1.60004C9.40216 2.27204 9.74616 3.23204 9.74616 4.48004V4.81604C9.74616 5.60004 9.38616 6.30404 8.66616 6.92804L7.03416 8.24804C6.61816 8.63204 6.41016 9.01604 6.41016 9.40004Z" fill="currentColor"/>
</svg>
