<svg xmlns="http://www.w3.org/2000/svg" width="48" height="48" fill="none" viewBox="0 0 48 48">
  <rect width="48" height="48" rx="10" ry="10" style="fill:#fff;fill-opacity:1"/>
  <path fill="#202020" d="M19.23 19.23a6.678 6.678 0 0 1 6.678-6.677h9.54a6.678 6.678 0 0 1 6.677 6.677v9.54a6.678 6.678 0 0 1-6.678 6.677h-9.54a6.678 6.678 0 0 1-6.677-6.677Z"/>
  <path fill="#fff" d="m28.205 28.293 3.347-9.063h.983l-3.347 9.063z"/>
  <path fill="#202020" d="M5.875 18.753a6.2 6.2 0 0 1 12.401 0v10.494a6.2 6.2 0 0 1-12.4 0Z"/>
  <path fill="#fff" d="M11.48 26.861V25.67h1.192v1.192z"/>
</svg>