<svg xmlns="http://www.w3.org/2000/svg" width="20" height="20" viewBox="0 0 20 20" fill="none">
  <path fill="currentColor" d="m3.172 8.826 2.119.878a12.228 12.228 0 0 0-.57 1.858l-.081.366 3.04 3.04.365-.078a12.158 12.158 0 0 0 1.858-.57l.879 2.12a.136.136 0 0 0 .1.082.136.136 0 0 0 .124-.038l1.329-1.33a2.195 2.195 0 0 0 .64-1.66l-.048-.853c2.46-1.817 4.948-5.002 5.626-10.56a.912.912 0 0 0-1.026-1.03c-5.556.683-8.744 3.174-10.56 5.626l-.85-.044a2.19 2.19 0 0 0-1.662.63L3.128 8.591a.138.138 0 0 0-.046.13c.009.05.043.088.09.105zm8.522-3.24a1.645 1.645 0 1 1 2.32 2.333 1.645 1.645 0 0 1-2.32-2.331zm-8.918 9.625a2.162 2.162 0 0 0-1.097-.087.197.197 0 0 1-.181-.055.2.2 0 0 1-.042-.225c.39-.836 1.422-2.52 3.292-1.16.02.018.03.043.03.07a.09.09 0 0 1-.03.068 2.031 2.031 0 0 0-.773 1.663.148.148 0 0 0 .142.143 2.027 2.027 0 0 0 1.662-.757.092.092 0 0 1 .073-.033c.027 0 .055.012.073.033.26.31.973 1.317.181 2.292-.345.415-.84.678-1.377.73-.767.082-2.185.334-2.764.995a.2.2 0 0 1-.344-.073c-.205-.7-.522-2.259 1.155-3.604z" style="stroke-width:.908313"/>
</svg>