<svg xmlns="http://www.w3.org/2000/svg" width="20" height="20" viewBox="0 0 20 20" fill="none">
  <path fill="currentColor" d="m2.726 9.002 2.333.967a13.462 13.462 0 0 0-.627 2.046l-.09.403 3.347 3.347.402-.086a13.385 13.385 0 0 0 2.046-.628l.967 2.334a.15.15 0 0 0 .11.09c.051.01.102-.006.137-.042l1.463-1.463a2.417 2.417 0 0 0 .705-1.828l-.053-.94c2.708-2 5.447-5.506 6.194-11.625A1.004 1.004 0 0 0 18.53.442c-6.117.752-9.626 3.495-11.625 6.194l-.937-.048a2.412 2.412 0 0 0-1.829.694L2.678 8.744a.152.152 0 0 0-.051.143c.01.054.048.097.099.115Zm9.382-3.566a1.811 1.811 0 1 1 2.555 2.568 1.811 1.811 0 0 1-2.555-2.567ZM2.29 16.032a2.38 2.38 0 0 0-1.207-.096.217.217 0 0 1-.2-.06.22.22 0 0 1-.046-.248c.43-.921 1.566-2.774 3.624-1.277.022.02.034.047.034.076a.1.1 0 0 1-.034.076 2.236 2.236 0 0 0-.851 1.831.163.163 0 0 0 .157.157 2.232 2.232 0 0 0 1.83-.833.101.101 0 0 1 .08-.037c.03 0 .06.013.08.037.286.34 1.071 1.45.2 2.523-.38.457-.925.746-1.517.804-.844.09-2.405.367-3.043 1.095a.22.22 0 0 1-.378-.08c-.226-.77-.575-2.487 1.271-3.968Z"/>
</svg>