<svg xmlns="http://www.w3.org/2000/svg" width="45" height="46" viewBox="0 0 45 46" fill="none">

<path d="M25.7075 4.7427C28.8979 5.42636 31.8507 6.94164 34.2665 9.13484C36.6822 11.328 38.475 14.1211 39.4629 17.2308C40.4507 20.3405 40.5986 23.6561 39.8915 26.8414C39.1844 30.0267 37.6474 32.9683 35.4365 35.3678C33.2255 37.7674 30.4193 39.5395 27.3025 40.5045C24.1856 41.4694 20.869 41.5929 17.689 40.8624C14.509 40.1318 11.5788 38.5732 9.1956 36.3447C6.81238 34.1162 5.06095 31.297 4.11895 28.1731" stroke="url(#angularGradient)" stroke-linecap="round" stroke-linejoin="round" />
<g filter="url(#filter0_f_36709_245024)">
<path d="M25.7075 4.7427C28.8979 5.42636 31.8507 6.94164 34.2665 9.13484C36.6822 11.328 38.475 14.1211 39.4629 17.2308C40.4507 20.3405 40.5986 23.6561 39.8915 26.8414C39.1844 30.0267 37.6474 32.9683 35.4365 35.3678C33.2255 37.7674 30.4193 39.5395 27.3025 40.5045C24.1856 41.4694 20.869 41.5929 17.689 40.8624C14.509 40.1318 11.5788 38.5732 9.1956 36.3447C6.81238 34.1162 5.06095 31.297 4.11895 28.1731" stroke="url(#gradient1)" stroke-width="2" stroke-linecap="round" stroke-linejoin="round" />
</g>
<defs>
<filter id="filter0_f_36709_245024" x="0.118683" y="0.742188" width="44.2125" height="44.5898" filterUnits="userSpaceOnUse" color-interpolation-filters="sRGB">
<feFlood flood-opacity="0" result="BackgroundImageFix"/>
<feBlend mode="normal" in="SourceGraphic" in2="BackgroundImageFix" result="shape"/>
<feGaussianBlur stdDeviation="1.5" result="effect1_foregroundBlur_36709_245024"/>
</filter>
<radialGradient id="gradient1" cx="0" cy="0" r="100" gradientUnits="userSpaceOnUse" gradientTransform="translate(21.8312 22.832) rotate(0) scale(1 1)">
<stop stop-color="white" stop-opacity="0"/>
<stop offset="0.601164" stop-color="white" stop-opacity="0"/>
<stop offset="0.687237" stop-color="white" stop-opacity="0"/>
<stop offset="0.795099" stop-color="#B6CFFF"/>
<stop offset="0.909063" stop-color="white"/>
</radialGradient>
<radialGradient id="gradient2" cx="0" cy="0" r="30" gradientUnits="userSpaceOnUse" gradientTransform="translate(28 10) rotate(20) scale(1 1)">
<stop stop-color="#0A0D1A" stop-opacity="0"/>
<stop offset="0.229954" stop-color="white" stop-opacity="0"/>
<stop offset="0.534063" stop-color="#00C2FF"/>
<stop offset="0.724063" stop-color="#B6CFFF"/>
<stop offset="0.909063" stop-color="white"/>
</radialGradient>
<linearGradient id="angularGradient" gradientTransform="rotate(130)">
<stop stop-color="#0A0D1A" stop-opacity="0"/>
<stop offset="0.229954" stop-color="white" stop-opacity="0"/>
<stop offset="0.534063" stop-color="#00C2FF"/>
<stop offset="0.724063" stop-color="#B6CFFF"/>
<stop offset="0.909063" stop-color="white"/>
</linearGradient>
    <radialGradient id="spinner-gradient">
      <stop offset="0%" stop-opacity="1" stop-color="white" />
      <stop offset="100%" stop-opacity="1" stop-color="#00C2FF" />
    </radialGradient>
      <linearGradient id="Gradient1" gradientTransform="rotate(90)">
            <stop offset="0%" stop-color="#ff0000"/>
            <stop offset="100%" stop-color="#00ff00"/>
        </linearGradient>
        <linearGradient id="Gradient2" gradientTransform="rotate(90)">
            <stop offset="0%" stop-color="#0000ff"/>
            <stop offset="100%" stop-color="#00ff00"/>
        </linearGradient>
        <pattern id="Pattern" x="0" y="0" width="600" height="600" patternUnits="userSpaceOnUse">
            <g transform="rotate(0, 300, 300)">
                <rect shape-rendering="crispEdges" x="0" y="0" width="300" height="600" fill="url(#Gradient1)"/>
                <rect shape-rendering="crispEdges"  x="300" y="0" width="300" height="600" fill="url(#Gradient2)"/>
            </g>
       </pattern>
</defs>
</svg>