<svg width="15" height="14" viewBox="0 0 15 14" fill="none" xmlns="http://www.w3.org/2000/svg">
<path fill-rule="evenodd" clip-rule="evenodd" d="M8.45234 1.15735L8.46177 0.799848L8.4712 0.442383L9.34165 0.451215L10.2121 0.46008L10.2219 0.684201L10.2317 0.908322H10.581C10.7731 0.908322 10.9591 0.923695 10.9942 0.942521C11.1039 1.00122 11.1584 1.15459 11.1584 1.40471V1.63879L11.4323 1.64231C11.583 1.64424 11.7481 1.64304 11.7993 1.63962C11.8504 1.6362 11.9289 1.65738 11.9736 1.68667C12.0524 1.73827 12.0549 1.75231 12.0549 2.1376V2.53528H12.4377C12.7136 2.53528 12.825 2.54686 12.8362 2.57678C12.8636 2.64966 12.8774 2.84131 12.8812 3.20033L12.885 3.55L13.2232 3.5412L13.2613 3.54018C13.4527 3.53499 13.5571 3.53217 13.614 3.58275C13.6821 3.64338 13.682 3.78074 13.6818 4.08276L13.6818 4.13284V4.62438L13.9558 4.63405L14.2297 4.64367L14.2383 7.11731C14.2392 7.37008 14.2403 7.5981 14.2413 7.80377C14.2483 9.29512 14.2498 9.61127 14.1281 9.66938C14.0954 9.68502 14.0537 9.68198 14.0009 9.67812H14.0008C13.9737 9.67614 13.9437 9.67395 13.9104 9.67395H13.6867L13.676 10.1567C13.6674 10.5412 13.6551 10.6458 13.6154 10.6708C13.588 10.6881 13.42 10.7024 13.2419 10.7027L12.9182 10.7032V11.1282C12.9182 11.4145 12.9051 11.5663 12.8783 11.5931C12.8528 11.6186 12.7233 11.6329 12.5194 11.6329H12.5107C12.2989 11.6329 12.1905 11.6329 12.1347 11.6871C12.0763 11.7438 12.0756 11.86 12.074 12.0978L12.074 12.1071C12.0726 12.3181 12.0591 12.5032 12.044 12.5184C12.0288 12.5336 11.8196 12.5535 11.5791 12.5626L11.1418 12.5792L11.1326 12.8947C11.1255 13.1428 11.1117 13.2189 11.0682 13.2516C11.0312 13.2793 10.8828 13.2931 10.6208 13.2931H10.2287V13.5094V13.7258L9.34052 13.717L8.45234 13.7081L8.44287 13.3678L8.43341 13.0275H7.95432H7.47523L7.46574 13.3508L7.45624 13.6742L6.74238 13.6771C6.34975 13.6788 5.93886 13.6715 5.82929 13.6609L5.63007 13.6417L5.62048 13.3512L5.61088 13.0607H5.20095C4.79777 13.0607 4.7901 13.0621 4.73531 13.1457C4.69424 13.2084 4.65619 13.228 4.59038 13.2204L4.50116 13.2101L4.4917 12.8697L4.48224 12.5294L4.14307 12.5259C3.56978 12.5199 3.50026 12.5141 3.44467 12.468C3.40188 12.4325 3.38903 12.3445 3.38159 12.0364L3.37226 11.6495L2.95217 11.6403C2.66012 11.6338 2.5213 11.618 2.49669 11.5883C2.4768 11.5644 2.45715 11.3571 2.4519 11.1161L2.44257 10.6866L2.0616 10.67L2.0279 10.6686C1.83114 10.6602 1.72418 10.6556 1.666 10.6C1.59669 10.5337 1.5966 10.3951 1.59642 10.0912L1.59639 10.0475L1.59589 9.60754H1.29686H0.997803L1.00634 7.10901L1.01484 4.61047L1.32196 4.60091L1.62909 4.59138V4.11355C1.62909 3.72342 1.63866 3.62613 1.68126 3.58353C1.72233 3.54249 1.81071 3.53137 2.09629 3.53137H2.45917V3.10607L2.45912 3.04626C2.45879 2.79503 2.45862 2.67189 2.52011 2.61008C2.57921 2.55066 2.69528 2.54791 2.92293 2.54252L2.97937 2.54115L3.40546 2.53039L3.39411 2.18306L3.39327 2.15761C3.38564 1.92663 3.38164 1.80548 3.44017 1.74195C3.50473 1.67188 3.64538 1.67192 3.94115 1.67199L3.97068 1.67199H4.45136V1.34401C4.45136 1.10293 4.46371 1.00581 4.49798 0.977352C4.56565 0.921205 4.71416 0.968586 4.73548 1.05312C4.75261 1.12096 4.7728 1.12424 5.18346 1.12663L5.61347 1.12909V0.863598L5.61324 0.807197C5.61249 0.688597 5.61202 0.612432 5.6483 0.563557C5.71343 0.475833 5.89698 0.476032 6.41 0.476586L6.54595 0.476682C7.24945 0.476682 7.37606 0.484219 7.42068 0.528844C7.46033 0.568521 7.47284 0.652326 7.47284 0.878373V1.17571L7.96259 1.16654L8.45234 1.15735ZM8.61835 1.6886L8.60902 1.28186L8.59969 0.875119H9.0998H9.5999L9.59057 1.28186L9.58124 1.6886H9.0998H8.61835ZM9.76386 2.53528V2.11924V1.70321L10.1872 1.7125L10.6105 1.7218L10.6199 2.12854L10.6292 2.53528H10.1965H9.76386ZM10.6935 3.56457V3.09877V2.63296L11.1335 2.64222L11.5734 2.65149L11.5827 3.10803L11.5919 3.56457H11.1427H10.6935ZM11.59 4.62913V4.16223V3.69533L11.9968 3.70466L12.4035 3.71399V4.16223V4.61047L11.9968 4.6198L11.59 4.62913ZM12.2209 5.029L12.3952 5.01894C12.4911 5.01342 12.6368 5.0117 12.7189 5.01508C12.8011 5.0185 12.9095 5.02222 12.9597 5.02339L13.051 5.02551V5.45715V5.88879H12.6359H12.2209V5.45888V5.029ZM12.219 6.12556L12.3278 6.11065C12.3877 6.10245 12.5488 6.10083 12.6857 6.10707C12.8227 6.11328 12.9539 6.11902 12.9772 6.11979C13.01 6.12088 13.0176 6.22175 13.0104 6.56115L13.0012 7.0011H12.6193H12.2375L12.2282 6.56331L12.219 6.12556ZM12.2209 7.68418C12.2209 7.30354 12.2275 7.25321 12.279 7.23926C12.3109 7.2306 12.4865 7.22578 12.6691 7.22854L13.0012 7.23352L13.0178 7.46594C13.0269 7.59377 13.0294 7.79176 13.0232 7.90588L13.0121 8.1134H12.6165H12.2209V7.68418ZM12.2209 9.24231V8.79406V8.34582H12.6276H13.0344V8.79406V9.24231H12.6276H12.2209ZM11.59 10.5678V10.1072C11.59 9.68647 11.595 9.64758 11.6481 9.65774C11.6801 9.66385 11.8668 9.67 12.0632 9.67139L12.4201 9.67395V10.087C12.4201 10.3142 12.4072 10.5081 12.3913 10.5179C12.3755 10.5277 12.1888 10.5429 11.9763 10.5517L11.59 10.5678ZM10.6676 11.1699C10.6624 10.9427 10.6657 10.7372 10.6748 10.7134C10.6873 10.6809 10.7959 10.67 11.1076 10.67H11.5236V11.1359V11.6017L11.1003 11.5924L10.6769 11.5831L10.6676 11.1699ZM9.73066 12.1199C9.73066 11.8947 9.74062 11.7004 9.7528 11.6883C9.76496 11.6761 9.95919 11.6661 10.1844 11.6661H10.5939V12.0978V12.5294H10.1623H9.73066V12.1199ZM8.64724 13.2184C8.65823 13.1773 8.66746 12.998 8.66769 12.8199L8.66816 12.4962H9.1164H9.56464V12.8947V13.2931H9.09591H8.62722L8.64724 13.2184ZM6.93122 4.18556H6.28875H6.28631H5.64122V4.72949C5.52041 4.75913 5.40112 4.79377 5.28361 4.83272H4.99613V4.93766L4.97959 4.94427V4.83272H4.33207V5.25183C4.1984 5.32491 4.06875 5.40166 3.94366 5.48063H3.69646V5.64328L3.68942 5.64811V5.48063H3.04189V6.12814H3.05447L3.05381 6.12869V6.12823H2.40628V6.71558C2.38547 6.73625 2.36551 6.75627 2.34641 6.7756H1.75171V7.42311H2.39924V7.42172L2.40628 7.4285V8.07067H3.04189V8.71813H3.68942V8.6849L3.72269 8.71823H3.69646V9.36574H4.34399V9.35527L4.35404 9.36598H4.33207V10.0135H4.97959V9.70393L4.99613 9.7094V10.0135H5.64122H5.64366H6.28631H6.28875H6.93384V10.0134H7.57649V10.0135H8.22401V9.48238C8.30438 9.44538 8.38381 9.40641 8.4622 9.36574H8.87615H8.87859H9.52368V8.71823H9.47623L9.53073 8.67667V8.71813H10.1783V8.13014C10.1999 8.11021 10.2213 8.09038 10.2423 8.07067H10.8233V7.4826C10.842 7.46216 10.8599 7.44234 10.8771 7.42321H11.4684V6.7757H10.839L10.8233 6.76041V6.12823H10.1758V6.18079C10.1546 6.16333 10.133 6.14577 10.1112 6.12814H10.1783V5.48063H9.53073V5.69467L9.52368 5.68983V5.48063H9.20333C9.09801 5.41529 8.98965 5.35148 8.87859 5.29001V4.83272H8.23106V4.97592L8.22401 4.973V4.83272H7.84668C7.75823 4.80362 7.66888 4.77692 7.57875 4.75292V4.18556H6.93384H6.93122ZM6.93122 9.36593H7.15414L7.15424 9.3658H6.93122V8.71828H7.56662L7.57649 8.69981V8.07067V8.07062V7.42321V7.42316V6.77575V6.7757V6.12823H7.58597V5.52046C7.57764 5.50683 7.56925 5.49342 7.5608 5.48023H6.93122V4.83307H6.28875V5.48024H5.64366H5.64122H5.58528L5.58507 5.48063H5.64366V6.12814H5.34197L5.34195 6.12823H5.64366V6.7757V6.77575V7.42316V7.42321V8.07062V8.07067V8.71813H5.62436L5.64122 8.75275V8.71823H6.28875V9.36574H5.99719L5.99735 9.36598H6.28631H6.28875H6.93122V9.36593ZM3.068 8.07062H3.05381V8.05674L3.068 8.07062Z" fill="currentColor"/>
</svg>
