<svg width="28" height="27" viewBox="0 0 28 27" fill="none" xmlns="http://www.w3.org/2000/svg">
<g clip-path="url(#clip0_28085_36603)">
<rect x="0.222656" y="0.0488281" width="26.9028" height="26.9028" rx="13.4514" fill="#00041D"/>
<path fill-rule="evenodd" clip-rule="evenodd" d="M4.42633 0.889648H22.922V4.2524H26.2849V22.7481H22.922V26.1109H26.2849V26.1111H1.06348V4.2525H4.42633V0.889648ZM4.42635 22.7481H1.06349V26.1109H4.42635V22.7481Z" fill="#333750"/>
<rect x="3.24937" y="3.07554" width="20.8497" height="20.8497" rx="10.4248" fill="#333750"/>
<g clip-path="url(#clip1_28085_36603)">
<path d="M13.6234 13.3318C14.8083 13.3318 15.7693 12.1648 15.7693 10.7255C15.7693 9.28615 15.4537 8.11914 13.6234 8.11914C11.7931 8.11914 11.4775 9.28615 11.4775 10.7255C11.4775 12.1648 12.4385 13.3318 13.6234 13.3318Z" fill="#676C80"/>
<path d="M9.57062 17.3115C9.57021 17.2241 9.57021 17.287 9.57062 17.3115V17.3115Z" fill="#676C80"/>
<path d="M17.6777 17.3795C17.6782 17.2129 17.679 17.3553 17.6777 17.3795V17.3795Z" fill="#676C80"/>
<path d="M17.6715 17.2066C17.632 14.6989 17.3043 13.9845 14.7983 13.5322C14.7983 13.5322 14.4457 13.9819 13.6234 13.9819C12.8012 13.9819 12.4485 13.5322 12.4485 13.5322C9.96997 13.9794 9.62228 14.6835 9.57656 17.1253C9.57281 17.3248 9.57115 17.3352 9.57031 17.3119C9.57031 17.3552 9.57073 17.4355 9.57073 17.5754C9.57073 17.5754 10.1674 18.7782 13.6234 18.7782C17.0795 18.7782 17.6762 17.5754 17.6762 17.5754V17.3806C17.6757 17.3943 17.6741 17.3668 17.6716 17.2065L17.6715 17.2066Z" fill="#676C80"/>
</g>
<rect x="3.24937" y="3.07554" width="20.8497" height="20.8497" rx="10.4248" stroke="#333750" stroke-width="0.672571"/>
</g>
<defs>
<clipPath id="clip0_28085_36603">
<rect x="0.222656" y="0.0488281" width="26.9028" height="26.9028" rx="13.4514" fill="white"/>
</clipPath>
<clipPath id="clip1_28085_36603">
<rect width="10.6586" height="10.6586" fill="white" transform="translate(8.29346 8.12012)"/>
</clipPath>
</defs>
</svg>
