<svg width="17" height="18" viewBox="0 0 17 18" fill="none" xmlns="http://www.w3.org/2000/svg">
<path fill-rule="evenodd" clip-rule="evenodd" d="M2.23338 1.19027L2.22275 1.94305L1.48955 1.95367L0.756348 1.9643L0.766895 2.77398L0.777441 3.58367L1.52939 3.5943L2.28135 3.60488V4.38531V5.1657H3.004H3.72666V5.98602V6.80633H4.42979H5.13291V7.60711V8.40789H5.8165H6.5001V9.2282V10.0485H5.8165H5.13291V10.8298V11.611H4.42979H3.72666V12.4118V13.2126H2.98447H2.24229V13.9938V14.7751H1.5001H0.75791V15.5555V16.3359L1.49033 16.3465L2.22275 16.3571L2.23334 17.1286L2.24393 17.9001H3.00482H3.76572V17.1384V16.3766H4.4485H5.13131L5.14186 15.5856L5.15244 14.7946L5.86533 14.7839L6.57822 14.7733V14.0124V13.2515L7.21299 13.2558L7.84775 13.26L7.85834 12.4941L7.86893 11.7282H8.57041H9.2719L9.28248 12.4997L9.29307 13.2712L9.9669 13.2819L10.6407 13.2925V14.0338V14.7751H11.3235H12.0063L12.0169 15.5661L12.0274 16.3571L12.5157 16.3616C12.7843 16.3641 13.0875 16.3685 13.1896 16.3714L13.3751 16.3766V17.1384V17.9001H14.1368H14.8985V17.1188V16.3376H15.6611H16.4236L16.413 15.5661L16.4024 14.7946L15.6505 14.784L14.8985 14.7734V13.993V13.2126H14.1563H13.4142V12.4118V11.611H12.7314H12.0486L12.038 10.8395L12.0274 10.068L11.3341 10.0574L10.6407 10.0467V9.2282V8.40969L11.3341 8.39902L12.0274 8.38836L12.038 7.61687L12.0486 6.84539H12.7509H13.4532V6.02508V5.20477H14.1751H14.8969L14.9075 4.39422L14.9181 3.58367L15.67 3.57305L16.422 3.56246V2.76336V1.96426L15.67 1.95367L14.9181 1.94305L14.9074 1.19109L14.8969 0.439141H14.136H13.3751V1.20086V1.96258H12.6915H12.0079V2.76246V3.56234L11.3146 3.57301L10.6212 3.58367V4.36492V5.14617L9.94736 5.15688L9.27354 5.16754V5.90883V6.65008H8.57127H7.86897L7.85838 5.89812L7.84775 5.14617L7.19346 5.13547L6.53916 5.12477V4.34445V3.56414H5.83604H5.13291V2.76336V1.96258H4.46971H3.80646L3.79588 1.21062L3.78525 0.458672L3.01463 0.448086L2.24396 0.4375L2.23338 1.19027Z" fill="currentColor"/>
</svg>
