<svg width="17" height="19" viewBox="0 0 17 19" fill="none" xmlns="http://www.w3.org/2000/svg">
<path fill-rule="evenodd" clip-rule="evenodd" d="M7.97369 0.337368C7.96563 0.385727 7.96906 0.592251 7.98135 0.796352L8.00361 1.16745L8.01127 0.708462C8.01853 0.271391 8.00572 0.144829 7.97369 0.337368ZM7.98817 2.71338L7.99894 3.53663L8.86663 3.53233L9.73431 3.52799V4.29108V5.05416H8.85665H7.97899V7.24166V9.42916H7.12128H6.26357V7.24311V5.05702L5.36592 5.04584L4.46828 5.03463L4.46784 5.77682C4.4676 6.18502 4.46784 7.86815 4.46836 9.51705L4.46931 12.5151H3.55128H2.63325V14.8686L2.63321 17.2221H3.52088H4.40851L4.41933 17.9894L4.43014 18.7567L9.7551 18.7596L15.0801 18.7626V17.9826V17.2026H15.9577H16.8354V14.1167V11.0307H15.9577H15.0801V9.44123C15.0801 8.09791 15.0717 7.86288 15.0262 7.92377C14.976 7.99104 14.9177 7.9944 14.1486 7.97428L13.3247 7.95268V8.69092V9.42916H12.467H11.6093V7.24022V5.05131L12.5036 5.06248C13.1763 5.07092 13.3884 5.06252 13.3596 5.02858C13.3372 5.00221 13.3261 4.68198 13.333 4.25706L13.3447 3.53065L11.5794 3.53069L9.8141 3.53073V2.71041V1.8901H8.89575H7.9774L7.98817 2.71338ZM14.9803 1.92916C14.9668 1.95065 14.9747 1.96823 14.9979 1.96823C15.0211 1.96823 15.0402 1.95065 15.0402 1.92916C15.0402 1.90768 15.0323 1.8901 15.0226 1.8901C15.0129 1.8901 14.9939 1.90768 14.9803 1.92916ZM0.917823 2.00729C0.917823 2.02877 0.935775 2.04635 0.957717 2.04635C0.979658 2.04635 0.997611 2.02877 0.997611 2.00729C0.997611 1.98581 0.979658 1.96823 0.957717 1.96823C0.935775 1.96823 0.917823 1.98581 0.917823 2.00729ZM15.0031 3.46237C15.0015 3.52147 15.0182 3.56979 15.0402 3.56979C15.087 3.56979 15.087 3.53975 15.0402 3.43307C15.0098 3.36385 15.0056 3.36717 15.0031 3.46237ZM0.87793 6.49948C0.87793 6.52096 0.896959 6.53854 0.920177 6.53854C0.943395 6.53854 0.951334 6.52096 0.93777 6.49948C0.924206 6.47799 0.905217 6.46041 0.895523 6.46041C0.885829 6.46041 0.87793 6.47799 0.87793 6.49948ZM7.85185 6.52616C7.88062 6.53745 7.91504 6.53604 7.92829 6.52307C7.94153 6.5101 7.918 6.50088 7.87595 6.50256C7.82947 6.50444 7.82002 6.5137 7.85185 6.52616ZM8.04929 12.5961L8.03883 14.1223L7.13125 14.1182L6.22367 14.114V15.6388V17.1635H7.10054H7.97736L7.98901 16.353L8.00066 15.5424L8.00975 16.353L8.01889 17.1635H10.6513H13.2838L13.2838 15.6401L13.2839 14.1167H12.4067H11.5295V13.2964V12.476H10.6319H9.73431V11.7729V11.0698H8.89703H8.0597L8.04929 12.5961ZM2.63325 18.726C2.63325 18.7475 2.65228 18.7651 2.6755 18.7651C2.69871 18.7651 2.70665 18.7475 2.69309 18.726C2.67953 18.7046 2.66054 18.687 2.65084 18.687C2.64115 18.687 2.63325 18.7046 2.63325 18.726Z" fill="currentColor"/>
</svg>
