<svg width="25" height="25" viewBox="0 0 25 25" fill="none" xmlns="http://www.w3.org/2000/svg">
<rect x="1.32556" y="1.15124" width="22.6975" height="22.6975" rx="11.3487" fill="#333750"/>
<g clip-path="url(#clip0_28604_20165)">
<path d="M12.6193 12.3172C13.9092 12.3172 14.9553 11.0468 14.9553 9.4799C14.9553 7.91301 14.6118 6.64258 12.6193 6.64258C10.6268 6.64258 10.2832 7.91301 10.2832 9.4799C10.2832 11.0468 11.3293 12.3172 12.6193 12.3172Z" fill="#676C80"/>
<path d="M8.20737 16.6485C8.20692 16.5533 8.20692 16.6218 8.20737 16.6485V16.6485Z" fill="#676C80"/>
<path d="M17.0332 16.7235C17.0337 16.5422 17.0346 16.6972 17.0332 16.7235V16.7235Z" fill="#676C80"/>
<path d="M17.0262 16.5351C16.9832 13.8052 16.6264 13.0275 13.8983 12.5352C13.8983 12.5352 13.5144 13.0247 12.6193 13.0247C11.7242 13.0247 11.3403 12.5352 11.3403 12.5352C8.6421 13.0219 8.26361 13.7884 8.21383 16.4467C8.20975 16.6638 8.20794 16.6751 8.20703 16.6498C8.20703 16.6969 8.20748 16.7844 8.20748 16.9367C8.20748 16.9367 8.857 18.2461 12.6194 18.2461C16.3817 18.2461 17.0312 16.9367 17.0312 16.9367V16.7246C17.0308 16.7395 17.029 16.7096 17.0262 16.5351L17.0262 16.5351Z" fill="#676C80"/>
</g>
<rect x="1.32556" y="1.15124" width="22.6975" height="22.6975" rx="11.3487" stroke="#333750" stroke-width="0.732176"/>
<defs>
<clipPath id="clip0_28604_20165">
<rect width="11.6032" height="11.6032" fill="white" transform="translate(6.81689 6.64258)"/>
</clipPath>
</defs>
</svg>
