
<svg width="15" height="16" viewBox="0 0 15 16" fill="none" xmlns="http://www.w3.org/2000/svg">
<g clip-path="url(#clip0_41855_189976)">
<path d="M2.79635 11.8835C1.54814 10.5398 1.02107 8.67824 1.38 6.87956C1.73902 5.08088 2.94052 3.56404 4.6092 2.80289C6.27788 2.04168 8.21111 2.12852 9.80465 3.03598L9.81227 3.09946L8.94644 3.96528H8.94695C7.66269 3.34219 6.15858 3.36657 4.89511 4.0313C3.63166 4.69552 2.75921 5.92137 2.54549 7.33265C2.33119 8.7438 2.8004 10.1729 3.80994 11.1823C4.81948 12.1918 6.24848 12.6611 7.65963 12.4468C9.0713 12.233 10.2967 11.3606 10.961 10.0972C11.6257 8.83373 11.6501 7.32961 11.027 6.04534L11.8928 5.17951L11.9563 5.18713V5.18764C12.5697 6.26471 12.815 7.51243 12.6551 8.74132C12.4956 9.97022 11.939 11.1138 11.0711 11.9985C11.2179 12.3986 11.4352 12.9775 11.5779 13.3568C11.613 13.4452 11.6018 13.5447 11.548 13.6234C11.4946 13.7016 11.4053 13.7479 11.3103 13.7468H9.99055C9.9093 13.7468 9.83109 13.7143 9.77371 13.657L9.33445 13.2177C7.80539 13.9093 6.04935 13.8921 4.53459 13.171L4.04861 13.657C3.99072 13.7143 3.91252 13.7468 3.83127 13.7468H2.51554C2.42058 13.7479 2.3317 13.7016 2.27788 13.6234C2.22406 13.5447 2.21288 13.4452 2.24792 13.3568C2.40534 12.9379 2.65113 12.2818 2.79637 11.8837L2.79635 11.8835ZM7.05229 7.07352H7.05279C6.6628 7.0461 6.29717 7.26293 6.13467 7.6184C5.97268 7.97388 6.04783 8.39281 6.32408 8.66906C6.60084 8.94531 7.01928 9.02097 7.37474 8.85898C7.73021 8.69648 7.94755 8.33035 7.91962 7.94086L11.5769 4.28006L12.2269 4.3542C12.3198 4.36486 12.4128 4.33236 12.4788 4.26584L13.6737 3.08009C13.7255 3.0283 13.7432 2.95111 13.7189 2.88205C13.695 2.81299 13.6336 2.76373 13.5604 2.7551L12.3721 2.6251L12.2421 1.43682C12.234 1.3642 12.1848 1.30224 12.1152 1.27838C12.0461 1.25451 11.9689 1.27177 11.9171 1.32357L10.7279 2.51286V2.51337C10.6613 2.57939 10.6288 2.67232 10.6395 2.76525L10.7136 3.41525L7.05229 7.07352ZM6.98119 5.87102H7.03197L8.07197 4.83102C7.10662 4.4979 6.04228 4.6218 5.17947 5.16719C4.3167 5.71308 3.74843 6.62163 3.6352 7.63615C3.52247 8.65076 3.87692 9.66181 4.59904 10.384C5.32115 11.1061 6.3322 11.4605 7.34685 11.3478C8.36196 11.2346 9.26994 10.6668 9.81581 9.80352C10.3612 8.94075 10.4851 7.8764 10.152 6.91102L9.11197 7.95102V8.0018C9.11248 8.56751 8.88802 9.10984 8.48787 9.51006C8.08822 9.91021 7.54588 10.1352 6.98013 10.1352C6.41493 10.1352 5.87209 9.91072 5.47239 9.51057C5.07224 9.11092 4.84778 8.56858 4.84778 8.00283C4.84778 7.43712 5.07274 6.89479 5.4729 6.49509C5.87305 6.09544 6.41543 5.87102 6.98119 5.87102Z" fill="currentColor"/>
</g>
<defs>
<clipPath id="clip0_41855_189976">
<rect width="13" height="13" fill="white" transform="translate(1 1)"/>
</clipPath>
</defs>
</svg>
