<svg xmlns="http://www.w3.org/2000/svg" width="134" height="134" fill="none" viewBox="0 0 134 134">
  <mask id="mask0_699_5101" width="134" height="134" x="0" y="0" maskUnits="userSpaceOnUse" style="mask-type:alpha">
    <path fill="#C4C4C4" d="M0 0h134v134H0z"/>
  </mask>
  <g mask="url(#mask0_699_5101)">
    <path fill="url(#paint0_linear_699_5101)" d="m87.962 64.32-.016-16.574-60.827-31.522v48.08l38.94 20.802 14.23-6.27L37.44 56.106l.032-18.218 50.49 26.433Z"/>
    <path fill="url(#paint1_linear_699_5101)" d="M50.76 44.842v5.663l-13.367 5.727.095-18.568 13.273 7.178Z"/>
    <path fill="url(#paint2_linear_699_5101)" d="m50.81 91.822 29.48-12.985-42.849-22.62 13.24-5.712 55.084 28.779-54.844 23.928-.111-11.39Z"/>
    <path fill="url(#paint3_linear_699_5101)" d="m37.489 87.977 13.16-5.679.288 20.898 54.828-23.913v17.835l-68.388 29.959.112-39.1Z"/>
    <path fill="url(#paint4_linear_699_5101)" d="m27.12 82.586 10.32 5.392-.063 39.035-10.258-5.153V82.586Z"/>
    <path fill="url(#paint5_linear_699_5101)" d="m40.152 76.78 10.497 5.519-13.209 5.679-10.32-5.392 13.032-5.807Z"/>
    <path fill="url(#paint6_linear_699_5101)" d="m105.765 56.6-.063-16.687-17.724 7.833v16.59l17.787-7.737Z"/>
    <path fill="url(#paint7_linear_699_5101)" d="m27.12 16.224 17.914-8.248 60.698 31.905-17.754 7.865-60.859-31.522Z"/>
  </g>
  <defs>
    <linearGradient id="paint0_linear_699_5101" x1="11.901" x2="119.372" y1="50.665" y2="50.665" gradientUnits="userSpaceOnUse">
      <stop stop-color="#FFD4B2"/>
      <stop offset=".36" stop-color="#9ACEB7"/>
      <stop offset=".67" stop-color="#47C8BB"/>
      <stop offset=".89" stop-color="#14C5BE"/>
      <stop offset="1" stop-color="#00C4BF"/>
    </linearGradient>
    <linearGradient id="paint1_linear_699_5101" x1="44.077" x2="44.077" y1="62.852" y2="21.217" gradientUnits="userSpaceOnUse">
      <stop stop-color="#00FECF"/>
      <stop offset=".08" stop-color="#00E5D0"/>
      <stop offset=".24" stop-color="#00A5D1"/>
      <stop offset=".48" stop-color="#0040D4"/>
      <stop offset=".54" stop-color="#0025D5"/>
      <stop offset="1"/>
    </linearGradient>
    <linearGradient id="paint2_linear_699_5101" x1="37.441" x2="146.891" y1="76.859" y2="76.859" gradientUnits="userSpaceOnUse">
      <stop stop-color="#FDEC9F"/>
      <stop offset=".08" stop-color="#E4D8A4"/>
      <stop offset=".24" stop-color="#A4A6B2"/>
      <stop offset=".47" stop-color="#3F57C8"/>
      <stop offset=".61" stop-color="#0025D5"/>
      <stop offset="1"/>
    </linearGradient>
    <linearGradient id="paint3_linear_699_5101" x1="15.06" x2="155.01" y1="103.18" y2="103.18" gradientUnits="userSpaceOnUse">
      <stop offset=".05" stop-color="#62A5FF"/>
      <stop offset=".45" stop-color="#1032D1"/>
      <stop offset="1"/>
    </linearGradient>
    <linearGradient id="paint4_linear_699_5101" x1="628.741" x2="797.782" y1="3244.93" y2="3247.12" gradientUnits="userSpaceOnUse">
      <stop stop-color="#FFD4B2"/>
      <stop offset=".36" stop-color="#9ACEB7"/>
      <stop offset=".67" stop-color="#47C8BB"/>
      <stop offset=".89" stop-color="#14C5BE"/>
      <stop offset="1" stop-color="#00C4BF"/>
    </linearGradient>
    <linearGradient id="paint5_linear_699_5101" x1="24.599" x2="72.583" y1="82.378" y2="82.378" gradientUnits="userSpaceOnUse">
      <stop stop-color="#00FECF"/>
      <stop offset=".08" stop-color="#00E5D0"/>
      <stop offset=".25" stop-color="#00A5D1"/>
      <stop offset=".49" stop-color="#0040D4"/>
      <stop offset=".56" stop-color="#0025D5"/>
    </linearGradient>
    <linearGradient id="paint6_linear_699_5101" x1="70.957" x2="189.069" y1="52.595" y2="50.458" gradientUnits="userSpaceOnUse">
      <stop stop-color="#00FECF"/>
      <stop offset=".05" stop-color="#00E5D0"/>
      <stop offset=".15" stop-color="#00A5D1"/>
      <stop offset=".29" stop-color="#0040D4"/>
      <stop offset=".33" stop-color="#0025D5"/>
    </linearGradient>
    <linearGradient id="paint7_linear_699_5101" x1="27.119" x2="173.642" y1="27.869" y2="27.869" gradientUnits="userSpaceOnUse">
      <stop stop-color="#FFD4AF"/>
      <stop offset=".1" stop-color="#E6D5BA"/>
      <stop offset=".31" stop-color="#A7D6D5"/>
      <stop offset=".61" stop-color="#43D9FF"/>
      <stop offset=".63" stop-color="#37B1D0"/>
      <stop offset=".65" stop-color="#2B8CA5"/>
      <stop offset=".67" stop-color="#216B7D"/>
      <stop offset=".7" stop-color="#184E5B"/>
      <stop offset=".72" stop-color="#10353F"/>
      <stop offset=".75" stop-color="#0A2228"/>
      <stop offset=".78" stop-color="#061316"/>
      <stop offset=".82" stop-color="#020809"/>
      <stop offset=".88" stop-color="#010202"/>
      <stop offset="1"/>
    </linearGradient>
  </defs>
</svg>