<svg width="62" height="61" viewBox="0 0 56.5 65" fill="none" xmlns="http://www.w3.org/2000/svg">
<path fill-rule="evenodd" clip-rule="evenodd" d="M39.7258 18.9434H5.05912C3.86742 18.9596 2.90598 19.9211 2.89246 21.11V44.223C2.89246 47.8603 4.33598 51.3511 6.91164 53.9241C9.48453 56.4997 12.9756 57.9433 16.6128 57.9433H39.7257C43.363 57.9433 46.8539 56.4998 49.4268 53.9241C52.0024 51.3512 53.446 47.8601 53.446 44.223V32.6665L53.4814 23.9637C53.4927 21.1943 51.2508 18.9434 48.4815 18.9434H39.7258ZM35.6691 27.1904C33.5311 25.762 31.0176 24.9997 28.4464 24.9998C26.7393 24.9998 25.0489 25.3361 23.4718 25.9893C21.8947 26.6426 20.4616 27.6001 19.2545 28.8072C18.0474 30.0143 17.0899 31.4473 16.4367 33.0245C15.7834 34.6016 15.4471 36.292 15.4471 37.9991C15.447 40.5703 16.2093 43.0838 17.6377 45.2218C19.0661 47.3597 21.0964 49.0261 23.4719 50.0101C25.8474 50.9941 28.4613 51.2516 30.9831 50.7501C33.505 50.2485 35.8214 49.0103 37.6395 47.1922C39.4576 45.3741 40.6958 43.0576 41.1974 40.5358C41.699 38.014 41.4415 35.4001 40.4574 33.0246C39.4734 30.6491 37.807 28.6188 35.6691 27.1904ZM28.4464 49.3739C28.4464 49.3739 24.2053 44.2814 24.2053 37.9991C24.2053 31.7175 28.4464 26.625 28.4464 26.625C28.4464 26.625 32.6875 31.7168 32.6875 37.9991C32.6875 44.2814 28.4464 49.3739 28.4464 49.3739Z" fill="currentColor"/>
<path d="M4.28832 16.25C4.66362 12.5983 7.74918 9.75 11.5 9.75H46.5C48.8472 9.75 50.75 11.6528 50.75 14V16.25H4.28832Z" stroke="currentColor" stroke-width="1.5"/>
</svg>
