<svg width="61" height="61" viewBox="0 0 61 61" fill="none" xmlns="http://www.w3.org/2000/svg">
<path d="M38.8333 18.9436H4.16667C2.97496 18.9599 2.01352 19.9213 2 21.1103V44.2232C2 47.8605 3.44352 51.3514 6.01918 53.9244C8.59207 56.4999 12.0831 57.9435 15.7203 57.9435H38.8333C42.4706 57.9435 45.9614 56.5 48.5344 53.9244C51.11 51.3515 52.5536 47.8604 52.5536 44.2232V32.6667C52.5536 29.0268 51.11 25.5386 48.5344 22.9629C45.9615 20.39 42.4705 18.9436 38.8333 18.9436ZM37.3871 44.2232C35.0498 44.2232 32.9455 42.8149 32.049 40.6564C31.1552 38.4978 31.6509 36.0116 33.303 34.3595C34.955 32.7074 37.4413 32.2118 39.5998 33.1056C41.7584 34.002 43.1667 36.1064 43.1667 38.4437C43.1667 39.9766 42.5573 41.4472 41.474 42.5305C40.3906 43.6139 38.92 44.2232 37.3871 44.2232Z" fill="#787E82"/>
<path d="M48.5344 22.9629C51.11 25.5386 52.5536 29.0268 52.5536 32.6667L52.6012 20.9517C52.6057 19.844 51.709 18.9436 50.6012 18.9436H38.8333C42.4705 18.9436 45.9615 20.39 48.5344 22.9629Z" fill="#787E82"/>
<path d="M37.3871 44.2232C35.0498 44.2232 32.9455 42.8149 32.049 40.6564C31.1552 38.4978 31.6509 36.0116 33.303 34.3595C34.955 32.7074 37.4413 32.2118 39.5998 33.1056C41.7584 34.002 43.1667 36.1064 43.1667 38.4437C43.1667 39.9766 42.5573 41.4472 41.474 42.5305C40.3906 43.6139 38.92 44.2232 37.3871 44.2232Z" fill="#787E82"/>
<path fill-rule="evenodd" clip-rule="evenodd" d="M27.078 42.4393C26.4694 43.1175 25.1273 44.8417 25.1273 46.8594C25.1273 48.8771 26.4694 50.6013 27.078 51.2795C23.1414 51.0762 19.9922 46.8594 19.9922 46.8594C19.9922 46.8594 23.1414 42.6425 27.078 42.4393ZM27.6654 42.4393C31.602 42.6425 34.7512 46.8594 34.7512 46.8594C34.7512 46.8594 31.602 51.0762 27.6654 51.2795C28.274 50.6013 29.6161 48.8771 29.6161 46.8594C29.6161 44.8417 28.274 43.1175 27.6654 42.4393Z" fill="#14141C"/>
<path fill-rule="evenodd" clip-rule="evenodd" d="M27.078 24.5C26.4694 25.1781 25.1273 26.9023 25.1273 28.9201C25.1273 30.9378 26.4694 32.662 27.078 33.3401C23.1414 33.1369 19.9922 28.9201 19.9922 28.9201C19.9922 28.9201 23.1414 24.7032 27.078 24.5ZM27.6654 24.5C31.602 24.7032 34.7512 28.9201 34.7512 28.9201C34.7512 28.9201 31.602 33.1369 27.6654 33.3401C28.274 32.662 29.6161 30.9378 29.6161 28.9201C29.6161 26.9023 28.274 25.1781 27.6654 24.5Z" fill="#14141C"/>
<path fill-rule="evenodd" clip-rule="evenodd" d="M18.6799 33.4554C22.6137 33.6635 25.759 37.8752 25.759 37.8752C25.759 37.8752 22.6137 42.0868 18.6799 42.2949C19.2922 41.6111 20.6275 39.8891 20.6275 37.8752C20.6275 35.8612 19.2922 34.1392 18.6799 33.4554ZM18.0791 33.4554C17.4668 34.1392 16.1315 35.8612 16.1315 37.8752C16.1315 39.8891 17.4668 41.6111 18.0791 42.2949C14.1453 42.0868 11 37.8752 11 37.8752C11 37.8752 14.1453 33.6635 18.0791 33.4554Z" fill="#14141C"/>
<path fill-rule="evenodd" clip-rule="evenodd" d="M36.0752 33.4554C35.4629 34.1392 34.1276 35.8612 34.1276 37.8752C34.1276 39.8891 35.4629 41.6111 36.0752 42.2949C32.1414 42.0868 28.9961 37.8752 28.9961 37.8752C28.9961 37.8752 32.1414 33.6635 36.0752 33.4554ZM36.676 33.4554C40.6098 33.6635 43.7551 37.8752 43.7551 37.8752C43.7551 37.8752 40.6098 42.0868 36.676 42.2949C37.2883 41.6111 38.6236 39.8891 38.6236 37.8752C38.6236 35.8612 37.2883 34.1392 36.676 33.4554Z" fill="#14141C"/>
<path d="M2.74219 11.4167C2.74219 9.62182 4.19726 8.16675 5.99219 8.16675H48.8047C50.5996 8.16675 52.0547 9.62182 52.0547 11.4167V16.9182H2.74219V11.4167Z" stroke="#787E82" stroke-width="1.5"/>
</svg>
