<svg width="40" height="41" viewBox="0 0 40 41" fill="none" xmlns="http://www.w3.org/2000/svg">
  <rect y="0.5" width="40" height="40" rx="20" fill="#211F24" />
  <path fill-rule="evenodd" clip-rule="evenodd" d="M29.6399 22.4555C29.9634 23.1597 30.9157 23.4084 31.4636 22.8605L32.4672 21.8569C33.5051 20.819 35.1881 20.819 36.226 21.8569C37.2639 22.8949 37.2639 24.5777 36.226 25.6158L28.1134 33.7284C26.1632 36.0467 23.2407 37.52 19.974 37.52C16.5708 37.52 13.5411 35.921 11.5952 33.4333L3.77847 25.6165C2.74051 24.5786 2.74051 22.8958 3.77847 21.8577C4.81643 20.8198 6.4993 20.8198 7.53726 21.8577L8.5264 22.8469C9.06227 23.3828 9.99256 23.1417 10.3091 22.4532C10.3716 22.3171 10.4056 22.1711 10.4056 22.0214V9.87866C10.4056 8.41077 11.5956 7.2208 13.0634 7.2208C14.5314 7.2208 15.7213 8.41077 15.7213 9.87866V16.0216C15.7213 16.5501 16.2626 16.9087 16.7665 16.7495C17.0854 16.6487 17.3157 16.3583 17.3157 16.024V6.15786C17.3157 4.68996 18.5056 3.5 19.9735 3.5C21.4415 3.5 22.6314 4.68996 22.6314 6.15786V16.0237C22.6314 16.3581 22.8618 16.6484 23.1807 16.7492C23.6845 16.9084 24.2257 16.5498 24.2257 16.0213V9.87866C24.2257 8.41077 25.4157 7.2208 26.8836 7.2208C28.3515 7.2208 29.5415 8.41077 29.5415 9.87866V22.0149C29.5415 22.1677 29.5762 22.3166 29.6399 22.4555Z" fill="#FD4848" />
  <path d="M28.4791 27.9524C28.4791 27.9524 24.6712 33.2681 19.9739 33.2681C15.2766 33.2681 11.4688 27.9524 11.4688 27.9524C11.4688 27.9524 15.2766 22.6367 19.9739 22.6367C24.6712 22.6367 28.4791 27.9524 28.4791 27.9524Z" fill="#D5FF5C" />
  <path d="M23.9586 27.9525C23.9586 30.1539 22.1739 31.9385 19.9724 31.9385C17.771 31.9385 15.9863 30.1539 15.9863 27.9525C15.9863 25.751 17.771 23.9663 19.9724 23.9663C22.1739 23.9663 23.9586 25.751 23.9586 27.9525Z" stroke="#FD4848" stroke-width="0.536584" />
  <path d="M22.3648 27.9529C22.3648 29.2736 21.2942 30.3442 19.9734 30.3442C18.6527 30.3442 17.582 29.2736 17.582 27.9529C17.582 26.6321 18.6527 25.5615 19.9734 25.5615C21.2942 25.5615 22.3648 26.6321 22.3648 27.9529Z" stroke="#FD4848" stroke-width="0.536584" />
  <path d="M25.5542 27.9524C25.5542 31.0346 23.0556 33.5332 19.9734 33.5332C16.8912 33.5332 14.3926 31.0346 14.3926 27.9524C14.3926 24.8702 16.8912 22.3716 19.9734 22.3716C23.0556 22.3716 25.5542 24.8702 25.5542 27.9524Z" stroke="#FD4848" stroke-width="0.536584" />
  <path d="M27.1499 27.9529C27.1499 31.9158 23.9373 35.1284 19.9743 35.1284C16.0114 35.1284 12.7988 31.9158 12.7988 27.9529C12.7988 23.9899 16.0114 20.7773 19.9743 20.7773C23.9373 20.7773 27.1499 23.9899 27.1499 27.9529Z" stroke="#FD4848" stroke-width="0.536584" />
  <path d="M20.7687 27.9522C20.7687 28.392 20.4121 28.7486 19.9723 28.7486C19.5324 28.7486 19.1758 28.392 19.1758 27.9522C19.1758 27.5124 19.5324 27.1558 19.9723 27.1558C20.4121 27.1558 20.7687 27.5124 20.7687 27.9522Z" fill="#162BEB" stroke="#FD4848" stroke-width="0.536584" />
  <path d="M19.9727 29.0148C20.5597 29.0148 21.0356 28.539 21.0356 27.952C21.0356 27.365 20.5597 26.8892 19.9727 26.8892C19.3858 26.8892 18.9099 27.365 18.9099 27.952C18.9099 28.539 19.3858 29.0148 19.9727 29.0148Z" fill="#FD4848" />
  <path d="M11.8508 28.0172C11.8327 27.9939 11.816 27.9725 11.8008 27.9526C11.816 27.9328 11.8327 27.9113 11.8508 27.888C11.9616 27.7458 12.1259 27.5416 12.3379 27.2962C12.7621 26.8049 13.3757 26.1504 14.133 25.4964C15.656 24.1815 17.7208 22.9033 19.973 22.9033C22.2251 22.9033 24.2899 24.1815 25.8129 25.4964C26.5702 26.1504 27.1838 26.8049 27.6081 27.2962C27.82 27.5416 27.9842 27.7457 28.0952 27.888C28.1133 27.9113 28.1299 27.9328 28.1452 27.9526C28.1299 27.9725 28.1133 27.9939 28.0952 28.0172C27.9842 28.1594 27.82 28.3636 27.6081 28.609C27.1838 29.1002 26.5702 29.7548 25.8129 30.4088C24.2899 31.7237 22.2251 33.0019 19.973 33.0019C17.7208 33.0019 15.656 31.7237 14.1331 30.4088C13.3757 29.7548 12.7621 29.1002 12.3379 28.609C12.1259 28.3636 11.9616 28.1594 11.8508 28.0172Z" stroke="#D5FF5C" stroke-width="0.536584" />
</svg>
  