<svg width="47" height="71" viewBox="0 0 47 71" fill="none" xmlns="http://www.w3.org/2000/svg">
  <path d="M45.6438 47.482L32.4215 26.2409C32.0512 25.6089 31.8534 24.8907 31.8479 24.1583V12.9655H33.2532C33.4871 12.9679 33.7192 12.9239 33.936 12.8361C34.1527 12.7483 34.35 12.6184 34.5162 12.4539C34.6825 12.2893 34.8145 12.0935 34.9046 11.8776C34.9946 11.6617 35.041 11.4301 35.041 11.1962C35.041 10.9623 34.9946 10.7307 34.9046 10.5149C34.8145 10.299 34.6825 10.1031 34.5162 9.93859C34.35 9.77406 34.1527 9.64413 33.936 9.55631C33.7192 9.4685 33.4871 9.42454 33.2532 9.42698L13.8342 9.42505C13.365 9.42505 12.915 9.61144 12.5832 9.94322C12.2514 10.275 12.065 10.725 12.065 11.1942C12.065 11.6634 12.2514 12.1134 12.5832 12.4452C12.915 12.7769 13.365 12.9633 13.8342 12.9633H15.2394V24.1566C15.235 24.8891 15.0371 25.6074 14.6659 26.239L1.39107 47.482C0.682466 48.6059 0.289274 49.8998 0.252792 51.2279C0.21631 52.5561 0.537882 53.8695 1.18372 55.0307C2.53816 57.4269 4.9326 58.8824 7.69115 58.8824H39.2408C40.5732 58.8928 41.8833 58.5396 43.0299 57.8609C44.1765 57.1823 45.1164 56.2037 45.7483 55.0307C47.1515 52.6344 47.0477 49.8247 45.6426 47.482H45.6438ZM42.7275 53.3632C42.387 53.9766 41.889 54.4881 41.2849 54.8448C40.6807 55.2014 39.9923 55.3904 39.2907 55.3922L7.74333 55.3941C7.04045 55.3987 6.34951 55.2124 5.74423 54.855C5.13895 54.4977 4.64205 53.9827 4.30651 53.3651C3.95229 52.7525 3.77446 52.0538 3.79274 51.3464C3.81102 50.6389 4.02468 49.9503 4.41007 49.3568L17.6326 28.1159C18.3707 26.9271 18.7668 25.5578 18.7773 24.1585L18.7793 12.9655H28.3576V24.1585C28.3429 25.5613 28.7411 26.9375 29.5023 28.1159L42.7246 49.3568C43.0715 49.9674 43.2541 50.6575 43.2545 51.3597C43.2548 52.062 43.0729 52.7523 42.7265 53.3632H42.7275Z" fill="url(#paint0_linear_12753_156841)" />
  <path d="M30.2624 70.4768L30.2504 70.4658C30.2597 70.4768 30.2624 70.4768 30.2624 70.4768C30.2603 70.4753 29.2941 68.9294 27.3637 65.839V59.462C26.8707 59.0466 26.3546 58.6595 25.8178 58.3025C22.9622 56.4027 21.6938 56.8055 20.7935 55.4039C19.8158 53.8823 20.3308 51.8818 20.5646 51.4926C20.584 51.46 20.6064 51.4265 20.6064 51.4265C20.7513 51.2033 21.1799 50.6041 21.6437 50.6536C22.0366 50.6951 22.1222 51.1664 22.7645 51.7164C23.4844 52.3321 23.6828 52.0424 24.0701 52.4625C24.1854 52.5876 24.2701 52.7157 24.3332 52.8462C24.7097 53.6258 24.3102 54.4879 25.0025 55.2601C25.0168 55.2759 25.0301 55.2889 25.0566 55.3152C26.3863 56.6449 27.951 56.5937 29.1024 57.5299C29.6456 57.9883 30.0476 58.5914 30.2618 59.2691L30.2624 70.4768Z" fill="url(#paint1_linear_12753_156841)" />
  <path d="M20.5646 51.4926C20.584 51.46 20.6064 51.4265 20.6064 51.4265C20.7513 51.2033 21.1799 50.6041 21.6437 50.6536C22.0366 50.6951 22.1222 51.1664 22.7645 51.7164C23.4844 52.3321 23.6828 52.0424 24.0701 52.4625C24.1854 52.5876 24.2701 52.7157 24.3332 52.8462C22.1244 48.3923 31.7765 42.2812 36.7764 39.9563C36.7764 39.9563 37.7963 39.9224 35.2963 37.4224C21.4688 44.5241 19.5431 48.6617 20.5646 51.4926Z" fill="url(#paint2_linear_12753_156841)" />
  <path fill-rule="evenodd" clip-rule="evenodd" d="M40.5073 25.3657C38.5639 23.5558 36.1647 23.4315 35.0823 23.3754L35.0802 23.3753C33.9824 23.3214 32.8832 23.4435 31.8241 23.7371C30.4003 24.1363 29.3527 24.7713 28.4241 25.6136C28.601 26.4899 28.941 27.3299 29.431 28.0882L29.6694 28.4712C30.4024 27.5846 31.2968 26.8681 32.5812 26.4175C33.4436 26.0852 34.3856 26.018 35.2866 26.2243C37.5019 26.7907 38.9526 29.2256 39.1514 31.0554C39.3922 33.2713 37.923 35.7562 35.2523 37.4396L36.8188 39.9561C38.0127 39.1645 39.1799 38.1603 40.1455 36.9433L40.1461 36.9425C41.0394 35.8165 43.346 32.9087 42.6781 29.3456C42.3872 27.825 41.6282 26.4335 40.5073 25.3657ZM10.2034 39.8474L12.8962 35.5219C12.8108 35.4942 12.7255 35.4644 12.6401 35.4326C12.2633 35.2923 9.56397 33.893 8.81225 32.021C7.80004 29.5002 9.75916 26.7582 9.89656 26.5716C11.668 24.1601 14.8682 23.2656 18.673 22.8796L18.6735 20.1048C14.4705 20.4916 10.7381 21.0239 8.81225 22.5527C6.7573 24.1838 4.70332 27.2728 4.36766 29.1229C4.14037 30.58 4.18803 32.0666 4.50816 33.5061C4.69389 34.3298 4.99853 35.122 5.41252 35.8579C6.89238 38.4473 9.3829 39.5138 10.1447 39.8238C10.1646 39.8319 10.1842 39.8398 10.2034 39.8474ZM28.2826 19.1334C34.1564 18.2293 38.9899 16.3557 39.0338 11.1245C38.6684 8.35123 35.7867 5.74805 32.9677 5.16079L32.9512 5.1575V5.16079H23.6008C23.3981 5.11647 23.2165 5.00437 23.0861 4.84297C22.9557 4.68157 22.8842 4.48053 22.8834 4.27303V3.1182C22.8834 2.43989 23.1529 1.78937 23.6325 1.30973C24.1122 0.830089 24.7627 0.560632 25.441 0.560632H28.9884L28.9905 0.564495H30.5057C30.6812 0.539831 30.858 0.525956 31.0352 0.522949H31.8082C32.3046 0.522949 37.7987 1.25283 41.0553 6.19735C41.8117 7.35147 42.3785 8.61929 42.734 9.95264C43.3568 14.1568 40.6634 17.4679 40.1177 18.1075C37.4378 21.2485 33.719 21.8883 31.0028 22.3556C29.8246 22.5583 29.1336 22.5773 28.2826 22.5618V19.1334ZM25.8802 3.73825C26.5705 3.73825 27.1302 3.17861 27.1302 2.48825C27.1302 1.79789 26.5705 1.23825 25.8802 1.23825C25.1898 1.23825 24.6302 1.79789 24.6302 2.48825C24.6302 3.17861 25.1898 3.73825 25.8802 3.73825Z" fill="url(#paint3_linear_12753_156841)" />
  <circle cx="24.5" cy="24" r="2" fill="#8EFF9C" />
  <circle cx="24.5" cy="24" r="2" fill="#8EFF9C" />
  <circle cx="21.5" cy="30" r="1" fill="#8EFF9C" />
  <g filter="url(#filter0_b_12753_156841)">
    <path fill-rule="evenodd" clip-rule="evenodd" d="M19.3038 37H14.4997L14.0594 37.7583C14.8567 37.7691 15.7227 37.7666 16.3649 37.7272C17.1703 37.6778 17.8954 37.5058 19.3038 37ZM11.0279 42.9791C13.6668 43.6424 18.987 43.4979 23.3978 40.1134C24.1419 39.5528 24.8373 38.9305 25.4767 38.2529C25.8854 37.8142 26.1852 37.4605 26.4341 37.1433C26.4724 37.0944 26.5098 37.0467 26.5462 37H32.4997L39.7553 49.4957C40.5295 50.8291 39.5675 52.5 38.0257 52.5H8.9737C7.43191 52.5 6.46994 50.8291 7.24413 49.4957L11.0279 42.9791Z" fill="url(#paint4_linear_12753_156841)" />
  </g>
  <path d="M32.5811 26.4176C32.3234 25.5158 32.0658 24.614 31.8081 23.7122C31.3961 24.0123 29.3553 24.9479 28.6403 25.5406C26.8025 26.5136 25.6133 29.7569 22.7257 32.4081C19.8381 35.0593 17.9873 35.4151 15.7753 35.7029C14.2199 35.8759 12.6942 35.5407 12.6942 35.5407L10.1455 39.8238C10.1455 39.8238 10.448 39.943 10.6596 40.0186C12.9025 40.82 18.9578 40.7755 23.6841 36.7625C24.3996 36.1658 25.0634 35.5098 25.6686 34.8014C26.0551 34.3431 26.337 33.9749 26.5699 33.6458C27.6221 32.1579 27.8839 31.6792 28.5989 30.6608C28.8384 30.3239 29.0961 29.9831 29.3719 29.6383C30.3255 28.455 31.4012 27.3754 32.5811 26.4176Z" fill="url(#paint5_linear_12753_156841)" />
  <defs>
    <filter id="filter0_b_12753_156841" x="2.9707" y="33" width="41.0576" height="23.5" filterUnits="userSpaceOnUse" color-interpolation-filters="sRGB">
      <feFlood flood-opacity="0" result="BackgroundImageFix" />
      <feGaussianBlur in="BackgroundImageFix" stdDeviation="2" />
      <feComposite in2="SourceAlpha" operator="in" result="effect1_backgroundBlur_12753_156841" />
      <feBlend mode="normal" in="SourceGraphic" in2="effect1_backgroundBlur_12753_156841" result="shape" />
    </filter>
    <linearGradient id="paint0_linear_12753_156841" x1="0.25" y1="50.3759" x2="46.75" y2="50.3759" gradientUnits="userSpaceOnUse">
      <stop stop-color="#4FFFB0" />
      <stop offset="1" stop-color="#B3FF8F" />
    </linearGradient>
    <linearGradient id="paint1_linear_12753_156841" x1="5.66648" y1="75.2485" x2="39.9577" y2="43.6415" gradientUnits="userSpaceOnUse">
      <stop stop-color="#4FFFB0" />
      <stop offset="0.5" stop-color="#B3FF8F" />
      <stop offset="1" stop-color="#ECB35F" />
    </linearGradient>
    <linearGradient id="paint2_linear_12753_156841" x1="5.66648" y1="75.2485" x2="39.9577" y2="43.6415" gradientUnits="userSpaceOnUse">
      <stop stop-color="#4FFFB0" />
      <stop offset="0.5" stop-color="#B3FF8F" />
      <stop offset="1" stop-color="#ECB35F" />
    </linearGradient>
    <linearGradient id="paint3_linear_12753_156841" x1="5.5" y1="15.5" x2="42" y2="40.5" gradientUnits="userSpaceOnUse">
      <stop stop-color="#4FFFB0" />
      <stop offset="0.5" stop-color="#B3FF8F" />
      <stop offset="1" stop-color="#FF984E" />
    </linearGradient>
    <linearGradient id="paint4_linear_12753_156841" x1="40.3885" y1="36" x2="40.3885" y2="52.0333" gradientUnits="userSpaceOnUse">
      <stop stop-color="#4FFFB0" stop-opacity="0" />
      <stop offset="1" stop-color="#70FFA6" />
    </linearGradient>
    <linearGradient id="paint5_linear_12753_156841" x1="10.1455" y1="32.0697" x2="32.5811" y2="32.0697" gradientUnits="userSpaceOnUse">
      <stop stop-color="#4FFFB0" />
      <stop offset="1" stop-color="#B3FF8F" />
    </linearGradient>
  </defs>
</svg>
  