<svg width="18" height="17" viewBox="0 0 18 17" fill="none" xmlns="http://www.w3.org/2000/svg">
<path d="M1.55718 3.65568C1.55718 4.83413 2.26695 5.8967 3.35539 6.34779C4.44487 6.79889 5.69783 6.54955 6.53063 5.71563C7.36454 4.88276 7.61388 3.6298 7.16279 2.5404C6.71169 1.45195 5.64912 0.742188 4.47067 0.742188C2.86181 0.742188 1.55718 2.04682 1.55718 3.65568ZM5.79506 3.65568C5.79506 4.19161 5.47224 4.67378 4.97771 4.87966C4.48315 5.08452 3.91307 4.97071 3.53439 4.59204C3.15571 4.21336 3.0419 3.64328 3.24677 3.14872C3.45266 2.65416 3.93482 2.33137 4.47075 2.33137C4.82149 2.33137 5.1588 2.47104 5.40711 2.71934C5.65543 2.96765 5.79506 3.30491 5.79506 3.65568Z" fill="currentColor"/>
<path d="M5.79506 3.65568C5.79506 4.19161 5.47224 4.67378 4.97771 4.87966C4.48315 5.08452 3.91307 4.97071 3.53439 4.59204C3.15571 4.21336 3.0419 3.64328 3.24677 3.14872C3.45266 2.65416 3.93482 2.33137 4.47075 2.33137C4.82149 2.33137 5.1588 2.47104 5.40711 2.71934C5.65543 2.96765 5.79506 3.30491 5.79506 3.65568Z" fill="currentColor"/>
<g opacity="0.2">
<path d="M16.952 13.1142C16.952 11.9358 16.2423 10.8732 15.1538 10.4221C14.0643 9.97102 12.8114 10.2204 11.9786 11.0543C11.1447 11.8871 10.8953 13.1401 11.3464 14.2295C11.7975 15.318 12.8601 16.0277 14.0385 16.0277C15.6474 16.0277 16.952 14.7231 16.952 13.1142ZM12.7142 13.1142C12.7142 12.5783 13.037 12.0961 13.5315 11.8902C14.0261 11.6854 14.5961 11.7992 14.9748 12.1779C15.3535 12.5566 15.4673 13.1266 15.2624 13.6212C15.0566 14.1157 14.5744 14.4385 14.0385 14.4385C13.307 14.4385 12.7142 13.8457 12.7142 13.1142Z" fill="currentColor"/>
<path d="M12.7142 13.1142C12.7142 12.5783 13.037 12.0961 13.5315 11.8902C14.0261 11.6854 14.5961 11.7992 14.9748 12.1779C15.3535 12.5566 15.4673 13.1266 15.2624 13.6212C15.0566 14.1157 14.5744 14.4385 14.0385 14.4385C13.307 14.4385 12.7142 13.8457 12.7142 13.1142Z" fill="currentColor"/>
</g>
<path d="M4.12268 8.56494L4.71908 7.86402L4.12268 7.35657L3.52629 7.86402L4.12268 8.56494ZM3.20237 8.56494V11.6556H5.043V8.56494H3.20237ZM6.88362 15.3368H8.85148V13.4962H6.88362V15.3368ZM3.52629 9.26586L6.58768 11.8707L7.78047 10.4689L4.71908 7.86402L3.52629 9.26586ZM3.52629 7.86402L0.553511 10.3935L1.74629 11.7953L4.71908 9.26586L3.52629 7.86402ZM3.20237 11.6556C3.20237 13.6887 4.85052 15.3368 6.88362 15.3368V13.4962C5.86707 13.4962 5.043 12.6721 5.043 11.6556H3.20237Z" fill="currentColor"/>
<path d="M14.7513 7.80908L14.1549 8.51L14.7513 9.01745L15.3477 8.51L14.7513 7.80908ZM15.6717 7.80908V4.71844H13.831V7.80908H15.6717ZM11.9904 1.03719H10.0225V2.87782H11.9904V1.03719ZM15.3477 7.10816L12.2863 4.50332L11.0936 5.90516L14.1549 8.51L15.3477 7.10816ZM15.3477 8.51L18.3205 5.98055L17.1277 4.57871L14.1549 7.10816L15.3477 8.51ZM15.6717 4.71844C15.6717 2.68534 14.0235 1.03719 11.9904 1.03719V2.87782C13.007 2.87782 13.831 3.70189 13.831 4.71844H15.6717Z" fill="currentColor"/>
</svg>
