<svg xmlns="http://www.w3.org/2000/svg" width="13" height="11" viewBox="0 0 13 11" fill="none">
<path fill-rule="evenodd" clip-rule="evenodd" d="M2.76027 0.313232H3.94082V1.81085H2.76027V0.313232ZM1.57947 1.49391H0.398895V2.67446H2.02449V1.81094H2.76003V0.313329H1.57947V1.49391ZM0.398895 2.67449H2.02449V3.50083H2.76024V5.03552H1.57968V3.85504H0.398895V2.67449ZM1.57945 3.85507H0.398895V5.03562H1.57945V3.85507ZM0.989288 6.21602H1.49356H2.16984H2.67412V7.39657H2.16984H1.49356H0.989288V6.21602ZM3.94106 0.313232H5.12161V1.81085H3.94106V0.313232ZM6.3024 0.313232H5.12184V1.81085H6.3024V0.313232ZM6.30367 0.313232H7.48134H7.48422H8.66189V1.81085H7.48422H7.48134H6.30367V0.313232ZM8.66213 0.313232H9.84268V1.81085H8.66213V0.313232ZM11.0235 0.313232H9.84291V1.81085H10.5248V2.67446H12.2044V1.49391H11.0235V0.313232ZM3.94102 3.50104H2.76047V5.03573H3.94102V3.50104ZM3.94125 3.50104H5.12181V5.03573H3.94125V3.50104ZM8.66209 3.50104H7.48154V5.03573H8.66209V3.50104ZM8.66232 3.50104H9.84288V5.03573H8.66232V3.50104ZM10.5248 3.50083H9.84311V5.03552H11.0237V3.85504H12.2044V2.67449H10.5248V3.50083ZM11.0239 3.85507H12.2045V5.03562H11.0239V3.85507ZM1.49356 7.39659H0.989288V8.57715H1.49356H2.16984H2.67412V7.39659H2.16984H1.49356ZM1.49356 8.57717H0.989288V9.75773H1.49356H2.16904V9.75775H0.989288V10.9383H2.16904H2.16984H3.34959V10.5251V9.75775V9.34458H2.67412V8.57717H2.16984H1.49356ZM3.34982 10.9383V10.5251V9.75775V9.34458H4.53038V9.75775V10.5251V10.9383H3.34982ZM4.53061 10.9383V10.5251V9.75775V9.34458H5.71117V9.75775V10.5251V10.9383H4.53061ZM5.7114 10.9383V10.5251V9.75775V9.34458H6.89195V9.75775V10.5251V10.9383H5.7114ZM6.89218 10.9383V10.5251V9.75775V9.34458H8.07274V9.75775V10.5251V10.9383H6.89218ZM8.07297 10.9383V10.5251V9.75775V9.34458H9.25352V9.75775V10.5251V10.9383H8.07297ZM9.25375 10.9383V10.5251V9.75775V9.34458H9.99356V8.57717H11.615V9.75773H10.4343V9.75775V10.5251V10.9383H9.25375ZM10.4356 9.75796H11.6161V10.9385H10.4356V9.75796ZM9.99356 7.39659H11.615V8.57715H9.99356V7.39659ZM11.615 6.21602H9.99356V7.39657H11.615V6.21602Z" fill="currentColor"/>
</svg>