<svg width="136" height="136" viewBox="0 0 136 136" fill="none" xmlns="http://www.w3.org/2000/svg">
<path d="M92.448 45.3046C106.544 59.4005 116.481 74.9341 121.173 88.6257C125.882 102.369 125.236 114.003 118.62 120.62C112.003 127.237 100.369 127.883 86.6252 123.173C72.9336 118.481 57.4 108.544 43.3041 94.4485C29.2082 80.3526 19.2712 64.819 14.5795 51.1274C9.87003 37.3837 10.5158 25.7499 17.1326 19.1331C23.7494 12.5163 35.3832 11.8705 49.1269 16.58C62.8185 21.2717 78.3521 31.2087 92.448 45.3046Z" stroke="url(#paint0_linear_15953_44837)" stroke-width="1.5"/>
<path d="M92.448 94.4474C106.544 80.3514 116.481 64.8178 121.173 51.1262C125.882 37.3825 125.236 25.7488 118.62 19.1319C112.003 12.5151 100.369 11.8694 86.6252 16.5789C72.9336 21.2705 57.4 31.2075 43.3041 45.3034C29.2082 59.3993 19.2712 74.933 14.5795 88.6245C9.87003 102.368 10.5158 114.002 17.1326 120.619C23.7494 127.236 35.3832 127.881 49.1269 123.172C62.8185 118.48 78.3521 108.543 92.448 94.4474Z" stroke="url(#paint1_linear_15953_44837)" stroke-width="1.5"/>
<circle cx="123.451" cy="38.4824" r="4.5" fill="#57B3EB"/>
<path fill-rule="evenodd" clip-rule="evenodd" d="M51.3613 52.7333V86.2448H54.5535V89.5202H83.2949V86.2448H86.6316V89.5202H86.6353V52.7333H83.4648V49.4795H54.5535V52.7333H51.3613Z" fill="#25CBFF" fill-opacity="0.2"/>
<path fill-rule="evenodd" clip-rule="evenodd" d="M57.0039 58.6074H80.8498V62.5818H57.0039V58.6074ZM57.0039 67.9393H80.8498V71.9136H57.0039V67.9393ZM72.3332 77.2711H57.0039V81.2455H72.3332V77.2711Z" fill="#57B3EB"/>
<defs>
<linearGradient id="paint0_linear_15953_44837" x1="119.589" y1="103.031" x2="1.34589" y2="118.844" gradientUnits="userSpaceOnUse">
<stop stop-color="#FC408C"/>
<stop offset="1" stop-color="#15161C" stop-opacity="0"/>
</linearGradient>
<linearGradient id="paint1_linear_15953_44837" x1="32.0573" y1="138.482" x2="106.269" y2="45.871" gradientUnits="userSpaceOnUse">
<stop stop-color="#0B0F29" stop-opacity="0"/>
<stop offset="1" stop-color="#57B3EB"/>
</linearGradient>
</defs>
</svg>
