<svg width="136" height="135" viewBox="0 0 136 135" fill="none" xmlns="http://www.w3.org/2000/svg">
  <path d="M92.448 44.8046C106.544 58.9005 116.481 74.4341 121.173 88.1257C125.882 101.869 125.236 113.503 118.62 120.12C112.003 126.737 100.369 127.383 86.6252 122.673C72.9336 117.981 57.4 108.044 43.3041 93.9485C29.2082 79.8526 19.2712 64.319 14.5795 50.6274C9.87003 36.8837 10.5158 25.2499 17.1326 18.6331C23.7494 12.0163 35.3832 11.3705 49.1269 16.08C62.8185 20.7717 78.3521 30.7087 92.448 44.8046Z" stroke="url(#paint0_linear_14742_11978)" stroke-width="1.5" />
  <path d="M92.448 93.9474C106.544 79.8514 116.481 64.3178 121.173 50.6262C125.882 36.8825 125.236 25.2488 118.62 18.6319C112.003 12.0151 100.369 11.3694 86.6252 16.0789C72.9336 20.7705 57.4 30.7075 43.3041 44.8034C29.2082 58.8993 19.2712 74.433 14.5795 88.1245C9.87003 101.868 10.5158 113.502 17.1326 120.119C23.7494 126.736 35.3832 127.381 49.1269 122.672C62.8185 117.98 78.3521 108.043 92.448 93.9474Z" stroke="url(#paint1_linear_14742_11978)" stroke-width="1.5" />
  <circle cx="123.451" cy="37.9824" r="4.5" fill="#57B3EB" />
  <path fill-rule="evenodd" clip-rule="evenodd" d="M51.3613 52.2333V85.7448H54.5535V89.0202H83.2949V85.7448H86.6316V89.0202H86.6353V52.2333H83.4648V48.9795H54.5535V52.2333H51.3613Z" fill="#FF0067" fill-opacity="0.4" />
  <path fill-rule="evenodd" clip-rule="evenodd" d="M57.0039 58.1074H80.8498V62.0818H57.0039V58.1074ZM57.0039 67.4393H80.8498V71.4136H57.0039V67.4393ZM72.3332 76.7711H57.0039V80.7455H72.3332V76.7711Z" fill="#FC408C" />
  <defs>
    <linearGradient id="paint0_linear_14742_11978" x1="119.589" y1="102.531" x2="1.34589" y2="118.344" gradientUnits="userSpaceOnUse">
      <stop stop-color="#FC408C" />
      <stop offset="1" stop-color="#15161C" stop-opacity="0" />
    </linearGradient>
    <linearGradient id="paint1_linear_14742_11978" x1="32.0573" y1="137.982" x2="106.269" y2="45.371" gradientUnits="userSpaceOnUse">
      <stop stop-color="#0B0F29" stop-opacity="0" />
      <stop offset="1" stop-color="#57B3EB" />
    </linearGradient>
  </defs>
</svg>
  