<svg width="135" height="135" viewBox="0 0 135 135" fill="none" xmlns="http://www.w3.org/2000/svg">
  <path d="M91.948 44.8046C106.044 58.9005 115.981 74.4341 120.673 88.1257C125.382 101.869 124.736 113.503 118.12 120.12C111.503 126.737 99.8689 127.383 86.1252 122.673C72.4336 117.981 56.9 108.044 42.8041 93.9485C28.7082 79.8526 18.7712 64.319 14.0795 50.6274C9.37003 36.8837 10.0158 25.2499 16.6326 18.6331C23.2494 12.0163 34.8832 11.3705 48.6269 16.08C62.3185 20.7717 77.8521 30.7087 91.948 44.8046Z" stroke="url(#paint0_linear_14464_165250)" stroke-width="1.5" />
  <path d="M91.948 93.9474C106.044 79.8514 115.981 64.3178 120.673 50.6262C125.382 36.8825 124.736 25.2488 118.12 18.6319C111.503 12.0151 99.8689 11.3694 86.1252 16.0789C72.4336 20.7705 56.9 30.7075 42.8041 44.8034C28.7082 58.8993 18.7712 74.433 14.0795 88.1245C9.37003 101.868 10.0158 113.502 16.6326 120.119C23.2494 126.736 34.8832 127.381 48.6269 122.672C62.3185 117.98 77.8521 108.043 91.948 93.9474Z" stroke="url(#paint1_angular_14464_165250)" stroke-width="1.5" />
  <circle cx="121.5" cy="48.5" r="4.5" fill="#B8FFDF" />
  <path fill-rule="evenodd" clip-rule="evenodd" d="M56.0711 51C54.1776 51 52.6426 52.535 52.6426 54.4286V83.5714C52.6426 85.465 54.1776 87 56.0711 87H80.9283C82.8218 87 84.3569 85.465 84.3569 83.5714V54.4286C84.3569 52.535 82.8218 51 80.9283 51H56.0711ZM58.6424 58.7143C58.169 58.7143 57.7852 59.098 57.7852 59.5714V61.2857C57.7852 61.7591 58.169 62.1429 58.6424 62.1429H78.3567C78.83 62.1429 79.2138 61.7591 79.2138 61.2857V59.5714C79.2138 59.098 78.83 58.7143 78.3567 58.7143H58.6424ZM57.7852 67.2857C57.7852 66.8123 58.169 66.4286 58.6424 66.4286H78.3567C78.83 66.4286 79.2138 66.8123 79.2138 67.2857V69C79.2138 69.4734 78.83 69.8571 78.3567 69.8571H58.6424C58.169 69.8571 57.7852 69.4734 57.7852 69V67.2857ZM58.6424 74.1429C58.169 74.1429 57.7852 74.5266 57.7852 75V76.7143C57.7852 77.1877 58.169 77.5714 58.6424 77.5714H70.6424C71.1158 77.5714 71.4995 77.1877 71.4995 76.7143V75C71.4995 74.5266 71.1158 74.1429 70.6424 74.1429H58.6424Z" fill="url(#paint2_linear_14464_165250)" />
  <defs>
    <linearGradient id="paint0_linear_14464_165250" x1="127.786" y1="110.963" x2="4.70335" y2="-3.77019" gradientUnits="userSpaceOnUse">
      <stop offset="0.0762324" stop-color="#4FFFB0" stop-opacity="0.03" />
      <stop offset="0.263241" stop-color="#4FFFB0" stop-opacity="0.03" />
      <stop offset="0.806084" stop-color="#EBD35A" />
      <stop offset="1" stop-color="#BEE073" />
    </linearGradient>
    <radialGradient id="paint1_angular_14464_165250" cx="0" cy="0" r="1" gradientUnits="userSpaceOnUse" gradientTransform="translate(67.3761 69.3754) rotate(-45) scale(72.5121 35.5)">
      <stop offset="0.455358" stop-color="#4FFFB0" stop-opacity="0.56" />
      <stop offset="0.769234" stop-color="#4FFFB0" />
      <stop offset="0.991414" stop-color="#4FFFB0" stop-opacity="0.03" />
    </radialGradient>
    <linearGradient id="paint2_linear_14464_165250" x1="68.4997" y1="51" x2="47.9217" y2="107.212" gradientUnits="userSpaceOnUse">
      <stop stop-color="#4FFFB0" />
      <stop offset="1" stop-color="#4FFFB0" stop-opacity="0" />
    </linearGradient>
  </defs>
</svg>
  