<svg xmlns="http://www.w3.org/2000/svg" width="24" height="24" fill="none" viewBox="0 0 24 24">
  <g stroke="currentColor" stroke-linecap="round" stroke-linejoin="round" stroke-width="2">
    <path stroke-width="2.70678" d="M12.002 21.023V8.99m0 0 3.807 3.807M12.003 8.99l-3.796 3.795M12.002 21.023V8.99m0 0 3.807 3.807M12.003 8.99l-3.796 3.795M20.421 7.789v-.752a4.06 4.06 0 0 0-4.06-4.06H7.639a4.06 4.06 0 0 0-4.06 4.06v.15"/>
    <path stroke-width="2.70678" d="M20.421 7.789v-.752a4.06 4.06 0 0 0-4.06-4.06H7.639a4.06 4.06 0 0 0-4.06 4.06v.15"/>
  </g>
</svg>