<svg xmlns="http://www.w3.org/2000/svg" width="12" height="12" viewBox="0 0 12 12" fill="none">
    <path d="M11.4301 10.5923C11.4835 10.6743 11.5138 10.7691 11.5178 10.8669C11.5218 10.9646 11.4993 11.0616 11.4527 11.1476C11.4061 11.2337 11.3372 11.3055 11.2531 11.3556C11.1691 11.4056 11.0731 11.4321 10.9752 11.4321H0.959053C0.861223 11.4321 0.765214 11.4056 0.681167 11.3556C0.597121 11.3055 0.528158 11.2337 0.481566 11.1476C0.434974 11.0616 0.412482 10.9646 0.416466 10.8669C0.420451 10.7691 0.450764 10.6743 0.504204 10.5923C1.26869 9.41556 2.39318 8.51754 3.70987 8.03225C2.98198 7.54766 2.42935 6.84169 2.13372 6.01873C1.83808 5.19577 1.81513 4.29952 2.06827 3.46251C2.3214 2.62551 2.83717 1.89218 3.53932 1.37097C4.24146 0.849769 5.0927 0.568359 5.96714 0.568359C6.84159 0.568359 7.69283 0.849769 8.39497 1.37097C9.09711 1.89218 9.61289 2.62551 9.86602 3.46251C10.1192 4.29952 10.0962 5.19577 9.80057 6.01873C9.50494 6.84169 8.95231 7.54766 8.22442 8.03225C9.54111 8.51754 10.6656 9.41556 11.4301 10.5923Z" fill="currentColor" fill-opacity="0.6"/>
</svg>