<svg xmlns="http://www.w3.org/2000/svg" width="207" height="46" fill="none" viewBox="0 0 207 46">
  <g fill="#fff" clip-path="url(#a)">
    <path d="M65.97 9.593c-2.728-1.457-5.866-2.185-9.416-2.185-3.55 0-6.689.728-9.417 2.185-2.728 1.456-4.849 3.45-6.364 5.983-1.516 2.532-2.274 5.467-2.274 8.801 0 3.335.757 6.206 2.274 8.738 1.515 2.532 3.636 4.527 6.364 5.983 2.728 1.457 5.866 2.185 9.417 2.185 3.55 0 6.688-.728 9.416-2.185 2.728-1.456 4.849-3.46 6.365-6.015 1.515-2.553 2.272-5.476 2.272-8.77 0-3.293-.758-6.205-2.272-8.737-1.516-2.533-3.637-4.528-6.365-5.983Zm-1.364 19.945c-.778 1.498-1.861 2.67-3.246 3.514-1.386.845-2.988 1.266-4.806 1.266-1.819 0-3.421-.421-4.806-1.266-1.386-.844-2.467-2.015-3.247-3.514-.779-1.498-1.168-3.219-1.168-5.16 0-1.942.39-3.726 1.168-5.225.78-1.498 1.86-2.67 3.247-3.514 1.385-.844 2.988-1.266 4.806-1.266s3.42.422 4.806 1.266c1.385.845 2.468 2.016 3.246 3.514.78 1.5 1.17 3.22 1.17 5.16 0 1.942-.39 3.727-1.17 5.224ZM94.844 8.833c-1.667.655-3.116 1.763-4.35 3.323-.551.698-1.014 1.53-1.396 2.48V8.42H80.59V40.27h8.572V26.656c0-2.617.422-4.749 1.266-6.396.844-1.646 2.002-2.859 3.475-3.64 1.47-.781 3.224-1.172 5.26-1.172h1.753V7.85h-1.17c-1.601 0-3.236.327-4.903.98v.003ZM120.67 40.27V15.133h8.118V8.421h-8.118V0h-8.571v8.421h-5.715v6.712h5.715V40.27h8.571ZM150.642 34.762c-2.121 0-3.994-.412-5.617-1.235a9.18 9.18 0 0 1-3.832-3.61c-.528-.896-.9-1.9-1.128-3.007h25.448v-2.849c0-3.292-.715-6.184-2.144-8.674-1.428-2.49-3.409-4.443-5.942-5.857-2.533-1.413-5.423-2.122-8.669-2.122-3.247 0-6.332.718-8.995 2.153-2.662 1.436-4.763 3.43-6.299 5.984-1.537 2.554-2.305 5.499-2.305 8.832 0 3.334.8 6.269 2.402 8.802 1.602 2.533 3.832 4.517 6.689 5.952 2.858 1.435 6.169 2.152 9.935 2.152 3.118 0 5.964-.517 8.54-1.55 2.575-1.035 4.686-2.459 6.332-4.275l-4.546-5.128c-2.684 2.955-5.974 4.433-9.871 4.433l.002-.001Zm-9.707-16.052c.756-1.54 1.807-2.722 3.149-3.545s2.901-1.235 4.676-1.235c1.776 0 3.15.402 4.383 1.203 1.234.803 2.208 1.921 2.923 3.355.461.929.772 1.964.935 3.103h-16.983c.187-1.05.489-2.012.917-2.88Z"/>
    <path d="m206.751 46-16.859-21.426L205.858 4.34l-12.777 4.905-7.636 9.677-7.615-9.677-12.693-4.905 15.867 20.21L164.079 46l12.777-4.905 8.59-10.886 8.545 10.886L206.751 46ZM18.908 31.966 9.648 8.42H.751L14.65 40.27h8.312L36.923 8.421h-8.637l-9.378 23.545Z"/>
  </g>
  <defs>
    <clipPath id="a">
      <path fill="#fff" d="M.751 0h206v46h-206z"/>
    </clipPath>
  </defs>
</svg>