<svg width="117" height="117" viewBox="0 0 117 117" fill="none" xmlns="http://www.w3.org/2000/svg">
<rect width="8.25" height="8.25" transform="matrix(1 0 0 -1 42.5 17.063)" fill="#FFD53E" fill-opacity="0.25"/>
<rect width="8.25" height="8.25" transform="matrix(1 0 0 -1 50.75 17.063)" fill="#FFD53E" fill-opacity="0.25"/>
<rect width="8.25" height="8.25" transform="matrix(1 0 0 -1 59 17.063)" fill="#FFD53E" fill-opacity="0.25"/>
<rect width="8.25" height="8.25" transform="matrix(1 0 0 -1 67.25 17.063)" fill="#FFD53E" fill-opacity="0.25"/>
<rect width="8.25" height="8.25" transform="matrix(1 0 0 -1 26 25.313)" fill="#FFD53E" fill-opacity="0.25"/>
<rect width="8.25" height="8.25" transform="matrix(1 0 0 -1 34.25 25.313)" fill="#FFD53E" fill-opacity="0.25"/>
<rect width="8.25" height="8.25" transform="matrix(1 0 0 -1 42.5 25.313)" fill="#FFD53E" fill-opacity="0.25"/>
<rect width="8.25" height="8.25" transform="matrix(1 0 0 -1 50.75 25.313)" fill="#FFD53E" fill-opacity="0.25"/>
<rect width="8.25" height="8.25" transform="matrix(1 0 0 -1 59 25.313)" fill="#FFD53E" fill-opacity="0.25"/>
<rect width="8.25" height="8.25" transform="matrix(1 0 0 -1 67.25 25.313)" fill="#FFD53E" fill-opacity="0.25"/>
<rect width="8.25" height="8.25" transform="matrix(1 0 0 -1 75.5 25.313)" fill="#FFD53E" fill-opacity="0.25"/>
<rect width="8.25" height="8.25" transform="matrix(1 0 0 -1 83.75 25.313)" fill="#FFD53E" fill-opacity="0.25"/>
<rect width="8.25" height="8.25" transform="matrix(1 0 0 -1 17.75 33.563)" fill="#FFD53E" fill-opacity="0.25"/>
<rect width="8.25" height="8.25" transform="matrix(1 0 0 -1 26 33.563)" fill="#FFD53E" fill-opacity="0.25"/>
<rect width="8.25" height="8.25" transform="matrix(1 0 0 -1 34.25 33.563)" fill="#FFD53E" fill-opacity="0.25"/>
<rect width="8.25" height="8.25" transform="matrix(1 0 0 -1 42.5 33.563)" fill="#FFD53E" fill-opacity="0.25"/>
<rect width="8.25" height="8.25" transform="matrix(1 0 0 -1 50.75 33.563)" fill="#FFD53E" fill-opacity="0.25"/>
<rect width="8.25" height="8.25" transform="matrix(1 0 0 -1 59 33.563)" fill="#FFD53E" fill-opacity="0.25"/>
<rect width="8.25" height="8.25" transform="matrix(1 0 0 -1 67.25 33.563)" fill="#FFD53E" fill-opacity="0.25"/>
<rect width="8.25" height="8.25" transform="matrix(1 0 0 -1 75.5 33.563)" fill="#FFD53E" fill-opacity="0.25"/>
<rect width="8.25" height="8.25" transform="matrix(1 0 0 -1 83.75 33.563)" fill="#FFD53E" fill-opacity="0.25"/>
<rect width="8.25" height="8.25" transform="matrix(1 0 0 -1 92 33.563)" fill="#FFD53E" fill-opacity="0.25"/>
<rect width="8.25" height="8.25" transform="matrix(1 0 0 -1 13.625 41.813)" fill="#FFD53E" fill-opacity="0.25"/>
<rect width="8.25" height="8.25" transform="matrix(1 0 0 -1 21.875 41.813)" fill="#FFD53E" fill-opacity="0.25"/>
<rect width="8.25" height="8.25" transform="matrix(1 0 0 -1 30.125 41.813)" fill="#FFD53E" fill-opacity="0.25"/>
<rect width="8.25" height="8.25" transform="matrix(1 0 0 -1 38.375 41.813)" fill="#FFD53E" fill-opacity="0.25"/>
<rect width="8.25" height="8.25" transform="matrix(1 0 0 -1 46.625 41.813)" fill="#FFD53E" fill-opacity="0.25"/>
<rect width="8.25" height="8.25" transform="matrix(1 0 0 -1 54.875 41.813)" fill="#FFD53E" fill-opacity="0.25"/>
<rect width="8.25" height="8.25" transform="matrix(1 0 0 -1 63.125 41.813)" fill="#FFD53E" fill-opacity="0.25"/>
<rect width="8.25" height="8.25" transform="matrix(1 0 0 -1 71.375 41.813)" fill="#FFD53E" fill-opacity="0.25"/>
<rect width="8.25" height="8.25" transform="matrix(1 0 0 -1 79.625 41.813)" fill="#FFD53E" fill-opacity="0.25"/>
<rect width="8.25" height="8.25" transform="matrix(1 0 0 -1 87.875 41.813)" fill="#FFD53E" fill-opacity="0.25"/>
<rect width="8.25" height="8.25" transform="matrix(1 0 0 -1 96.125 41.813)" fill="#FFD53E" fill-opacity="0.25"/>
<rect width="8.25" height="8.25" transform="matrix(1 0 0 -1 9.5 50.063)" fill="#FFD53E" fill-opacity="0.25"/>
<rect width="8.25" height="8.25" transform="matrix(1 0 0 -1 17.75 50.063)" fill="#FFD53E" fill-opacity="0.25"/>
<rect width="8.25" height="8.25" transform="matrix(1 0 0 -1 26 50.063)" fill="#FFD53E" fill-opacity="0.25"/>
<rect width="8.25" height="8.25" transform="matrix(1 0 0 -1 34.25 50.063)" fill="#FFD53E" fill-opacity="0.25"/>
<rect width="8.25" height="8.25" transform="matrix(1 0 0 -1 42.5 50.063)" fill="#FFD53E" fill-opacity="0.25"/>
<rect width="8.25" height="8.25" transform="matrix(1 0 0 -1 50.75 50.063)" fill="#FFD53E" fill-opacity="0.25"/>
<rect width="8.25" height="8.25" transform="matrix(1 0 0 -1 59 50.063)" fill="#FFD53E" fill-opacity="0.25"/>
<rect width="8.25" height="8.25" transform="matrix(1 0 0 -1 67.25 50.063)" fill="#FFD53E" fill-opacity="0.25"/>
<rect width="8.25" height="8.25" transform="matrix(1 0 0 -1 75.5 50.063)" fill="#FFD53E" fill-opacity="0.25"/>
<rect width="8.25" height="8.25" transform="matrix(1 0 0 -1 83.75 50.063)" fill="#FFD53E" fill-opacity="0.25"/>
<rect width="8.25" height="8.25" transform="matrix(1 0 0 -1 92 50.063)" fill="#FFD53E" fill-opacity="0.25"/>
<rect width="8.25" height="8.25" transform="matrix(1 0 0 -1 100.25 50.063)" fill="#FFD53E" fill-opacity="0.25"/>
<rect x="9.5" y="50.063" width="8.25" height="8.25" fill="#FFD53E" fill-opacity="0.25"/>
<rect x="17.75" y="50.063" width="8.25" height="8.25" fill="#FFD53E" fill-opacity="0.25"/>
<rect x="26" y="50.063" width="8.25" height="8.25" fill="#FFD53E" fill-opacity="0.25"/>
<rect x="34.25" y="50.063" width="8.25" height="8.25" fill="#FFD53E" fill-opacity="0.25"/>
<rect x="42.5" y="50.063" width="8.25" height="8.25" fill="#FFD53E" fill-opacity="0.25"/>
<rect x="50.75" y="50.063" width="8.25" height="8.25" fill="#FFD53E" fill-opacity="0.25"/>
<rect x="59" y="50.063" width="8.25" height="8.25" fill="#FFD53E" fill-opacity="0.25"/>
<rect x="67.25" y="50.063" width="8.25" height="8.25" fill="#FFD53E" fill-opacity="0.25"/>
<rect x="75.5" y="50.063" width="8.25" height="8.25" fill="#FFD53E" fill-opacity="0.25"/>
<rect x="83.75" y="50.063" width="8.25" height="8.25" fill="#FFD53E" fill-opacity="0.25"/>
<rect x="92" y="50.063" width="8.25" height="8.25" fill="#FFD53E" fill-opacity="0.25"/>
<rect x="100.25" y="50.063" width="8.25" height="8.25" fill="#FFD53E" fill-opacity="0.25"/>
<rect x="9.5" y="58.313" width="8.25" height="8.25" fill="#FFD53E" fill-opacity="0.25"/>
<rect x="17.75" y="58.313" width="8.25" height="8.25" fill="#FFD53E" fill-opacity="0.25"/>
<rect x="26" y="58.313" width="8.25" height="8.25" fill="#FFD53E" fill-opacity="0.25"/>
<rect x="34.25" y="58.313" width="8.25" height="8.25" fill="#FFD53E" fill-opacity="0.25"/>
<rect x="42.5" y="58.313" width="8.25" height="8.25" fill="#FFD53E" fill-opacity="0.25"/>
<rect x="50.75" y="58.313" width="8.25" height="8.25" fill="#FFD53E" fill-opacity="0.25"/>
<rect x="59" y="58.313" width="8.25" height="8.25" fill="#FFD53E" fill-opacity="0.25"/>
<rect x="67.25" y="58.313" width="8.25" height="8.25" fill="#FFD53E" fill-opacity="0.25"/>
<rect x="75.5" y="58.313" width="8.25" height="8.25" fill="#FFD53E" fill-opacity="0.25"/>
<rect x="83.75" y="58.313" width="8.25" height="8.25" fill="#FFD53E" fill-opacity="0.25"/>
<rect x="92" y="58.313" width="8.25" height="8.25" fill="#FFD53E" fill-opacity="0.25"/>
<rect x="100.25" y="58.313" width="8.25" height="8.25" fill="#FFD53E" fill-opacity="0.25"/>
<rect x="9.5" y="66.563" width="8.25" height="8.25" fill="#FFD53E" fill-opacity="0.25"/>
<rect x="17.75" y="66.563" width="8.25" height="8.25" fill="#FFD53E" fill-opacity="0.25"/>
<rect x="26" y="66.563" width="8.25" height="8.25" fill="#FFD53E" fill-opacity="0.25"/>
<rect x="34.25" y="66.563" width="8.25" height="8.25" fill="#FFD53E" fill-opacity="0.25"/>
<rect x="42.5" y="66.563" width="8.25" height="8.25" fill="#FFD53E" fill-opacity="0.25"/>
<rect x="50.75" y="66.563" width="8.25" height="8.25" fill="#FFD53E" fill-opacity="0.25"/>
<rect x="59" y="66.563" width="8.25" height="8.25" fill="#FFD53E" fill-opacity="0.25"/>
<rect x="67.25" y="66.563" width="8.25" height="8.25" fill="#FFD53E" fill-opacity="0.25"/>
<rect x="75.5" y="66.563" width="8.25" height="8.25" fill="#FFD53E" fill-opacity="0.25"/>
<rect x="83.75" y="66.563" width="8.25" height="8.25" fill="#FFD53E" fill-opacity="0.25"/>
<rect x="92" y="66.563" width="8.25" height="8.25" fill="#FFD53E" fill-opacity="0.25"/>
<rect x="100.25" y="66.563" width="8.25" height="8.25" fill="#FFD53E" fill-opacity="0.25"/>
<rect x="13.625" y="74.813" width="8.25" height="8.25" fill="#FFD53E" fill-opacity="0.25"/>
<rect x="21.875" y="74.813" width="8.25" height="8.25" fill="#FFD53E" fill-opacity="0.25"/>
<rect x="30.125" y="74.813" width="8.25" height="8.25" fill="#FFD53E" fill-opacity="0.25"/>
<rect x="38.375" y="74.813" width="8.25" height="8.25" fill="#FFD53E" fill-opacity="0.25"/>
<rect x="46.625" y="74.813" width="8.25" height="8.25" fill="#FFD53E" fill-opacity="0.25"/>
<rect x="54.875" y="74.813" width="8.25" height="8.25" fill="#FFD53E" fill-opacity="0.25"/>
<rect x="63.125" y="74.813" width="8.25" height="8.25" fill="#FFD53E" fill-opacity="0.25"/>
<rect x="71.375" y="74.813" width="8.25" height="8.25" fill="#FFD53E" fill-opacity="0.25"/>
<rect x="79.625" y="74.813" width="8.25" height="8.25" fill="#FFD53E" fill-opacity="0.25"/>
<rect x="87.875" y="74.813" width="8.25" height="8.25" fill="#FFD53E" fill-opacity="0.25"/>
<rect x="96.125" y="74.813" width="8.25" height="8.25" fill="#FFD53E" fill-opacity="0.25"/>
<rect x="17.75" y="83.063" width="8.25" height="8.25" fill="#FFD53E" fill-opacity="0.25"/>
<rect x="26" y="83.063" width="8.25" height="8.25" fill="#FFD53E" fill-opacity="0.25"/>
<rect x="34.25" y="83.063" width="8.25" height="8.25" fill="#FFD53E" fill-opacity="0.25"/>
<rect x="42.5" y="83.063" width="8.25" height="8.25" fill="#FFD53E" fill-opacity="0.25"/>
<rect x="50.75" y="83.063" width="8.25" height="8.25" fill="#FFD53E" fill-opacity="0.25"/>
<rect x="59" y="83.063" width="8.25" height="8.25" fill="#FFD53E" fill-opacity="0.25"/>
<rect x="67.25" y="83.063" width="8.25" height="8.25" fill="#FFD53E" fill-opacity="0.25"/>
<rect x="75.5" y="83.063" width="8.25" height="8.25" fill="#FFD53E" fill-opacity="0.25"/>
<rect x="83.75" y="83.063" width="8.25" height="8.25" fill="#FFD53E" fill-opacity="0.25"/>
<rect x="92" y="83.063" width="8.25" height="8.25" fill="#FFD53E" fill-opacity="0.25"/>
<rect x="26" y="91.313" width="8.25" height="8.25" fill="#FFD53E" fill-opacity="0.25"/>
<rect x="34.25" y="91.313" width="8.25" height="8.25" fill="#FFD53E" fill-opacity="0.25"/>
<rect x="42.5" y="91.313" width="8.25" height="8.25" fill="#FFD53E" fill-opacity="0.25"/>
<rect x="50.75" y="91.313" width="8.25" height="8.25" fill="#FFD53E" fill-opacity="0.25"/>
<rect x="59" y="91.313" width="8.25" height="8.25" fill="#FFD53E" fill-opacity="0.25"/>
<rect x="67.25" y="91.313" width="8.25" height="8.25" fill="#FFD53E" fill-opacity="0.25"/>
<rect x="75.5" y="91.313" width="8.25" height="8.25" fill="#FFD53E" fill-opacity="0.25"/>
<rect x="83.75" y="91.313" width="8.25" height="8.25" fill="#FFD53E" fill-opacity="0.25"/>
<rect x="42.5" y="99.563" width="8.25" height="8.25" fill="#FFD53E" fill-opacity="0.25"/>
<rect x="50.75" y="99.563" width="8.25" height="8.25" fill="#FFD53E" fill-opacity="0.25"/>
<rect x="59" y="99.563" width="8.25" height="8.25" fill="#FFD53E" fill-opacity="0.25"/>
<rect x="67.25" y="99.563" width="8.25" height="8.25" fill="#FFD53E" fill-opacity="0.25"/>
<path fill-rule="evenodd" clip-rule="evenodd" d="M58.1629 34.3018L81.8099 75.2596H34.5159L58.1629 34.3018ZM55.9435 63.515H60.3942V67.9657H55.9435V63.515ZM60.3942 50.0116H55.9435V60.3967H60.3942V50.0116Z" fill="url(#paint0_linear_4446_25882)"/>
<defs>
<linearGradient id="paint0_linear_4446_25882" x1="58.1629" y1="36.3244" x2="58.1629" y2="75.2596" gradientUnits="userSpaceOnUse">
<stop offset="0.448929" stop-color="#FFD53E"/>
<stop offset="1" stop-color="#FFEC8A" stop-opacity="0.27"/>
</linearGradient>
</defs>
</svg>
