<svg width="24" height="24" viewBox="0 0 24 24" fill="none" xmlns="http://www.w3.org/2000/svg">
  <path d="M22.5183 17.7929L14.1278 3.2539C13.6659 2.47655 12.829 2 11.9247 2C11.0204 2 10.1835 2.47655 9.72157 3.2539L1.33107 17.7929C0.885773 18.581 0.889673 19.5458 1.34279 20.3291C1.79592 21.1123 2.62892 21.5987 3.53419 21.6055H20.3154C21.2207 21.5987 22.0537 21.1123 22.5068 20.3291C22.96 19.5459 22.9639 18.5811 22.5186 17.7929H22.5183ZM10.7293 17.3085C10.7293 16.6484 11.2645 16.1132 11.9246 16.1132C12.5848 16.1132 13.1199 16.6484 13.1199 17.3085C13.1199 17.9687 12.5848 18.5038 11.9246 18.5038C11.2645 18.5038 10.7293 17.9687 10.7293 17.3085ZM12.7059 7.81627V14.4178C12.7059 14.8494 12.3563 15.199 11.9246 15.199C11.493 15.199 11.1434 14.8494 11.1434 14.4178V7.81627C11.1434 7.38462 11.493 7.03503 11.9246 7.03503C12.3563 7.03503 12.7059 7.38462 12.7059 7.81627Z" fill="url(#paint0_linear_14270_159136)" />
  <defs>
    <linearGradient id="paint0_linear_14270_159136" x1="11.9248" y1="2" x2="11.9248" y2="21.6055" gradientUnits="userSpaceOnUse">
      <stop stop-color="#FFC98A" />
      <stop offset="1" stop-color="#FFC98A" stop-opacity="0.27" />
    </linearGradient>
  </defs>
</svg>
  