<svg width="28" height="27" viewBox="0 0 28 27" fill="none" xmlns="http://www.w3.org/2000/svg">
<path fill-rule="evenodd" clip-rule="evenodd" d="M9.19019 3.39047C9.00778 3.4261 8.93123 3.54864 8.93123 3.80495C8.93123 4.07726 8.84702 4.13351 8.43923 4.13351C8.02076 4.13351 7.96747 4.17634 7.92568 4.54596L7.8903 4.85857H7.48225C6.98527 4.85857 6.91142 4.91197 6.91142 5.27103C6.91142 5.56338 6.88138 5.58363 6.44743 5.58363C6.10432 5.58363 6.05796 5.62056 6.00607 5.93519L5.96945 6.15721L5.52116 6.14235L5.07286 6.12743L5.04515 5.92027C5.00274 5.60316 4.97596 5.58363 4.58412 5.58363C4.36106 5.58363 4.21081 5.55929 4.17617 5.5176C4.14602 5.48124 4.11407 5.33613 4.10511 5.1951C4.08253 4.83894 4.00547 4.80849 3.1241 4.80756C2.54249 4.80693 2.40639 4.82123 2.3502 4.88887C2.3011 4.94806 2.28561 5.13109 2.29468 5.54541C2.30162 5.86133 2.31912 6.13903 2.33362 6.16249C2.34813 6.1859 2.51707 6.20512 2.7091 6.20512C2.9116 6.20512 3.08432 6.23122 3.12037 6.26726C3.15455 6.30145 3.18252 6.46376 3.18252 6.62798C3.18252 7.00072 3.23286 7.03376 3.80058 7.03376H4.21832V7.25527C4.21832 7.37713 4.25359 7.52717 4.29673 7.58874C4.37364 7.69859 4.39658 7.7004 5.53804 7.68564C6.38378 7.67477 6.72259 7.6527 6.78028 7.6048C6.82881 7.56456 6.85962 7.45336 6.85962 7.31861C6.85962 7.19742 6.88992 7.07307 6.92695 7.04236C6.96398 7.01165 7.19119 6.97964 7.43191 6.9713L7.86953 6.95607L7.86959 6.63663C7.86964 6.46096 7.88906 6.29782 7.91273 6.2741C7.93645 6.25043 8.15086 6.23101 8.38915 6.23101C8.63365 6.23101 8.84713 6.20636 8.87908 6.1744C8.91026 6.14323 8.95221 5.96843 8.9723 5.78598L9.00892 5.45416L9.45525 5.43929L9.90153 5.42443L9.93431 5.58819C9.95228 5.67825 9.96704 5.83119 9.96704 5.92804C9.96704 6.1468 10.0918 6.20512 10.5597 6.20512C10.7593 6.20512 10.9065 6.23034 10.9378 6.26985C10.966 6.30549 11.0014 6.47867 11.0166 6.65476C11.0318 6.83085 11.0577 6.99683 11.0743 7.02361C11.0908 7.05038 11.3067 7.07628 11.5542 7.08115C11.8015 7.08602 12.0234 7.10202 12.0472 7.11673C12.071 7.13144 12.0904 7.24227 12.0904 7.36309C12.0904 7.48392 12.1184 7.6107 12.1526 7.64488C12.1971 7.68942 12.5343 7.70703 13.342 7.70703C14.61 7.70703 14.5764 7.71796 14.5764 7.30649C14.5764 7.01962 14.6395 6.98197 15.1202 6.98197C15.3774 6.98197 15.5637 6.95794 15.6018 6.91982C15.636 6.88564 15.664 6.75047 15.664 6.61944C15.664 6.48841 15.6919 6.35324 15.7261 6.31905C15.7628 6.28233 15.9395 6.25691 16.1583 6.25691C16.6207 6.25691 16.6875 6.19714 16.7098 5.76407L16.7257 5.45416L17.1725 5.43929L17.6193 5.42443L17.6416 5.73274C17.673 6.16772 17.7178 6.20512 18.2062 6.20512C18.6785 6.20512 18.7196 6.24168 18.7196 6.66227C18.7196 6.96918 18.7411 6.98197 19.2573 6.98197C19.479 6.98197 19.6564 7.00724 19.6932 7.04412C19.7274 7.0783 19.7554 7.20596 19.7554 7.32777C19.7554 7.7046 19.8136 7.71988 21.1074 7.68217C21.7126 7.66451 22.227 7.6382 22.2504 7.6237C22.2739 7.6092 22.2931 7.49521 22.2931 7.3704C22.2931 7.24532 22.3222 7.12496 22.3579 7.10228C22.3935 7.07959 22.6065 7.04717 22.8313 7.03019C23.3165 6.99352 23.3807 6.93593 23.3807 6.5374C23.3807 6.2163 23.3988 6.20512 23.9189 6.20512C24.4029 6.20512 24.4603 6.16001 24.4793 5.7649L24.4942 5.45416L24.8826 5.42826L25.2711 5.40237L25.2852 4.44803C25.296 3.71924 25.2838 3.48385 25.2334 3.45189C25.1972 3.42885 25.0352 3.40969 24.8734 3.40922C24.5219 3.40829 24.4169 3.48918 24.4157 3.7617C24.4153 3.86653 24.3948 3.98399 24.3702 4.02278C24.3215 4.09974 23.9813 4.1795 23.6865 4.18302C23.4539 4.18587 23.3289 4.3157 23.3289 4.55451C23.3289 4.80264 23.2516 4.85857 22.9085 4.85857C22.5128 4.85857 22.4566 4.88752 22.421 5.1096C22.3518 5.54173 22.3802 5.51387 21.9753 5.54779C21.771 5.56494 21.5808 5.60192 21.5527 5.63004C21.5247 5.65811 21.4903 5.79903 21.4765 5.94311L21.4513 6.20512H21.0177H20.584V5.95652C20.584 5.8198 20.5561 5.67996 20.5219 5.64578C20.4871 5.61103 20.3205 5.58363 20.1438 5.58363C19.7751 5.58363 19.7036 5.53153 19.7036 5.26253C19.7036 4.96008 19.5696 4.85857 19.1702 4.85857C18.8003 4.85857 18.7196 4.80668 18.7196 4.56911C18.7196 4.47827 18.6758 4.34983 18.6222 4.2837C18.5399 4.18209 18.4659 4.16028 18.1432 4.14272C17.9333 4.13133 17.7324 4.09839 17.6967 4.0696C17.6612 4.0408 17.6316 3.90941 17.6312 3.7776C17.6301 3.44511 17.584 3.3957 17.249 3.36789C16.8447 3.33438 16.7216 3.42279 16.6728 3.78175C16.6522 3.93246 16.6091 4.07296 16.577 4.09389C16.5448 4.11481 16.3522 4.13226 16.149 4.13273C15.8138 4.13345 15.7717 4.14537 15.6958 4.26117C15.6498 4.33134 15.6122 4.46652 15.6122 4.56155C15.6122 4.80248 15.5326 4.85857 15.1912 4.85857C14.8142 4.85857 14.7317 4.93361 14.7317 5.27657V5.53184H14.3928C14.1019 5.53184 14.0357 5.54987 13.9267 5.65899C13.8567 5.7289 13.7995 5.84352 13.7995 5.91369C13.7995 6.18077 13.7627 6.20512 13.3593 6.20512C12.9559 6.20512 12.9191 6.18077 12.9191 5.91369C12.9191 5.84352 12.8619 5.7289 12.7919 5.65899C12.6829 5.54987 12.6167 5.53184 12.3258 5.53184H11.9869V5.32805C11.9869 5.21597 11.9641 5.06449 11.9364 4.99141C11.8885 4.86551 11.866 4.85857 11.5065 4.85857C11.0699 4.85857 11.0028 4.81584 11.0028 4.53747C11.0028 4.22792 10.8712 4.13351 10.4395 4.13351C10.2165 4.13351 10.0641 4.10932 10.0319 4.06877C10.0037 4.03319 9.96854 3.89128 9.95378 3.75352C9.93902 3.61576 9.90505 3.4811 9.87827 3.45433C9.82021 3.39627 9.37295 3.35474 9.19019 3.39047ZM9.0401 7.98551C9.00752 8.02477 8.96391 8.19267 8.9431 8.35866C8.90001 8.70317 8.86199 8.72803 8.36154 8.73849C8.20488 8.74175 8.04251 8.76604 8.00072 8.79245C7.95665 8.82037 7.91314 8.9559 7.89714 9.11536L7.86953 9.39022L7.48111 9.40508C7.04187 9.42191 6.91468 9.51275 6.91255 9.81117C6.911 10.0324 6.82555 10.0868 6.42065 10.1246C6.05201 10.159 6.02772 10.1792 5.95744 10.5105C5.92523 10.6623 5.813 10.7091 5.47848 10.7101C5.17359 10.7112 5.09876 10.6705 5.09876 10.5039C5.09876 10.25 4.94639 10.1259 4.60981 10.1057C4.22014 10.0823 4.11474 10.0226 4.11474 9.8252C4.11474 9.47355 4.09957 9.4679 3.15579 9.4679C2.1579 9.4679 2.23667 9.4041 2.26101 10.193L2.27619 10.685L2.68839 10.7109C3.14984 10.7399 3.16641 10.7568 3.17734 11.2095C3.18019 11.3271 3.21282 11.4484 3.24985 11.4791C3.28688 11.5098 3.51408 11.5418 3.7548 11.5502L4.19243 11.5654L4.20641 11.7467C4.21408 11.8464 4.2321 11.9808 4.24644 12.0454L4.27255 12.1628L5.52665 12.149L6.7807 12.1351L6.81628 11.8861C6.86817 11.5231 6.90934 11.494 7.39514 11.4768L7.81774 11.4618L7.84789 11.1473C7.86446 10.9743 7.89496 10.8053 7.91568 10.7718C7.93992 10.7326 8.11471 10.7109 8.40603 10.7109C8.68906 10.7109 8.88203 10.6876 8.92088 10.6487C8.95615 10.6134 8.98303 10.4446 8.98303 10.2583V9.93013L9.46208 9.94499L9.94114 9.95991L9.95684 10.2946C9.96549 10.4786 9.99749 10.6592 10.0279 10.696C10.0637 10.739 10.215 10.7627 10.4555 10.7627C10.944 10.7627 11.0187 10.8187 11.0536 11.2109L11.0805 11.5136L11.5596 11.5285L12.0386 11.5434V11.7986C12.0386 11.9979 12.0606 12.0655 12.1388 12.1074C12.2872 12.1868 14.434 12.1791 14.5142 12.0988C14.5484 12.0647 14.5764 11.9402 14.5764 11.8223C14.5764 11.5487 14.6942 11.4877 15.2227 11.4877C15.6514 11.4877 15.7051 11.4384 15.642 11.102C15.5965 10.8597 15.7049 10.7897 16.1366 10.7831C16.576 10.7763 16.648 10.7221 16.648 10.398C16.648 9.99368 16.6569 9.9858 17.1154 9.9858C17.6702 9.9858 17.6838 9.99393 17.6838 10.3243C17.6838 10.7117 17.7498 10.7627 18.2516 10.7627C18.7112 10.7627 18.7196 10.7701 18.7196 11.1782C18.7196 11.3228 18.7471 11.4474 18.7843 11.4713C18.82 11.4941 19.0239 11.5167 19.2375 11.5214C19.4511 11.5261 19.6551 11.5322 19.6907 11.5348C19.732 11.5378 19.7554 11.6224 19.7554 11.7689C19.7554 12.1595 19.7603 12.161 21.0475 12.161C22.3256 12.161 22.2952 12.1705 22.3432 11.7538L22.3708 11.5136L22.7851 11.4877C23.013 11.4735 23.2286 11.443 23.2642 11.4199C23.3011 11.396 23.3289 11.2716 23.3289 11.1302C23.3289 10.7761 23.4118 10.7189 23.952 10.7002L24.3906 10.685L24.4167 10.3742C24.4528 9.94442 24.4721 9.92516 24.8488 9.94199C25.0241 9.94986 25.1966 9.93821 25.2322 9.9162C25.2801 9.88657 25.2969 9.63549 25.2969 8.95248C25.2969 8.15802 25.2855 8.02445 25.215 7.99742C25.0703 7.9419 24.5429 7.96391 24.4787 8.02813C24.4445 8.06231 24.4165 8.18687 24.4165 8.30495C24.4165 8.61243 24.3089 8.69105 23.8879 8.69105C23.499 8.69105 23.4375 8.736 23.3952 9.05078C23.3585 9.32444 23.2817 9.37903 22.8738 9.42124C22.5006 9.45987 22.3967 9.53896 22.3967 9.78429C22.3967 10.042 22.351 10.089 22.0934 10.0955C21.6096 10.1078 21.5538 10.1386 21.4929 10.4261L21.4382 10.685L21.037 10.7001L20.6358 10.7152V10.5433C20.6358 10.2394 20.5325 10.1582 20.0934 10.1171L19.7036 10.0805L19.7028 9.89077C19.7024 9.78636 19.6727 9.64269 19.6368 9.57148C19.5781 9.45495 19.533 9.43942 19.1845 9.41611L18.7973 9.39022L18.7342 9.13484C18.6996 8.99438 18.6413 8.84968 18.6048 8.81327C18.5682 8.77692 18.3461 8.73113 18.1111 8.71166L17.6838 8.67613V8.42464C17.6838 8.04745 17.5626 7.94843 17.1344 7.97572C16.9525 7.98727 16.775 8.02539 16.7401 8.06035C16.7051 8.0953 16.6642 8.2457 16.6493 8.39455L16.6221 8.66515L16.389 8.67831C15.8134 8.71073 15.6122 8.82026 15.6122 9.10112C15.6122 9.37939 15.5726 9.41611 15.2724 9.41611C14.7914 9.41611 14.7225 9.48111 14.668 9.9858C14.6548 10.1084 14.6337 10.1166 14.2666 10.1412C13.8455 10.1693 13.8575 10.1588 13.774 10.5706L13.7447 10.7152L13.3461 10.7001L12.9476 10.685L12.9081 10.4519C12.8863 10.3237 12.8288 10.1898 12.7803 10.1541C12.7318 10.1185 12.548 10.0894 12.3719 10.0894C12.0546 10.0894 12.0513 10.0879 12.0192 9.92754C12.0014 9.83851 11.9869 9.71168 11.9869 9.64565C11.9869 9.44952 11.803 9.36432 11.3797 9.36432H11.0028L11.0021 9.196C11.0004 8.78541 10.946 8.74325 10.3556 8.69483L9.99325 8.66515L9.95135 8.35441C9.92628 8.16822 9.87553 8.01772 9.82477 7.97893C9.70721 7.88908 9.11602 7.89405 9.0401 7.98551ZM9.06439 12.7085C9.01964 12.7533 8.98303 12.843 8.98303 12.9079C8.98303 12.9729 8.95744 13.0994 8.92616 13.1891L8.86929 13.3522H8.463C8.10181 13.3522 8.04769 13.365 7.97607 13.4673C7.93174 13.5306 7.89543 13.6559 7.89543 13.7458C7.89543 13.9699 7.80858 14.0244 7.37789 14.0704C6.96605 14.1145 6.91343 14.1575 6.91219 14.4509C6.91121 14.6895 6.8141 14.7501 6.4914 14.7138C6.19138 14.68 6.04869 14.7552 6.00545 14.9702C5.9316 15.3369 5.95495 15.3202 5.51639 15.3202H5.11238L5.08436 15.111C5.04111 14.7886 4.98451 14.7505 4.54864 14.7505H4.16653V14.5174C4.16653 14.3534 4.13582 14.2537 4.06295 14.1808C3.96864 14.0865 3.89091 14.0773 3.19547 14.078C2.77534 14.0785 2.40266 14.0972 2.36729 14.1196C2.32332 14.1476 2.29877 14.3558 2.2896 14.7791L2.27619 15.3979L2.71641 15.4238L3.15662 15.4497L3.18252 15.7863L3.20841 16.1229L3.67033 16.1488L4.1323 16.1747L4.21444 16.4855L4.29658 16.7962H5.51334H6.73015L6.77443 16.5891C6.87024 16.1405 6.85942 16.1488 7.34749 16.1488C7.64171 16.1488 7.7992 16.1276 7.8267 16.0841C7.84923 16.0485 7.87974 15.9028 7.8945 15.7604L7.92132 15.5015L8.30975 15.4884C8.9448 15.4669 8.93123 15.4757 8.93123 15.088C8.93123 14.8109 8.94827 14.745 9.0314 14.7005C9.16616 14.6284 9.84766 14.6313 9.89272 14.7041C9.91214 14.7356 9.94 14.9104 9.95461 15.0925L9.98123 15.4238H10.4365C10.9837 15.4238 11.0546 15.4705 11.0546 15.8314C11.0546 15.9661 11.0826 16.1043 11.1168 16.1385C11.1537 16.1754 11.3312 16.2006 11.5533 16.2006C11.9719 16.2006 12.0904 16.2674 12.0904 16.5036C12.0904 16.5806 12.1267 16.6955 12.1711 16.7588C12.2499 16.8713 12.2751 16.8739 13.2975 16.8731C14.5424 16.8722 14.611 16.8533 14.5855 16.5187C14.5605 16.191 14.6215 16.1488 15.1202 16.1488C15.6278 16.1488 15.6791 16.1098 15.6855 15.7189L15.6899 15.4497L16.156 15.4238L16.6221 15.3979L16.648 15.0612L16.6739 14.7246H17.1659H17.6579L17.6838 15.0354L17.7097 15.3461L18.1588 15.372C18.4057 15.3862 18.6252 15.4154 18.6465 15.4368C18.6677 15.4582 18.7028 15.6058 18.7244 15.7649C18.774 16.1307 18.8575 16.1969 19.2721 16.199C19.7204 16.2013 19.7554 16.2222 19.7554 16.4881C19.7554 16.8602 19.8025 16.8739 21.0846 16.8739C22.1616 16.8739 22.1853 16.8716 22.2643 16.7588C22.3086 16.6955 22.3449 16.5603 22.3449 16.4584C22.3449 16.1959 22.4174 16.1488 22.8214 16.1488C23.2617 16.1488 23.3807 16.0565 23.3807 15.7147C23.3807 15.4449 23.4211 15.4255 23.9869 15.4245L24.36 15.4238L24.3879 15.2555C24.4033 15.1629 24.4102 15.0056 24.4033 14.9059L24.3906 14.7246L24.8308 14.6987L25.2711 14.6728V13.6998C25.2711 12.5952 25.2844 12.6292 24.8501 12.6279C24.5252 12.627 24.4711 12.6833 24.4318 13.0637L24.402 13.3522H24.0048C23.5238 13.3522 23.4243 13.4098 23.4081 13.6981C23.3923 13.9763 23.3539 14.0254 23.1518 14.0254C23.0578 14.0254 22.8723 14.0403 22.7398 14.0585C22.4887 14.0929 22.4637 14.1238 22.43 14.4419C22.4057 14.6716 22.3584 14.6987 21.9811 14.6987C21.5854 14.6987 21.5163 14.7515 21.5163 15.0542C21.5163 15.2963 21.4007 15.372 21.0309 15.372C20.6574 15.372 20.584 15.3206 20.584 15.0589C20.584 14.7844 20.4635 14.6987 20.0768 14.6987C19.7244 14.6987 19.6518 14.6379 19.6518 14.3425C19.6518 14.1233 19.4904 14.0254 19.1287 14.0254C18.801 14.0254 18.7495 13.9869 18.6984 13.7034C18.6454 13.4088 18.5575 13.3522 18.1542 13.3522C17.7329 13.3522 17.632 13.2741 17.632 12.9485C17.632 12.7898 17.606 12.7204 17.5318 12.6807C17.4092 12.6151 16.8204 12.6093 16.7809 12.6734C16.7651 12.6988 16.7204 12.8445 16.6815 12.9971L16.6107 13.2745L16.2108 13.3004C15.7458 13.3305 15.664 13.3972 15.664 13.7464C15.664 13.9879 15.679 13.9793 15.1339 14.0511C14.8629 14.0868 14.7317 14.2139 14.7317 14.441C14.7317 14.6403 14.6382 14.6987 14.3186 14.6987C13.9218 14.6987 13.7995 14.791 13.7995 15.0901V15.3202H13.3593H12.9191V15.1229C12.9191 14.8011 12.8291 14.7285 12.3929 14.6987L12.0136 14.6728L11.9776 14.4197C11.9578 14.2806 11.9158 14.1407 11.8841 14.109C11.8525 14.0773 11.6599 14.0397 11.4561 14.0254L11.0857 13.9995L11.0312 13.7421C10.9657 13.4316 10.8472 13.3544 10.4332 13.3521C10.2765 13.3513 10.1167 13.3306 10.0781 13.3061C10.0395 13.2816 9.98713 13.1504 9.96176 13.0146C9.93638 12.8788 9.88935 12.736 9.8573 12.6974C9.77164 12.5942 9.1703 12.6026 9.06439 12.7085ZM16.7771 17.6181C16.7329 17.6857 16.6793 17.843 16.6581 17.9677L16.6195 18.1946L16.2337 18.21C15.7837 18.228 15.6892 18.2889 15.6493 18.5871C15.6082 18.8933 15.542 18.9455 15.1952 18.9455C14.8419 18.9455 14.7317 19.0255 14.7317 19.2822C14.7317 19.538 14.6213 19.6188 14.2718 19.6188C13.8917 19.6188 13.7963 19.6899 13.7614 19.9994L13.7338 20.2444L13.3394 20.2294L12.945 20.2144L12.9597 20.0729C12.9679 19.995 12.9381 19.8611 12.8937 19.7751C12.8155 19.6238 12.8012 19.6188 12.4504 19.6188C12.1089 19.6188 12.0849 19.6111 12.0374 19.4859C12.0096 19.4129 11.9869 19.3 11.9869 19.235C11.9869 19.0396 11.8312 18.9455 11.508 18.9455C11.1219 18.9455 11.0546 18.9136 11.0546 18.7302C11.0546 18.5229 10.9254 18.2884 10.7833 18.2381C10.6294 18.1836 10.6129 18.1816 10.2648 18.1746L9.96704 18.1687V17.973C9.96704 17.8654 9.93073 17.7256 9.8864 17.6623C9.81664 17.5627 9.75874 17.5472 9.45654 17.5472C9.06874 17.5472 8.98303 17.5965 8.98303 17.8199C8.98303 18.0905 8.9028 18.1687 8.62515 18.1687C8.07664 18.1687 7.92277 18.2668 7.87565 18.6468C7.86259 18.7522 7.83701 18.8626 7.81883 18.892C7.8006 18.9214 7.63565 18.9455 7.45216 18.9455C7.05772 18.9455 6.94482 19.0265 6.89375 19.3459L6.86035 19.5549L6.52268 19.5764C6.12596 19.6016 6.04429 19.6642 5.98991 19.9841L5.95076 20.2144L5.56818 20.2298C5.14495 20.2468 5.10088 20.22 5.09953 19.9445C5.09907 19.8399 5.05551 19.7374 4.98223 19.6682C4.88233 19.5739 4.81655 19.5609 4.52124 19.577L4.17684 19.5957L4.14374 19.3462C4.08605 18.9114 4.0238 18.8834 3.15812 18.9029C2.17142 18.9251 2.17551 18.9219 2.21249 19.6586C2.24662 20.3369 2.26681 20.3631 2.72034 20.3175C3.12674 20.2767 3.14342 20.2908 3.18195 20.7064L3.20841 20.9912L3.64863 21.0056C4.15545 21.0223 4.21832 21.0667 4.21832 21.4091C4.21832 21.5309 4.24981 21.6521 4.29021 21.6856C4.38379 21.7633 6.68934 21.7155 6.78774 21.6338C6.82436 21.6034 6.86133 21.4697 6.86988 21.3367L6.88552 21.0948L7.24805 21.0817C7.82593 21.0606 7.82458 21.0615 7.85881 20.7295C7.90087 20.3221 7.93867 20.2921 8.40929 20.2921C8.64955 20.2921 8.83154 20.2675 8.86909 20.2299C8.90327 20.1957 8.93123 20.0553 8.93123 19.9179C8.93123 19.6973 8.94682 19.6621 9.06408 19.6175C9.25472 19.545 9.72399 19.5552 9.83207 19.6343C9.89075 19.6772 9.93648 19.8036 9.95849 19.9839L9.99293 20.2662L10.4316 20.2814C10.9775 20.3003 11.0441 20.3497 11.0651 20.7511L11.0805 21.043L11.5207 21.0689C11.7629 21.0832 11.9901 21.1137 12.0257 21.1367C12.0613 21.1598 12.0904 21.2686 12.0904 21.3785C12.0904 21.7619 12.0242 21.7422 13.3112 21.7422C14.6043 21.7422 14.5764 21.7505 14.5764 21.3675C14.5764 21.1118 14.6501 21.069 15.0917 21.0681C15.3068 21.0677 15.5126 21.0483 15.5493 21.0251C15.5859 21.0018 15.6282 20.8915 15.6432 20.7799C15.7004 20.3566 15.6994 20.3581 15.9714 20.2928C16.1123 20.2591 16.2747 20.2463 16.3323 20.2646C16.532 20.328 16.6479 20.2094 16.6488 19.9407C16.6492 19.8064 16.6676 19.6681 16.6896 19.6335C16.7422 19.5507 17.2528 19.4982 17.4507 19.5552C17.5888 19.595 17.6118 19.6313 17.6579 19.8813C17.6864 20.036 17.7285 20.1917 17.7516 20.2273C17.7779 20.268 17.9164 20.2921 18.1237 20.2921C18.3053 20.2921 18.5137 20.3148 18.5867 20.3426C18.7067 20.3882 18.7196 20.4202 18.7196 20.6729C18.7196 20.8392 18.7469 20.9753 18.7869 21.0085C18.8239 21.0392 19.0511 21.0712 19.2919 21.0796L19.7295 21.0948L19.7452 21.369C19.7589 21.6073 19.778 21.6498 19.891 21.6927C19.9626 21.7199 20.5061 21.7422 21.099 21.7422C22.2918 21.7422 22.2863 21.7437 22.3176 21.4073C22.3443 21.1193 22.4153 21.0689 22.7949 21.0689C23.2563 21.0689 23.3289 21.0208 23.3289 20.7149C23.3289 20.5792 23.3569 20.4402 23.3911 20.406C23.4294 20.3677 23.6174 20.3439 23.8813 20.3439C24.3719 20.3439 24.4165 20.3083 24.4165 19.9174C24.4165 19.7931 24.4445 19.6633 24.4787 19.6291C24.5128 19.595 24.6741 19.567 24.837 19.567C25.326 19.567 25.2969 19.6291 25.2969 18.5838C25.2969 17.8541 25.2818 17.6509 25.2238 17.6027C25.1798 17.5662 25.0198 17.5482 24.8224 17.5575L24.4942 17.5731L24.4637 17.8015C24.4208 18.1234 24.2844 18.2205 23.875 18.2205C23.496 18.2205 23.3807 18.3071 23.3807 18.592C23.3807 18.8502 23.2545 18.9454 22.9105 18.9463C22.7561 18.9468 22.595 18.9691 22.5526 18.9959C22.5101 19.0227 22.4518 19.1564 22.423 19.2929L22.3705 19.5411L21.9993 19.567C21.7952 19.5812 21.6112 19.6099 21.5906 19.6306C21.57 19.6513 21.5418 19.7857 21.528 19.9291C21.4989 20.2324 21.4566 20.2552 20.9717 20.2302L20.6646 20.2144L20.6192 19.9813C20.5537 19.6458 20.5163 19.6188 20.1161 19.6188H19.7645L19.7291 19.3987C19.6672 19.0142 19.592 18.9455 19.2329 18.9455C18.8082 18.9455 18.7406 18.9 18.699 18.5858C18.6559 18.2616 18.5864 18.2205 18.0816 18.2205C17.653 18.2205 17.6342 18.2031 17.6327 17.8035C17.6317 17.5465 17.5571 17.4954 17.1826 17.4954C16.8978 17.4954 16.8476 17.5106 16.7771 17.6181Z" fill="currentColor"/>
</svg>
