<svg width="18" height="18" viewBox="0 0 18 18" fill="none" xmlns="http://www.w3.org/2000/svg">
  <path fill-rule="evenodd" clip-rule="evenodd" d="M10.5131 12.6499V15.1709C10.5131 15.7232 10.9608 16.1709 11.5131 16.1709H14.5802C15.028 16.1709 15.391 16.5339 15.391 16.9817C15.391 17.4295 15.028 17.7925 14.5802 17.7925H4.8283C4.3821 17.7925 4.02038 17.4308 4.02038 16.9846C4.02038 16.5361 4.38561 16.1735 4.83405 16.1767L8.0708 16.1997C8.62351 16.2036 9.07459 15.7584 9.0779 15.2057L9.10705 10.3401C9.30358 10.4029 9.49022 10.4446 9.69563 10.4413C9.9516 11.3044 10.0695 11.8637 10.5131 12.6499ZM7.5369 7.11091C5.44441 6.56058 4.07239 6.6488 3.39129 6.96153C2.98454 7.14497 2.99156 7.2236 3.39041 7.40704C4.07156 7.72064 5.44432 7.80801 7.53692 7.25854C7.53517 7.20962 7.53514 7.15982 7.5369 7.11091ZM11.4264 4.94536L11.4904 4.9838C13.014 3.45332 13.6233 2.22421 13.6916 1.47908C13.732 1.04231 13.6645 1.00386 13.3059 1.25719C12.6931 1.68873 11.9296 2.82871 11.3616 4.90951L11.4264 4.94536ZM12.2286 5.66429C12.8115 6.46446 12.9044 7.56514 12.3758 8.47531C12.3302 8.55393 12.2811 8.62993 12.2286 8.70156C13.3462 9.84505 14.5735 11.3755 14.705 12.7967C14.8224 14.1035 13.7959 14.6966 12.7203 13.9384C11.5509 13.1138 10.8356 11.2897 10.4007 9.75318C9.87388 9.80821 9.326 9.70513 8.83247 9.42122C8.33981 9.13733 7.97514 8.71628 7.76037 8.23406C6.207 8.62716 4.26624 8.92242 2.96351 8.32491C1.76781 7.77545 1.76693 6.59178 2.96351 6.04322C4.26267 5.44396 6.20697 5.73747 7.76037 6.13145C7.79631 6.05021 7.83751 5.97071 7.8831 5.89122C8.41083 4.98011 9.4128 4.51013 10.4008 4.61233C10.8356 3.07575 11.5509 1.25274 12.7195 0.428892C13.7907 -0.325858 14.826 0.269033 14.705 1.57151C14.5735 2.99278 13.3471 4.52065 12.2286 5.66429ZM11.4895 9.38482C11.4475 9.41102 11.4045 9.43548 11.3616 9.45819C11.9305 11.539 12.6932 12.6798 13.3059 13.1114C13.6653 13.3647 13.7355 13.3315 13.6943 12.8887C13.6241 12.1435 13.0149 10.9153 11.4895 9.38482ZM10.9171 5.82508C10.1641 5.3918 9.20158 5.64862 8.76678 6.399C8.33198 7.14939 8.5897 8.10854 9.34272 8.54182C10.0957 8.9751 11.0582 8.71828 11.493 7.9679C11.9279 7.21751 11.6701 6.25836 10.9171 5.82508Z" fill="currentColor" />
  <path d="M11.4265 4.94541L11.4905 4.98385C13.014 3.45337 13.6233 2.22426 13.6916 1.47913C13.732 1.04236 13.6645 1.00391 13.3059 1.25724C12.6931 1.68878 11.9296 2.82876 11.3616 4.90956L11.4265 4.94541Z" fill="currentColor" />
  <path d="M7.53702 7.1109C5.44453 6.56057 4.07251 6.64879 3.39141 6.96152C2.98466 7.14496 2.99168 7.22359 3.39053 7.40703C4.07168 7.72063 5.44444 7.808 7.53704 7.25853C7.53529 7.20961 7.53526 7.15981 7.53702 7.1109Z" fill="currentColor" />
  <path d="M11.4896 9.38477C11.4475 9.41097 11.4045 9.43543 11.3616 9.45814C11.9305 11.5389 12.6932 12.6797 13.3059 13.1113C13.6653 13.3646 13.7355 13.3314 13.6943 12.8886C13.6241 12.1434 13.0149 10.9152 11.4896 9.38477Z" fill="currentColor" />
</svg>
  