<svg xmlns="http://www.w3.org/2000/svg" xml:space="preserve" style="enable-background:new 0 0 696.8 697.9" viewBox="0 0 696.8 697.9">
  <path fill="currentColor" d="M348.4 697.9c-92.3-.1-180.9-36.8-246.2-102.2C36.9 530.3.1 441.5 0 349c.1-92.6 36.9-181.3 102.2-246.7C167.5 36.9 256.1.1 348.4 0c92.3.1 180.9 36.9 246.2 102.3 65.3 65.4 102.1 154.1 102.2 246.7-.1 92.6-36.9 181.3-102.2 246.7S440.7 697.9 348.4 697.9zm0-671c-85.2.1-166.9 34-227.2 94.4C60.9 181.6 26.9 263.5 26.8 349c.1 85.4 34 167.4 94.3 227.8 60.3 60.4 142 94.3 227.3 94.3 85.2 0 167-33.9 227.3-94.3C636 516.3 669.9 434.4 670 349c-.1-85.4-34.1-167.3-94.3-227.7-60.4-60.4-142.1-94.4-227.3-94.4z"/>
  <path fill="currentColor" d="M392.4 642.7c-76.5-.1-149.8-30.5-203.9-84.7-54.1-54.2-84.6-127.7-84.7-204.4.1-76.7 30.6-150.2 84.7-204.4C242.6 95 315.9 64.5 392.4 64.5c76.5.1 149.8 30.5 203.9 84.7 54.1 54.2 84.6 127.7 84.7 204.4-.1 76.7-30.6 150.2-84.7 204.4-54 54.2-127.4 84.7-203.9 84.7zm0-557.4c-71 .1-139 28.3-189.2 78.6s-78.4 118.5-78.6 189.6c.1 71.1 28.4 139.3 78.6 189.6 50.2 50.3 118.2 78.5 189.2 78.6 71-.1 139-28.3 189.2-78.6 50.2-50.3 78.5-118.5 78.6-189.6-.1-71.1-28.4-139.3-78.6-189.6-50.2-50.2-118.2-78.5-189.2-78.6z"/>
  <path fill="currentColor" d="M436.5 587.5c-60.7 0-118.8-24.2-161.7-67.2-42.9-43-67.1-101.3-67.1-162.1.1-60.8 24.2-119.1 67.1-162.1s101.1-67.1 161.7-67.2c60.7 0 118.8 24.2 161.7 67.2 42.9 43 67 101.3 67.1 162.1-.1 60.8-24.2 119.1-67.1 162.1-42.9 43-101.1 67.2-161.7 67.2zm0-443.5c-56.7 0-111.1 22.6-151.2 62.8-40.1 40.2-62.7 94.7-62.8 151.5.1 56.8 22.7 111.3 62.8 151.5s94.5 62.8 151.2 62.8c56.7 0 111.1-22.6 151.2-62.8 40.1-40.2 62.7-94.7 62.8-151.5-.1-56.9-22.7-111.4-62.8-151.5-40.2-40.2-94.5-62.8-151.2-62.8z"/>
  <path fill="currentColor" d="M480.5 532.3c-44.8 0-87.8-17.9-119.5-49.6-31.7-31.8-49.5-74.8-49.6-119.7.1-44.9 17.9-88 49.6-119.8 31.7-31.8 74.7-49.6 119.5-49.7 44.8 0 87.8 17.9 119.5 49.7C631.7 275 649.5 318 649.6 363c-.1 44.9-17.9 88-49.6 119.7-31.7 31.7-74.7 49.6-119.5 49.6zm0-329.8c-42.5 0-83.2 17-113.2 47-30 30.1-46.9 70.9-47 113.4.1 42.6 17 83.3 47 113.4 30 30.1 70.7 47 113.2 47 42.4 0 83.1-16.9 113.2-47 30-30.1 46.9-70.9 47-113.4-.1-42.6-17-83.4-47-113.4-30-30.1-70.7-47-113.2-47z"/>
</svg>