<svg width="21" height="21" viewBox="0 0 21 21" fill="none" xmlns="http://www.w3.org/2000/svg">
<path d="M4.38428 0.866089H6.38428V2.86609H4.38428V0.866089ZM6.38428 3.86609H4.38428V6.86609H0.384277V15.8661H6.38428V13.8661H8.38428V15.8661H12.3843V13.8661H14.3843V15.8661H20.3843V6.86609H16.3843V3.86609H14.3843V6.86609H11.3843V3.86609H9.38428V6.86609H6.38428V3.86609ZM18.3843 13.8661H14.3843V10.8661H12.3843V13.8661H8.38428V10.8661H6.38428V13.8661H2.38428V8.86609H18.3843V13.8661ZM0.384277 18.8661H20.3843V20.8661H0.384277V18.8661ZM11.3843 0.866089H9.38428V2.86609H11.3843V0.866089ZM14.3843 0.866089H16.3843V2.86609H14.3843V0.866089ZM0.384277 15.8661H2.38428V18.8661H0.384277V15.8661ZM18.3843 15.8661H20.3843V18.8661H18.3843V15.8661Z" fill="currentColor"/>
</svg>
