<svg width="58" height="58" viewBox="0 0 58 58" fill="none" xmlns="http://www.w3.org/2000/svg">
<rect width="4.33424" height="4.33424" transform="matrix(1 0 0 -1 20.335 7.32812)" fill="#25CBFF" fill-opacity="0.2"/>
<rect width="4.33424" height="4.33424" transform="matrix(1 0 0 -1 24.6689 7.32812)" fill="#25CBFF" fill-opacity="0.2"/>
<rect width="4.33424" height="4.33424" transform="matrix(1 0 0 -1 29.0039 7.32812)" fill="#25CBFF" fill-opacity="0.2"/>
<rect width="4.33424" height="4.33424" transform="matrix(1 0 0 -1 33.3379 7.32812)" fill="#25CBFF" fill-opacity="0.2"/>
<rect width="4.33424" height="4.33424" transform="matrix(1 0 0 -1 11.667 11.6631)" fill="#25CBFF" fill-opacity="0.2"/>
<rect width="4.33424" height="4.33424" transform="matrix(1 0 0 -1 16.001 11.6631)" fill="#25CBFF" fill-opacity="0.2"/>
<rect width="4.33424" height="4.33424" transform="matrix(1 0 0 -1 20.3359 11.6631)" fill="#25CBFF" fill-opacity="0.2"/>
<rect width="4.33424" height="4.33424" transform="matrix(1 0 0 -1 24.6699 11.6631)" fill="#25CBFF" fill-opacity="0.2"/>
<rect width="4.33424" height="4.33424" transform="matrix(1 0 0 -1 29.0039 11.6631)" fill="#25CBFF" fill-opacity="0.2"/>
<rect width="4.33424" height="4.33424" transform="matrix(1 0 0 -1 33.3379 11.6631)" fill="#25CBFF" fill-opacity="0.2"/>
<rect width="4.33424" height="4.33424" transform="matrix(1 0 0 -1 37.6729 11.6631)" fill="#25CBFF" fill-opacity="0.2"/>
<rect width="4.33424" height="4.33424" transform="matrix(1 0 0 -1 42.0068 11.6631)" fill="#25CBFF" fill-opacity="0.2"/>
<rect width="4.33424" height="4.33424" transform="matrix(1 0 0 -1 7.33203 15.9971)" fill="#25CBFF" fill-opacity="0.2"/>
<rect width="4.33424" height="4.33424" transform="matrix(1 0 0 -1 11.666 15.9971)" fill="#25CBFF" fill-opacity="0.2"/>
<rect width="4.33424" height="4.33424" transform="matrix(1 0 0 -1 16.001 15.9971)" fill="#25CBFF" fill-opacity="0.2"/>
<rect width="4.33424" height="4.33424" transform="matrix(1 0 0 -1 20.335 15.9971)" fill="#25CBFF" fill-opacity="0.2"/>
<rect width="4.33424" height="4.33424" transform="matrix(1 0 0 -1 24.6689 15.9971)" fill="#25CBFF" fill-opacity="0.2"/>
<rect width="4.33424" height="4.33424" transform="matrix(1 0 0 -1 29.0029 15.9971)" fill="#25CBFF" fill-opacity="0.2"/>
<rect width="4.33424" height="4.33424" transform="matrix(1 0 0 -1 33.3379 15.9971)" fill="#25CBFF" fill-opacity="0.2"/>
<rect width="4.33424" height="4.33424" transform="matrix(1 0 0 -1 37.6719 15.9971)" fill="#25CBFF" fill-opacity="0.2"/>
<rect width="4.33424" height="4.33424" transform="matrix(1 0 0 -1 42.0059 15.9971)" fill="#25CBFF" fill-opacity="0.2"/>
<rect width="4.33424" height="4.33424" transform="matrix(1 0 0 -1 46.3398 15.9971)" fill="#25CBFF" fill-opacity="0.2"/>
<rect width="4.33424" height="4.33424" transform="matrix(1 0 0 -1 5.16504 20.3311)" fill="#25CBFF" fill-opacity="0.2"/>
<rect width="4.33424" height="4.33424" transform="matrix(1 0 0 -1 9.49902 20.3311)" fill="#25CBFF" fill-opacity="0.2"/>
<rect width="4.33424" height="4.33424" transform="matrix(1 0 0 -1 13.834 20.3311)" fill="#25CBFF" fill-opacity="0.2"/>
<rect width="4.33424" height="4.33424" transform="matrix(1 0 0 -1 18.168 20.3311)" fill="#25CBFF" fill-opacity="0.2"/>
<rect width="4.33424" height="4.33424" transform="matrix(1 0 0 -1 22.502 20.3311)" fill="#25CBFF" fill-opacity="0.2"/>
<rect width="4.33424" height="4.33424" transform="matrix(1 0 0 -1 26.8359 20.3311)" fill="#25CBFF" fill-opacity="0.2"/>
<rect width="4.33424" height="4.33424" transform="matrix(1 0 0 -1 31.1709 20.3311)" fill="#25CBFF" fill-opacity="0.2"/>
<rect width="4.33424" height="4.33424" transform="matrix(1 0 0 -1 35.5049 20.3311)" fill="#25CBFF" fill-opacity="0.2"/>
<rect width="4.33424" height="4.33424" transform="matrix(1 0 0 -1 39.8389 20.3311)" fill="#25CBFF" fill-opacity="0.2"/>
<rect width="4.33424" height="4.33424" transform="matrix(1 0 0 -1 44.1729 20.3311)" fill="#25CBFF" fill-opacity="0.2"/>
<rect width="4.33424" height="4.33424" transform="matrix(1 0 0 -1 48.5078 20.3311)" fill="#25CBFF" fill-opacity="0.2"/>
<rect width="4.33424" height="4.33424" transform="matrix(1 0 0 -1 2.99805 24.665)" fill="#25CBFF" fill-opacity="0.2"/>
<rect width="4.33424" height="4.33424" transform="matrix(1 0 0 -1 7.33203 24.665)" fill="#25CBFF" fill-opacity="0.2"/>
<rect width="4.33424" height="4.33424" transform="matrix(1 0 0 -1 11.667 24.665)" fill="#25CBFF" fill-opacity="0.2"/>
<rect width="4.33424" height="4.33424" transform="matrix(1 0 0 -1 16.001 24.665)" fill="#25CBFF" fill-opacity="0.2"/>
<rect width="4.33424" height="4.33424" transform="matrix(1 0 0 -1 20.335 24.665)" fill="#25CBFF" fill-opacity="0.2"/>
<rect width="4.33424" height="4.33424" transform="matrix(1 0 0 -1 24.6689 24.665)" fill="#25CBFF" fill-opacity="0.2"/>
<rect width="4.33424" height="4.33424" transform="matrix(1 0 0 -1 29.0039 24.665)" fill="#25CBFF" fill-opacity="0.2"/>
<rect width="4.33424" height="4.33424" transform="matrix(1 0 0 -1 33.3379 24.665)" fill="#25CBFF" fill-opacity="0.2"/>
<rect width="4.33424" height="4.33424" transform="matrix(1 0 0 -1 37.6719 24.665)" fill="#25CBFF" fill-opacity="0.2"/>
<rect width="4.33424" height="4.33424" transform="matrix(1 0 0 -1 42.0059 24.665)" fill="#25CBFF" fill-opacity="0.2"/>
<rect width="4.33424" height="4.33424" transform="matrix(1 0 0 -1 46.3408 24.665)" fill="#25CBFF" fill-opacity="0.2"/>
<rect width="4.33424" height="4.33424" transform="matrix(1 0 0 -1 50.6748 24.665)" fill="#25CBFF" fill-opacity="0.2"/>
<rect x="2.99805" y="24.665" width="4.33424" height="4.33424" fill="#25CBFF" fill-opacity="0.2"/>
<rect x="7.33203" y="24.665" width="4.33424" height="4.33424" fill="#25CBFF" fill-opacity="0.2"/>
<rect x="11.667" y="24.665" width="4.33424" height="4.33424" fill="#25CBFF" fill-opacity="0.2"/>
<rect x="16.001" y="24.665" width="4.33424" height="4.33424" fill="#25CBFF" fill-opacity="0.2"/>
<rect x="20.335" y="24.665" width="4.33424" height="4.33424" fill="#25CBFF" fill-opacity="0.2"/>
<rect x="24.6689" y="24.665" width="4.33424" height="4.33424" fill="#25CBFF" fill-opacity="0.2"/>
<rect x="29.0039" y="24.665" width="4.33424" height="4.33424" fill="#25CBFF" fill-opacity="0.2"/>
<rect x="33.3379" y="24.665" width="4.33424" height="4.33424" fill="#25CBFF" fill-opacity="0.2"/>
<rect x="37.6719" y="24.665" width="4.33424" height="4.33424" fill="#25CBFF" fill-opacity="0.2"/>
<rect x="42.0059" y="24.665" width="4.33424" height="4.33424" fill="#25CBFF" fill-opacity="0.2"/>
<rect x="46.3408" y="24.665" width="4.33424" height="4.33424" fill="#25CBFF" fill-opacity="0.2"/>
<rect x="50.6748" y="24.665" width="4.33424" height="4.33424" fill="#25CBFF" fill-opacity="0.2"/>
<rect x="2.99805" y="29" width="4.33424" height="4.33424" fill="#25CBFF" fill-opacity="0.2"/>
<rect x="7.33203" y="29" width="4.33424" height="4.33424" fill="#25CBFF" fill-opacity="0.2"/>
<rect x="11.667" y="29" width="4.33424" height="4.33424" fill="#25CBFF" fill-opacity="0.2"/>
<rect x="16.001" y="29" width="4.33424" height="4.33424" fill="#25CBFF" fill-opacity="0.2"/>
<rect x="20.335" y="29" width="4.33424" height="4.33424" fill="#25CBFF" fill-opacity="0.2"/>
<rect x="24.6689" y="29" width="4.33424" height="4.33424" fill="#25CBFF" fill-opacity="0.2"/>
<rect x="29.0039" y="29" width="4.33424" height="4.33424" fill="#25CBFF" fill-opacity="0.2"/>
<rect x="33.3379" y="29" width="4.33424" height="4.33424" fill="#25CBFF" fill-opacity="0.2"/>
<rect x="37.6719" y="29" width="4.33424" height="4.33424" fill="#25CBFF" fill-opacity="0.2"/>
<rect x="42.0059" y="29" width="4.33424" height="4.33424" fill="#25CBFF" fill-opacity="0.2"/>
<rect x="46.3408" y="29" width="4.33424" height="4.33424" fill="#25CBFF" fill-opacity="0.2"/>
<rect x="50.6748" y="29" width="4.33424" height="4.33424" fill="#25CBFF" fill-opacity="0.2"/>
<rect x="2.99805" y="33.334" width="4.33424" height="4.33424" fill="#25CBFF" fill-opacity="0.2"/>
<rect x="7.33203" y="33.334" width="4.33424" height="4.33424" fill="#25CBFF" fill-opacity="0.2"/>
<rect x="11.667" y="33.334" width="4.33424" height="4.33424" fill="#25CBFF" fill-opacity="0.2"/>
<rect x="16.001" y="33.334" width="4.33424" height="4.33424" fill="#25CBFF" fill-opacity="0.2"/>
<rect x="20.335" y="33.334" width="4.33424" height="4.33424" fill="#25CBFF" fill-opacity="0.2"/>
<rect x="24.6689" y="33.334" width="4.33424" height="4.33424" fill="#25CBFF" fill-opacity="0.2"/>
<rect x="29.0039" y="33.334" width="4.33424" height="4.33424" fill="#25CBFF" fill-opacity="0.2"/>
<rect x="33.3379" y="33.334" width="4.33424" height="4.33424" fill="#25CBFF" fill-opacity="0.2"/>
<rect x="37.6719" y="33.334" width="4.33424" height="4.33424" fill="#25CBFF" fill-opacity="0.2"/>
<rect x="42.0059" y="33.334" width="4.33424" height="4.33424" fill="#25CBFF" fill-opacity="0.2"/>
<rect x="46.3408" y="33.334" width="4.33424" height="4.33424" fill="#25CBFF" fill-opacity="0.2"/>
<rect x="50.6748" y="33.334" width="4.33424" height="4.33424" fill="#25CBFF" fill-opacity="0.2"/>
<rect x="5.16504" y="37.668" width="4.33424" height="4.33424" fill="#25CBFF" fill-opacity="0.2"/>
<rect x="9.49902" y="37.668" width="4.33424" height="4.33424" fill="#25CBFF" fill-opacity="0.2"/>
<rect x="13.834" y="37.668" width="4.33424" height="4.33424" fill="#25CBFF" fill-opacity="0.2"/>
<rect x="18.168" y="37.668" width="4.33424" height="4.33424" fill="#25CBFF" fill-opacity="0.2"/>
<rect x="22.502" y="37.668" width="4.33424" height="4.33424" fill="#25CBFF" fill-opacity="0.2"/>
<rect x="26.8359" y="37.668" width="4.33424" height="4.33424" fill="#25CBFF" fill-opacity="0.2"/>
<rect x="31.1709" y="37.668" width="4.33424" height="4.33424" fill="#25CBFF" fill-opacity="0.2"/>
<rect x="35.5049" y="37.668" width="4.33424" height="4.33424" fill="#25CBFF" fill-opacity="0.2"/>
<rect x="39.8389" y="37.668" width="4.33424" height="4.33424" fill="#25CBFF" fill-opacity="0.2"/>
<rect x="44.1729" y="37.668" width="4.33424" height="4.33424" fill="#25CBFF" fill-opacity="0.2"/>
<rect x="48.5078" y="37.668" width="4.33424" height="4.33424" fill="#25CBFF" fill-opacity="0.2"/>
<rect x="7.33203" y="42.002" width="4.33424" height="4.33424" fill="#25CBFF" fill-opacity="0.2"/>
<rect x="11.666" y="42.002" width="4.33424" height="4.33424" fill="#25CBFF" fill-opacity="0.2"/>
<rect x="16.001" y="42.002" width="4.33424" height="4.33424" fill="#25CBFF" fill-opacity="0.2"/>
<rect x="20.335" y="42.002" width="4.33424" height="4.33424" fill="#25CBFF" fill-opacity="0.2"/>
<rect x="24.6689" y="42.002" width="4.33424" height="4.33424" fill="#25CBFF" fill-opacity="0.2"/>
<rect x="29.0029" y="42.002" width="4.33424" height="4.33424" fill="#25CBFF" fill-opacity="0.2"/>
<rect x="33.3379" y="42.002" width="4.33424" height="4.33424" fill="#25CBFF" fill-opacity="0.2"/>
<rect x="37.6719" y="42.002" width="4.33424" height="4.33424" fill="#25CBFF" fill-opacity="0.2"/>
<rect x="42.0059" y="42.002" width="4.33424" height="4.33424" fill="#25CBFF" fill-opacity="0.2"/>
<rect x="46.3398" y="42.002" width="4.33424" height="4.33424" fill="#25CBFF" fill-opacity="0.2"/>
<rect x="11.667" y="46.3369" width="4.33424" height="4.33424" fill="#25CBFF" fill-opacity="0.2"/>
<rect x="16.001" y="46.3369" width="4.33424" height="4.33424" fill="#25CBFF" fill-opacity="0.2"/>
<rect x="20.3359" y="46.3369" width="4.33424" height="4.33424" fill="#25CBFF" fill-opacity="0.2"/>
<rect x="24.6699" y="46.3369" width="4.33424" height="4.33424" fill="#25CBFF" fill-opacity="0.2"/>
<rect x="29.0039" y="46.3369" width="4.33424" height="4.33424" fill="#25CBFF" fill-opacity="0.2"/>
<rect x="33.3379" y="46.3369" width="4.33424" height="4.33424" fill="#25CBFF" fill-opacity="0.2"/>
<rect x="37.6729" y="46.3369" width="4.33424" height="4.33424" fill="#25CBFF" fill-opacity="0.2"/>
<rect x="42.0068" y="46.3369" width="4.33424" height="4.33424" fill="#25CBFF" fill-opacity="0.2"/>
<rect x="20.335" y="50.6709" width="4.33424" height="4.33424" fill="#25CBFF" fill-opacity="0.2"/>
<rect x="24.6689" y="50.6709" width="4.33424" height="4.33424" fill="#25CBFF" fill-opacity="0.2"/>
<rect x="29.0039" y="50.6709" width="4.33424" height="4.33424" fill="#25CBFF" fill-opacity="0.2"/>
<rect x="33.3379" y="50.6709" width="4.33424" height="4.33424" fill="#25CBFF" fill-opacity="0.2"/>
<g clip-path="url(#clip0_29313_14929)">
<path d="M32.9731 40.3484H34.4089V43.2223H30.0981V40.3484H32.9731ZM24.3514 43.2223H27.2253V40.3484H22.9145V43.2223H24.3514ZM40.1578 37.4768V34.6006H37.2828V40.3461L34.41 40.3449V37.4733H22.9202V40.3483H20.0385V34.6029L17.1669 34.604V40.3495L14.293 40.3483V25.9789H17.1669V23.105H20.0385V20.2288H22.9147V17.3572H25.7886V20.2288H31.5341V17.3572H34.408V20.2288H37.2819L37.2808 23.105H40.1558V25.9789H43.0297V40.3483H40.1581L40.1578 37.4768ZM34.4123 28.8563H31.5361V31.7302H34.41L34.4123 28.8563ZM22.9225 31.7302H25.7964V28.8528H22.9147L22.9225 31.7302ZM37.2831 14.4834H34.4103V17.3573H37.2842L37.2831 14.4834ZM20.0385 14.4834V17.3573H22.9147V14.4834H20.0385Z" fill="#9CDDFF"/>
</g>
<defs>
<clipPath id="clip0_29313_14929">
<rect width="28.739" height="28.7389" fill="white" transform="translate(14.293 14.4834)"/>
</clipPath>
</defs>
</svg>
