<svg xmlns="http://www.w3.org/2000/svg" width="20" height="20" viewBox="0 0 20 20" fill="none">
<path d="M5.69922 10.2002C5.69922 11.3049 4.8039 12.2002 3.69922 12.2002C2.59454 12.2002 1.69922 11.3049 1.69922 10.2002C1.69922 9.09552 2.59454 8.2002 3.69922 8.2002C4.8039 8.2002 5.69922 9.09552 5.69922 10.2002Z" fill="currentColor"/>
<path d="M14.8994 5C14.8994 6.10468 14.0041 7 12.8994 7C11.7947 7 10.8994 6.10468 10.8994 5C10.8994 3.89532 11.7947 3 12.8994 3C14.0041 3 14.8994 3.89532 14.8994 5Z" fill="currentColor"/>
<path d="M14.8994 15C14.8994 16.1047 14.0041 17 12.8994 17C11.7947 17 10.8994 16.1047 10.8994 15C10.8994 13.8953 11.7947 13 12.8994 13C14.0041 13 14.8994 13.8953 14.8994 15Z" fill="currentColor"/>
<path d="M16.2995 8.2C15.4416 8.2 14.712 8.7414 14.4284 9.5H12.4502C12.2174 8.3039 11.1643 7.4 9.89943 7.4C9.61115 7.4 9.33537 7.44844 9.07599 7.53516L8.34943 6.37422C8.68927 6.01562 8.89943 5.53282 8.89943 5C8.89943 3.89532 8.00411 3 6.89943 3C5.79475 3 4.89943 3.89532 4.89943 5C4.89943 6.1039 5.79475 7 6.89943 7C7.11037 7 7.31271 6.96719 7.50333 6.90703L8.20645 8.02969C7.65177 8.50625 7.29941 9.21173 7.29941 10C7.29941 10.8102 7.66973 11.5328 8.25019 12.0102L7.53691 13.1063C7.33613 13.0383 7.12207 13.0001 6.89941 13.0001C5.79473 13.0001 4.89941 13.8954 4.89941 15.0001C4.89941 16.104 5.79473 17.0001 6.89941 17.0001C8.00409 17.0001 8.89942 16.104 8.89942 15.0001C8.89942 14.4797 8.69941 14.0079 8.37363 13.6524L9.13379 12.4852C9.37597 12.5594 9.63301 12.6001 9.89942 12.6001C11.1643 12.6001 12.2174 11.6962 12.4502 10.5001H14.3244C14.4697 11.4618 15.2971 12.2001 16.2994 12.2001C17.4041 12.2001 18.2994 11.304 18.2994 10.2001C18.2994 9.09539 17.4041 8.2 16.2995 8.2ZM9.89945 11.6C9.01741 11.6 8.29945 10.882 8.29945 10C8.29945 9.11796 9.01741 8.4 9.89945 8.4C10.7815 8.4 11.4995 9.11796 11.4995 10C11.4995 10.882 10.7815 11.6 9.89945 11.6Z" fill="currentColor"/>
</svg>