<svg width="41" height="41" viewBox="0 0 41 41" fill="none" xmlns="http://www.w3.org/2000/svg">
<path d="M19.5 2C19.5 1.44771 19.948 0.997325 20.4996 1.02564C22.7188 1.13954 24.9048 1.63209 26.9623 2.48435C29.3282 3.46432 31.4778 4.90068 33.2886 6.71142C35.0993 8.52216 36.5357 10.6718 37.5157 13.0377C38.3679 15.0952 38.8605 17.2812 38.9744 19.5004C39.0027 20.052 38.5523 20.5 38 20.5L30.3489 20.5C29.7966 20.5 29.3541 20.0511 29.2982 19.5017C29.2013 18.5508 28.9663 17.6173 28.5992 16.731C28.1042 15.5361 27.3788 14.4503 26.4642 13.5358C25.5497 12.6212 24.4639 11.8958 23.269 11.4008C22.3827 11.0337 21.4492 10.7987 20.4983 10.7018C19.9489 10.6459 19.5 10.2034 19.5 9.65112V2Z" fill="#676C80"/>
<path opacity="0.2" d="M37.8168 23.0968C38.3637 23.1743 38.7467 23.6811 38.6413 24.2232C38.217 26.4045 37.4225 28.4997 36.2898 30.4172C35.1572 32.3347 33.7058 34.0419 32.0003 35.4664C31.5764 35.8205 30.9476 35.7296 30.6158 35.2882L26.0186 29.1722C25.6867 28.7307 25.7797 28.1073 26.1852 27.7324C26.8871 27.0836 27.4922 26.3349 27.9801 25.5089C28.468 24.6829 28.8316 23.7916 29.061 22.8637C29.1936 22.3276 29.6947 21.9453 30.2415 22.0228L37.8168 23.0968Z" fill="#676C80"/>
<circle cx="19.5" cy="20.5" r="19.5" fill="#546380" fill-opacity="0.35"/>
</svg>
