<svg width="54" height="53" viewBox="0 0 54 53" fill="none" xmlns="http://www.w3.org/2000/svg">
<path opacity="0.2" d="M52.6407 6.99554C52.6407 3.43204 49.7913 0.513672 46.2967 0.513672C42.6205 0.513672 39.7461 3.43204 39.7461 6.99554V14.9365C43.654 19.3204 46.0651 25.1321 46.0651 31.5331V51.341H52.6409L52.6407 6.99554Z" fill="#676C80"/>
<path d="M22.1004 10.1299C16.583 10.1299 11.3725 12.3468 7.43965 16.3799C3.50051 20.4193 1.33984 25.7989 1.33984 31.5354V51.3433H12.5187V38.5675H31.6757V51.3433H42.8545L42.8608 31.5354C42.8608 19.7366 33.5418 10.1299 22.1004 10.1299ZM27.7101 25.9995H16.5L16.4953 20.6448H27.7054L27.7101 25.9995Z" fill="#676C80"/>
<g clip-path="url(#clip0_2207_23281)">
<path fill-rule="evenodd" clip-rule="evenodd" d="M13.1462 27.5796H18.0453V31.2143H6.98248L13.1462 27.5796ZM18.6007 15.3018C18.9173 15.3018 19.0756 15.4601 19.0756 15.7767C19.0756 16.0933 18.9173 16.4099 18.6007 16.4099C18.284 16.4099 17.9675 16.0933 17.9675 15.7767C17.9675 15.4601 18.2841 15.3018 18.6007 15.3018ZM19.6264 14.4609H15.9917C14.7274 14.4609 13.7796 15.4087 13.7796 16.673V18.254C13.7796 18.5706 14.0962 18.8872 14.4128 18.8872H18.6808V32.3221H37.015C37.6482 32.3221 38.1211 31.8472 38.1211 31.216V28.6873C38.1211 28.0541 37.6462 27.5812 37.015 27.5812H24.0549V28.0561H35.1177C35.276 28.0561 35.4343 28.2144 35.4343 28.3727C35.4343 28.531 35.276 28.6893 35.1177 28.6893H23.4217V15.5707C23.4217 14.9375 22.9468 14.4647 22.3156 14.4647H19.6286L19.6264 14.4609Z" fill="#333750"/>
</g>
<rect x="10.0898" y="43" width="24" height="4" transform="rotate(8.50394 10.0898 43)" fill="#333750"/>
<rect x="9.55469" y="42.2119" width="24" height="4" transform="rotate(-15 9.55469 42.2119)" fill="#333750"/>
<defs>
<clipPath id="clip0_2207_23281">
<rect width="21" height="12" fill="white" transform="translate(13.5 14)"/>
</clipPath>
</defs>
</svg>
