<svg xmlns="http://www.w3.org/2000/svg" width="34" height="36" viewBox="0 0 34 36" fill="none">
<path d="M31.6056 20.3792C32.0061 19.9791 32.5216 19.4642 33.0334 18.9536C34.1751 17.8139 34.1757 15.9653 33.034 14.825L31.8246 13.617C27.4944 17.942 21.0145 18.811 15.8196 16.2245C19.3306 16.873 22.9693 16.3678 26.1935 14.6364C28.3505 13.478 28.7601 10.5561 27.0285 8.82661L19.8885 1.69517C18.293 0.10161 15.7065 0.10161 14.1116 1.69517L6.4156 9.38196C11.484 7.23123 17.5724 8.22834 21.6945 12.3739C15.4058 9.32516 7.61538 10.4069 2.39394 15.6214C1.99341 16.0215 1.47731 16.537 0.965456 17.0482C-0.175637 18.1885 -0.175032 20.0359 0.965456 21.1756L2.17431 22.383C6.50454 18.058 12.9844 17.189 18.1793 19.7755C14.6683 19.127 11.0296 19.6322 7.80536 21.3636C5.64842 22.522 5.23881 25.4439 6.97042 27.1734L14.1104 34.3048C15.7059 35.8984 18.2924 35.8984 19.8873 34.3048L27.5833 26.618C22.5149 28.7688 16.4265 27.7717 12.3038 23.6261C18.5925 26.6748 26.3829 25.5931 31.6044 20.3786L31.6056 20.3792Z" fill="currentColor"/>
</svg>
