<svg width="17" height="16" viewBox="0 0 17 16" fill="none" xmlns="http://www.w3.org/2000/svg">
<g clip-path="url(#clip0_24586_17194)">
<path d="M14.9926 3.86541L13.1718 2.04462L11.9727 3.24373L13.7935 5.06452L14.9926 3.86541Z" fill="currentColor"/>
<path d="M7.52832 9.50981L9.53117 9.32784L12.9151 5.94396L11.0943 4.12317L7.71033 7.50705L7.52832 9.50981Z" fill="currentColor"/>
<path fill-rule="evenodd" clip-rule="evenodd" d="M3.72778 2.04266H2.54028V3.23515V13.2909V13.8649V14.4834H3.09378C3.11638 14.4859 3.13935 14.4872 3.16261 14.4872H13.3381C13.3607 14.4872 13.383 14.486 13.405 14.4836H13.9639V13.2911H13.9605V8.2659H12.7158V13.2426H3.78495V3.28922H8.76177V2.04462H3.72778V2.04266Z" fill="currentColor"/>
</g>
<defs>
<clipPath id="clip0_24586_17194">
<rect width="12.9768" height="12.9768" fill="white" transform="translate(2.27734 1.77771)"/>
</clipPath>
</defs>
</svg>
