<svg width="29" height="28" viewBox="0 0 29 28" fill="none" xmlns="http://www.w3.org/2000/svg">
<path d="M13.459 6.80788H15.5772V4.68973H9.22168V6.80788H13.4592H13.459Z" fill="currentColor"/>
<path d="M17.6982 8.92617V6.80801H15.5801V8.92617H17.6982Z" fill="currentColor"/>
<path d="M17.6992 17.3997V19.5179H19.8174V17.3997H17.6992Z" fill="currentColor"/>
<path d="M15.5801 15.2819V17.4H17.6982V15.2819H15.5801Z" fill="currentColor"/>
<path d="M17.6992 13.1622V15.2804H19.8174V8.9249H17.6992V13.1624V13.1622Z" fill="currentColor"/>
<path d="M9.22412 6.80783H7.10596V8.92598H9.22412V6.80783Z" fill="currentColor"/>
<path d="M19.8145 19.5178V21.636H21.9326V19.5178H19.8145Z" fill="currentColor"/>
<path d="M21.9351 21.6361V23.7554H24.0543V21.6361H21.9351Z" fill="currentColor"/>
<path d="M11.3447 17.3997H9.22656V19.5179H15.5821V17.3997H11.3446H11.3447Z" fill="currentColor"/>
<path d="M7.10693 11.0443V8.92612H4.98877V15.2816H7.10693V11.0442V11.0443Z" fill="currentColor"/>
<path d="M7.10596 15.2819V17.4H9.22412V15.2819H7.10596Z" fill="currentColor"/>
</svg>
