<svg width="88" height="34" viewBox="0 0 88 34" fill="currentColor" xmlns="http://www.w3.org/2000/svg">
<path fill-rule="evenodd" clip-rule="evenodd" d="M38.852 24.9261H48.1606L59.872 31.8323H38.852V24.9261ZM42.754 0H35.8478L35.8437 0.007061H30.7382C29.539 0.007061 28.6366 0.905562 28.6366 2.10866V27.0347H6.41363C6.11285 27.0347 5.81207 26.7339 5.81207 26.4331C5.81207 26.1323 6.11285 25.8315 6.41363 25.8315H27.4336V24.9292H2.80863C1.60937 24.9292 0.707031 25.8277 0.707031 27.0308V31.8355C0.707031 33.0348 1.60553 33.9371 2.80863 33.9371H37.6446V8.4101H45.754C46.3556 8.4101 46.9571 7.80856 46.9571 7.207V4.2031C46.9571 1.8008 45.1563 0 42.754 0ZM38.6279 4.31272C39.4563 4.31272 40.0878 3.2855 40.0878 2.45708C39.9145 1.81387 39.2505 1.26689 38.232 1.14552C37.2136 1.02416 36.7969 1.72762 36.7969 2.55604C36.7969 3.38447 37.7995 4.31272 38.6279 4.31272Z" fill="currentColor"/>
<g clip-path="url(#clip0_15454_36893)">
<path d="M65.4119 16.5222C65.4119 15.7981 65.9993 15.2108 66.7244 15.2097H66.9093H66.9082C67.3545 13.1053 68.8299 11.3661 70.8346 10.5841L70.2484 8.30687C70.2385 8.27406 70.2079 8.25109 70.174 8.25H66.7658C66.313 8.24891 65.9466 7.88032 65.9477 7.4275V6.4475C65.9466 5.99468 66.313 5.62609 66.7658 5.625H70.174C71.4077 5.625 72.484 6.46063 72.7903 7.655L73.4378 10.1674C74.8443 10.2352 76.1874 10.7667 77.2592 11.6789C78.3311 12.5911 79.0716 13.8325 79.3636 15.2094H79.8623C80.5874 15.2094 81.1748 15.7979 81.1748 16.5219C81.1748 17.2471 80.5874 17.8344 79.8623 17.8344H79.5954L78.1976 31.2579C78.1812 31.4318 78.062 31.5773 77.8957 31.6298C76.3448 32.1023 74.7303 32.3331 73.1094 32.3123C71.4885 32.332 69.874 32.1023 68.3231 31.6298C68.159 31.5762 68.042 31.4296 68.0256 31.2579L66.6256 17.8243C65.9431 17.7751 65.4137 17.2075 65.4116 16.5217L65.4119 16.5222ZM71.946 7.8738C71.7382 7.06552 71.0087 6.50006 70.1742 6.50006H66.8228V7.37506H70.1742C70.6095 7.37506 70.989 7.67038 71.0973 8.09256L71.6759 10.3293C71.9602 10.2593 72.2479 10.2101 72.5399 10.1805L71.946 7.8738ZM76.3571 12.0738C76.2729 12.1011 76.1898 12.1285 76.1034 12.1536C76.0881 12.158 76.0728 12.1602 76.0575 12.1602C75.9765 12.1602 75.9087 12.1022 75.8956 12.0224C75.8825 11.9436 75.9295 11.866 76.0061 11.8419C75.1409 11.3082 74.1445 11.0271 73.1285 11.0282C72.1125 11.0293 71.116 11.3147 70.2529 11.8507C70.3295 11.8747 70.3765 11.9524 70.3634 12.0312C70.3502 12.111 70.2824 12.169 70.2015 12.169C70.1862 12.169 70.172 12.1668 70.1566 12.1624C70.0702 12.1383 69.9871 12.1099 69.9018 12.0837H69.9029C68.8573 12.846 68.1146 13.9529 67.8051 15.2096H78.4669C78.1563 13.9474 77.4093 12.8361 76.3571 12.0739L76.3571 12.0738ZM66.7246 16.9595H79.8627C80.1045 16.9595 80.3002 16.7637 80.3002 16.522C80.3002 16.2803 80.1045 16.0845 79.8627 16.0845H66.7246C66.4829 16.0845 66.2871 16.2803 66.2871 16.522C66.2871 16.7637 66.4829 16.9595 66.7246 16.9595ZM71.3751 12.262C71.3696 12.3057 71.3806 12.3495 71.4068 12.3845C71.4331 12.4184 71.4714 12.4413 71.5151 12.4479C71.8159 12.4905 72.1254 12.5212 72.435 12.5398H72.4448C72.5334 12.5398 72.6056 12.4687 72.6078 12.3801C72.6111 12.2915 72.5421 12.2171 72.4536 12.2116C72.1528 12.1941 71.852 12.1646 71.5611 12.123C71.5173 12.1154 71.4736 12.1263 71.4386 12.1526C71.4036 12.1788 71.3806 12.2193 71.3751 12.262L71.3751 12.262ZM73.6479 12.3834C73.6534 12.4709 73.7245 12.5376 73.812 12.5376H73.8218C74.1325 12.519 74.442 12.4873 74.7417 12.4435C74.7854 12.437 74.8237 12.414 74.85 12.379C74.8762 12.344 74.8872 12.3002 74.8806 12.2576C74.8751 12.2138 74.8522 12.1745 74.8172 12.1482C74.7822 12.122 74.7384 12.1121 74.6947 12.1187C74.4037 12.1613 74.1029 12.192 73.8022 12.2105C73.7584 12.2127 73.7179 12.2324 73.6895 12.2652C73.66 12.298 73.6457 12.3407 73.6479 12.3834H73.6479Z" fill="currentColor"/>
</g>
<defs>
<clipPath id="clip0_15454_36893">
<rect width="28" height="28" fill="currentColor" transform="matrix(-1 0 0 1 87.293 4.96875)"/>
</clipPath>
</defs>
</svg>
