<svg xmlns="http://www.w3.org/2000/svg" width="24" height="24" viewBox="0 0 24 24" fill="none">
  <path fill="currentColor" d="M13.76 17.514v3.832c0 .437-.197.654-.592.654h-2.772c-.415 0-.624-.229-.624-.685v-3.77c0-.415.209-.623.624-.623h2.772c.395 0 .591.198.591.592zm-.03-4.081v.81c0 .437-.22.655-.656.655h-2.46c-.437 0-.655-.22-.655-.655v-.84c0-.687.114-1.238.343-1.652.229-.437.612-.872 1.152-1.308L13.2 9.009c.665-.519.997-1.09.997-1.713V7.11c0-.644-.155-1.1-.467-1.37-.29-.291-.778-.438-1.465-.438h-.56c-.643 0-1.112.137-1.402.407-.27.27-.405.737-.405 1.4v.656c0 .456-.218.685-.654.685H6.594c-.436 0-.653-.229-.653-.685v-.718c0-1.62.446-2.865 1.34-3.737C8.173 2.436 9.44 2 11.08 2h1.837c1.641 0 2.909.436 3.801 1.309.894.872 1.34 2.117 1.34 3.737v.438c0 1.016-.467 1.93-1.402 2.741l-2.119 1.713c-.54.498-.81.997-.81 1.495z"/>
</svg>