<svg xmlns="http://www.w3.org/2000/svg" width="11" height="11" viewBox="0 0 11 11" fill="none">
<path fill-rule="evenodd" clip-rule="evenodd" d="M5.3801 0.776875C5.39557 0.724023 5.44455 0.6875 5.49998 0.6875C5.5554 0.6875 5.60439 0.724023 5.6203 0.776875C5.6203 0.776875 5.83987 1.51422 6.07576 2.30445C6.45131 3.56384 7.43613 4.54911 8.69552 4.92421C9.48615 5.1601 10.2231 5.37967 10.2231 5.37967C10.2759 5.39557 10.3125 5.44455 10.3125 5.49999C10.3125 5.55543 10.2759 5.6044 10.2231 5.62031C10.2231 5.62031 9.48618 5.83988 8.69552 6.07577C7.43613 6.45132 6.4513 7.43614 6.07576 8.69553C5.83987 9.48616 5.6203 10.2231 5.6203 10.2231C5.6044 10.276 5.55541 10.3125 5.49998 10.3125C5.44454 10.3125 5.39556 10.276 5.3801 10.2231C5.3801 10.2231 5.1601 9.48619 4.92421 8.69553C4.54908 7.43614 3.56384 6.45131 2.30445 6.07577C1.51425 5.83988 0.776875 5.62031 0.776875 5.62031C0.724023 5.60441 0.6875 5.55543 0.6875 5.49999C0.6875 5.44455 0.724023 5.39558 0.776875 5.37967C0.776875 5.37967 1.51422 5.1601 2.30445 4.92421C3.56384 4.54908 4.54911 3.56384 4.92421 2.30445C5.1601 1.51425 5.3801 0.776875 5.3801 0.776875Z" fill="currentColor"/>
</svg>