<svg xmlns="http://www.w3.org/2000/svg" width="24" height="24" viewBox="0 0 24 24" fill="none">
  <rect width="24" height="24" fill="#D5FF5C" rx="4"/>
  <path fill="#FD4848" fill-rule="evenodd" d="M16.535 12.916c.152.331.6.448.858.19l.472-.472a1.251 1.251 0 0 1 1.769 1.768l-3.824 3.823A4.993 4.993 0 0 1 11.986 20a4.995 4.995 0 0 1-3.942-1.922l-3.678-3.676a1.25 1.25 0 1 1 1.769-1.768l.465.465c.253.252.69.139.839-.185a.485.485 0 0 0 .045-.203v-5.71a1.25 1.25 0 0 1 2.502 0v2.888c0 .249.254.418.491.343a.363.363 0 0 0 .259-.342V5.25a1.25 1.25 0 0 1 2.501 0v4.64c0 .158.109.294.259.342.237.075.491-.094.491-.343V7.001a1.25 1.25 0 1 1 2.501 0v5.708c0 .072.017.142.047.207Z" clip-rule="evenodd"/>
  <path fill="#D5FF5C" d="M15.989 15.5S14.197 18 11.986 18s-4.002-2.5-4.002-2.5S9.777 13 11.987 13s4.002 2.5 4.002 2.5Z"/>
  <path stroke="#FD4848" stroke-width=".266" d="M13.854 15.5a1.868 1.868 0 1 1-3.735 0 1.868 1.868 0 0 1 3.735 0Z"/>
  <path stroke="#FD4848" stroke-width=".266" d="M13.104 15.5a1.117 1.117 0 1 1-2.235 0 1.117 1.117 0 0 1 2.235 0Z"/>
  <path stroke="#FD4848" stroke-width=".266" d="M14.605 15.5a2.618 2.618 0 1 1-5.236-.001 2.618 2.618 0 0 1 5.236.001Z"/>
  <path stroke="#FD4848" stroke-width=".266" d="M15.355 15.5a3.368 3.368 0 1 1-6.736-.002 3.368 3.368 0 0 1 6.736.002Z"/>
  <path fill="#162BEB" stroke="#FD4848" stroke-width=".266" d="M12.353 15.5a.367.367 0 1 1-.734 0 .367.367 0 0 1 .734 0Z"/>
  <circle cx="11.986" cy="15.5" r=".5" fill="#FD4848"/>
  <mask id="path-10-inside-1_4684_17034" fill="#fff">
    <path d="M15.989 15.5S14.197 18 11.986 18s-4.002-2.5-4.002-2.5S9.777 13 11.987 13s4.002 2.5 4.002 2.5Z"/>
  </mask>
  <path stroke="#D5FF5C" stroke-width=".532" d="M15.989 15.5S14.197 18 11.986 18s-4.002-2.5-4.002-2.5S9.777 13 11.987 13s4.002 2.5 4.002 2.5Z" mask="url(#path-10-inside-1_4684_17034)"/>
</svg>