<svg width="21" height="33" viewBox="0 0 21 33" fill="none" xmlns="http://www.w3.org/2000/svg">
<path d="M18.8626 2.31775H2.5332V12.1154H4.16615V3.95069H17.2297V12.1154H18.8626V2.31775ZM5.79909 12.1154H4.16615V13.7483H5.79909V12.1154ZM5.79909 13.7483H7.43203V15.3813H9.06497V17.0142H7.43203V15.3813H5.79909V13.7483ZM9.06497 17.0142V18.6472H12.3309V17.0142H13.9638V15.3813H12.3309V17.0142H9.06497ZM17.2297 12.1154H15.5967V13.7483H13.9638V15.3813H15.5967V13.7483H17.2297V12.1154Z" fill="#FC408C"/>
<path d="M5.79798 15.6694H4.16504V17.3024H5.79798V15.6694ZM5.79798 17.3024H7.43092V18.9353H9.06386V20.5683H7.43092V18.9353H5.79798V17.3024ZM9.06386 20.5683V22.2012H12.3297V20.5683H13.9627V18.9353H12.3297V20.5683H9.06386ZM17.2286 15.6694H15.5956V17.3024H13.9627V18.9353H15.5956V17.3024H17.2286V15.6694Z" fill="#FC408C"/>
<path d="M5.79798 19.1274H4.16504V20.7604H5.79798V19.1274ZM5.79798 20.7604H7.43092V22.3933H9.06386V24.0263H7.43092V22.3933H5.79798V20.7604ZM9.06386 24.0263V25.6592H12.3297V24.0263H13.9627V22.3933H12.3297V24.0263H9.06386ZM17.2286 19.1274H15.5956V20.7604H13.9627V22.3933H15.5956V20.7604H17.2286V19.1274Z" fill="#FC408C"/>
<g clip-path="url(#clip0_744_12643)">
<path fill-rule="evenodd" clip-rule="evenodd" d="M9.33379 6.00928C9.33379 6.20835 9.32808 6.32592 9.31838 6.32714C9.3099 6.3282 9.29603 6.33079 9.28755 6.33291C9.27908 6.33504 9.14731 6.33763 8.99475 6.33869L8.71735 6.34062V6.65622V6.97182L8.41298 6.976L8.10862 6.98017L8.10459 7.63916L8.10059 8.29817L8.72103 8.29413L9.34149 8.29011L9.34565 7.96295L9.34981 7.63579L9.65387 7.63161L9.95793 7.62744L9.96564 7.31151L9.97334 6.99559L10.601 6.99156L11.2287 6.98754L11.2329 7.30749L11.237 7.62744L11.5416 7.62685L11.8461 7.62626L11.8421 8.27411L11.8381 8.92196L11.5337 8.92613L11.2293 8.93031V9.24559V9.56088L10.9173 9.56504L10.6052 9.56922L10.601 9.88129L10.5969 10.1934H10.2812H9.96564L9.96382 10.5979C9.9628 10.8204 9.96107 11.1065 9.95996 11.2336C9.95841 11.4101 9.96249 11.4644 9.97719 11.4632C9.9878 11.4624 10.2773 11.4607 10.6206 11.4594L11.2447 11.4571V11.1415V10.8259L11.5491 10.8217L11.8535 10.8175L11.8566 10.5324C11.8583 10.3756 11.86 10.2388 11.8604 10.2284C11.861 10.2142 11.9394 10.2084 12.1733 10.2052L12.4853 10.2011V9.88514V9.56922L12.7879 9.56504L13.0905 9.56086L13.0932 9.13353C13.0947 8.8985 13.091 8.31697 13.0849 7.84125L13.074 6.97629L12.9646 6.97571C12.9044 6.97538 12.7702 6.97452 12.6664 6.97379L12.4776 6.97247V6.64916V6.32584L12.1656 6.32168L11.8535 6.3175L11.8493 6.00543L11.8451 5.69336H10.5895H9.33379V6.00928ZM9.96067 12.1453C9.95493 12.151 9.95022 12.4563 9.95022 12.8237V13.4916L10.5936 13.4876L11.237 13.4836V12.8132V12.1428L10.6041 12.1388C10.2559 12.1366 9.96641 12.1395 9.96067 12.1453Z" fill="white"/>
</g>
<defs>
<clipPath id="clip0_744_12643">
<rect width="7.89041" height="7.89041" fill="white" transform="translate(6.58984 5.61633)"/>
</clipPath>
</defs>
</svg>
