<svg width="30" height="30" viewBox="0 0 30 30" fill="none" xmlns="http://www.w3.org/2000/svg">
  <circle cx="14.999" cy="15.0002" r="14.0659" fill="url(#paint0_linear_13843_78734)" />
  <path d="M19.02 8.22784L14.6184 12.2616C14.1643 12.6786 13.571 12.9112 12.9545 12.9139L11.6422 12.917L11.638 8.22784H9.26611V21.6279H10.5597C10.9162 21.6288 11.2665 21.5345 11.5745 21.3549C11.8825 21.1752 12.1369 20.9166 12.3116 20.6058C12.3148 20.6016 12.3158 20.5969 12.3189 20.5943C12.5534 20.1687 12.6711 19.3279 12.6487 18.7538C12.5976 17.4415 12.3882 17.1003 12.3882 17.1003C12.3445 18 11.413 18.0484 11.413 18.0484C12.0756 17.4102 11.7146 16.9278 11.7146 16.9278C10.5414 17.7702 10.2481 16.8705 10.2257 16.7893C10.2622 16.8205 10.5966 17.1018 11.2306 16.2251C11.9011 15.2983 12.7956 13.7536 13.3645 13.3567C13.9349 12.9581 14.4757 12.991 14.4757 12.991C14.4757 12.991 14.7872 12.5653 15.6109 12.2116C16.434 11.8605 16.9622 12.3757 16.9622 12.3757C16.1204 13.0608 14.9769 14.186 14.9128 15.7984C14.8622 17.1034 17.6499 19.342 17.1607 22.649C17.4535 21.8978 17.5707 21.1455 17.4707 20.2146C17.3899 19.4633 16.9101 17.8942 16.9101 17.8942L19.5879 21.6269H22.5485L16.7617 13.6062L22.5479 8.22784H19.0195H19.02Z" fill="white" />
  <path d="M13.6289 13.9973C13.4419 14.3099 13.4419 14.4057 13.4419 14.4057C13.4419 14.4057 14.0957 14.2943 14.2728 13.5107C14.2744 13.5107 13.855 13.6191 13.6289 13.9973Z" fill="white" />
  <defs>
    <linearGradient id="paint0_linear_13843_78734" x1="43.2068" y1="19.3404" x2="21.7587" y2="-5.754" gradientUnits="userSpaceOnUse">
      <stop stop-color="#E40C5B" />
      <stop offset="1" stop-color="#FF4C3B" />
    </linearGradient>
  </defs>
</svg>
  