<svg width="30" height="30" viewBox="0 0 30 30" fill="none" xmlns="http://www.w3.org/2000/svg">
  <g clip-path="url(#clip0_13843_78779)">
    <circle cx="14.999" cy="15.0002" r="14.0659" fill="black" />
    <path d="M15.417 24.4201C12.9902 24.4185 10.663 23.4541 8.94606 21.7388C7.22932 20.0235 6.263 17.6972 6.25928 15.2703C6.263 12.8433 7.22932 10.5168 8.94606 8.80128C10.6628 7.08596 12.99 6.12142 15.417 6.11947C17.8441 6.12142 20.1713 7.08596 21.888 8.80128C23.6049 10.5168 24.5711 12.8433 24.5748 15.2703C24.5711 17.6972 23.6048 20.0235 21.888 21.7388C20.1711 23.4541 17.8439 24.4185 15.417 24.4201ZM15.417 6.82394C13.1768 6.82554 11.0286 7.71557 9.44385 9.29908C7.85911 10.8826 6.96712 13.0301 6.96375 15.2703C6.96588 17.5107 7.85751 19.6589 9.44261 21.2423C11.0275 22.8259 13.1766 23.7154 15.417 23.7154C17.6577 23.7154 19.8065 22.8259 21.3916 21.2423C22.9768 19.6589 23.8682 17.5107 23.8703 15.2703C23.867 13.0301 22.9752 10.8826 21.3902 9.29908C19.8055 7.71557 17.6573 6.82554 15.417 6.82394Z" fill="white" />
    <path d="M16.5734 22.9723C14.5627 22.9709 12.6345 22.1719 11.2122 20.7505C9.78997 19.3293 8.98952 17.402 8.98633 15.3913C8.98952 13.3806 9.78997 11.4533 11.2122 10.0319C12.6345 8.61093 14.5627 7.81173 16.5734 7.81031C18.5839 7.81173 20.5117 8.61093 21.9342 10.0319C23.3564 11.4533 24.157 13.3806 24.16 15.3913C24.157 17.402 23.3564 19.3293 21.9342 20.7505C20.5117 22.1719 18.5839 22.9709 16.5734 22.9723ZM16.5734 8.35742C14.7078 8.35902 12.919 9.10039 11.5995 10.419C10.28 11.7377 9.53734 13.5259 9.53451 15.3913C9.5377 17.2567 10.2805 19.0444 11.5998 20.3627C12.9194 21.6812 14.7081 22.4225 16.5734 22.4241C18.4386 22.4225 20.227 21.6812 21.5465 20.3627C22.8661 19.0444 23.6088 17.2567 23.6119 15.3913C23.6088 13.5261 22.8661 11.7382 21.5465 10.4197C20.227 9.10128 18.4386 8.36009 16.5734 8.35849V8.35742Z" fill="white" />
    <path d="M17.7332 21.5258C16.1389 21.5247 14.6102 20.8908 13.4823 19.764C12.3545 18.6369 11.7198 17.1089 11.7173 15.5146C11.7198 13.9203 12.3545 12.3918 13.4823 11.2649C14.6102 10.138 16.1389 9.50433 17.7332 9.50309C19.3277 9.50398 20.8566 10.1375 21.9844 11.2645C23.1123 12.3916 23.747 13.9201 23.7492 15.5146C23.7467 17.1089 23.1119 18.6369 21.984 19.764C20.8562 20.8908 19.3276 21.5247 17.7332 21.5258ZM17.7332 9.89409C16.2425 9.89497 14.813 10.4873 13.7585 11.5409C12.7038 12.5947 12.1104 14.0237 12.1081 15.5144C12.1108 17.005 12.7044 18.4338 13.7588 19.4872C14.8133 20.5406 16.2427 21.1326 17.7332 21.1335C19.2238 21.1326 20.6531 20.5406 21.7076 19.4872C22.7621 18.4338 23.3557 17.005 23.3584 15.5144C23.356 14.0237 22.7626 12.5947 21.708 11.5409C20.6535 10.4873 19.224 9.89497 17.7332 9.89409Z" fill="white" />
    <path d="M18.8894 20.0783C17.7114 20.0774 16.5819 19.6089 15.7484 18.7763C14.9152 17.9438 14.4463 16.8144 14.4443 15.6367C14.4459 14.4583 14.9148 13.329 15.7481 12.4963C16.5815 11.6632 17.7112 11.1948 18.8894 11.1939C20.0677 11.1948 21.1974 11.6632 22.0307 12.4963C22.8641 13.329 23.3328 14.4583 23.3344 15.6367C23.3326 16.8144 22.8636 17.9438 22.0303 18.7763C21.197 19.6089 20.0675 20.0774 18.8894 20.0783ZM18.8894 11.4286C17.7735 11.4295 16.7036 11.8734 15.9141 12.6621C15.1249 13.451 14.6806 14.5206 14.6792 15.6367C14.681 16.7523 15.1254 17.8219 15.9145 18.6105C16.7039 19.3992 17.7737 19.8424 18.8894 19.8434C20.0052 19.8424 21.075 19.3992 21.8643 18.6105C22.6535 17.8219 23.0977 16.7523 23.0995 15.6367C23.0981 14.5206 22.6541 13.451 21.8646 12.6621C21.0753 11.8734 20.0054 11.4295 18.8894 11.4286Z" fill="white" />
  </g>
  <defs>
    <clipPath id="clip0_13843_78779">
      <rect x="0.933105" y="0.934292" width="28.1317" height="28.1317" rx="14.0659" fill="white" />
    </clipPath>
  </defs>
</svg>
  