<svg xmlns="http://www.w3.org/2000/svg" width="32" height="32" fill="none" viewBox="0 0 290 290">
  <g clip-path="url(#a)">
    <path fill="#FFEF46" stroke="#EEDA0F" stroke-width="2" d="M63.295 1h163.41C261.11 1 289 28.89 289 63.295v163.41C289 261.11 261.11 289 226.705 289H63.295C28.891 289 1 261.11 1 226.705V63.295C1 28.891 28.89 1 63.295 1Z"/>
    <path fill="#02050A" d="m140.548 153.231 14.284-13.799 26.63 8.715c17.431 5.811 26.147 16.463 26.147 31.473 0 11.379-4.358 18.884-13.073 28.568l-2.663 2.905.968-6.779c3.873-24.694-3.389-35.346-27.357-43.094l-24.936-7.989Zm-35.831-84.492 72.63 24.21-15.737 15.01-37.767-12.59c-13.073-4.357-17.431-11.378-19.126-26.146v-.484Zm-4.358 122.986 16.463-15.737 30.989 10.169c16.22 5.326 21.788 12.347 20.094 30.02l-67.546-24.452Zm-20.82-70.209c0-4.599 2.42-8.957 6.537-12.589 4.357 6.295 11.862 11.863 23.725 15.737l25.663 8.473-14.284 13.8-25.178-8.232c-11.621-3.873-16.463-9.684-16.463-17.189Zm76.019 127.102c53.261-35.346 81.829-59.314 81.829-88.85 0-19.61-11.621-30.505-37.283-38.978l-19.368-6.537 53.02-50.84-10.653-11.379-15.736 13.8-74.324-24.452c-23 7.505-52.051 29.536-52.051 51.567 0 2.42.242 4.842.968 7.505-19.126 10.894-26.873 21.062-26.873 33.651 0 11.863 6.295 23.726 26.389 30.263l15.978 5.326-55.198 53.019 10.652 11.379 17.19-15.736 85.46 30.262Z"/>
  </g>
  <defs>
    <clipPath id="a">
      <path fill="#fff" d="M0 0h290v290H0z"/>
    </clipPath>
  </defs>
</svg>