<svg xmlns="http://www.w3.org/2000/svg" width="94" height="13" fill="none" viewBox="0 0 94 13">
  <path fill="currentColor" d="M13.472 11.569c.176.08.272.176.272.256 0 .128-.096.192-.288.176a29.496 29.496 0 0 0-1.632-.048c-.496 0-1.04.016-1.616.048-.192.016-.288-.048-.288-.176 0-.08.096-.176.272-.256.24-.08.352-.416.352-1.008V2.433l-3.808 9.392c-.048.112-.128.176-.224.176h-.304c-.08 0-.144-.064-.192-.176L1.888 2.353v7.728c0 1.024.24 1.344.736 1.488.192.08.288.16.288.256 0 .128-.096.192-.304.176-.384-.016-.72-.032-.992-.032-.336 0-.656.016-.976.032-.208.016-.304-.048-.304-.176 0-.08.096-.176.288-.256.368-.144.544-.64.544-1.488V.961a.661.661 0 0 0-.336-.16C.624.753.512.673.512.561c0-.112.112-.176.32-.16.576.032 1.104.048 1.584.048.304 0 .672-.016 1.088-.048.16-.016.272.064.352.224l3.44 7.952L10.56.497h.016c.032-.08.112-.112.224-.096l1.072.048c.352.016.88 0 1.584-.048.208-.016.304.048.304.16s-.08.192-.256.256c-.32.112-.384.384-.384 1.024v8.72c0 .592.112.928.352 1.008zm5.689-8.896c2-.016 3.168.944 3.632 2.016.368.72.448 1.36.368 1.872-.032.192-.144.288-.32.288h-5.744c.016.144.032.368.08.672.432 2.944 3.136 3.968 5.392 2.72.16-.08.288-.096.368-.032.08.08.08.208-.032.368-.848 1.088-2.016 1.632-3.472 1.632-1.312 0-2.4-.4-3.264-1.216-.864-.816-1.344-1.888-1.44-3.2-.112-1.392.256-2.592 1.088-3.6.848-1.008 1.952-1.504 3.344-1.52zm-2.064 3.52h2.928c.848 0 1.008-.128.96-.88a2.9 2.9 0 0 0-.528-1.52c-.304-.464-.736-.704-1.296-.704-.592 0-1.072.304-1.44.912-.368.592-.576 1.328-.624 2.192zm11.673-3.52c2-.016 3.168.944 3.632 2.016.368.72.448 1.36.368 1.872-.032.192-.144.288-.32.288h-5.744c.016.144.032.368.08.672.432 2.944 3.136 3.968 5.392 2.72.16-.08.288-.096.368-.032.08.08.08.208-.032.368-.848 1.088-2.016 1.632-3.472 1.632-1.312 0-2.4-.4-3.264-1.216-.864-.816-1.344-1.888-1.44-3.2-.112-1.392.256-2.592 1.088-3.6.848-1.008 1.952-1.504 3.344-1.52zm-2.064 3.52h2.928c.848 0 1.008-.128.96-.88a2.9 2.9 0 0 0-.528-1.52c-.304-.464-.736-.704-1.296-.704-.592 0-1.072.304-1.44.912-.368.592-.576 1.328-.624 2.192zm11.833 4.816c.08.08.08.192-.016.352-.4.544-1.008.816-1.824.816-1.392 0-2.08-.704-2.08-2.112V3.537h-.56c-.176 0-.256-.112-.256-.336 0-.256.048-.32.256-.32h.208c.464 0 .912-.176 1.328-.512.432-.352.72-.768.88-1.264.048-.144.144-.208.288-.208.176 0 .272.08.272.256v1.728h1.28c.16 0 .24.112.24.32 0 .224-.08.336-.24.336h-1.28v6.64c0 .624.16.96.496 1.024.096.016.32-.032.656-.144.176-.096.288-.112.352-.048zm16.584.56c.192.08.288.176.288.256 0 .128-.096.192-.304.176a27.227 27.227 0 0 0-3.232 0c-.208.016-.304-.048-.304-.176 0-.08.096-.176.288-.256.272-.112.336-.368.336-1.008V7.169h-5.232v3.392c0 .64.064.896.336 1.008.192.08.288.176.288.256 0 .128-.096.192-.304.176a27.227 27.227 0 0 0-3.232 0c-.208.016-.304-.048-.304-.176 0-.08.096-.16.272-.256.304-.112.352-.368.352-1.008v-8.72c0-.64-.048-.896-.352-1.008-.176-.08-.272-.176-.272-.256 0-.128.096-.192.304-.176 1.152.064 2.08.064 3.232 0 .208-.016.304.048.304.176 0 .08-.096.176-.288.256-.272.112-.336.368-.336 1.008v4.672h5.232V1.841c0-.64-.064-.896-.336-1.008-.192-.08-.288-.176-.288-.256 0-.128.096-.192.304-.176 1.152.064 2.08.064 3.232 0 .208-.016.304.048.304.176 0 .08-.096.176-.288.256-.272.112-.336.368-.336 1.008v8.72c0 .64.064.896.336 1.008zm5.87-8.896c1.393 0 2.529.464 3.377 1.376.864.912 1.296 2.048 1.296 3.392 0 1.36-.432 2.496-1.296 3.408-.848.912-1.984 1.36-3.376 1.36s-2.528-.448-3.376-1.36c-.848-.912-1.28-2.048-1.28-3.408.016-1.36.448-2.48 1.296-3.392.848-.912 1.968-1.376 3.36-1.376zm-.8.544c-1.503.288-1.743 2.384-1.343 4.592.208 1.2.576 2.16 1.104 2.912.528.752 1.152 1.056 1.872.944 1.456-.288 1.712-2.384 1.328-4.592-.208-1.2-.576-2.16-1.104-2.912-.528-.752-1.152-1.056-1.856-.944zm9.821 8.352c.176.08.272.176.272.256 0 .144-.096.192-.288.176a24.6 24.6 0 0 0-3.072 0c-.208.016-.304-.048-.304-.176 0-.08.096-.16.272-.256.304-.112.352-.368.352-1.008V2.593c0-.624-.064-.88-.336-.992-.192-.096-.288-.192-.288-.272 0-.128.096-.224.272-.272a8.24 8.24 0 0 0 2.48-.832c.176-.08.288-.016.288.176v10.16c0 .592.112.928.352 1.008zm4.75 0c.176.08.272.176.272.256 0 .144-.096.192-.288.176a24.6 24.6 0 0 0-3.072 0c-.208.016-.304-.048-.304-.176 0-.08.096-.16.272-.256.304-.112.352-.368.352-1.008V2.593c0-.624-.064-.88-.336-.992-.192-.096-.288-.192-.288-.272 0-.128.096-.224.272-.272a8.24 8.24 0 0 0 2.48-.832c.176-.08.288-.016.288.176v10.16c0 .592.112.928.352 1.008zm9.518-.064c.128.128.288.16.288.288 0 .144-.112.208-.32.208h-.176c-.432 0-.448 0-.88-.048a1.63 1.63 0 0 1-.496-.112c-.4-.224-.832-.528-.976-1.28-.512 1.04-1.664 1.648-2.928 1.648-1.744 0-2.752-.912-2.8-2.208-.096-1.92 1.648-2.768 3.136-3.104 1.024-.272 2.16-.544 2.544-.848v-.256c0-1.872-.288-2.704-1.376-2.704-2.144 0-.608 2.688-2.544 2.576-.432-.016-.704-.24-.832-.64-.16-.48-.032-.944.4-1.408.608-.624 1.6-.944 2.976-.944 2.496 0 3.76 1.04 3.76 3.344 0 .144 0 .816.016 2.016.016 1.2.016 1.968.016 2.304 0 .64.064 1.024.192 1.168zm-4.416-.672c1.088 0 1.792-.784 1.792-1.68l.016-2.336c-.144.096-.432.24-.864.416s-.8.352-1.136.512c-.64.32-1.296 1.024-1.232 1.904.048.752.656 1.2 1.424 1.184zm10.987-8.16c.944 0 1.568.32 1.872.96.24.496.24.944-.032 1.376-.208.336-.512.512-.928.496-.56 0-.832-.416-.912-.8-.064-.4-.368-.816-.96-.816-.752 0-1.136.8-1.136 2.384v4.288c0 .64.144.912.544 1.024.208.064.304.144.304.24 0 .128-.112.192-.32.176a28.035 28.035 0 0 0-3.28 0c-.208.016-.304-.048-.304-.176 0-.08.096-.176.288-.256.24-.08.352-.416.352-1.008V5.233c0-.576-.112-.912-.352-1.008-.192-.08-.288-.16-.288-.272 0-.112.08-.192.224-.224a9.438 9.438 0 0 0 2.384-.848c.176-.096.288-.048.304.16l.112 1.296v.048c.384-1.136 1.088-1.712 2.128-1.712z"/>
</svg>