<svg width="207" height="17" viewBox="0 0 207 17" fill="none" xmlns="http://www.w3.org/2000/svg">
    <path d="M13.472 11.569C13.648 11.649 13.744 11.745 13.744 11.825C13.744 11.953 13.648 12.017 13.456 12.001C12.88 11.969 12.336 11.953 11.824 11.953C11.328 11.953 10.784 11.969 10.208 12.001C10.016 12.017 9.92 11.953 9.92 11.825C9.92 11.745 10.016 11.649 10.192 11.569C10.432 11.489 10.544 11.153 10.544 10.561V2.43298L6.736 11.825C6.688 11.937 6.608 12.001 6.512 12.001H6.208C6.128 12.001 6.064 11.937 6.016 11.825L1.888 2.35298V10.081C1.888 11.105 2.128 11.425 2.624 11.569C2.816 11.649 2.912 11.729 2.912 11.825C2.912 11.953 2.816 12.017 2.608 12.001C2.224 11.985 1.888 11.969 1.616 11.969C1.28 11.969 0.96 11.985 0.64 12.001C0.432 12.017 0.336 11.953 0.336 11.825C0.336 11.745 0.432 11.649 0.624 11.569C0.992 11.425 1.168 10.929 1.168 10.081V0.960976C1.088 0.880976 0.976 0.832976 0.832 0.800976C0.624 0.752976 0.512 0.672976 0.512 0.560976C0.512 0.448976 0.624 0.384976 0.832 0.400976C1.408 0.432976 1.936 0.448976 2.416 0.448976C2.72 0.448976 3.088 0.432976 3.504 0.400976C3.664 0.384976 3.776 0.464976 3.856 0.624976L7.296 8.57698L10.56 0.496976H10.576C10.608 0.416976 10.688 0.384976 10.8 0.400976L11.872 0.448976C12.224 0.464976 12.752 0.448976 13.456 0.400976C13.664 0.384976 13.76 0.448976 13.76 0.560976C13.76 0.672976 13.68 0.752976 13.504 0.816976C13.184 0.928976 13.12 1.20098 13.12 1.84098V10.561C13.12 11.153 13.232 11.489 13.472 11.569ZM19.1609 2.67298C21.1609 2.65698 22.3289 3.61698 22.7929 4.68898C23.1609 5.40898 23.2409 6.04898 23.1609 6.56098C23.1289 6.75298 23.0169 6.84898 22.8409 6.84898H17.0969C17.1129 6.99298 17.1289 7.21698 17.1769 7.52098C17.6089 10.465 20.3129 11.489 22.5689 10.241C22.7289 10.161 22.8569 10.145 22.9369 10.209C23.0169 10.289 23.0169 10.417 22.9049 10.577C22.0569 11.665 20.8889 12.209 19.4329 12.209C18.1209 12.209 17.0329 11.809 16.1689 10.993C15.3049 10.177 14.8249 9.10498 14.7289 7.79298C14.6169 6.40098 14.9849 5.20098 15.8169 4.19298C16.6649 3.18498 17.7689 2.68898 19.1609 2.67298ZM17.0969 6.19298H20.0249C20.8729 6.19298 21.0329 6.06498 20.9849 5.31298C20.9529 4.75298 20.7769 4.25698 20.4569 3.79298C20.1529 3.32898 19.7209 3.08898 19.1609 3.08898C18.5689 3.08898 18.0889 3.39298 17.7209 4.00098C17.3529 4.59298 17.1449 5.32898 17.0969 6.19298ZM28.7703 2.67298C30.7703 2.65698 31.9383 3.61698 32.4023 4.68898C32.7703 5.40898 32.8503 6.04898 32.7703 6.56098C32.7383 6.75298 32.6263 6.84898 32.4503 6.84898H26.7063C26.7223 6.99298 26.7383 7.21698 26.7863 7.52098C27.2183 10.465 29.9223 11.489 32.1783 10.241C32.3383 10.161 32.4663 10.145 32.5463 10.209C32.6263 10.289 32.6263 10.417 32.5143 10.577C31.6663 11.665 30.4983 12.209 29.0423 12.209C27.7303 12.209 26.6423 11.809 25.7783 10.993C24.9143 10.177 24.4342 9.10498 24.3383 7.79298C24.2263 6.40098 24.5943 5.20098 25.4263 4.19298C26.2743 3.18498 27.3783 2.68898 28.7703 2.67298ZM26.7063 6.19298H29.6343C30.4823 6.19298 30.6423 6.06498 30.5943 5.31298C30.5623 4.75298 30.3863 4.25698 30.0663 3.79298C29.7623 3.32898 29.3303 3.08898 28.7703 3.08898C28.1783 3.08898 27.6983 3.39298 27.3303 4.00098C26.9623 4.59298 26.7543 5.32898 26.7063 6.19298ZM38.5389 11.009C38.6189 11.089 38.6189 11.201 38.5229 11.361C38.1229 11.905 37.5149 12.177 36.6989 12.177C35.3069 12.177 34.6189 11.473 34.6189 10.065V3.53698H34.0589C33.8829 3.53698 33.8029 3.42498 33.8029 3.20098C33.8029 2.94498 33.8509 2.88098 34.0589 2.88098H34.2669C34.7309 2.88098 35.1789 2.70498 35.5949 2.36898C36.0269 2.01698 36.3149 1.60098 36.4749 1.10498C36.5229 0.960976 36.6189 0.896976 36.7629 0.896976C36.9389 0.896976 37.0349 0.976976 37.0349 1.15298V2.88098H38.3149C38.4749 2.88098 38.5549 2.99298 38.5549 3.20098C38.5549 3.42498 38.4749 3.53698 38.3149 3.53698H37.0349V10.177C37.0349 10.801 37.1949 11.137 37.5309 11.201C37.6269 11.217 37.8509 11.169 38.1869 11.057C38.3629 10.961 38.4749 10.945 38.5389 11.009ZM55.1231 11.569C55.3151 11.649 55.4111 11.745 55.4111 11.825C55.4111 11.953 55.3151 12.017 55.1071 12.001C53.9551 11.937 53.0271 11.937 51.8751 12.001C51.6671 12.017 51.5711 11.953 51.5711 11.825C51.5711 11.745 51.6671 11.649 51.8591 11.569C52.1311 11.457 52.1951 11.201 52.1951 10.561V7.16898H46.9631V10.561C46.9631 11.201 47.0271 11.457 47.2991 11.569C47.4911 11.649 47.5871 11.745 47.5871 11.825C47.5871 11.953 47.4911 12.017 47.2831 12.001C46.1311 11.937 45.2031 11.937 44.0511 12.001C43.8431 12.017 43.7471 11.953 43.7471 11.825C43.7471 11.745 43.8431 11.665 44.0191 11.569C44.3231 11.457 44.3711 11.201 44.3711 10.561V1.84098C44.3711 1.20098 44.3231 0.944976 44.0191 0.832976C43.8431 0.752976 43.7471 0.656976 43.7471 0.576976C43.7471 0.448976 43.8431 0.384976 44.0511 0.400976C45.2031 0.464976 46.1311 0.464976 47.2831 0.400976C47.4911 0.384976 47.5871 0.448976 47.5871 0.576976C47.5871 0.656976 47.4911 0.752976 47.2991 0.832976C47.0271 0.944976 46.9631 1.20098 46.9631 1.84098V6.51298H52.1951V1.84098C52.1951 1.20098 52.1311 0.944976 51.8591 0.832976C51.6671 0.752976 51.5711 0.656976 51.5711 0.576976C51.5711 0.448976 51.6671 0.384976 51.8751 0.400976C53.0271 0.464976 53.9551 0.464976 55.1071 0.400976C55.3151 0.384976 55.4111 0.448976 55.4111 0.576976C55.4111 0.656976 55.3151 0.752976 55.1231 0.832976C54.8511 0.944976 54.7871 1.20098 54.7871 1.84098V10.561C54.7871 11.201 54.8511 11.457 55.1231 11.569ZM60.9939 2.67298C62.3859 2.67298 63.5219 3.13698 64.3699 4.04898C65.2339 4.96098 65.6659 6.09698 65.6659 7.44098C65.6659 8.80098 65.2339 9.93698 64.3699 10.849C63.5219 11.761 62.3859 12.209 60.9939 12.209C59.6019 12.209 58.4659 11.761 57.6179 10.849C56.7699 9.93698 56.3379 8.80098 56.3379 7.44098C56.3539 6.08098 56.7859 4.96098 57.6339 4.04898C58.4819 3.13698 59.6019 2.67298 60.9939 2.67298ZM60.1939 3.21698C58.6899 3.50498 58.4499 5.60098 58.8499 7.80898C59.0579 9.00898 59.4259 9.96898 59.9539 10.721C60.4819 11.473 61.1059 11.777 61.8259 11.665C63.2819 11.377 63.5379 9.28098 63.1539 7.07298C62.9459 5.87298 62.5779 4.91298 62.0499 4.16098C61.5219 3.40898 60.8979 3.10498 60.1939 3.21698ZM70.0141 11.569C70.1901 11.649 70.2861 11.745 70.2861 11.825C70.2861 11.969 70.1901 12.017 69.9981 12.001C68.9101 11.937 68.0141 11.937 66.9261 12.001C66.7181 12.017 66.6221 11.953 66.6221 11.825C66.6221 11.745 66.7181 11.665 66.8941 11.569C67.1981 11.457 67.2461 11.201 67.2461 10.561V2.59298C67.2461 1.96898 67.1821 1.71298 66.9101 1.60098C66.7181 1.50498 66.6221 1.40898 66.6221 1.32898C66.6221 1.20098 66.7181 1.10498 66.8941 1.05698C67.8061 0.896976 68.6221 0.624976 69.3741 0.224976C69.5501 0.144976 69.6621 0.208976 69.6621 0.400976V10.561C69.6621 11.153 69.7741 11.489 70.0141 11.569ZM74.7641 11.569C74.9401 11.649 75.0361 11.745 75.0361 11.825C75.0361 11.969 74.9401 12.017 74.7481 12.001C73.6601 11.937 72.7641 11.937 71.6761 12.001C71.4681 12.017 71.3721 11.953 71.3721 11.825C71.3721 11.745 71.4681 11.665 71.6441 11.569C71.9481 11.457 71.9961 11.201 71.9961 10.561V2.59298C71.9961 1.96898 71.9321 1.71298 71.6601 1.60098C71.4681 1.50498 71.3721 1.40898 71.3721 1.32898C71.3721 1.20098 71.4681 1.10498 71.6441 1.05698C72.5561 0.896976 73.3721 0.624976 74.1241 0.224976C74.3001 0.144976 74.4121 0.208976 74.4121 0.400976V10.561C74.4121 11.153 74.5241 11.489 74.7641 11.569ZM84.2821 11.505C84.4101 11.633 84.5701 11.665 84.5701 11.793C84.5701 11.937 84.4581 12.001 84.2501 12.001H84.0741C83.6421 12.001 83.6261 12.001 83.1941 11.953C82.9861 11.937 82.8101 11.889 82.6981 11.841C82.2981 11.617 81.8661 11.313 81.7221 10.561C81.2101 11.601 80.0581 12.209 78.7941 12.209C77.0501 12.209 76.0421 11.297 75.9941 10.001C75.8981 8.08098 77.6421 7.23298 79.1301 6.89698C80.1541 6.62498 81.2901 6.35298 81.6741 6.04898V5.79298C81.6741 3.92098 81.3861 3.08898 80.2981 3.08898C78.1541 3.08898 79.6901 5.77698 77.7541 5.66498C77.3221 5.64898 77.0501 5.42498 76.9221 5.02498C76.7621 4.54498 76.8901 4.08098 77.3221 3.61698C77.9301 2.99298 78.9221 2.67298 80.2981 2.67298C82.7941 2.67298 84.0581 3.71298 84.0581 6.01698C84.0581 6.16098 84.0581 6.83298 84.0741 8.03298C84.0901 9.23298 84.0901 10.001 84.0901 10.337C84.0901 10.977 84.1541 11.361 84.2821 11.505ZM79.8661 10.833C80.9541 10.833 81.6581 10.049 81.6581 9.15298L81.6741 6.81698C81.5301 6.91298 81.2421 7.05698 80.8101 7.23298C80.3781 7.40898 80.0101 7.58498 79.6741 7.74498C79.0341 8.06498 78.3781 8.76898 78.4421 9.64898C78.4901 10.401 79.0981 10.849 79.8661 10.833ZM90.8534 2.67298C91.7974 2.67298 92.4214 2.99298 92.7254 3.63298C92.9654 4.12898 92.9654 4.57698 92.6934 5.00898C92.4854 5.34498 92.1814 5.52098 91.7654 5.50498C91.2054 5.50498 90.9334 5.08898 90.8534 4.70498C90.7894 4.30498 90.4854 3.88898 89.8934 3.88898C89.1414 3.88898 88.7574 4.68898 88.7574 6.27298V10.561C88.7574 11.201 88.9014 11.473 89.3014 11.585C89.5094 11.649 89.6054 11.729 89.6054 11.825C89.6054 11.953 89.4934 12.017 89.2854 12.001C88.0694 11.937 87.1574 11.937 86.0054 12.001C85.7974 12.017 85.7014 11.953 85.7014 11.825C85.7014 11.745 85.7974 11.649 85.9894 11.569C86.2294 11.489 86.3414 11.153 86.3414 10.561V5.23298C86.3414 4.65698 86.2294 4.32098 85.9894 4.22498C85.7974 4.14498 85.7014 4.06498 85.7014 3.95298C85.7014 3.84098 85.7814 3.76098 85.9254 3.72898C86.7414 3.55298 87.5414 3.28098 88.3094 2.88098C88.4854 2.78498 88.5974 2.83298 88.6134 3.04098L88.7254 4.33698V4.38498C89.1094 3.24898 89.8134 2.67298 90.8534 2.67298Z" fill="currentColor"/>
</svg>
