<svg xmlns="http://www.w3.org/2000/svg" viewBox="0 0 652 89" width="652" height="89" fill="none" preserveAspectRatio="none">
  <path stroke="#EF8DFF" stroke-miterlimit="10" stroke-opacity=".52" stroke-width=".297" d="M45.536-655.68c75.422 190.129 190.948 279.069 284.333 325.106 104.222 51.377 227.564 72.332 228.707 97.953.733 16.407-49.181 22.978-156.965 31.283-326.842 25.189-406.791 6.32-439.387 45.63C-83.458-100.646 41.926-25.56 13.137 70.179c-21.15 70.315-112.109 107.428-189.658 128.09"/>
  <path stroke="#EF8DFF" stroke-miterlimit="10" stroke-opacity=".52" stroke-width=".297" d="M58.409-656.311c74.079 184.985 185.136 276.058 271.91 321.99 96.974 51.33 214.069 70.735 213.202 95.555-.554 15.957-49.606 22.384-153.699 30.412-316.293 24.411-397.438 6.055-428.925 45.292C-83.422-107.244 52.235-31.214 28.08 66.863a106.412 106.412 0 0 1-1.736 6.305C4.873 141.594-86.34 179.515-163.699 201.115"/>
  <path stroke="#EF8DFF" stroke-miterlimit="10" stroke-opacity=".52" stroke-width=".297" d="M71.278-656.929c72.729 179.826 179.112 272.93 259.481 318.87 89.583 51.205 200.564 69.143 197.698 93.155-1.848 15.512-50.042 21.797-150.437 29.539-305.725 23.616-388.318 5.685-418.455 44.967C-83.723-113.975 62.605-36.813 43.02 63.566c-.428 2.202-.855 4.398-1.45 6.548-19.44 70.197-113.027 110.724-192.448 133.86"/>
  <path stroke="#EF8DFF" stroke-miterlimit="10" stroke-opacity=".52" stroke-width=".297" d="M84.149-657.558C155.555-482.86 256.996-387.9 331.201-341.805c82.054 50.968 187.046 67.557 182.19 90.752-3.154 15.071-50.466 21.197-147.168 28.67-295.191 22.824-379.066 5.38-407.989 44.641C-83.838-120.631 73.036-42.391 57.964 60.26c-.334 2.28-.677 4.553-1.159 6.782C41.117 139.464-56.563 182.14-138.042 206.815"/>
  <path stroke="#EF8DFF" stroke-miterlimit="10" stroke-opacity=".52" stroke-width=".297" d="M97.02-658.183c70.053 169.55 166.333 266.205 234.623 312.632 74.399 50.582 173.512 65.979 166.681 88.355-4.463 14.631-50.896 20.603-143.902 27.8-284.64 22.034-369.8 5.079-397.515 44.314C-83.939-127.26 83.524-47.94 72.921 56.962c-.245 2.353-.492 4.709-.876 7.034-12.847 74.4-113.712 119.471-197.267 145.686"/>
  <path stroke="#EF8DFF" stroke-miterlimit="10" stroke-opacity=".52" stroke-width=".297" d="M109.891-658.81c68.703 164.407 159.559 262.536 222.188 309.518 66.649 49.994 159.972 64.393 151.181 85.957-5.789 14.192-51.325 20.006-140.639 26.926-274.09 21.25-360.522 4.79-387.046 43.99-39.6 58.533 138.493 138.95 132.277 246.08-.14 2.434-.274 4.87-.588 7.279C77.231 137.305-26.79 184.792-112.41 212.537"/>
  <path stroke="#EF8DFF" stroke-miterlimit="10" stroke-opacity=".52" stroke-width=".297" d="M122.762-659.434c67.364 159.262 152.537 258.606 209.76 306.394 58.874 49.164 146.403 62.823 135.672 83.556-7.119 13.757-51.765 19.41-137.369 26.055-263.538 20.463-351.237 4.507-376.576 43.664C-84.1-140.504 104.664-58.99 102.796 50.353c-.044 2.521-.07 5.032-.302 7.518-7.24 78.323-114.403 128.228-202.078 157.51"/>
  <path stroke="#EF8DFF" stroke-miterlimit="10" stroke-opacity=".52" stroke-width=".297" d="M135.633-660.06c66.021 154.118 157.7 250.195 197.33 303.276 61.456 42.185 132.819 61.243 120.168 81.157-8.464 13.319-52.184 18.819-134.125 25.179C66.019-230.774-22.928-246.222-47.1-207.111-84.175-147.119 115.291-64.5 117.722 47.043c.055 2.594.128 5.194-.015 7.767-4.481 80.276-114.74 132.618-204.487 163.428"/>
  <path stroke="#EF8DFF" stroke-miterlimit="10" stroke-opacity=".52" stroke-width=".297" d="M148.504-660.687c64.678 148.976 152.955 246.075 184.901 300.158 55.346 40.872 119.217 59.658 104.659 78.757-9.816 12.88-52.602 18.226-130.841 24.312-242.432 18.874-332.621 3.955-355.636 43.014-35.784 60.731 174.415 144.455 181.095 258.19.158 2.672.333 5.353.274 8.012-1.746 82.221-115.082 136.984-206.894 169.34"/>
  <path stroke="#EF8DFF" stroke-miterlimit="10" stroke-opacity=".52" stroke-width=".297" d="M161.375-661.312c63.336 143.831 148.203 241.949 172.472 297.037 49.24 39.561 105.599 58.071 89.154 76.36-11.179 12.437-53.036 17.631-127.575 23.44-231.898 18.095-323.295 3.691-345.163 42.689-34.48 61.481 186.477 146.305 197.369 262.23.257 2.749.529 5.511.559 8.255.97 84.162-115.424 141.36-209.302 175.252"/>
  <path stroke="#EF8DFF" stroke-miterlimit="10" stroke-opacity=".52" stroke-width=".297" d="M174.245-661.939c61.993 138.69 143.456 237.825 160.04 293.917 43.131 38.247 91.965 56.474 73.65 73.958-12.556 11.99-53.47 17.039-124.299 22.575C62.3-254.18-30.323-268.059-51.06-229.128c-33.15 62.237 198.583 148.16 213.643 266.269.361 2.83.724 5.67.848 8.497 3.662 86.104-115.77 145.738-211.711 181.166"/>
  <path stroke="#EF8DFF" stroke-miterlimit="10" stroke-opacity=".52" stroke-width=".297" d="M187.12-662.563c60.645 133.539 138.702 233.707 147.591 290.797 37.022 36.934 78.323 54.869 58.143 71.553-13.942 11.534-53.895 16.446-121.043 21.699-210.784 16.522-304.604 3.176-324.224 42.042C-84.222-173.47 158.3-86.459 177.5 33.832c.464 2.91.927 5.82 1.123 8.738 6.341 88.043-116.108 150.115-214.115 187.079"/>
  <path stroke="#EF8DFF" stroke-miterlimit="10" stroke-opacity=".52" stroke-width=".297" d="M199.991-663.19c59.302 128.398 133.955 229.576 135.176 287.681 30.913 35.621 64.663 53.253 42.638 69.158-15.335 11.073-54.328 15.849-117.781 20.826-200.235 15.745-295.24 2.927-313.752 41.712-30.439 63.775 222.895 151.87 246.186 274.346.569 2.986 1.12 5.986 1.419 8.992 8.986 89.977-116.438 154.494-216.526 192.99"/>
  <path stroke="#EF8DFF" stroke-miterlimit="10" stroke-opacity=".52" stroke-width=".297" d="M212.86-663.808c57.961 123.246 129.205 225.443 122.741 284.553 24.804 34.306 51.006 51.631 27.137 66.761-16.734 10.606-54.754 15.255-114.512 19.956-189.685 14.948-285.875 2.676-303.285 41.384C-84.11-186.597 180.057-97.429 207.4 27.228c.675 3.068 1.319 6.148 1.709 9.231C220.748 128.376 92.316 195.327-9.827 235.377"/>
  <path stroke="#EF8DFF" stroke-miterlimit="10" stroke-opacity=".52" stroke-width=".297" d="M225.732-664.439c56.618 118.107 124.456 221.326 110.314 281.441 18.694 32.993 37.335 49.998 11.618 64.357-18.135 10.133-55.18 14.663-111.243 19.075-179.134 14.16-276.475 2.436-292.812 41.06-27.641 65.342 247.322 155.567 278.734 282.42.777 3.147 1.512 6.307 1.995 9.473 14.264 93.859-117.14 163.245-221.343 204.82"/>
  <path stroke="#EF8DFF" stroke-miterlimit="10" stroke-opacity=".52" stroke-width=".297" d="M238.603-665.066c55.276 112.963 119.708 217.202 97.886 278.321 12.583 31.683 23.662 48.359-3.881 61.963-19.541 9.651-55.613 14.066-107.983 18.213-168.579 13.372-267.071 2.195-282.343 40.734-26.206 66.135 259.589 157.413 294.99 286.453.883 3.225 1.708 6.465 2.277 9.728 16.903 95.792-117.456 167.615-223.711 210.73"/>
  <path stroke="#EF8DFF" stroke-miterlimit="10" stroke-opacity=".52" stroke-width=".297" d="M251.474-665.693c53.929 107.821 114.945 213.075 85.456 275.204 6.489 30.359 9.985 46.708-19.389 59.562-20.946 9.164-56.039 13.473-104.703 17.345-158.027 12.585-257.656 1.959-271.869 40.41-24.746 66.933 271.865 159.251 311.278 290.495.993 3.305 1.904 6.625 2.569 9.96 19.468 97.736-117.839 172.002-226.17 216.642"/>
  <path stroke="#EF8DFF" stroke-miterlimit="10" stroke-opacity=".52" stroke-width=".297" d="M264.36-666.315c52.586 102.676 110.207 208.953 73.023 272.082.369 29.056-3.683 45.054-34.889 57.162-22.337 8.68-56.47 12.881-101.452 16.471-147.472 11.798-248.231 1.727-261.403 40.084-23.276 67.737 284.15 161.084 327.53 294.53 1.102 3.383 2.1 6.784 2.858 10.203C292.1 123.905 151.862 200.593 41.453 246.774"/>
  <path stroke="#EF8DFF" stroke-miterlimit="10" stroke-opacity=".52" stroke-width=".297" d="M277.227-666.94c51.219 97.523 60.606 191.848 60.582 268.962-.008 28.856-17.356 43.39-50.397 54.761-23.743 8.184-56.899 12.288-98.186 15.601-136.928 11.007-238.79 1.493-250.932 39.756-21.75 68.549 296.486 162.916 343.829 298.574 1.205 3.459 2.291 6.946 3.142 10.446 24.654 101.633-118.507 180.745-230.971 228.475"/>
  <path stroke="#EF8DFF" stroke-miterlimit="10" stroke-opacity=".52" stroke-width=".297" d="M290.094-667.568c49.9 92.393 91.033 196.367 48.164 265.847-15.467 25.064-31.025 41.722-65.905 52.362-25.149 7.683-57.325 11.692-94.921 14.728-126.376 10.222-229.334 1.263-240.458 39.432-20.217 69.361 308.816 164.736 360.099 302.61 1.314 3.54 2.476 7.104 3.427 10.692C327.436 121.676 181.646 203.23 67.115 252.496"/>
  <path stroke="#EF8DFF" stroke-miterlimit="10" stroke-opacity=".52" stroke-width=".297" d="M302.962-668.195c48.559 87.244 91.216 194.189 35.734 262.729-19.683 24.311-44.692 40.048-81.41 49.962-26.552 7.178-57.758 11.098-91.654 13.856-115.83 9.435-220.124.968-229.993 39.107-18.19 70.3 321.442 166.535 376.374 306.648a116.083 116.083 0 0 1 3.716 10.934c29.642 105.535-119.193 189.506-235.784 240.302"/>
  <path stroke="#EF8DFF" stroke-miterlimit="10" stroke-opacity=".52" stroke-width=".297" d="M315.829-668.823c47.213 82.099 91.204 192.454 23.302 259.608-102.375 101.233-389.472 35.437-404.823 99.334-17.5 72.838 351.979 173.425 396.649 321.862C363.304 119.472 211.42 205.873 92.761 258.194"/>
</svg>