<svg xmlns="http://www.w3.org/2000/svg" width="24" height="12" viewBox="0 0 24 12" fill="none">
<path d="M0.921016 8.09882H1.80003V11.0988H4.20003V8.09882H5.07904C5.58753 8.09882 6.00002 7.68633 6.00002 7.17784C6.00002 6.99634 5.94602 6.81784 5.84552 6.66635L3.93302 3.79833C3.72451 3.48634 3.37503 3.29883 3.00001 3.29883C2.625 3.29883 2.27552 3.48633 2.06701 3.79833L0.154498 6.66635C0.053998 6.81785 0 6.99635 0 7.17784C0 7.68633 0.412523 8.09882 0.921016 8.09882Z" fill="currentColor"/>
<path d="M9.92126 5.6999H10.8003V11.0997H13.2003V5.6999H14.0793C14.5878 5.6999 15.0003 5.2874 15.0003 4.77891C15.0003 4.59741 14.9463 4.41891 14.8458 4.26742L12.9333 1.39941C12.7248 1.08741 12.3753 0.899902 12.0003 0.899902C11.6252 0.899902 11.2758 1.0874 11.0673 1.39941L9.15474 4.26742C9.05424 4.41892 9.00024 4.59743 9.00024 4.77891C9.00024 5.2874 9.41277 5.6999 9.92126 5.6999Z" fill="currentColor"/>
<path d="M18.921 8.09882H19.8V11.0988H22.2V8.09882H23.079C23.5875 8.09882 24 7.68633 24 7.17784C24 6.99634 23.946 6.81784 23.8455 6.66635L21.933 3.79833C21.7245 3.48634 21.375 3.29883 21 3.29883C20.625 3.29883 20.2755 3.48633 20.067 3.79833L18.1545 6.66635C18.054 6.81785 18 6.99635 18 7.17784C18 7.68633 18.4125 8.09882 18.921 8.09882Z" fill="currentColor"/>
</svg>