<svg width="15" height="15" viewBox="0 0 15 15" fill="none" xmlns="http://www.w3.org/2000/svg">
<path fill-rule="evenodd" clip-rule="evenodd" d="M15 7.51065L7.75 0.260376L0.5 7.51065L7.75 14.7609L15 7.51065ZM11.5315 4.64979L7.75 0.868184L3.96854 4.64979C2.65386 5.96452 2.65386 8.09612 3.96854 9.41085L4.55799 10.0003C6.32089 11.7633 9.17911 11.7633 10.942 10.0003L11.5315 9.41085C12.8461 8.09612 12.8461 5.96452 11.5315 4.64979Z" fill="currentColor"/>
<path d="M7.74799 0.666953L11.5333 4.45243C12.1535 5.07261 12.4309 5.35215 12.6124 5.62518C13.3633 6.75457 13.3633 8.22425 12.6124 9.35364C12.4309 9.62667 12.1535 9.90621 11.5333 10.5264C10.7728 11.287 10.423 11.6346 10.0799 11.8627C8.66719 12.8021 6.82879 12.8021 5.41605 11.8627C5.07293 11.6346 4.7232 11.287 3.96265 10.5264C3.3425 9.90621 3.06509 9.62667 2.88356 9.35364C2.13265 8.22425 2.13265 6.75457 2.88355 5.62518C3.06509 5.35215 3.3425 5.07261 3.96265 4.45243L7.74799 0.666953Z" stroke="currentColor" stroke-width="0.605014"/>
<path fill-rule="evenodd" clip-rule="evenodd" d="M4.6148 7.98522C3.36061 6.73098 3.37763 4.68044 4.65282 3.4052L7.74895 0.30896L10.7941 3.35421C12.0483 4.60845 12.0313 6.659 10.7561 7.93424C9.04612 9.64424 6.29658 9.66707 4.6148 7.98522ZM5.5141 6.97804C4.60272 6.06663 4.60659 4.58507 5.52274 3.66889L7.74712 1.44443L9.95991 3.6573C10.8713 4.56871 10.8674 6.05027 9.95127 6.96645C8.72278 8.19499 6.73619 8.20018 5.5141 6.97804Z" fill="currentColor"/>
</svg>
