<svg width="18" height="19" viewBox="0 0 18 19" fill="none" xmlns="http://www.w3.org/2000/svg">
<g opacity="0.6">
<path d="M17.5155 3.01682C17.5155 1.80657 16.5478 0.81543 15.361 0.81543C14.1125 0.81543 13.1362 1.80657 13.1362 3.01682V5.71375C14.4634 7.20261 15.2823 9.1764 15.2823 11.3503V18.0776H17.5156L17.5155 3.01682Z" fill="currentColor"/>
<path d="M17.5155 3.01682C17.5155 1.80657 16.5478 0.81543 15.361 0.81543C14.1125 0.81543 13.1362 1.80657 13.1362 3.01682V5.71375C14.4634 7.20261 15.2823 9.1764 15.2823 11.3503V18.0776H17.5156L17.5155 3.01682Z" fill="currentColor"/>
</g>
<path d="M7.14304 4.08133C5.26922 4.08133 3.49961 4.83425 2.16392 6.20398C0.826098 7.57583 0.0922852 9.40287 0.0922852 11.3511V18.0783H3.88887V13.7394H10.395V18.0783H14.1916L14.1937 11.3511C14.1937 7.34398 11.0289 4.08105 7.14309 4.08105L7.14304 4.08133ZM9.04664 9.50285H5.23943V7.65244H9.04664V9.50285Z" fill="currentColor"/>
</svg>
