<svg width="16" height="15" viewBox="0 0 16 15" fill="none" xmlns="http://www.w3.org/2000/svg">
<path d="M12.9447 3.92138H2.83944C2.3972 3.92138 2.01851 3.56921 2.01851 3.12558C2.01851 2.68194 2.38179 2.32977 2.83944 2.32977H13.6077C14.0185 2.32977 14.3497 2.00809 14.3497 1.6105C14.3497 1.21229 14.0178 0.891223 13.6077 0.891223L2.85538 0.890625C1.59223 0.890625 0.549805 1.88553 0.549805 3.11004V11.8651C0.549805 13.2582 1.71797 14.3906 3.15507 14.3906H12.9445C14.3816 14.3906 15.5498 13.2582 15.5498 11.8651V6.44696C15.5498 5.05385 14.3816 3.92143 12.9445 3.92143L12.9447 3.92138ZM11.6026 10.365C10.9235 10.365 10.3709 9.82931 10.3709 9.17101C10.3709 8.51272 10.9235 7.977 11.6026 7.977C12.2817 7.977 12.8343 8.51272 12.8343 9.17101C12.8343 9.82931 12.2971 10.365 11.6026 10.365Z" fill="currentColor"/>
</svg>
