<svg xmlns="http://www.w3.org/2000/svg" width="14" height="16" viewBox="0 0 14 16" fill="none">
<path fill-rule="evenodd" clip-rule="evenodd" d="M2.7618 0.727113V0.902604L2.59673 0.90655L2.43166 0.91051L2.42792 1.28615L2.42417 1.66179L2.38577 1.66393C2.36465 1.66509 2.28415 1.6673 2.20688 1.66884L2.06639 1.67164L2.06244 1.83442C2.05893 1.97897 2.05556 1.99813 2.03228 2.00551C2.01787 2.01009 2.00069 2.01286 1.9941 2.01168C1.98749 2.0105 1.92127 2.01028 1.84691 2.0112L1.71172 2.01286L1.70139 2.37797L1.69107 2.74308H1.51217H1.33329L1.32403 3.01917C1.31894 3.17101 1.31479 3.41746 1.31479 3.56683V3.83841H1.13918H0.963567L0.960224 4.63182C0.958383 5.06819 0.956796 5.5532 0.956712 5.70959L0.956543 5.99395L1.13566 5.99789L1.31479 6.00182V6.19097V6.38013H1.50402H1.69326L1.69719 6.55917L1.70112 6.73822L2.23146 6.73302L2.7618 6.72781V6.92611V7.12439H2.95146H3.14112V6.93762C3.14112 6.81108 3.14655 6.74542 3.15798 6.734C3.17048 6.7215 3.31001 6.71715 3.69885 6.71715H4.22287V6.54162V6.36608H4.4055H4.58814V6.18353V6.00098H4.77077H4.9534V4.92671V3.85245H4.77077H4.58814V3.29074V2.72903H4.4055H4.22287V2.37797V2.0269H4.03363H3.8444L3.84046 1.84786L3.83653 1.66881L3.66484 1.66487L3.49315 1.66094L3.48923 1.47529L3.48531 1.28966L3.32048 1.2857L3.15564 1.28176L3.15189 0.920593L3.14814 0.559443L2.95497 0.55554L2.7618 0.551636V0.727113ZM3.49234 4.54756V5.25671H3.66794H3.84355V5.43142C3.84355 5.55588 3.84861 5.60933 3.86111 5.61727C3.87078 5.62341 3.94961 5.63078 4.0363 5.63365L4.19393 5.63887L4.19786 5.4513L4.2018 5.26374L4.38794 5.25982L4.57409 5.2559V5.06673V4.87756H4.39848H4.22287V4.35798V3.83841H3.8576H3.49234V4.54756ZM3.84936 5.99981C3.84617 6.00303 3.84355 6.08675 3.84355 6.18587V6.36608H4.03321H4.22287V6.18432V6.00253L4.03901 5.99825C3.93789 5.99589 3.85254 5.99659 3.84936 5.99981Z" fill="currentColor" fill-opacity="0.7"/>
<path opacity="0.4" fill-rule="evenodd" clip-rule="evenodd" d="M10.8502 9.05097V9.22646L10.6851 9.2304L10.52 9.23436L10.5163 9.61L10.5125 9.98565L10.4742 9.98778C10.453 9.98895 10.3725 9.99115 10.2953 9.99269L10.1548 9.99549L10.1508 10.1583C10.1473 10.3028 10.1439 10.322 10.1207 10.3294C10.1062 10.3339 10.0891 10.3367 10.0825 10.3355C10.0759 10.3344 10.0096 10.3341 9.93529 10.3351L9.8001 10.3367L9.78977 10.7018L9.77944 11.0669H9.60055H9.42167L9.41241 11.343C9.40732 11.4949 9.40316 11.7413 9.40316 11.8907V12.1623H9.22756H9.05195L9.0486 12.9557C9.04676 13.392 9.04517 13.877 9.04509 14.0334L9.04492 14.3178L9.22404 14.3217L9.40316 14.3257V14.5148V14.704H9.5924H9.78164L9.78557 14.883L9.7895 15.0621L10.3198 15.0569L10.8502 15.0517V15.25V15.4482H11.0398H11.2295V15.2615C11.2295 15.1349 11.2349 15.0693 11.2464 15.0579C11.2589 15.0454 11.3984 15.041 11.7872 15.041H12.3112V14.8655V14.6899H12.4939H12.6765V14.5074V14.3248H12.8591H13.0418V13.2506V12.1763H12.8591H12.6765V11.6146V11.0529H12.4939H12.3112V10.7018V10.3508H12.122H11.9328L11.9288 10.1717L11.9249 9.99267L11.7532 9.98872L11.5815 9.98479L11.5776 9.79914L11.5737 9.61351L11.4089 9.60955L11.244 9.60561L11.2403 9.24445L11.2365 8.8833L11.0434 8.87939L10.8502 8.87549V9.05097ZM11.5807 12.8714V13.5806H11.7563H11.9319V13.7553C11.9319 13.8797 11.937 13.9332 11.9495 13.9411C11.9592 13.9473 12.038 13.9546 12.1247 13.9575L12.2823 13.9627L12.2862 13.7752L12.2902 13.5876L12.4763 13.5837L12.6625 13.5798V13.3906V13.2014H12.4869H12.3112V12.6818V12.1623H11.946H11.5807V12.8714ZM11.9377 14.3237C11.9345 14.3269 11.9319 14.4106 11.9319 14.5097V14.6899H12.1216H12.3112V14.5082V14.3264L12.1274 14.3221C12.0263 14.3197 11.9409 14.3204 11.9377 14.3237Z" fill="currentColor" fill-opacity="0.7"/>
<path fill-rule="evenodd" clip-rule="evenodd" d="M10.566 0.727113V0.902604L10.4009 0.90655L10.2359 0.91051L10.2321 1.28615L10.2284 1.66179L10.19 1.66393C10.1688 1.66509 10.0883 1.6673 10.0111 1.66884L9.87059 1.67164L9.86664 1.83442C9.86313 1.97897 9.85976 1.99813 9.83648 2.00551C9.82207 2.01009 9.80488 2.01286 9.7983 2.01168C9.79169 2.0105 9.72547 2.01028 9.65111 2.0112L9.51592 2.01286L9.50559 2.37797L9.49527 2.74308H9.31637H9.13749L9.12823 3.01917C9.12314 3.17101 9.11898 3.41746 9.11898 3.56683V3.83841H8.94338H8.76777L8.76442 4.63182C8.76258 5.06819 8.761 5.5532 8.76091 5.70959L8.76074 5.99395L8.93986 5.99789L9.11898 6.00182V6.19097V6.38013H9.30822H9.49746L9.50139 6.55917L9.50532 6.73822L10.0357 6.73302L10.566 6.72781V6.92611V7.12439H10.7557H10.9453V6.93762C10.9453 6.81108 10.9508 6.74542 10.9622 6.734C10.9747 6.7215 11.1142 6.71715 11.5031 6.71715H12.0271V6.54162V6.36608H12.2097H12.3923V6.18353V6.00098H12.575H12.7576V4.92671V3.85245H12.575H12.3923V3.29074V2.72903H12.2097H12.0271V2.37797V2.0269H11.8378H11.6486L11.6447 1.84786L11.6407 1.66881L11.469 1.66487L11.2973 1.66094L11.2934 1.47529L11.2895 1.28966L11.1247 1.2857L10.9598 1.28176L10.9561 0.920593L10.9523 0.559443L10.7592 0.55554L10.566 0.551636V0.727113ZM11.2965 4.54756V5.25671H11.4721H11.6478V5.43142C11.6478 5.55588 11.6528 5.60933 11.6653 5.61727C11.675 5.62341 11.7538 5.63078 11.8405 5.63365L11.9981 5.63887L12.0021 5.4513L12.006 5.26374L12.1921 5.25982L12.3783 5.2559V5.06673V4.87756H12.2027H12.0271V4.35798V3.83841H11.6618H11.2965V4.54756ZM11.6536 5.99981C11.6504 6.00303 11.6478 6.08675 11.6478 6.18587V6.36608H11.8374H12.0271V6.18432V6.00253L11.8432 5.99825C11.7421 5.99589 11.6567 5.99659 11.6536 5.99981Z" fill="currentColor" fill-opacity="0.7"/>
<path fill-rule="evenodd" clip-rule="evenodd" d="M2.7618 9.02973V9.20522L2.59673 9.20916L2.43166 9.21312L2.42792 9.58876L2.42417 9.9644L2.38577 9.96654C2.36465 9.96771 2.28415 9.96991 2.20688 9.97145L2.06639 9.97425L2.06244 10.137C2.05893 10.2816 2.05556 10.3007 2.03228 10.3081C2.01787 10.3127 2.00069 10.3155 1.9941 10.3143C1.98749 10.3131 1.92127 10.3129 1.84691 10.3138L1.71172 10.3155L1.70139 10.6806L1.69107 11.0457H1.51217H1.33329L1.32403 11.3218C1.31894 11.4736 1.31479 11.7201 1.31479 11.8694V12.141H1.13918H0.963567L0.960224 12.9344C0.958383 13.3708 0.956796 13.8558 0.956712 14.0122L0.956543 14.2966L1.13566 14.3005L1.31479 14.3044V14.4936V14.6827H1.50402H1.69326L1.69719 14.8618L1.70112 15.0408L2.23146 15.0356L2.7618 15.0304V15.2287V15.427H2.95146H3.14112V15.2402C3.14112 15.1137 3.14655 15.048 3.15798 15.0366C3.17048 15.0241 3.31001 15.0198 3.69885 15.0198H4.22287V14.8442V14.6687H4.4055H4.58814V14.4861V14.3036H4.77077H4.9534V13.2293V12.1551H4.77077H4.58814V11.5934V11.0316H4.4055H4.22287V10.6806V10.3295H4.03363H3.8444L3.84046 10.1505L3.83653 9.97143L3.66484 9.96748L3.49315 9.96355L3.48923 9.7779L3.48531 9.59227L3.32048 9.58831L3.15564 9.58437L3.15189 9.22321L3.14814 8.86206L2.95497 8.85815L2.7618 8.85425V9.02973ZM3.49234 12.8502V13.5593H3.66794H3.84355V13.734C3.84355 13.8585 3.84861 13.9119 3.86111 13.9199C3.87078 13.926 3.94961 13.9334 4.0363 13.9363L4.19393 13.9415L4.19786 13.7539L4.2018 13.5663L4.38794 13.5624L4.57409 13.5585V13.3693V13.1802H4.39848H4.22287V12.6606V12.141H3.8576H3.49234V12.8502ZM3.84936 14.3024C3.84617 14.3056 3.84355 14.3894 3.84355 14.4885V14.6687H4.03321H4.22287V14.4869V14.3051L4.03901 14.3009C3.93789 14.2985 3.85254 14.2992 3.84936 14.3024Z" fill="currentColor" fill-opacity="0.7"/>
</svg>