<svg width="15" height="17" viewBox="0 0 15 17" fill="none" xmlns="http://www.w3.org/2000/svg">
<g clip-path="url(#clip0_25854_214935)">
<path d="M9 2.00122C9 1.17279 8.32843 0.501221 7.5 0.501221C6.67157 0.501221 6 1.17279 6 2.00122V15.0012C6 15.8296 6.67157 16.5012 7.5 16.5012C8.32843 16.5012 9 15.8296 9 15.0012V2.00122Z" fill="#FC408C"/>
<path d="M3 10.0012C3 9.17279 2.32843 8.50122 1.5 8.50122C0.671573 8.50122 0 9.17279 0 10.0012V15.0012C0 15.8296 0.671573 16.5012 1.5 16.5012C2.32843 16.5012 3 15.8296 3 15.0012V10.0012Z" fill="#FF8BBA"/>
<path d="M15 6.00122C15 5.17279 14.3284 4.50122 13.5 4.50122C12.6716 4.50122 12 5.17279 12 6.00122V15.0012C12 15.8296 12.6716 16.5012 13.5 16.5012C14.3284 16.5012 15 15.8296 15 15.0012V6.00122Z" fill="#FF8BBA"/>
</g>
<defs>
<clipPath id="clip0_25854_214935">
<rect width="15" height="16" fill="white" transform="translate(0 0.501221)"/>
</clipPath>
</defs>
</svg>
