<svg width="24" height="24" viewBox="0 0 24 24" fill="none" xmlns="http://www.w3.org/2000/svg">
<g clip-path="url(#clip0_13851_12505)">
<path fill-rule="evenodd" clip-rule="evenodd" d="M15.1452 3.98047C16.5293 3.98047 17.652 5.102 17.6532 6.48619L17.665 16.5056C17.6656 17.1714 17.4018 17.8101 16.9313 18.2812C16.4609 18.7522 15.8222 19.0167 15.1564 19.0167H7.94286C7.27764 19.0167 6.63956 18.7522 6.16916 18.2818C5.69872 17.8113 5.43428 17.1732 5.43428 16.508V10.0888C5.43428 9.87159 5.50924 9.66146 5.64677 9.49382L9.87536 4.32536C10.0536 4.10755 10.321 3.98065 10.6026 3.98065L15.1452 3.98047ZM11.5434 5.85999H15.1452C15.4922 5.85999 15.7738 6.14096 15.7738 6.48804L15.7856 16.5075C15.7856 16.6745 15.7195 16.8345 15.6014 16.9525C15.4834 17.0706 15.3234 17.1373 15.1564 17.1373H7.9428C7.77575 17.1373 7.61638 17.0712 7.49833 16.9531C7.38029 16.835 7.31416 16.6751 7.31416 16.5086V11.029H10.6032C11.122 11.029 11.5429 10.6082 11.5429 10.0893V5.86062L11.5434 5.85999ZM8.35771 9.14907L9.66396 7.55304V9.14907H8.35771Z" fill="currentColor"/>
</g>
<defs>
<clipPath id="clip0_13851_12505">
<rect width="15.1107" height="15.1111" fill="white" transform="matrix(-1 0 0 1 19.1755 3.98047)"/>
</clipPath>
</defs>
</svg>
