<svg width="117" height="117" viewBox="0 0 117 117" fill="none" xmlns="http://www.w3.org/2000/svg">
<rect width="8.25" height="8.25" transform="matrix(1 0 0 -1 42.5 16.9341)" fill="#03EF97" fill-opacity="0.25"/>
<rect width="8.25" height="8.25" transform="matrix(1 0 0 -1 50.75 16.9341)" fill="#03EF97" fill-opacity="0.25"/>
<rect width="8.25" height="8.25" transform="matrix(1 0 0 -1 59 16.9341)" fill="#03EF97" fill-opacity="0.25"/>
<rect width="8.25" height="8.25" transform="matrix(1 0 0 -1 67.25 16.9341)" fill="#03EF97" fill-opacity="0.25"/>
<rect width="8.25" height="8.25" transform="matrix(1 0 0 -1 26 25.1841)" fill="#03EF97" fill-opacity="0.25"/>
<rect width="8.25" height="8.25" transform="matrix(1 0 0 -1 34.25 25.1841)" fill="#03EF97" fill-opacity="0.25"/>
<rect width="8.25" height="8.25" transform="matrix(1 0 0 -1 42.5 25.1841)" fill="#03EF97" fill-opacity="0.25"/>
<rect width="8.25" height="8.25" transform="matrix(1 0 0 -1 50.75 25.1841)" fill="#03EF97" fill-opacity="0.25"/>
<rect width="8.25" height="8.25" transform="matrix(1 0 0 -1 59 25.1841)" fill="#03EF97" fill-opacity="0.25"/>
<rect width="8.25" height="8.25" transform="matrix(1 0 0 -1 67.25 25.1841)" fill="#03EF97" fill-opacity="0.25"/>
<rect width="8.25" height="8.25" transform="matrix(1 0 0 -1 75.5 25.1841)" fill="#03EF97" fill-opacity="0.25"/>
<rect width="8.25" height="8.25" transform="matrix(1 0 0 -1 83.75 25.1841)" fill="#03EF97" fill-opacity="0.25"/>
<rect width="8.25" height="8.25" transform="matrix(1 0 0 -1 17.75 33.4341)" fill="#03EF97" fill-opacity="0.25"/>
<rect width="8.25" height="8.25" transform="matrix(1 0 0 -1 26 33.4341)" fill="#03EF97" fill-opacity="0.25"/>
<rect width="8.25" height="8.25" transform="matrix(1 0 0 -1 34.25 33.4341)" fill="#03EF97" fill-opacity="0.25"/>
<rect width="8.25" height="8.25" transform="matrix(1 0 0 -1 42.5 33.4341)" fill="#03EF97" fill-opacity="0.25"/>
<rect width="8.25" height="8.25" transform="matrix(1 0 0 -1 50.75 33.4341)" fill="#03EF97" fill-opacity="0.25"/>
<rect width="8.25" height="8.25" transform="matrix(1 0 0 -1 59 33.4341)" fill="#03EF97" fill-opacity="0.25"/>
<rect width="8.25" height="8.25" transform="matrix(1 0 0 -1 67.25 33.4341)" fill="#03EF97" fill-opacity="0.25"/>
<rect width="8.25" height="8.25" transform="matrix(1 0 0 -1 75.5 33.4341)" fill="#03EF97" fill-opacity="0.25"/>
<rect width="8.25" height="8.25" transform="matrix(1 0 0 -1 83.75 33.4341)" fill="#03EF97" fill-opacity="0.25"/>
<rect width="8.25" height="8.25" transform="matrix(1 0 0 -1 92 33.4341)" fill="#03EF97" fill-opacity="0.25"/>
<rect width="8.25" height="8.25" transform="matrix(1 0 0 -1 13.625 41.6841)" fill="#03EF97" fill-opacity="0.25"/>
<rect width="8.25" height="8.25" transform="matrix(1 0 0 -1 21.875 41.6841)" fill="#03EF97" fill-opacity="0.25"/>
<rect width="8.25" height="8.25" transform="matrix(1 0 0 -1 30.125 41.6841)" fill="#03EF97" fill-opacity="0.25"/>
<rect width="8.25" height="8.25" transform="matrix(1 0 0 -1 38.375 41.6841)" fill="#03EF97" fill-opacity="0.25"/>
<rect width="8.25" height="8.25" transform="matrix(1 0 0 -1 46.625 41.6841)" fill="#03EF97" fill-opacity="0.25"/>
<rect width="8.25" height="8.25" transform="matrix(1 0 0 -1 54.875 41.6841)" fill="#03EF97" fill-opacity="0.25"/>
<rect width="8.25" height="8.25" transform="matrix(1 0 0 -1 63.125 41.6841)" fill="#03EF97" fill-opacity="0.25"/>
<rect width="8.25" height="8.25" transform="matrix(1 0 0 -1 71.375 41.6841)" fill="#03EF97" fill-opacity="0.25"/>
<rect width="8.25" height="8.25" transform="matrix(1 0 0 -1 79.625 41.6841)" fill="#03EF97" fill-opacity="0.25"/>
<rect width="8.25" height="8.25" transform="matrix(1 0 0 -1 87.875 41.6841)" fill="#03EF97" fill-opacity="0.25"/>
<rect width="8.25" height="8.25" transform="matrix(1 0 0 -1 96.125 41.6841)" fill="#03EF97" fill-opacity="0.25"/>
<rect width="8.25" height="8.25" transform="matrix(1 0 0 -1 9.5 49.9341)" fill="#03EF97" fill-opacity="0.25"/>
<rect width="8.25" height="8.25" transform="matrix(1 0 0 -1 17.75 49.9341)" fill="#03EF97" fill-opacity="0.25"/>
<rect width="8.25" height="8.25" transform="matrix(1 0 0 -1 26 49.9341)" fill="#03EF97" fill-opacity="0.25"/>
<rect width="8.25" height="8.25" transform="matrix(1 0 0 -1 34.25 49.9341)" fill="#03EF97" fill-opacity="0.25"/>
<rect width="8.25" height="8.25" transform="matrix(1 0 0 -1 42.5 49.9341)" fill="#03EF97" fill-opacity="0.25"/>
<rect width="8.25" height="8.25" transform="matrix(1 0 0 -1 50.75 49.9341)" fill="#03EF97" fill-opacity="0.25"/>
<rect width="8.25" height="8.25" transform="matrix(1 0 0 -1 59 49.9341)" fill="#03EF97" fill-opacity="0.25"/>
<rect width="8.25" height="8.25" transform="matrix(1 0 0 -1 67.25 49.9341)" fill="#03EF97" fill-opacity="0.25"/>
<rect width="8.25" height="8.25" transform="matrix(1 0 0 -1 75.5 49.9341)" fill="#03EF97" fill-opacity="0.25"/>
<rect width="8.25" height="8.25" transform="matrix(1 0 0 -1 83.75 49.9341)" fill="#03EF97" fill-opacity="0.25"/>
<rect width="8.25" height="8.25" transform="matrix(1 0 0 -1 92 49.9341)" fill="#03EF97" fill-opacity="0.25"/>
<rect width="8.25" height="8.25" transform="matrix(1 0 0 -1 100.25 49.9341)" fill="#03EF97" fill-opacity="0.25"/>
<rect x="9.5" y="49.9341" width="8.25" height="8.25" fill="#03EF97" fill-opacity="0.25"/>
<rect x="17.75" y="49.9341" width="8.25" height="8.25" fill="#03EF97" fill-opacity="0.25"/>
<rect x="26" y="49.9341" width="8.25" height="8.25" fill="#03EF97" fill-opacity="0.25"/>
<rect x="34.25" y="49.9341" width="8.25" height="8.25" fill="#03EF97" fill-opacity="0.25"/>
<rect x="42.5" y="49.9341" width="8.25" height="8.25" fill="#03EF97" fill-opacity="0.25"/>
<rect x="50.75" y="49.9341" width="8.25" height="8.25" fill="#03EF97" fill-opacity="0.25"/>
<rect x="59" y="49.9341" width="8.25" height="8.25" fill="#03EF97" fill-opacity="0.25"/>
<rect x="67.25" y="49.9341" width="8.25" height="8.25" fill="#03EF97" fill-opacity="0.25"/>
<rect x="75.5" y="49.9341" width="8.25" height="8.25" fill="#03EF97" fill-opacity="0.25"/>
<rect x="83.75" y="49.9341" width="8.25" height="8.25" fill="#03EF97" fill-opacity="0.25"/>
<rect x="92" y="49.9341" width="8.25" height="8.25" fill="#03EF97" fill-opacity="0.25"/>
<rect x="100.25" y="49.9341" width="8.25" height="8.25" fill="#03EF97" fill-opacity="0.25"/>
<rect x="9.5" y="58.1841" width="8.25" height="8.25" fill="#03EF97" fill-opacity="0.25"/>
<rect x="17.75" y="58.1841" width="8.25" height="8.25" fill="#03EF97" fill-opacity="0.25"/>
<rect x="26" y="58.1841" width="8.25" height="8.25" fill="#03EF97" fill-opacity="0.25"/>
<rect x="34.25" y="58.1841" width="8.25" height="8.25" fill="#03EF97" fill-opacity="0.25"/>
<rect x="42.5" y="58.1841" width="8.25" height="8.25" fill="#03EF97" fill-opacity="0.25"/>
<rect x="50.75" y="58.1841" width="8.25" height="8.25" fill="#03EF97" fill-opacity="0.25"/>
<rect x="59" y="58.1841" width="8.25" height="8.25" fill="#03EF97" fill-opacity="0.25"/>
<rect x="67.25" y="58.1841" width="8.25" height="8.25" fill="#03EF97" fill-opacity="0.25"/>
<rect x="75.5" y="58.1841" width="8.25" height="8.25" fill="#03EF97" fill-opacity="0.25"/>
<rect x="83.75" y="58.1841" width="8.25" height="8.25" fill="#03EF97" fill-opacity="0.25"/>
<rect x="92" y="58.1841" width="8.25" height="8.25" fill="#03EF97" fill-opacity="0.25"/>
<rect x="100.25" y="58.1841" width="8.25" height="8.25" fill="#03EF97" fill-opacity="0.25"/>
<rect x="9.5" y="66.4341" width="8.25" height="8.25" fill="#03EF97" fill-opacity="0.25"/>
<rect x="17.75" y="66.4341" width="8.25" height="8.25" fill="#03EF97" fill-opacity="0.25"/>
<rect x="26" y="66.4341" width="8.25" height="8.25" fill="#03EF97" fill-opacity="0.25"/>
<rect x="34.25" y="66.4341" width="8.25" height="8.25" fill="#03EF97" fill-opacity="0.25"/>
<rect x="42.5" y="66.4341" width="8.25" height="8.25" fill="#03EF97" fill-opacity="0.25"/>
<rect x="50.75" y="66.4341" width="8.25" height="8.25" fill="#03EF97" fill-opacity="0.25"/>
<rect x="59" y="66.4341" width="8.25" height="8.25" fill="#03EF97" fill-opacity="0.25"/>
<rect x="67.25" y="66.4341" width="8.25" height="8.25" fill="#03EF97" fill-opacity="0.25"/>
<rect x="75.5" y="66.4341" width="8.25" height="8.25" fill="#03EF97" fill-opacity="0.25"/>
<rect x="83.75" y="66.4341" width="8.25" height="8.25" fill="#03EF97" fill-opacity="0.25"/>
<rect x="92" y="66.4341" width="8.25" height="8.25" fill="#03EF97" fill-opacity="0.25"/>
<rect x="100.25" y="66.4341" width="8.25" height="8.25" fill="#03EF97" fill-opacity="0.25"/>
<rect x="13.625" y="74.6841" width="8.25" height="8.25" fill="#03EF97" fill-opacity="0.25"/>
<rect x="21.875" y="74.6841" width="8.25" height="8.25" fill="#03EF97" fill-opacity="0.25"/>
<rect x="30.125" y="74.6841" width="8.25" height="8.25" fill="#03EF97" fill-opacity="0.25"/>
<rect x="38.375" y="74.6841" width="8.25" height="8.25" fill="#03EF97" fill-opacity="0.25"/>
<rect x="46.625" y="74.6841" width="8.25" height="8.25" fill="#03EF97" fill-opacity="0.25"/>
<rect x="54.875" y="74.6841" width="8.25" height="8.25" fill="#03EF97" fill-opacity="0.25"/>
<rect x="63.125" y="74.6841" width="8.25" height="8.25" fill="#03EF97" fill-opacity="0.25"/>
<rect x="71.375" y="74.6841" width="8.25" height="8.25" fill="#03EF97" fill-opacity="0.25"/>
<rect x="79.625" y="74.6841" width="8.25" height="8.25" fill="#03EF97" fill-opacity="0.25"/>
<rect x="87.875" y="74.6841" width="8.25" height="8.25" fill="#03EF97" fill-opacity="0.25"/>
<rect x="96.125" y="74.6841" width="8.25" height="8.25" fill="#03EF97" fill-opacity="0.25"/>
<rect x="17.75" y="82.9341" width="8.25" height="8.25" fill="#03EF97" fill-opacity="0.25"/>
<rect x="26" y="82.9341" width="8.25" height="8.25" fill="#03EF97" fill-opacity="0.25"/>
<rect x="34.25" y="82.9341" width="8.25" height="8.25" fill="#03EF97" fill-opacity="0.25"/>
<rect x="42.5" y="82.9341" width="8.25" height="8.25" fill="#03EF97" fill-opacity="0.25"/>
<rect x="50.75" y="82.9341" width="8.25" height="8.25" fill="#03EF97" fill-opacity="0.25"/>
<rect x="59" y="82.9341" width="8.25" height="8.25" fill="#03EF97" fill-opacity="0.25"/>
<rect x="67.25" y="82.9341" width="8.25" height="8.25" fill="#03EF97" fill-opacity="0.25"/>
<rect x="75.5" y="82.9341" width="8.25" height="8.25" fill="#03EF97" fill-opacity="0.25"/>
<rect x="83.75" y="82.9341" width="8.25" height="8.25" fill="#03EF97" fill-opacity="0.25"/>
<rect x="92" y="82.9341" width="8.25" height="8.25" fill="#03EF97" fill-opacity="0.25"/>
<rect x="26" y="91.1841" width="8.25" height="8.25" fill="#03EF97" fill-opacity="0.25"/>
<rect x="34.25" y="91.1841" width="8.25" height="8.25" fill="#03EF97" fill-opacity="0.25"/>
<rect x="42.5" y="91.1841" width="8.25" height="8.25" fill="#03EF97" fill-opacity="0.25"/>
<rect x="50.75" y="91.1841" width="8.25" height="8.25" fill="#03EF97" fill-opacity="0.25"/>
<rect x="59" y="91.1841" width="8.25" height="8.25" fill="#03EF97" fill-opacity="0.25"/>
<rect x="67.25" y="91.1841" width="8.25" height="8.25" fill="#03EF97" fill-opacity="0.25"/>
<rect x="75.5" y="91.1841" width="8.25" height="8.25" fill="#03EF97" fill-opacity="0.25"/>
<rect x="83.75" y="91.1841" width="8.25" height="8.25" fill="#03EF97" fill-opacity="0.25"/>
<rect x="42.5" y="99.4341" width="8.25" height="8.25" fill="#03EF97" fill-opacity="0.25"/>
<rect x="50.75" y="99.4341" width="8.25" height="8.25" fill="#03EF97" fill-opacity="0.25"/>
<rect x="59" y="99.4341" width="8.25" height="8.25" fill="#03EF97" fill-opacity="0.25"/>
<rect x="67.25" y="99.4341" width="8.25" height="8.25" fill="#03EF97" fill-opacity="0.25"/>
<rect x="40.1709" y="58.3887" width="7.35899" height="7.35899" fill="#00FFA0"/>
<rect x="47.5283" y="65.7479" width="7.35899" height="7.35899" fill="#00FFA0"/>
<rect x="69.6064" y="51.0298" width="7.35899" height="7.35899" transform="rotate(90 69.6064 51.0298)" fill="#00FFA0"/>
<rect x="62.249" y="58.3887" width="7.35899" height="7.35899" transform="rotate(90 62.249 58.3887)" fill="#00FFA0"/>
<rect x="54.8867" y="65.7478" width="7.35899" height="7.35899" transform="rotate(90 54.8867 65.7478)" fill="#00FFA0"/>
<rect x="76.9648" y="43.6707" width="7.35899" height="7.35899" transform="rotate(90 76.9648 43.6707)" fill="#00FFA0"/>
</svg>
