<svg width="49" height="49" viewBox="0 0 49 49" fill="none" xmlns="http://www.w3.org/2000/svg">
<path fill-rule="evenodd" clip-rule="evenodd" d="M10.2483 10.1748C10.2483 9.50468 10.3936 9.12207 10.7365 8.88907L10.9928 8.7149H25.606H40.2192L40.4605 8.8641C40.5253 8.90417 40.5812 8.91493 40.6294 8.94027C40.9593 9.11381 40.9294 9.97123 40.9622 25.6064L40.996 41.7616L40.8295 42.0776C40.7378 42.2514 40.5725 42.4595 40.462 42.54L40.2611 42.6865L25.7161 42.7048C11.6276 42.7225 10.8124 42.757 10.5754 42.4037C10.5401 42.3511 10.5177 42.2899 10.4662 42.2189C10.2673 41.9444 10.2483 41.8696 10.2483 41.3614V40.8048L9.1278 40.7852L8.00727 40.7656L7.9717 39.8763L7.93612 38.987L6.99345 38.9671L6.05078 38.9473V38.0245V37.1017H7.01124H7.9717V33.9713V30.8409H7.01124H6.05078V29.8755V28.91L6.99345 28.9266L7.93612 28.9433L7.95469 25.8368L7.97319 22.7304H7.01202H6.05078V21.8055V20.8807H7.01124H7.9717V17.608V14.3353H7.01124H6.05078V13.4105V12.4856H7.01124H7.9717V11.5963V10.707H9.11002H10.2483V10.1748ZM12.4538 12.4856V11.6674V10.8492H13.3076H14.1613V11.6674V12.4856H13.3076H12.4538ZM8.11399 14.2679V13.403V12.5381L8.38078 12.5822C8.52755 12.6065 9.02479 12.6267 9.48588 12.6271L10.3242 12.6279L10.304 13.4282L10.2839 14.2286L9.19895 14.2483L8.11399 14.2679ZM10.4618 14.2642V13.446V12.6279H11.3511H12.2404V13.446V14.2642H11.3511H10.4618ZM12.4538 14.2413V13.4346V12.6279H13.3076H14.1613V13.4506V14.2732L13.3076 14.2573L12.4538 14.2413ZM12.4538 15.9026V15.1189V14.3353H13.3076H14.1613V15.1009V15.8663L13.3076 15.8844L12.4538 15.9026ZM12.4538 20.9562V20.1358V19.3155H13.3455H14.2372L14.217 20.1158L14.1969 20.9162L13.3254 20.9362L12.4538 20.9562ZM8.11399 22.5881V21.77V20.9518H9.21673H10.3195V21.77V22.5881H9.21673H8.11399ZM10.5329 22.5881V21.77V20.9518H11.3867H12.2404V21.77V22.5881H11.3867H10.5329ZM12.4538 22.5881V21.8033V21.0185L13.3254 21.0385L14.1969 21.0585L14.2171 21.8233L14.2373 22.5881H13.3456H12.4538ZM12.4538 24.2289V23.4796V22.7304H13.3456H14.2374L14.2172 23.4596L14.1969 24.1889L13.3254 24.2089L12.4538 24.2289ZM12.3827 28.2916C12.3827 27.9068 12.404 27.5706 12.4301 27.5446C12.4562 27.5185 12.852 27.4971 13.3096 27.4971H14.1415L14.1794 27.9142C14.2002 28.1436 14.2004 28.4798 14.18 28.6612L14.1428 28.9912H13.2628H12.3827V28.2916ZM8.11399 30.7025V29.8824V29.0623H9.14794H10.1819L10.1618 29.8627L10.1416 30.6631L9.1278 30.6828L8.11399 30.7025ZM10.3551 30.6631L10.3349 29.8607L10.3148 29.0582L11.2954 29.0781L12.276 29.0979L12.2709 29.8805L12.2659 30.6631H11.3105H10.3551ZM12.4538 30.6986V29.916V29.1334H13.3076H14.1613V29.916V30.6986H13.3076H12.4538ZM12.3976 31.6288C12.3863 31.26 12.3933 30.9159 12.4132 30.864C12.4405 30.793 12.6604 30.7698 13.3054 30.7698H14.1613V31.5546V32.3394L13.2898 32.3194L12.4183 32.2994L12.3976 31.6288ZM12.4538 36.7559C12.4538 36.5265 12.4335 36.1904 12.4086 36.0089L12.3633 35.6788H13.2979H14.2325V36.4258V37.1728H13.3431H12.4538V36.7559ZM8.11399 38.8803V38.0621V37.2439H9.18116H10.2483V38.0621V38.8803H9.18116H8.11399ZM10.4262 38.8447L10.4061 38.0443L10.3859 37.2439H11.3132H12.2404V38.0642V38.8845L11.3333 38.8646L10.4262 38.8447ZM12.4143 38.5068C12.4249 38.3796 12.4381 38.0585 12.4437 37.7931L12.4538 37.3107L13.3254 37.3307L14.1969 37.3507L14.2172 38.0443L14.2376 38.738H13.3163H12.3951L12.4143 38.5068ZM12.3978 39.81C12.3866 39.4018 12.394 39.0245 12.4142 38.9718C12.4429 38.897 12.6432 38.8803 13.3239 38.8958L14.1969 38.9158V39.734V40.5522H13.3076H12.4183L12.3978 39.81ZM38.3228 11.1826H17.8525V40.1681H38.3228V11.1826Z" fill="currentColor"/>
<path fill-rule="evenodd" clip-rule="evenodd" d="M21.1084 26.0337L28.2521 18.8968L35.3906 26.0356L28.2521 33.1701L21.1084 26.0337ZM32.4704 23.8916C32.1736 24.223 31.5264 25.0576 31.5264 26.0337C31.5264 27.0098 32.1736 27.8444 32.4704 28.1758C30.5638 28.075 29.0393 26.0337 29.0393 26.0337C29.0393 26.0337 30.5638 23.9925 32.4704 23.8916ZM24.039 23.8916C25.9456 23.9925 27.4701 26.0337 27.4701 26.0337C27.4701 26.0337 25.9456 28.075 24.039 28.1758C24.3358 27.8444 24.983 27.0098 24.983 26.0337C24.983 25.0576 24.3358 24.223 24.039 23.8916ZM23.7369 23.9043C23.4353 24.2435 22.8039 25.0696 22.8039 26.0337C22.8039 27.0016 23.4403 27.8304 23.7405 28.1672L25.2848 29.7117L25.2921 29.7046C25.9103 29.1005 26.9381 28.3064 28.1097 28.2459C27.8147 28.5746 27.1642 29.4102 27.1642 30.3882C27.1642 31.3661 27.8147 32.2018 28.1097 32.5304L28.2521 32.6795L28.3944 32.5304C28.6894 32.2018 29.3399 31.3661 29.3399 30.3882C29.3399 29.4102 28.6894 28.5746 28.3944 28.2459C29.5707 28.3066 30.6018 29.1067 31.2193 29.7117L32.8001 28.1307L32.8037 28.1265C33.1163 27.7676 33.7055 26.9651 33.7055 26.0337C33.7055 25.0987 33.1117 24.2936 32.8001 23.9367L31.2267 22.3631L31.2194 22.3702C30.6018 22.9752 29.5706 23.7752 28.3944 23.8359C28.6894 23.5072 29.3399 22.6716 29.3399 21.6937C29.3399 20.7157 28.6894 19.8801 28.3944 19.5514L28.2521 19.3879L28.1097 19.5514C27.8147 19.8801 27.1642 20.7157 27.1642 21.6937C27.1642 22.6716 27.8147 23.5072 28.1097 23.8359C26.9289 23.775 25.8942 22.9689 25.2774 22.3631L23.7369 23.9043Z" fill="currentColor"/>
</svg>
