<svg xmlns="http://www.w3.org/2000/svg" width="19" height="19" fill="none">
  <path fill="currentColor" d="M9.1.032c-4.97 0-9 4.093-9 9.141 0 4.283 2.904 7.867 6.819 8.86a1.353 1.353 0 0 1-.07-.445v-1.562H5.72c-.616 0-1.164-.27-1.43-.769-.294-.555-.345-1.405-1.075-1.924-.217-.173-.052-.37.198-.344.46.133.843.454 1.203.931.359.478.528.586 1.197.586.325 0 .811-.019 1.269-.092.246-.635.67-1.219 1.19-1.495-2.996-.313-4.427-1.827-4.427-3.883 0-.885.372-1.741 1.002-2.463-.207-.716-.467-2.176.08-2.732 1.348 0 2.164.888 2.36 1.128a6.65 6.65 0 0 1 2.185-.366c.777 0 1.518.132 2.191.368.194-.239 1.01-1.13 2.361-1.13.55.557.286 2.023.077 2.738.627.72.996 1.573.996 2.457 0 2.055-1.428 3.568-4.42 3.883.823.436 1.424 1.662 1.424 2.586v2.083c0 .08-.018.136-.027.204 3.507-1.248 6.027-4.63 6.027-8.619 0-5.048-4.03-9.14-9-9.14Z"/>
</svg>