<svg xmlns="http://www.w3.org/2000/svg" width="24" height="24" viewBox="0 0 24 24" fill="none">
<g clip-path="url(#clip0_23043_66196)">
<path d="M15.2391 18.3999C15.3104 18.5092 15.3508 18.6357 15.3561 18.766C15.3614 18.8963 15.3314 19.0257 15.2693 19.1404C15.2072 19.2551 15.1152 19.3509 15.0032 19.4176C14.8911 19.4844 14.7631 19.5196 14.6327 19.5196H1.27776C1.14732 19.5196 1.01931 19.4844 0.907246 19.4176C0.795184 19.3509 0.703234 19.2551 0.641111 19.1404C0.578988 19.0257 0.548999 18.8963 0.554312 18.766C0.559625 18.6357 0.600043 18.5092 0.671295 18.3999C1.69061 16.8309 3.18993 15.6336 4.94552 14.9865C3.97499 14.3404 3.23816 13.3991 2.84398 12.3018C2.4498 11.2046 2.4192 10.0096 2.75671 8.89354C3.09422 7.77753 3.78192 6.79976 4.71811 6.10482C5.6543 5.40988 6.78929 5.03467 7.95522 5.03467C9.12115 5.03467 10.2561 5.40988 11.1923 6.10482C12.1285 6.79976 12.8162 7.77753 13.1537 8.89354C13.4912 10.0096 13.4606 11.2046 13.0665 12.3018C12.6723 13.3991 11.9354 14.3404 10.9649 14.9865C12.7205 15.6336 14.2198 16.8309 15.2391 18.3999Z" fill="#85D1FF"/>
<path d="M23.1997 18.3865C22.1801 16.8242 20.6841 15.632 18.9336 14.9867C20.0794 14.2149 20.888 13.0355 21.1948 11.6886C21.5016 10.3416 21.2836 8.92839 20.5852 7.7365C19.8868 6.54461 18.7604 5.66366 17.4353 5.27298C16.1103 4.8823 14.6861 5.01125 13.4528 5.63358C13.4056 5.65793 13.3644 5.69235 13.332 5.7344C13.2996 5.77646 13.2769 5.82512 13.2654 5.87694C13.2539 5.92876 13.254 5.98247 13.2656 6.03426C13.2771 6.08606 13.3 6.13468 13.3324 6.17668C14.2495 7.32065 14.7762 8.72822 14.8353 10.1932C14.8944 11.6582 14.4829 13.1036 13.661 14.3178C13.6079 14.3971 13.5882 14.4943 13.6064 14.588C13.6245 14.6818 13.6789 14.7646 13.7578 14.8184C14.8295 15.5663 15.7469 16.5138 16.4598 17.609C16.7473 18.0493 16.8647 18.5793 16.7902 19.0998C16.7818 19.1516 16.7847 19.2046 16.7988 19.2551C16.8129 19.3057 16.8379 19.3525 16.8719 19.3925C16.9059 19.4324 16.9482 19.4645 16.9958 19.4865C17.0434 19.5085 17.0952 19.5198 17.1477 19.5198H22.6059C22.7654 19.5199 22.9204 19.4673 23.0469 19.3702C23.1734 19.2732 23.2643 19.1371 23.3056 18.9831C23.3308 18.8818 23.3344 18.7763 23.3161 18.6735C23.2979 18.5708 23.2582 18.473 23.1997 18.3865Z" fill="#25CBFF" fill-opacity="0.2"/>
</g>
<defs>
<clipPath id="clip0_23043_66196">
<rect width="23.1724" height="23.1724" fill="white" transform="translate(0.349609 0.691895)"/>
</clipPath>
</defs>
</svg>