<svg width="18" height="18" viewBox="0 0 18 18" fill="none" xmlns="http://www.w3.org/2000/svg">
<path opacity="0.5" d="M6.31505 3.49431C7.14332 3.09039 8.05205 2.87855 8.97355 2.87457C9.89505 2.87059 10.8056 3.07457 11.6373 3.47133C12.469 3.86808 13.2005 4.44738 13.7773 5.16607C14.3541 5.88476 14.7613 6.72432 14.9685 7.62222C15.1758 8.52012 15.1778 9.45321 14.9744 10.352C14.771 11.2508 14.3675 12.0921 13.7938 12.8133C13.2201 13.5344 12.4912 14.1169 11.6612 14.5172C10.8311 14.9176 9.92151 15.1255 9 15.1255" stroke="#7283A5" stroke-opacity="0.6" stroke-width="3"/>
<path fill-rule="evenodd" clip-rule="evenodd" d="M16.5973 12.6232C15.5982 14.6209 13.7708 16.1937 11.4547 16.8097C7.1403 17.9783 2.69934 15.4069 1.53006 11.0932C0.382557 6.77881 2.9328 2.33785 7.26828 1.16857C9.79746 0.48866 12.3688 1.10459 14.3023 2.59241L11.6459 5.75861C10.7107 5.09977 9.52098 4.84455 8.33064 5.16376C6.20574 5.73751 4.9515 7.90516 5.52516 10.0301C6.07781 12.1339 8.26656 13.4092 10.3915 12.8355C11.5601 12.517 12.4741 11.7091 12.9417 10.6889L16.5973 12.6232Z" fill="currentColor"/>
</svg>
