<svg width="18" height="20" viewBox="0 0 18 20" fill="none" xmlns="http://www.w3.org/2000/svg">
<path d="M8.21394 15.5187H8.2148C8.41245 15.7258 8.69262 15.8538 9.00112 15.8538C9.31049 15.8538 9.5898 15.7249 9.78745 15.5187L13.5946 11.5519C14.0114 11.117 13.9968 10.4269 13.5628 10.0101C13.3505 9.80732 13.0789 9.70677 12.8074 9.70677C12.5203 9.70677 12.2342 9.81935 12.0202 10.0419L10.0909 12.052V5.25265C10.0909 4.65023 9.6019 4.16211 9.00035 4.16211C8.39792 4.16211 7.90894 4.65025 7.90894 5.25265V12.052L5.97964 10.0419C5.7648 9.81849 5.47949 9.70677 5.19246 9.70677C4.92089 9.70677 4.64846 9.80732 4.43706 10.0101C4.00221 10.4269 3.98846 11.117 4.40527 11.5519L8.21394 15.5187Z" fill="currentColor"/>
<path d="M1.80927 3.13849H16.1936C16.796 3.13849 17.2841 2.65035 17.2841 2.04795C17.2833 1.44552 16.7952 0.956543 16.1927 0.956543H1.8093C1.20601 0.956543 0.71875 1.44554 0.71875 2.04795C0.71875 2.65035 1.20601 3.13849 1.8093 3.13849H1.80927Z" fill="currentColor"/>
<path d="M16.1895 16.8526H15.0938V19.0423H16.1895C16.7936 19.0423 17.2843 18.5524 17.2843 17.9474C17.2843 17.3432 16.7936 16.8525 16.1895 16.8525V16.8526Z" fill="currentColor"/>
<path d="M0.712891 17.9482C0.712891 18.5524 1.2036 19.0431 1.80775 19.0431H2.90261V16.8534L1.80775 16.8525C1.20274 16.8525 0.712891 17.3433 0.712891 17.9483V17.9482Z" fill="currentColor"/>
<path d="M4.30859 16.8525H6.49829V19.0422H4.30859V16.8525Z" fill="currentColor"/>
<path d="M7.9043 16.8525H10.094V19.0422H7.9043V16.8525Z" fill="currentColor"/>
<path d="M11.502 16.8525H13.6916V19.0422H11.502V16.8525Z" fill="currentColor"/>
</svg>
