<svg xmlns="http://www.w3.org/2000/svg" width="100" height="100" viewBox="0 0 100 100" fill="none">
  <path fill="#9EA7BA" fill-opacity=".06" d="M33 8.563h8.25V.313H33z"/>
  <path fill="#9EA7BA" fill-opacity=".06" d="M41.25 8.563h8.25V.313h-8.25z"/>
  <path fill="#9EA7BA" fill-opacity=".06" d="M49.5 8.563h8.25V.313H49.5z"/>
  <path fill="#9EA7BA" fill-opacity=".06" d="M57.75 8.563H66V.313h-8.25z"/>
  <path fill="#9EA7BA" fill-opacity=".06" d="M16.5 16.813h8.25v-8.25H16.5z"/>
  <path fill="#9EA7BA" fill-opacity=".06" d="M24.75 16.813H33v-8.25h-8.25z"/>
  <path fill="#9EA7BA" fill-opacity=".06" d="M33 16.813h8.25v-8.25H33z"/>
  <path fill="#9EA7BA" fill-opacity=".06" d="M41.25 16.813h8.25v-8.25h-8.25z"/>
  <path fill="#9EA7BA" fill-opacity=".06" d="M49.5 16.813h8.25v-8.25H49.5z"/>
  <path fill="#9EA7BA" fill-opacity=".06" d="M57.75 16.813H66v-8.25h-8.25z"/>
  <path fill="#9EA7BA" fill-opacity=".06" d="M66 16.813h8.25v-8.25H66z"/>
  <path fill="#9EA7BA" fill-opacity=".06" d="M74.25 16.813h8.25v-8.25h-8.25z"/>
  <path fill="#9EA7BA" fill-opacity=".06" d="M8.25 25.063h8.25v-8.25H8.25z"/>
  <path fill="#9EA7BA" fill-opacity=".06" d="M16.5 25.063h8.25v-8.25H16.5z"/>
  <path fill="#9EA7BA" fill-opacity=".06" d="M24.75 25.063H33v-8.25h-8.25z"/>
  <path fill="#9EA7BA" fill-opacity=".06" d="M33 25.063h8.25v-8.25H33z"/>
  <path fill="#9EA7BA" fill-opacity=".06" d="M41.25 25.063h8.25v-8.25h-8.25z"/>
  <path fill="#9EA7BA" fill-opacity=".06" d="M49.5 25.063h8.25v-8.25H49.5z"/>
  <path fill="#9EA7BA" fill-opacity=".06" d="M57.75 25.063H66v-8.25h-8.25z"/>
  <path fill="#9EA7BA" fill-opacity=".06" d="M66 25.063h8.25v-8.25H66z"/>
  <path fill="#9EA7BA" fill-opacity=".06" d="M74.25 25.063h8.25v-8.25h-8.25z"/>
  <path fill="#9EA7BA" fill-opacity=".06" d="M82.5 25.063h8.25v-8.25H82.5z"/>
  <path fill="#9EA7BA" fill-opacity=".06" d="M4.125 33.313h8.25v-8.25h-8.25z"/>
  <path fill="#9EA7BA" fill-opacity=".06" d="M12.375 33.313h8.25v-8.25h-8.25z"/>
  <path fill="#9EA7BA" fill-opacity=".06" d="M20.625 33.313h8.25v-8.25h-8.25z"/>
  <path fill="#9EA7BA" fill-opacity=".06" d="M28.875 33.313h8.25v-8.25h-8.25z"/>
  <path fill="#9EA7BA" fill-opacity=".06" d="M37.125 33.313h8.25v-8.25h-8.25z"/>
  <path fill="#9EA7BA" fill-opacity=".06" d="M45.375 33.313h8.25v-8.25h-8.25z"/>
  <path fill="#9EA7BA" fill-opacity=".06" d="M53.625 33.313h8.25v-8.25h-8.25z"/>
  <path fill="#9EA7BA" fill-opacity=".06" d="M61.875 33.313h8.25v-8.25h-8.25z"/>
  <path fill="#9EA7BA" fill-opacity=".06" d="M70.125 33.313h8.25v-8.25h-8.25z"/>
  <path fill="#9EA7BA" fill-opacity=".06" d="M78.375 33.313h8.25v-8.25h-8.25z"/>
  <path fill="#9EA7BA" fill-opacity=".06" d="M86.625 33.313h8.25v-8.25h-8.25z"/>
  <path fill="#9EA7BA" fill-opacity=".06" d="M0 41.563h8.25v-8.25H0z"/>
  <path fill="#9EA7BA" fill-opacity=".06" d="M8.25 41.563h8.25v-8.25H8.25z"/>
  <path fill="#9EA7BA" fill-opacity=".06" d="M16.5 41.563h8.25v-8.25H16.5z"/>
  <path fill="#9EA7BA" fill-opacity=".06" d="M24.75 41.563H33v-8.25h-8.25z"/>
  <path fill="#9EA7BA" fill-opacity=".06" d="M33 41.563h8.25v-8.25H33z"/>
  <path fill="#9EA7BA" fill-opacity=".06" d="M41.25 41.563h8.25v-8.25h-8.25z"/>
  <path fill="#9EA7BA" fill-opacity=".06" d="M49.5 41.563h8.25v-8.25H49.5z"/>
  <path fill="#9EA7BA" fill-opacity=".06" d="M57.75 41.563H66v-8.25h-8.25z"/>
  <path fill="#9EA7BA" fill-opacity=".06" d="M66 41.563h8.25v-8.25H66z"/>
  <path fill="#9EA7BA" fill-opacity=".06" d="M74.25 41.563h8.25v-8.25h-8.25z"/>
  <path fill="#9EA7BA" fill-opacity=".06" d="M82.5 41.563h8.25v-8.25H82.5z"/>
  <path fill="#9EA7BA" fill-opacity=".06" d="M90.75 41.563H99v-8.25h-8.25z"/>
  <path fill="#9EA7BA" fill-opacity=".06" d="M0 41.563h8.25v8.25H0z"/>
  <path fill="#9EA7BA" fill-opacity=".06" d="M8.25 41.563h8.25v8.25H8.25z"/>
  <path fill="#9EA7BA" fill-opacity=".06" d="M16.5 41.563h8.25v8.25H16.5z"/>
  <path fill="#9EA7BA" fill-opacity=".06" d="M24.75 41.563H33v8.25h-8.25z"/>
  <path fill="#9EA7BA" fill-opacity=".06" d="M33 41.563h8.25v8.25H33z"/>
  <path fill="#9EA7BA" fill-opacity=".06" d="M41.25 41.563h8.25v8.25h-8.25z"/>
  <path fill="#9EA7BA" fill-opacity=".06" d="M49.5 41.563h8.25v8.25H49.5z"/>
  <path fill="#9EA7BA" fill-opacity=".06" d="M57.75 41.563H66v8.25h-8.25z"/>
  <path fill="#9EA7BA" fill-opacity=".06" d="M66 41.563h8.25v8.25H66z"/>
  <path fill="#9EA7BA" fill-opacity=".06" d="M74.25 41.563h8.25v8.25h-8.25z"/>
  <path fill="#9EA7BA" fill-opacity=".06" d="M82.5 41.563h8.25v8.25H82.5z"/>
  <path fill="#9EA7BA" fill-opacity=".06" d="M90.75 41.563H99v8.25h-8.25z"/>
  <path fill="#9EA7BA" fill-opacity=".06" d="M0 49.813h8.25v8.25H0z"/>
  <path fill="#9EA7BA" fill-opacity=".06" d="M8.25 49.813h8.25v8.25H8.25z"/>
  <path fill="#9EA7BA" fill-opacity=".06" d="M16.5 49.813h8.25v8.25H16.5z"/>
  <path fill="#9EA7BA" fill-opacity=".06" d="M24.75 49.813H33v8.25h-8.25z"/>
  <path fill="#9EA7BA" fill-opacity=".06" d="M33 49.813h8.25v8.25H33z"/>
  <path fill="#9EA7BA" fill-opacity=".06" d="M41.25 49.813h8.25v8.25h-8.25z"/>
  <path fill="#9EA7BA" fill-opacity=".06" d="M49.5 49.813h8.25v8.25H49.5z"/>
  <path fill="#9EA7BA" fill-opacity=".06" d="M57.75 49.813H66v8.25h-8.25z"/>
  <path fill="#9EA7BA" fill-opacity=".06" d="M66 49.813h8.25v8.25H66z"/>
  <path fill="#9EA7BA" fill-opacity=".06" d="M74.25 49.813h8.25v8.25h-8.25z"/>
  <path fill="#9EA7BA" fill-opacity=".06" d="M82.5 49.813h8.25v8.25H82.5z"/>
  <path fill="#9EA7BA" fill-opacity=".06" d="M90.75 49.813H99v8.25h-8.25z"/>
  <path fill="#9EA7BA" fill-opacity=".06" d="M0 58.063h8.25v8.25H0z"/>
  <path fill="#9EA7BA" fill-opacity=".06" d="M8.25 58.063h8.25v8.25H8.25z"/>
  <path fill="#9EA7BA" fill-opacity=".06" d="M16.5 58.063h8.25v8.25H16.5z"/>
  <path fill="#9EA7BA" fill-opacity=".06" d="M24.75 58.063H33v8.25h-8.25z"/>
  <path fill="#9EA7BA" fill-opacity=".06" d="M33 58.063h8.25v8.25H33z"/>
  <path fill="#9EA7BA" fill-opacity=".06" d="M41.25 58.063h8.25v8.25h-8.25z"/>
  <path fill="#9EA7BA" fill-opacity=".06" d="M49.5 58.063h8.25v8.25H49.5z"/>
  <path fill="#9EA7BA" fill-opacity=".06" d="M57.75 58.063H66v8.25h-8.25z"/>
  <path fill="#9EA7BA" fill-opacity=".06" d="M66 58.063h8.25v8.25H66z"/>
  <path fill="#9EA7BA" fill-opacity=".06" d="M74.25 58.063h8.25v8.25h-8.25z"/>
  <path fill="#9EA7BA" fill-opacity=".06" d="M82.5 58.063h8.25v8.25H82.5z"/>
  <path fill="#9EA7BA" fill-opacity=".06" d="M90.75 58.063H99v8.25h-8.25z"/>
  <path fill="#9EA7BA" fill-opacity=".06" d="M4.125 66.313h8.25v8.25h-8.25z"/>
  <path fill="#9EA7BA" fill-opacity=".06" d="M12.375 66.313h8.25v8.25h-8.25z"/>
  <path fill="#9EA7BA" fill-opacity=".06" d="M20.625 66.313h8.25v8.25h-8.25z"/>
  <path fill="#9EA7BA" fill-opacity=".06" d="M28.875 66.313h8.25v8.25h-8.25z"/>
  <path fill="#9EA7BA" fill-opacity=".06" d="M37.125 66.313h8.25v8.25h-8.25z"/>
  <path fill="#9EA7BA" fill-opacity=".06" d="M45.375 66.313h8.25v8.25h-8.25z"/>
  <path fill="#9EA7BA" fill-opacity=".06" d="M53.625 66.313h8.25v8.25h-8.25z"/>
  <path fill="#9EA7BA" fill-opacity=".06" d="M61.875 66.313h8.25v8.25h-8.25z"/>
  <path fill="#9EA7BA" fill-opacity=".06" d="M70.125 66.313h8.25v8.25h-8.25z"/>
  <path fill="#9EA7BA" fill-opacity=".06" d="M78.375 66.313h8.25v8.25h-8.25z"/>
  <path fill="#9EA7BA" fill-opacity=".06" d="M86.625 66.313h8.25v8.25h-8.25z"/>
  <path fill="#9EA7BA" fill-opacity=".06" d="M8.25 74.563h8.25v8.25H8.25z"/>
  <path fill="#9EA7BA" fill-opacity=".06" d="M16.5 74.563h8.25v8.25H16.5z"/>
  <path fill="#9EA7BA" fill-opacity=".06" d="M24.75 74.563H33v8.25h-8.25z"/>
  <path fill="#9EA7BA" fill-opacity=".06" d="M33 74.563h8.25v8.25H33z"/>
  <path fill="#9EA7BA" fill-opacity=".06" d="M41.25 74.563h8.25v8.25h-8.25z"/>
  <path fill="#9EA7BA" fill-opacity=".06" d="M49.5 74.563h8.25v8.25H49.5z"/>
  <path fill="#9EA7BA" fill-opacity=".06" d="M57.75 74.563H66v8.25h-8.25z"/>
  <path fill="#9EA7BA" fill-opacity=".06" d="M66 74.563h8.25v8.25H66z"/>
  <path fill="#9EA7BA" fill-opacity=".06" d="M74.25 74.563h8.25v8.25h-8.25z"/>
  <path fill="#9EA7BA" fill-opacity=".06" d="M82.5 74.563h8.25v8.25H82.5z"/>
  <path fill="#9EA7BA" fill-opacity=".06" d="M16.5 82.813h8.25v8.25H16.5z"/>
  <path fill="#9EA7BA" fill-opacity=".06" d="M24.75 82.813H33v8.25h-8.25z"/>
  <path fill="#9EA7BA" fill-opacity=".06" d="M33 82.813h8.25v8.25H33z"/>
  <path fill="#9EA7BA" fill-opacity=".06" d="M41.25 82.813h8.25v8.25h-8.25z"/>
  <path fill="#9EA7BA" fill-opacity=".06" d="M49.5 82.813h8.25v8.25H49.5z"/>
  <path fill="#9EA7BA" fill-opacity=".06" d="M57.75 82.813H66v8.25h-8.25z"/>
  <path fill="#9EA7BA" fill-opacity=".06" d="M66 82.813h8.25v8.25H66z"/>
  <path fill="#9EA7BA" fill-opacity=".06" d="M74.25 82.813h8.25v8.25h-8.25z"/>
  <path fill="#9EA7BA" fill-opacity=".06" d="M33 91.063h8.25v8.25H33z"/>
  <path fill="#9EA7BA" fill-opacity=".06" d="M41.25 91.063h8.25v8.25h-8.25z"/>
  <path fill="#9EA7BA" fill-opacity=".06" d="M49.5 91.063h8.25v8.25H49.5z"/>
  <path fill="#9EA7BA" fill-opacity=".06" d="M57.75 91.063H66v8.25h-8.25z"/>
</svg>