<svg width="24" height="27" viewBox="0 0 24 27" fill="none" xmlns="http://www.w3.org/2000/svg">
<path d="M15.6249 4.1074L14.0926 4.87356L14.0938 4.87238C13.6343 5.10211 13.2613 5.47513 13.0315 5.93459L12.2654 7.46694C12.2145 7.5676 12.1126 7.63036 12.0001 7.63036C11.8876 7.63036 11.7858 7.5676 11.7349 7.46694L10.9687 5.93459C10.739 5.47513 10.366 5.10329 9.9065 4.87238L8.37533 4.1074C8.27468 4.05648 8.21191 3.95345 8.21191 3.84214C8.21191 3.72964 8.27468 3.62662 8.37533 3.57688L9.90768 2.81072H9.9065C10.366 2.58099 10.739 2.20796 10.9687 1.7485L11.7349 0.216152C11.7858 0.116682 11.8876 0.0527344 12.0001 0.0527344C12.1126 0.0527344 12.2145 0.116682 12.2654 0.216152L13.0315 1.74732V1.7485C13.2613 2.20796 13.6343 2.58099 14.0938 2.81072L15.6249 3.57688C15.7256 3.62662 15.7883 3.72964 15.7883 3.84214C15.7883 3.95346 15.7256 4.05648 15.6249 4.1074ZM15.1572 12.0521H15.1583C15.1583 11.717 15.0245 11.3961 14.7877 11.1593C14.5508 10.9224 14.2299 10.7886 13.8948 10.7886H10.1054C9.4079 10.7886 8.84185 11.3546 8.84185 12.0521V25.9463H15.1571L15.1572 12.0521Z" fill="currentColor"/>
<path opacity="0.67" d="M23.9994 17.1053V17.1052C23.9994 16.7701 23.8667 16.4481 23.6299 16.2113C23.3931 15.9745 23.0722 15.8418 22.737 15.8418H18.9476C18.2501 15.8418 17.6841 16.4078 17.6841 17.1053V25.9477H23.9994L23.9994 17.1053Z" fill="currentColor"/>
<path opacity="0.4" d="M-0.000488281 25.9463V22.1569H0.000665553C0.000665553 21.4594 0.56553 20.8945 1.26302 20.8945H5.05243C5.38754 20.8945 5.70964 21.0272 5.94649 21.264C6.18335 21.5008 6.31598 21.8218 6.31598 22.1569H6.31479V25.9463H-0.000488281Z" fill="currentColor"/>
</svg>
