<svg xmlns="http://www.w3.org/2000/svg" width="15" height="16" viewBox="0 0 15 16" fill="none">
<path d="M7.7734 2.06574L6.09435 0.789551L5.53301 1.5281L6.02428 1.9015C5.04474 2.09353 4.11925 2.5092 3.3217 3.11987C2.33803 3.87307 1.58991 4.89157 1.16534 6.05556C0.740781 7.21955 0.657445 8.4806 0.925139 9.69035C1.19283 10.9001 1.80042 12.0082 2.67642 12.8843C3.55242 13.7605 4.66039 14.3681 5.86997 14.6359C7.07955 14.9036 8.34043 14.8203 9.50426 14.3956C10.6681 13.971 11.6864 13.2228 12.4395 12.239C13.1926 11.2552 13.6491 10.0767 13.7553 8.84224C13.7609 8.77657 13.7535 8.71042 13.7335 8.64762C13.7135 8.58481 13.6812 8.52659 13.6386 8.47631C13.596 8.42602 13.5438 8.38466 13.4852 8.35461C13.4265 8.32456 13.3625 8.30642 13.2968 8.30122C13.1647 8.29033 13.0338 8.33232 12.9327 8.41796C12.8316 8.50359 12.7687 8.62587 12.7577 8.7579C12.6683 9.80275 12.2823 10.8003 11.6453 11.6332C11.0082 12.4661 10.1465 13.0997 9.16162 13.4595C8.17672 13.8192 7.10958 13.8901 6.08575 13.6639C5.06193 13.4376 4.12401 12.9236 3.38236 12.1823C2.64071 11.4411 2.12618 10.5033 1.89932 9.4795C1.67245 8.45567 1.74269 7.38834 2.10176 6.40308C2.46083 5.41782 3.0938 4.55563 3.9262 3.91795C4.5995 3.40215 5.38061 3.0506 6.20746 2.88738L5.8415 3.50433L6.63937 3.97759L7.7734 2.06574Z" fill="currentColor"/>
<g opacity="0.2">
<path d="M12.382 5.88556C12.2997 6.00885 12.2557 6.15379 12.2557 6.30206C12.2557 6.50089 12.3347 6.69158 12.4753 6.83217C12.6158 6.97276 12.8065 7.05175 13.0053 7.05175C13.1535 7.05175 13.2985 7.00778 13.4217 6.9254C13.545 6.84303 13.6411 6.72594 13.6978 6.58895C13.7545 6.45197 13.7694 6.30123 13.7405 6.15581C13.7115 6.01038 13.6402 5.8768 13.5353 5.77196C13.4305 5.66711 13.2969 5.59571 13.1515 5.56678C13.0061 5.53786 12.8554 5.5527 12.7184 5.60944C12.5815 5.66619 12.4644 5.76228 12.382 5.88556Z" fill="currentColor"/>
<path d="M11.9226 4.67635C11.7993 4.75873 11.6544 4.80269 11.5061 4.80269C11.3073 4.80269 11.1167 4.72371 10.9761 4.58312C10.8355 4.44252 10.7566 4.25184 10.7566 4.05301C10.7566 3.90474 10.8005 3.75979 10.8829 3.63651C10.9652 3.51322 11.0823 3.41713 11.2193 3.36039C11.3562 3.30365 11.507 3.2888 11.6524 3.31773C11.7978 3.34666 11.9313 3.41806 12.0362 3.5229C12.141 3.62775 12.2124 3.76133 12.2413 3.90675C12.2702 4.05218 12.2554 4.20291 12.1987 4.3399C12.1419 4.47689 12.0458 4.59397 11.9226 4.67635Z" fill="currentColor"/>
<path d="M9.67384 3.17698C9.55057 3.25936 9.40564 3.30332 9.25739 3.30332C9.05859 3.30332 8.86793 3.22434 8.72736 3.08375C8.58679 2.94315 8.50781 2.75247 8.50781 2.55364C8.50781 2.40537 8.55178 2.26042 8.63414 2.13714C8.7165 2.01385 8.83357 1.91776 8.97054 1.86102C9.10751 1.80428 9.25822 1.78943 9.40363 1.81836C9.54903 1.84729 9.68259 1.91869 9.78743 2.02353C9.89226 2.12838 9.96365 2.26196 9.99257 2.40738C10.0215 2.55281 10.0066 2.70354 9.94991 2.84053C9.89318 2.97752 9.7971 3.0946 9.67384 3.17698Z" fill="currentColor"/>
</g>
<path d="M4.5918 9.90391H5.1327V9.363H5.67361V8.8221H6.21452V8.28119H6.75542V7.74029H7.29633V7.19938H7.83724V6.65847H8.37814V6.11757H8.91905V5.57666H10.0009V6.65847H9.45995V7.19938H8.91905V7.74029H8.37814V8.28119H7.83724V8.8221H7.29633V9.363H6.75542V9.90391H6.21452V10.4448H5.67361V10.9857H4.5918V9.90391ZM4.5918 5.57666H6.75542V7.19938H6.21452V7.74029H4.5918V5.57666ZM7.83724 9.363H8.37814V8.8221H10.0009V10.9857H7.83724V9.363ZM5.67361 7.19938H6.21452V6.65847H5.67361V7.19938ZM8.37814 9.90391H8.91905V9.363H8.37814V9.90391Z" fill="currentColor"/>
<path d="M5.67361 7.19938H6.21452V6.65847H5.67361V7.19938Z" fill="currentColor"/>
<path d="M8.37814 9.90391H8.91905V9.363H8.37814V9.90391Z" fill="currentColor"/>
</svg>