<svg xmlns="http://www.w3.org/2000/svg" width="48" height="48" viewBox="0 0 133 133" fill="none">
  <circle cx="66.388" cy="66.388" r="66.388" fill="#000"/>
  <path stroke="#fff" stroke-width="4.353" d="M67.474 43.533c10.022 0 18.997 1.557 25.387 4 3.203 1.225 5.645 2.63 7.248 4.08 1.603 1.449 2.191 2.768 2.191 3.892s-.587 2.443-2.191 3.892c-1.603 1.45-4.045 2.854-7.248 4.079-6.39 2.443-15.365 4-25.387 4s-18.998-1.557-25.388-4c-3.203-1.225-5.645-2.63-7.248-4.078-1.603-1.45-2.19-2.769-2.19-3.893s.587-2.443 2.19-3.893 4.045-2.854 7.248-4.079c6.39-2.443 15.366-4 25.388-4Z"/>
  <path stroke="#fff" stroke-width="4.353" d="M67.474 56.593c10.022 0 18.997 1.556 25.387 4 3.203 1.224 5.645 2.63 7.248 4.079 1.603 1.45 2.191 2.768 2.191 3.892s-.587 2.444-2.191 3.893c-1.603 1.45-4.045 2.854-7.248 4.078-6.39 2.444-15.365 4.001-25.387 4.001s-18.998-1.558-25.388-4c-3.203-1.225-5.645-2.63-7.248-4.079-1.603-1.45-2.19-2.768-2.19-3.892s.587-2.444 2.19-3.893c1.603-1.45 4.045-2.855 7.248-4.08 6.39-2.443 15.366-4 25.388-4Z"/>
  <path stroke="#fff" stroke-width="4.353" d="M67.474 67.476c10.022 0 18.997 1.556 25.387 4 3.203 1.224 5.645 2.63 7.248 4.079s2.191 2.768 2.191 3.892-.587 2.444-2.191 3.893c-1.603 1.45-4.045 2.853-7.248 4.078-6.39 2.443-15.365 4-25.387 4s-18.998-1.557-25.388-4c-3.203-1.225-5.645-2.629-7.248-4.078s-2.19-2.769-2.19-3.893.587-2.443 2.19-3.892c1.603-1.45 4.045-2.855 7.248-4.08 6.39-2.443 15.366-4 25.388-4Z"/>
</svg>