<svg width="27" height="27" viewBox="0 0 27 27" fill="none" xmlns="http://www.w3.org/2000/svg">
<g clip-path="url(#clip0_7564_21510)">
<circle cx="13.0009" cy="13.2353" r="12.7353" fill="black" stroke="black"/>
<path d="M13.0006 18.7501C10.8157 18.7501 8.75922 18.4696 7.21093 17.9601C5.60987 17.4331 4.72852 16.7097 4.72852 15.9227C4.72852 15.1358 5.60987 14.4123 7.21093 13.8858C8.75964 13.3763 10.8157 13.0958 13.0006 13.0958C15.1855 13.0958 17.242 13.3763 18.7903 13.8858C20.3909 14.4123 21.2727 15.1358 21.2727 15.9227C21.2727 16.7097 20.3913 17.4331 18.7903 17.9597C17.2416 18.4691 15.1855 18.7501 13.0006 18.7501ZM13.0006 13.4021C10.8444 13.4021 8.81864 13.6779 7.29736 14.1786C5.84963 14.6548 5.01898 15.2907 5.01898 15.9232C5.01898 16.5556 5.84922 17.1915 7.29736 17.6677C8.81864 18.1684 10.844 18.4442 13.0006 18.4442C15.1572 18.4442 17.1826 18.1684 18.7038 17.6677C20.1516 17.1915 20.9822 16.5556 20.9822 15.9232C20.9822 15.2907 20.152 14.6548 18.7038 14.1786C17.1826 13.6779 15.1572 13.4021 13.0006 13.4021Z" fill="#E53E76"/>
<path d="M13.0006 16.0628C10.8157 16.0628 8.75922 15.7822 7.21093 15.2728C5.60987 14.7458 4.72852 14.0223 4.72852 13.2354C4.72852 12.4484 5.60987 11.725 7.21093 11.1984C8.75964 10.689 10.8157 10.4084 13.0006 10.4084C15.1855 10.4084 17.242 10.689 18.7903 11.1984C20.3909 11.725 21.2727 12.4484 21.2727 13.2354C21.2727 14.0223 20.3913 14.7458 18.7903 15.2723C17.2416 15.7818 15.1855 16.0628 13.0006 16.0628ZM13.0006 10.7144C10.8444 10.7144 8.81864 10.9901 7.29736 11.4908C5.84963 11.967 5.01939 12.6029 5.01939 13.2354C5.01939 13.8678 5.84963 14.5038 7.29778 14.98C8.81906 15.4807 10.8444 15.7564 13.001 15.7564C15.1577 15.7564 17.183 15.4807 18.7043 14.98C20.152 14.5038 20.9826 13.8678 20.9826 13.2354C20.9826 12.6029 20.1524 11.967 18.7043 11.4908C17.183 10.9901 15.1572 10.7144 13.0006 10.7144Z" fill="#E53E76"/>
<path d="M13.0006 13.375C10.8157 13.375 8.75922 13.0945 7.21093 12.585C5.60987 12.0585 4.72852 11.335 4.72852 10.5481C4.72852 9.76115 5.60987 9.03767 7.21093 8.51071C8.75922 8.00125 10.8157 7.7207 13.0006 7.7207C15.1855 7.7207 17.242 8.00125 18.7903 8.51071C20.3909 9.03723 21.2727 9.76071 21.2727 10.5477C21.2727 11.3346 20.3913 12.0581 18.7903 12.5846C17.2416 13.0941 15.1855 13.375 13.0006 13.375ZM13.0006 8.02708C10.8444 8.02708 8.81906 8.30281 7.29736 8.80351C5.84963 9.27971 5.01939 9.91565 5.01939 10.5481C5.01939 11.1805 5.84963 11.8165 7.29778 12.2927C8.81906 12.7934 10.8444 13.0691 13.001 13.0691C15.1577 13.0691 17.183 12.7934 18.7043 12.2927C20.152 11.8165 20.9826 11.1805 20.9826 10.5481C20.9826 9.91565 20.1524 9.27971 18.7043 8.80351C17.183 8.30281 15.1572 8.02708 13.0006 8.02708Z" fill="#E53E76"/>
<path d="M13.0006 18.7501C10.8157 18.7501 8.75922 18.4696 7.21093 17.9601C5.60987 17.4331 4.72852 16.7097 4.72852 15.9227C4.72852 15.1358 5.60987 14.4123 7.21093 13.8858C8.75964 13.3763 10.8157 13.0958 13.0006 13.0958C15.1855 13.0958 17.242 13.3763 18.7903 13.8858C20.3909 14.4123 21.2727 15.1358 21.2727 15.9227C21.2727 16.7097 20.3913 17.4331 18.7903 17.9597C17.2416 18.4691 15.1855 18.7501 13.0006 18.7501ZM13.0006 13.4021C10.8444 13.4021 8.81864 13.6779 7.29736 14.1786C5.84963 14.6548 5.01898 15.2907 5.01898 15.9232C5.01898 16.5556 5.84922 17.1915 7.29736 17.6677C8.81864 18.1684 10.844 18.4442 13.0006 18.4442C15.1572 18.4442 17.1826 18.1684 18.7038 17.6677C20.1516 17.1915 20.9822 16.5556 20.9822 15.9232C20.9822 15.2907 20.152 14.6548 18.7038 14.1786C17.1826 13.6779 15.1572 13.4021 13.0006 13.4021Z" stroke="#E53E76" stroke-width="0.6"/>
<path d="M13.0006 16.0628C10.8157 16.0628 8.75922 15.7822 7.21093 15.2728C5.60987 14.7458 4.72852 14.0223 4.72852 13.2354C4.72852 12.4484 5.60987 11.725 7.21093 11.1984C8.75964 10.689 10.8157 10.4084 13.0006 10.4084C15.1855 10.4084 17.242 10.689 18.7903 11.1984C20.3909 11.725 21.2727 12.4484 21.2727 13.2354C21.2727 14.0223 20.3913 14.7458 18.7903 15.2723C17.2416 15.7818 15.1855 16.0628 13.0006 16.0628ZM13.0006 10.7144C10.8444 10.7144 8.81864 10.9901 7.29736 11.4908C5.84963 11.967 5.01939 12.6029 5.01939 13.2354C5.01939 13.8678 5.84963 14.5038 7.29778 14.98C8.81906 15.4807 10.8444 15.7564 13.001 15.7564C15.1577 15.7564 17.183 15.4807 18.7043 14.98C20.152 14.5038 20.9826 13.8678 20.9826 13.2354C20.9826 12.6029 20.1524 11.967 18.7043 11.4908C17.183 10.9901 15.1572 10.7144 13.0006 10.7144Z" stroke="#E53E76" stroke-width="0.6"/>
<path d="M13.0006 13.375C10.8157 13.375 8.75922 13.0945 7.21093 12.585C5.60987 12.0585 4.72852 11.335 4.72852 10.5481C4.72852 9.76115 5.60987 9.03767 7.21093 8.51071C8.75922 8.00125 10.8157 7.7207 13.0006 7.7207C15.1855 7.7207 17.242 8.00125 18.7903 8.51071C20.3909 9.03723 21.2727 9.76071 21.2727 10.5477C21.2727 11.3346 20.3913 12.0581 18.7903 12.5846C17.2416 13.0941 15.1855 13.375 13.0006 13.375ZM13.0006 8.02708C10.8444 8.02708 8.81906 8.30281 7.29736 8.80351C5.84963 9.27971 5.01939 9.91565 5.01939 10.5481C5.01939 11.1805 5.84963 11.8165 7.29778 12.2927C8.81906 12.7934 10.8444 13.0691 13.001 13.0691C15.1577 13.0691 17.183 12.7934 18.7043 12.2927C20.152 11.8165 20.9826 11.1805 20.9826 10.5481C20.9826 9.91565 20.1524 9.27971 18.7043 8.80351C17.183 8.30281 15.1572 8.02708 13.0006 8.02708Z" stroke="#E53E76" stroke-width="0.6"/>
</g>
<defs>
<clipPath id="clip0_7564_21510">
<rect width="26.4706" height="26.4706" rx="13.2353" fill="white"/>
</clipPath>
</defs>
</svg>
