<svg xmlns="http://www.w3.org/2000/svg" width="24" height="24" fill="none" viewBox="0 0 24 24">
  <path fill="currentColor" d="M19.967 1H4.033A3.038 3.038 0 0 0 1 4.035v15.932A3.037 3.037 0 0 0 4.033 23h15.933a3.037 3.037 0 0 0 3.033-3.033L23 4.034A3.038 3.038 0 0 0 19.967 1ZM6.707 20.602a2.69 2.69 0 0 1-2.686-2.686 2.69 2.69 0 0 1 2.686-2.687 2.69 2.69 0 0 1 2.687 2.687A2.69 2.69 0 0 1 6.707 20.6zM17.293 8.775a2.69 2.69 0 0 1-2.687-2.686 2.69 2.69 0 0 1 2.687-2.686 2.69 2.69 0 0 1 2.686 2.686 2.689 2.689 0 0 1-2.686 2.686z"/>
</svg>