<svg width="94" height="65" viewBox="0 0 94 65" fill="none" xmlns="http://www.w3.org/2000/svg">
<path d="M12.932 10.9873C12.932 13.4873 9.18201 13.4873 9.18201 10.9873C9.18201 8.4873 12.932 8.4873 12.932 10.9873Z" fill="#878C9E"/>
<path d="M21.0569 10.9873C21.0569 13.4873 17.3069 13.4873 17.3069 10.9873C17.3069 8.4873 21.0569 8.4873 21.0569 10.9873Z" fill="#878C9E"/>
<path opacity="0.4" d="M29.1816 10.9873C29.1816 13.4873 25.4316 13.4873 25.4316 10.9873C25.4316 8.4873 29.1816 8.4873 29.1816 10.9873Z" fill="#878C9E"/>
<g opacity="0.4">
<mask id="path-4-inside-1_1580_97646" fill="white">
<path fill-rule="evenodd" clip-rule="evenodd" d="M0.410156 58V62.4958V64.4958H2.41016H7.63574V62.4958H2.41016V58H1.07886H0.410156ZM10.6357 64.4958H84.0789V62.4958H10.6357V64.4958ZM2.41016 55V10.5569H0.410156V55H2.41016ZM93.3044 62.4958V58H91.3044V62.4958H87.0789V64.4958H91.3044H93.3044V62.4958ZM93.3044 10.5569V55H91.3044V10.5569H93.3044ZM7.63574 1.99609H2.41016V7.55688H1.07886H0.410156V1.99609V-0.00390625H2.41016H7.63574V1V1.99609ZM10.6357 1.99609H84.0789V-0.00390625H10.6357V1.99609ZM91.3044 1.99609V7.55688H93.3044V1.99609V-0.00390625H91.3044H87.0789V1V1.99609H91.3044Z"/>
</mask>
<path d="M0.410156 58V57H-0.589844V58H0.410156ZM0.410156 64.4958H-0.589844V65.4958H0.410156V64.4958ZM7.63574 64.4958V65.4958H8.63574V64.4958H7.63574ZM7.63574 62.4958H8.63574V61.4958H7.63574V62.4958ZM2.41016 62.4958H1.41016V63.4958H2.41016V62.4958ZM2.41016 58H3.41016V57H2.41016V58ZM84.0789 64.4958V65.4958H85.0789V64.4958H84.0789ZM10.6357 64.4958H9.63574V65.4958H10.6357V64.4958ZM84.0789 62.4958H85.0789V61.4958H84.0789V62.4958ZM10.6357 62.4958V61.4958H9.63574V62.4958H10.6357ZM2.41016 10.5569H3.41016V9.55688H2.41016V10.5569ZM2.41016 55V56H3.41016V55H2.41016ZM0.410156 10.5569V9.55688H-0.589844V10.5569H0.410156ZM0.410156 55H-0.589844V56H0.410156V55ZM93.3044 58H94.3044V57H93.3044V58ZM91.3044 58V57H90.3044V58H91.3044ZM91.3044 62.4958V63.4958H92.3044V62.4958H91.3044ZM87.0789 62.4958V61.4958H86.0789V62.4958H87.0789ZM87.0789 64.4958H86.0789V65.4958H87.0789V64.4958ZM93.3044 64.4958V65.4958H94.3044V64.4958H93.3044ZM93.3044 55V56H94.3044V55H93.3044ZM93.3044 10.5569H94.3044V9.55688H93.3044V10.5569ZM91.3044 55H90.3044V56H91.3044V55ZM91.3044 10.5569V9.55688H90.3044V10.5569H91.3044ZM2.41016 1.99609V0.996094H1.41016V1.99609H2.41016ZM7.63574 1.99609V2.99609H8.63574V1.99609H7.63574ZM2.41016 7.55688V8.55688H3.41016V7.55688H2.41016ZM0.410156 7.55688H-0.589844V8.55688H0.410156V7.55688ZM0.410156 -0.00390625V-1.00391H-0.589844V-0.00390625H0.410156ZM7.63574 -0.00390625H8.63574V-1.00391H7.63574V-0.00390625ZM84.0789 1.99609V2.99609H85.0789V1.99609H84.0789ZM10.6357 1.99609H9.63574V2.99609H10.6357V1.99609ZM84.0789 -0.00390625H85.0789V-1.00391H84.0789V-0.00390625ZM10.6357 -0.00390625V-1.00391H9.63574V-0.00390625H10.6357ZM91.3044 7.55688H90.3044V8.55688H91.3044V7.55688ZM91.3044 1.99609H92.3044V0.996094H91.3044V1.99609ZM93.3044 7.55688V8.55688H94.3044V7.55688H93.3044ZM93.3044 -0.00390625H94.3044V-1.00391H93.3044V-0.00390625ZM87.0789 -0.00390625V-1.00391H86.0789V-0.00390625H87.0789ZM87.0789 1.99609H86.0789V2.99609H87.0789V1.99609ZM1.41016 62.4958V58H-0.589844V62.4958H1.41016ZM1.41016 64.4958V62.4958H-0.589844V64.4958H1.41016ZM2.41016 63.4958H0.410156V65.4958H2.41016V63.4958ZM7.63574 63.4958H2.41016V65.4958H7.63574V63.4958ZM8.63574 64.4958V62.4958H6.63574V64.4958H8.63574ZM2.41016 63.4958H7.63574V61.4958H2.41016V63.4958ZM1.41016 58V62.4958H3.41016V58H1.41016ZM2.41016 57H1.07886V59H2.41016V57ZM1.07886 57H0.410156V59H1.07886V57ZM84.0789 63.4958H10.6357V65.4958H84.0789V63.4958ZM83.0789 62.4958V64.4958H85.0789V62.4958H83.0789ZM10.6357 63.4958H84.0789V61.4958H10.6357V63.4958ZM9.63574 62.4958V64.4958H11.6357V62.4958H9.63574ZM1.41016 10.5569V55H3.41016V10.5569H1.41016ZM0.410156 11.5569H2.41016V9.55688H0.410156V11.5569ZM1.41016 55V10.5569H-0.589844V55H1.41016ZM0.410156 56H2.41016V54H0.410156V56ZM92.3044 58V62.4958H94.3044V58H92.3044ZM91.3044 59H93.3044V57H91.3044V59ZM92.3044 62.4958V58H90.3044V62.4958H92.3044ZM87.0789 63.4958H91.3044V61.4958H87.0789V63.4958ZM88.0789 64.4958V62.4958H86.0789V64.4958H88.0789ZM91.3044 63.4958H87.0789V65.4958H91.3044V63.4958ZM93.3044 63.4958H91.3044V65.4958H93.3044V63.4958ZM92.3044 62.4958V64.4958H94.3044V62.4958H92.3044ZM94.3044 55V10.5569H92.3044V55H94.3044ZM91.3044 56H93.3044V54H91.3044V56ZM90.3044 10.5569V55H92.3044V10.5569H90.3044ZM93.3044 9.55688H91.3044V11.5569H93.3044V9.55688ZM2.41016 2.99609H7.63574V0.996094H2.41016V2.99609ZM3.41016 7.55688V1.99609H1.41016V7.55688H3.41016ZM1.07886 8.55688H2.41016V6.55688H1.07886V8.55688ZM0.410156 8.55688H1.07886V6.55688H0.410156V8.55688ZM-0.589844 1.99609V7.55688H1.41016V1.99609H-0.589844ZM-0.589844 -0.00390625V1.99609H1.41016V-0.00390625H-0.589844ZM2.41016 -1.00391H0.410156V0.996094H2.41016V-1.00391ZM7.63574 -1.00391H2.41016V0.996094H7.63574V-1.00391ZM8.63574 1V-0.00390625H6.63574V1H8.63574ZM8.63574 1.99609V1H6.63574V1.99609H8.63574ZM84.0789 0.996094H10.6357V2.99609H84.0789V0.996094ZM83.0789 -0.00390625V1.99609H85.0789V-0.00390625H83.0789ZM10.6357 0.996094H84.0789V-1.00391H10.6357V0.996094ZM11.6357 1.99609V-0.00390625H9.63574V1.99609H11.6357ZM92.3044 7.55688V1.99609H90.3044V7.55688H92.3044ZM93.3044 6.55688H91.3044V8.55688H93.3044V6.55688ZM92.3044 1.99609V7.55688H94.3044V1.99609H92.3044ZM92.3044 -0.00390625V1.99609H94.3044V-0.00390625H92.3044ZM91.3044 0.996094H93.3044V-1.00391H91.3044V0.996094ZM87.0789 0.996094H91.3044V-1.00391H87.0789V0.996094ZM88.0789 1V-0.00390625H86.0789V1H88.0789ZM88.0789 1.99609V1H86.0789V1.99609H88.0789ZM91.3044 0.996094H87.0789V2.99609H91.3044V0.996094Z" fill="#878C9E" mask="url(#path-4-inside-1_1580_97646)"/>
</g>
<path fill-rule="evenodd" clip-rule="evenodd" d="M54.3586 47.5134V50.59H38.9742V47.5134H54.3586ZM57.4351 44.4353V47.5134H54.3586V44.4353H57.4351ZM38.9743 44.4353L38.9742 47.5134H35.8978V44.4353H38.9743ZM60.5135 41.3587V44.4353H57.4351L57.4354 41.3587H60.5135ZM35.8979 41.3587L35.8978 44.4353H32.8198V41.3587H35.8979ZM42.0511 38.2822V41.3587H38.9746V38.2822H42.0511ZM54.3591 38.2822V41.3587H51.2826V38.2822H54.3591ZM63.5903 25.9742V41.3586L60.5135 41.3587L60.5138 25.9742H63.5903ZM29.7435 25.9742H32.8201L32.8198 41.3587L29.7435 41.3586V25.9742ZM51.2827 35.2054L51.2826 38.2822L42.0515 38.2819V35.2054H51.2827ZM42.0515 29.0506V32.1271H38.975V29.0506H42.0515ZM54.3595 29.0506V32.1271H51.283V29.0506H54.3595ZM60.5143 22.8974V25.9739H57.4362V22.8974H60.5143ZM35.8987 22.8974V25.9739H32.8206V22.8974H35.8987ZM57.4363 19.8192L57.4362 22.8974H54.3598V19.8192H57.4363ZM38.9755 19.8192V22.8974H35.8987L35.899 19.8192H38.9755ZM54.3599 16.7427L54.3598 19.8192H38.9755V16.7427H54.3599Z" fill="#878C9E"/>
</svg>
