<svg xmlns="http://www.w3.org/2000/svg" width="41" height="40" viewBox="0 0 41 40" fill="none">
  <rect width="40" height="40" x=".5" fill="#FFBE77" rx="20"/>
  <g stroke-linecap="round" stroke-linejoin="round" stroke-width=".146" filter="url(#a)">
    <path fill="#E17726" stroke="#E17726" d="m30.42 9.276-8.532 6.278 1.594-3.717 6.937-2.561Z"/>
    <path fill="#E27625" stroke="#E27625" d="m10.791 9.202 8.407 6.401-1.488-3.788-6.919-2.613Z"/>
    <path fill="#E27625" stroke="#E27625" d="M27.308 23.891 25.03 27.35l4.838 1.35 1.402-4.717-3.963-.092Z"/>
    <path fill="#E27625" stroke="#E27625" d="m9.83 23.903 1.358 4.727 4.848-1.314-2.242-3.475-3.964.062Z"/>
    <path fill="#E27625" stroke="#E27625" d="m15.817 17.99-1.357 2.036 4.8.231-.144-5.167-3.3 2.9Z"/>
    <path fill="#E27625" stroke="#E27625" d="m25.334 18.026-3.328-2.984-.131 5.226 4.801-.196-1.341-2.046Z"/>
    <path fill="#E27625" stroke="#E27625" d="m16.049 27.316 2.902-1.4-2.488-1.955-.414 3.355Z"/>
    <path fill="#E27625" stroke="#E27625" d="m22.139 25.93 2.89 1.42-.388-3.358-2.502 1.937Z"/>
    <path fill="#D5BFB2" stroke="#D5BFB2" d="m25.029 27.35-2.891-1.421.223 1.888-.028.794 2.696-1.262Z"/>
    <path fill="#D5BFB2" stroke="#D5BFB2" d="m16.05 27.316 2.687 1.282-.014-.795.23-1.886-2.902 1.399Z"/>
    <path fill="#233447" stroke="#233447" d="m18.813 22.723-2.406-.717 1.702-.771.704 1.488Z"/>
    <path fill="#233447" stroke="#233447" d="m22.302 22.736.715-1.483 1.705.784-2.42.699Z"/>
    <path fill="#CC6228" stroke="#CC6228" d="m16.064 27.316.432-3.466-2.674.067 2.242 3.4Z"/>
    <path fill="#CC6228" stroke="#CC6228" d="m24.631 23.882.406 3.469 2.276-3.383-2.682-.086Z"/>
    <path fill="#CC6228" stroke="#CC6228" d="m26.672 20.071-4.801.196.435 2.468.715-1.482 1.705.783 1.946-1.965Z"/>
    <path fill="#CC6228" stroke="#CC6228" d="m16.407 22.006 1.703-.77.703 1.487.454-2.465-4.8-.232 1.94 1.98Z"/>
    <path fill="#E27525" stroke="#E27525" d="m14.467 20.026 2.001 3.936-.06-1.956-1.941-1.98Z"/>
    <path fill="#E27525" stroke="#E27525" d="m24.717 22.037-.083 1.955 2.03-3.92-1.947 1.965Z"/>
    <path fill="#E27525" stroke="#E27525" d="m19.263 20.257-.454 2.465.553 2.914.134-3.833-.233-1.546Z"/>
    <path fill="#E27525" stroke="#E27525" d="m21.868 20.267-.236 1.536.096 3.842.575-2.91-.435-2.468Z"/>
    <path fill="#F5841F" stroke="#F5841F" d="m22.306 22.736-.575 2.91.409.283 2.502-1.937.083-1.955-2.42.7Z"/>
    <path fill="#F5841F" stroke="#F5841F" d="m16.392 22.005.061 1.956 2.487 1.956.411-.28-.553-2.915-2.406-.717Z"/>
    <path fill="#C0AC9D" stroke="#C0AC9D" d="m22.338 28.611.028-.794-.212-.188-3.22-.012-.206.187.014.794-2.686-1.282.937.771 1.908 1.331 3.271.013 1.919-1.317.942-.765-2.695 1.262Z"/>
    <path fill="#161616" stroke="#161616" d="m22.14 25.93-.409-.284-2.366-.009-.41.28-.23 1.887.205-.187 3.221.012.212.188-.223-1.888Z"/>
    <path fill="#763E1A" stroke="#763E1A" d="m30.745 15.998.73-3.48-1.063-3.241-8.24 6.066 3.15 2.684 4.462 1.324.987-1.15-.426-.308.686-.622-.52-.411.685-.518-.451-.344Z"/>
    <path fill="#763E1A" stroke="#763E1A" d="m9.71 12.435.714 3.486-.463.34.681.523-.522.408.681.627-.428.305.978 1.157 4.472-1.29 3.17-2.661L10.8 9.202 9.71 12.435Z"/>
    <path fill="#F5841F" stroke="#F5841F" d="m29.782 19.35-4.462-1.324 1.342 2.047-2.03 3.92 2.665-.024 3.963.014-1.478-4.633Z"/>
    <path fill="#F5841F" stroke="#F5841F" d="m15.823 17.99-4.472 1.29-1.504 4.622 3.964.015 2.656.044-2.001-3.935 1.357-2.036Z"/>
    <path fill="#F5841F" stroke="#F5841F" d="m21.872 20.267.308-4.926 1.303-3.505-5.765-.021 1.277 3.514.272 4.928.105 1.554-.006 3.825 2.366.01.023-3.826.117-1.553Z"/>
  </g>
  <defs>
    <filter id="a" width="30.511" height="28.974" x="5.338" y="6.829" color-interpolation-filters="sRGB" filterUnits="userSpaceOnUse">
      <feFlood flood-opacity="0" result="BackgroundImageFix"/>
      <feColorMatrix in="SourceAlpha" result="hardAlpha" values="0 0 0 0 0 0 0 0 0 0 0 0 0 0 0 0 0 0 127 0"/>
      <feOffset dy="2"/>
      <feGaussianBlur stdDeviation="2.15"/>
      <feComposite in2="hardAlpha" operator="out"/>
      <feColorMatrix values="0 0 0 0 0.236382 0 0 0 0 0.0801824 0 0 0 0 0.0801824 0 0 0 0.45 0"/>
      <feBlend in2="BackgroundImageFix" result="effect1_dropShadow_34751_18487"/>
      <feBlend in="SourceGraphic" in2="effect1_dropShadow_34751_18487" result="shape"/>
    </filter>
  </defs>
</svg>