<svg xmlns="http://www.w3.org/2000/svg" viewBox="0 0 19 19" width="19" height="19" fill="none">
  <path fill="currentColor" fill-rule="evenodd" d="M7.123 2.748v.826H6.62c-.277 0-.65.01-.826.023l-.322.023v3.997H7.122l.01.791c.005.435.02.791.035.791h4.596l.009-.782.01-.782h.773l.773-.001.01-2.013.009-2.012H11.764V1.922h-4.64v.826Zm-2.812 8.754v1.072H3.114c-.926 0-1.2.01-1.21.044-.008.024-.02.886-.03 1.916l-.015 1.872h2.45l.01.695.01.694 4.2.01c2.311.007 4.603.001 5.095-.012l.892-.024-.019-.664-.018-.664.884-.006 1.253-.01.369-.003.009-1.924.009-1.923-1.24-.01-1.24-.008-.009-1.064-.009-1.063H4.311v1.072Z" clip-rule="evenodd"/>
</svg>