<svg xmlns="http://www.w3.org/2000/svg" width="24" height="24" viewBox="0 0 24 24" fill="none">
  <path fill="currentColor" d="m19.259 9.46-.34-.824c1.166-2.69 1.09-2.77.862-3L18.29 4.15l-.148-.128h-.172c-.092 0-.362 0-2.628 1.048l-.835-.344C13.43 2 13.321 2 13 2h-2.098c-.315 0-.438 0-1.436 2.736l-.83.344c-1.53-.66-2.429-1-2.671-1h-.2l-1.6 1.6c-.246.25-.332.332.902 2.98l-.34.822C2 10.558 2 10.662 2 11v2.096c0 .33 0 .446 2.738 1.448l.34.82c-1.166 2.69-1.088 2.77-.862 3l1.49 1.488.148.13h.174c.09 0 .358 0 2.626-1.05l.833.346C10.564 22 10.674 22 11 22h2.094c.322 0 .436 0 1.438-2.734l.835-.344c1.53.66 2.424 1 2.666 1h.2l1.616-1.614c.23-.236.31-.318-.916-2.956l.338-.822c2.73-1.088 2.73-1.202 2.73-1.53v-2.096c0-.33 0-.446-2.742-1.444zM12 15.498a3.5 3.5 0 1 1-.017-7 3.5 3.5 0 0 1 .017 7z"/>
</svg>