<svg width="251" height="147" viewBox="0 0 251 147" fill="none" xmlns="http://www.w3.org/2000/svg">
<path opacity="0.3" d="M5.70919 146.311C3.9225 146.623 2.21675 145.428 1.9519 143.634C-0.547232 126.702 0.457334 109.426 4.917 92.8779C9.66171 75.2725 18.2023 58.9189 29.9393 44.9652C41.6763 31.0114 56.3252 19.7957 72.8577 12.1054C89.3902 4.41505 107.406 0.436464 125.639 0.448925C143.873 0.461387 161.883 4.46459 178.405 12.1775C194.927 19.8904 209.56 31.1262 221.278 45.0959C232.996 59.0657 241.514 75.4309 246.235 93.0428C250.672 109.597 251.653 126.875 249.131 143.803C248.863 145.597 247.156 146.789 245.37 146.475L201.577 138.768C199.791 138.454 198.605 136.752 198.84 134.953C200.091 125.366 199.45 115.615 196.941 106.255C194.149 95.8372 189.11 86.1566 182.178 77.8929C175.247 69.6293 166.59 62.9829 156.817 58.4204C147.044 53.8579 136.39 51.4899 125.604 51.4825C114.818 51.4751 104.162 53.8286 94.382 58.3777C84.6024 62.9269 75.937 69.5614 68.9941 77.8156C62.0513 86.0697 56.9992 95.7435 54.1925 106.158C51.671 115.514 51.0167 125.264 52.2547 134.853C52.4869 136.652 51.299 138.353 49.5123 138.664L5.70919 146.311Z" fill="url(#paint0_radial_26550_233118)"/>
<defs>
<radialGradient id="paint0_radial_26550_233118" cx="0" cy="0" r="1" gradientUnits="userSpaceOnUse" gradientTransform="translate(122.835 121.131) rotate(28.4175) scale(127.609)">
<stop offset="0.622622" stop-color="#4E5D84" stop-opacity="0"/>
<stop offset="0.93621" stop-color="#535479"/>
</radialGradient>
</defs>
</svg>
