<svg width="24" height="25" viewBox="0 0 24 25" fill="none" xmlns="http://www.w3.org/2000/svg">
<path fill-rule="evenodd" clip-rule="evenodd" d="M3.04688 5.51375V6.0568H2.39063H1.73438V8.63492V11.213H2.39063H3.04688V11.7755V12.338H5.25H7.45313V11.7755V11.213H8.08594H8.71875V8.63492V6.0568H8.08594H7.45313V5.54591V5.03497L7.23047 5.01664C7.10798 5.00652 6.11663 4.99208 5.02734 4.98448L3.04688 4.9707V5.51375ZM4.17188 8.65836V9.8068H5.22656H6.28125V8.65836V7.50992H5.22656H4.17188V8.65836ZM15.7969 12.9005V13.463H15.1931H14.5893L14.5551 15.8185C14.5362 17.114 14.5284 18.2267 14.5378 18.2912L14.5547 18.4084L15.1758 18.4214L15.7969 18.4345V18.9957V19.5568H18.0454H20.2939L20.3071 19.006L20.3203 18.4552L20.9418 18.4422L21.5633 18.4291L21.5512 15.9578L21.5391 13.4865L20.918 13.4734L20.2969 13.4603V12.8992V12.338H18.0469H15.7969V12.9005ZM17.0031 14.8038C16.9875 14.8193 16.9729 15.3255 16.9704 15.9288L16.966 17.0255H18.0221H19.0781V15.9005V14.7755H18.0547C17.4918 14.7755 17.0186 14.7882 17.0031 14.8038Z" fill="currentColor"/>
<rect x="16.5381" y="3.41797" width="2.94425" height="20.6555" transform="rotate(36.6677 16.5381 3.41797)" fill="#85D1FF"/>
</svg>
