<svg width="16" height="15" viewBox="0 0 16 15" fill="none" xmlns="http://www.w3.org/2000/svg">
<g clip-path="url(#clip0_4385_56206)">
<path d="M1.70317 3.25225C1.70317 4.20156 2.27492 5.05752 3.15173 5.4209C4.02936 5.78428 5.03869 5.58342 5.70955 4.91166C6.38131 4.24073 6.58218 3.23141 6.21879 2.35383C5.85541 1.47703 4.99945 0.905273 4.05015 0.905273C2.75412 0.905273 1.70317 1.95623 1.70317 3.25225ZM5.11702 3.25225C5.11702 3.68398 4.85697 4.07239 4.45859 4.23824C4.0602 4.40326 3.60097 4.31158 3.29592 4.00654C2.99087 3.70149 2.89919 3.24227 3.06423 2.84387C3.23008 2.44547 3.61849 2.18545 4.05021 2.18545C4.33275 2.18545 4.60447 2.29796 4.8045 2.49798C5.00453 2.698 5.11702 2.96969 5.11702 3.25225Z" fill="currentColor"/>
<path d="M5.11702 3.25225C5.11702 3.68398 4.85697 4.07239 4.45859 4.23824C4.0602 4.40326 3.60097 4.31158 3.29592 4.00654C2.99087 3.70149 2.89919 3.24227 3.06423 2.84387C3.23008 2.44547 3.61849 2.18545 4.05021 2.18545C4.33275 2.18545 4.60447 2.29796 4.8045 2.49798C5.00453 2.698 5.11702 2.96969 5.11702 3.25225Z" fill="currentColor"/>
<g opacity="0.6">
<path d="M14.1045 10.8718C14.1045 9.92252 13.5328 9.06656 12.656 8.70318C11.7784 8.3398 10.769 8.54066 10.0982 9.21242C9.4264 9.88335 9.22554 10.8927 9.58892 11.7702C9.95231 12.6471 10.8083 13.2188 11.7576 13.2188C13.0536 13.2188 14.1045 12.1679 14.1045 10.8718ZM10.6907 10.8718C10.6907 10.4401 10.9507 10.0517 11.3491 9.88585C11.7475 9.72082 12.2067 9.8125 12.5118 10.1175C12.8168 10.4226 12.9085 10.8818 12.7435 11.2802C12.5776 11.6786 12.1892 11.9386 11.7575 11.9386C11.1683 11.9386 10.6907 11.4611 10.6907 10.8718Z" fill="currentColor"/>
<path d="M10.6907 10.8718C10.6907 10.4401 10.9507 10.0517 11.3491 9.88585C11.7475 9.72082 12.2067 9.8125 12.5118 10.1175C12.8168 10.4226 12.9085 10.8818 12.7435 11.2802C12.5776 11.6786 12.1892 11.9386 11.7575 11.9386C11.1683 11.9386 10.6907 11.4611 10.6907 10.8718Z" fill="currentColor"/>
</g>
<path d="M3.76974 7.20703V9.69672C3.76974 10.925 4.7655 11.9208 5.99383 11.9208H7.57905M3.76974 7.20703L6.23586 9.30538M3.76974 7.20703L1.375 9.24464" stroke="currentColor" stroke-width="1.48272"/>
<path d="M12.3318 6.59814V4.10846C12.3318 2.88013 11.3361 1.88437 10.1077 1.88437H8.52251M12.3318 6.59814L9.8657 4.4998M12.3318 6.59814L14.7266 4.56053" stroke="currentColor" stroke-width="1.48272"/>
</g>
<defs>
<clipPath id="clip0_4385_56206">
<rect width="14.5" height="14.5" fill="white" transform="translate(0.949219 0.0180664)"/>
</clipPath>
</defs>
</svg>
