<svg xmlns="http://www.w3.org/2000/svg" width="250" height="133" viewBox="0 0 250 133" fill="none">
  <path fill="#9EA7BA" fill-opacity=".06" d="M51 25.063h8.25v-8.25H51z"/>
  <path fill="#9EA7BA" fill-opacity=".06" d="M59.25 25.063h8.25v-8.25h-8.25z"/>
  <path fill="#9EA7BA" fill-opacity=".06" d="M67.5 25.063h8.25v-8.25H67.5z"/>
  <path fill="#9EA7BA" fill-opacity=".06" d="M75.75 25.063H84v-8.25h-8.25z"/>
  <path fill="#9EA7BA" fill-opacity=".06" d="M34.5 33.313h8.25v-8.25H34.5z"/>
  <path fill="#9EA7BA" fill-opacity=".06" d="M42.75 33.313H51v-8.25h-8.25z"/>
  <path fill="#9EA7BA" fill-opacity=".06" d="M51 33.313h8.25v-8.25H51z"/>
  <path fill="#9EA7BA" fill-opacity=".06" d="M59.25 33.313h8.25v-8.25h-8.25z"/>
  <path fill="#9EA7BA" fill-opacity=".06" d="M67.5 33.313h8.25v-8.25H67.5z"/>
  <path fill="#9EA7BA" fill-opacity=".06" d="M75.75 33.313H84v-8.25h-8.25z"/>
  <path fill="#9EA7BA" fill-opacity=".06" d="M84 33.313h8.25v-8.25H84z"/>
  <path fill="#9EA7BA" fill-opacity=".06" d="M92.25 33.313h8.25v-8.25h-8.25z"/>
  <path fill="#9EA7BA" fill-opacity=".06" d="M26.25 41.563h8.25v-8.25h-8.25z"/>
  <path fill="#9EA7BA" fill-opacity=".06" d="M34.5 41.563h8.25v-8.25H34.5z"/>
  <path fill="#9EA7BA" fill-opacity=".06" d="M42.75 41.563H51v-8.25h-8.25z"/>
  <path fill="#9EA7BA" fill-opacity=".06" d="M51 41.563h8.25v-8.25H51z"/>
  <path fill="#9EA7BA" fill-opacity=".06" d="M59.25 41.563h8.25v-8.25h-8.25z"/>
  <path fill="#9EA7BA" fill-opacity=".06" d="M67.5 41.563h8.25v-8.25H67.5z"/>
  <path fill="#9EA7BA" fill-opacity=".06" d="M75.75 41.563H84v-8.25h-8.25z"/>
  <path fill="#9EA7BA" fill-opacity=".06" d="M84 41.563h8.25v-8.25H84z"/>
  <path fill="#9EA7BA" fill-opacity=".06" d="M92.25 41.563h8.25v-8.25h-8.25z"/>
  <path fill="#9EA7BA" fill-opacity=".06" d="M100.5 41.563h8.25v-8.25h-8.25z"/>
  <path fill="#9EA7BA" fill-opacity=".06" d="M22.125 49.813h8.25v-8.25h-8.25z"/>
  <path fill="#9EA7BA" fill-opacity=".06" d="M30.375 49.813h8.25v-8.25h-8.25z"/>
  <path fill="#9EA7BA" fill-opacity=".06" d="M38.625 49.813h8.25v-8.25h-8.25z"/>
  <path fill="#9EA7BA" fill-opacity=".06" d="M46.875 49.813h8.25v-8.25h-8.25z"/>
  <path fill="#9EA7BA" fill-opacity=".06" d="M55.125 49.813h8.25v-8.25h-8.25z"/>
  <path fill="#9EA7BA" fill-opacity=".06" d="M63.375 49.813h8.25v-8.25h-8.25z"/>
  <path fill="#9EA7BA" fill-opacity=".06" d="M71.625 49.813h8.25v-8.25h-8.25z"/>
  <path fill="#9EA7BA" fill-opacity=".06" d="M79.875 49.813h8.25v-8.25h-8.25z"/>
  <path fill="#9EA7BA" fill-opacity=".06" d="M88.125 49.813h8.25v-8.25h-8.25z"/>
  <path fill="#9EA7BA" fill-opacity=".06" d="M96.375 49.813h8.25v-8.25h-8.25z"/>
  <path fill="#9EA7BA" fill-opacity=".06" d="M104.625 49.813h8.25v-8.25h-8.25z"/>
  <path fill="#9EA7BA" fill-opacity=".06" d="M18 58.063h8.25v-8.25H18z"/>
  <path fill="#9EA7BA" fill-opacity=".06" d="M26.25 58.063h8.25v-8.25h-8.25z"/>
  <path fill="#9EA7BA" fill-opacity=".06" d="M34.5 58.063h8.25v-8.25H34.5z"/>
  <path fill="#9EA7BA" fill-opacity=".06" d="M42.75 58.063H51v-8.25h-8.25z"/>
  <path fill="#9EA7BA" fill-opacity=".06" d="M51 58.063h8.25v-8.25H51z"/>
  <path fill="#9EA7BA" fill-opacity=".06" d="M59.25 58.063h8.25v-8.25h-8.25z"/>
  <path fill="#9EA7BA" fill-opacity=".06" d="M67.5 58.063h8.25v-8.25H67.5z"/>
  <path fill="#9EA7BA" fill-opacity=".06" d="M75.75 58.063H84v-8.25h-8.25z"/>
  <path fill="#9EA7BA" fill-opacity=".06" d="M84 58.063h8.25v-8.25H84z"/>
  <path fill="#9EA7BA" fill-opacity=".06" d="M92.25 58.063h8.25v-8.25h-8.25z"/>
  <path fill="#9EA7BA" fill-opacity=".06" d="M100.5 58.063h8.25v-8.25h-8.25z"/>
  <path fill="#9EA7BA" fill-opacity=".06" d="M108.75 58.063H117v-8.25h-8.25z"/>
  <path fill="#9EA7BA" fill-opacity=".06" d="M18 58.063h8.25v8.25H18z"/>
  <path fill="#9EA7BA" fill-opacity=".06" d="M26.25 58.063h8.25v8.25h-8.25z"/>
  <path fill="#9EA7BA" fill-opacity=".06" d="M34.5 58.063h8.25v8.25H34.5z"/>
  <path fill="#9EA7BA" fill-opacity=".06" d="M42.75 58.063H51v8.25h-8.25z"/>
  <path fill="#9EA7BA" fill-opacity=".06" d="M51 58.063h8.25v8.25H51z"/>
  <path fill="#9EA7BA" fill-opacity=".06" d="M59.25 58.063h8.25v8.25h-8.25z"/>
  <path fill="#9EA7BA" fill-opacity=".06" d="M67.5 58.063h8.25v8.25H67.5z"/>
  <path fill="#9EA7BA" fill-opacity=".06" d="M75.75 58.063H84v8.25h-8.25z"/>
  <path fill="#9EA7BA" fill-opacity=".06" d="M84 58.063h8.25v8.25H84z"/>
  <path fill="#9EA7BA" fill-opacity=".06" d="M92.25 58.063h8.25v8.25h-8.25z"/>
  <path fill="#9EA7BA" fill-opacity=".06" d="M100.5 58.063h8.25v8.25h-8.25z"/>
  <path fill="#9EA7BA" fill-opacity=".06" d="M108.75 58.063H117v8.25h-8.25z"/>
  <path fill="#9EA7BA" fill-opacity=".06" d="M18 66.313h8.25v8.25H18z"/>
  <path fill="#9EA7BA" fill-opacity=".06" d="M26.25 66.313h8.25v8.25h-8.25z"/>
  <path fill="#9EA7BA" fill-opacity=".06" d="M34.5 66.313h8.25v8.25H34.5z"/>
  <path fill="#9EA7BA" fill-opacity=".06" d="M42.75 66.313H51v8.25h-8.25z"/>
  <path fill="#9EA7BA" fill-opacity=".06" d="M51 66.313h8.25v8.25H51z"/>
  <path fill="#9EA7BA" fill-opacity=".06" d="M59.25 66.313h8.25v8.25h-8.25z"/>
  <path fill="#9EA7BA" fill-opacity=".06" d="M67.5 66.313h8.25v8.25H67.5z"/>
  <path fill="#9EA7BA" fill-opacity=".06" d="M75.75 66.313H84v8.25h-8.25z"/>
  <path fill="#9EA7BA" fill-opacity=".06" d="M84 66.313h8.25v8.25H84z"/>
  <path fill="#9EA7BA" fill-opacity=".06" d="M92.25 66.313h8.25v8.25h-8.25z"/>
  <path fill="#9EA7BA" fill-opacity=".06" d="M100.5 66.313h8.25v8.25h-8.25z"/>
  <path fill="#9EA7BA" fill-opacity=".06" d="M108.75 66.313H117v8.25h-8.25z"/>
  <path fill="#9EA7BA" fill-opacity=".06" d="M18 74.563h8.25v8.25H18z"/>
  <path fill="#9EA7BA" fill-opacity=".06" d="M26.25 74.563h8.25v8.25h-8.25z"/>
  <path fill="#9EA7BA" fill-opacity=".06" d="M34.5 74.563h8.25v8.25H34.5z"/>
  <path fill="#9EA7BA" fill-opacity=".06" d="M42.75 74.563H51v8.25h-8.25z"/>
  <path fill="#9EA7BA" fill-opacity=".06" d="M51 74.563h8.25v8.25H51z"/>
  <path fill="#9EA7BA" fill-opacity=".06" d="M59.25 74.563h8.25v8.25h-8.25z"/>
  <path fill="#9EA7BA" fill-opacity=".06" d="M67.5 74.563h8.25v8.25H67.5z"/>
  <path fill="#9EA7BA" fill-opacity=".06" d="M75.75 74.563H84v8.25h-8.25z"/>
  <path fill="#9EA7BA" fill-opacity=".06" d="M84 74.563h8.25v8.25H84z"/>
  <path fill="#9EA7BA" fill-opacity=".06" d="M92.25 74.563h8.25v8.25h-8.25z"/>
  <path fill="#9EA7BA" fill-opacity=".06" d="M100.5 74.563h8.25v8.25h-8.25z"/>
  <path fill="#9EA7BA" fill-opacity=".06" d="M108.75 74.563H117v8.25h-8.25z"/>
  <path fill="#9EA7BA" fill-opacity=".06" d="M22.125 82.813h8.25v8.25h-8.25z"/>
  <path fill="#9EA7BA" fill-opacity=".06" d="M30.375 82.813h8.25v8.25h-8.25z"/>
  <path fill="#9EA7BA" fill-opacity=".06" d="M38.625 82.813h8.25v8.25h-8.25z"/>
  <path fill="#9EA7BA" fill-opacity=".06" d="M46.875 82.813h8.25v8.25h-8.25z"/>
  <path fill="#9EA7BA" fill-opacity=".06" d="M55.125 82.813h8.25v8.25h-8.25z"/>
  <path fill="#9EA7BA" fill-opacity=".06" d="M63.375 82.813h8.25v8.25h-8.25z"/>
  <path fill="#9EA7BA" fill-opacity=".06" d="M71.625 82.813h8.25v8.25h-8.25z"/>
  <path fill="#9EA7BA" fill-opacity=".06" d="M79.875 82.813h8.25v8.25h-8.25z"/>
  <path fill="#9EA7BA" fill-opacity=".06" d="M88.125 82.813h8.25v8.25h-8.25z"/>
  <path fill="#9EA7BA" fill-opacity=".06" d="M96.375 82.813h8.25v8.25h-8.25z"/>
  <path fill="#9EA7BA" fill-opacity=".06" d="M104.625 82.813h8.25v8.25h-8.25z"/>
  <path fill="#9EA7BA" fill-opacity=".06" d="M26.25 91.063h8.25v8.25h-8.25z"/>
  <path fill="#9EA7BA" fill-opacity=".06" d="M34.5 91.063h8.25v8.25H34.5z"/>
  <path fill="#9EA7BA" fill-opacity=".06" d="M42.75 91.063H51v8.25h-8.25z"/>
  <path fill="#9EA7BA" fill-opacity=".06" d="M51 91.063h8.25v8.25H51z"/>
  <path fill="#9EA7BA" fill-opacity=".06" d="M59.25 91.063h8.25v8.25h-8.25z"/>
  <path fill="#9EA7BA" fill-opacity=".06" d="M67.5 91.063h8.25v8.25H67.5z"/>
  <path fill="#9EA7BA" fill-opacity=".06" d="M75.75 91.063H84v8.25h-8.25z"/>
  <path fill="#9EA7BA" fill-opacity=".06" d="M84 91.063h8.25v8.25H84z"/>
  <path fill="#9EA7BA" fill-opacity=".06" d="M92.25 91.063h8.25v8.25h-8.25z"/>
  <path fill="#9EA7BA" fill-opacity=".06" d="M100.5 91.063h8.25v8.25h-8.25z"/>
  <path fill="#9EA7BA" fill-opacity=".06" d="M34.5 99.313h8.25v8.25H34.5z"/>
  <path fill="#9EA7BA" fill-opacity=".06" d="M42.75 99.313H51v8.25h-8.25z"/>
  <path fill="#9EA7BA" fill-opacity=".06" d="M51 99.313h8.25v8.25H51z"/>
  <path fill="#9EA7BA" fill-opacity=".06" d="M59.25 99.313h8.25v8.25h-8.25z"/>
  <path fill="#9EA7BA" fill-opacity=".06" d="M67.5 99.313h8.25v8.25H67.5z"/>
  <path fill="#9EA7BA" fill-opacity=".06" d="M75.75 99.313H84v8.25h-8.25z"/>
  <path fill="#9EA7BA" fill-opacity=".06" d="M84 99.313h8.25v8.25H84z"/>
  <path fill="#9EA7BA" fill-opacity=".06" d="M92.25 99.313h8.25v8.25h-8.25z"/>
  <path fill="#9EA7BA" fill-opacity=".06" d="M51 107.562h8.25v8.25H51z"/>
  <path fill="#9EA7BA" fill-opacity=".06" d="M59.25 107.562h8.25v8.25h-8.25z"/>
  <path fill="#9EA7BA" fill-opacity=".06" d="M67.5 107.562h8.25v8.25H67.5z"/>
  <path fill="#9EA7BA" fill-opacity=".06" d="M75.75 107.562H84v8.25h-8.25z"/>
  <path fill="#9EA7BA" fill-opacity=".06" d="M117 58.063h8.25v-8.25H117z"/>
  <path fill="#9EA7BA" fill-opacity=".06" d="M125.25 58.063h8.727v-8.25h-8.727z"/>
  <path fill="#9EA7BA" fill-opacity=".06" d="M117 66.313h8.25v-8.25H117z"/>
  <path fill="#9EA7BA" fill-opacity=".06" d="M125.25 66.313h8.727v-8.25h-8.727z"/>
  <path fill="#9EA7BA" fill-opacity=".06" d="M117 74.563h8.25v-8.25H117z"/>
  <path fill="#9EA7BA" fill-opacity=".06" d="M125.25 74.563h8.727v-8.25h-8.727z"/>
  <path fill="#9EA7BA" fill-opacity=".06" d="M117 82.813h8.25v-8.25H117z"/>
  <path fill="#9EA7BA" fill-opacity=".06" d="M125.25 82.813h8.727v-8.25h-8.727z"/>
  <path fill="#9EA7BA" fill-opacity=".06" d="M167 25.063h8.25v-8.25H167z"/>
  <path fill="#9EA7BA" fill-opacity=".06" d="M175.25 25.063h8.25v-8.25h-8.25z"/>
  <path fill="#9EA7BA" fill-opacity=".06" d="M183.5 25.063h8.25v-8.25h-8.25z"/>
  <path fill="#9EA7BA" fill-opacity=".06" d="M191.75 25.063H200v-8.25h-8.25z"/>
  <path fill="#9EA7BA" fill-opacity=".06" d="M150.5 33.313h8.25v-8.25h-8.25z"/>
  <path fill="#9EA7BA" fill-opacity=".06" d="M158.75 33.313H167v-8.25h-8.25z"/>
  <path fill="#9EA7BA" fill-opacity=".06" d="M167 33.313h8.25v-8.25H167z"/>
  <path fill="#9EA7BA" fill-opacity=".06" d="M175.25 33.313h8.25v-8.25h-8.25z"/>
  <path fill="#9EA7BA" fill-opacity=".06" d="M183.5 33.313h8.25v-8.25h-8.25z"/>
  <path fill="#9EA7BA" fill-opacity=".06" d="M191.75 33.313H200v-8.25h-8.25z"/>
  <path fill="#9EA7BA" fill-opacity=".06" d="M200 33.313h8.25v-8.25H200z"/>
  <path fill="#9EA7BA" fill-opacity=".06" d="M208.25 33.313h8.25v-8.25h-8.25z"/>
  <path fill="#9EA7BA" fill-opacity=".06" d="M142.25 41.563h8.25v-8.25h-8.25z"/>
  <path fill="#9EA7BA" fill-opacity=".06" d="M150.5 41.563h8.25v-8.25h-8.25z"/>
  <path fill="#9EA7BA" fill-opacity=".06" d="M158.75 41.563H167v-8.25h-8.25z"/>
  <path fill="#9EA7BA" fill-opacity=".06" d="M167 41.563h8.25v-8.25H167z"/>
  <path fill="#9EA7BA" fill-opacity=".06" d="M175.25 41.563h8.25v-8.25h-8.25z"/>
  <path fill="#9EA7BA" fill-opacity=".06" d="M183.5 41.563h8.25v-8.25h-8.25z"/>
  <path fill="#9EA7BA" fill-opacity=".06" d="M191.75 41.563H200v-8.25h-8.25z"/>
  <path fill="#9EA7BA" fill-opacity=".06" d="M200 41.563h8.25v-8.25H200z"/>
  <path fill="#9EA7BA" fill-opacity=".06" d="M208.25 41.563h8.25v-8.25h-8.25z"/>
  <path fill="#9EA7BA" fill-opacity=".06" d="M216.5 41.563h8.25v-8.25h-8.25z"/>
  <path fill="#9EA7BA" fill-opacity=".06" d="M138.125 49.813h8.25v-8.25h-8.25z"/>
  <path fill="#9EA7BA" fill-opacity=".06" d="M146.375 49.813h8.25v-8.25h-8.25z"/>
  <path fill="#9EA7BA" fill-opacity=".06" d="M154.625 49.813h8.25v-8.25h-8.25z"/>
  <path fill="#9EA7BA" fill-opacity=".06" d="M162.875 49.813h8.25v-8.25h-8.25z"/>
  <path fill="#9EA7BA" fill-opacity=".06" d="M171.125 49.813h8.25v-8.25h-8.25z"/>
  <path fill="#9EA7BA" fill-opacity=".06" d="M179.375 49.813h8.25v-8.25h-8.25z"/>
  <path fill="#9EA7BA" fill-opacity=".06" d="M187.625 49.813h8.25v-8.25h-8.25z"/>
  <path fill="#9EA7BA" fill-opacity=".06" d="M195.875 49.813h8.25v-8.25h-8.25z"/>
  <path fill="#9EA7BA" fill-opacity=".06" d="M204.125 49.813h8.25v-8.25h-8.25z"/>
  <path fill="#9EA7BA" fill-opacity=".06" d="M212.375 49.813h8.25v-8.25h-8.25z"/>
  <path fill="#9EA7BA" fill-opacity=".06" d="M220.625 49.813h8.25v-8.25h-8.25z"/>
  <path fill="#9EA7BA" fill-opacity=".06" d="M134 58.063h8.25v-8.25H134z"/>
  <path fill="#9EA7BA" fill-opacity=".06" d="M142.25 58.063h8.25v-8.25h-8.25z"/>
  <path fill="#9EA7BA" fill-opacity=".06" d="M150.5 58.063h8.25v-8.25h-8.25z"/>
  <path fill="#9EA7BA" fill-opacity=".06" d="M158.75 58.063H167v-8.25h-8.25z"/>
  <path fill="#9EA7BA" fill-opacity=".06" d="M167 58.063h8.25v-8.25H167z"/>
  <path fill="#9EA7BA" fill-opacity=".06" d="M175.25 58.063h8.25v-8.25h-8.25z"/>
  <path fill="#9EA7BA" fill-opacity=".06" d="M183.5 58.063h8.25v-8.25h-8.25z"/>
  <path fill="#9EA7BA" fill-opacity=".06" d="M191.75 58.063H200v-8.25h-8.25z"/>
  <path fill="#9EA7BA" fill-opacity=".06" d="M200 58.063h8.25v-8.25H200z"/>
  <path fill="#9EA7BA" fill-opacity=".06" d="M208.25 58.063h8.25v-8.25h-8.25z"/>
  <path fill="#9EA7BA" fill-opacity=".06" d="M216.5 58.063h8.25v-8.25h-8.25z"/>
  <path fill="#9EA7BA" fill-opacity=".06" d="M224.75 58.063H233v-8.25h-8.25z"/>
  <path fill="#9EA7BA" fill-opacity=".06" d="M134 58.063h8.25v8.25H134z"/>
  <path fill="#9EA7BA" fill-opacity=".06" d="M142.25 58.063h8.25v8.25h-8.25z"/>
  <path fill="#9EA7BA" fill-opacity=".06" d="M150.5 58.063h8.25v8.25h-8.25z"/>
  <path fill="#9EA7BA" fill-opacity=".06" d="M158.75 58.063H167v8.25h-8.25z"/>
  <path fill="#9EA7BA" fill-opacity=".06" d="M167 58.063h8.25v8.25H167z"/>
  <path fill="#9EA7BA" fill-opacity=".06" d="M175.25 58.063h8.25v8.25h-8.25z"/>
  <path fill="#9EA7BA" fill-opacity=".06" d="M183.5 58.063h8.25v8.25h-8.25z"/>
  <path fill="#9EA7BA" fill-opacity=".06" d="M191.75 58.063H200v8.25h-8.25z"/>
  <path fill="#9EA7BA" fill-opacity=".06" d="M200 58.063h8.25v8.25H200z"/>
  <path fill="#9EA7BA" fill-opacity=".06" d="M208.25 58.063h8.25v8.25h-8.25z"/>
  <path fill="#9EA7BA" fill-opacity=".06" d="M216.5 58.063h8.25v8.25h-8.25z"/>
  <path fill="#9EA7BA" fill-opacity=".06" d="M224.75 58.063H233v8.25h-8.25z"/>
  <path fill="#9EA7BA" fill-opacity=".06" d="M134 66.313h8.25v8.25H134z"/>
  <path fill="#9EA7BA" fill-opacity=".06" d="M142.25 66.313h8.25v8.25h-8.25z"/>
  <path fill="#9EA7BA" fill-opacity=".06" d="M150.5 66.313h8.25v8.25h-8.25z"/>
  <path fill="#9EA7BA" fill-opacity=".06" d="M158.75 66.313H167v8.25h-8.25z"/>
  <path fill="#9EA7BA" fill-opacity=".06" d="M167 66.313h8.25v8.25H167z"/>
  <path fill="#9EA7BA" fill-opacity=".06" d="M175.25 66.313h8.25v8.25h-8.25z"/>
  <path fill="#9EA7BA" fill-opacity=".06" d="M183.5 66.313h8.25v8.25h-8.25z"/>
  <path fill="#9EA7BA" fill-opacity=".06" d="M191.75 66.313H200v8.25h-8.25z"/>
  <path fill="#9EA7BA" fill-opacity=".06" d="M200 66.313h8.25v8.25H200z"/>
  <path fill="#9EA7BA" fill-opacity=".06" d="M208.25 66.313h8.25v8.25h-8.25z"/>
  <path fill="#9EA7BA" fill-opacity=".06" d="M216.5 66.313h8.25v8.25h-8.25z"/>
  <path fill="#9EA7BA" fill-opacity=".06" d="M224.75 66.313H233v8.25h-8.25z"/>
  <path fill="#9EA7BA" fill-opacity=".06" d="M134 74.563h8.25v8.25H134z"/>
  <path fill="#9EA7BA" fill-opacity=".06" d="M142.25 74.563h8.25v8.25h-8.25z"/>
  <path fill="#9EA7BA" fill-opacity=".06" d="M150.5 74.563h8.25v8.25h-8.25z"/>
  <path fill="#9EA7BA" fill-opacity=".06" d="M158.75 74.563H167v8.25h-8.25z"/>
  <path fill="#9EA7BA" fill-opacity=".06" d="M167 74.563h8.25v8.25H167z"/>
  <path fill="#9EA7BA" fill-opacity=".06" d="M175.25 74.563h8.25v8.25h-8.25z"/>
  <path fill="#9EA7BA" fill-opacity=".06" d="M183.5 74.563h8.25v8.25h-8.25z"/>
  <path fill="#9EA7BA" fill-opacity=".06" d="M191.75 74.563H200v8.25h-8.25z"/>
  <path fill="#9EA7BA" fill-opacity=".06" d="M200 74.563h8.25v8.25H200z"/>
  <path fill="#9EA7BA" fill-opacity=".06" d="M208.25 74.563h8.25v8.25h-8.25z"/>
  <path fill="#9EA7BA" fill-opacity=".06" d="M216.5 74.563h8.25v8.25h-8.25z"/>
  <path fill="#9EA7BA" fill-opacity=".06" d="M224.75 74.563H233v8.25h-8.25z"/>
  <path fill="#9EA7BA" fill-opacity=".06" d="M138.125 82.813h8.25v8.25h-8.25z"/>
  <path fill="#9EA7BA" fill-opacity=".06" d="M146.375 82.813h8.25v8.25h-8.25z"/>
  <path fill="#9EA7BA" fill-opacity=".06" d="M154.625 82.813h8.25v8.25h-8.25z"/>
  <path fill="#9EA7BA" fill-opacity=".06" d="M162.875 82.813h8.25v8.25h-8.25z"/>
  <path fill="#9EA7BA" fill-opacity=".06" d="M171.125 82.813h8.25v8.25h-8.25z"/>
  <path fill="#9EA7BA" fill-opacity=".06" d="M179.375 82.813h8.25v8.25h-8.25z"/>
  <path fill="#9EA7BA" fill-opacity=".06" d="M187.625 82.813h8.25v8.25h-8.25z"/>
  <path fill="#9EA7BA" fill-opacity=".06" d="M195.875 82.813h8.25v8.25h-8.25z"/>
  <path fill="#9EA7BA" fill-opacity=".06" d="M204.125 82.813h8.25v8.25h-8.25z"/>
  <path fill="#9EA7BA" fill-opacity=".06" d="M212.375 82.813h8.25v8.25h-8.25z"/>
  <path fill="#9EA7BA" fill-opacity=".06" d="M220.625 82.813h8.25v8.25h-8.25z"/>
  <path fill="#9EA7BA" fill-opacity=".06" d="M142.25 91.063h8.25v8.25h-8.25z"/>
  <path fill="#9EA7BA" fill-opacity=".06" d="M150.5 91.063h8.25v8.25h-8.25z"/>
  <path fill="#9EA7BA" fill-opacity=".06" d="M158.75 91.063H167v8.25h-8.25z"/>
  <path fill="#9EA7BA" fill-opacity=".06" d="M167 91.063h8.25v8.25H167z"/>
  <path fill="#9EA7BA" fill-opacity=".06" d="M175.25 91.063h8.25v8.25h-8.25z"/>
  <path fill="#9EA7BA" fill-opacity=".06" d="M183.5 91.063h8.25v8.25h-8.25z"/>
  <path fill="#9EA7BA" fill-opacity=".06" d="M191.75 91.063H200v8.25h-8.25z"/>
  <path fill="#9EA7BA" fill-opacity=".06" d="M200 91.063h8.25v8.25H200z"/>
  <path fill="#9EA7BA" fill-opacity=".06" d="M208.25 91.063h8.25v8.25h-8.25z"/>
  <path fill="#9EA7BA" fill-opacity=".06" d="M216.5 91.063h8.25v8.25h-8.25z"/>
  <path fill="#9EA7BA" fill-opacity=".06" d="M150.5 99.313h8.25v8.25h-8.25z"/>
  <path fill="#9EA7BA" fill-opacity=".06" d="M158.75 99.313H167v8.25h-8.25z"/>
  <path fill="#9EA7BA" fill-opacity=".06" d="M167 99.313h8.25v8.25H167z"/>
  <path fill="#9EA7BA" fill-opacity=".06" d="M175.25 99.313h8.25v8.25h-8.25z"/>
  <path fill="#9EA7BA" fill-opacity=".06" d="M183.5 99.313h8.25v8.25h-8.25z"/>
  <path fill="#9EA7BA" fill-opacity=".06" d="M191.75 99.313H200v8.25h-8.25z"/>
  <path fill="#9EA7BA" fill-opacity=".06" d="M200 99.313h8.25v8.25H200z"/>
  <path fill="#9EA7BA" fill-opacity=".06" d="M208.25 99.313h8.25v8.25h-8.25z"/>
  <path fill="#9EA7BA" fill-opacity=".06" d="M167 107.562h8.25v8.25H167z"/>
  <path fill="#9EA7BA" fill-opacity=".06" d="M175.25 107.562h8.25v8.25h-8.25z"/>
  <path fill="#9EA7BA" fill-opacity=".06" d="M183.5 107.562h8.25v8.25h-8.25z"/>
  <path fill="#9EA7BA" fill-opacity=".06" d="M191.75 107.562H200v8.25h-8.25z"/>
  <path fill="#A6DDFF" d="M133.678 74.252v-2.799h2.799v2.799z"/>
  <path fill="#A6DDFF" d="M136.475 71.45v-2.799h2.799v2.8z"/>
  <path fill="#A6DDFF" d="M139.273 68.654v-2.799h2.799v2.8z"/>
  <path fill="#A6DDFF" d="M133.676 60.252h2.799v2.799h-2.799z"/>
  <path fill="#A6DDFF" d="M136.473 63.054h2.799v2.799h-2.799z"/>
  <path fill="#A6DDFF" d="M139.269 65.85h2.799v2.799h-2.799z"/>
  <path fill="#A6DDFF" d="M133.762 65.85h2.799v2.799h-2.799z"/>
  <path fill="#A6DDFF" d="M129.965 65.85h2.799v2.799h-2.799z"/>
  <path fill="#A6DDFF" d="M126.176 65.85h2.799v2.799h-2.799z"/>
  <path fill="#A6DDFF" d="M122.377 65.85h2.799v2.799h-2.799z"/>
  <path fill="#A6DDFF" d="M118.377 65.85h2.799v2.799h-2.799z"/>
  <path fill="#A6DDFF" d="M114.377 65.85h2.799v2.799h-2.799z"/>
  <path fill="#A6DDFF" d="M110.377 65.85h2.799v2.799h-2.799z"/>
  <path fill="#A6DDFF" d="M136.561 65.85h2.799v2.799h-2.799z"/>
  <path fill="#fff" d="M202.095 70.41c.481-.48 1.1-1.1 1.716-1.713a3.512 3.512 0 0 0 0-4.968l-1.454-1.453c-5.203 5.203-12.988 6.247-19.229 3.137 4.218.78 8.59.172 12.464-1.911 2.592-1.394 3.084-4.907 1.003-6.988l-8.579-8.58a4.906 4.906 0 0 0-6.941 0l-9.247 9.248c6.09-2.588 13.405-1.388 18.357 3.599-7.555-3.668-16.916-2.367-23.189 3.906l-1.716 1.716a3.513 3.513 0 0 0 0 4.965l1.452 1.452c5.203-5.204 12.988-6.247 19.229-3.138-4.218-.78-8.59-.172-12.464 1.912-2.593 1.393-3.084 4.907-1.003 6.988l8.579 8.579a4.906 4.906 0 0 0 6.941 0l9.247-9.247c-6.09 2.587-13.405 1.387-18.357-3.6 7.555 3.668 16.916 2.367 23.189-3.906l.002.002Z"/>
  <path fill="#999BA7" fill-rule="evenodd" d="m44.773 66.5 21.02-21.001L86.8 66.505 65.793 87.5l-21.02-21Zm33.433-6.303c-.874.975-2.778 3.43-2.778 6.303 0 2.872 1.904 5.328 2.778 6.303-5.61-.297-10.096-6.303-10.096-6.303s4.485-6.007 10.096-6.303Zm-24.81 0c5.61.296 10.096 6.303 10.096 6.303s-4.486 6.006-10.096 6.303c.873-.975 2.778-3.431 2.778-6.303s-1.905-5.328-2.778-6.303Zm-.889.037c-.887.998-2.745 3.429-2.745 6.266 0 2.848 1.872 5.287 2.755 6.278l4.545 4.544.021-.02c1.82-1.778 4.844-4.115 8.291-4.293-.868.967-2.782 3.426-2.782 6.304 0 2.877 1.914 5.337 2.782 6.304l.42.438.418-.438c.868-.968 2.782-3.427 2.782-6.304 0-2.878-1.914-5.337-2.782-6.304 3.461.179 6.495 2.533 8.312 4.314l4.652-4.653.01-.012c.92-1.056 2.654-3.418 2.654-6.158 0-2.752-1.747-5.12-2.664-6.17l-4.63-4.631-.021.02c-1.818 1.78-4.852 4.135-8.313 4.314.868-.968 2.782-3.426 2.782-6.304s-1.914-5.337-2.782-6.304l-.419-.48-.419.48c-.868.967-2.782 3.426-2.782 6.304s1.914 5.337 2.782 6.304c-3.474-.18-6.519-2.552-8.334-4.334l-4.533 4.535Z" clip-rule="evenodd"/>
  <path fill="#E53E76" d="M221.96 40.03c-8.735.526-9.399 1.113-9.911 9.942 0 .037-.092.037-.095 0-.512-8.829-1.179-9.414-9.911-9.943-.057-.003-.057-.057 0-.06 8.732-.527 9.396-1.114 9.908-9.94 0-.038.092-.038.095 0 .512 8.828 1.179 9.413 9.911 9.942.057.003.057.057 0 .06l.003-.002Z"/>
  <path fill="#E53E76" d="M168.96 99.03c-8.735.526-9.399 1.113-9.911 9.942 0 .037-.092.037-.095 0-.512-8.829-1.179-9.414-9.911-9.943-.057-.003-.057-.056 0-.06 8.732-.527 9.396-1.114 9.908-9.94 0-.038.092-.038.095 0 .512 8.828 1.179 9.413 9.911 9.942.057.003.057.056 0 .06l.003-.002Z"/>
</svg>