<svg xmlns="http://www.w3.org/2000/svg" width="24" height="24" viewBox="0 0 24 24">
  <path fill="currentColor" d="M8 .582c-.027.027-.047.332-.047.68v.629l-1.539.03-.02.81-.015.808H4.992l-.02.625-.015.625-.684.02-.683.015v.957c0 .528-.02 1.102-.04 1.282l-.034.316h-1.5l.015.777.016.781 1.539.032-.023.992a67.333 67.333 0 0 0-.028 1.43l-.004.441H2.02V8.969H.562v2.863H2.02v1.527h1.578l-.016 2.848-.012 2.852.707.02.711.015v1.398h1.336l.012-1.539c.008-.848.012-2.105.016-2.789l.003-1.254 1.485-.031v-2.984h2.851v-.872c0-.476.02-1.148.04-1.492l.035-.625-.227-.008c-.809-.023-2.46-.027-2.57-.007-.13.027-.13.03-.145 1.468l-.015 1.442-.711.02-.715.015V7.44h2.14c1.176 0 3.715-.015 5.645-.039l3.508-.043v4.473h-1.512V8.969h-2.91v2.863h2.851v2.93h1.512v5.793H6.383v1.46h1.453v1.403h8.324v-1.461h1.512l.015-.687.02-.684.711-.02.715-.015v-1.524h1.394v-5.609h1.516v-1.523h-1.516V8.906h1.457V7.383h-1.457v-2.5l-1.484-.031-.016-.688-.015-.684h-1.395v-.625c0-.347-.023-.66-.047-.703-.027-.047-.254-.078-.652-.09l-.61-.015-.015-.684c-.02-.668-.016-.68.117-.707.07-.015-.59-.031-1.469-.035-.882-.004-2.793-.027-4.25-.047C9.234.551 8.023.554 8 .582Zm14.14 9.16c-.023.43-.038 1.074-.038 1.434v.656h1.335V8.969h-1.261l-.04.773ZM9.235 14.09v.73h2.086v-1.46H9.234Zm3.176 0v.734l1.527-.015.743-.02.03-1.43h-2.3Zm-4.535 3.515c-.02.024-.04.352-.04.73v.696l4.15-.015 4.148-.02v-1.402l-4.11-.016c-2.257-.008-4.125.004-4.148.027Zm0 0"/>
</svg>