<svg width="20" height="14" viewBox="0 0 20 14" fill="currentColor" xmlns="http://www.w3.org/2000/svg">
<path d="M0.689596 13.835C1.87299 13.835 5.02203 13.4088 8.25499 9.37482C11.7501 5.0135 13.9401 4.49328 14.6096 4.44579L14.2084 5.29071L16.1941 5.28946L19.303 2.87125L16.2493 0.501953L14.2072 0.503207L14.6898 1.50608C13.7483 1.43714 10.7922 1.61891 7.48157 5.88505C3.42481 11.1151 0.272078 10.9007 0.241912 10.8969L0.0664062 10.8818V13.7852L0.201797 13.8065C0.234389 13.8103 0.404878 13.8353 0.689436 13.8353L0.689596 13.835Z" fill="currentColor"/>
<path d="M0.689596 13.835C1.87299 13.835 5.02203 13.4088 8.25499 9.37482C11.7501 5.0135 13.9401 4.49328 14.6096 4.44579L14.2084 5.29071L16.1941 5.28946L19.303 2.87125L16.2493 0.501953L14.2072 0.503207L14.6898 1.50608C13.7483 1.43714 10.7922 1.61891 7.48157 5.88505C3.42481 11.1151 0.272078 10.9007 0.241912 10.8969L0.0664062 10.8818V13.7852L0.201797 13.8065C0.234389 13.8103 0.404878 13.8353 0.689436 13.8353L0.689596 13.835Z" fill="currentColor"/>
<path d="M16.3081 9.04476L14.3224 9.04351L14.7261 9.89218C14.286 9.86711 13.1791 9.63644 11.4418 8.18604L11.339 8.30889L9.58266 10.1617L9.5814 10.1604L9.4761 10.2745L9.47234 10.2795L9.36328 10.3974C11.6674 12.5297 13.6091 12.8356 14.5343 12.8356C14.6396 12.8356 14.7261 12.8306 14.8038 12.8256L14.3199 13.831L16.362 13.8322L19.4158 11.4629L16.3081 9.04476Z" fill="currentColor"/>
<path d="M16.3081 9.04476L14.3224 9.04351L14.7261 9.89218C14.286 9.86711 13.1791 9.63644 11.4418 8.18604L11.339 8.30889L9.58266 10.1617L9.5814 10.1604L9.4761 10.2745L9.47234 10.2795L9.36328 10.3974C11.6674 12.5297 13.6091 12.8356 14.5343 12.8356C14.6396 12.8356 14.7261 12.8306 14.8038 12.8256L14.3199 13.831L16.362 13.8322L19.4158 11.4629L16.3081 9.04476Z" fill="currentColor"/>
<path d="M5.48869 6.10147L5.60152 5.98238L7.41925 4.10826L7.53709 3.99794C3.82756 0.0278268 0.456924 0.506642 0.315077 0.529106L0.179688 0.550417V3.45501L0.355192 3.43871C0.376504 3.43621 2.4863 3.27073 5.48865 6.10136L5.48869 6.10147Z" fill="currentColor"/>
<path d="M5.48869 6.10147L5.60152 5.98238L7.41925 4.10826L7.53709 3.99794C3.82756 0.0278268 0.456924 0.506642 0.315077 0.529106L0.179688 0.550417V3.45501L0.355192 3.43871C0.376504 3.43621 2.4863 3.27073 5.48865 6.10136L5.48869 6.10147Z" fill="currentColor"/>
</svg>
