<svg width="32" height="32" viewBox="0 0 42 42" fill="none" xmlns="http://www.w3.org/2000/svg">
  <g clip-path="url(#clip0_13809_157619)">
    <path fill-rule="evenodd" clip-rule="evenodd" d="M21.0056 20.7151C23.896 20.7151 26.2402 17.8683 26.2402 14.3573C26.2402 10.8463 25.4703 7.99951 21.0056 7.99951C16.5408 7.99951 15.771 10.8463 15.771 14.3573C15.771 17.8683 18.1151 20.7151 21.0056 20.7151ZM21.7605 13.3698C22.3253 12.9497 22.5474 12.5692 22.5474 12.2338C22.5474 11.8435 22.4146 11.5574 22.1589 11.3482C21.8983 11.1349 21.5166 11.0137 20.985 11.0137C20.4663 11.0137 20.1067 11.1461 19.8694 11.377C19.6324 11.6145 19.5041 11.9294 19.4975 12.3428C19.4971 12.4199 19.4773 12.5181 19.3997 12.5957C19.3214 12.6739 19.2222 12.6934 19.1448 12.6934H18.4708C18.3941 12.6934 18.2948 12.6761 18.2144 12.6019C18.1305 12.5245 18.1074 12.423 18.1074 12.3408C18.1074 11.6167 18.3444 10.9938 18.8208 10.4862C19.3192 9.9556 20.0516 9.70929 20.9743 9.70929C21.8909 9.70929 22.6316 9.92353 23.1639 10.384C23.6976 10.8394 23.9695 11.4219 23.9695 12.1161C23.9695 12.4854 23.904 12.8267 23.769 13.1365L23.7681 13.1385C23.6372 13.4312 23.4711 13.6758 23.2659 13.8646C23.0857 14.0303 22.8879 14.2066 22.6725 14.3932L22.6709 14.3947L22.6692 14.396C22.4565 14.5733 22.2619 14.7396 22.0853 14.895C21.934 15.0281 21.8013 15.2085 21.6906 15.4429L21.6896 15.4451C21.585 15.6604 21.5302 15.908 21.5302 16.1923C21.5302 16.2745 21.5071 16.376 21.4233 16.4534C21.3429 16.5277 21.2435 16.545 21.1669 16.545H20.4287C20.352 16.545 20.2527 16.5277 20.1722 16.4534C20.0884 16.376 20.0653 16.2745 20.0653 16.1923C20.0653 15.7141 20.1565 15.28 20.3449 14.8954C20.5265 14.5247 20.7499 14.2177 21.0185 13.9807C21.2647 13.7635 21.5112 13.5604 21.7582 13.3716L21.7605 13.3698ZM20.006 18.955C19.795 18.7441 19.6895 18.4801 19.6895 18.1778C19.6895 17.8756 19.795 17.6116 20.006 17.4007C20.2251 17.1816 20.4933 17.0675 20.7999 17.0675C21.1136 17.0675 21.3849 17.179 21.5964 17.4032C21.8056 17.6137 21.9103 17.8768 21.9103 18.1778C21.9103 18.4788 21.8056 18.7419 21.5964 18.9525C21.3849 19.1767 21.1136 19.2882 20.7999 19.2882C20.4933 19.2882 20.2251 19.1741 20.006 18.955Z" fill="#5B5B63" />
    <path d="M11.1209 30.423C11.1199 30.2084 11.1199 30.3627 11.1209 30.423V30.423Z" fill="#5B5B63" />
    <path d="M30.8955 30.5901C30.8986 30.5312 30.8965 30.1839 30.8955 30.5901V30.5901Z" fill="#5B5B63" />
    <path d="M30.8818 30.1663C30.7853 24.0493 29.9861 22.3065 23.873 21.2034C23.873 21.2034 23.0128 22.3003 21.007 22.3003C19.0013 22.3003 18.1411 21.2034 18.1411 21.2034C12.095 22.2941 11.2469 24.0116 11.1354 29.9682C11.1262 30.4547 11.1221 30.4801 11.1201 30.4232C11.1201 30.5289 11.1211 30.7249 11.1211 31.0661C11.1211 31.0661 12.5765 34.0002 21.0071 34.0002C29.4377 34.0002 30.8931 31.0661 30.8931 31.0661V30.5908C30.8921 30.6243 30.888 30.5573 30.8819 30.1663L30.8818 30.1663Z" fill="#5B5B63" />
  </g>
  <defs>
    <clipPath id="clip0_13809_157619">
      <rect width="26" height="26" fill="white" transform="translate(8 8)" />
    </clipPath>
  </defs>
</svg>
  