<svg width="15" height="10" viewBox="0 0 15 10" fill="none" xmlns="http://www.w3.org/2000/svg">
<path d="M14.5528 6.7711V0.401181C14.5528 0.401181 14.5528 0.303682 14.4684 0.227437C14.3872 0.153686 14.3109 0.153687 14.3109 0.153687H12.9747C12.9747 0.153687 12.8728 0.153686 12.8009 0.221186C12.7084 0.308061 12.7091 0.413682 12.7091 0.413682V5.1668H3.86283L5.32533 3.7043C5.41846 3.61118 5.41846 3.45931 5.32533 3.36618L4.36034 2.40118C4.26721 2.30806 4.11535 2.30806 4.02221 2.40118L0.515332 5.90742C0.465957 5.9568 0.443456 6.02367 0.446581 6.08867C0.443456 6.15367 0.465332 6.22055 0.515332 6.26992L4.02157 9.77616C4.1147 9.86928 4.26656 9.86928 4.3597 9.77616L5.32469 8.81117C5.41781 8.71804 5.41781 8.56618 5.32469 8.47304L3.86219 7.01054H14.3134C14.4453 7.01054 14.5528 6.90235 14.5528 6.7711Z" fill="currentColor"/>
</svg>
