<svg width="26" height="26" viewBox="0 0 26 26" fill="none" xmlns="http://www.w3.org/2000/svg">
  <path d="M11.9597 19.5001C10.2108 19.5052 8.53496 18.7994 7.31634 17.5451L6.20117 18.6369C7.70226 20.1725 9.75589 21.0449 11.903 21.0611C14.051 21.0774 16.1168 20.2354 17.6412 18.7222C19.1656 17.2089 20.0228 15.1492 20.0228 13.0011C20.0228 10.8531 19.1656 8.79432 17.6412 7.28112C16.1167 5.76784 14.0508 4.92589 11.903 4.94112C9.75594 4.95737 7.70241 5.8298 6.20117 7.36541L7.31634 8.45721V8.45822C8.464 7.28619 10.0128 6.59251 11.6521 6.51532C13.2903 6.43712 14.8979 6.98251 16.1514 8.04079C17.4047 9.09907 18.2121 10.592 18.4101 12.22H10.7219L13.0619 9.88003L11.96 8.77807L8.28853 12.4485C7.98485 12.7532 7.98485 13.2468 8.28853 13.5515L11.96 17.2219L13.0619 16.1199L10.7219 13.7799H18.4101C18.2202 15.3572 17.4585 16.8094 16.2702 17.8637C15.0819 18.917 13.5483 19.4989 11.9599 19.4999L11.9597 19.5001Z" fill="currentcolor" />
  <path d="M11.9597 19.5001C10.2108 19.5052 8.53496 18.7994 7.31634 17.5451L6.20117 18.6369C7.70226 20.1725 9.75589 21.0449 11.903 21.0611C14.051 21.0774 16.1168 20.2354 17.6412 18.7222C19.1656 17.2089 20.0228 15.1492 20.0228 13.0011C20.0228 10.8531 19.1656 8.79432 17.6412 7.28112C16.1167 5.76784 14.0508 4.92589 11.903 4.94112C9.75594 4.95737 7.70241 5.8298 6.20117 7.36541L7.31634 8.45721V8.45822C8.464 7.28619 10.0128 6.59251 11.6521 6.51532C13.2903 6.43712 14.8979 6.98251 16.1514 8.04079C17.4047 9.09907 18.2121 10.592 18.4101 12.22H10.7219L13.0619 9.88003L11.96 8.77807L8.28853 12.4485C7.98485 12.7532 7.98485 13.2468 8.28853 13.5515L11.96 17.2219L13.0619 16.1199L10.7219 13.7799H18.4101C18.2202 15.3572 17.4585 16.8094 16.2702 17.8637C15.0819 18.917 13.5483 19.4989 11.9599 19.4999L11.9597 19.5001Z" fill="currentcolor" />
</svg>
  