<svg width="12" height="12" viewBox="0 0 12 12" fill="none" xmlns="http://www.w3.org/2000/svg">
    <path d="M11.4311 10.5913C11.4845 10.6733 11.5148 10.7681 11.5188 10.8659C11.5228 10.9636 11.5003 11.0606 11.4537 11.1467C11.4071 11.2327 11.3381 11.3045 11.2541 11.3546C11.1701 11.4047 11.074 11.4311 10.9762 11.4311H0.960029C0.8622 11.4311 0.76619 11.4047 0.682144 11.3546C0.598097 11.3045 0.529135 11.2327 0.482542 11.1467C0.43595 11.0606 0.413458 10.9636 0.417443 10.8659C0.421428 10.7681 0.451741 10.6733 0.50518 10.5913C1.26967 9.41458 2.39416 8.51656 3.71085 8.03128C2.98295 7.54669 2.43033 6.84071 2.13469 6.01776C1.83906 5.1948 1.81611 4.29855 2.06924 3.46154C2.32238 2.62453 2.83815 1.8912 3.54029 1.37C4.24244 0.848792 5.09367 0.567383 5.96812 0.567383C6.84257 0.567383 7.6938 0.848792 8.39595 1.37C9.09809 1.8912 9.61386 2.62453 9.867 3.46154C10.1201 4.29855 10.0972 5.1948 9.80155 6.01776C9.50592 6.84071 8.95329 7.54669 8.22539 8.03128C9.54209 8.51656 10.6666 9.41458 11.4311 10.5913Z" fill="currentColor"/>
</svg>
