<svg width="18" height="23" viewBox="0 0 18 23" fill="none" xmlns="http://www.w3.org/2000/svg">
<path d="M16.8489 4.00247V0.310547H15.9226V1.2321H15.0039V2.15648H14.0776V3.07804H13.1588V4.00242H12.2326V4.92397H11.3138V5.84836H9.46885V6.76991H7.61633V7.6943H6.69759V8.61585H5.77133V9.5421H3.92633V10.4608H3.00759V12.3115H2.08133V13.233H1.16258V16.0033H0.236328V22.4617H6.69761V21.543H8.54261V20.6167H11.3139V19.6952H12.2326V18.7708H14.0776V17.8493H15.0039V16.0033H15.9226V14.1574H16.8489V11.3871H17.7676V4.00225L16.8489 4.00247ZM13.1579 10.4609V11.3871H12.2316V13.2331H11.3129V14.1575H9.46789V15.079H8.54163V16.0034H6.69663V16.9249H5.77037V17.8493H4.85163V18.7709H3.92537V19.6953H3.00663V20.6168H2.08037V18.7709H3.00663V17.8493H3.92537V16.9249H4.85163V16.0034H5.77037V15.079H7.61537V14.1575H8.54163V13.2331H10.3866V12.3115H11.3129V10.4609H12.2316V9.54215H13.1579V10.4609Z" fill="currentColor"/>
</svg>
