<svg width="19" height="20" viewBox="0 0 19 20" fill="none" xmlns="http://www.w3.org/2000/svg">
<path d="M8.98837 16.5948C8.50661 17.0766 8.50661 17.8577 8.98837 18.3394C9.47013 18.8212 10.2512 18.8212 10.733 18.3394L17.6791 11.3933C18.6426 10.4298 18.6426 8.86763 17.6791 7.90411L10.733 0.958004C10.2512 0.476245 9.47013 0.476244 8.98837 0.958003C8.50661 1.43976 8.50661 2.22085 8.98837 2.70261L13.2243 6.93853C14.7211 8.43533 14.7211 10.8621 13.2243 12.3589L8.98837 16.5948Z" fill="currentColor"/>
<path d="M9.41021 17.0165C9.16148 17.2652 9.16152 17.6686 9.41021 17.9174C9.65896 18.1661 10.0624 18.1661 10.3111 17.9174L17.2571 10.9715C17.9876 10.2409 17.9876 9.05631 17.2571 8.3258L10.3111 1.37987C10.0624 1.13112 9.65896 1.13112 9.41021 1.37987C9.16152 1.62863 9.16148 2.03207 9.41021 2.2808L13.6462 6.51681C15.3758 8.24657 15.3758 11.0507 13.6462 12.7804L9.41021 17.0165ZM12.8024 11.9367C14.066 10.6729 14.066 8.62435 12.8024 7.3606L8.56642 3.12459C7.85167 2.40985 7.85171 1.25085 8.56642 0.536075C9.28118 -0.178692 10.4402 -0.178692 11.1549 0.536075L18.1009 7.48201C19.2974 8.67853 19.2974 10.6187 18.1009 11.8152L11.1549 18.7612C10.4402 19.4759 9.28118 19.4759 8.56642 18.7612C7.85171 18.0464 7.85167 16.8874 8.56642 16.1727L12.8024 11.9367Z" fill="currentColor"/>
<path d="M4.50671 14.2715C4.1861 14.5921 4.1861 15.112 4.50671 15.4326C4.82731 15.7532 5.34713 15.7532 5.66773 15.4326L10.2903 10.8099C10.9316 10.1687 10.9316 9.12911 10.2903 8.48789L5.66774 3.86527C5.34713 3.54466 4.82732 3.54466 4.50671 3.86527C4.1861 4.18588 4.1861 4.70569 4.50671 5.0263L6.41913 6.93873C7.91593 8.43552 7.91593 10.8623 6.41914 12.3591L4.50671 14.2715Z" fill="currentColor"/>
<path d="M4.92901 14.6935C4.84145 14.781 4.841 14.9228 4.92846 15.0104C5.01606 15.098 5.15838 15.098 5.24598 15.0104L9.86818 10.3882C10.2763 9.98011 10.2767 9.31817 9.86873 8.90994L5.24598 4.28719C5.15838 4.19959 5.01606 4.19959 4.92846 4.28719C4.84099 4.37481 4.8409 4.51716 4.92846 4.60472L6.84073 6.51699C8.57053 8.24679 8.57108 11.0514 6.84128 12.7812L4.92901 14.6935ZM5.99749 11.9374C7.26127 10.6736 7.26072 8.62457 5.99694 7.36078L4.08466 5.44851C3.53109 4.89494 3.53117 3.99703 4.08466 3.4434C4.63828 2.88978 5.53616 2.88978 6.08978 3.4434L10.7125 8.06614C11.5865 8.94039 11.5861 10.3579 10.712 11.232L6.08978 15.8542C5.53616 16.4078 4.63828 16.4078 4.08466 15.8542C3.53119 15.3006 3.53164 14.4032 4.08521 13.8497L5.99749 11.9374Z" fill="currentColor"/>
<path d="M0.746898 12.5213C0.546515 12.7217 0.546515 13.0465 0.746898 13.2469C0.947281 13.4473 1.27217 13.4473 1.47255 13.2469L4.36172 10.3578C4.76248 9.957 4.76248 9.30723 4.36172 8.90646L1.47255 6.0173C1.27217 5.81691 0.947281 5.81691 0.746898 6.0173C0.546515 6.21768 0.546515 6.54256 0.746899 6.74295L0.925881 6.92193C2.42267 8.41872 2.42267 10.8455 0.92588 12.3423L0.746898 12.5213Z" fill="currentColor"/>
<path d="M0.503795 11.9204C1.76751 10.6567 1.7679 8.60763 0.504345 7.34382L0.325258 7.16474C-0.108093 6.73139 -0.108562 6.02866 0.324708 5.59526C0.7581 5.16187 1.46135 5.16187 1.89474 5.59526L4.78375 8.48427C5.41748 9.118 5.41739 10.1456 4.78375 10.7794L1.89419 13.669C1.46086 14.102 0.758583 14.102 0.325258 13.669C-0.108047 13.2357 -0.108425 12.5329 0.324708 12.0995L0.503795 11.9204ZM3.93995 9.93564C4.10758 9.76787 4.10767 9.49578 3.93995 9.32806L2.07987 7.46798C2.83117 8.80786 2.83199 10.4539 2.08152 11.7941L3.93995 9.93564Z" fill="currentColor"/>
</svg>
