<svg xmlns="http://www.w3.org/2000/svg" width="230" height="230" viewBox="0 0 230 230">
  <g transform="translate(115, 115) scale(0.85) translate(-115, -91)">
    <path fill="currentColor" fill-rule="evenodd" d="M186.99 16.25c-5.75 3.913-7.503 7.186-7.381 13.777.131 7.061-1.371 8.193-5.861 4.414-3.726-3.135-15.117-8.947-19.319-9.856-2.083-.451-5.733.175-11.344 1.948-4.55 1.437-8.112 2.773-7.917 2.968.195.196 5.869.79 12.608 1.321 12.905 1.018 15.776 2.038 18.822 6.688 4.4 6.714-1.813 14.472-22.901 28.595-8.358 5.598-15.569 10.509-16.024 10.913-1.252 1.114 4.842 12.431 8.855 16.444 1.946 1.946 4.348 3.538 5.338 3.538 2.365 0 27.255-16.972 33.558-22.883l4.923-4.617-3.423 4.5-3.424 4.5 4.401-3.454c7.832-6.146 12.34-15.651 10.153-21.404-.812-2.135-.66-2.783.84-3.585 1.426-.764 2.34-.437 4.142 1.482 2.804 2.984 4.979 3.108 8.103.462 2.114-1.79 2.195-2.131.774-3.25-1.654-1.305-3.916-5.027-3.909-6.435.002-.449.902.657 1.999 2.457 1.949 3.197 2.055 3.235 4.497 1.635 1.375-.901 2.5-2.338 2.5-3.194s.757-2.392 1.681-3.414c1.58-1.746 1.565-1.942-.25-3.248-4.966-3.574-5.507-4.5-1.253-2.143 2.573 1.425 4.915 2.591 5.205 2.591 1.028 0 1.799-6.893 1.118-9.996-.814-3.707-5.628-9.501-9.6-11.555-4.406-2.279-12.983-1.872-16.911.801M105 33.024c-12.948 1.58-14.981 1.612-18.992.302-3.047-.995-6.284-1.258-10.065-.819-7.238.84-9.939 2.415-4.443 2.59l4 .127-5.181 1.138c-6.229 1.368-6.743 1.811-5.92 5.091.591 2.353 1.075 2.549 6.37 2.579 4.955.027 5.496.21 3.997 1.349-.954.724-1.45 1.602-1.102 1.95.725.725 3.446.247 11.571-2.031 4.871-1.365 6.979-1.433 14-.452 4.546.635 9.728 1.154 11.515 1.153S114 46.45 114 47s-1.597 1-3.55 1C103.481 48 99 52.3 99 58.987c0 3.121-.072 3.223-25.69 36.251C64.889 106.095 58 115.193 58 115.458s1.609-.61 3.575-1.944 6.129-3.339 9.25-4.454c7.823-2.795 8.794-3.365 38.43-22.545 28.381-18.368 47.633-32.216 51.996-37.402 4.959-5.893 4.563-10.607-1.14-13.555-2.75-1.423-30.047-4.678-37.111-4.427-1.925.069-10.025.921-18 1.893m94.574 1.75c-1.728 1.65-1.755 1.623-.61-.61.659-1.284 1.472-2.061 1.807-1.726.336.335-.203 1.386-1.197 2.336m-85.817 50.593c-13.691 8.302-19.094 11.977-25.388 17.27-3.432 2.886-8.006 5.355-13.809 7.455-4.773 1.727-10.789 4.659-13.369 6.517-8.14 5.86-14.603 9.372-17.263 9.382-1.414.005-4.685-.711-7.268-1.591s-5.383-1.336-6.223-1.014c-1.857.712-4.437 6.595-4.437 10.117 0 1.412-1.8 5.965-4 10.117-4.941 9.326-5.513 16.509-1.671 20.976 3.466 4.03 6.291 2.773 11.427-5.085 4.318-6.604 6.244-8.034 6.244-4.633 0 1.032.713 2.469 1.584 3.192 2.255 1.871 4.276.302 8.149-6.326C51.15 145.896 56.132 141 58.666 141c.833 0 2.261-.831 3.174-1.847 1.965-2.187 28.774-11.755 34.954-12.474 9.138-1.065 28.903-12.441 39.89-22.961l4.185-4.006-3.185-2.118c-2.009-1.337-4.717-5.054-7.34-10.075-2.286-4.376-4.571-8.095-5.078-8.264s-5.686 2.581-11.509 6.112m47.726 1.944c-4.959 3.404-10.161 7.314-11.56 8.689s-4.511 3.963-6.915 5.75c-3.277 2.436-3.888 3.267-2.44 3.318 1.733.06 1.701.179-.318 1.152-1.238.597-2.25 1.637-2.25 2.311s1.012 1.898 2.25 2.721c2.04 1.357 2.64 1.298 6.432-.628 2.641-1.342 5.012-3.597 6.437-6.124 1.241-2.2 2.803-4.45 3.472-5 3.862-3.178 16.136-18.544 14.727-18.439-.45.034-4.876 2.847-9.835 6.25"/>
  </g>
</svg>