<svg xmlns="http://www.w3.org/2000/svg" width="20" height="20" viewBox="0 0 20 20" fill="none">
  <g clip-path="url(#a)">
    <path fill="currentColor" fill-rule="evenodd" d="M17.094 2.743c-.567.386-.74.71-.728 1.36.013.696-.135.808-.578.435-.368-.31-1.492-.883-1.906-.973-.206-.044-.566.018-1.12.193-.449.141-.8.273-.78.293.019.019.578.077 1.243.13 1.274.1 1.557.2 1.857.66.434.662-.179 1.428-2.26 2.821a69 69 0 0 0-1.58 1.077c-.124.11.477 1.226.873 1.622.192.192.43.35.527.35.234 0 2.69-1.675 3.311-2.258l.486-.456-.338.444-.338.444.435-.34c.772-.607 1.217-1.545 1.001-2.113-.08-.21-.065-.274.083-.353.141-.076.231-.043.409.146.277.294.491.307.8.046.208-.177.216-.21.076-.321-.163-.129-.387-.496-.386-.635 0-.044.09.065.197.242.193.316.203.32.444.162.136-.09.247-.231.247-.315 0-.085.075-.236.166-.337.156-.173.154-.192-.025-.32-.49-.353-.543-.445-.124-.212.254.14.485.255.514.255.101 0 .177-.68.11-.986-.08-.366-.555-.937-.947-1.14-.435-.225-1.281-.185-1.669.079m-8.09 1.655c-1.277.156-1.478.16-1.873.03-.301-.098-.62-.124-.993-.08-.715.082-.981.237-.439.255l.395.012-.511.112c-.615.135-.666.18-.584.503.058.232.106.251.628.254.489.003.542.021.394.133-.094.072-.143.158-.108.193.071.071.34.024 1.141-.2.481-.135.689-.142 1.382-.045.448.062.96.114 1.136.114s.32.044.32.098-.157.099-.35.099c-.687 0-1.13.424-1.13 1.084 0 .308-.007.318-2.534 3.577-.831 1.07-1.51 1.969-1.51 1.995s.158-.06.352-.192.605-.33.913-.44c.771-.275.867-.332 3.791-2.224 2.8-1.812 4.7-3.179 5.13-3.69.49-.582.451-1.047-.112-1.338-.271-.14-2.964-.461-3.661-.437-.19.007-.99.091-1.776.187m9.332.173c-.17.163-.173.16-.06-.06.065-.127.145-.204.178-.17.033.032-.02.136-.118.23M9.87 9.563c-1.351.819-1.884 1.181-2.505 1.704-.339.285-.79.528-1.363.735-.47.17-1.064.46-1.319.643-.803.579-1.44.925-1.703.926-.14 0-.463-.07-.717-.157-.255-.087-.532-.132-.614-.1-.184.07-.438.65-.438.998 0 .14-.178.589-.395.999-.487.92-.544 1.628-.165 2.07.342.397.62.273 1.128-.503.426-.651.616-.792.616-.457 0 .102.07.244.156.315.223.185.422.03.804-.624.337-.577.829-1.06 1.079-1.06.082 0 .223-.082.313-.182.194-.216 2.84-1.16 3.449-1.231.902-.105 2.852-1.228 3.936-2.266l.413-.395-.315-.209c-.198-.132-.465-.498-.724-.994-.225-.432-.45-.799-.5-.815-.05-.017-.562.254-1.136.603m4.709.192c-.49.335-1.003.721-1.14.857a8 8 0 0 1-.683.567c-.324.24-.384.323-.241.328.171.005.168.017-.031.113-.123.06-.222.162-.222.228 0 .067.1.188.222.269.2.134.26.128.634-.062.26-.133.495-.355.635-.604.123-.218.277-.44.343-.494.381-.313 1.592-1.83 1.453-1.82-.044.004-.481.282-.97.618" clip-rule="evenodd"/>
  </g>
  <defs>
    <clipPath id="a">
      <path fill="currentColor" d="M0 0h20v20H0z"/>
    </clipPath>
  </defs>
</svg>