<svg width="19" height="18" viewBox="0 0 19 18" fill="none" xmlns="http://www.w3.org/2000/svg">
<path d="M8.2641 15.75C8.38964 15.9783 8.57419 16.1688 8.79847 16.3014C9.02275 16.434 9.27853 16.504 9.5391 16.504C9.79966 16.504 10.0554 16.434 10.2797 16.3014C10.504 16.1688 10.6886 15.9783 10.8141 15.75M5.03906 6C5.03906 4.80653 5.51317 3.66193 6.35708 2.81802C7.201 1.97411 8.34559 1.5 9.53906 1.5C10.7325 1.5 11.8771 1.97411 12.721 2.81802C13.565 3.66193 14.0391 4.80653 14.0391 6C14.0391 11.25 16.2891 12.75 16.2891 12.75H2.78906C2.78906 12.75 5.03906 11.25 5.03906 6Z" stroke="currentColor" stroke-linecap="round" stroke-linejoin="round"/>
</svg>
