<svg xmlns="http://www.w3.org/2000/svg" width="14" height="14" viewBox="0 0 14 14" fill="none">
    <path fill-rule="evenodd" clip-rule="evenodd"
        d="M7 12.5002C10.0376 12.5002 12.5 10.0378 12.5 7.00024C12.5 3.96268 10.0376 1.50024 7 1.50024C3.96243 1.50024 1.5 3.96268 1.5 7.00024C1.5 10.0378 3.96243 12.5002 7 12.5002ZM6.5263 4.87945C6.8259 5.1176 7.30219 5.1176 7.60179 4.87945C7.90139 4.63362 7.90139 4.23415 7.60179 3.98833C7.30219 3.7425 6.8259 3.7425 6.5263 3.98833C6.22669 4.23415 6.22669 4.63362 6.5263 4.87945ZM8.00126 9.69613C8.00126 9.65772 7.95517 9.61163 7.86298 9.57322C7.73239 9.51944 7.70166 9.39653 7.70166 9.08925V5.47866C7.70166 5.37879 7.65557 5.35574 7.5557 5.40183C7.19464 5.57852 6.80285 5.70912 6.37265 5.79362C6.28047 5.82435 6.23438 5.87044 6.23438 5.92422C6.23438 5.97799 6.28047 6.0164 6.37265 6.05481C6.50325 6.11627 6.53398 6.23918 6.53398 6.53879V9.08925C6.53398 9.39653 6.50325 9.51944 6.37265 9.57322C6.28047 9.61163 6.23438 9.65772 6.23438 9.69613C6.23438 9.75759 6.28047 9.78832 6.38034 9.78064C6.64153 9.76527 6.88735 9.75759 7.11782 9.75759C7.33292 9.75759 7.57874 9.76527 7.8553 9.78064C7.95517 9.78832 8.00126 9.75759 8.00126 9.69613Z"
        fill="currentColor" />
</svg>