<svg xmlns="http://www.w3.org/2000/svg" viewBox="0 0 65 65" width="24" height="24" fill="none">
  <path fill="#ff674c" d="M32.257 3.412c1.668 0 3.304.14 4.898.401-1.143 1.17-2.452 2.978-3.825 5.716-.773 1.033-.322.645 0 .323l5.744-5.66a29.96 29.96 0 0 1 15.472 9.152c-1.512 1.214-2.3 3.23-4.008 4.937-.244.24-.537.575.243 0 2.007-1.453 3.662-2.705 4.833-3.681a29.84 29.84 0 0 1 6.607 17.853L58.6 36.075c-.244.24-.536.575.244 0 1.37-.422 2.475-.845 3.358-1.262-.565 12.132-8.34 22.377-19.137 26.552 1.656-.92 2.918-2.24 3.353-3.534q.134-.406.16-.789c1.018-.993 2.278-2.367 2.107-2.958l-.064-.226-.188.142c-.743.556-1.55 1.12-2.248 1.578a2.3 2.3 0 0 0-.257-.31c-1.25-1.248-4.036-1.249-6.628 0-1.909.922-3.394 2.382-3.873 3.81-.244.728-.22 1.417.075 1.995.108.205.246.397.415.566.713.713 1.925 1.018 3.314.918a30 30 0 0 1-8.6.773c1.69-2.064 2.68-4.342 2.36-5.981-.522-2.68-.002-3.42.718-4.446.537-.763 1.209-1.714 1.56-3.725.692-3.93-3.43-8.41-4.707-9.688a14 14 0 0 0-.445-.428 11 11 0 0 0-.44-.457c-1.283-1.283-5.769-5.41-9.7-4.72-2.011.352-2.963 1.02-3.726 1.556-1.025.72-1.765 1.24-4.45.714-2.362-.464-6.06 1.798-8.52 4.957a30 30 0 0 1-1.006-7.718c0-16.558 13.424-29.982 29.982-29.982m23.085 34.741a62 62 0 0 1-2.892 2.073 2.6 2.6 0 0 0-.318-.392c-1.497-1.497-4.947-1.39-8.2.254-3.749 1.892-5.953 5.166-4.915 7.296q.183.378.488.682c1.497 1.497 4.943 1.391 8.2-.25 2.968-1.501 4.968-3.867 5.155-5.845 1.3-1.266 2.922-3.016 2.737-3.728l-.06-.237zM43.97 22.876c-2.211-.999-5.556-.035-8.114 2.523-3.026 3.027-3.823 7.157-1.775 9.206s6.178 1.25 9.203-1.775c2.61-2.61 3.56-6.037 2.46-8.246l2.89-4.519zM14.735 20.13c-.626-.206-2.003 1.044-2.995 2.064a3.2 3.2 0 0 0-.962.173c-1.445.49-2.819 1.924-3.672 3.84-1.183 2.655-1.048 5.573.319 6.94q.276.276.61.456c.655.357 1.425.401 2.228.13 1.445-.49 2.819-1.925 3.672-3.84 1.18-2.657 1.048-5.573-.318-6.939a3 3 0 0 0-.347-.29c.443-.711.996-1.53 1.545-2.283l.13-.18zm15.847-6.91c-.725-.193-2.479 1.428-3.744 2.728-1.998.167-4.369 2.164-5.852 5.152-1.624 3.272-1.692 6.76-.16 8.29q.31.312.694.502c2.166 1.075 5.452-1.12 7.325-4.891 1.625-3.273 1.693-6.76.162-8.292a2.7 2.7 0 0 0-.4-.327c.593-.9 1.331-1.942 2.061-2.906l.146-.192z"/>
</svg>