<svg xmlns="http://www.w3.org/2000/svg" viewBox="0 0 59 59" width="24" height="24" fill="none">
  <path fill="#000" d="M29.456 0A29.25 29.25 0 0 0 4.021 14.449 29.252 29.252 0 0 0 29.047 58.5a28.06 28.06 0 0 0-2.537-15.224c8.62-1.091 16.699 5.401 16.699 5.401-7.312-7.15-16.9-8.366-22.27-6.825-8.184 2.346-9.167-1.417-9.984-5.2-.708-3.25 7.475-5.35 7.475-5.35 3.712-5.017 8.567-8.45 13.805-8.516l.003.002c.784-.01 1.571.069 2.338.237 3.082-2.166-1.475-7.697-2.338-9.76 6.286.533 7.545 9.74 7.43 12.69 3.574-1.605 7.52-.221 7.52-.221-.762 4.634-6.546 5.85-6.546 5.85a58.9 58.9 0 0 1 15.6 9.458A29.251 29.251 0 0 0 29.455.001M24.294 24.91c-.654-5.075-13.806-6.52-14.42-5.49 8.556-4.97 17.213 1.148 18.962 3.385l.003-.003a16.4 16.4 0 0 0-4.545 2.108"/>
  <path fill="#74c742" d="M29.456 0A29.25 29.25 0 0 0 4.021 14.449 29.252 29.252 0 0 0 29.047 58.5a28.06 28.06 0 0 0-2.537-15.224c8.62-1.091 16.699 5.401 16.699 5.401-7.312-7.15-16.9-8.366-22.27-6.825-8.184 2.346-9.167-1.417-9.984-5.2-.708-3.25 7.475-5.35 7.475-5.35 3.712-5.017 8.567-8.45 13.805-8.516l.003.002c.784-.01 1.571.069 2.338.237 3.082-2.166-1.475-7.697-2.338-9.76 6.286.533 7.545 9.74 7.43 12.69 3.574-1.605 7.52-.221 7.52-.221-.762 4.634-6.546 5.85-6.546 5.85a58.9 58.9 0 0 1 15.6 9.458A29.251 29.251 0 0 0 29.455.001M24.294 24.91c-.654-5.075-13.806-6.52-14.42-5.49 8.556-4.97 17.213 1.148 18.962 3.385l.003-.003a16.4 16.4 0 0 0-4.545 2.108"/>
</svg>