<svg width="20" height="20" viewBox="0 0 20 20" fill="none" xmlns="http://www.w3.org/2000/svg">
<path d="M12.8994 7C14.0041 7 14.8994 6.10468 14.8994 5C14.8994 3.89532 14.0041 3 12.8994 3C11.7947 3 10.8994 3.89532 10.8994 5C10.8994 6.10468 11.7947 7 12.8994 7Z" fill="currentColor"/>
<path d="M3.69922 12.2002C4.8039 12.2002 5.69922 11.3049 5.69922 10.2002C5.69922 9.09552 4.8039 8.2002 3.69922 8.2002C2.59454 8.2002 1.69922 9.09552 1.69922 10.2002C1.69922 11.3049 2.59454 12.2002 3.69922 12.2002Z" fill="currentColor"/>
<path d="M14.8994 15C14.8994 16.1047 14.0041 17 12.8994 17C11.7947 17 10.8994 16.1047 10.8994 15C10.8994 13.8953 11.7947 13 12.8994 13C14.0041 13 14.8994 13.8953 14.8994 15Z" fill="currentColor"/>
<path fill-rule="evenodd" clip-rule="evenodd" d="M14.4284 9.5C14.712 8.7414 15.4416 8.2 16.2995 8.2C17.4041 8.2 18.2994 9.09539 18.2994 10.2001C18.2994 11.304 17.4041 12.2001 16.2994 12.2001C15.2971 12.2001 14.4697 11.4618 14.3244 10.5001H12.4502C12.2174 11.6962 11.1643 12.6001 9.89942 12.6001C9.63301 12.6001 9.37597 12.5594 9.13379 12.4852L8.37363 13.6524C8.69941 14.0079 8.89942 14.4797 8.89942 15.0001C8.89942 16.104 8.00409 17.0001 6.89941 17.0001C5.79473 17.0001 4.89941 16.104 4.89941 15.0001C4.89941 13.8954 5.79473 13.0001 6.89941 13.0001C7.12207 13.0001 7.33613 13.0383 7.53691 13.1063L8.25019 12.0102C7.66973 11.5328 7.29941 10.8102 7.29941 10C7.29941 9.21173 7.65177 8.50625 8.20645 8.02969L7.50333 6.90703C7.31271 6.96719 7.11037 7 6.89943 7C5.79475 7 4.89943 6.1039 4.89943 5C4.89943 3.89532 5.79475 3 6.89943 3C8.00411 3 8.89943 3.89532 8.89943 5C8.89943 5.53282 8.68927 6.01562 8.34943 6.37422L9.07599 7.53516C9.33537 7.44844 9.61115 7.4 9.89944 7.4C11.1643 7.4 12.2174 8.3039 12.4502 9.5H14.4284ZM8.29945 10C8.29945 10.882 9.01741 11.6 9.89945 11.6C10.7815 11.6 11.4995 10.882 11.4995 10C11.4995 9.11796 10.7815 8.4 9.89945 8.4C9.01741 8.4 8.29945 9.11796 8.29945 10Z" fill="currentColor"/>
</svg>
