
<svg width="16" height="17" viewBox="0 0 16 17" fill="none" xmlns="http://www.w3.org/2000/svg">
<path fill-rule="evenodd" clip-rule="evenodd" d="M9.11137 11.4923V13.3944C9.11137 13.8938 9.51618 14.2986 10.0155 14.2986H12.3529C12.7098 14.2986 12.9991 14.5879 12.9991 14.9448V14.9448C12.9991 15.3017 12.7098 15.591 12.3529 15.591H4.58053C4.2249 15.591 3.93661 15.3027 3.93661 14.9471V14.9471C3.93661 14.5897 4.2277 14.3006 4.58511 14.3032L7.05754 14.3208C7.55728 14.3243 7.96513 13.9218 7.96813 13.422L7.99072 9.65142C8.14736 9.70148 8.29611 9.73472 8.45982 9.73207C8.66383 10.42 8.75783 10.8657 9.11137 11.4923ZM6.7393 7.0777C5.07157 6.63908 3.97806 6.70939 3.43522 6.95864C3.11103 7.10485 3.11663 7.16751 3.43452 7.31372C3.97739 7.56366 5.0715 7.63329 6.73931 7.19536C6.73792 7.15637 6.7379 7.11669 6.7393 7.0777ZM9.8393 5.35174L9.8903 5.38238C11.1046 4.16258 11.5902 3.18296 11.6447 2.58909C11.6768 2.24098 11.623 2.21034 11.3372 2.41224C10.8489 2.75618 10.2403 3.66475 9.78758 5.32317L9.8393 5.35174ZM10.4786 5.92473C10.9432 6.56247 11.0173 7.43973 10.596 8.16514C10.5596 8.2278 10.5205 8.28837 10.4786 8.34546C11.3694 9.25683 12.3475 10.4766 12.4523 11.6093C12.5459 12.6509 11.7278 13.1236 10.8705 12.5193C9.93848 11.862 9.36836 10.4083 9.0218 9.18361C8.60189 9.22747 8.16522 9.14532 7.77187 8.91904C7.37922 8.69277 7.08858 8.35719 6.91741 7.97286C5.67936 8.28616 4.13255 8.52148 3.09427 8.04527C2.14129 7.60735 2.14059 6.66395 3.09427 6.22674C4.12971 5.74913 5.67934 5.98306 6.91741 6.29706C6.94605 6.23231 6.97889 6.16896 7.01522 6.1056C7.43583 5.37944 8.2344 5.00486 9.02185 5.08631C9.36839 3.86165 9.93851 2.4087 10.8698 1.75208C11.7236 1.15054 12.5487 1.62467 12.4523 2.66275C12.3475 3.79552 11.3701 5.01324 10.4786 5.92473ZM9.8896 8.89002C9.85606 8.91091 9.82182 8.9304 9.78759 8.9485C10.241 10.6069 10.8489 11.5162 11.3373 11.8601C11.6237 12.062 11.6796 12.0356 11.6468 11.6826C11.5909 11.0887 11.1053 10.1098 9.8896 8.89002ZM9.43336 6.05288C8.83319 5.70755 8.06606 5.91225 7.71952 6.5103C7.37298 7.10837 7.57839 7.87282 8.17855 8.21815C8.77871 8.56348 9.54584 8.35879 9.89238 7.76073C10.2389 7.16266 10.0335 6.39821 9.43336 6.05288Z" fill="currentColor"/>
<path d="M9.8393 5.35174L9.8903 5.38238C11.1046 4.16258 11.5902 3.18296 11.6447 2.58909C11.6768 2.24098 11.623 2.21034 11.3372 2.41224C10.8489 2.75618 10.2403 3.66475 9.78758 5.32317L9.8393 5.35174Z" fill="currentColor"/>
<path d="M6.7393 7.0777C5.07157 6.63908 3.97806 6.70939 3.43522 6.95864C3.11103 7.10485 3.11663 7.16751 3.43452 7.31372C3.97739 7.56366 5.0715 7.63329 6.73931 7.19536C6.73792 7.15637 6.7379 7.11669 6.7393 7.0777Z" fill="currentColor"/>
<path d="M9.8896 8.89002C9.85606 8.91091 9.82182 8.9304 9.78759 8.9485C10.241 10.6069 10.8489 11.5162 11.3373 11.8601C11.6237 12.062 11.6796 12.0356 11.6468 11.6826C11.5909 11.0887 11.1053 10.1098 9.8896 8.89002Z" fill="currentColor"/>
</svg>
