<svg width="16" height="16" viewBox="0 0 16 16" fill="none" xmlns="http://www.w3.org/2000/svg">
<path d="M5.89318 0.770604C6.92166 -0.257031 8.58925 -0.256705 9.61779 0.770604L12.4742 3.62314C12.9642 4.11266 13.1984 4.74689 13.1969 5.3751C13.5776 5.16143 14.0681 5.21555 14.3922 5.53916L14.8756 6.02256C15.7235 6.86942 15.7233 8.24256 14.8756 9.08896V9.08994C14.6711 9.29393 14.4645 9.49925 14.3043 9.65928L13.5983 8.95224C13.7584 8.79234 13.964 8.58604 14.1686 8.38193V8.38096C14.5967 7.9535 14.6244 7.27719 14.2496 6.81846L14.1695 6.73057L13.6852 6.24717C11.9532 7.97682 9.36155 8.32446 7.2838 7.29014C8.68812 7.54942 10.1436 7.34688 11.4332 6.65439C12.2418 6.21996 12.4366 5.16599 11.8873 4.46592L11.7672 4.33115L8.91076 1.47861C8.27257 0.841188 7.23816 0.841188 6.60021 1.47861L3.52209 4.55283C5.5494 3.69263 7.98462 4.09192 9.63341 5.7501C7.11796 4.53062 4.00226 4.96317 1.91369 7.04892L1.34142 7.61924C0.885164 8.07535 0.88537 8.81476 1.34142 9.2706L1.8258 9.75303C3.55781 8.02338 6.14942 7.67571 8.22716 8.71006C6.82284 8.45076 5.36736 8.6533 4.07775 9.3458C3.21522 9.80919 3.05145 10.9772 3.74377 11.669L6.60021 14.5216C7.2384 15.159 8.27281 15.159 8.91076 14.5216L11.9889 11.4474C9.96156 12.3076 7.5266 11.9083 5.87755 10.2501C8.39302 11.4695 11.5087 11.0371 13.5973 8.95127L13.5983 8.95224L14.3043 9.65928C13.8375 10.1255 13.3251 10.5186 12.7828 10.8409C12.7947 10.8565 12.8069 10.8723 12.818 10.8888C13.0854 11.2857 13.0343 11.816 12.6959 12.1544L9.61681 15.2286C8.58834 16.2562 6.92172 16.2569 5.89318 15.2296L3.03673 12.377C2.54647 11.8873 2.31232 11.2527 2.31408 10.6241C1.93329 10.8381 1.44298 10.7848 1.11877 10.461L0.635367 9.97764C-0.211533 9.1313 -0.212045 7.75905 0.635367 6.91221L0.937125 6.60947C1.03435 6.51236 1.12655 6.42093 1.20666 6.34092C1.67347 5.87474 2.18492 5.48057 2.72716 5.1583C2.71553 5.14301 2.70384 5.12753 2.69298 5.11142C2.42554 4.71451 2.4766 4.18415 2.81505 3.8458L5.89318 0.770604Z" fill="currentColor"/>
</svg>