<svg width="15" height="15" viewBox="0 0 15 15" fill="none" xmlns="http://www.w3.org/2000/svg">
<path fill-rule="evenodd" clip-rule="evenodd" d="M7.08923 12.5103C10.1268 12.5103 12.5892 10.0479 12.5892 7.01028C12.5892 3.97272 10.1268 1.51028 7.08923 1.51028C4.05167 1.51028 1.58923 3.97272 1.58923 7.01028C1.58923 10.0479 4.05167 12.5103 7.08923 12.5103ZM6.61553 4.88949C6.91513 5.12764 7.39142 5.12764 7.69102 4.88949C7.99063 4.64366 7.99063 4.24419 7.69102 3.99837C7.39142 3.75254 6.91513 3.75254 6.61553 3.99837C6.31593 4.24419 6.31593 4.64366 6.61553 4.88949ZM8.09049 9.70617C8.09049 9.66776 8.0444 9.62167 7.95222 9.58326C7.82162 9.52948 7.79089 9.40657 7.79089 9.09929V5.4887C7.79089 5.38883 7.7448 5.36578 7.64493 5.41187C7.28387 5.58856 6.89208 5.71916 6.46189 5.80366C6.3697 5.83439 6.32361 5.88048 6.32361 5.93426C6.32361 5.98803 6.3697 6.02644 6.46189 6.06485C6.59248 6.12631 6.62321 6.24922 6.62321 6.54883V9.09929C6.62321 9.40657 6.59248 9.52948 6.46189 9.58326C6.3697 9.62167 6.32361 9.66776 6.32361 9.70617C6.32361 9.76763 6.3697 9.79836 6.46957 9.79068C6.73076 9.77531 6.97659 9.76763 7.20705 9.76763C7.42215 9.76763 7.66798 9.77531 7.94453 9.79068C8.0444 9.79836 8.09049 9.76763 8.09049 9.70617Z" fill="currentColor"/>
</svg>
