<svg width="30" height="30" viewBox="0 0 30 30" fill="none" xmlns="http://www.w3.org/2000/svg">
<path d="M20.8709 19.5538C22.1399 18.8615 23.9656 17.2616 25.3951 15.9172C26.6438 14.7428 26.6273 12.7829 25.4151 11.5707L24.8434 10.999C20.3781 15.8771 15.1501 14.0987 15.1501 14.0987C12.4432 13.1973 11.5676 11.4304 11.5676 11.4304C11.5676 11.4304 15.3029 13.4259 18.7069 13.0116C21.2495 12.7017 22.2636 10.8261 21.7394 8.97347C21.2138 7.11652 18.1726 4.37108 18.1726 4.37108L17.0221 3.22101C15.7948 1.99428 13.8056 1.99442 12.5785 3.22132L4.69544 11.1033C5.62392 10.2233 8.19223 8.07785 11.4962 7.69075C15.2087 7.25508 18.0555 10.4419 18.0555 10.4419C18.0555 10.4419 17.4284 10.0776 15.2472 9.42914C12.7318 8.67922 11.1091 9.14488 8.72646 10.4448C7.45827 11.137 5.63296 12.7369 4.20369 14.0813C2.95504 15.2558 2.97156 17.2157 4.18369 18.4278L4.75543 18.9996C9.20926 14.0372 14.4487 15.8999 14.4487 15.8999C17.2227 16.8812 18.0312 18.5682 18.0312 18.5682C18.0312 18.5682 14.2959 16.5727 10.892 16.9869C8.34935 17.2969 7.33517 19.1724 7.8594 21.0251C8.38506 22.8821 11.4262 25.6275 11.4262 25.6275L12.5766 26.7779C13.8038 28.0051 15.7936 28.0051 17.0208 26.7779L24.902 18.8967C23.9735 19.7767 21.4052 21.9221 18.1012 22.3093C14.3887 22.7449 11.5419 19.5581 11.5419 19.5581C11.5419 19.5581 12.169 19.9224 14.3502 20.5709C16.8656 21.3208 18.4883 20.8551 20.8709 19.5552V19.5538Z" fill="currentColor"/>
</svg>
