
<svg width="32" height="32" viewBox="0 0 32 32" fill="none" xmlns="http://www.w3.org/2000/svg">
<g clip-path="url(#clip0_2217_39809)">
<rect width="32" height="32" rx="16" fill="#00041D"/>
<rect x="-0.873657" y="-0.873657" width="33.7473" height="33.7473" rx="16.8737" fill="#00041D"/>
<rect x="-0.873657" y="-0.873657" width="33.7473" height="33.7473" rx="16.8737" stroke="#00041D" stroke-width="1.08862"/>
<g clip-path="url(#clip1_2217_39809)">
<path d="M9.59873 23.438C9.59873 23.7967 9.89125 24.1223 10.283 24.1223L21.5477 24.121C21.9063 24.121 22.2319 23.8285 22.2319 23.4367V22.9814C22.2319 19.498 19.3996 16.6657 15.9162 16.6657C12.4327 16.6657 9.60042 19.498 9.60042 22.9814L9.59873 23.438Z" fill="#DAEBFC" fill-opacity="0.2"/>
<path d="M15.9145 7.71179C13.7982 7.71179 12.0722 9.43767 12.0722 11.5541C12.0722 13.6704 13.7981 15.3963 15.9145 15.3963C18.0309 15.3963 19.7567 13.6704 19.7567 11.5541C19.7567 9.43767 18.0309 7.71179 15.9145 7.71179Z" fill="#DAEBFC" fill-opacity="0.2"/>
</g>
</g>
<defs>
<clipPath id="clip0_2217_39809">
<rect width="32" height="32" rx="16" fill="white"/>
</clipPath>
<clipPath id="clip1_2217_39809">
<rect width="17.252" height="17.252" fill="white" transform="translate(7.28906 7.29102)"/>
</clipPath>
</defs>
</svg>
