
<svg width="32" height="32" viewBox="0 0 32 32" fill="none" xmlns="http://www.w3.org/2000/svg">
<g clip-path="url(#clip0_2217_39711)">
<rect width="32" height="32" rx="16" fill="#00041D"/>
<path fill-rule="evenodd" clip-rule="evenodd" d="M2.58516 0.146094C2.58516 -1.20096 3.67716 -2.29297 5.02422 -2.29297H26.9758C28.3228 -2.29297 29.4148 -1.20096 29.4148 0.146094C29.4148 1.49315 30.5069 2.58516 31.8539 2.58516C33.201 2.58516 34.293 3.67716 34.293 5.02422V26.9758C34.293 28.3228 33.201 29.4148 31.8539 29.4148C30.5069 29.4148 29.4148 30.5069 29.4148 31.8539C29.4148 33.201 28.3228 34.293 26.9758 34.293H5.02422C3.67716 34.293 2.58516 33.201 2.58516 31.8539C2.58516 30.5069 1.49315 29.4148 0.146094 29.4148C-1.20096 29.4148 -2.29297 28.3228 -2.29297 26.9758V5.02422C-2.29297 3.67716 -1.20096 2.58516 0.146094 2.58516C1.49315 2.58516 2.58516 1.49315 2.58516 0.146094Z" fill="#00041D"/>
<path d="M13.9766 7.0625L16.2109 9.29688L13.9766 11.5312L11.7422 9.29688L13.9766 7.0625ZM20.6797 9.29688L18.4453 11.5312L16.2109 9.29688L18.4453 7.0625L20.6797 9.29688ZM18.4453 24.9375L16.2109 22.7031L18.4453 20.4688L20.6797 22.7031L18.4453 24.9375ZM11.7422 22.7031L13.9766 20.4688L16.2109 22.7031L13.9766 24.9375L11.7422 22.7031ZM9.50781 11.5312L11.7422 13.7656L9.50781 16L7.27344 13.7656L9.50781 11.5312ZM25.1484 13.7656L22.9141 16L20.6797 13.7656L22.9141 11.5312L25.1484 13.7656ZM22.9141 20.4688L20.6797 18.2344L22.9141 16L25.1484 18.2344L22.9141 20.4688ZM7.27344 18.2344L9.50781 16L11.7422 18.2344L9.50781 20.4688L7.27344 18.2344ZM11.7422 11.5312H7.27344V7.0625L11.7422 11.5312ZM20.6797 11.5312V7.0625H25.1484L20.6797 11.5312ZM20.6797 20.4688H25.1484V24.9375L20.6797 20.4688ZM11.7422 20.4688V24.9375H7.27344L11.7422 20.4688Z" fill="#009FFF"/>
<path d="M11.7422 11.5312H16.2109V12.2531L14.3203 16H11.7422V11.5312ZM20.6797 11.5312V16H19.9578L16.2109 14.1094V11.5312H20.6797ZM20.6797 20.4688H16.2109V19.7469L18.1016 16H20.6797V20.4688ZM11.7422 20.4688V16H12.4641L16.2109 17.8906V20.4688H11.7422Z" fill="#2E8C74"/>
</g>
<defs>
<clipPath id="clip0_2217_39711">
<rect width="32" height="32" rx="16" fill="white"/>
</clipPath>
</defs>
</svg>
