<svg xmlns="http://www.w3.org/2000/svg" width="48" height="48" viewBox="0 0 28 28" fill="none">
  <path stroke="currentColor" d="M10.6 4.86a1.266 1.266 0 1 0-.001 2.532 1.266 1.266 0 0 0 0-2.533Z"/>
  <path stroke="currentColor" stroke-width="1.5" d="m6.943 12.908 1.606.645-.854-2.264z"/>
  <path stroke="currentColor" stroke-width="1.3" d="M15.86 15.111q-.057.007-.097.015l.035.634c.028.5.112 1.07.192 1.524a20 20 0 0 0 .14.71l.009.041.002.01v.002l.073.321-.215.248-.492-.425.491.426v.001l-.005.005-.007.008a1 1 0 0 1-.061.062 2 2 0 0 1-.145.122 3.6 3.6 0 0 1-.543.34c-.408.21-1.011.448-1.885.657q-.007.066-.02.131a2 2 0 0 1-.093.296l11.63-2.432c-.303-.214-.67-.455-1.101-.7a15.3 15.3 0 0 0-6.193-1.92l-.008-.002c-.863-.089-1.392-.104-1.708-.074Zm-5.786-5.418a.455.455 0 0 0-.611-.27l-.027.01a.457.457 0 0 0-.271.613l.005.012 1.459 3.867c.082.182.167.26.232.289l.013.006.012.006 3.023 1.496.025.011.022.014a.514.514 0 0 0 .62-.259l.12-.223-.111-.195c-.08-.14-.147-.204-.235-.249l-2.63-1.285-.23-.112-.092-.241L10.08 9.71l-.003-.009z"/>
  <path stroke="currentColor" d="M5.625 19.499c-1.023-.027-1.708.058-2.158.185-.452.127-.637.287-.712.384a.34.34 0 0 0-.075.242c.002.035.01.065.015.085l.006.016.004.007.007.02.776 2.026 4.087-.854.769-1.427-.233-.029h.001a4 4 0 0 1-.554-.125c-.23-.062-.509-.141-.78-.22-.275-.078-.544-.156-.764-.215a9 9 0 0 0-.37-.091z"/>
  <path fill="currentColor" d="M10.598 16.962 8.413 18.49l-2.365-2.514-.12-.12-.03-.03a.9.9 0 0 1-.15-.209 1.81 1.81 0 0 1-.089-1.706l.12-.27 3.354 1.348z"/>
  <path stroke="currentColor" stroke-width="1.3" d="m9.67 18.865.384.41.319.34-.222.411-1.496 2.785-.141.263-.293.064-2.55.554c.84-.055 1.92-.25 3.127-.48l.004-.001.96-.175c.965-.17 1.917-.315 2.601-.315.966 0 2.496.252 3.881.488l.004.001c.534.094 1.053.18 1.541.256l1.157-.535c2.016-.932 4.024-2.074 5.483-3.329L11.334 22.45l-1.388.301.679-1.247.928-1.706c.095-.183.074-.435-.105-.647l-.011-.013-.011-.015-.73-.969z"/>
</svg>