<svg width="25" height="20" viewBox="0 0 25 20" fill="none" xmlns="http://www.w3.org/2000/svg">
<path d="M8.84012 0.5C8.14076 0.5 7.57376 1.06632 7.57352 1.76562C7.57352 2.46514 8.1406 3.03223 8.84012 3.03223C9.53943 3.03198 10.1057 2.46499 10.1057 1.76562C10.1055 1.06647 9.53928 0.500245 8.84012 0.5Z" stroke="#B3D7FA"/>
<path d="M5.18387 8.54883L6.78934 9.19336L5.93582 6.92969L5.18387 8.54883Z" stroke="#B3D7FA" stroke-width="1.5"/>
<path d="M14.0999 10.752C14.0622 10.7556 14.0305 10.7625 14.0032 10.7666L14.0384 11.4004C14.0662 11.901 14.1503 12.4704 14.2307 12.9248C14.2706 13.1496 14.3092 13.3419 14.3372 13.4775C14.3511 13.5451 14.3626 13.5987 14.3704 13.6348C14.3743 13.6527 14.3772 13.6668 14.3792 13.6758C14.3801 13.6801 14.3807 13.6835 14.3811 13.6855V13.6875L14.3821 13.6885L14.4544 14.0088L14.2395 14.2568L13.7473 13.832L14.2386 14.2578V14.2588L14.2337 14.2637C14.2316 14.2661 14.2293 14.2688 14.2268 14.2715C14.222 14.2768 14.2164 14.2826 14.2102 14.2891C14.1979 14.3019 14.1832 14.3171 14.1653 14.334C14.1295 14.3678 14.0817 14.409 14.0208 14.4561C13.8989 14.5503 13.7234 14.6679 13.4778 14.7949C13.0693 15.0062 12.4662 15.2438 11.5921 15.4531C11.5866 15.4964 11.5819 15.5403 11.5725 15.584C11.5504 15.6872 11.5171 15.7858 11.4798 15.8799L23.1087 13.4473C22.8062 13.2338 22.4393 12.9927 22.0081 12.7471C20.594 11.9416 18.5049 11.0718 15.8157 10.8271L15.8079 10.8262C14.9448 10.7367 14.416 10.7212 14.0999 10.752ZM8.31473 5.33398C8.22873 5.08847 7.96176 4.96109 7.7034 5.06445L7.67606 5.07422C7.43031 5.16016 7.30196 5.42801 7.40555 5.68652L7.41043 5.69824L8.86942 9.56543C8.95134 9.74741 9.03608 9.82506 9.10184 9.85449L9.11453 9.86035L9.12625 9.86621L12.1497 11.3623L12.1741 11.374L12.1966 11.3877C12.2066 11.3937 12.253 11.415 12.3714 11.415C12.5373 11.415 12.714 11.3198 12.8167 11.1289L12.9368 10.9053L12.8255 10.7109C12.7456 10.5708 12.6783 10.5061 12.5901 10.4619L12.5911 10.4609L9.96121 9.17676L9.72977 9.06445L9.63797 8.82324L8.32059 5.35059L8.31766 5.3418L8.31473 5.33398Z" stroke="#B3D7FA" stroke-width="1.3"/>
<path d="M3.86551 15.1396C2.84232 15.1121 2.15789 15.1976 1.70731 15.3242C1.2553 15.4513 1.07056 15.6111 0.995394 15.709C0.925165 15.8004 0.915195 15.8836 0.920198 15.9502C0.92289 15.9859 0.929912 16.016 0.935823 16.0352L0.941683 16.0518L0.945589 16.0586L0.952425 16.0781L1.72879 18.1045L5.81571 17.251L6.58426 15.8232L6.35184 15.7949L6.35282 15.7939C6.21597 15.7789 5.99979 15.7243 5.79813 15.6699C5.56779 15.6079 5.28973 15.5284 5.01785 15.4502C4.74358 15.3713 4.47464 15.2938 4.25418 15.2344C4.14407 15.2047 4.0495 15.1804 3.97489 15.1631C3.93772 15.1545 3.90787 15.1479 3.88504 15.1436C3.87674 15.142 3.87033 15.1404 3.86551 15.1396Z" stroke="#B3D7FA"/>
<path d="M8.83817 12.6029L6.6532 14.13L4.28827 11.6157C4.2588 11.5862 4.19881 11.5262 4.16828 11.4957L4.13881 11.4662C4.07882 11.4062 4.01883 11.3168 3.98936 11.2568C3.69045 10.7474 3.63047 10.119 3.8999 9.55069L4.01988 9.28125L7.37302 10.6284L8.83817 12.6029Z" fill="#B3D7FA"/>
<path d="M7.91141 14.5059L8.29422 14.915L8.61356 15.2559L8.39188 15.667L6.89578 18.4512L6.75418 18.7148L6.46121 18.7783L3.91239 19.333C4.75175 19.278 5.83193 19.0835 7.03836 18.8525L7.04227 18.8516L8.00223 18.6768C8.96742 18.5061 9.91961 18.3613 10.6038 18.3613C11.5693 18.3614 13.0994 18.6134 14.4847 18.8496L14.4886 18.8506C15.0228 18.9448 15.5413 19.0305 16.0296 19.1064L17.1868 18.5713C19.2022 17.6396 21.2102 16.4977 22.6692 15.2432L9.5745 18.0908L8.1868 18.3916L8.86551 17.1445L9.79325 15.4385C9.88807 15.2555 9.86792 15.0038 9.68875 14.792L9.67703 14.7783L9.66629 14.7637L8.93582 13.7949L7.91141 14.5059Z" stroke="#B3D7FA" stroke-width="1.3"/>
</svg>
