<svg xmlns="http://www.w3.org/2000/svg" width="20" height="20" viewBox="0 0 20 20">
  <path d="m375.6 204.9 42.7 42.7 26.9-26.9c4.7-4.8 12.5-4.8 17.2 0 4.8 4.7 4.8 12.5 0 17.2l-35.5 35.5c-4.8 4.7-12.5 4.7-17.3 0l-51.2-51.2v30.4c0 6.7-5.4 12.2-12.2 12.2-6.7 0-12.2-5.4-12.2-12.2v-95.4c0-6.7 5.4-12.2 12.2-12.2 6.7 0 12.2 5.4 12.2 12.2v30.5l51.2-51.2c4.8-4.7 12.5-4.7 17.3 0l35.5 35.5c4.7 4.8 4.7 12.5 0 17.2-4.8 4.7-12.5 4.7-17.2 0l-26.9-26.9zm42.7-12.2c-6.8 0-12.3 5.4-12.3 12.2 0 6.8 5.4 12.3 12.2 12.3 6.8 0 12.3-5.4 12.3-12.2v-.1c-.1-6.7-5.5-12.1-12.2-12.2z" style="fill:#28cd96" transform="matrix(.09848 0 0 .09848 -29.394 -10.184)"/>
</svg>