<svg xmlns="http://www.w3.org/2000/svg" width="31" height="30" viewBox="0 0 31 30" fill="none">
<rect x="0.997681" y="0.472168" width="29.0625" height="29.0625" rx="14.5312" fill="#030816"/>
<rect x="0.997681" y="0.472168" width="29.0625" height="29.0625" rx="14.5312" stroke="#111320" stroke-width="0.9375"/>
<path d="M14.2972 16.9845C13.378 14.3969 15.7272 12.9329 16.5443 11.571C16.9018 10.8731 16.9699 10.3113 16.7486 9.88573C16.5273 9.46015 16.1358 9.23884 15.591 9.23884C12.9864 9.23884 15.1654 13.035 12.1863 12.6776C11.6756 12.6265 11.3182 12.3371 11.0969 11.8264C10.8245 11.2306 10.9096 10.6348 11.3692 10.073C12.1012 9.17075 13.4971 8.71112 15.591 8.71112C17.2763 8.71112 18.5531 9.06861 19.3872 9.80061C20.2384 10.5326 20.4937 11.3838 20.1703 12.3882C19.6936 13.8011 18.1105 14.2607 16.9869 14.8055C16.1868 15.197 15.608 15.8779 15.608 16.8994C15.608 17.7675 14.6207 17.7846 14.2972 16.9845ZM13.2929 20.0827C13.2929 19.0783 14.0759 18.2953 15.0463 18.2953C16.0166 18.2953 16.8167 19.1124 16.8167 20.0827C16.8167 21.053 16.0166 21.8361 15.0463 21.8361C14.0759 21.8361 13.2929 21.053 13.2929 20.0827Z" fill="#7C7F8A"/>
</svg>