<svg width="36" height="37" viewBox="0 0 36 37" fill="none" xmlns="http://www.w3.org/2000/svg">
    <path
        d="M17.365 1.33738C17.7133 1.32585 18.0255 1.32579 18.3588 1.44279C19.0296 1.67828 19.5331 2.08959 19.8419 2.73734C20.1362 3.35484 20.1957 4.06531 19.966 4.71257C19.6181 5.69254 18.8269 6.21811 17.9387 6.64092C17.8141 6.6287 17.6899 6.61323 17.5661 6.59453C16.7909 6.47768 16.0763 6.16138 15.604 5.51177C15.0396 4.73531 15.0056 3.85359 15.1546 2.94501C15.7437 2.13787 16.4288 1.67257 17.365 1.33738Z"
        fill="currentColor" />
    <path
        d="M3.38116 15.6723C3.78269 15.6274 4.21351 15.6687 4.58692 15.8259C5.55805 16.2346 6.13066 17.1909 6.51127 18.1227C6.44498 18.3703 6.37931 18.6223 6.29108 18.863C5.95219 19.7875 5.34403 20.4642 4.44639 20.8791C4.19486 20.9419 3.94509 21.0281 3.69663 21.103C3.45937 21.0358 3.19989 20.9736 2.97653 20.869C2.3218 20.5626 1.72519 19.7777 1.49466 19.1197C1.26455 18.4628 1.29311 17.7044 1.59943 17.076C1.98575 16.2834 2.58864 15.9457 3.38116 15.6723Z"
        fill="currentColor" />
    <path
        d="M17.1769 30.1297C17.7144 30.0486 18.0763 30.0887 18.57 30.32C19.2407 30.6343 19.8111 31.25 20.0626 31.948C20.2929 32.5873 20.2066 33.2881 19.9176 33.8945C19.5339 34.6998 18.9939 34.9571 18.2025 35.2367C17.4949 35.3311 16.7992 35.2957 16.1863 34.8839C15.5872 34.4813 15.2613 33.8526 15.1297 33.1546C15 32.466 15.0943 31.849 15.4937 31.2668C15.8855 30.6956 16.4944 30.2593 17.1769 30.1297Z"
        fill="currentColor" />
    <path
        d="M24.0256 8.53909C24.3952 8.47897 24.9118 8.47848 25.265 8.60007C25.968 8.84208 26.5104 9.37016 26.8271 10.0377C27.1126 10.6395 27.1672 11.2814 26.9399 11.9117C26.6223 12.7925 25.9235 13.3878 25.1015 13.7758C24.919 13.8162 24.7336 13.852 24.5461 13.8522C23.9307 13.8527 23.3046 13.5322 22.8796 13.1018C22.1061 12.3183 22.0123 11.5023 22.0189 10.4548C22.5005 9.43068 23.0077 9.00507 24.0256 8.53909Z"
        fill="currentColor" />
    <path
        d="M23.6547 22.9977C24.0114 22.9617 24.379 22.9204 24.7372 22.9459C25.4526 22.9966 26.1249 23.4325 26.5835 23.9649C26.9808 24.4264 27.2296 24.9895 27.1817 25.606C27.0951 26.7227 26.1377 27.3661 25.3605 28.036C24.8094 28.2504 24.2567 28.2259 23.7033 28.0084C23.0443 27.7493 22.5256 27.2138 22.2475 26.567C21.9516 25.8789 21.9275 25.0691 22.2133 24.3734C22.4975 23.6817 22.9776 23.2812 23.6547 22.9977Z"
        fill="currentColor" />
    <path
        d="M17.3762 15.6906C18.0208 15.6554 18.532 15.8018 19.0544 16.1918C19.8246 16.7669 20.1952 17.5745 20.3326 18.5035C20.144 18.9769 19.8903 19.4609 19.6197 19.8919C19.2096 20.545 18.6711 20.7804 17.9537 20.9431C17.382 20.9378 16.8759 20.9088 16.3657 20.6159C15.7545 20.2649 15.3403 19.6588 15.1648 18.9821C14.9878 18.2997 15.0743 17.5932 15.4391 16.9867C15.9057 16.2112 16.5379 15.9018 17.3762 15.6906Z"
        fill="currentColor" />
    <path
        d="M10.2301 8.47997C10.6738 8.43798 11.123 8.47029 11.5382 8.63958C12.2158 8.91582 12.7612 9.43598 13.0456 10.1136C13.3282 10.7869 13.3157 11.532 13.0355 12.2044C12.66 13.1055 11.9967 13.4708 11.1449 13.8239C10.9297 13.8296 10.7159 13.8145 10.5036 13.7786C10.2913 13.7427 10.0844 13.6867 9.88297 13.6107C9.80185 13.5804 9.72246 13.5461 9.64481 13.5078C9.56714 13.4696 9.4916 13.4275 9.41817 13.3816C9.34474 13.3357 9.27381 13.2863 9.20536 13.2332C9.13692 13.1802 9.07131 13.1239 9.00851 13.0643C8.94574 13.0046 8.88612 12.942 8.82966 12.8764C8.7732 12.8107 8.72017 12.7424 8.67058 12.6715C8.62099 12.6005 8.57507 12.5272 8.53285 12.4516C8.49064 12.376 8.45233 12.2985 8.41793 12.219C8.14681 11.6017 8.03555 10.7896 8.28792 10.1486C8.62365 9.29596 9.43673 8.82554 10.2301 8.47997Z"
        fill="currentColor" />
    <path
        d="M30.8524 15.683C31.4926 15.6273 32.0574 15.6153 32.6284 15.9504C33.2603 16.3213 33.7022 17.0418 33.8844 17.7406C34.0647 18.4326 33.913 19.1539 33.5551 19.7638C33.1585 20.4405 32.6694 20.7327 31.9395 20.923C31.4367 20.9969 30.8279 20.9105 30.3712 20.6944C29.7263 20.3892 29.2455 19.8121 29.0094 19.1442C28.9794 19.0608 28.9536 18.9761 28.9321 18.8901C28.9105 18.8042 28.8933 18.7173 28.8804 18.6297C28.8675 18.542 28.859 18.4539 28.8549 18.3653C28.8508 18.2768 28.8511 18.1883 28.8559 18.0998C28.8606 18.0113 28.8697 17.9232 28.8833 17.8356C28.8968 17.748 28.9147 17.6613 28.9368 17.5755C28.959 17.4897 28.9854 17.4052 29.0161 17.3221C29.0467 17.2389 29.0814 17.1574 29.1201 17.0777C29.4866 16.321 30.0866 15.9463 30.8524 15.683Z"
        fill="currentColor" />
    <path
        d="M10.3204 22.7524C10.7896 22.7757 11.2087 22.8383 11.6379 23.047C12.3286 23.3831 12.8939 23.981 13.1392 24.7141C13.3522 25.3511 13.3063 26.0891 13.0002 26.6893C12.6321 27.4111 11.969 27.8338 11.2233 28.0801C10.9071 28.1068 10.5797 28.118 10.2674 28.0532C9.20531 27.8328 8.67102 27.1529 8.11426 26.2965C8.14393 25.5714 8.13378 24.8095 8.47628 24.1488C8.85238 23.4233 9.56344 22.9911 10.3204 22.7524Z"
        fill="currentColor" />
</svg>