<svg xmlns="http://www.w3.org/2000/svg" width="24" height="24" fill="none" preserveAspectRatio="none" viewBox="0 0 24 24">
  <path fill="currentColor" d="M10.229 14.788c-.462-1.143-.244-2.408.048-3.211.171-.413.39-.875.706-1.337.656-.949 1.167-1.46 1.824-2.238.316-.389.56-.73.73-.998.559-1.021.681-1.897.316-2.602-.34-.706-.973-1.071-1.873-1.071-2.286 0-2.238 1.922-2.53 3.333-.17.973-.827 1.678-2.286 1.508-.681-.073-1.168-.462-1.46-1.143-.365-.852-.219-1.703.414-2.506 1.021-1.265 2.967-1.897 5.862-1.897 2.408 0 4.184.559 5.327 1.678 1.143 1.119 1.46 2.384.949 3.795-.73 1.97-2.919 2.7-4.452 3.551-1.07.584-1.848 1.581-1.848 3.017 0 1.192-1.338 1.216-1.727.121Zm2.651 5.911c-.9.9-2.408.9-3.308 0-.9-.9-.9-2.408 0-3.308.9-.9 2.408-.9 3.308 0 .9.9.9 2.408 0 3.308Z" />
</svg>