<svg width="29" height="28" viewBox="0 0 29 28" fill="none" xmlns="http://www.w3.org/2000/svg">
<path d="M12.8507 16.3796C12.4563 15.4039 12.6431 14.3245 12.8922 13.6394C13.0376 13.2865 13.2244 12.8921 13.4943 12.4977C14.0547 11.6881 14.4907 11.2522 15.0512 10.5879C15.321 10.2557 15.5286 9.96509 15.6739 9.73674C16.1514 8.86486 16.2552 8.11754 15.9438 7.51553C15.6532 6.91352 15.1135 6.60213 14.3454 6.60213C12.394 6.60213 12.4355 8.24209 12.1864 9.44612C12.0411 10.2765 11.4806 10.8785 10.2351 10.7332C9.65384 10.6709 9.23866 10.3388 8.98955 9.7575C8.67816 9.03094 8.80272 8.30437 9.34245 7.61932C10.2143 6.53986 11.875 6.00012 14.3454 6.00012C16.4005 6.00012 17.9159 6.47758 18.8916 7.43249C19.8673 8.38741 20.1371 9.46688 19.7012 10.6709C19.0784 12.3524 17.2101 12.9751 15.9023 13.7017C14.9889 14.1999 14.3246 15.051 14.3246 16.2758C14.3246 17.293 13.1829 17.3138 12.8507 16.3796ZM15.1135 21.4241C14.3454 22.1921 13.0583 22.1921 12.2902 21.4241C11.5221 20.656 11.5221 19.3689 12.2902 18.6008C13.0583 17.8328 14.3454 17.8328 15.1135 18.6008C15.8815 19.3689 15.8815 20.656 15.1135 21.4241Z" fill="currentColor"/>
</svg>
