<svg xmlns="http://www.w3.org/2000/svg" width="23" height="15" viewBox="0 0 23 15" fill="none">
<mask id="path-1-inside-1_441_30590" fill="white">
<path fill-rule="evenodd" clip-rule="evenodd" d="M17.9476 0.971447C18.2395 0.677576 18.7144 0.675987 19.0083 0.967898L22.0285 3.96802L22.5642 4.50012L22.0285 5.03223L19.0083 8.03235C18.7144 8.32426 18.2395 8.32267 17.9476 8.0288C17.6557 7.73493 17.6573 7.26006 17.9512 6.96815L19.6879 5.24295L16.5662 5.23057L13.6162 6.44836C12.2807 6.99966 11.3094 8.16357 10.9937 9.55251C11.817 9.96301 12.3826 10.8134 12.3826 11.7959C12.3826 13.1795 11.261 14.3011 9.87736 14.3011C8.49376 14.3011 7.37213 13.1795 7.37213 11.7959C7.37213 10.5372 8.30041 9.49527 9.50972 9.31744C9.88102 7.5458 11.0461 6.03635 12.6731 5.22998H5.56947C5.25621 6.27105 4.29018 7.02941 3.14703 7.02941C1.75011 7.02941 0.617676 5.89698 0.617676 4.50006C0.617676 3.10313 1.75011 1.9707 3.14703 1.9707C4.27543 1.9707 5.23125 2.70962 5.55702 3.72998H16.4189H16.4219L19.6734 3.74288L17.9512 2.0321C17.6573 1.74019 17.6557 1.26532 17.9476 0.971447ZM3.14703 5.52941C3.71552 5.52941 4.17638 5.06855 4.17638 4.50006C4.17638 3.93156 3.71552 3.4707 3.14703 3.4707C2.57853 3.4707 2.11768 3.93156 2.11768 4.50006C2.11768 5.06855 2.57853 5.52941 3.14703 5.52941ZM10.8826 11.7959C10.8826 12.3511 10.4325 12.8011 9.87736 12.8011C9.32218 12.8011 8.87213 12.3511 8.87213 11.7959C8.87213 11.2407 9.32218 10.7906 9.87736 10.7906C10.4325 10.7906 10.8826 11.2407 10.8826 11.7959Z"/>
</mask>
<path fill-rule="evenodd" clip-rule="evenodd" d="M17.9476 0.971447C18.2395 0.677576 18.7144 0.675987 19.0083 0.967898L22.0285 3.96802L22.5642 4.50012L22.0285 5.03223L19.0083 8.03235C18.7144 8.32426 18.2395 8.32267 17.9476 8.0288C17.6557 7.73493 17.6573 7.26006 17.9512 6.96815L19.6879 5.24295L16.5662 5.23057L13.6162 6.44836C12.2807 6.99966 11.3094 8.16357 10.9937 9.55251C11.817 9.96301 12.3826 10.8134 12.3826 11.7959C12.3826 13.1795 11.261 14.3011 9.87736 14.3011C8.49376 14.3011 7.37213 13.1795 7.37213 11.7959C7.37213 10.5372 8.30041 9.49527 9.50972 9.31744C9.88102 7.5458 11.0461 6.03635 12.6731 5.22998H5.56947C5.25621 6.27105 4.29018 7.02941 3.14703 7.02941C1.75011 7.02941 0.617676 5.89698 0.617676 4.50006C0.617676 3.10313 1.75011 1.9707 3.14703 1.9707C4.27543 1.9707 5.23125 2.70962 5.55702 3.72998H16.4189H16.4219L19.6734 3.74288L17.9512 2.0321C17.6573 1.74019 17.6557 1.26532 17.9476 0.971447ZM3.14703 5.52941C3.71552 5.52941 4.17638 5.06855 4.17638 4.50006C4.17638 3.93156 3.71552 3.4707 3.14703 3.4707C2.57853 3.4707 2.11768 3.93156 2.11768 4.50006C2.11768 5.06855 2.57853 5.52941 3.14703 5.52941ZM10.8826 11.7959C10.8826 12.3511 10.4325 12.8011 9.87736 12.8011C9.32218 12.8011 8.87213 12.3511 8.87213 11.7959C8.87213 11.2407 9.32218 10.7906 9.87736 10.7906C10.4325 10.7906 10.8826 11.2407 10.8826 11.7959Z" fill="#00041D"/>
<path d="M19.0083 0.967898L20.0654 -0.0963045L20.0654 -0.096307L19.0083 0.967898ZM17.9476 0.971447L16.8834 -0.0856554V-0.0856553L17.9476 0.971447ZM22.0285 3.96802L20.9714 5.03223L20.9714 5.03223L22.0285 3.96802ZM22.5642 4.50012L23.6213 5.56433L24.6927 4.50012L23.6213 3.43592L22.5642 4.50012ZM22.0285 5.03223L20.9714 3.96802L20.9714 3.96802L22.0285 5.03223ZM19.0083 8.03235L20.0654 9.09656L20.0654 9.09655L19.0083 8.03235ZM17.9476 8.0288L19.0118 6.9717L19.0118 6.9717L17.9476 8.0288ZM17.9512 6.96815L19.0083 8.03235L19.0083 8.03235L17.9512 6.96815ZM19.6879 5.24295L20.745 6.30715L23.312 3.7573L19.6939 3.74296L19.6879 5.24295ZM16.5662 5.23057L16.5721 3.73058L16.2716 3.72939L15.9938 3.84407L16.5662 5.23057ZM13.6162 6.44836L13.0438 5.06185L13.6162 6.44836ZM10.9937 9.55251L9.53101 9.22008L9.26986 10.3691L10.3244 10.8949L10.9937 9.55251ZM9.50972 9.31744L9.72796 10.8015L10.7632 10.6492L10.9778 9.62512L9.50972 9.31744ZM12.6731 5.22998L13.3392 6.57398L12.6731 3.72998V5.22998ZM5.56947 5.22998V3.72998H4.45439L4.13309 4.79777L5.56947 5.22998ZM5.55702 3.72998L4.12808 4.18619L4.46132 5.22998H5.55702V3.72998ZM16.4219 3.72998L16.4278 2.22998H16.4219V3.72998ZM19.6734 3.74288L19.6675 5.24287L23.3265 5.25738L20.7305 2.67867L19.6734 3.74288ZM17.9512 2.0321L19.0083 0.967898L19.0083 0.967896L17.9512 2.0321ZM20.0654 -0.096307C19.1838 -0.972036 17.7591 -0.967276 16.8834 -0.0856554L19.0118 2.02855C18.7199 2.32243 18.245 2.32401 17.9512 2.0321L20.0654 -0.096307ZM23.0856 2.90382L20.0654 -0.0963045L17.9512 2.0321L20.9714 5.03223L23.0856 2.90382ZM23.6213 3.43592L23.0856 2.90382L20.9714 5.03223L21.5071 5.56433L23.6213 3.43592ZM23.0856 6.09643L23.6213 5.56433L21.5071 3.43592L20.9714 3.96802L23.0856 6.09643ZM20.0654 9.09655L23.0856 6.09643L20.9714 3.96802L17.9512 6.96815L20.0654 9.09655ZM16.8834 9.08591C17.7591 9.96753 19.1838 9.97229 20.0654 9.09656L17.9512 6.96815C18.245 6.67624 18.7199 6.67782 19.0118 6.9717L16.8834 9.08591ZM16.8941 5.90394C16.0124 6.77968 16.0077 8.2043 16.8834 9.08591L19.0118 6.9717C19.3037 7.26557 19.3021 7.74044 19.0083 8.03235L16.8941 5.90394ZM18.6308 4.17874L16.8941 5.90394L19.0083 8.03235L20.745 6.30715L18.6308 4.17874ZM16.5602 6.73056L19.682 6.74294L19.6939 3.74296L16.5721 3.73058L16.5602 6.73056ZM14.1886 7.83486L17.1386 6.61707L15.9938 3.84407L13.0438 5.06185L14.1886 7.83486ZM12.4564 9.88495C12.6649 8.96774 13.3067 8.19894 14.1886 7.83486L13.0438 5.06185C11.2548 5.80038 9.95389 7.35941 9.53101 9.22008L12.4564 9.88495ZM13.8826 11.7959C13.8826 10.2229 12.9756 8.86457 11.663 8.21011L10.3244 10.8949C10.6584 11.0614 10.8826 11.4039 10.8826 11.7959H13.8826ZM9.87736 15.8011C12.0894 15.8011 13.8826 14.0079 13.8826 11.7959H10.8826C10.8826 12.3511 10.4325 12.8011 9.87736 12.8011V15.8011ZM5.87213 11.7959C5.87213 14.0079 7.66533 15.8011 9.87736 15.8011V12.8011C9.32218 12.8011 8.87213 12.3511 8.87213 11.7959H5.87213ZM9.29148 7.8334C7.35673 8.11791 5.87213 9.7822 5.87213 11.7959H8.87213C8.87213 11.2921 9.24408 10.8726 9.72796 10.8015L9.29148 7.8334ZM12.0071 3.88598C9.96721 4.89691 8.50709 6.78875 8.04162 9.00975L10.9778 9.62512C11.2549 8.30285 12.1249 7.17579 13.3392 6.57398L12.0071 3.88598ZM5.56947 6.72998H12.6731V3.72998H5.56947V6.72998ZM3.14703 8.52941C4.97034 8.52941 6.50715 7.31953 7.00585 5.66219L4.13309 4.79777C4.00526 5.22257 3.61002 5.52941 3.14703 5.52941V8.52941ZM-0.882324 4.50006C-0.882324 6.72541 0.921679 8.52941 3.14703 8.52941V5.52941C2.57853 5.52941 2.11768 5.06855 2.11768 4.50006H-0.882324ZM3.14703 0.470703C0.921679 0.470703 -0.882324 2.27471 -0.882324 4.50006H2.11768C2.11768 3.93156 2.57853 3.4707 3.14703 3.4707V0.470703ZM6.98596 3.27377C6.46746 1.64975 4.9469 0.470703 3.14703 0.470703V3.4707C3.60397 3.4707 3.99504 3.76949 4.12808 4.18619L6.98596 3.27377ZM16.4189 2.22998H5.55702V5.22998H16.4189V2.22998ZM16.4219 2.22998H16.4189V5.22998H16.4219V2.22998ZM19.6794 2.24289L16.4278 2.22999L16.4159 5.22997L19.6675 5.24287L19.6794 2.24289ZM16.8941 3.0963L18.6163 4.80708L20.7305 2.67867L19.0083 0.967898L16.8941 3.0963ZM16.8834 -0.0856553C16.0077 0.795954 16.0124 2.22057 16.8941 3.09631L19.0083 0.967896C19.3021 1.25981 19.3037 1.73468 19.0118 2.02855L16.8834 -0.0856553ZM2.67638 4.50006C2.67638 4.24013 2.8871 4.02941 3.14703 4.02941V7.02941C4.54395 7.02941 5.67638 5.89698 5.67638 4.50006H2.67638ZM3.14703 4.9707C2.8871 4.9707 2.67638 4.75999 2.67638 4.50006H5.67638C5.67638 3.10313 4.54395 1.9707 3.14703 1.9707V4.9707ZM3.61768 4.50006C3.61768 4.75999 3.40696 4.9707 3.14703 4.9707V1.9707C1.75011 1.9707 0.617676 3.10313 0.617676 4.50006H3.61768ZM3.14703 4.02941C3.40696 4.02941 3.61768 4.24013 3.61768 4.50006H0.617676C0.617676 5.89698 1.75011 7.02941 3.14703 7.02941V4.02941ZM9.87736 14.3011C11.261 14.3011 12.3826 13.1795 12.3826 11.7959H9.38259C9.38259 11.5226 9.6041 11.3011 9.87736 11.3011V14.3011ZM7.37213 11.7959C7.37213 13.1795 8.49376 14.3011 9.87736 14.3011V11.3011C10.1506 11.3011 10.3721 11.5226 10.3721 11.7959H7.37213ZM9.87736 9.29065C8.49375 9.29065 7.37213 10.4123 7.37213 11.7959H10.3721C10.3721 12.0691 10.1506 12.2906 9.87736 12.2906V9.29065ZM12.3826 11.7959C12.3826 10.4123 11.261 9.29065 9.87736 9.29065V12.2906C9.6041 12.2906 9.38259 12.0691 9.38259 11.7959H12.3826Z" fill="currentColor" mask="url(#path-1-inside-1_441_30590)"/>
</svg>