<svg width="19" height="19" viewBox="0 0 19 19" fill="none" xmlns="http://www.w3.org/2000/svg">
<path d="M14.5896 7.32457L14.576 7.31878C14.4615 7.27165 14.3632 7.17329 14.316 7.05878C14.2696 6.94601 14.2658 6.81294 14.3196 6.6746L14.3201 6.67327L14.612 5.91696C14.8132 5.56332 14.771 5.09459 14.46 4.78246L14.4594 4.78194L13.5915 3.91351L13.5914 3.9134C13.2698 3.59176 12.8116 3.56634 12.4583 3.76059L11.6928 4.06964L11.6928 4.06963L11.6897 4.0709C11.5782 4.11677 11.4469 4.12106 11.3103 4.06913C11.1976 4.02135 11.101 3.924 11.0545 3.8109L11.0487 3.79739L10.7173 3.05484C10.6031 2.63529 10.2226 2.36694 9.80788 2.36694H8.58999C8.17462 2.36694 7.79367 2.63608 7.68008 3.05667L7.34971 3.8098C7.23182 4.06346 6.94976 4.17616 6.70271 4.08233L5.96082 3.7776C5.60655 3.57276 5.13451 3.61377 4.82074 3.92643L4.81999 3.92717L3.95221 4.79549C3.95218 4.79553 3.95214 4.79557 3.9521 4.79561C3.6301 5.11771 3.60511 5.57666 3.80026 5.93013L4.10959 6.68324L4.10972 6.68354C4.15745 6.79954 4.15745 6.94278 4.10972 7.05878C4.06259 7.17329 3.96423 7.27166 3.84972 7.31878L3.83621 7.32457L3.09411 7.65577C2.67381 7.76943 2.40576 8.15053 2.40576 8.56484V9.78273C2.40576 10.1975 2.67411 10.5779 3.09365 10.6921L3.83621 11.0235L3.84972 11.0293C3.96423 11.0765 4.0626 11.1748 4.10971 11.2893L4.5721 11.0991L4.10972 11.2893C4.1557 11.4011 4.1599 11.5328 4.10757 11.6698L3.80276 12.4119C3.59792 12.7662 3.63893 13.2382 3.95158 13.552L3.95221 13.5526L4.8201 14.4205C5.14221 14.7426 5.60123 14.7676 5.95474 14.5725L6.70785 14.2631L6.70815 14.263C6.81963 14.2171 6.95096 14.2128 7.08761 14.2648C7.20032 14.3126 7.29685 14.4099 7.34338 14.523L7.34918 14.5365L7.68058 15.2791C7.79477 15.6986 8.17523 15.967 8.58999 15.967H9.80788C10.2226 15.967 10.6031 15.6986 10.7173 15.2791L11.0487 14.5365L11.0545 14.523C11.1016 14.4085 11.2 14.3101 11.3145 14.263L11.1242 13.8006L11.3145 14.263C11.4272 14.2166 11.5603 14.2127 11.6987 14.2666L11.7 14.2671L12.4563 14.5589C12.8099 14.7601 13.2787 14.7179 13.5908 14.4069L13.5914 14.4063L14.4593 13.5384C14.7826 13.2151 14.8066 12.754 14.6092 12.3999L14.2871 11.6477C14.2404 11.5321 14.2408 11.3902 14.2882 11.2751C14.3353 11.1606 14.4336 11.0622 14.5482 11.0151L14.5617 11.0093L15.3042 10.6779C15.7238 10.5637 15.9921 10.1833 15.9921 9.7685V8.55048C16.0128 8.1121 15.7122 7.76499 15.335 7.65728L14.5896 7.32457ZM9.20572 11.5227C7.91244 11.5227 6.85 10.4708 6.85 9.16702C6.85 7.86265 7.9124 6.8113 9.20572 6.8113C10.4974 6.8113 11.5614 7.87533 11.5614 9.16702C11.5614 10.4587 10.4974 11.5227 9.20572 11.5227Z" stroke="currentColor" stroke-linecap="round" stroke-linejoin="round"/>
</svg>
