
<svg width="22" height="22" viewBox="0 0 22 22" fill="none" xmlns="http://www.w3.org/2000/svg">
<path fill-rule="evenodd" clip-rule="evenodd" d="M11 2C11.4989 2 11.9033 2.40444 11.9033 2.90335V5.27881C11.9033 7.93963 14.0604 10.0967 16.7212 10.0967H19.0967C19.5956 10.0967 20 10.5011 20 11C20 11.4989 19.5956 11.9033 19.0967 11.9033H16.7212C14.0604 11.9033 11.9033 14.0604 11.9033 16.7212V19.0967C11.9033 19.5956 11.4989 20 11 20C10.5011 20 10.0967 19.5956 10.0967 19.0967V16.7212C10.0967 14.0604 7.93963 11.9033 5.27881 11.9033H2.90335C2.40444 11.9033 2 11.4989 2 11C2 10.5011 2.40444 10.0967 2.90335 10.0967H5.27881C7.93963 10.0967 10.0967 7.93963 10.0967 5.27881V2.90335C10.0967 2.40444 10.5011 2 11 2Z" fill="currentColor" stroke="currentColor" stroke-width="1.5" stroke-linecap="round" stroke-linejoin="round"/>
</svg>
