<svg xmlns="http://www.w3.org/2000/svg" width="12" height="12" viewBox="0 0 12 12" fill="none">
<g clip-path="url(#clip0_441_18333)">
<path d="M7.02455 11.2609C7.38615 11.2609 7.64229 10.9495 7.82812 10.4674L11.1178 1.87416C11.2082 1.64313 11.2634 1.43721 11.2634 1.26646C11.2634 0.939998 11.0575 0.739105 10.731 0.739105C10.5603 0.739105 10.3544 0.789334 10.1234 0.879741L1.48492 4.18945C1.06305 4.35016 0.736588 4.6063 0.736588 4.97292C0.736588 5.43498 1.08814 5.59068 1.57029 5.73631L4.28737 6.55998C4.60378 6.66044 4.78457 6.65039 5.00055 6.4495L10.51 1.30161C10.5753 1.24135 10.6507 1.2514 10.7009 1.29659C10.7511 1.34682 10.7561 1.42214 10.6958 1.48743L5.56807 7.01701C5.37722 7.22292 5.35712 7.39368 5.45758 7.73018L6.2511 10.382C6.40177 10.8892 6.55747 11.2609 7.02455 11.2609Z" fill="#B3D7FA"/>
</g>
<defs>
<clipPath id="clip0_441_18333">
<rect width="12" height="12" fill="white"/>
</clipPath>
</defs>
</svg>