<svg width="15" height="15" viewBox="0 0 15 15" fill="none" xmlns="http://www.w3.org/2000/svg">
    <g clip-path="url(#clip0_2059_26455)">
        <path
            d="M7.37583 1.01114C7.50901 1.00673 7.62836 1.0067 7.75577 1.05144C8.01222 1.14146 8.20472 1.2987 8.32274 1.54634C8.43525 1.7824 8.45802 2.05402 8.37019 2.30146C8.23719 2.6761 7.93473 2.87703 7.59516 3.03867C7.54754 3.03399 7.50006 3.02808 7.45274 3.02093C7.15635 2.97626 6.88318 2.85534 6.70264 2.60699C6.48685 2.31016 6.47384 1.97308 6.5308 1.62573C6.75604 1.31716 7.01794 1.13928 7.37583 1.01114Z"
            fill="currentColor" />
        <path
            d="M2.03 6.49139C2.18351 6.47421 2.34821 6.49001 2.49096 6.55008C2.86222 6.70632 3.08113 7.07191 3.22664 7.42815C3.20129 7.5228 3.17619 7.61914 3.14246 7.71116C3.0129 8.06462 2.7804 8.32329 2.43724 8.48192C2.34108 8.50593 2.24559 8.53886 2.15061 8.5675C2.0599 8.54182 1.9607 8.51803 1.87531 8.47806C1.62501 8.36091 1.39693 8.06087 1.3088 7.80929C1.22083 7.55816 1.23175 7.26823 1.34885 7.02799C1.49654 6.725 1.72703 6.59588 2.03 6.49139Z"
            fill="currentColor" />
        <path
            d="M7.30398 12.0186C7.50946 11.9876 7.64782 12.0029 7.83654 12.0913C8.09294 12.2115 8.31102 12.4469 8.40716 12.7137C8.4952 12.9581 8.46221 13.226 8.35174 13.4578C8.20502 13.7657 7.9986 13.8641 7.69605 13.971C7.42553 14.007 7.15959 13.9935 6.92527 13.8361C6.69623 13.6822 6.57164 13.4418 6.52133 13.175C6.47173 12.9117 6.50779 12.6759 6.66048 12.4533C6.81027 12.2349 7.04303 12.0681 7.30398 12.0186Z"
            fill="currentColor" />
        <path
            d="M9.92208 3.76464C10.0634 3.74166 10.2609 3.74147 10.3959 3.78795C10.6647 3.88047 10.872 4.08236 10.9931 4.33755C11.1022 4.56764 11.1231 4.813 11.0362 5.05398C10.9148 5.39069 10.6476 5.61829 10.3334 5.76662C10.2636 5.78205 10.1928 5.79576 10.1211 5.79582C9.8858 5.79601 9.64644 5.67349 9.48397 5.50896C9.18824 5.20943 9.15239 4.89748 9.1549 4.49703C9.33905 4.10549 9.53294 3.94278 9.92208 3.76464Z"
            fill="currentColor" />
        <path
            d="M9.78047 9.29187C9.91681 9.27812 10.0573 9.26232 10.1943 9.27205C10.4678 9.29146 10.7248 9.45807 10.9001 9.66164C11.052 9.83804 11.1471 10.0533 11.1288 10.289C11.0957 10.7159 10.7297 10.9619 10.4326 11.218C10.2219 11.3 10.0106 11.2906 9.79905 11.2074C9.54709 11.1084 9.34881 10.9037 9.24247 10.6564C9.12935 10.3934 9.12016 10.0838 9.22941 9.81782C9.33807 9.55335 9.5216 9.40025 9.78047 9.29187Z"
            fill="currentColor" />
        <path
            d="M7.38027 6.49852C7.62672 6.48506 7.82215 6.54104 8.02184 6.69014C8.31628 6.90999 8.45796 7.21872 8.51051 7.57389C8.43838 7.75485 8.34142 7.93989 8.23796 8.10465C8.08116 8.35435 7.87531 8.44434 7.60104 8.50654C7.38248 8.50451 7.18903 8.49343 6.99395 8.38143C6.76028 8.24727 6.60196 8.01554 6.53486 7.75683C6.46718 7.49597 6.50026 7.22589 6.63974 6.99401C6.81808 6.69754 7.0598 6.57927 7.38027 6.49852Z"
            fill="currentColor" />
        <path
            d="M4.64813 3.74169C4.81776 3.72564 4.98946 3.73799 5.14821 3.80271C5.40724 3.90832 5.61575 4.10718 5.72447 4.36621C5.83252 4.62363 5.82773 4.90846 5.7206 5.16552C5.57706 5.51001 5.32349 5.64967 4.99786 5.78465C4.91557 5.78683 4.83384 5.78107 4.75268 5.76735C4.67151 5.75364 4.59243 5.73223 4.51542 5.70314C4.4844 5.69156 4.45405 5.67846 4.42437 5.66383C4.39468 5.6492 4.3658 5.63311 4.33772 5.61557C4.30965 5.59803 4.28253 5.57913 4.25637 5.55886C4.2302 5.53859 4.20512 5.51705 4.18111 5.49426C4.15712 5.47146 4.13432 5.44752 4.11274 5.42243C4.09115 5.39733 4.07088 5.37122 4.05192 5.34409C4.03296 5.31696 4.01541 5.28894 3.99927 5.26004C3.98313 5.23114 3.96849 5.2015 3.95533 5.17113C3.85169 4.93512 3.80915 4.62465 3.90563 4.37962C4.03398 4.05364 4.34482 3.8738 4.64813 3.74169Z"
            fill="currentColor" />
        <path
            d="M12.5321 6.49541C12.7768 6.47412 12.9927 6.46956 13.211 6.59763C13.4526 6.73944 13.6215 7.01488 13.6912 7.28204C13.7601 7.5466 13.7021 7.82232 13.5653 8.0555C13.4137 8.31419 13.2267 8.42593 12.9477 8.49864C12.7554 8.5269 12.5227 8.49389 12.3481 8.41125C12.1016 8.2946 11.9178 8.07396 11.8275 7.81862C11.816 7.78674 11.8062 7.75436 11.7979 7.7215C11.7897 7.68864 11.7831 7.65544 11.7782 7.62192C11.7732 7.5884 11.77 7.55471 11.7684 7.52086C11.7669 7.48702 11.767 7.45318 11.7688 7.41934C11.7706 7.38551 11.7741 7.35185 11.7793 7.31836C11.7844 7.28487 11.7913 7.25173 11.7997 7.21892C11.8082 7.18612 11.8183 7.15382 11.83 7.12203C11.8417 7.09023 11.855 7.05909 11.8698 7.02862C12.0099 6.73932 12.2393 6.59607 12.5321 6.49541Z"
            fill="currentColor" />
        <path
            d="M4.68276 9.19824C4.86214 9.20715 5.02237 9.23105 5.18642 9.31086C5.45048 9.43933 5.66662 9.66791 5.76037 9.94817C5.84182 10.1917 5.82425 10.4738 5.70724 10.7033C5.56652 10.9792 5.31301 11.1408 5.02794 11.235C4.90705 11.2452 4.78188 11.2495 4.6625 11.2247C4.25646 11.1405 4.0522 10.8805 3.83936 10.5531C3.8507 10.2759 3.84682 9.98465 3.97775 9.73207C4.12154 9.4547 4.39338 9.28949 4.68276 9.19824Z"
            fill="currentColor" />
    </g>
    <defs>
        <clipPath id="clip0_2059_26455">
            <rect width="14.5" height="14.5" fill="white" transform="translate(0.5 0.5)" />
        </clipPath>
    </defs>
</svg>
    