<svg xmlns="http://www.w3.org/2000/svg" width="14" height="14" viewBox="0 0 14 14" fill="none">
    <path fill-rule="evenodd" clip-rule="evenodd" d="M7 14C10.866 14 14 10.866 14 7C14 3.13401 10.866 0 7 0C3.13401 0 0 3.13401 0 7C0 10.866 3.13401 14 7 14ZM10.6685 6.19785C11.0523 5.82866 11.0642 5.21822 10.695 4.8344C10.3258 4.45059 9.71533 4.43873 9.33151 4.80793L5.84159 8.1649L4.66849 7.03648C4.28468 6.66728 3.67424 6.67913 3.30504 7.06295C2.93584 7.44676 2.94769 8.0572 3.33151 8.4264L5.17309 10.1978C5.54641 10.5569 6.13675 10.557 6.51007 10.1979L10.6685 6.19785Z" fill="#84CD57"/>
</svg>