<svg xmlns="http://www.w3.org/2000/svg" width="11" height="14" viewBox="0 0 11 14" fill="none">
    <path d="M0.441407 9.91827L0.441406 3.39349H1.72781V2.84218L2.78788 2.84218C2.78466 2.79421 2.78303 2.74586 2.78303 2.69717C2.78303 1.3691 3.99924 0.292481 5.49952 0.29248C6.9998 0.29248 8.21601 1.3691 8.21601 2.69717C8.21601 2.74586 8.21438 2.79421 8.21115 2.84218L9.27211 2.84218V3.39349H10.5572V9.91827H8.84597L8.84597 10.4688H8.21107C8.21435 10.5172 8.21601 10.5659 8.21601 10.6151C8.21601 11.9431 6.9998 13.0198 5.49952 13.0198C3.99924 13.0198 2.78303 11.9431 2.78303 10.6151C2.78303 10.5659 2.78469 10.5172 2.78797 10.4688H2.15412V9.91827H0.441407Z" fill="currentColor"/>
</svg>