<svg xmlns="http://www.w3.org/2000/svg" width="48" height="48" viewBox="0 0 28 28" fill="none">
  <path fill="currentColor" d="M24.232 19.653a.658.658 0 0 1-.935.024 3.1 3.1 0 0 1-.518-.588c-.904-1.238-2.03-1.612-3.464-1.089v.001q-.825.314-1.595.749a3.96 3.96 0 0 1-3.976 0c-.355-.186-.705-.377-1.06-.562v-.002a2.22 2.22 0 0 0-2.039-.102q-.773.35-1.503.785a3.56 3.56 0 0 1-3.994 0c-.32-.199-.652-.379-.98-.57a3 3 0 0 1-.281-.193.81.81 0 0 1-.304-1.048c.186-.33.557-.444.99-.246q.647.287 1.243.668c.917.597 1.793.565 2.694-.05a9 9 0 0 1 1.363-.744 3.93 3.93 0 0 1 3.663.09c.376.196.749.395 1.133.578a2.38 2.38 0 0 0 2.235-.044q.929-.51 1.916-.887c2.226-.786 4.33 0 5.529 2.023a.996.996 0 0 1-.116 1.207m-7.73-7.914c0-.768.304-1.504.844-2.045a2.84 2.84 0 0 1 2.032-.835c1.606.033 2.886 1.369 2.868 2.993 0 .768-.304 1.504-.843 2.044-.54.54-1.27.841-2.03.835-1.604-.04-2.88-1.37-2.87-2.992m1.666 0c-.016.334.1.66.324.907s.537.39.868.402c.319.015.63-.1.863-.319.233-.22.368-.527.376-.849a1.304 1.304 0 0 0-1.242-1.35c-.32-.01-.63.114-.855.343a1.18 1.18 0 0 0-.334.866m-9.546 3.422a.77.77 0 0 0 .964-.134c.174-.16.32-.348.484-.524.995-1.047 1.65-1.173 2.868-.434a29 29 0 0 1 2.468 1.761c.518.39.948.482 1.254.168.305-.314.233-.819-.26-1.309l-.05-.05a12.3 12.3 0 0 0-3.11-2.185 6 6 0 0 0-.968-.343 2.56 2.56 0 0 0-1.627.063c-.951.369-1.906 1.094-2.27 1.832q-.03.063-.053.131a.834.834 0 0 0 .3 1.024"/>
</svg>