<svg width="21" height="11" viewBox="0 0 21 11" fill="none" xmlns="http://www.w3.org/2000/svg">
<path d="M20.7323 10.7935C20.707 10.8201 20.6787 10.8446 20.6493 10.8671C20.3913 11.0614 20.0321 11.0409 19.7973 10.817C19.601 10.6442 19.4269 10.4468 19.2792 10.23C18.3755 8.99165 17.2483 8.61738 15.8154 9.14094V9.14197C15.2659 9.35058 14.7326 9.60111 14.2196 9.89051C12.9881 10.6033 11.4752 10.6033 10.2437 9.89051C9.88848 9.7044 9.53935 9.51318 9.18419 9.3281V9.32707C8.56086 8.96304 7.80091 8.92518 7.14517 9.22482C6.6301 9.45797 6.12819 9.71974 5.64247 10.0102C4.43321 10.8262 2.85766 10.8262 1.64841 10.0102C1.32762 9.81076 0.995727 9.63079 0.668881 9.43956C0.571737 9.38127 0.476616 9.31582 0.386567 9.24629C0.0303706 9.03052 -0.101176 8.57444 0.0829841 8.19915C0.269177 7.86886 0.639531 7.75433 1.07264 7.95271C1.50373 8.14393 1.91961 8.36685 2.31629 8.62046C3.2331 9.21765 4.10942 9.18597 5.00991 8.57036H5.01093C5.44302 8.28506 5.89939 8.03553 6.37297 7.82694C7.53567 7.25021 8.90276 7.28395 10.0362 7.91591C10.4116 8.11224 10.785 8.31165 11.1686 8.49469C11.8749 8.8526 12.7117 8.83623 13.4039 8.45071C14.0222 8.11121 14.6627 7.81466 15.3205 7.56311C17.5457 6.77776 19.6495 7.56311 20.8486 9.58683C20.8587 9.60012 20.8678 9.61546 20.8749 9.6308C21.0844 10.0081 21.0268 10.4795 20.7323 10.7935ZM13.0022 2.87975C13.0022 2.11178 13.3058 1.37551 13.8461 0.83456C14.3865 0.29361 15.1181 -0.00702213 15.8781 0.000124567C17.484 0.0328475 18.7642 1.36836 18.7458 2.99231C18.7458 3.76028 18.4422 4.49655 17.9029 5.03648C17.3635 5.57743 16.6329 5.87806 15.873 5.87194C14.2691 5.83206 12.9921 4.50165 13.0022 2.87975ZM14.6678 2.87975C14.6516 3.21412 14.768 3.54033 14.9916 3.78678C15.2163 4.03322 15.529 4.17741 15.8599 4.18867C16.1786 4.204 16.4893 4.08947 16.723 3.8696C16.9558 3.64872 17.0914 3.34297 17.0985 3.02085C17.1217 2.30298 16.5672 1.69965 15.8568 1.66999C15.537 1.65977 15.2274 1.78452 15.0017 2.01358C14.7771 2.24264 14.6557 2.5566 14.6678 2.87975ZM5.12229 6.30126C5.43396 6.49044 5.83468 6.43522 6.08565 6.1673C6.25971 6.00777 6.40644 5.81963 6.57037 5.64373C7.56507 4.5966 8.22081 4.47081 9.43807 5.20912C10.2911 5.75211 11.1148 6.3401 11.9061 6.97106C12.4242 7.36067 12.8543 7.45268 13.1599 7.13876C13.4655 6.82483 13.3926 6.31966 12.9008 5.82984L12.8492 5.77973C11.9314 4.89315 10.8831 4.15586 9.74061 3.59444C9.42793 3.45128 9.10412 3.33675 8.77219 3.25187C8.23689 3.09541 7.66617 3.11689 7.14504 3.31425C6.19383 3.68342 5.23858 4.40843 4.87531 5.14673C4.85507 5.18866 4.83685 5.23263 4.82168 5.27763C4.66179 5.64679 4.78936 6.07935 5.12229 6.30126Z" fill="#AEB0B7"/>
</svg>
