<svg xmlns="http://www.w3.org/2000/svg" width="14" height="12" viewBox="0 0 14 12" fill="none">
<path fill-rule="evenodd" clip-rule="evenodd" d="M7.86562 1.10547C7.48072 0.438802 6.51847 0.438803 6.13357 1.10547L1.08859 9.84362C0.703691 10.5103 1.18482 11.3436 1.95462 11.3436H12.0446C12.8144 11.3436 13.2955 10.5103 12.9106 9.84362L7.86562 1.10547ZM7.56375 6.11465C7.67575 5.49865 7.73175 4.97865 7.73175 4.57065C7.76375 3.16265 6.08375 3.16265 6.12375 4.57065C6.12375 4.98665 6.17175 5.50665 6.27575 6.12265C6.37975 6.73865 6.49975 7.20265 6.63575 7.50665C6.83575 7.94665 7.01175 7.94665 7.19575 7.50665C7.33175 7.19465 7.45175 6.73065 7.56375 6.11465ZM6.91575 8.13065C6.49975 8.13065 6.16375 8.47465 6.16375 8.89065C6.16375 9.31465 6.49975 9.65065 6.91575 9.65065C7.33175 9.65065 7.67575 9.31465 7.67575 8.89065C7.67575 8.47465 7.33175 8.13065 6.91575 8.13065Z" fill="currentColor"/>
</svg>
