<svg xmlns="http://www.w3.org/2000/svg" width="24" height="24" viewBox="0 0 24 24">
  <g clip-path="url(#a)">
    <g fill="currentColor" clip-path="url(#b)">
      <path d="M15.242 18.4a.726.726 0 0 1-.606 1.12H1.28a.724.724 0 0 1-.607-1.12 8.674 8.674 0 0 1 4.274-3.414 5.43 5.43 0 1 1 6.02 0 8.675 8.675 0 0 1 4.274 3.413z"/>
      <path fill-opacity=".2" d="M23.198 18.386a8.678 8.678 0 0 0-4.266-3.4 5.431 5.431 0 0 0-5.481-9.353.362.362 0 0 0-.12.543 6.865 6.865 0 0 1 .328 8.141.362.362 0 0 0 .097.5 10.167 10.167 0 0 1 2.702 2.791c.287.44.405.97.33 1.491a.362.362 0 0 0 .358.42h5.458a.723.723 0 0 0 .7-.536.745.745 0 0 0-.106-.597z"/>
    </g>
  </g>
  <defs>
    <clipPath id="a">
      <path fill="#fff" d="M0 .277h24v24H0z"/>
    </clipPath>
    <clipPath id="b">
      <path fill="#fff" d="M.35.691h23.172v23.172H.35z"/>
    </clipPath>
  </defs>
</svg>