<svg xmlns="http://www.w3.org/2000/svg" width="24" height="24" fill="none" viewBox="0 0 24 24">
  <g fill="currentColor" clip-path="url(#a)">
    <path fill-opacity=".2" d="M21.079 8.507a1.337 1.337 0 1 0 2.224 1.486 1.337 1.337 0 0 0-2.224-1.486ZM20.26 6.35a1.337 1.337 0 1 1-1.487-2.224A1.337 1.337 0 0 1 20.26 6.35zM22.06 13.026a.891.891 0 0 1 1.26.104.892.892 0 0 1 .209.653A11.608 11.608 0 0 1 9.459 24.12 11.604 11.604 0 0 1 1.065 8.81a11.606 11.606 0 0 1 9.907-7.585.894.894 0 1 1 .147 1.783A9.82 9.82 0 0 0 2.375 14.92a9.823 9.823 0 0 0 17.389 3.843 9.823 9.823 0 0 0 1.985-5.13.892.892 0 0 1 .312-.607zM16.247 3.675A1.337 1.337 0 1 1 14.76 1.45a1.337 1.337 0 0 1 1.486 2.224z"/>
    <path d="M11.93 4.792a8.024 8.024 0 0 1 5.674 13.7 8.025 8.025 0 0 1-13.699-5.674 8.035 8.035 0 0 1 8.025-8.026Zm-.892 8.026a.892.892 0 0 0 .892.891h5.35a.891.891 0 1 0 0-1.783H12.82V7.467a.892.892 0 0 0-1.783 0z"/>
  </g>
  <defs>
    <clipPath id="a">
      <path fill="#fff" d="M0 .426h24v24H0z"/>
    </clipPath>
  </defs>
</svg>