<svg width="10" height="12" viewBox="0 0 10 12" fill="none" xmlns="http://www.w3.org/2000/svg">
<path id="Union" fill-rule="evenodd" clip-rule="evenodd" d="M0.765625 0.562622C1.04177 0.562622 1.26562 0.78648 1.26562 1.06262L1.26562 11.1962C1.26562 11.4723 1.04177 11.6962 0.765625 11.6962C0.489482 11.6962 0.265625 11.4723 0.265625 11.1962V1.06262C0.265625 0.78648 0.489483 0.562622 0.765625 0.562622ZM4.76562 0.562622C5.04177 0.562622 5.26562 0.78648 5.26562 1.06262L5.26562 11.1962C5.26562 11.4723 5.04177 11.6962 4.76562 11.6962C4.48948 11.6962 4.26562 11.4723 4.26562 11.1962L4.26562 1.06262C4.26562 0.78648 4.48948 0.562622 4.76562 0.562622ZM9.26562 1.06262C9.26562 0.78648 9.04177 0.562622 8.76562 0.562622C8.48948 0.562622 8.26562 0.78648 8.26562 1.06262L8.26562 11.1962V11.6962H9.26562V11.1962V1.06262Z" fill="currentColor"/>
</svg>
