<svg xmlns="http://www.w3.org/2000/svg" width="16" height="16" viewBox="0 0 16 16" fill="none">
<g clip-path="url(#clip0_441_18371)">
<path d="M6.57029 14.7868C7.42074 15.6373 8.606 15.6239 9.45643 14.7735L14.7735 9.45645C15.6239 8.60603 15.6373 7.41405 14.7935 6.57031L9.42966 1.20648C8.5792 0.362712 7.39394 0.382797 6.54352 1.23325L1.23323 6.54354C0.382772 7.39397 0.362686 8.57923 1.21314 9.42968L6.57029 14.7868ZM7.79572 9.798C7.43412 9.798 7.23323 9.61048 7.23323 9.24888V9.15514C7.23323 8.4654 7.60823 8.0904 8.11717 7.74217C8.73323 7.32031 9.02786 7.07923 9.02786 6.59708C9.02786 6.06808 8.61269 5.70648 7.96983 5.70648C7.50109 5.70648 7.14617 5.94085 6.93189 6.32254C6.7042 6.5904 6.64394 6.798 6.24214 6.798C6.00777 6.798 5.76003 6.6306 5.76003 6.31585C5.76003 6.19531 5.78012 6.08145 5.82029 5.96763C5.9944 5.31808 6.80466 4.74888 8.01672 4.74888C9.20869 4.74888 10.2466 5.37834 10.2466 6.54354C10.2466 7.38728 9.7578 7.78905 9.08143 8.25111C8.59929 8.57923 8.35823 8.82031 8.35823 9.2154V9.30246C8.35823 9.577 8.15063 9.798 7.79572 9.798ZM7.82251 11.8136C7.43411 11.8136 7.07251 11.5056 7.07251 11.0904C7.07251 10.6752 7.42743 10.3672 7.82251 10.3672C8.21092 10.3672 8.57252 10.6685 8.57252 11.0904C8.57252 11.5123 8.2042 11.8136 7.82251 11.8136Z" fill="#AEB0B7"/>
</g>
<defs>
<clipPath id="clip0_441_18371">
<rect width="16" height="16" fill="white"/>
</clipPath>
</defs>
</svg>