<svg xmlns="http://www.w3.org/2000/svg" width="12" height="9" viewBox="0 0 11.7143 8.5" fill="none">
  <path d="M4.78571 5.85714C4.78571 7.04061 3.82632 8 2.64286 8C1.45939 8 0.5 7.04061 0.5 5.85714C0.5 4.67368 1.45939 3.71429 2.64286 3.71429C3.82632 3.71429 4.78571 4.67368 4.78571 5.85714ZM4.78571 5.85714C4.78571 5.57298 4.8986 5.30046 5.09953 5.09953C5.30046 4.8986 5.57298 4.78571 5.85714 4.78571C6.1413 4.78571 6.41383 4.8986 6.61476 5.09953C6.81569 5.30046 6.92857 5.57298 6.92857 5.85714M6.92857 5.85714C6.92857 7.04061 7.88796 8 9.07143 8C10.2549 8 11.2143 7.04061 11.2143 5.85714C11.2143 4.67368 10.2549 3.71429 9.07143 3.71429C7.88796 3.71429 6.92857 4.67368 6.92857 5.85714ZM0.767857 4.78571L2.10714 1.57143C2.48214 0.875 2.85714 0.5 3.71429 0.5M10.9464 4.78571L9.60714 1.57143C9.23214 0.875 8.80357 0.5 8 0.5" stroke="currentColor" stroke-linecap="round" stroke-linejoin="round"/>
</svg>
