
<svg width="15" height="15" viewBox="0 0 15 15" fill="none" xmlns="http://www.w3.org/2000/svg">
<path fill-rule="evenodd" clip-rule="evenodd" d="M8.36562 2.60547C7.98072 1.9388 7.01847 1.9388 6.63357 2.60547L1.58859 11.3436C1.20369 12.0103 1.68482 12.8436 2.45462 12.8436H12.5446C13.3144 12.8436 13.7955 12.0103 13.4106 11.3436L8.36562 2.60547ZM8.06375 7.61465C8.17575 6.99865 8.23175 6.47865 8.23175 6.07065C8.26375 4.66265 6.58375 4.66265 6.62375 6.07065C6.62375 6.48665 6.67175 7.00665 6.77575 7.62265C6.87975 8.23865 6.99975 8.70265 7.13575 9.00665C7.33575 9.44665 7.51175 9.44665 7.69575 9.00665C7.83175 8.69465 7.95175 8.23065 8.06375 7.61465ZM7.41575 9.63065C6.99975 9.63065 6.66375 9.97465 6.66375 10.3906C6.66375 10.8146 6.99975 11.1506 7.41575 11.1506C7.83175 11.1506 8.17575 10.8146 8.17575 10.3906C8.17575 9.97465 7.83175 9.63065 7.41575 9.63065Z" fill="currentColor"/>
</svg>
