<svg xmlns="http://www.w3.org/2000/svg" width="20" height="20" viewBox="0 0 20 20" fill="none">
  <path fill="currentColor" d="M14.725 13.674c-.544.997-1.551 1.61-2.643 1.61h-1.765V9.02l-2.548 4.657c-.545.997-1.552 1.61-2.643 1.61H3.373V6.039h3.526v6.25l3.418-6.247v-.003h3.525v6.276l3.703-6.773a.9.9 0 0 0-.015-.884C15.822 1.82 12.794-.053 9.353.001 4.106.087-.027 4.532 0 10.054.027 15.552 4.271 20 9.5 20c5.23 0 9.5-4.477 9.5-9.999 0-.89-.112-1.752-.32-2.574-.062-.25-.378-.295-.5-.073l-3.456 6.319z"/>
</svg>