<svg xmlns="http://www.w3.org/2000/svg" width="32" height="32" viewBox="0 0 32 32" fill="none">
  <rect width="32" height="32" rx="16" fill="#3396FF"/>
  <path d="M10.4 12.2c3.1-3.1 8.1-3.1 11.2 0l.4.4c.2.2.2.4 0 .5l-1.2 1.2c-.1.1-.2.1-.3 0l-.5-.5c-2.2-2.2-5.7-2.2-7.8 0l-.5.5c-.1.1-.2.1-.3 0l-1.2-1.2c-.2-.2-.2-.4 0-.5l.2-.4Zm13.8 2.6 1.1 1.1c.2.2.2.4 0 .5l-4.8 4.8c-.2.2-.4.2-.5 0l-3.4-3.4c0-.1-.1-.1-.1 0l-3.4 3.4c-.2.2-.4.2-.5 0l-4.8-4.8c-.2-.2-.2-.4 0-.5l1.1-1.1c.2-.2.4-.2.5 0l3.4 3.4c0 .1.1.1.1 0l3.4-3.4c.2-.2.4-.2.5 0l3.4 3.4c0 .1.1.1.1 0l3.4-3.4c.2-.2.4-.2.5 0Z" fill="#fff"/>
</svg>
