<svg width="24" height="25" viewBox="0 0 24 25" fill="none" xmlns="http://www.w3.org/2000/svg">
<g clip-path="url(#clip0_23447_17445)">
<g clip-path="url(#clip1_23447_17445)">
<path d="M15.2421 18.3994C15.3133 18.5087 15.3537 18.6352 15.3591 18.7655C15.3644 18.8958 15.3344 19.0252 15.2723 19.1399C15.2101 19.2546 15.1182 19.3504 15.0061 19.4171C14.8941 19.4839 14.766 19.5191 14.6356 19.5191H1.28069C1.15025 19.5191 1.02224 19.4839 0.910176 19.4171C0.798114 19.3504 0.706164 19.2546 0.644041 19.1399C0.581918 19.0252 0.551929 18.8958 0.557242 18.7655C0.562555 18.6352 0.602972 18.5087 0.674225 18.3994C1.69354 16.8304 3.19286 15.6331 4.94845 14.986C3.97792 14.3399 3.24109 13.3986 2.84691 12.3013C2.45273 11.2041 2.42213 10.0091 2.75964 8.89305C3.09715 7.77704 3.78485 6.79927 4.72104 6.10433C5.65723 5.40939 6.79222 5.03418 7.95815 5.03418C9.12408 5.03418 10.2591 5.40939 11.1952 6.10433C12.1314 6.79927 12.8191 7.77704 13.1566 8.89305C13.4942 10.0091 13.4636 11.2041 13.0694 12.3013C12.6752 13.3986 11.9384 14.3399 10.9678 14.986C12.7234 15.6331 14.2227 16.8304 15.2421 18.3994Z" fill="currentColor"/>
<path d="M23.1977 18.3861C22.1781 16.8237 20.6822 15.6315 18.9317 14.9862C20.0774 14.2144 20.886 13.035 21.1928 11.6881C21.4997 10.3412 21.2817 8.9279 20.5832 7.73601C19.8848 6.54412 18.7584 5.66318 17.4334 5.27249C16.1083 4.88181 14.6842 5.01076 13.4508 5.63309C13.4037 5.65744 13.3624 5.69186 13.3301 5.73392C13.2977 5.77597 13.275 5.82463 13.2635 5.87645C13.252 5.92827 13.252 5.98198 13.2636 6.03378C13.2752 6.08557 13.298 6.13419 13.3305 6.17619C14.2475 7.32016 14.7742 8.72773 14.8334 10.1927C14.8925 11.6577 14.4809 13.1032 13.659 14.3173C13.6059 14.3967 13.5863 14.4938 13.6044 14.5875C13.6226 14.6813 13.677 14.7641 13.7559 14.8179C14.8275 15.5658 15.7449 16.5133 16.4578 17.6085C16.7453 18.0488 16.8628 18.5788 16.7882 19.0993C16.7798 19.1511 16.7828 19.2041 16.7969 19.2546C16.811 19.3052 16.8359 19.352 16.8699 19.392C16.9039 19.4319 16.9462 19.464 16.9938 19.486C17.0415 19.508 17.0933 19.5194 17.1458 19.5193H22.6039C22.7634 19.5194 22.9184 19.4668 23.0449 19.3697C23.1714 19.2727 23.2624 19.1366 23.3036 18.9826C23.3288 18.8813 23.3324 18.7758 23.3142 18.673C23.2959 18.5703 23.2562 18.4725 23.1977 18.3861Z" fill="currentColor" fill-opacity="0.2"/>
</g>
</g>
<defs>
<clipPath id="clip0_23447_17445">
<rect width="24" height="24" fill="white" transform="translate(0 0.277344)"/>
</clipPath>
<clipPath id="clip1_23447_17445">
<rect width="23.1724" height="23.1724" fill="white" transform="translate(0.349609 0.691406)"/>
</clipPath>
</defs>
</svg>
