
<svg width="162" height="209" viewBox="0 0 162 209" fill="none" xmlns="http://www.w3.org/2000/svg">
<path opacity="0.02" d="M65.1733 51.5867L65.1736 51.587C68.6944 55.264 69.3783 61.1218 67.4743 67.7341C65.5743 74.3324 61.1183 81.5781 54.5406 87.877C47.963 94.1759 40.5339 98.3072 33.8624 99.9128C27.1768 101.522 21.3565 100.578 17.8354 96.9011C14.3147 93.2241 13.631 87.3678 15.5348 80.7566C17.4346 74.1595 21.89 66.9147 28.4658 60.6146C35.0415 54.3147 42.4724 50.1807 49.1456 48.5734C55.833 46.9628 61.6545 47.906 65.1733 51.5867ZM166.674 156.267L166.674 156.266C162.797 152.221 156.547 151.319 149.693 152.97C142.825 154.626 135.247 158.861 128.553 165.263C127.746 166.035 126.969 166.822 126.225 167.62C126.054 167.448 125.887 167.276 125.722 167.103C120.985 162.121 118.892 156.617 120.311 151.743C121.73 146.869 126.454 143.347 133.13 141.689C139.792 140.035 148.295 140.27 157.048 142.831L157.048 142.831C165.791 145.387 173.086 149.757 177.816 154.729C182.556 159.711 184.654 165.214 183.235 170.088C181.816 174.962 177.092 178.481 170.417 180.137C169.04 180.478 167.584 180.739 166.064 180.916C167.44 178.371 168.495 175.83 169.207 173.367C171.165 166.592 170.544 160.309 166.674 156.267ZM116.284 186.119C117.887 180.575 121.3 174.573 126.265 169.055C131.117 173.641 138.065 177.58 146.218 179.959C152.525 181.8 158.728 182.463 164.249 182.086C161.971 185.906 158.958 189.71 155.284 193.223C148.692 199.526 141.262 203.658 134.593 205.263C127.911 206.872 122.097 205.928 118.576 202.251C115.055 198.574 114.374 192.724 116.284 186.119ZM164.856 181.037C159.302 181.509 152.969 180.887 146.498 179C138.465 176.655 131.66 172.782 126.941 168.318C127.677 167.529 128.445 166.75 129.244 165.986C135.834 159.684 143.26 155.549 149.927 153.943C156.608 152.333 162.423 153.276 165.952 156.958C169.473 160.635 170.155 166.485 168.246 173.089C167.5 175.671 166.361 178.352 164.856 181.037ZM197.926 2.84038L197.926 2.84043C206.67 5.39603 213.964 9.76629 218.691 14.7433C223.428 19.7306 225.52 25.245 224.088 30.142C222.656 35.0392 217.924 38.5598 211.249 40.2112C204.588 41.8593 196.091 41.6126 187.352 39.0544C178.612 36.4961 171.317 32.1257 166.589 27.1493C161.852 22.1624 159.758 16.6494 161.19 11.7525C162.621 6.8553 167.353 3.33481 174.028 1.68338C180.69 0.0353751 189.187 0.282152 197.926 2.84038ZM137.888 50.2403C138.05 50.4031 138.208 50.5666 138.364 50.7307C143.101 55.7175 145.193 61.2318 143.76 66.1308C142.327 71.03 137.596 74.5509 130.922 76.2021C124.261 77.8499 115.765 77.6022 107.024 75.0429C98.2822 72.4835 90.9874 68.1132 86.26 63.1371C81.5226 58.1507 79.4298 52.6382 80.8615 47.7413C82.2932 42.8441 87.0253 39.3236 93.7006 37.6722C95.0798 37.331 96.5376 37.071 98.06 36.8959C96.684 39.4467 95.6286 41.995 94.9174 44.4644C92.9643 51.2454 93.5853 57.5365 97.4556 61.5785C101.326 65.6202 107.582 66.5205 114.44 64.8692C121.313 63.2144 128.895 58.981 135.577 52.5817C136.378 51.8146 137.149 51.0332 137.888 50.2403ZM99.2669 36.7761C104.817 36.3107 111.141 36.9391 117.598 38.8292L117.599 38.8293C125.638 41.1791 132.453 45.0623 137.173 49.541C136.442 50.3257 135.679 51.0995 134.886 51.8595C128.308 58.1583 120.878 62.2905 114.206 63.897C107.52 65.5069 101.699 64.5642 98.1779 60.8869C94.6571 57.21 93.9741 51.3528 95.8783 44.7412C96.6235 42.1537 97.7618 39.4666 99.2669 36.7761ZM99.8719 35.7276C102.143 31.9086 105.148 28.1079 108.809 24.6008C115.383 18.3028 122.811 14.1744 129.483 12.5696C136.168 10.9614 141.991 11.9034 145.516 15.5734C149.037 19.2504 149.722 25.1072 147.818 31.7185C146.219 37.2714 142.81 43.283 137.848 48.8032C132.995 44.2032 126.038 40.2541 117.879 37.8694C111.584 36.0268 105.39 35.3566 99.8719 35.7276ZM246.265 120.965L246.265 120.965C249.786 124.642 250.469 130.491 248.56 137.096C246.655 143.686 242.19 150.926 235.597 157.229C229.005 163.532 221.575 167.664 214.906 169.27C208.224 170.879 202.411 169.935 198.89 166.257C195.369 162.58 194.686 156.731 196.595 150.126C198.5 143.535 202.965 136.296 209.557 129.993C216.15 123.69 223.581 119.556 230.25 117.949C236.933 116.339 242.746 117.284 246.265 120.965ZM180.999 105.131C183.162 113.99 183.025 122.49 181.078 129.067C179.127 135.658 175.397 140.221 170.445 141.432C165.492 142.642 160.078 140.305 155.307 135.351C150.546 130.407 146.505 122.927 144.342 114.084C142.18 105.242 142.317 96.7421 144.264 90.1606C146.214 83.5652 149.944 78.9947 154.896 77.7846C159.849 76.5744 165.264 78.9119 170.036 83.8662C174.797 88.81 178.838 96.2899 180.999 105.131ZM39.3628 139.74C41.5262 148.598 41.3887 157.098 39.4418 163.675C37.4908 170.266 33.7609 174.829 28.8081 176.039C23.8558 177.25 18.4412 174.913 13.6705 169.958C8.90971 165.014 4.86919 157.533 2.70785 148.689C0.546526 139.844 0.684002 131.345 2.63048 124.764C4.58105 118.169 8.31006 113.599 13.2625 112.389C18.2148 111.179 23.6303 113.516 28.4016 118.471C33.1628 123.415 37.2033 130.896 39.3628 139.74L39.8485 139.621L39.3628 139.74ZM76.7309 178.8C85.4742 181.356 92.769 185.726 97.4993 190.698C102.24 195.68 104.337 201.183 102.918 206.057C101.5 210.931 96.7764 214.449 90.1013 216.104C83.4407 217.756 74.9376 217.519 66.1836 214.965C57.4294 212.411 50.1348 208.04 45.4075 203.069C40.67 198.086 38.5776 192.582 39.9964 187.708C41.4152 182.834 46.1376 179.316 52.812 177.66C59.472 176.008 67.975 176.245 76.7309 178.8ZM261.33 69.1486C263.493 78.0071 263.356 86.5069 261.409 93.0845C259.458 99.6756 255.728 104.239 250.775 105.449C245.823 106.659 240.409 104.322 235.638 99.3677C230.877 94.4237 226.836 86.9429 224.675 78.0983C222.514 69.2537 222.651 60.7538 224.598 54.1727C226.548 47.5777 230.277 43.0081 235.229 41.798C240.182 40.5879 245.597 42.9253 250.369 47.88C255.13 52.8243 259.17 60.3051 261.33 69.1486ZM108.735 82.4851C113.496 87.4294 117.537 94.9093 119.699 103.749C121.862 112.607 121.725 121.107 119.778 127.685C117.827 134.276 114.097 138.839 109.144 140.049C104.192 141.259 98.7775 138.922 94.0064 133.968C89.2454 129.025 85.2043 121.545 83.0419 112.702C80.8795 103.86 81.0169 95.3598 82.9635 88.7782C84.9143 82.1828 88.6437 77.6124 93.5962 76.4022C98.5484 75.1921 103.963 77.5304 108.735 82.4851Z" stroke="white"/>
</svg>
