<svg width="48" height="48" viewBox="0 0 48 48" fill="none" xmlns="http://www.w3.org/2000/svg">
<g clip-path="url(#clip0_2231_3949)">
<rect width="48" height="48" rx="24" fill="#0152F2"/>
<path d="M47.6192 24C47.6192 10.9432 37.0312 0.380615 23.9998 0.380615C10.9429 0.380615 0.380371 10.9432 0.380371 24C0.380371 37.0315 10.9429 47.6195 23.9998 47.6195C37.0312 47.6195 47.6192 37.0315 47.6192 24Z" fill="url(#paint0_radial_2231_3949)"/>
<path d="M40.0599 16.6191C39.9581 17.2045 39.8563 17.4845 39.7035 17.7899C39.5508 18.1462 39.3981 18.528 39.2454 19.3425C39.1945 19.6479 39.1436 19.9024 39.1181 20.106V20.1315C39.0672 20.4623 39.0418 20.6914 38.9145 21.0732C38.8127 21.4041 38.6346 21.9386 38.2019 22.4985C37.8456 22.9566 37.2602 23.7456 36.4711 23.8475C36.3948 23.8475 36.2675 23.8475 36.1912 23.822C33.9514 22.6767 32.0425 21.8367 31.3808 21.6586C30.6172 21.4295 30.719 19.7497 30.7954 18.2735C30.8463 17.6117 30.8717 16.9754 30.8463 16.4409C30.7445 14.5575 30.4136 12.5213 28.7846 11.5287C27.8175 10.9433 26.5449 10.7651 25.3486 10.7651C25.5777 10.6633 25.8068 10.5106 26.0867 10.3579C26.7994 9.95068 27.6648 9.44164 28.5556 9.33983C28.8356 9.31438 29.1155 9.28893 29.3955 9.23802C31.1517 9.03441 32.6788 8.85624 34.2823 9.41619C35.0204 9.67071 36.4966 10.4852 36.8784 11.2742C37.1583 11.8087 37.6165 12.2414 38.5073 13.0813C38.9909 13.514 39.2963 13.7685 39.5254 13.9721C39.8563 14.2266 39.9072 14.303 40.009 14.4811C40.3144 15.092 40.2126 15.7283 40.0599 16.6191Z" fill="white"/>
<path d="M31.9407 24.3307C32.0425 24.3562 32.0934 24.4834 32.017 24.5852C31.788 24.9416 31.508 25.4506 31.1771 26.036C31.0244 26.316 30.8717 26.5959 30.7444 26.7996C30.3117 27.5377 30.2863 28.174 30.2608 28.6576C30.2354 29.192 30.2099 29.4211 29.8791 29.6247C29.6245 29.8029 29.3446 29.8538 27.512 30.1338C27.1812 30.1847 27.0539 30.2356 26.9266 30.3119C26.9012 30.3374 26.8503 30.3374 26.8248 30.3628C26.723 30.4137 26.6212 30.3119 26.6212 30.2101C26.6467 29.9556 26.6467 29.6247 26.6467 29.192V29.1157C26.6467 28.7594 26.6467 28.4539 26.6212 28.2249C26.5958 27.7667 26.5958 27.5631 26.723 27.3595C26.8757 27.105 27.003 27.0286 27.1812 26.9014C27.4611 26.7232 27.8429 26.4941 28.3774 25.7306C28.6828 25.3233 28.7337 25.0943 28.7846 24.9161C28.8101 24.8398 28.8101 24.8143 29.0391 24.6361C29.2682 24.458 30.0063 23.898 30.948 24.0507C31.2535 24.1017 31.5843 24.2035 31.9407 24.3307Z" fill="white"/>
<path d="M24.636 32.7814C24.5851 32.8323 24.5596 32.8577 24.4833 32.8577C24.2796 32.8577 24.1523 32.8068 24.076 32.705C23.8978 32.4759 23.9232 32.0176 23.9487 31.7376L24.7379 31.5339C24.7888 31.9667 24.8142 32.5522 24.636 32.7814Z" fill="white"/>
<path d="M24.6875 29.9815C24.662 30.0834 24.662 30.2106 24.662 30.3634C24.662 30.4143 24.662 30.4652 24.662 30.5161C24.662 30.6434 24.662 30.8471 24.662 30.9489C24.4075 31.0253 24.2038 31.0253 23.9492 31.0253C23.9492 30.9489 23.9492 30.8216 23.9492 30.7453C23.9492 30.6943 23.9492 30.618 23.9492 30.5671C23.9492 30.4907 23.9492 30.4398 23.9492 30.3634C23.9492 30.2106 23.9492 29.9815 23.9747 29.9052C24.051 29.9052 24.1274 29.8797 24.2038 29.8542C24.3565 29.8288 24.5857 29.7779 24.7129 29.8033C24.7129 29.8542 24.7129 29.9306 24.6875 29.9815Z" fill="white"/>
<path d="M23.2616 32.552C23.2362 32.9593 23.1089 33.443 22.727 33.5194C22.5488 33.5448 22.4724 33.4939 22.4215 33.443C22.167 33.2139 22.1415 32.5011 22.167 31.9919C22.3452 31.9919 22.5488 31.9665 22.8034 31.9156C22.9561 31.8901 23.1089 31.8392 23.2362 31.8137C23.2616 32.0174 23.2871 32.272 23.2616 32.552Z" fill="white"/>
<path d="M23.0833 31.1268L22.2432 31.4323C22.2941 31.1013 22.345 30.6431 22.3705 30.3376C22.3959 30.1339 22.4468 30.0576 22.4723 30.0321C22.4723 30.0321 22.4977 30.0067 22.5232 30.0067C22.5232 30.0067 22.5232 30.0067 22.5487 30.0067H22.5741L23.1087 29.9812C23.0833 30.2358 23.0833 30.7958 23.0833 31.1268Z" fill="white"/>
<path d="M21.7091 30.8722C21.6582 30.9995 21.6073 31.3559 21.5819 31.6105L20.5381 31.585C20.589 31.2541 20.6908 30.9231 20.7672 30.6685C20.869 30.414 20.9454 30.2103 21.0472 30.1594C21.1491 30.1085 21.3782 30.083 21.5309 30.2103C21.7601 30.3631 21.811 30.5922 21.7091 30.8722Z" fill="white"/>
<path d="M21.3273 34.1048C21.251 34.2066 21.1491 34.283 21.0473 34.283C20.92 34.3085 20.8436 34.2576 20.7673 34.2066C20.4363 33.9012 20.4618 32.9083 20.4872 32.4246C20.92 32.3228 21.4037 32.2464 21.6328 32.2209C21.6328 32.6028 21.6583 33.6466 21.3273 34.1048Z" fill="white"/>
<path d="M19.9529 31.5341C19.902 31.6614 19.851 31.7887 19.8256 31.9159C19.6983 31.9669 19.3164 31.9159 18.9346 31.8396L19.1891 30.1848C19.6219 30.0575 20.1311 30.0321 20.2329 30.1594C20.4111 30.3376 20.0802 31.1777 19.9529 31.5341Z" fill="white"/>
<path d="M19.4697 34.334C19.266 34.5886 18.9605 34.7159 18.5278 34.6904C18.2223 34.6904 18.1204 34.5631 18.0695 34.4868C17.8404 34.1049 18.0695 33.2139 18.2986 32.6538L19.7243 32.7302C19.7497 32.832 19.7497 32.9593 19.7497 33.0866C19.7752 33.5194 19.7243 34.0285 19.4697 34.334Z" fill="white"/>
<path d="M31.2793 22.2946C29.9812 21.9382 30.1085 20.0548 30.2103 18.2223C30.2357 17.586 30.2867 16.9751 30.2612 16.4661C30.1594 14.7608 29.8794 12.9028 28.505 12.0629C27.0288 11.1721 24.6109 11.3757 23.1346 11.5538C22.6002 11.7066 22.0911 11.8338 21.6839 11.8084C20.8185 11.7575 20.1313 11.4011 19.5205 11.0703C19.0623 10.8157 18.6551 10.5867 18.2479 10.5867C18.2224 10.5867 18.197 10.5867 18.197 10.5867C17.0516 10.663 16.5171 10.943 16.0335 11.3757C15.9063 11.4775 15.7536 11.7829 15.27 13.1828C15.0155 13.8954 14.99 14.2772 14.9391 14.6335C14.8882 14.9644 14.8628 15.3207 14.6846 15.8552C14.5573 16.2116 14.4555 16.517 14.3792 16.8224C14.1501 17.6114 13.9465 18.2477 13.3865 19.0113C13.3102 19.0876 13.2338 19.2403 13.132 19.3676C13.0048 19.5712 12.8521 19.8257 12.623 20.1057C12.4703 20.3093 12.1394 21.0729 12.1648 21.302C12.1903 21.6837 12.3176 21.9128 12.4448 22.1673C12.5721 22.4218 12.7502 22.7273 12.7757 23.1599V23.2363C12.8266 23.8981 12.7248 24.2289 11.4776 25.3488C10.6886 26.0615 10.1032 26.7487 9.72146 27.2577C9.69601 27.3086 9.72146 27.3595 9.79781 27.3595C9.82327 27.3595 9.82327 27.3595 9.82327 27.3595C9.84872 27.3595 9.87417 27.3595 9.89962 27.3595C9.92507 27.3595 9.95053 27.3595 9.97598 27.3595C10.0014 27.3595 10.0269 27.3595 10.0523 27.3595C10.3578 27.385 10.6632 27.5122 10.8668 27.7413C10.8922 27.7922 10.9686 27.7922 11.0195 27.7668C11.2231 27.6904 11.4522 27.6904 11.6558 27.7158C11.9103 27.7413 12.1903 27.8177 12.3685 27.9958C12.4194 28.0467 12.4957 28.0722 12.5721 28.0467C12.7757 27.9958 13.0048 27.9958 13.2084 28.0722C13.3611 28.1231 13.5138 28.2249 13.6156 28.3521C13.692 28.4285 13.8192 28.454 13.921 28.4031C13.9719 28.3776 14.0483 28.3267 14.1246 28.3012C14.4046 28.1994 14.71 28.2503 14.9646 28.3521C15.0918 28.4031 15.2191 28.4285 15.3463 28.5303C15.55 28.683 15.7027 28.8866 15.779 29.1157C15.8299 29.243 16.0081 29.2939 16.1099 29.1921C16.3135 29.0394 16.4662 29.0139 16.6189 29.0648C16.6953 29.0903 16.7462 29.1412 16.7971 29.2175C16.8735 29.3193 17.0007 29.4211 17.1025 29.3702C17.5352 29.243 18.0443 29.3193 18.426 29.5229C18.5533 29.5993 18.706 29.7011 18.7824 29.8538V29.7775C18.7824 29.752 18.8078 29.7266 18.8333 29.7011L18.9096 29.6756C19.1132 29.5993 20.1822 29.2939 20.5895 29.7266C20.6149 29.752 20.6404 29.752 20.6658 29.7266C20.7167 29.6757 20.7676 29.6247 20.7931 29.6247C21.073 29.472 21.5312 29.4466 21.8366 29.7266C21.8875 29.7775 21.9893 29.752 22.0402 29.7011C22.0657 29.6502 22.0911 29.6247 22.142 29.5993C22.2438 29.4975 22.3965 29.472 22.5493 29.472L23.1346 29.4466C23.2874 29.4466 23.7455 29.3957 23.8728 29.3702H23.8982C23.9491 29.3702 24.0255 29.3448 24.1018 29.3193C24.3818 29.2684 24.7127 29.1921 24.9672 29.3193C25.2217 29.4466 25.1963 29.7266 25.1708 29.9811C25.1708 30.0829 25.1454 30.1847 25.1454 30.2865C25.1454 30.3374 25.1454 30.3883 25.1454 30.4392C25.1454 30.6683 25.1454 30.8719 25.1199 31.0246L25.1454 31.1519C25.1454 31.1519 25.1454 31.1519 25.1454 31.1773C25.1708 31.2791 25.2981 31.3555 25.3744 31.2791C25.578 31.1519 25.7817 30.9992 25.858 30.8973V30.8719C25.858 30.8464 25.8835 30.7955 25.9089 30.6937C25.9344 30.4647 25.9853 30.032 25.9853 29.1412C25.9853 29.0903 25.9853 29.0648 25.9853 29.0394C25.9853 28.7085 25.9853 28.4285 25.9598 28.1994C25.9344 27.7158 25.9089 27.3341 26.1634 26.9523C26.3925 26.5705 26.6216 26.4433 26.8506 26.2905C27.1052 26.1378 27.3851 25.9597 27.8687 25.2979C28.0978 24.967 28.1232 24.8398 28.1487 24.738C28.1996 24.4834 28.2759 24.3307 28.6577 24.0762C28.9632 23.8471 29.854 23.1599 31.0757 23.3636C31.4829 23.4399 32.1192 23.6435 32.7809 23.8981C32.8064 23.8981 32.8319 23.9235 32.8573 23.9235H32.8828C33.4681 24.1526 34.0026 24.4071 34.3844 24.6107C34.4608 24.6616 34.5626 24.6362 34.6389 24.5598C34.7662 24.4071 34.8935 24.3307 35.0207 24.2289C35.0716 24.2035 35.1225 24.178 35.148 24.1526C35.1734 24.1526 35.1734 24.1271 35.1734 24.1271C35.2752 24.0508 35.2752 23.8471 35.148 23.7962C33.4427 22.9563 31.8138 22.4473 31.2793 22.2946ZM19.0114 22.6764C18.6042 24.4071 15.9063 26.3414 14.6846 26.3414H14.6591C14.6337 26.3414 14.6082 26.3414 14.6082 26.3414C14.5828 26.3414 14.5573 26.3414 14.5319 26.316C14.5064 26.316 14.5064 26.316 14.481 26.316C14.2519 26.2396 13.9465 26.0869 13.7174 25.8579C13.5647 25.7051 13.4374 25.5015 13.3865 25.3234C13.3865 25.2979 13.3611 25.247 13.3611 25.2216C13.2847 24.9161 13.2084 24.5598 13.4629 23.949C13.4884 23.8726 13.5393 23.7962 13.5647 23.7199C13.5647 23.6944 13.5902 23.669 13.5902 23.6435C13.6156 23.5672 13.6411 23.5163 13.6665 23.4654C13.692 23.3636 13.7429 23.2872 13.7683 23.2363C13.7683 23.2108 13.7938 23.1854 13.7938 23.1599C13.8701 22.9563 13.8701 22.88 13.8956 22.8036C13.8956 22.7527 13.921 22.6509 13.9465 22.5491C14.0228 22.2182 14.0737 21.9383 14.0992 21.7092C14.1501 21.2765 14.2265 20.8947 14.4555 20.5384C14.5064 20.4875 14.5319 20.4366 14.5828 20.3857C14.6082 20.3602 14.6082 20.3602 14.6337 20.3348C14.6591 20.3093 14.6591 20.3093 14.6846 20.2839C14.7355 20.233 14.8119 20.2075 14.8628 20.1821C14.8882 20.1821 14.9137 20.1566 14.9391 20.1566C14.99 20.1312 15.0409 20.1312 15.0918 20.1057C15.3209 20.0548 15.5754 20.0548 15.8808 20.0803C16.2117 20.1057 16.5171 20.1566 16.7717 20.233C17.0007 20.2839 17.2043 20.3602 17.357 20.4366C17.3825 20.4366 17.3825 20.462 17.408 20.462C17.4334 20.4875 17.4589 20.4875 17.5098 20.5129C17.5607 20.5384 17.5861 20.5384 17.637 20.5638C17.6879 20.5893 17.7388 20.6147 17.7897 20.6402L17.8406 20.6657C18.0188 20.742 18.197 20.8438 18.3242 20.9456C18.4006 20.9965 18.4515 21.0474 18.5024 21.0983C18.5278 21.1238 18.5533 21.1238 18.5533 21.1492C18.5787 21.1747 18.5787 21.1747 18.6042 21.2001C19.1387 21.6583 19.1132 22.2946 19.0114 22.6764ZM20.284 16.0843L20.2331 16.3897C20.1059 17.1024 19.8259 18.0696 18.8078 18.3241C17.8152 18.5531 17.5861 18.604 16.8989 18.6549C16.8735 18.6549 16.8735 18.6549 16.848 18.6549C16.339 18.6549 15.3463 18.3241 15.1682 17.5351C15.0664 17.026 15.2954 16.6442 15.6518 16.0334C15.7027 15.9316 15.779 15.8298 15.8554 15.7025C16.3644 14.8626 16.5426 14.2518 16.6953 13.7682C16.848 13.2846 16.9753 12.9028 17.3061 12.5719C17.3825 12.4956 17.4589 12.4192 17.5607 12.3683C17.6116 12.3174 17.6879 12.292 17.7643 12.241C17.8661 12.1901 17.9679 12.1647 18.0697 12.1138C18.2988 12.0374 18.5533 12.012 18.7824 12.012C19.2659 12.012 19.7495 12.1392 20.0804 12.4192C20.2331 12.5465 20.4622 12.7755 20.5895 13.5136C20.6404 13.8954 20.5385 14.5826 20.284 16.0843ZM27.5887 18.1205C27.2324 18.7313 27.0543 19.0622 26.7488 19.3167C26.138 19.8257 25.4508 19.9275 24.8654 19.9275C24.4581 19.9275 24.1018 19.8512 23.8728 19.8257C23.2619 19.7239 22.1675 19.5203 21.7857 18.6295C21.7093 18.4513 21.7093 18.3495 21.7093 18.1968C21.7093 18.0696 21.7093 17.815 21.633 17.2805V17.2551C21.6075 17.0006 21.5821 16.7206 21.633 16.3643V16.3134C21.8366 15.2444 21.913 15.0917 21.9384 14.9899C22.0402 14.7862 22.2947 14.6844 22.5238 14.8117C22.7274 14.9135 22.8038 15.168 22.7274 15.3716C22.702 15.4225 22.6511 15.6516 22.4729 16.4915V16.5424C22.422 16.7715 22.4474 16.9497 22.4729 17.1787V17.2042C22.5493 17.815 22.5493 18.0696 22.5493 18.2223C22.5493 18.2477 22.5493 18.2732 22.5493 18.2986V18.3241C22.6256 18.5022 22.7783 18.604 22.9565 18.7058C23.0837 18.7568 23.211 18.6549 23.1856 18.5277C23.0074 17.586 23.0074 16.4915 23.3637 15.8043C23.491 15.5753 23.6946 15.2189 23.8982 14.8626C23.9237 14.8372 23.9491 14.7862 23.9491 14.7608C23.9746 14.7353 23.9746 14.7099 24 14.6844C24.1018 14.5317 24.1782 14.4045 24.2545 14.2772C24.2545 14.2518 24.28 14.2518 24.28 14.2263L24.3054 14.2009C24.3309 14.1754 24.3309 14.1499 24.3563 14.1245C24.3563 14.1245 24.3563 14.099 24.3818 14.099L24.4072 14.0736C24.4072 14.0481 24.4327 14.0481 24.4327 14.0227C24.5091 13.9209 24.5854 13.8191 24.6363 13.7173C24.7381 13.59 24.6109 13.4373 24.4836 13.4882C24.1273 13.6409 23.8982 13.8191 23.8473 13.8445C23.6691 13.9972 23.3892 13.9718 23.2365 13.7682C23.0837 13.59 23.1092 13.31 23.3128 13.1573C23.5419 12.9792 24.7127 12.1392 26.1125 12.521C27.1306 12.801 27.6396 13.59 27.8433 13.87C27.996 14.099 28.505 14.8117 28.4796 15.8298C28.4796 16.5679 28.1741 17.1278 27.5887 18.1205Z" fill="white"/>
<path d="M18.4766 12.9028C18.4003 13.081 18.3239 13.2846 18.2221 13.5137C18.0185 14.0482 17.764 14.659 17.6367 14.8881C17.4331 15.2699 17.2804 15.5244 17.1531 15.7025C17.0004 15.9316 16.8986 16.1098 16.7968 16.3643C16.6441 16.797 16.6186 17.2806 16.7204 17.8151C16.4405 17.7896 16.0078 17.6114 15.9569 17.3569C15.9314 17.1788 16.0332 17.0006 16.3386 16.4661C16.3896 16.3643 16.4659 16.237 16.5423 16.1352C17.0768 15.219 17.3058 14.5318 17.4585 14.0227C17.6367 13.4882 17.7131 13.2592 17.993 13.0555C18.1712 12.9792 18.3239 12.9283 18.4766 12.9028Z" fill="white"/>
<path d="M17.9424 32.1452C17.6369 32.7562 17.2805 33.3162 17.0514 33.5963C16.8477 33.0871 16.5168 31.8906 16.6186 30.9487C16.6186 30.9232 16.6186 30.8978 16.6186 30.8723C16.6441 30.5668 16.7204 30.3122 16.8732 30.0831C16.975 29.9304 17.2296 29.854 17.5096 29.854C17.7133 29.854 17.9424 29.9049 18.1461 30.0067C18.2479 30.0577 18.4007 30.185 18.4007 30.5159C18.4516 30.9741 18.2224 31.5851 17.9424 32.1452Z" fill="white"/>
<path d="M34.2312 25.3489C34.2567 25.3744 34.2567 25.3998 34.2567 25.4253C34.1803 25.6035 34.053 25.7307 33.9258 25.8834C33.7731 26.0616 33.5949 26.2652 33.4422 26.5961C33.2131 27.0542 33.1368 27.4615 33.1113 28.5304C33.0604 29.7776 33.1113 30.4648 33.1622 30.9738C33.1877 31.4574 33.2131 31.7628 33.1368 32.2464C32.9586 33.2136 32.5514 33.8499 32.0169 34.6644C31.3551 35.6824 30.6934 36.726 29.5735 37.0568C29.4717 37.0823 29.4717 37.0823 29.1663 37.0823C28.9117 37.0823 28.4791 37.0823 27.69 37.1078C26.2138 37.1587 25.4757 37.1841 24.8649 37.3114C24.2031 37.4386 23.8723 37.5913 23.5159 37.7186C23.2105 37.8459 22.9305 37.9477 22.396 38.0749C22.0652 38.1513 21.5816 38.2022 19.9272 38.2276C18.1965 38.2276 17.1529 38.2276 15.804 38.0749C13.9205 37.8713 12.9788 37.744 12.3425 37.4132C10.8663 36.6242 10.23 35.1989 9.21191 32.8573C9.21191 32.8318 9.23737 32.8064 9.26282 32.8064C9.31372 32.8318 9.36463 32.8573 9.41553 32.8827C9.46643 32.9082 9.51734 32.9082 9.54279 32.9082C9.6446 32.9336 9.74641 32.9336 9.84821 32.9082C9.87367 32.9082 9.87367 32.9082 9.89912 32.8827C9.92457 32.8827 9.95002 32.8827 9.95002 32.9082C10.0264 33.0863 10.1282 33.2391 10.3063 33.3409C10.4845 33.4427 10.6881 33.4427 10.8663 33.4427C11.0699 33.4427 11.2735 33.4172 11.4771 33.3918C11.5789 33.3918 11.6808 33.4427 11.7317 33.519C11.9098 33.9772 12.1389 34.2826 12.4952 34.3335C12.5207 34.3335 12.5461 34.3335 12.5716 34.3335C12.6479 34.3335 12.7752 34.308 12.9279 34.2062C13.0552 34.1044 13.2588 34.1808 13.3606 34.308C13.4369 34.4353 13.5387 34.5116 13.6406 34.588C13.9969 34.9443 14.8623 35.1225 15.5749 35.1225C15.9567 35.1225 16.313 35.0716 16.5166 34.9698C16.8221 34.8171 16.8221 34.6135 16.7966 34.5117C16.7711 34.3589 16.7457 34.1808 16.7202 34.0281C16.7202 34.0026 16.7457 34.0026 16.7457 34.0281C16.7966 34.1299 16.8475 34.2317 16.9748 34.2571C17.0002 34.2571 17.0002 34.2571 17.0257 34.2571C17.2293 34.2571 17.5347 34.3335 17.5856 34.5117C17.6111 34.6135 17.662 34.6898 17.7129 34.7916C17.8401 34.9698 18.0692 35.1989 18.5528 35.2243H18.5782C19.1382 35.2243 19.5709 35.0461 19.8508 34.6898C19.8763 34.6644 19.8763 34.6389 19.9017 34.6135C20.0035 34.4607 20.309 34.4607 20.4362 34.588C20.5889 34.7153 20.7671 34.7916 20.9707 34.7916C20.9962 34.7916 21.0471 34.7916 21.0725 34.7916C21.3271 34.7662 21.5307 34.6389 21.7088 34.4098C21.8106 34.2571 21.887 34.079 21.9379 33.8754C21.9634 33.8244 22.0397 33.799 22.0906 33.8499C22.1924 33.9517 22.3706 34.0535 22.6251 34.0535C22.676 34.0535 22.7524 34.0535 22.8287 34.0281C23.3123 33.9263 23.5668 33.519 23.6686 33.0863C23.6686 33.0609 23.6941 33.0609 23.6941 33.0863C23.8213 33.2391 24.0504 33.4172 24.4322 33.4172C24.4576 33.4172 24.4831 33.4172 24.4831 33.4172C24.6867 33.4172 24.8649 33.3154 24.9921 33.1627C25.1448 32.9591 25.1958 32.6537 25.2212 32.3737C25.2212 32.2973 25.2721 32.221 25.3739 32.1701C25.7811 31.9919 26.2902 31.6101 26.4429 31.3556C26.4429 31.3556 26.4429 31.3302 26.4684 31.3302C26.4938 31.2538 26.5702 31.2029 26.6211 31.2029C26.9519 31.152 27.0792 31.0756 27.2065 31.0247C27.3083 30.9738 27.3846 30.9484 27.6391 30.8975C29.4971 30.6175 29.8535 30.5411 30.2607 30.2866C30.8715 29.8794 30.897 29.3194 30.9224 28.785C30.9479 28.3268 30.9733 27.8178 31.3297 27.2069C31.4569 26.9779 31.6097 26.7233 31.7624 26.4179C32.0423 25.9089 32.4241 25.1962 32.7041 24.8144C32.755 24.7381 32.8568 24.7126 32.9332 24.7635C33.5695 24.9926 34.1294 25.2471 34.2312 25.3489Z" fill="white"/>
<path d="M16.1604 30.8975C16.0841 31.5338 16.0332 32.3991 16.135 33.519C16.1604 33.8245 16.2113 34.1553 16.2622 34.4862C16.1859 34.5371 15.9059 34.6135 15.4478 34.588C14.786 34.5626 14.1243 34.4099 13.9207 34.1808L13.8952 34.1553C13.7425 34.0281 13.6152 33.9263 13.6152 33.6972C13.6152 33.6208 13.6407 33.5445 13.717 33.4172C13.7679 33.3663 13.8189 33.29 13.8698 33.1882C13.9716 33.0354 14.1243 32.8573 14.277 32.6028C14.7097 31.8901 14.8624 31.661 15.066 31.3811C15.0914 31.3556 15.0914 31.3302 15.1169 31.3047C15.2442 31.152 15.3714 30.9484 15.6005 30.6175C15.7532 30.3884 15.8805 30.1848 16.0077 30.0321C16.1859 29.7776 16.3131 29.6503 16.3895 29.574C16.3895 29.6758 16.364 29.8285 16.3386 29.9812C16.2368 30.2866 16.1859 30.5666 16.1604 30.8975Z" fill="white"/>
<path d="M15.8294 20.8693C15.8294 20.8947 15.8294 20.8947 15.8294 20.8693C15.7276 20.9965 15.6258 21.1492 15.4985 21.4038C15.1676 22.1164 15.1676 22.5236 15.1676 22.8545C15.1676 23.0327 15.1676 23.1599 15.1167 23.3127C15.0913 23.4145 15.0404 23.5417 14.964 23.669C14.7859 24.1017 14.5313 24.6616 14.6331 25.4252C14.4804 25.3488 14.2514 25.1706 14.2005 25.0943C14.2005 25.0434 14.175 25.0179 14.175 24.967C14.1241 24.738 14.0987 24.5852 14.2259 24.2289C14.6331 23.3127 14.684 23.0836 14.7095 22.8291C14.7095 22.7782 14.735 22.7273 14.735 22.6509C14.8113 22.2946 14.8622 21.9891 14.8877 21.7346C14.9386 21.3529 14.9895 21.0983 15.1167 20.9202C15.1676 20.8438 15.2949 20.8184 15.4731 20.8184C15.5494 20.8184 15.6258 20.8184 15.7276 20.8438H15.753C15.8294 20.8693 15.8294 20.8693 15.8294 20.8693Z" fill="white"/>
<path d="M15.3215 29.9559C15.2961 29.7268 15.2706 29.5231 15.1688 29.294C15.1688 29.294 15.1433 29.2431 15.1433 29.2176C15.1179 29.1921 15.1179 29.1667 15.0924 29.1412L15.067 29.1158C15.0415 29.0903 15.0415 29.0903 15.016 29.0903L14.9906 29.0649C14.9651 29.0649 14.9651 29.0394 14.9397 29.0394H14.9142C14.7869 28.9885 14.6596 28.9376 14.5069 28.9121C14.4814 28.9121 14.456 28.9121 14.456 28.9121C14.4305 28.9121 14.4305 28.9121 14.4051 28.9121H14.3796C14.3541 28.9121 14.3287 28.9376 14.2778 28.9376C14.2523 28.9376 14.2523 28.963 14.2269 28.963L14.2014 28.9885C14.1759 29.0139 14.1759 29.0139 14.1505 29.0394L14.125 29.0649V29.0903C14.0741 29.1667 14.0232 29.2431 13.9723 29.3194C13.845 29.4976 13.7177 29.7013 13.5904 29.8795C13.4631 30.0577 13.3613 30.2105 13.234 30.3887C13.1576 30.4905 13.1067 30.5669 13.0303 30.6687C13.0303 30.6941 13.0049 30.6941 13.0049 30.7196C13.0813 30.7451 13.1576 30.7451 13.234 30.7705C13.4122 30.796 13.5904 30.8214 13.7432 30.8469C14.0996 30.8978 14.4814 30.9233 14.8378 30.8978C14.8633 30.8978 14.8633 30.8978 14.8887 30.8978C14.9651 30.7705 15.0924 30.6178 15.2197 30.4141C15.2961 30.3123 15.3724 30.2105 15.4234 30.1086C15.347 30.0832 15.3215 30.0068 15.3215 29.9559Z" fill="white"/>
<path d="M14.0226 31.4574C13.9971 31.7374 13.6917 32.4503 13.208 33.1376C12.8006 33.6977 12.5461 33.8504 12.4951 33.8504C12.2915 33.825 12.1133 33.3413 11.9605 32.8576C11.9096 32.6539 11.8332 32.4757 11.8078 32.2975C11.706 31.9411 11.6805 31.432 11.706 31.1265C12.1133 31.3556 12.8261 31.4065 13.8444 31.4065C13.8953 31.432 13.9717 31.432 14.0226 31.4574Z" fill="white"/>
<path d="M13.3103 29.1667C13.1321 29.4467 12.9539 29.7013 12.7757 29.9559C12.6738 30.0832 12.5975 30.2105 12.4956 30.3377C12.4447 30.4141 12.3683 30.4905 12.3174 30.5669C12.1647 30.5414 12.0374 30.4905 11.8846 30.465C11.7574 30.4396 11.6555 30.3887 11.5282 30.3377C11.5028 30.3377 11.4773 30.3123 11.4519 30.3123C11.4264 30.2868 11.4009 30.2359 11.3755 30.2105C11.4264 30.1341 11.4519 30.0323 11.5028 29.9559C11.5791 29.8031 11.6555 29.6504 11.7574 29.4976C11.9101 29.2431 12.0883 28.963 12.3683 28.7848C12.3938 28.7848 12.3938 28.7594 12.4193 28.7594C12.5211 28.7085 12.6229 28.6575 12.7502 28.6321C12.7757 28.6321 12.852 28.6321 12.9029 28.6321H12.9284C12.9284 28.6321 12.9284 28.6321 12.9539 28.6321C12.9793 28.6321 13.0048 28.6575 13.0557 28.6575C13.0557 28.6575 13.0812 28.6575 13.0812 28.683C13.1066 28.7085 13.1321 28.7085 13.1575 28.7339C13.1066 28.7085 13.2084 28.8103 13.2084 28.7848C13.2594 28.9376 13.2848 29.0139 13.3103 29.1667Z" fill="white"/>
<path d="M11.9358 28.4283C11.6049 28.6829 11.3758 29.0393 11.1976 29.4211C11.0957 29.6248 10.9939 29.8285 10.8921 30.0321C10.8921 30.0576 10.8666 30.083 10.8666 30.083C10.7648 30.0576 10.663 30.0321 10.5866 30.0067C10.4848 29.9812 10.3829 29.9303 10.2811 29.9048C10.2302 29.8794 10.2047 29.8539 10.1538 29.8285C10.2556 29.6503 10.3575 29.4721 10.4848 29.2939C10.6375 29.0647 10.8157 28.8102 10.9939 28.6065C11.0703 28.5301 11.1467 28.4283 11.223 28.3774C11.3249 28.3265 11.4267 28.3265 11.554 28.3519C11.6813 28.3519 11.8086 28.3519 11.9104 28.4028C11.8849 28.4028 11.9104 28.4283 11.9358 28.4283Z" fill="white"/>
<path d="M11.427 32.7558C11.4016 32.7812 11.4016 32.7812 11.3761 32.8067H11.3506C11.2743 32.8067 11.1979 32.8322 11.1215 32.8322C10.9688 32.8322 10.816 32.8576 10.6633 32.8322C10.5869 32.8322 10.5105 32.8067 10.4596 32.7558C10.4087 32.6794 10.3833 32.5267 10.3578 32.4248C10.256 31.8648 10.256 31.3047 10.3069 30.7446C10.5869 30.8465 10.8924 30.9228 11.1979 30.9737C11.1215 31.4829 11.2488 32.2212 11.2997 32.4248C11.3761 32.5267 11.4016 32.654 11.427 32.7558Z" fill="white"/>
<path d="M10.5109 28.2508C10.2563 28.5562 10.0272 28.8872 9.82357 29.2436C9.74719 29.3709 9.64536 29.5236 9.56899 29.6764C9.46716 29.6509 9.36533 29.6 9.28896 29.5491C9.21258 29.4982 9.13621 29.4473 9.0853 29.3963C9.05984 29.3709 9.00892 29.3454 8.98347 29.32C8.98347 29.32 8.95801 29.32 8.95801 29.2945C8.98347 29.2181 9.03438 29.1672 9.03438 29.1163C9.0853 28.989 9.13621 28.8872 9.21258 28.7854C9.33987 28.5817 9.46716 28.378 9.61991 28.1744C9.67082 28.098 9.72174 28.0216 9.82357 27.9962C9.89994 27.9707 10.0018 27.9962 10.0781 27.9962C10.2309 28.0216 10.3836 28.1235 10.5109 28.2508Z" fill="white"/>
<path d="M8.55075 29.5994C8.55075 29.574 8.57621 29.574 8.55075 29.5994C8.65258 29.7012 8.72895 29.7776 8.83078 29.854C8.8817 29.8794 8.90716 29.9304 8.95807 29.9558C8.95807 29.9558 8.95807 29.9558 8.95807 29.9813C8.85624 30.4141 8.77987 30.8723 8.77987 31.3305C8.77987 31.356 8.75441 31.356 8.75441 31.3305C8.62712 30.7959 8.47437 29.9304 8.55075 29.5994Z" fill="white"/>
<path d="M9.79723 30.5411C9.74631 30.9229 9.72085 31.3048 9.74631 31.6867C9.74631 31.8903 9.77177 32.094 9.79723 32.3231C9.74631 32.3231 9.6954 32.3231 9.64448 32.3231H9.61902H9.59357C9.54265 32.2976 9.54265 32.2976 9.49173 32.2722C9.44082 32.2467 9.3899 32.1704 9.33899 32.094C9.23716 31.9158 9.2117 31.7121 9.2117 31.5085C9.18624 31.1266 9.23716 30.7193 9.31353 30.3374C9.36445 30.3629 9.44082 30.3883 9.51719 30.4138C9.61902 30.4647 9.6954 30.5156 9.79723 30.5411Z" fill="white"/>
<g opacity="0.8">
<path opacity="0.8" d="M19.8254 50.3936C18.0947 50.3936 16.4658 50.2918 15.0914 50.19L14.7096 50.1645L14.3278 50.1136C14.1497 50.0882 13.946 50.0627 13.717 50.0373C12.3935 49.8846 9.92463 49.63 7.20127 48.3574L6.76858 48.1538L6.3868 47.9248C1.1437 44.9723 -0.790652 40.5691 -1.85964 38.2021C-1.93599 38.0494 -2.01235 37.8712 -2.0887 37.6931C-2.62319 36.5986 -2.95407 35.6315 -3.23404 34.7152L-3.28495 34.5116L-3.33585 34.308C-4.09941 31.6101 -4.27757 29.2939 -3.9467 26.9778C-3.59037 24.6617 -2.75045 22.5746 -1.24879 20.3603L-0.485229 19.1131C-0.332517 18.8586 -0.230709 18.5786 -0.154353 18.2987C0.431042 15.3971 1.75454 13.3355 2.4163 12.3429C2.59446 11.1467 2.89988 9.97588 3.30712 8.83054L3.35802 8.65237L3.43437 8.47421C3.43437 8.44876 3.45983 8.39785 3.48528 8.3215C3.7907 7.43068 4.47791 5.36907 6.23409 3.1802L6.89584 2.41664L7.58305 1.80579C9.31378 0.227772 11.4008 -0.943019 13.6406 -1.60477C14.8878 -1.98655 16.1858 -2.21562 17.5093 -2.29197H17.6366H17.8147C18.0438 -2.29197 18.2729 -2.31743 18.4765 -2.31743C19.291 -2.31743 20.1054 -2.24107 20.9199 -2.11381C21.4289 -2.03745 21.938 -2.08836 22.4215 -2.29197C23.8214 -2.87737 25.2722 -3.25915 26.7738 -3.46276C26.9011 -3.48822 27.0029 -3.48822 27.1047 -3.51367C27.3338 -3.53912 27.7156 -3.59002 28.1737 -3.64093C28.9627 -3.71728 30.1844 -3.81909 31.4824 -3.81909C34.0531 -3.81909 36.2674 -3.48822 38.2527 -2.80101L38.4308 -2.75011L38.5835 -2.69921C42.9613 -1.04483 45.1756 1.2713 46.7791 3.28201L46.8554 3.38382L47.0845 3.58743C48.5353 4.70732 49.757 6.10718 50.7241 7.65975L51.0296 8.14333L51.2841 8.65237C53.422 13.0047 52.7348 17.0515 52.4803 18.5532L52.4549 18.6295C52.2767 19.7494 51.9713 20.8439 51.5895 21.9128C51.4368 22.9309 51.2077 23.949 50.8768 24.9162C50.3169 26.6469 49.477 28.3013 48.408 29.7775C47.7972 30.6429 47.0845 31.4828 46.3209 32.2209C46.041 32.4754 45.8628 32.8317 45.8119 33.2135C45.7865 33.4426 45.7356 33.6717 45.7101 33.9007C45.0738 37.2604 43.623 39.602 43.0122 40.5437L41.2051 43.1398C39.0162 45.8632 36.4201 47.6448 33.2895 48.612L32.526 48.841L31.7115 48.9937C30.7698 49.1719 29.8281 49.2483 28.8609 49.2483C28.7336 49.2483 28.6064 49.2483 28.4537 49.2483H28.4028H28.25H28.0719C27.7156 49.2483 27.3592 49.3246 27.0029 49.4264C24.9158 50.0882 22.6252 50.3936 19.8254 50.3936Z" stroke="url(#paint1_linear_2231_3949)" stroke-width="0.26862" stroke-miterlimit="10"/>
<path opacity="0.8" d="M19.8254 48.5867C18.171 48.5867 16.5675 48.4849 15.244 48.3831L14.9386 48.3577L14.6332 48.3068C14.4295 48.2813 14.2005 48.2559 13.9714 48.2304C12.6734 48.1031 10.5354 47.8486 8.1429 46.7287L7.78658 46.5506L7.4557 46.3724C2.79799 43.8018 1.09271 39.9585 0.0746297 37.6678C-0.00172619 37.5151 -0.078082 37.3115 -0.17989 37.1333C-0.663477 36.1662 -0.968901 35.2499 -1.22342 34.4354L-1.27432 34.2573L-1.32523 34.1046C-1.98698 31.6866 -2.16514 29.6505 -1.85972 27.6398C-1.5543 25.6545 -0.790737 23.7965 0.532765 21.8622L1.52539 20.2587C1.70356 19.9787 1.83082 19.6478 1.88172 19.317C2.36531 16.5682 3.66336 14.6338 4.24875 13.743L4.32511 13.6412L4.35056 13.5903C4.35056 13.5648 4.37601 13.5394 4.37601 13.5139C4.40147 13.3867 4.45237 13.2848 4.47782 13.183C4.63053 12.0632 4.9105 10.9433 5.29228 9.87428L5.34319 9.72157L5.39409 9.56886C5.41954 9.51796 5.41954 9.46705 5.47045 9.31434C5.75042 8.47443 6.33582 6.71824 7.86293 4.83479L8.42288 4.17304L8.98282 3.664C10.4845 2.2896 12.2916 1.27152 14.2259 0.711573C15.3458 0.380698 16.4657 0.177082 17.6365 0.126178H17.7383H17.891C18.0946 0.126178 18.2728 0.100726 18.451 0.100726C19.2909 0.100726 20.1053 -0.128342 20.9198 0.0243702C21.5561 0.15163 22.1924 0.0752741 22.7778 -0.179246C23.8722 -0.662833 25.3484 -0.840997 27.0283 -1.07006C27.1555 -1.09552 27.2573 -1.09552 27.3337 -1.12097C27.5628 -1.14642 27.9191 -1.19732 28.3263 -1.22278C29.0644 -1.29913 30.2098 -1.37549 31.4569 -1.37549C33.7985 -1.37549 35.7837 -1.07006 37.5399 -0.484669L37.6926 -0.433765L37.8199 -0.382861C41.6886 1.09335 43.5975 3.0277 45.0992 4.9366C45.1755 5.03841 45.2773 5.14022 45.3028 5.19112L45.3282 5.21657L45.6082 5.47109L45.6337 5.522C46.9317 6.51462 48.0261 7.73632 48.8661 9.11072L49.1206 9.51796L49.3242 9.95064C51.1567 13.6921 50.5968 17.1281 50.3423 18.5789L50.3168 18.6552C50.1387 19.7242 49.8587 20.7423 49.4769 21.7604C49.3496 22.7275 49.1206 23.6947 48.8152 24.611C48.3061 26.1381 47.568 27.5889 46.6263 28.9124C45.99 29.8286 45.2264 30.6685 44.412 31.4067C44.0302 31.763 43.7757 32.2211 43.7248 32.7556C43.6739 33.1374 43.623 33.4937 43.5721 33.8755C43.0121 36.8534 41.7395 38.8895 41.1287 39.8058L39.6524 41.9438C37.6926 44.4635 35.3765 46.0924 32.5768 46.9578L31.9405 47.1614L31.2533 47.2887C30.4388 47.4414 29.5989 47.5178 28.7845 47.4923C28.6572 47.4923 28.5299 47.4923 28.4027 47.4923H28.3772H28.3009C28.3009 47.4923 28.2754 47.4923 28.2245 47.4923H28.0718H27.9191H27.6391C27.2573 47.5178 26.8756 47.5687 26.4938 47.6959C24.6358 48.3068 22.4724 48.5867 19.8254 48.5867Z" stroke="url(#paint2_linear_2231_3949)" stroke-width="0.26862" stroke-miterlimit="10"/>
<path opacity="0.8" d="M19.8254 46.4743C18.2474 46.4743 16.6948 46.3724 15.3967 46.2706L15.1422 46.2452L14.8877 46.2197C14.6586 46.1943 14.4041 46.1688 14.1496 46.1434C12.9279 46.0161 11.0699 45.8125 8.98284 44.8199L8.70287 44.6926L8.44835 44.5399C4.45239 42.3001 2.97618 38.9914 2.009 36.8025C1.93265 36.6243 1.83084 36.3953 1.75448 36.2171C1.3218 35.3517 1.04183 34.5373 0.812761 33.7737L0.761857 33.6465L0.736405 33.5192C0.15101 31.4321 -0.00170182 29.6505 0.252818 27.9707C0.507338 26.2654 1.19454 24.6619 2.36533 22.9566L2.51804 22.753L2.67076 22.5494C2.77256 22.4221 2.84892 22.2949 2.95073 22.1931L3.53612 21.0986C3.73974 20.7423 3.867 20.3605 3.9179 19.9533C4.29968 17.5099 5.47047 15.7537 6.00496 14.9393C6.03042 14.8884 6.08132 14.8375 6.10677 14.812L6.23403 14.6338C6.28493 14.532 6.33584 14.4048 6.38674 14.2521C6.43765 14.0993 6.514 13.8703 6.56491 13.6667C6.69217 12.6231 6.94669 11.6051 7.30301 10.6124L7.35392 10.4852L7.40482 10.3579C7.43027 10.2561 7.48118 10.1797 7.53208 10.0016C7.7866 9.21257 8.27019 7.7618 9.56824 6.18378L10.0009 5.64929L10.4591 5.24206C11.7317 4.07127 13.2588 3.23135 14.9132 2.72231C15.8803 2.44234 16.8475 2.26418 17.8656 2.21327H17.9419H18.0692C18.2219 2.21327 18.3746 2.21327 18.5528 2.21327C19.4182 2.21327 20.2581 2.31508 21.098 2.54415C21.8106 2.72231 22.5742 2.64596 23.2359 2.31508C24.3049 1.80604 25.7302 1.2461 27.3846 1.04248C27.4864 1.01703 27.5882 1.01703 27.6646 0.99158C27.8682 0.966128 28.1991 0.915224 28.6063 0.889772C29.2935 0.813416 30.388 0.737061 31.5333 0.737061C33.6204 0.737061 35.3765 0.99158 36.9291 1.52607L37.0309 1.57698L37.1327 1.62788C40.696 2.97683 42.274 4.73302 43.4957 6.28559C43.7757 6.61647 43.8011 6.66737 43.9793 6.84553L44.2084 7.04915L44.2847 7.15096C44.8701 7.60909 46.0664 8.55081 47.1099 10.2561L47.3135 10.587L47.4917 10.9178C49.0442 14.0484 48.5607 16.8991 48.3316 18.2735L48.3061 18.3498C48.1534 19.3424 47.8735 20.3351 47.4662 21.2768V21.3532C47.3644 22.244 47.1608 23.1348 46.8808 23.9747C46.4481 25.3237 45.8118 26.5708 44.9719 27.7161C44.2847 28.7088 43.4448 29.5996 42.5031 30.3632C42.274 30.5413 42.0959 30.7704 41.9686 31.0249C41.8413 31.2794 41.765 31.5594 41.7395 31.8394C41.7141 32.3993 41.6377 32.9593 41.5359 33.5192C41.0523 36.0898 39.9324 37.8715 39.3725 38.7623L38.2272 40.4421C36.5219 42.7328 34.4857 44.209 32.0169 44.9726L31.5078 45.1253L30.9479 45.2271C30.2607 45.3544 29.548 45.4053 28.8354 45.4053C28.7336 45.4053 28.6063 45.4053 28.4791 45.4053H28.4536H28.3263C28.3009 45.4053 28.25 45.4053 28.1227 45.4053H27.9955H27.8937L27.3083 45.4307C26.901 45.4562 26.4938 45.5071 26.112 45.6598C24.3558 46.2197 22.3451 46.4743 19.8254 46.4743Z" stroke="url(#paint3_linear_2231_3949)" stroke-width="0.251822" stroke-miterlimit="10"/>
<path opacity="0.8" d="M19.8251 44.3616C18.3235 44.3616 16.8218 44.2598 15.5746 44.158L15.3965 44.1325L15.2183 44.1071C14.9638 44.0816 14.6838 44.0307 14.4293 44.0053C13.284 43.878 11.7059 43.6998 9.92431 42.8854L9.72069 42.7836L9.51708 42.6818C6.13196 40.7729 4.88482 37.9731 3.96854 35.937C3.86674 35.7334 3.76493 35.5043 3.68857 35.3007C3.30679 34.5117 3.05227 33.7736 2.84866 33.1373L2.82321 33.0355L2.74685 32.9591C1.75422 29.4467 2.136 26.9779 4.07035 24.1527L4.17216 24L4.27397 23.8473C4.40123 23.6946 4.52849 23.5164 4.65575 23.3637C4.83391 23.1346 5.01208 22.8801 5.21569 22.6511C5.34295 22.4983 5.44476 22.3202 5.52112 22.142L5.75018 21.5821C5.85199 21.3276 5.90289 21.073 5.92835 20.8185C6.13196 18.5533 7.2264 16.9244 7.76089 16.1099C7.81179 16.059 7.8627 15.9572 7.88815 15.9317L8.01541 15.7281L8.06631 15.6772C8.14267 15.55 8.26993 15.2445 8.37174 14.9391C8.42264 14.7355 8.52445 14.4046 8.62626 14.1246V14.0992C8.72806 13.1575 8.95713 12.2158 9.28801 11.3249L9.31346 11.2486L9.33891 11.1722C9.38982 11.0195 9.44072 10.8922 9.49162 10.7141C9.72069 10.0269 10.1025 8.85609 11.146 7.55804L11.4769 7.15081L11.8078 6.84538C14.2766 4.60561 17.0254 4.42745 17.9417 4.35109H17.9926H18.0944C18.2216 4.35109 18.3489 4.35109 18.4762 4.35109C19.5706 4.35109 20.6396 4.58016 21.6577 5.01284C21.8358 5.0892 22.0394 5.11465 22.2176 5.11465C22.4212 5.11465 22.5994 5.06375 22.7776 4.96194C23.7193 4.42745 25.4246 3.43482 27.6134 3.1803C27.7152 3.15485 27.817 3.15485 27.8934 3.15485C28.097 3.1294 28.4024 3.10395 28.7588 3.05304C29.4205 3.00214 30.4131 2.92578 31.4821 2.92578C33.3401 2.92578 34.8672 3.15485 36.1653 3.58753L36.2416 3.61298L36.318 3.63844C39.3722 4.78378 40.6703 6.23454 41.7647 7.60894C42.0447 7.99072 42.1974 8.14344 42.5028 8.44886L42.681 8.60157L42.8083 8.75428L42.9101 8.83064C43.4191 9.23787 44.3863 9.97598 45.2516 11.3758L45.4044 11.6304L45.5316 11.8849C46.7788 14.4301 46.3715 16.7207 46.1679 17.9424V18.0188C46.0152 18.9096 45.7607 19.8004 45.4044 20.6404L45.3789 20.7167C45.3789 20.7422 45.3789 20.7422 45.3535 20.7931C45.328 20.8694 45.328 20.9458 45.328 21.0221L45.3025 21.1239C45.2262 21.8875 45.048 22.6256 44.7935 23.3383C44.4117 24.4836 43.8772 25.5526 43.1646 26.5198C42.4774 27.5124 41.6884 28.3268 40.823 28.9631C40.4412 29.2431 40.1358 29.5994 39.9067 30.0321C39.6777 30.4648 39.5759 30.9229 39.5759 31.4065C39.5759 31.9919 39.4995 32.6028 39.3977 33.1882C38.9905 35.377 38.0742 36.8533 37.4888 37.7441L36.6489 38.9912C35.1727 41.0528 33.4165 42.3763 31.304 43.0381L31.2022 43.0635C31.024 43.1144 30.8458 43.1653 30.6677 43.1908L30.5404 43.2163C29.955 43.3181 29.3696 43.369 28.7842 43.369C28.6824 43.369 28.5806 43.369 28.4788 43.369H28.4533C28.4024 43.369 28.3515 43.369 28.3006 43.369C28.2497 43.369 28.1479 43.369 27.9443 43.369H27.8679H27.7916C27.5116 43.369 27.1553 43.3944 26.8499 43.3944C26.4172 43.4199 26.01 43.4962 25.6027 43.6489C24.0756 44.1071 22.2176 44.3616 19.8251 44.3616Z" stroke="url(#paint4_linear_2231_3949)" stroke-width="0.235049" stroke-miterlimit="10"/>
<path opacity="0.8" d="M19.8251 42.2489C18.3743 42.2489 16.949 42.1471 15.7273 42.0453H15.6001L15.4728 42.0199C15.1928 41.969 14.8874 41.9435 14.6074 41.9181C13.5385 41.7908 12.215 41.6635 10.7896 40.9763L10.6369 40.9L10.5097 40.8236C7.73541 39.271 6.69188 36.9295 5.87742 35.046C5.77561 34.817 5.6738 34.5879 5.57199 34.3334C5.24112 33.6716 5.01205 33.0099 4.83389 32.4499L4.80843 32.3736L4.78298 32.2972C3.96852 29.3957 4.24849 27.5631 5.82651 25.2725L5.90287 25.1707L5.97923 25.0688C6.10649 24.8907 6.23375 24.738 6.36101 24.5598C6.76824 24.0253 7.17547 23.4908 7.76086 22.8545C7.88812 22.7273 7.96448 22.5237 7.98993 22.3455L8.01538 21.7601L7.98993 21.531V21.302C8.04084 19.4185 8.98256 18.0187 9.4916 17.2551C9.5425 17.1787 9.61886 17.0769 9.64431 17.026L9.72067 16.8988L9.79702 16.797C9.89883 16.6442 10.1279 16.1098 10.3315 15.6262C10.4079 15.4226 10.5097 15.0153 10.6369 14.6844C10.6624 14.5826 10.6624 14.5572 10.6878 14.3281C10.7642 13.5391 10.9678 12.7501 11.2223 12.012L11.2478 11.9611L11.2732 11.9102C11.3496 11.7066 11.4005 11.5539 11.4769 11.3502C11.6805 10.7394 11.9859 9.84857 12.7749 8.85594L13.004 8.57597L13.233 8.37236C14.9638 6.81978 16.8218 6.51436 18.0944 6.43801H18.1453H18.1962C18.298 6.43801 18.3743 6.43801 18.4761 6.43801C19.5451 6.43801 20.8432 6.94704 21.5304 7.27792C21.6831 7.35428 21.8613 7.40518 22.0394 7.40518C22.2176 7.40518 22.3957 7.37973 22.5739 7.32882C23.0066 7.17611 23.4138 6.99795 23.7956 6.79433C24.661 6.28529 26.0863 5.47083 27.8679 5.26722C27.9697 5.24176 28.0461 5.24176 28.1224 5.24176C28.3006 5.21631 28.5806 5.19086 28.9369 5.13996C29.5477 5.08905 30.464 5.0127 31.4566 5.0127C33.0601 5.0127 34.3836 5.19086 35.4526 5.57264L35.5035 5.59809L35.5544 5.62354C38.0996 6.59072 39.1177 7.68515 40.0849 8.9323C40.3903 9.33953 40.6194 9.6195 41.0775 10.0267L41.1793 10.1285L41.2811 10.2303C41.3829 10.3322 41.4847 10.4085 41.5865 10.4849C42.0192 10.8157 42.7573 11.4011 43.3936 12.4701L43.4954 12.6228L43.5718 12.801C44.5135 14.7099 44.2081 16.517 44.0299 17.586V17.6623C43.9027 18.4004 43.699 19.1131 43.3936 19.8003C43.3173 19.9785 43.2664 20.1566 43.2155 20.3602C43.19 20.4875 43.1646 20.6148 43.1646 20.7166L43.1391 20.8184C43.0627 21.4292 42.9355 22.0401 42.7319 22.6255C42.4264 23.5672 41.9683 24.458 41.4084 25.247C40.543 26.4687 39.5504 27.3341 38.3541 27.894C38.0742 28.0213 37.8196 28.2249 37.6415 28.5049C37.4633 28.7594 37.3615 29.0903 37.3361 29.3957C37.3361 29.5229 37.3361 29.6248 37.3361 29.7011C37.387 30.6174 37.4633 31.6609 37.2597 32.7553C36.9288 34.537 36.1653 35.7332 35.6053 36.624C35.6053 36.624 33.0092 40.2382 30.6422 40.9763L30.3877 41.0527L30.1077 41.1036C29.6496 41.1799 29.1914 41.2308 28.7078 41.2308C28.6315 41.2308 28.5297 41.2308 28.4279 41.2308C28.377 41.2308 28.3006 41.2308 28.2242 41.2308C28.1224 41.2308 27.9697 41.2309 27.7407 41.2563H27.6898H27.6389C26.7226 41.2818 25.8827 41.3072 25.6281 41.3581C25.5009 41.3836 25.3736 41.409 25.2464 41.4599C23.9992 41.9944 22.243 42.2489 19.8251 42.2489Z" stroke="url(#paint5_linear_2231_3949)" stroke-width="0.218251" stroke-miterlimit="10"/>
<path opacity="0.8" d="M19.8252 40.1621C18.4508 40.1621 17.0764 40.0603 15.9056 39.9839H15.8547H15.8038C15.4729 39.933 15.1675 39.9076 14.8875 39.8821C13.8949 39.7803 12.8513 39.653 11.7315 39.144L11.6551 39.1186L11.5787 39.0931C9.41532 37.8714 8.60086 36.0643 7.8373 34.3081C7.73549 34.0536 7.60823 33.7991 7.48097 33.5446C7.22645 33.0355 7.02284 32.4756 6.87012 31.9411V31.9156V31.8902C6.20837 29.5741 6.38654 28.4033 7.60823 26.6216L7.63368 26.5707L7.65914 26.5198C7.81185 26.3417 7.93911 26.1635 8.06637 26.0108C8.65176 25.2472 9.1608 24.5855 10.3061 23.5165C10.3825 23.4401 10.4589 23.3383 10.4843 23.2111C10.5098 23.1093 10.5098 22.982 10.4589 22.8802L10.2552 22.2948C10.2043 22.1166 10.1789 21.913 10.1789 21.7349V21.5821V21.4549C10.2298 20.1823 10.8915 19.1897 11.3242 18.5279C11.4006 18.4261 11.4515 18.3243 11.5024 18.2479L11.5533 18.1716L11.6042 18.0952C11.8333 17.7898 12.215 16.899 12.4187 16.3645C12.4696 16.1863 12.5968 15.7536 12.7241 15.4228C12.8004 15.1682 12.8513 14.9137 12.8768 14.6592C12.9531 14.0229 13.0804 13.3866 13.3095 12.8012V12.7758V12.7503C13.4113 12.4958 13.4876 12.2922 13.5385 12.0886C13.7167 11.5541 13.9203 10.9432 14.4803 10.256L14.5821 10.1288L14.6839 10.027C15.9056 8.90707 17.2545 8.70345 18.2726 8.62709H18.2981H18.3235C18.3744 8.62709 18.4508 8.62709 18.5017 8.62709C19.5198 8.62709 20.2833 9.03432 20.7924 9.3143L20.9196 9.3652H20.9451C21.0978 9.44156 21.1996 9.51791 21.3268 9.56882C21.6323 9.72153 22.014 9.77243 22.3449 9.67062C23.0576 9.49246 24.152 9.05978 24.8647 8.65255H24.8901C25.6537 8.19441 26.8245 7.53266 28.1989 7.37995C28.2752 7.35449 28.377 7.35449 28.4534 7.35449C28.6061 7.32904 28.8861 7.30359 29.1915 7.27814C29.7514 7.22723 30.6168 7.15088 31.5076 7.15088C32.882 7.15088 33.9765 7.30359 34.8164 7.58356H34.8418H34.8673C36.9034 8.34712 37.667 9.16158 38.4815 10.2306C38.8123 10.6633 39.1432 11.0705 39.7541 11.605L39.805 11.6559L39.8559 11.7068C40.0086 11.8595 40.1868 12.0122 40.3904 12.1649C40.7467 12.4449 41.2557 12.8267 41.6884 13.5648L41.7393 13.6411L41.7902 13.7175C42.4265 15.041 42.2229 16.2881 42.0702 17.2299V17.3062C41.9684 17.8916 41.8157 18.4516 41.5612 19.0115C41.4339 19.3169 41.3321 19.6478 41.2812 19.9787C41.2557 20.1823 41.2303 20.335 41.2048 20.4623L41.1794 20.5641C41.1285 21.0477 41.0267 21.5058 40.874 21.9639C40.6449 22.702 40.2886 23.3892 39.8304 24.0255C39.0669 25.1454 38.2015 25.8326 37.0562 26.189C36.4962 26.3671 36.0381 26.7234 35.7327 27.207L35.6308 27.3343L35.529 27.4616C35.2491 27.7924 35.3254 29.065 35.3763 29.8286C35.4272 30.6685 35.4781 31.5339 35.3254 32.3483C35.0709 33.7482 34.4601 34.6899 33.9256 35.5044C33.9256 35.5044 31.9403 38.3804 30.1332 38.9149L30.006 38.9658L29.8787 38.9913C29.5478 39.0422 29.1915 39.0931 28.8352 39.0931C28.7588 39.0931 28.6825 39.0931 28.5807 39.0931C28.5043 39.0931 28.4279 39.0931 28.3261 39.0931C28.1989 39.0931 28.0207 39.0931 27.7153 39.1186H27.6898H27.6644C26.4681 39.1695 25.73 39.1949 25.3228 39.2713C25.0428 39.3222 24.7883 39.3985 24.5338 39.5003C23.4394 39.933 21.9631 40.1621 19.8252 40.1621Z" stroke="url(#paint6_linear_2231_3949)" stroke-width="0.218251" stroke-miterlimit="10"/>
</g>
</g>
<defs>
<radialGradient id="paint0_radial_2231_3949" cx="0" cy="0" r="1" gradientUnits="userSpaceOnUse" gradientTransform="translate(24.0007 26.4677) rotate(90) scale(26.5325)">
<stop offset="0.1667" stop-color="#073183"/>
<stop offset="1" stop-color="#0054F9"/>
</radialGradient>
<linearGradient id="paint1_linear_2231_3949" x1="-2.92765" y1="-4.93004" x2="51.1903" y2="51.8699" gradientUnits="userSpaceOnUse">
<stop offset="0.2057" stop-color="#89D0FF"/>
<stop offset="0.3984" stop-color="#EBBF9A"/>
<stop offset="0.6015" stop-color="#EB8280"/>
<stop offset="0.8411" stop-color="#A281FF"/>
</linearGradient>
<linearGradient id="paint2_linear_2231_3949" x1="-0.82917" y1="-2.48588" x2="49.0617" y2="50.0916" gradientUnits="userSpaceOnUse">
<stop offset="0.2057" stop-color="#89D0FF"/>
<stop offset="0.3984" stop-color="#EBBF9A"/>
<stop offset="0.6015" stop-color="#EB80DA"/>
<stop offset="0.8411" stop-color="#A281FF"/>
</linearGradient>
<linearGradient id="paint3_linear_2231_3949" x1="1.29037" y1="-0.372748" x2="46.9531" y2="47.9813" gradientUnits="userSpaceOnUse">
<stop offset="0.2057" stop-color="#89D0FF"/>
<stop offset="0.3984" stop-color="#EBBF9A"/>
<stop offset="0.6015" stop-color="#EB8280"/>
<stop offset="0.8411" stop-color="#A281FF"/>
</linearGradient>
<linearGradient id="paint4_linear_2231_3949" x1="3.40672" y1="1.74753" x2="44.8321" y2="45.865" gradientUnits="userSpaceOnUse">
<stop offset="0.2057" stop-color="#89D0FF"/>
<stop offset="0.3984" stop-color="#EBBF9A"/>
<stop offset="0.6015" stop-color="#EB80E7"/>
<stop offset="0.8411" stop-color="#A281FF"/>
</linearGradient>
<linearGradient id="paint5_linear_2231_3949" x1="5.51096" y1="3.87189" x2="42.7068" y2="43.7496" gradientUnits="userSpaceOnUse">
<stop offset="0.2057" stop-color="#89D0FF"/>
<stop offset="0.3984" stop-color="#EBBF9A"/>
<stop offset="0.6015" stop-color="#EB80D3"/>
<stop offset="0.8411" stop-color="#A281FF"/>
</linearGradient>
<linearGradient id="paint6_linear_2231_3949" x1="7.64264" y1="5.97105" x2="40.6054" y2="41.625" gradientUnits="userSpaceOnUse">
<stop offset="0.2057" stop-color="#89D0FF"/>
<stop offset="0.3984" stop-color="#EBBF9A"/>
<stop offset="0.6015" stop-color="#A280EB"/>
<stop offset="0.8411" stop-color="#A281FF"/>
</linearGradient>
<clipPath id="clip0_2231_3949">
<rect width="48" height="48" rx="24" fill="white"/>
</clipPath>
</defs>
</svg>
