<svg width="32" height="32" viewBox="0 0 32 32" fill="none" xmlns="http://www.w3.org/2000/svg">
  <g clip-path="url(#clip0_11854_154518)">
    <path d="M16 32C24.8365 32 32 24.8365 32 16C32 7.16345 24.8365 0 16 0C7.16345 0 0 7.16345 0 16C0 24.8365 7.16345 32 16 32Z" fill="#E40C5B" />
    <path fill-rule="evenodd" clip-rule="evenodd" d="M16.0195 19.8517C15.1852 19.8508 14.3524 19.9212 13.5298 20.0626L14.7692 17.889C15.187 17.8605 15.6049 17.8461 16.0195 17.8461C16.9943 17.8468 17.9677 17.9258 18.9302 18.0824L14.1328 9.64731L6.14206 23.6923L5 21.6846L14.1143 5.65826L14.1328 5.69121L14.1511 5.65936L25.1511 25H22.8672L20.2963 20.4802C18.9089 20.0582 17.4677 19.8461 16.0195 19.8506V19.8517ZM25.8579 23.7253L15.2087 5H17.4928L27 21.7174L25.8579 23.7253ZM15.2888 14.2396L10.9156 21.9318C12.4809 21.4527 14.3222 21.2385 16.0595 21.2385C16.2004 21.2385 16.3411 21.2385 16.4818 21.2439C17.4683 21.2676 18.4514 21.3712 19.4216 21.5538L20.8808 24.1199C19.3367 23.5424 17.705 23.2449 16.0595 23.2406C13.6621 23.232 11.3004 23.8303 9.18809 24.9814L9.22064 24.923L9.17609 25H6.89213L14.1544 12.2318L15.2888 14.2396Z" fill="white" />
  </g>
  <defs>
    <clipPath id="clip0_11854_154518">
      <rect width="32" height="32" fill="white" />
    </clipPath>
  </defs>
</svg>
  