<svg width="48" height="48" viewBox="0 0 48 48" fill="none" xmlns="http://www.w3.org/2000/svg">
<g clip-path="url(#clip0_1904_3699)">
<path fill-rule="evenodd" clip-rule="evenodd" d="M48.5312 24.5C48.5312 38.1777 37.4433 49.2656 23.7656 49.2656C10.0879 49.2656 -1 38.1777 -1 24.5C-1 10.8223 10.0879 -0.265625 23.7656 -0.265625C37.4433 -0.265625 48.5312 10.8223 48.5312 24.5ZM17.0653 11.8487L17.0469 11.8437L17.0469 11.8437C17.0198 11.8708 17.0021 11.8885 17.0036 11.8903C17.005 11.8919 17.0229 11.8798 17.0653 11.8487ZM17.226 11.8915C17.1724 11.8775 17.1189 11.8633 17.0653 11.8487C17.1088 11.8168 17.1779 11.765 17.2813 11.6875C17.2628 11.755 17.2444 11.823 17.226 11.8915ZM17.226 11.8915C17.596 11.988 17.966 12.0721 18.336 12.1562C18.7656 12.2539 19.1953 12.3515 19.625 12.4687C20.0547 12.5859 20.4844 12.6836 20.9141 12.7812C21.3438 12.8789 21.7735 12.9765 22.2031 13.0937C22.4375 13.1718 22.5156 13.0937 22.5938 12.8593C22.75 12.1953 22.9063 11.5507 23.0625 10.9062C23.2188 10.2617 23.375 9.61715 23.5313 8.95309C23.6094 8.71871 23.6875 8.64059 23.9219 8.71871C24.7031 8.95309 25.4063 9.10934 26.1875 9.26559C26.4219 9.34371 26.4219 9.42184 26.3438 9.57809C26.1875 10.2031 26.0313 10.8476 25.875 11.4921C25.7188 12.1367 25.5625 12.7812 25.4063 13.4062C25.4063 13.4843 25.4063 13.5625 25.3281 13.7187C25.6406 13.7968 25.9727 13.875 26.3047 13.9531C26.6367 14.0312 26.9688 14.1093 27.2813 14.1875C27.3334 14.1875 27.3854 14.118 27.4375 14.0486C27.4636 14.0139 27.4896 13.9791 27.5156 13.9531C27.75 12.9375 27.9844 12 28.2969 10.9843L28.5313 10.0468C28.5313 9.89059 28.6094 9.81246 28.7656 9.89059C29.2103 10.024 29.655 10.1321 30.114 10.2437L30.1141 10.2437C30.4615 10.3281 30.8173 10.4146 31.1875 10.5156C31.2266 10.5156 31.2461 10.5351 31.2656 10.5546C31.2852 10.5742 31.3047 10.5937 31.3438 10.5937C31.1094 11.6093 30.875 12.5468 30.6406 13.4843C30.5625 13.875 30.4844 14.2656 30.3281 14.6562C30.25 14.8906 30.3281 14.9687 30.5625 15.0468L33.1406 16.2187C33.9219 16.6875 34.625 17.3125 35.1719 18.0937C35.875 19.2656 35.9531 20.5156 35.6406 21.7656C35.4063 22.625 35.0938 23.4062 34.4688 24.0312C34 24.5 33.375 24.8125 32.75 25.0468C32.7177 25.0468 32.6853 25.0602 32.6474 25.0759C32.5938 25.0982 32.529 25.125 32.4375 25.125C32.5938 25.2421 32.75 25.3398 32.9063 25.4375C33.0625 25.5351 33.2188 25.6328 33.375 25.75C34.3125 26.4531 34.9375 27.3125 35.25 28.4062C35.4063 29.2656 35.3281 30.2031 35.0938 31.0625C34.7813 32.1562 34.3906 33.0937 33.6875 33.9531C32.8281 34.9687 31.7344 35.5156 30.4844 35.6718C28.8438 35.9062 27.2813 35.75 25.7188 35.5156C25.4844 35.4375 25.3281 35.5156 25.25 35.75C25.0938 36.375 24.9375 37.0195 24.7813 37.664C24.625 38.3086 24.4688 38.9531 24.3125 39.5781L24.3028 39.6171C24.2337 39.8969 24.2176 39.962 23.8438 39.8125C23.4922 39.7343 23.1211 39.6367 22.75 39.539C22.3789 39.4414 22.0078 39.3437 21.6563 39.2656C21.4219 39.1875 21.4219 39.1093 21.5 38.9531C21.8125 37.625 22.125 36.2968 22.5156 35.0468C22.5156 35.0032 22.5217 34.9657 22.5271 34.9325C22.541 34.847 22.5501 34.7906 22.4375 34.7343C21.8125 34.5781 21.1875 34.4218 20.4844 34.2656C20.4063 34.6171 20.3086 34.9687 20.211 35.3203C20.1133 35.6718 20.0156 36.0234 19.9375 36.375C19.8594 36.7265 19.7617 37.0781 19.6641 37.4296C19.5664 37.7812 19.4688 38.1328 19.3906 38.4843C19.3813 38.5029 19.3732 38.5204 19.3656 38.5367C19.3092 38.657 19.2846 38.7094 19.0781 38.6406C18.2969 38.4062 17.5156 38.25 16.7344 38.0937C16.5 38.0156 16.5 37.9375 16.5781 37.7812C16.8906 36.4531 17.2031 35.125 17.5938 33.875C17.5938 33.8426 17.6072 33.8102 17.6229 33.7723C17.6451 33.7187 17.6719 33.654 17.6719 33.5625C15.875 33.0937 14.0781 32.625 12.2031 32.1562C12.2813 32 12.3399 31.8632 12.3985 31.7265C12.4571 31.5898 12.5156 31.4531 12.5938 31.2968C12.9063 30.5937 13.2188 29.8906 13.4531 29.2656C13.5313 29.0312 13.6094 29.0312 13.8438 29.0312C14.3906 29.1875 15.0156 29.3437 15.5625 29.4218C16.1875 29.5781 16.6563 29.2656 16.7344 28.7187C17.75 24.7343 18.7656 20.75 19.7031 16.6875C19.8594 16.0625 19.4688 15.3593 18.7656 15.125C18.2004 14.9366 17.6352 14.7986 17.1106 14.6706C16.9826 14.6394 16.857 14.6087 16.7344 14.5781C16.5781 14.5781 16.5 14.5 16.5781 14.3437C16.6953 13.914 16.8125 13.4648 16.9297 13.0156C17.0285 12.637 17.1272 12.2584 17.226 11.8915ZM21.0312 31.1407C21.1093 31.1407 21.1875 31.2189 21.1875 31.2189C21.3832 31.2678 21.5808 31.3186 21.78 31.3699L21.7802 31.3699C22.8534 31.646 23.9736 31.9342 25.0937 32.0001C26.0312 32.0782 26.8906 32.0782 27.75 31.7657C29.2343 31.297 29.8593 29.3439 29 28.0939C28.6093 27.4689 27.9843 27.0782 27.3593 26.6876C25.9944 25.9293 24.4087 25.6126 22.8879 25.3089L22.8878 25.3089L22.75 25.2814C22.5363 25.2102 22.5174 25.2688 22.4566 25.4571L22.4565 25.4574C22.4506 25.4757 22.4443 25.4951 22.4375 25.5157C22.3593 25.9064 22.2617 26.2775 22.164 26.6486C22.0664 27.0196 21.9687 27.3907 21.8906 27.7814C21.7125 28.4046 21.5598 29.0278 21.4036 29.6655L21.4036 29.6655C21.2856 30.1469 21.1656 30.6366 21.0312 31.1407ZM28.4531 23.0156C28.1406 23.0938 27.75 23.1719 27.5937 23.1719C26.687 23.1719 25.9037 23.0486 25.0945 22.9212C24.7882 22.873 24.4781 22.8242 24.1562 22.7812C24 22.7422 23.8632 22.7031 23.7265 22.6641C23.5898 22.625 23.4531 22.5859 23.2968 22.5469C23.1406 22.4688 23.0625 22.3906 23.1406 22.2344C23.6093 20.5938 24 19.0312 24.3906 17.3906C24.4687 17.1562 24.5468 17.0781 24.7812 17.1562C25.0139 17.2183 25.2435 17.2773 25.4706 17.3356C26.3874 17.5711 27.264 17.7962 28.1406 18.1719C28.8437 18.4844 29.5468 18.9531 29.9375 19.6562C30.7187 20.9844 29.9375 22.7031 28.4531 23.0156Z" fill="#F5B300"/>
</g>
<defs>
<clipPath id="clip0_1904_3699">
<rect width="48" height="48" rx="24" fill="white"/>
</clipPath>
</defs>
</svg>
