<svg width="33" height="33" viewBox="0 0 33 33" fill="none" xmlns="http://www.w3.org/2000/svg">
<g clip-path="url(#clip0_13827_52477)">
<path d="M0.160156 9.83333C0.160156 4.67868 4.33883 0.5 9.49349 0.5H22.8268C27.9815 0.5 32.1602 4.67868 32.1602 9.83333V23.1667C32.1602 28.3213 27.9815 32.5 22.8268 32.5H9.49349C4.33883 32.5 0.160156 28.3213 0.160156 23.1667V9.83333Z" fill="url(#paint0_linear_13827_52477)"/>
<g clip-path="url(#clip1_13827_52477)">
<g clip-path="url(#clip2_13827_52477)">
<path d="M16.1601 0.461578C25.0187 0.461578 32.1985 7.64285 32.1985 16.5C32.1985 25.3586 25.0187 32.5384 16.1601 32.5384C7.30297 32.5384 0.121704 25.3579 0.121704 16.5C0.121704 7.64285 7.30297 0.461578 16.1601 0.461578Z" fill="#F5AC37"/>
<path d="M16.746 17.6325H22.8403C22.9702 17.6325 23.0316 17.6325 23.0409 17.4622C23.0907 16.8422 23.0907 16.2187 23.0409 15.598C23.0409 15.4774 22.981 15.4276 22.8504 15.4276H10.7216C10.5715 15.4276 10.5311 15.4774 10.5311 15.6182V17.4023C10.5311 17.6325 10.5311 17.6325 10.7714 17.6325H16.746ZM22.3603 13.3425C22.3777 13.2971 22.3777 13.2473 22.3603 13.2025C22.2586 12.9809 22.138 12.7695 21.998 12.571C21.7873 12.2318 21.539 11.9193 21.2561 11.6385C21.1226 11.4689 20.9681 11.3166 20.7949 11.1874C19.9274 10.4491 18.896 9.92656 17.7874 9.66385C17.2281 9.53827 16.6565 9.47837 16.0834 9.48342H10.7007C10.5506 9.48342 10.5304 9.54332 10.5304 9.67396V13.2321C10.5304 13.3822 10.5304 13.4227 10.7209 13.4227H22.2882C22.2882 13.4227 22.3885 13.4024 22.4087 13.3425H22.3596H22.3603ZM22.3603 19.7176C22.19 19.6989 22.0182 19.6989 21.8479 19.7176H10.7317C10.5816 19.7176 10.5311 19.7176 10.5311 19.9183V23.397C10.5311 23.5573 10.5311 23.5977 10.7317 23.5977H15.864C16.1094 23.6164 16.3548 23.5991 16.5951 23.5479C17.3399 23.4945 18.0725 23.3328 18.7712 23.0665C19.0252 22.9784 19.2706 22.8637 19.5023 22.7258H19.5723C20.7754 22.1001 21.7526 21.1171 22.369 19.9103C22.369 19.9103 22.439 19.7588 22.3603 19.7191V19.7176ZM8.51673 25.4013V25.3414V23.0059V22.2141V19.8584C8.51673 19.7277 8.51673 19.7082 8.35651 19.7082H6.18119C6.06066 19.7082 6.01086 19.7082 6.01086 19.548V17.6434H8.3363C8.46621 17.6434 8.51673 17.6434 8.51673 17.473V15.5886C8.51673 15.4681 8.51673 15.4385 8.35651 15.4385H6.18119C6.06066 15.4385 6.01086 15.4385 6.01086 15.2782V13.5143C6.01086 13.4039 6.01086 13.3743 6.17109 13.3743H8.32619C8.47631 13.3743 8.51673 13.3743 8.51673 13.1838V7.78084C8.51673 7.62062 8.51673 7.5802 8.71737 7.5802H16.235C16.7806 7.60185 17.3226 7.66176 17.8589 7.76063C18.9639 7.96489 20.0255 8.35967 20.9963 8.92335C21.64 9.30226 22.2326 9.75984 22.7602 10.2867C23.1571 10.6988 23.5151 11.1449 23.8327 11.6198C24.1481 12.1012 24.4101 12.6158 24.6158 13.1534C24.641 13.2935 24.7753 13.388 24.9153 13.3642H26.7095C26.9398 13.3642 26.9398 13.3642 26.9499 13.585V15.2292C26.9499 15.3894 26.89 15.4298 26.729 15.4298H25.3454C25.2054 15.4298 25.165 15.4298 25.1751 15.6102C25.23 16.2208 25.23 16.8336 25.1751 17.4442C25.1751 17.6145 25.1751 17.6347 25.3664 17.6347H26.9491C27.0191 17.7249 26.9491 17.8151 26.9491 17.9061C26.9592 18.0223 26.9592 18.1399 26.9491 18.2561V19.4694C26.9491 19.6397 26.8993 19.6902 26.7485 19.6902H24.8539C24.7219 19.6649 24.5934 19.7494 24.5631 19.8807C24.112 21.0536 23.3903 22.1051 22.4578 22.9481C22.1171 23.2549 21.7591 23.5436 21.3853 23.8099C20.984 24.0408 20.5935 24.2812 20.1821 24.4717C19.425 24.8124 18.6311 25.0635 17.8163 25.223C17.0426 25.3616 16.2581 25.4244 15.4707 25.4136H8.51384V25.4035L8.51673 25.4013Z" fill="#FEFEFD"/>
</g>
</g>
</g>
<defs>
<linearGradient id="paint0_linear_13827_52477" x1="32.1602" y1="32.5" x2="0.160156" y2="0.5" gradientUnits="userSpaceOnUse">
<stop stop-color="#E6335B"/>
<stop offset="1" stop-color="#0036F5"/>
</linearGradient>
<clipPath id="clip0_13827_52477">
<rect x="0.160156" y="0.5" width="32" height="32" rx="16" fill="white"/>
</clipPath>
<clipPath id="clip1_13827_52477">
<rect x="0.121704" y="0.461578" width="32.0768" height="32.0768" rx="16.0384" fill="white"/>
</clipPath>
<clipPath id="clip2_13827_52477">
<rect width="32.0768" height="32.0768" fill="white" transform="translate(0.121704 0.461578)"/>
</clipPath>
</defs>
</svg>
