<svg width="48" height="48" viewBox="0 0 48 48" fill="none" xmlns="http://www.w3.org/2000/svg">
<g clip-path="url(#clip0_1926_4376)">
<path d="M0 14C0 6.26801 6.26801 0 14 0H34C41.732 0 48 6.26801 48 14V34C48 41.732 41.732 48 34 48H14C6.26801 48 0 41.732 0 34V14Z" fill="url(#paint0_linear_1926_4376)"/>
<g clip-path="url(#clip1_1926_4376)">
<g clip-path="url(#clip2_1926_4376)">
<path d="M24 -0.0576172C37.2879 -0.0576172 48.0576 10.7143 48.0576 24C48.0576 37.2879 37.2879 48.0576 24 48.0576C10.7143 48.0576 -0.0576172 37.2868 -0.0576172 24C-0.0576172 10.7143 10.7143 -0.0576172 24 -0.0576172Z" fill="#F5AC37"/>
<path d="M24.8785 25.6989H34.02C34.2149 25.6989 34.3069 25.6989 34.321 25.4434C34.3957 24.5134 34.3957 23.578 34.321 22.647C34.321 22.4662 34.2311 22.3915 34.0352 22.3915H15.842C15.6169 22.3915 15.5562 22.4662 15.5562 22.6773V25.3535C15.5562 25.6989 15.5562 25.6989 15.9167 25.6989H24.8785ZM33.3001 19.2639C33.3261 19.1957 33.3261 19.121 33.3001 19.0538C33.1475 18.7215 32.9667 18.4043 32.7566 18.1066C32.4405 17.5977 32.0681 17.129 31.6437 16.7078C31.4434 16.4534 31.2118 16.225 30.9519 16.0312C29.6506 14.9237 28.1036 14.1399 26.4407 13.7458C25.6017 13.5575 24.7443 13.4676 23.8847 13.4752H15.8106C15.5855 13.4752 15.5551 13.565 15.5551 13.761V19.0982C15.5551 19.3234 15.5551 19.384 15.8409 19.384H33.1918C33.1918 19.384 33.3423 19.3537 33.3726 19.2639H33.299H33.3001ZM33.3001 28.8265C33.0446 28.7984 32.7869 28.7984 32.5315 28.8265H15.8572C15.632 28.8265 15.5562 28.8265 15.5562 29.1275V34.3456C15.5562 34.586 15.5562 34.6466 15.8572 34.6466H23.5556C23.9237 34.6747 24.2918 34.6488 24.6523 34.5719C25.7695 34.4918 26.8683 34.2493 27.9163 33.8498C28.2974 33.7177 28.6655 33.5456 29.013 33.3388H29.118C30.9227 32.4002 32.3885 30.9257 33.3131 29.1156C33.3131 29.1156 33.4181 28.8882 33.3001 28.8287V28.8265ZM12.5347 37.352V37.2622V33.7588V32.5712V29.0376C12.5347 28.8417 12.5347 28.8124 12.2943 28.8124H9.03137C8.85058 28.8124 8.77588 28.8124 8.77588 28.5721V25.7151H12.264C12.4589 25.7151 12.5347 25.7151 12.5347 25.4596V22.6329C12.5347 22.4521 12.5347 22.4078 12.2943 22.4078H9.03137C8.85058 22.4078 8.77588 22.4078 8.77588 22.1674V19.5215C8.77588 19.3559 8.77588 19.3115 9.01622 19.3115H12.2489C12.4741 19.3115 12.5347 19.3115 12.5347 19.0257V10.9213C12.5347 10.681 12.5347 10.6204 12.8356 10.6204H24.112C24.9305 10.6528 25.7435 10.7427 26.5479 10.891C28.2054 11.1974 29.7979 11.7896 31.254 12.6351C32.2197 13.2035 33.1085 13.8898 33.8999 14.6801C34.4953 15.2983 35.0323 15.9673 35.5086 16.6797C35.9817 17.4018 36.3747 18.1737 36.6832 18.9802C36.7211 19.1903 36.9225 19.3321 37.1325 19.2963H39.8239C40.1692 19.2963 40.1692 19.2963 40.1844 19.6276V22.0938C40.1844 22.3341 40.0945 22.3948 39.8531 22.3948H37.7777C37.5677 22.3948 37.5071 22.3948 37.5223 22.6654C37.6045 23.5813 37.6045 24.5004 37.5223 25.4163C37.5223 25.6718 37.5223 25.7021 37.8091 25.7021H40.1833C40.2883 25.8374 40.1833 25.9728 40.1833 26.1092C40.1984 26.2835 40.1984 26.4599 40.1833 26.6342V28.4541C40.1833 28.7096 40.1086 28.7854 39.8823 28.7854H37.0405C36.8424 28.7475 36.6497 28.8741 36.6042 29.0712C35.9276 30.8304 34.845 32.4078 33.4462 33.6722C32.9353 34.1323 32.3983 34.5654 31.8375 34.9649C31.2356 35.3113 30.6499 35.6718 30.0328 35.9576C28.8971 36.4686 27.7063 36.8454 26.484 37.0846C25.3235 37.2925 24.1467 37.3867 22.9656 37.3704H12.5303V37.3553L12.5347 37.352Z" fill="#FEFEFD"/>
</g>
</g>
</g>
<defs>
<linearGradient id="paint0_linear_1926_4376" x1="48" y1="48" x2="0" y2="0" gradientUnits="userSpaceOnUse">
<stop stop-color="#E6335B"/>
<stop offset="1" stop-color="#0036F5"/>
</linearGradient>
<clipPath id="clip0_1926_4376">
<rect width="48" height="48" rx="24" fill="white"/>
</clipPath>
<clipPath id="clip1_1926_4376">
<rect x="-0.0576172" y="-0.0576172" width="48.1152" height="48.1152" rx="24.0576" fill="white"/>
</clipPath>
<clipPath id="clip2_1926_4376">
<rect width="48.1152" height="48.1152" fill="white" transform="translate(-0.0576172 -0.0576172)"/>
</clipPath>
</defs>
</svg>
