<svg width="48" height="48" viewBox="0 0 48 48" fill="none" xmlns="http://www.w3.org/2000/svg">
<g clip-path="url(#clip0_2055_4451)">
<g clip-path="url(#clip1_2055_4451)">
<path fill-rule="evenodd" clip-rule="evenodd" d="M23.74 0.0368652C37.197 0.0368652 48.1031 10.943 48.1031 24.4C48.1031 37.8569 37.197 48.7631 23.74 48.7631C10.2831 48.7631 -0.623047 37.8569 -0.623047 24.4C-0.623047 10.943 10.2831 0.0368652 23.74 0.0368652Z" fill="#E60079"/>
<path d="M23.74 6.96289C27.2146 6.96289 30.0269 8.60143 30.0269 10.6235C30.0269 12.6455 27.2088 14.284 23.74 14.284C20.2654 14.284 17.4531 12.6455 17.4531 10.6235C17.4531 8.60143 20.2712 6.96289 23.74 6.96289Z" fill="white"/>
<path d="M23.74 34.5217C27.2146 34.5217 30.0269 36.1603 30.0269 38.1823C30.0269 40.2043 27.2088 41.8429 23.74 41.8429C20.2654 41.8429 17.4531 40.2043 17.4531 38.1823C17.4531 36.1603 20.2712 34.5217 23.74 34.5217Z" fill="white"/>
<path d="M8.63853 15.6786C10.3758 12.6688 13.1997 11.0535 14.9545 12.0645C16.7034 13.0755 16.715 16.3352 14.9777 19.3392C13.2404 22.349 10.4165 23.9643 8.66177 22.9532C6.91284 21.9422 6.90121 18.6826 8.63853 15.6786Z" fill="white"/>
<path d="M32.5077 29.4609C34.245 26.4511 37.0689 24.8358 38.8178 25.841C40.5667 26.852 40.5783 30.1058 38.841 33.1156C37.1037 36.1254 34.2798 37.7407 32.5309 36.7355C30.782 35.7245 30.7704 32.4707 32.5077 29.4609Z" fill="white"/>
<path d="M8.66177 25.8411C10.4107 24.83 13.2404 26.4511 14.9777 29.4551C16.715 32.4649 16.7034 35.7188 14.9545 36.7298C13.2055 37.7408 10.3758 36.1197 8.63853 33.1157C6.90121 30.1059 6.91284 26.8521 8.66177 25.8411Z" fill="white"/>
<path d="M32.5309 12.0644C34.2798 11.0534 37.1037 12.6745 38.841 15.6843C40.5783 18.6941 40.5667 21.9479 38.8178 22.9589C37.0689 23.9699 34.245 22.3488 32.5077 19.339C30.7704 16.3292 30.782 13.0754 32.5309 12.0644Z" fill="white"/>
</g>
</g>
<defs>
<clipPath id="clip0_2055_4451">
<rect width="48" height="48" rx="24" fill="white"/>
</clipPath>
<clipPath id="clip1_2055_4451">
<rect width="48.7029" height="48.7029" fill="white" transform="translate(-0.611816 0.048584)"/>
</clipPath>
</defs>
</svg>
