<svg width="33" height="33" viewBox="0 0 33 33" fill="none" xmlns="http://www.w3.org/2000/svg">
<g clip-path="url(#clip0_13827_50990)">
<g clip-path="url(#clip1_13827_50990)">
<path fill-rule="evenodd" clip-rule="evenodd" d="M15.9868 0.524536C24.9581 0.524536 32.2289 7.79531 32.2289 16.7666C32.2289 25.7379 24.9581 33.0087 15.9868 33.0087C7.01552 33.0087 -0.255249 25.7379 -0.255249 16.7666C-0.255249 7.79531 7.01552 0.524536 15.9868 0.524536Z" fill="#E60079"/>
<path d="M15.9867 5.14194C18.3031 5.14194 20.1779 6.2343 20.1779 7.58231C20.1779 8.93033 18.2992 10.0227 15.9867 10.0227C13.6702 10.0227 11.7954 8.93033 11.7954 7.58231C11.7954 6.2343 13.6741 5.14194 15.9867 5.14194Z" fill="white"/>
<path d="M15.9867 23.5145C18.3031 23.5145 20.1779 24.6068 20.1779 25.9548C20.1779 27.3029 18.2992 28.3952 15.9867 28.3952C13.6702 28.3952 11.7954 27.3029 11.7954 25.9548C11.7954 24.6068 13.6741 23.5145 15.9867 23.5145Z" fill="white"/>
<path d="M5.91914 10.9523C7.07735 8.94582 8.95992 7.86895 10.1298 8.54296C11.2957 9.21697 11.3035 11.3901 10.1452 13.3927C8.98704 15.3993 7.10446 16.4761 5.93463 15.8021C4.76867 15.1281 4.76093 12.955 5.91914 10.9523Z" fill="white"/>
<path d="M21.832 20.1405C22.9902 18.134 24.8728 17.0571 26.0387 17.7273C27.2047 18.4013 27.2124 20.5705 26.0542 22.577C24.896 24.5836 23.0134 25.6604 21.8475 24.9903C20.6815 24.3163 20.6738 22.1471 21.832 20.1405Z" fill="white"/>
<path d="M5.93463 17.7273C7.10059 17.0533 8.98704 18.134 10.1452 20.1367C11.3035 22.1432 11.2957 24.3124 10.1298 24.9864C8.9638 25.6604 7.07735 24.5797 5.91914 22.577C4.76093 20.5705 4.76867 18.4013 5.93463 17.7273Z" fill="white"/>
<path d="M21.8475 8.54295C23.0134 7.86894 24.896 8.94968 26.0542 10.9562C27.2124 12.9627 27.2047 15.132 26.0387 15.806C24.8728 16.48 22.9902 15.3992 21.832 13.3927C20.6738 11.3862 20.6815 9.21696 21.8475 8.54295Z" fill="white"/>
</g>
</g>
<defs>
<clipPath id="clip0_13827_50990">
<rect x="0.160156" y="0.5" width="32" height="32" rx="16" fill="white"/>
</clipPath>
<clipPath id="clip1_13827_50990">
<rect width="32.4686" height="32.4686" fill="white" transform="translate(-0.247559 0.532349)"/>
</clipPath>
</defs>
</svg>
