<svg width="33" height="33" viewBox="0 0 33 33" fill="none" xmlns="http://www.w3.org/2000/svg">
<g clip-path="url(#clip0_13827_52413)">
<path d="M0.160156 9.83333C0.160156 4.67868 4.33883 0.5 9.49349 0.5H22.8268C27.9815 0.5 32.1602 4.67868 32.1602 9.83333V23.1667C32.1602 28.3213 27.9815 32.5 22.8268 32.5H9.49349C4.33883 32.5 0.160156 28.3213 0.160156 23.1667V9.83333Z" fill="#F6297C"/>
<path fill-rule="evenodd" clip-rule="evenodd" d="M3.32678 16.5005L16.1647 3.66669L28.9935 16.5038L16.1647 29.3334L3.32678 16.5005ZM23.7454 12.6485C23.212 13.2445 22.049 14.7452 22.049 16.5005C22.049 18.2557 23.212 19.7565 23.7454 20.3524C20.319 20.1711 17.5795 16.5005 17.5795 16.5005C17.5795 16.5005 20.319 12.8298 23.7454 12.6485ZM8.59338 12.6485C12.0197 12.8298 14.7593 16.5005 14.7593 16.5005C14.7593 16.5005 12.0197 20.1711 8.59338 20.3524C9.12673 19.7565 10.2897 18.2557 10.2897 16.5005C10.2897 14.7452 9.12673 13.2445 8.59338 12.6485ZM8.05049 12.6712C7.5084 13.2813 6.37377 14.7668 6.37377 16.5005C6.37377 18.241 7.51731 19.7313 8.05684 20.3369L10.8321 23.1144L10.8452 23.1016C11.9562 22.0152 13.8032 20.5872 15.9088 20.4785C15.3787 21.0695 14.2097 22.5722 14.2097 24.3307C14.2097 26.0893 15.3787 27.592 15.9088 28.183L16.1646 28.4511L16.4204 28.183C16.9505 27.592 18.1195 26.0893 18.1195 24.3307C18.1195 22.5722 16.9505 21.0695 16.4204 20.4785C18.5343 20.5877 20.3874 22.0264 21.4971 23.1144L24.3379 20.2714L24.3445 20.2638C24.9062 19.6184 25.965 18.1753 25.965 16.5005C25.965 14.8191 24.8979 13.3713 24.3379 12.7296L21.5103 9.89982L21.4973 9.91261C20.3874 11.0005 18.5342 12.4392 16.4204 12.5483C16.9505 11.9573 18.1195 10.4546 18.1195 8.69608C18.1195 6.93753 16.9505 5.43482 16.4204 4.84381L16.1646 4.54988L15.9088 4.84381C15.3787 5.43482 14.2097 6.93753 14.2097 8.69608C14.2097 10.4546 15.3787 11.9573 15.9088 12.5483C13.7867 12.4387 11.9274 10.9892 10.8189 9.89982L8.05049 12.6712Z" fill="white"/>
</g>
<defs>
<clipPath id="clip0_13827_52413">
<rect x="0.160156" y="0.5" width="32" height="32" rx="16" fill="white"/>
</clipPath>
</defs>
</svg>
