<svg width="48" height="48" viewBox="0 0 48 48" fill="none" xmlns="http://www.w3.org/2000/svg">
<g clip-path="url(#clip0_2259_3798)">
<g clip-path="url(#clip1_2259_3798)">
<path d="M24 51.25C39.0498 51.25 51.25 39.0498 51.25 24C51.25 8.95024 39.0498 -3.25 24 -3.25C8.95024 -3.25 -3.25 8.95024 -3.25 24C-3.25 39.0498 8.95024 51.25 24 51.25Z" fill="white"/>
<path d="M41.0374 38.0065H17.2424C17.129 38.0063 17.018 37.9746 16.9213 37.9154L8.32422 32.607C8.20832 32.5388 8.11833 32.4341 8.0683 32.3093C8.01828 32.1846 8.01106 32.0466 8.04776 31.9174C8.08446 31.788 8.16304 31.6745 8.27117 31.5944C8.3793 31.5146 8.51086 31.4729 8.6453 31.4757H32.4403C32.5537 31.4754 32.6649 31.5072 32.7613 31.5668L41.3585 36.8741C41.4749 36.942 41.5654 37.0468 41.6158 37.172C41.6661 37.2969 41.6735 37.4351 41.6367 37.5647C41.6001 37.6944 41.5211 37.8083 41.4128 37.8881C41.3042 37.9682 41.1722 38.0099 41.0374 38.0065ZM17.4156 36.783H38.8881L32.2672 32.6983H10.7946L17.4156 36.783ZM39.5566 16.6931H15.7616C15.6483 16.6927 15.5372 16.6612 15.4405 16.6019L6.84242 11.2935C6.72677 11.2255 6.63691 11.1211 6.58686 10.9966C6.53679 10.8721 6.52934 10.7345 6.56564 10.6054C6.60196 10.4762 6.68 10.3627 6.7876 10.2825C6.89519 10.2023 7.02629 10.16 7.16045 10.1622H30.9626C31.0758 10.1625 31.187 10.1941 31.2836 10.2533L39.8757 15.5617C39.9915 15.6299 40.0815 15.7346 40.1316 15.8594C40.1816 15.9842 40.1888 16.1221 40.152 16.2514C40.1154 16.3807 40.0368 16.4943 39.9287 16.5742C39.8205 16.6541 39.689 16.6959 39.5546 16.6931H39.5566ZM15.9348 15.4706H37.4074L30.7863 11.3847H9.31378L15.9348 15.4706Z" fill="#1A0A2D"/>
<path d="M24.5264 23.7607C25.0196 23.7607 25.6709 23.7051 26.0366 23.3332C26.126 23.2525 26.1974 23.1535 26.2453 23.043C26.2932 22.9323 26.3166 22.8127 26.314 22.6922C26.3019 21.8463 25.6051 21.5477 24.9517 21.5496H23.9692L23.9754 23.7202L24.0868 23.7334C24.2328 23.7506 24.3795 23.7598 24.5264 23.7607ZM25.0167 24.4626L23.9795 24.4738L23.9875 27.0189H25.0379C25.8078 27.0189 26.6302 26.6798 26.6321 25.7418C26.6385 25.5873 26.6131 25.4331 26.5578 25.2888C26.5022 25.1444 26.4181 25.0129 26.31 24.9022C25.8978 24.4919 25.2161 24.4615 25.0167 24.4626Z" fill="#FF9900"/>
<path d="M29.0023 19.6598C27.8208 18.5483 26.2486 17.9473 24.6268 17.9875H24.5621C22.9252 18.0431 21.3768 18.7441 20.2551 19.9376C19.1334 21.1308 18.5294 22.7196 18.5752 24.3568C18.6209 25.9939 19.3126 27.5465 20.4993 28.6753C21.6859 29.8042 23.2709 30.4178 24.9085 30.3818H24.9702C26.1956 30.3413 27.3816 29.9383 28.3779 29.2239C29.3743 28.5092 30.1366 27.5154 30.5682 26.3677C30.9997 25.22 31.0812 23.9704 30.8025 22.7763C30.5239 21.5822 29.8973 20.4977 29.0023 19.6598ZM27.1508 27.3807C26.7678 27.5316 26.361 27.6127 25.9495 27.6208H25.8241L25.8139 27.7464V28.9729H24.8953V27.6117L23.9907 27.6187V28.971H23.065L23.0629 27.6238L21.5073 27.6359V27.0281H22.0845C22.2016 27.0277 22.3135 26.9809 22.3959 26.8978C22.4783 26.8148 22.5243 26.7026 22.5241 26.5855L22.509 21.9965C22.509 21.7674 22.3265 21.6084 22.0672 21.6084L21.4879 21.5679V20.7212H23.0599V19.3264H23.9715V20.7232H24.8831V19.3234H25.7947V20.7242H25.9627C26.2778 20.7242 27.8568 21.0523 27.8608 22.3307C27.8608 23.7394 26.6799 23.8914 26.6597 23.934L26.5969 23.9391C26.6627 23.9461 28.2053 24.2429 28.194 25.8747C28.1851 26.5815 27.8425 27.0869 27.1508 27.3807Z" fill="#FF9900"/>
</g>
</g>
<defs>
<clipPath id="clip0_2259_3798">
<rect width="48" height="48" rx="24" fill="white"/>
</clipPath>
<clipPath id="clip1_2259_3798">
<rect width="54.5" height="54.5" fill="white" transform="translate(-3.25 -3.25)"/>
</clipPath>
</defs>
</svg>
