<svg width="48" height="48" viewBox="0 0 48 48" fill="none" xmlns="http://www.w3.org/2000/svg">
<g clip-path="url(#clip0_2250_4795)">
<circle cx="23.9927" cy="24.4309" r="25.8042" fill="#0075FF"/>
<path fill-rule="evenodd" clip-rule="evenodd" d="M43.4408 24.3682L23.6078 4.53522L3.77488 24.3682L23.6078 44.2011L43.4408 24.3682ZM35.431 18.0209L23.6078 6.19776L11.7847 18.0209C8.12772 21.6779 8.12773 27.607 11.7847 31.2639L14.7289 34.2081C19.6326 39.1118 27.5831 39.1118 32.4868 34.2081L35.431 31.2639C39.088 27.607 39.0879 21.6779 35.431 18.0209Z" fill="white"/>
<path fill-rule="evenodd" clip-rule="evenodd" d="M30.3842 13.636L23.605 6.85676L16.8258 13.636C14.5936 15.8681 14.5936 19.4872 16.8258 21.7193C20.5698 25.4634 26.6401 25.4634 30.3842 21.7193C32.6163 19.4872 32.6163 15.8681 30.3842 13.636ZM23.605 4.47681L15.6358 12.446C12.7464 15.3353 12.7464 20.0199 15.6358 22.9093C20.0371 27.3105 27.1729 27.3105 31.5742 22.9093C34.4635 20.0199 34.4635 15.3353 31.5742 12.446L23.605 4.47681Z" fill="white"/>
<path fill-rule="evenodd" clip-rule="evenodd" d="M30.3842 13.636L23.605 6.85676L16.8258 13.636C14.5936 15.8681 14.5936 19.4872 16.8258 21.7193C20.5698 25.4634 26.6401 25.4634 30.3842 21.7193C32.6163 19.4872 32.6163 15.8681 30.3842 13.636ZM23.605 4.47681L15.6358 12.446C12.7464 15.3353 12.7464 20.0199 15.6358 22.9093C20.0371 27.3105 27.1729 27.3105 31.5742 22.9093C34.4635 20.0199 34.4635 15.3353 31.5742 12.446L23.605 4.47681Z" fill="white"/>
<path d="M23.6079 5.66678L33.9532 16.012C35.5365 17.5954 36.2451 18.3089 36.7197 18.9981C38.9224 22.1967 38.9224 26.4229 36.7197 29.6214C36.2451 30.3106 35.5365 31.0242 33.9532 32.6075C32.0114 34.5493 31.1186 35.4371 30.2524 36.0336C26.2512 38.789 20.9646 38.789 16.9634 36.0336C16.0973 35.4371 15.2045 34.5493 13.2627 32.6075C11.6793 31.0242 10.9707 30.3106 10.4961 29.6214C8.29347 26.4229 8.29347 22.1967 10.4962 18.9981C10.9707 18.3089 11.6793 17.5954 13.2627 16.012L23.6079 5.66678Z" stroke="white" stroke-width="1.68288"/>
<path d="M23.6079 5.66678L33.9532 16.012C35.5365 17.5954 36.2451 18.3089 36.7197 18.9981C38.9224 22.1967 38.9224 26.4229 36.7197 29.6214C36.2451 30.3106 35.5365 31.0242 33.9532 32.6075C32.0114 34.5493 31.1186 35.4371 30.2524 36.0336C26.2512 38.789 20.9646 38.789 16.9634 36.0336C16.0973 35.4371 15.2045 34.5493 13.2627 32.6075C11.6793 31.0242 10.9707 30.3106 10.4961 29.6214C8.29347 26.4229 8.29347 22.1967 10.4962 18.9981C10.9707 18.3089 11.6793 17.5954 13.2627 16.012L23.6079 5.66678Z" stroke="white" stroke-width="1.68288"/>
<path fill-rule="evenodd" clip-rule="evenodd" d="M32.4968 15.7457L23.6079 6.85676L14.5877 15.8769C14.0084 16.4562 13.7892 16.6774 13.6272 16.8672C11.48 19.3841 11.48 23.0881 13.6272 25.605C13.7889 25.7945 14.0239 26.0315 14.6394 26.647C15.4594 27.467 15.8082 27.8144 16.09 28.0603C20.3974 31.8184 26.8184 31.8184 31.1258 28.0603C31.408 27.8141 31.7316 27.4918 32.4968 26.7266C33.0106 26.2128 33.2071 26.0149 33.3544 25.8461C35.6589 23.2048 35.6589 19.2675 33.3544 16.6262C33.2071 16.4574 33.0106 16.2595 32.4968 15.7457ZM23.6079 4.47681L13.3978 14.687C12.8413 15.2435 12.563 15.5217 12.3469 15.775C9.66297 18.9211 9.66297 23.5511 12.3469 26.6972C12.563 26.9506 12.8585 27.246 13.4495 27.837C14.2481 28.6357 14.6475 29.035 14.9836 29.3283C19.925 33.6396 27.2909 33.6396 32.2322 29.3283C32.5683 29.035 32.9411 28.6622 33.6868 27.9166C34.181 27.4224 34.4281 27.1753 34.6225 26.9524C37.4801 23.6773 37.4801 18.795 34.6225 15.5198C34.4281 15.297 34.181 15.0499 33.6868 14.5557L23.6079 4.47681Z" fill="white"/>
<path fill-rule="evenodd" clip-rule="evenodd" d="M32.4968 15.7457L23.6079 6.85676L14.5877 15.8769C14.0084 16.4562 13.7892 16.6774 13.6272 16.8672C11.48 19.3841 11.48 23.0881 13.6272 25.605C13.7889 25.7945 14.0239 26.0315 14.6394 26.647C15.4594 27.467 15.8082 27.8144 16.09 28.0603C20.3974 31.8184 26.8184 31.8184 31.1258 28.0603C31.408 27.8141 31.7316 27.4918 32.4968 26.7266C33.0106 26.2128 33.2071 26.0149 33.3544 25.8461C35.6589 23.2048 35.6589 19.2675 33.3544 16.6262C33.2071 16.4574 33.0106 16.2595 32.4968 15.7457ZM23.6079 4.47681L13.3978 14.687C12.8413 15.2435 12.563 15.5217 12.3469 15.775C9.66297 18.9211 9.66297 23.5511 12.3469 26.6972C12.563 26.9506 12.8585 27.246 13.4495 27.837C14.2481 28.6357 14.6475 29.035 14.9836 29.3283C19.925 33.6396 27.2909 33.6396 32.2322 29.3283C32.5683 29.035 32.9411 28.6622 33.6868 27.9166C34.181 27.4224 34.4281 27.1753 34.6225 26.9524C37.4801 23.6773 37.4801 18.795 34.6225 15.5198C34.4281 15.297 34.181 15.0499 33.6868 14.5557L23.6079 4.47681Z" fill="white"/>
<path fill-rule="evenodd" clip-rule="evenodd" d="M27.9207 11.3632L23.605 7.04744L19.2892 11.3632C17.6788 12.9736 17.6788 15.5846 19.2892 17.195C21.6728 19.5785 25.5372 19.5785 27.9207 17.195C29.5311 15.5846 29.5311 12.9736 27.9207 11.3632ZM23.605 4.66748L18.0993 10.1732C15.8316 12.4408 15.8316 16.1174 18.0993 18.385C21.14 21.4257 26.07 21.4257 29.1107 18.385C31.3783 16.1174 31.3783 12.4408 29.1107 10.1732L23.605 4.66748Z" fill="white"/>
<path fill-rule="evenodd" clip-rule="evenodd" d="M27.9207 11.3632L23.605 7.04744L19.2892 11.3632C17.6788 12.9736 17.6788 15.5846 19.2892 17.195C21.6728 19.5785 25.5372 19.5785 27.9207 17.195C29.5311 15.5846 29.5311 12.9736 27.9207 11.3632ZM23.605 4.66748L18.0993 10.1732C15.8316 12.4408 15.8316 16.1174 18.0993 18.385C21.14 21.4257 26.07 21.4257 29.1107 18.385C31.3783 16.1174 31.3783 12.4408 29.1107 10.1732L23.605 4.66748Z" fill="white"/>
</g>
<defs>
<clipPath id="clip0_2250_4795">
<rect width="48" height="48" rx="24" fill="white"/>
</clipPath>
</defs>
</svg>