<svg width="33" height="33" viewBox="0 0 33 33" fill="none" xmlns="http://www.w3.org/2000/svg">
<g clip-path="url(#clip0_13827_48065)">
<g clip-path="url(#clip1_13827_48065)">
<circle cx="16.1243" cy="16.5429" r="16.4619" transform="rotate(-30 16.1243 16.5429)" fill="#0085FF"/>
<circle cx="16.1243" cy="16.5429" r="16.4619" transform="rotate(-30 16.1243 16.5429)" fill="url(#paint0_linear_13827_48065)"/>
<mask id="mask0_13827_48065" style="mask-type:alpha" maskUnits="userSpaceOnUse" x="-1" y="0" width="34" height="34">
<circle cx="16.1243" cy="16.5429" r="16.4619" transform="rotate(-30 16.1243 16.5429)" fill="white"/>
</mask>
<g mask="url(#mask0_13827_48065)">
</g>
<path fill-rule="evenodd" clip-rule="evenodd" d="M28.592 16.5371L15.9129 3.85809L3.23389 16.5371L15.9129 29.2162L28.592 16.5371ZM22.4933 11.8371L15.9129 5.25676L9.33263 11.8371C6.62241 14.5473 6.62241 18.9414 9.33263 21.6516C12.9668 25.2858 18.859 25.2858 22.4933 21.6516C25.2035 18.9414 25.2035 14.5473 22.4933 11.8371Z" fill="white"/>
<path fill-rule="evenodd" clip-rule="evenodd" d="M20.5636 10.5L15.913 5.84933L11.2623 10.5C9.48927 12.273 9.48927 15.1477 11.2623 16.9207C13.8308 19.4892 17.9951 19.4892 20.5636 16.9207C22.3367 15.1477 22.3367 12.273 20.5636 10.5ZM15.913 3.82068L10.248 9.48567C7.91475 11.8189 7.91475 15.6018 10.248 17.935C13.3767 21.0637 18.4493 21.0637 21.578 17.935C23.9112 15.6018 23.9112 11.8189 21.578 9.48567L15.913 3.82068Z" fill="white"/>
<path fill-rule="evenodd" clip-rule="evenodd" d="M20.5636 10.5L15.913 5.84933L11.2623 10.5C9.48927 12.273 9.48927 15.1477 11.2623 16.9207C13.8308 19.4892 17.9951 19.4892 20.5636 16.9207C22.3367 15.1477 22.3367 12.273 20.5636 10.5ZM15.913 3.82068L10.248 9.48567C7.91475 11.8189 7.91475 15.6018 10.248 17.935C13.3767 21.0637 18.4493 21.0637 21.578 17.935C23.9112 15.6018 23.9112 11.8189 21.578 9.48567L15.913 3.82068Z" fill="white"/>
<path fill-rule="evenodd" clip-rule="evenodd" d="M18.9933 8.90002L15.913 5.81964L12.8326 8.90002C11.6707 10.0619 11.6707 11.9457 12.8326 13.1076C14.5338 14.8088 17.2921 14.8088 18.9933 13.1076C20.1552 11.9457 20.1552 10.0619 18.9933 8.90002ZM15.913 4.29816L12.0718 8.13928C10.4898 9.7213 10.4898 12.2863 12.0718 13.8683C14.1932 15.9897 17.6327 15.9897 19.7541 13.8683C21.3361 12.2863 21.3361 9.7213 19.7541 8.13927L15.913 4.29816Z" fill="white"/>
<path fill-rule="evenodd" clip-rule="evenodd" d="M18.9933 8.90002L15.913 5.81964L12.8326 8.90002C11.6707 10.0619 11.6707 11.9457 12.8326 13.1076C14.5338 14.8088 17.2921 14.8088 18.9933 13.1076C20.1552 11.9457 20.1552 10.0619 18.9933 8.90002ZM15.913 4.29816L12.0718 8.13928C10.4898 9.7213 10.4898 12.2863 12.0718 13.8683C14.1932 15.9897 17.6327 15.9897 19.7541 13.8683C21.3361 12.2863 21.3361 9.7213 19.7541 8.13927L15.913 4.29816Z" fill="white"/>
</g>
</g>
<defs>
<linearGradient id="paint0_linear_13827_48065" x1="20.2888" y1="-2.16874" x2="2.50644" y2="28.6312" gradientUnits="userSpaceOnUse">
<stop offset="0.231528" stop-color="#0085FF"/>
<stop offset="1" stop-color="#2C4EFF"/>
</linearGradient>
<clipPath id="clip0_13827_48065">
<rect x="0.160156" y="0.5" width="32" height="32" rx="16" fill="white"/>
</clipPath>
<clipPath id="clip1_13827_48065">
<rect width="32.9928" height="32.9928" fill="white" transform="translate(-0.336304 0.00360107)"/>
</clipPath>
</defs>
</svg>
