<svg width="32" height="32" viewBox="0 0 32 32" fill="none" xmlns="http://www.w3.org/2000/svg">
  <g clip-path="url(#clip0_12285_155369)">
    <path d="M16 32C24.8365 32 32 24.8365 32 16C32 7.16345 24.8365 0 16 0C7.16345 0 0 7.16345 0 16C0 24.8365 7.16345 32 16 32Z" fill="#1E1E1E" />
    <path fill-rule="evenodd" clip-rule="evenodd" d="M23.2486 9.56087L25.2604 9.30408L26.401 11.3481L25.1243 12.7915C25.2795 13.2358 25.4018 13.6909 25.4901 14.153L27.3447 14.8232L27.3096 17.1642L25.4806 17.7766C25.3917 18.2377 25.2694 18.6917 25.1148 19.1351L26.3878 20.6451L25.1873 22.6555L23.2998 22.2714C22.9916 22.627 22.6575 22.9593 22.3004 23.2656L22.6472 25.2073L20.6024 26.3478L19.6375 25.4941V21.7959C20.4756 21.2749 21.192 20.5797 21.738 19.7575C22.284 18.9355 22.6469 18.0055 22.8021 17.0309C22.9573 16.0562 22.9012 15.0596 22.6375 14.1085C22.3739 13.1575 21.9089 12.2742 21.274 11.5186L23.2493 9.56161L23.2486 9.56087ZM10.6653 11.5954C10.0469 12.3537 9.59718 13.235 9.34616 14.1807C9.09513 15.1264 9.04854 16.1148 9.20949 17.0799C9.37043 18.045 9.73522 18.9647 10.2795 19.7778C10.8239 20.5909 11.5352 21.2786 12.3662 21.7952V25.4341L11.3032 26.3295L9.29281 25.129L9.67616 23.2422C9.32064 22.9342 8.98834 22.6005 8.68194 22.2436L6.73958 22.5904L5.59904 20.5456L6.87565 19.1022C6.72039 18.6578 6.59813 18.2024 6.50986 17.74L4.6553 17.0699L4.68968 14.7288L6.51864 14.1164C6.60748 13.6553 6.72973 13.2013 6.88444 12.7579L5.61221 11.2479L6.81201 9.2375L8.68633 9.61865L10.6653 11.5954Z" fill="url(#paint0_linear_12285_155369)" />
    <path fill-rule="evenodd" clip-rule="evenodd" d="M9.39283 6.73107L11.4376 5.59052L12.8803 6.86715C13.3248 6.71185 13.78 6.58959 14.2425 6.50136L14.9127 4.64679L17.2537 4.68117L17.8653 6.51013C18.3264 6.59912 18.7804 6.72137 19.2239 6.87593L20.7331 5.60369L22.7428 6.80424L22.3595 8.69098C22.4979 8.81047 22.6331 8.9346 22.7648 9.06336L20.8056 11.0225C20.475 10.7052 20.1138 10.4214 19.7272 10.1754L18.5852 9.44817V16.3185L17.3108 17.0545L16.0364 17.7905L14.762 17.0545L13.4875 16.3185V9.44817L12.3455 10.1754C11.9304 10.4411 11.5449 10.7503 11.1954 11.0979L9.23699 9.13944C9.39794 8.97996 9.56548 8.82535 9.7396 8.67562L9.39283 6.73107Z" fill="white" />
  </g>
  <defs>
    <linearGradient id="paint0_linear_12285_155369" x1="21.5816" y1="20.3934" x2="11.379" y2="11.0997" gradientUnits="userSpaceOnUse">
      <stop stop-color="#30BCD0" />
      <stop offset="1" stop-color="#CA28CC" />
    </linearGradient>
    <clipPath id="clip0_12285_155369">
      <rect width="32" height="32" fill="white" />
    </clipPath>
  </defs>
</svg>
  