<svg width="48" height="48" viewBox="0 0 48 48" fill="none" xmlns="http://www.w3.org/2000/svg">
<g clip-path="url(#clip0_2056_4492)">
<rect x="-0.0551758" y="-0.0551758" width="48.1104" height="48.1104" rx="20.046" fill="white"/>
<path d="M23.9448 48.0552C37.2755 48.0552 48 37.3307 48 24C48 10.6693 37.2755 -0.0551758 23.9448 -0.0551758C10.6142 -0.0551758 -0.110352 10.6693 -0.110352 24C-0.110352 37.3307 10.6142 48.0552 23.9448 48.0552Z" fill="#2775CA"/>
<path d="M30.5601 27.8087C30.5601 24.3007 28.4553 23.098 24.2456 22.5969C21.2387 22.1959 20.6374 21.3942 20.6374 19.9908C20.6374 18.5874 21.6397 17.6856 23.6443 17.6856C25.4484 17.6856 26.4508 18.287 26.9518 19.7904C27.0522 20.0911 27.3528 20.2915 27.6535 20.2915H29.2571C29.6581 20.2915 29.9587 19.9908 29.9587 19.59V19.4897C29.5577 17.2846 27.7536 15.5807 25.4484 15.3804V12.9749C25.4484 12.5739 25.1477 12.2732 24.6466 12.1729H23.1432C22.7422 12.1729 22.4415 12.4735 22.3412 12.9749V15.2801C19.3343 15.6811 17.4301 17.6856 17.4301 20.1914C17.4301 23.499 19.4346 24.8018 23.6443 25.3031C26.4508 25.8042 27.3528 26.4056 27.3528 28.0093C27.3528 29.6131 25.9495 30.7155 24.0453 30.7155C21.4391 30.7155 20.5371 29.6129 20.2364 28.1094C20.1363 27.7086 19.8356 27.508 19.5349 27.508H17.8308C17.4301 27.508 17.1294 27.8087 17.1294 28.2097V28.31C17.5302 30.8156 19.1339 32.6198 22.4415 33.1211V35.5266C22.4415 35.9273 22.7422 36.228 23.2433 36.3283H24.7467C25.1477 36.3283 25.4484 36.0276 25.5487 35.5266V33.1211C28.5556 32.6198 30.5601 30.5149 30.5601 27.8087Z" fill="white"/>
<path fill-rule="evenodd" clip-rule="evenodd" d="M9.91271 19.0886C7.00588 26.8065 11.0152 35.5265 18.8331 38.3327C19.1338 38.5334 19.4345 38.9341 19.4345 39.2348V40.6382C19.4345 40.8386 19.4345 40.9389 19.3342 41.0389C19.2341 41.4399 18.8331 41.6403 18.4321 41.4399C12.8193 39.6358 8.50933 35.3258 6.70519 29.713C3.69829 20.1913 8.91033 10.0679 18.4321 7.06101C18.5324 6.96094 18.7328 6.96094 18.8331 6.96094C19.2341 7.06101 19.4345 7.3617 19.4345 7.7627V9.16584C19.4345 9.66715 19.2341 9.96783 18.8331 10.1682C14.7237 11.6717 11.4162 14.8789 9.91271 19.0886ZM28.5555 7.46206C28.6555 7.06106 29.0565 6.86068 29.4575 7.06106C34.97 8.86519 39.3803 13.1752 41.1844 18.8883C44.1913 28.41 38.9793 38.5334 29.4575 41.5403C29.3572 41.6404 29.1568 41.6404 29.0565 41.6404C28.6555 41.5403 28.4551 41.2396 28.4551 40.8386V39.4355C28.4551 38.9342 28.6555 38.6335 29.0565 38.4331C33.1659 36.9296 36.4735 33.7224 37.9769 29.5127C40.8837 21.7949 36.8745 13.0749 29.0565 10.2686C28.7558 10.068 28.4551 9.66719 28.4551 9.26619V7.86306C28.4551 7.66244 28.4551 7.56237 28.5555 7.46206Z" fill="white"/>
</g>
<defs>
<clipPath id="clip0_2056_4492">
<rect width="48" height="48" rx="24" fill="white"/>
</clipPath>
</defs>
</svg>
