<svg xmlns="http://www.w3.org/2000/svg" width="48" height="48" viewBox="0 0 48 48" fill="none">
  <g clip-path="url(#clip0_2340_3809)">
    <g clip-path="url(#clip1_2340_3809)">
      <path
        d="M24 51.25C39.0498 51.25 51.25 39.0498 51.25 24C51.25 8.95024 39.0498 -3.25 24 -3.25C8.95024 -3.25 -3.25 8.95024 -3.25 24C-3.25 39.0498 8.95024 51.25 24 51.25Z"
        fill="white"
      />
      <g clip-path="url(#clip2_2340_3809)">
        <path
          d="M38.5082 10.654L37.2451 11.917C40.2589 15.2129 41.9303 19.5172 41.9303 23.9833C41.9303 28.4493 40.2589 32.7537 37.2451 36.0495L38.5082 37.3126C41.8599 33.6771 43.7207 28.9133 43.7207 23.9686C43.7207 19.0238 41.8599 14.26 38.5082 10.6245V10.654Z"
          fill="#5A5564"
        />
        <path
          d="M11.9463 10.7634C15.2422 7.74958 19.5465 6.07825 24.0126 6.07825C28.4786 6.07825 32.783 7.74958 36.0788 10.7634L37.3419 9.50036C33.7064 6.14867 28.9426 4.28784 23.9978 4.28784C19.0531 4.28784 14.2893 6.14867 10.6538 9.50036L11.9463 10.7634Z"
          fill="#5A5564"
        />
        <path
          d="M10.7637 36.0619C7.75339 32.7668 6.08427 28.465 6.08427 24.0019C6.08427 19.5388 7.75339 15.2371 10.7637 11.942L9.50061 10.679C6.14891 14.3145 4.28809 19.0782 4.28809 24.023C4.28809 28.9678 6.14891 33.7315 9.50061 37.367L10.7637 36.0619Z"
          fill="#5A5564"
        />
        <path
          d="M36.0626 37.2283C32.7667 40.2421 28.4623 41.9134 23.9963 41.9134C19.5302 41.9134 15.2259 40.2421 11.93 37.2283L10.667 38.4913C14.3025 41.843 19.0662 43.7038 24.011 43.7038C28.9558 43.7038 33.7195 41.843 37.3551 38.4913L36.0626 37.2283Z"
          fill="#5A5564"
        />
        <path
          d="M31.9738 19.7857C31.7212 17.1501 29.4478 16.266 26.5722 15.9966V12.3674H24.3493V15.9292C23.7641 15.9292 23.1662 15.9292 22.5726 15.9292V12.3674H20.3665V16.0218H15.8574V18.4006C15.8574 18.4006 17.4994 18.3711 17.4741 18.4006C17.7702 18.368 18.0673 18.4516 18.3029 18.6338C18.5385 18.816 18.6942 19.0826 18.7372 19.3773V29.3806C18.7308 29.4846 18.7037 29.5862 18.6574 29.6795C18.6112 29.7727 18.5466 29.8558 18.4677 29.9237C18.3903 29.9929 18.2996 30.0458 18.2012 30.079C18.1028 30.1123 17.9987 30.1254 17.8951 30.1174C17.9246 30.1426 16.2784 30.1174 16.2784 30.1174L15.8574 32.774H20.3244V36.4873H22.5473V32.8287H24.324V36.4705H26.5512V32.7992C30.3066 32.5719 32.9253 31.6457 33.2537 28.1302C33.519 25.301 32.1886 24.0379 30.0624 23.5285C31.3549 22.8928 32.1549 21.7139 31.9738 19.7857ZM28.8583 27.6923C28.8583 30.4542 24.1261 30.1384 22.6189 30.1384V25.2378C24.1261 25.242 28.8583 24.8084 28.8583 27.6923ZM27.8269 20.7877C27.8269 23.3138 23.8777 23.0065 22.6231 23.0065V18.5521C23.8777 18.5521 27.8269 18.1564 27.8269 20.7877Z"
          fill="#F09242"
        />
        <path
          d="M23.9958 47C19.4472 46.9992 15.001 45.6496 11.2193 43.1221C7.43758 40.5945 4.49027 37.0023 2.74998 32.7998C1.00968 28.5973 0.55456 23.9731 1.44215 19.5119C2.32975 15.0507 4.5202 10.9529 7.73655 7.73655C10.9529 4.5202 15.0507 2.32975 19.5119 1.44215C23.9731 0.55456 28.5972 1.00968 32.7998 2.74998C37.0023 4.49027 40.5945 7.43758 43.122 11.2193C45.6496 15.001 46.9992 19.4472 47 23.9958C47.0006 27.0169 46.4059 30.0085 45.25 32.7998C44.0942 35.591 42.3997 38.1272 40.2635 40.2635C38.1272 42.3997 35.591 44.0942 32.7998 45.25C30.0085 46.4059 27.0169 47.0006 23.9958 47ZM23.9958 2.79353C19.8051 2.79686 15.7095 4.04248 12.2266 6.37294C8.74368 8.7034 6.02983 12.0141 4.42805 15.8866C2.82627 19.759 2.40848 24.0194 3.22746 28.1293C4.04645 32.2392 6.06546 36.014 9.0293 38.9767C11.9931 41.9393 15.7688 43.9568 19.879 44.7742C23.9891 45.5915 28.2494 45.1721 32.1212 43.5687C35.9931 41.9654 39.3027 39.2503 41.6317 35.7664C43.9608 32.2826 45.2048 28.1865 45.2065 23.9958C45.2076 21.2105 44.6596 18.4522 43.594 15.8788C42.5284 13.3054 40.9659 10.9672 38.996 8.99808C37.0261 7.02894 34.6873 5.46741 32.1134 4.40278C29.5396 3.33816 26.7811 2.79132 23.9958 2.79353Z"
          fill="#282138"
        />
      </g>
    </g>
  </g>
  <defs>
    <clipPath id="clip0_2340_3809">
      <rect width="48" height="48" rx="24" fill="white" />
    </clipPath>
    <clipPath id="clip1_2340_3809">
      <rect width="54.5" height="54.5" fill="white" transform="translate(-3.25 -3.25)" />
    </clipPath>
    <clipPath id="clip2_2340_3809">
      <rect width="46" height="46" fill="white" transform="translate(1 1)" />
    </clipPath>
  </defs>
</svg>