<svg width="48" height="48" viewBox="0 0 48 48" fill="none" xmlns="http://www.w3.org/2000/svg">
<g clip-path="url(#clip0_2056_4511)">
<rect x="-2.83496" y="-2.83472" width="53.6694" height="53.6694" rx="22.3623" fill="white"/>
<circle cx="23.9998" cy="24" r="26.8347" fill="#EDF0F4"/>
<path d="M23.9264 7.89917L23.7129 8.62428V29.6635L23.9264 29.8764L33.6923 24.1037L23.9264 7.89917Z" fill="#343434"/>
<path d="M23.9264 7.89917L14.1602 24.1037L23.9264 29.8764V19.6646V7.89917Z" fill="#8C8C8C"/>
<path d="M23.9265 31.7256L23.8062 31.8723V39.3668L23.9265 39.718L33.6984 25.9558L23.9265 31.7256Z" fill="#3C3C3B"/>
<path d="M23.9264 39.718V31.7256L14.1602 25.9558L23.9264 39.718Z" fill="#8C8C8C"/>
<path d="M23.9268 29.8764L33.6927 24.1036L23.9268 19.6646V29.8764Z" fill="#141414"/>
<path d="M14.1602 24.1036L23.9264 29.8764V19.6646L14.1602 24.1036Z" fill="#393939"/>
</g>
<defs>
<clipPath id="clip0_2056_4511">
<rect width="48" height="48" rx="24" fill="white"/>
</clipPath>
</defs>
</svg>
