<svg width="203" height="89" viewBox="0 0 203 89" fill="none" xmlns="http://www.w3.org/2000/svg">
    <path opacity="0.25" d="M165.21 132.129L165.21 132.129C161.335 129.778 159.389 124.893 159.503 118.741C159.617 112.605 161.788 105.314 166.014 98.348C170.239 91.382 175.701 86.0943 181.09 83.1645C186.491 80.2277 191.723 79.7029 195.598 82.0538C199.473 84.4045 201.418 89.2885 201.304 95.4387C201.19 101.574 199.019 108.864 194.795 115.831C190.572 122.797 185.109 128.088 179.719 131.019C174.317 133.958 169.084 134.483 165.21 132.129ZM53.1053 65.2014L53.1055 65.2015C57.4191 67.8157 63.0555 67.1396 68.6091 64.118C74.175 61.0896 79.7543 55.6625 84.0643 48.5674C84.5744 47.7276 85.0556 46.8828 85.5078 46.0353C85.6787 46.135 85.8475 46.2358 86.0142 46.3377C91.2588 49.5444 94.3265 53.8054 94.2294 58.3236C94.1324 62.8416 90.8804 66.969 85.4986 69.9456C80.1298 72.915 72.7297 74.6804 64.5737 74.494L64.5735 74.494C56.4265 74.3101 49.1135 72.2226 43.8793 69.0244C38.6323 65.8185 35.5606 61.5593 35.6576 57.0414C35.7547 52.5235 39.0066 48.3991 44.3885 45.424C45.471 44.8256 46.6362 44.276 47.8734 43.7814C47.2873 46.27 46.9708 48.683 46.9264 50.9523C46.8027 57.2751 48.7985 62.5886 53.1053 65.2014ZM49.3239 42.1808C50.4086 38.3833 52.1221 34.4337 54.4639 30.58C58.7014 23.6069 64.1637 18.3181 69.5498 15.3891C74.9484 12.4533 80.1743 11.9308 84.0496 14.2818C87.9242 16.6324 89.8664 21.5112 89.7456 27.6573C89.6445 32.8008 88.094 38.7576 85.097 44.6592C79.8353 41.8277 72.9233 40.0389 65.3354 39.8711C59.488 39.7419 53.9981 40.5937 49.3239 42.1808ZM49.0083 43.3505C53.6905 41.6639 59.2962 40.7379 65.3133 40.8709C72.7759 41.0359 79.5326 42.7975 84.6353 45.5463C84.1893 46.3831 83.714 47.2179 83.2096 48.0482C78.9745 55.0201 73.5159 60.3098 68.1311 63.2396C62.7341 66.176 57.507 66.6995 53.624 64.3464C49.7492 61.9957 47.806 57.1175 47.9262 50.9718C47.973 48.5784 48.3338 46.0088 49.0083 43.3505ZM61.6607 205.049L61.6605 205.049C53.5134 204.865 46.2005 202.778 40.9679 199.574C35.723 196.363 32.6534 192.093 32.7562 187.552C32.859 183.011 36.1176 178.883 41.5003 175.912C46.8704 172.948 54.2674 171.194 62.4115 171.381C70.5558 171.568 77.8688 173.655 83.1022 176.858C88.3479 180.069 91.4188 184.337 91.316 188.878C91.2131 193.419 87.9546 197.547 82.5719 200.518C77.2018 203.482 69.8048 205.236 61.6607 205.049ZM102.582 150.117C102.421 150.023 102.262 149.928 102.104 149.832C96.8596 146.621 93.79 142.351 93.8933 137.808C93.9966 133.265 97.2544 129.137 102.636 126.166C108.006 123.203 115.403 121.449 123.549 121.637C131.695 121.825 139.008 123.912 144.241 127.115C149.486 130.325 152.556 134.593 152.453 139.134C152.35 143.675 149.092 147.803 143.709 150.774C142.624 151.373 141.457 151.922 140.217 152.416C140.802 149.922 141.117 147.503 141.16 145.228C141.278 138.901 139.28 133.581 134.973 130.968C130.667 128.356 125.025 129.035 119.468 132.057C113.898 135.086 108.315 140.512 104.014 147.602C103.508 148.436 103.031 149.276 102.582 150.117ZM139.083 152.845C134.403 154.525 128.803 155.443 122.797 155.305L122.797 155.305C115.328 155.137 108.56 153.369 103.454 150.608C103.896 149.776 104.368 148.946 104.869 148.121C109.094 141.155 114.556 135.866 119.946 132.936C125.347 129.998 130.579 129.472 134.454 131.823C138.329 134.174 140.275 139.059 140.16 145.209C140.115 147.608 139.756 150.182 139.083 152.845ZM138.77 154.014C137.69 157.809 135.983 161.754 133.651 165.6C129.428 172.564 123.967 177.849 118.578 180.778C113.176 183.714 107.943 184.241 104.066 181.898C100.191 179.547 98.2445 174.663 98.3585 168.512C98.454 163.362 99.9992 157.398 102.992 151.495C108.258 154.339 115.181 156.134 122.775 156.305C128.612 156.439 134.097 155.595 138.77 154.014ZM-7.49907 114.091L-7.49939 114.091C-11.3741 111.74 -13.3173 106.862 -13.197 100.717C-13.0769 94.5854 -10.8965 87.2981 -6.65906 80.3249C-2.42159 73.3517 3.04061 68.0629 8.4266 65.1339C13.8252 62.198 19.0509 61.6755 22.9262 64.0265C26.8009 66.3771 28.7442 71.2554 28.624 77.4011C28.504 83.5323 26.3237 90.8196 22.0863 97.7928C17.8488 104.766 12.3859 110.057 6.99959 112.987C1.60063 115.923 -3.62494 116.446 -7.49907 114.091ZM52.6396 112.679C48.719 105.525 46.871 98.151 47.0302 92.0216C47.1898 85.878 49.3545 81.0895 53.3347 78.9075C57.3144 76.7258 62.5182 77.4833 67.785 80.6576C73.0394 83.8245 78.2621 89.3501 82.1781 96.4906C86.0941 103.631 87.9421 111.005 87.784 117.138C87.6255 123.286 85.4628 128.081 81.4829 130.262C77.5032 132.444 72.2985 131.686 67.0312 128.512C61.7764 125.345 56.5537 119.819 52.6396 112.679ZM167.123 49.921C163.203 42.7671 161.355 35.3927 161.514 29.2633C161.674 23.1197 163.839 18.3312 167.819 16.1493C171.799 13.9676 177.002 14.725 182.269 17.8997C187.523 21.067 192.746 26.5935 196.661 33.7359C200.577 40.8782 202.425 48.2527 202.267 54.3851C202.108 60.5319 199.946 65.3258 195.966 67.5076C191.986 69.6892 186.781 68.9316 181.514 65.7567C176.259 62.5893 171.037 57.0628 167.123 49.921ZM125.705 24.7696C117.558 24.5857 110.245 22.4982 105.011 19.3C99.7641 16.094 96.6923 11.8348 96.7893 7.31688C96.8864 2.79899 100.138 -1.32442 105.52 -4.2986C110.889 -7.26559 118.289 -9.03013 126.444 -8.84984C134.6 -8.66955 141.913 -6.5821 147.145 -3.3831C152.39 -0.176426 155.457 4.08453 155.36 8.60276C155.263 13.1207 152.012 17.2444 146.631 20.2187C141.263 23.1858 133.863 24.9504 125.705 24.7696ZM-8.50143 162.419C-12.422 155.265 -14.27 147.891 -14.1107 141.761C-13.9512 135.617 -11.7865 130.829 -7.80627 128.647C-3.82652 126.465 1.37722 127.223 6.64388 130.397C11.8981 133.565 17.1206 139.091 21.0362 146.234C24.9517 153.376 26.7997 160.75 26.6417 166.883C26.4833 173.03 24.3209 177.824 20.341 180.006C16.3612 182.187 11.1565 181.43 5.88941 178.255C0.634668 175.087 -4.58778 169.561 -8.50143 162.419ZM120.372 115.499C115.117 112.332 109.894 106.807 105.98 99.6684C102.059 92.5146 100.211 85.1401 100.371 79.0107C100.53 72.867 102.695 68.0784 106.675 65.8965C110.655 63.7148 115.859 64.4722 121.125 67.6465C126.38 70.8134 131.602 76.339 135.519 83.4795C139.434 90.6199 141.283 97.9944 141.124 104.127C140.966 110.275 138.803 115.069 134.823 117.251C130.844 119.433 125.639 118.674 120.372 115.499Z" stroke="white"/>
</svg>
