<svg xmlns="http://www.w3.org/2000/svg" width="169" height="17" fill="none" viewBox="0 0 169 17">
  <path fill="currentColor" d="M10.688 6.84c.176-.08.304-.016.304.16v3.6c0 .128-.032.24-.112.352-.256.4-.688.832-1.408 1.36-.72.528-1.888.896-3.12.896-1.616 0-2.976-.528-4.08-1.568C1.168 10.584.544 9.224.432 7.56c-.144-2.096.704-4.128 2.56-5.408.928-.64 2-.96 3.232-.96 1.744 0 3.056.464 3.92 1.376.528.56.752 1.136.656 1.696-.08.464-.352.72-.832.784l-.08.016c-1.296.096-1.36-1.168-1.68-2.176-.208-.704-.832-1.28-1.984-1.28-.784 0-1.44.304-1.984.912-.544.592-.912 1.328-1.12 2.192a7.853 7.853 0 0 0-.128 2.672c.336 3.248 2.672 5.552 5.568 4.416V9.208c0-.624-.064-.88-.336-1.008-.192-.08-.288-.16-.288-.272 0-.112.096-.208.288-.272a9.908 9.908 0 0 0 2.464-.816Zm4.474-4.048c-.624.496-1.616.496-2.24 0-.624-.512-.624-1.344 0-1.856s1.616-.512 2.24 0c.624.512.624 1.344 0 1.856Zm.544 9.776c.192.08.288.176.288.256 0 .128-.096.192-.304.176a28.022 28.022 0 0 0-1.536-.048c-.48 0-.992.016-1.536.048-.208.016-.304-.048-.304-.176 0-.08.096-.176.288-.256.272-.112.336-.368.336-1.008V6.248c0-.624-.064-.88-.336-1.008-.192-.08-.288-.16-.288-.272 0-.112.096-.208.288-.272a9.908 9.908 0 0 0 2.464-.816c.208-.096.304-.048.304.16v7.52c0 .64.064.896.336 1.008Zm11.253-9.024c-.496.192-1.024-.032-1.552.096a.671.671 0 0 0-.528.496c1.2.56 1.792 1.488 1.744 2.816-.048 1.04-.528 1.856-1.472 2.448-.928.592-2.08.896-3.456.912-.88.016-1.648-.096-2.288-.336-.656.4-.912.8-.736 1.2.112.304.544.464 1.28.48.752.016 1.552-.048 2.416-.192 3.248-.4 4.848-.016 4.864 1.584.048 2.096-2.656 2.992-5.424 2.992-1.168 0-2.128-.144-2.912-.448-.768-.288-1.168-.704-1.184-1.264-.048-.576.32-1.008 1.104-1.312-.864-.16-1.328-.576-1.408-1.232-.144-1.184 1.12-1.84 1.552-2-1.072-.56-1.584-1.472-1.536-2.736.032-1.024.496-1.84 1.408-2.432.912-.608 2.048-.928 3.408-.944.896-.016 1.664.096 2.304.336.176-.88.864-1.68 1.936-1.728.496-.048.816.112.944.448.112.288.032.528-.224.704-.08.048-.16.08-.24.112Zm-4.48 6.288c.56-.032.992-.336 1.296-.896.304-.56.4-1.28.272-2.144-.272-1.808-1.216-2.784-2.48-2.656-1.296.128-1.856 1.168-1.584 2.96.272 1.84 1.216 2.848 2.496 2.736Zm-.24 3.088c-1.152.112-1.952.176-2.4.176-.448.224-.688.592-.704 1.104-.048.944 1.024 1.424 2.672 1.376 2.064-.016 3.264-.784 3.264-1.824 0-.848-.832-1.072-2.832-.832Zm14.027-.416c.129.128.288.16.288.288 0 .144-.111.208-.32.208h-.175c-.432 0-.448 0-.88-.048a1.63 1.63 0 0 1-.497-.112c-.4-.224-.832-.528-.976-1.28-.512 1.04-1.664 1.648-2.928 1.648-1.743 0-2.752-.912-2.8-2.208-.096-1.92 1.648-2.768 3.136-3.104 1.024-.272 2.16-.544 2.544-.848v-.256c0-1.872-.288-2.704-1.376-2.704-2.143 0-.607 2.688-2.543 2.576-.433-.016-.704-.24-.832-.64-.16-.48-.032-.944.4-1.408.608-.624 1.6-.944 2.976-.944 2.495 0 3.76 1.04 3.76 3.344 0 .144 0 .816.016 2.016.016 1.2.016 1.968.016 2.304 0 .64.063 1.024.191 1.168Zm-4.415-.672c1.087 0 1.791-.784 1.791-1.68l.016-2.336c-.144.096-.431.24-.864.416-.431.176-.8.352-1.135.512-.64.32-1.296 1.024-1.232 1.904.047.752.655 1.2 1.424 1.184ZM37.94 1.4h4.24c1.84 0 3.329.48 4.465 1.44 1.136.944 1.696 2.384 1.696 4.32 0 2.192-.704 3.792-1.904 4.64-1.2.848-2.576 1.2-4.256 1.2h-4.24c-.208 0-.304-.064-.304-.176 0-.08.096-.16.304-.272.272-.128.32-.4.32-1.12V2.968c0-.752-.048-.992-.32-1.12-.208-.096-.304-.176-.304-.256 0-.128.096-.192.304-.192Zm4.24 10.944c2.337 0 3.505-1.728 3.505-5.184 0-1.856-.304-3.168-.896-3.936-.592-.784-1.456-1.168-2.608-1.168h-1.328v9.76c0 .448.096.528.528.528h.8ZM55.667 1.192c1.728 0 3.168.576 4.304 1.744 1.136 1.168 1.712 2.576 1.712 4.256 0 1.68-.576 3.104-1.712 4.272-1.136 1.168-2.576 1.744-4.304 1.744-1.712 0-3.152-.576-4.288-1.744-1.136-1.168-1.712-2.592-1.712-4.272 0-1.68.576-3.088 1.712-4.256 1.136-1.168 2.576-1.744 4.288-1.744ZM57.01 12.52c1.328-.304 2.08-1.584 2.096-3.232.016-.816-.096-1.728-.32-2.72-.368-1.552-.96-2.768-1.744-3.664-.784-.896-1.68-1.232-2.672-1.024-2.08.464-2.528 3.072-1.808 5.968.368 1.536.96 2.752 1.744 3.648.784.896 1.696 1.232 2.704 1.024Zm14.773-8.672c.032.192-.032.304-.192.32-.144 0-.24-.08-.304-.256-.24-.688-.496-1.168-.752-1.44-.24-.272-.656-.416-1.232-.416h-1.136v9.504c0 .592.112.928.352 1.008.176.08.272.176.272.256 0 .128-.096.192-.288.176a31.379 31.379 0 0 0-1.632-.048c-.496 0-1.04.016-1.616.048-.192.016-.288-.048-.288-.176 0-.08.096-.176.272-.256.24-.08.352-.416.352-1.008V2.056h-1.136c-.576 0-.992.144-1.248.416-.24.272-.496.752-.736 1.44-.064.176-.176.256-.32.256-.144-.016-.208-.128-.176-.32.128-1.008.208-1.744.24-2.24.016-.192.128-.272.352-.256.352.032.976.048 1.888.048h4.848c.912 0 1.536-.016 1.888-.048.224-.016.336.064.352.256.032.496.112 1.232.24 2.24Zm14.063 0c.032.192-.032.304-.192.32-.144 0-.24-.08-.304-.256-.24-.688-.496-1.168-.752-1.44-.24-.272-.656-.416-1.232-.416H82.23v9.504c0 .592.112.928.352 1.008.176.08.272.176.272.256 0 .128-.096.192-.288.176a31.379 31.379 0 0 0-1.632-.048c-.496 0-1.04.016-1.616.048-.192.016-.288-.048-.288-.176 0-.08.096-.176.272-.256.24-.08.352-.416.352-1.008V2.056h-1.136c-.576 0-.992.144-1.248.416-.24.272-.496.752-.736 1.44-.064.176-.176.256-.32.256-.144-.016-.208-.128-.176-.32.128-1.008.208-1.744.24-2.24.016-.192.128-.272.352-.256.352.032.976.048 1.888.048h4.848c.912 0 1.536-.016 1.888-.048.224-.016.336.064.352.256.032.496.112 1.232.24 2.24Zm5.648-.176c.944 0 1.568.32 1.872.96.24.496.24.944-.032 1.376-.208.336-.512.512-.928.496-.56 0-.832-.416-.912-.8-.064-.4-.368-.816-.96-.816-.752 0-1.136.8-1.136 2.384v4.288c0 .64.144.912.544 1.024.208.064.304.144.304.24 0 .128-.112.192-.32.176a28.035 28.035 0 0 0-3.28 0c-.208.016-.304-.048-.304-.176 0-.08.096-.176.288-.256.24-.08.352-.416.352-1.008V6.232c0-.576-.112-.912-.352-1.008-.192-.08-.288-.16-.288-.272 0-.112.08-.192.224-.224a9.438 9.438 0 0 0 2.384-.848c.176-.096.288-.048.304.16l.112 1.296v.048c.384-1.136 1.088-1.712 2.128-1.712Zm5.933-.88c-.624.496-1.616.496-2.24 0-.624-.512-.624-1.344 0-1.856s1.616-.512 2.24 0c.624.512.624 1.344 0 1.856Zm.544 9.776c.192.08.288.176.288.256 0 .128-.096.192-.304.176a28.022 28.022 0 0 0-1.536-.048c-.48 0-.992.016-1.536.048-.208.016-.304-.048-.304-.176 0-.08.096-.176.288-.256.272-.112.336-.368.336-1.008V6.248c0-.624-.064-.88-.336-1.008-.192-.08-.288-.16-.288-.272 0-.112.096-.208.288-.272a9.908 9.908 0 0 0 2.464-.816c.208-.096.304-.048.304.16v7.52c0 .64.064.896.336 1.008Zm7.413-8.896c1.248 0 2.224.464 2.944 1.392.72.928 1.056 2.192 1.008 3.776-.048 1.456-.496 2.576-1.376 3.36-.864.784-1.936 1.104-3.232.96-.992-.112-1.728-.592-2.192-1.44v2.816c0 .624.144.928.544 1.008.192.064.288.144.288.24 0 .128-.096.192-.304.176a41.485 41.485 0 0 0-3.28 0c-.208.016-.304-.048-.304-.176 0-.096.096-.176.272-.24.304-.128.352-.368.352-1.008V5.944c0-.64-.048-.88-.352-1.008-.176-.08-.272-.16-.272-.272 0-.144.064-.208.208-.224.048-.016.176-.032.416-.064l.608-.096c.336-.064.944-.192 1.408-.368.192-.048.288 0 .304.16l.08 1.328c.592-1.152 1.552-1.728 2.88-1.728Zm-.56 8.72c.656-.016 1.152-.416 1.504-1.184.368-.768.528-1.728.512-2.88-.016-1.168-.24-2.064-.688-2.704-.432-.656-.976-.96-1.616-.928-1.36.048-2.112 1.536-2.032 4.224.064 2.32.96 3.536 2.32 3.472Zm8.862.176c.176.08.272.176.272.256 0 .144-.096.192-.288.176a24.6 24.6 0 0 0-3.072 0c-.208.016-.304-.048-.304-.176 0-.08.096-.16.272-.256.304-.112.352-.368.352-1.008V3.592c0-.624-.064-.88-.336-.992-.192-.096-.288-.192-.288-.272 0-.128.096-.224.272-.272a8.24 8.24 0 0 0 2.48-.832c.176-.08.288-.016.288.176v10.16c0 .592.112.928.352 1.008Zm5.647-8.896c2-.016 3.168.944 3.632 2.016.368.72.448 1.36.368 1.872-.032.192-.144.288-.32.288h-5.744c.016.144.032.368.08.672.432 2.944 3.136 3.968 5.392 2.72.16-.08.288-.096.368-.032.08.08.08.208-.032.368-.848 1.088-2.016 1.632-3.472 1.632-1.312 0-2.4-.4-3.264-1.216-.864-.816-1.344-1.888-1.44-3.2-.112-1.392.256-2.592 1.088-3.6.848-1.008 1.952-1.504 3.344-1.52Zm-2.064 3.52h2.928c.848 0 1.008-.128.96-.88a2.9 2.9 0 0 0-.528-1.52c-.304-.464-.736-.704-1.296-.704-.592 0-1.072.304-1.44.912-.368.592-.576 1.328-.624 2.192ZM139.47 1.4c.24-.016.352.048.352.192 0 .096-.096.176-.288.224-.56.176-.848.592-1.216 1.44l-4.048 9.328c-.96 2.24-2.064 3.44-3.68 3.456-.896.016-1.456-.224-1.696-.736-.176-.352-.144-.672.128-.96.272-.304.656-.384 1.152-.24.656.176 1.296.112 1.92-.16.624-.272 1.088-.736 1.392-1.36l.288-.672-4.112-9.072c-.336-.72-.576-.928-.896-1.008-.208-.048-.304-.144-.304-.272 0-.112.096-.176.304-.16.608.032 1.152.048 1.648.048.608 0 1.248-.016 1.92-.048.192-.016.288.048.288.16 0 .08-.08.176-.24.272-.272.176-.256.384-.016 1.008l2.544 6.352 2.496-5.92c.304-.816.048-1.28-.528-1.424-.224-.064-.336-.144-.336-.256 0-.128.096-.192.304-.192l1.408.048c.48 0 .896-.048 1.216-.048Zm2.786 1.392c-.624.496-1.616.496-2.24 0-.624-.512-.624-1.344 0-1.856s1.616-.512 2.24 0c.624.512.624 1.344 0 1.856Zm.543 9.776c.193.08.289.176.289.256 0 .128-.096.192-.304.176a28.022 28.022 0 0 0-1.536-.048c-.48 0-.992.016-1.536.048-.208.016-.304-.048-.304-.176 0-.08.096-.176.288-.256.272-.112.336-.368.336-1.008V6.248c0-.624-.064-.88-.336-1.008-.192-.08-.288-.16-.288-.272 0-.112.096-.208.288-.272a9.908 9.908 0 0 0 2.464-.816c.208-.096.304-.048.304.16v7.52c0 .64.064.896.335 1.008Zm5.878-8.896c2-.016 3.168.944 3.632 2.016.368.72.448 1.36.368 1.872-.032.192-.144.288-.32.288h-5.744c.016.144.032.368.08.672.432 2.944 3.136 3.968 5.392 2.72.16-.08.288-.096.368-.032.08.08.08.208-.032.368-.848 1.088-2.016 1.632-3.472 1.632-1.312 0-2.4-.4-3.264-1.216-.864-.816-1.345-1.888-1.44-3.2-.112-1.392.256-2.592 1.088-3.6.848-1.008 1.952-1.504 3.344-1.52Zm-2.064 3.52h2.928c.848 0 1.008-.128.96-.88a2.9 2.9 0 0 0-.528-1.52c-.304-.464-.736-.704-1.296-.704-.592 0-1.072.304-1.44.912-.368.592-.576 1.328-.624 2.192Zm10.432 5.376c.176.08.272.176.272.256 0 .144-.096.192-.288.176a24.6 24.6 0 0 0-3.072 0c-.208.016-.304-.048-.304-.176 0-.08.096-.16.272-.256.304-.112.352-.368.352-1.008V3.592c0-.624-.064-.88-.336-.992-.192-.096-.288-.192-.288-.272 0-.128.096-.224.272-.272a8.24 8.24 0 0 0 2.48-.832c.176-.08.288-.016.288.176v10.16c0 .592.112.928.352 1.008Zm10.783-.128c.192.08.288.176.288.256 0 .112-.096.176-.304.176-1.104.032-1.92.08-2.464.144-.192.032-.288-.064-.288-.272v-1.216c-.592 1.12-1.552 1.68-2.864 1.68-1.232 0-2.224-.464-2.944-1.392-.72-.928-1.056-2.192-1.008-3.776.048-1.456.496-2.576 1.36-3.36.88-.784 1.952-1.104 3.248-.96 1.008.112 1.744.608 2.208 1.472V3.608c0-.576-.112-.912-.336-1.008-.192-.08-.288-.16-.288-.272 0-.112.096-.208.272-.272a8.859 8.859 0 0 0 2.48-.816c.144-.08.288-.016.288.16v10.048c0 .624.08.88.352.992Zm-4.768-.256c1.216-.048 1.968-1.264 2.032-3.488V7.96c-.064-2.32-.976-3.536-2.336-3.472-.64.016-1.136.416-1.504 1.184-.368.768-.528 1.728-.512 2.88.016 1.168.24 2.064.688 2.72.448.64.992.944 1.632.912Z"/>
</svg>