<svg xmlns="http://www.w3.org/2000/svg" width="215" height="14" fill="none" viewBox="0 0 215 14">
  <path fill="currentColor" d="M10.688 6.84c.176-.08.304-.016.304.16v3.6c0 .128-.032.24-.112.352-.256.4-.688.832-1.408 1.36-.72.528-1.888.896-3.12.896-1.616 0-2.976-.528-4.08-1.568C1.168 10.584.544 9.224.432 7.56c-.144-2.096.704-4.128 2.56-5.408.928-.64 2-.96 3.232-.96 1.744 0 3.056.464 3.92 1.376.528.56.752 1.136.656 1.696-.08.464-.352.72-.832.784l-.08.016c-1.296.096-1.36-1.168-1.68-2.176-.208-.704-.832-1.28-1.984-1.28-.784 0-1.44.304-1.984.912-.544.592-.912 1.328-1.12 2.192a7.853 7.853 0 0 0-.128 2.672c.336 3.248 2.672 5.552 5.568 4.416V9.208c0-.624-.064-.88-.336-1.008-.192-.08-.288-.16-.288-.272 0-.112.096-.208.288-.272a9.908 9.908 0 0 0 2.464-.816Zm5.114 5.728c.176.08.272.176.272.256 0 .128-.096.192-.288.176a31.379 31.379 0 0 0-1.632-.048c-.496 0-1.04.016-1.616.048-.192.016-.288-.048-.288-.176 0-.08.096-.176.272-.256.24-.08.352-.416.352-1.008V2.84c0-.592-.112-.928-.352-1.008-.176-.08-.272-.176-.272-.256 0-.128.096-.192.288-.176.576.032 1.12.048 1.616.048.48 0 1.024-.016 1.632-.048.192-.016.288.048.288.176 0 .08-.096.176-.272.256-.24.08-.352.416-.352 1.008v8.72c0 .592.112.928.352 1.008Zm11.62-5.728c.176-.08.304-.016.304.16v3.6c0 .128-.032.24-.112.352-.256.4-.688.832-1.408 1.36-.72.528-1.888.896-3.12.896-1.616 0-2.976-.528-4.08-1.568-1.104-1.056-1.728-2.416-1.84-4.08-.144-2.096.704-4.128 2.56-5.408.928-.64 2-.96 3.232-.96 1.744 0 3.056.464 3.92 1.376.528.56.752 1.136.656 1.696-.08.464-.352.72-.832.784l-.08.016c-1.296.096-1.36-1.168-1.68-2.176-.208-.704-.832-1.28-1.984-1.28-.784 0-1.44.304-1.984.912-.544.592-.912 1.328-1.12 2.192a7.853 7.853 0 0 0-.128 2.672c.336 3.248 2.672 5.552 5.568 4.416V9.208c0-.624-.064-.88-.336-1.008-.192-.08-.288-.16-.288-.272 0-.112.096-.208.288-.272a9.908 9.908 0 0 0 2.464-.816Zm11.862 5.728c.192.08.288.16.288.256 0 .128-.096.192-.304.176a29.496 29.496 0 0 0-1.632-.048c-.528 0-1.088.016-1.664.048-.192.016-.288-.048-.288-.176 0-.08.08-.16.24-.24.304-.128.304-.4.096-1.024l-.736-2.272h-4.352l-.48 1.504c-.368 1.136-.208 1.648.64 1.776.176.048.272.144.272.256 0 .128-.096.192-.288.176a38.774 38.774 0 0 0-1.616-.032c-.304 0-.656.016-1.04.032-.208.016-.304-.048-.304-.176 0-.096.096-.176.288-.256.368-.112.64-.608 1.04-1.776l3.328-9.44c0-.064.032-.112.096-.144.24-.048.288-.016.624.096.176.048.32.08.464.096.448.064.736.096.88.096.144.016.24.096.272.208l3.52 9.856c.208.656.336.896.656 1.008ZM33.092 2.552l-1.952 6.08h3.936l-1.984-6.08ZM40.707 1.4h4.24c1.84 0 3.328.48 4.464 1.44 1.136.944 1.696 2.384 1.696 4.32 0 2.192-.704 3.792-1.904 4.64-1.2.848-2.576 1.2-4.256 1.2h-4.24c-.208 0-.304-.064-.304-.176 0-.08.096-.16.304-.272.272-.128.32-.4.32-1.12V2.968c0-.752-.048-.992-.32-1.12-.208-.096-.304-.176-.304-.256 0-.128.096-.192.304-.192Zm4.24 10.944c2.336 0 3.504-1.728 3.504-5.184 0-1.856-.304-3.168-.896-3.936-.592-.784-1.456-1.168-2.608-1.168H43.62v9.76c0 .448.096.528.528.528h.8ZM58.432 1.192c1.728 0 3.168.576 4.304 1.744 1.136 1.168 1.712 2.576 1.712 4.256 0 1.68-.576 3.104-1.712 4.272-1.136 1.168-2.576 1.744-4.304 1.744-1.712 0-3.152-.576-4.288-1.744-1.136-1.168-1.712-2.592-1.712-4.272 0-1.68.576-3.088 1.712-4.256 1.136-1.168 2.576-1.744 4.288-1.744Zm1.344 11.328c1.328-.304 2.08-1.584 2.096-3.232.016-.816-.096-1.728-.32-2.72-.368-1.552-.96-2.768-1.744-3.664-.784-.896-1.68-1.232-2.672-1.024-2.08.464-2.528 3.072-1.808 5.968.368 1.536.96 2.752 1.744 3.648.784.896 1.696 1.232 2.704 1.024Zm14.773-8.672c.032.192-.032.304-.192.32-.144 0-.24-.08-.304-.256-.24-.688-.496-1.168-.752-1.44-.24-.272-.656-.416-1.232-.416h-1.136v9.504c0 .592.112.928.352 1.008.176.08.272.176.272.256 0 .128-.096.192-.288.176a31.379 31.379 0 0 0-1.632-.048c-.496 0-1.04.016-1.616.048-.192.016-.288-.048-.288-.176 0-.08.096-.176.272-.256.24-.08.352-.416.352-1.008V2.056H67.22c-.576 0-.992.144-1.248.416-.24.272-.496.752-.736 1.44-.064.176-.176.256-.32.256-.144-.016-.208-.128-.176-.32.128-1.008.208-1.744.24-2.24.016-.192.128-.272.352-.256.352.032.976.048 1.888.048h4.848c.912 0 1.536-.016 1.888-.048.224-.016.336.064.352.256.032.496.112 1.232.24 2.24Zm1.175 2.736c0-.832.656-1.504 1.472-1.504s1.488.672 1.488 1.504c0 .816-.672 1.472-1.488 1.472a1.468 1.468 0 0 1-1.472-1.472Zm0 5.12c0-.832.656-1.504 1.472-1.504s1.488.672 1.488 1.504c0 .816-.672 1.472-1.488 1.472a1.468 1.468 0 0 1-1.472-1.472ZM84.63 1.4h4.24c1.84 0 3.328.48 4.464 1.44 1.136.944 1.696 2.384 1.696 4.32 0 2.192-.704 3.792-1.904 4.64-1.2.848-2.576 1.2-4.256 1.2h-4.24c-.208 0-.304-.064-.304-.176 0-.08.096-.16.304-.272.272-.128.32-.4.32-1.12V2.968c0-.752-.048-.992-.32-1.12-.208-.096-.304-.176-.304-.256 0-.128.096-.192.304-.192Zm4.24 10.944c2.336 0 3.504-1.728 3.504-5.184 0-1.856-.304-3.168-.896-3.936-.592-.784-1.456-1.168-2.608-1.168h-1.328v9.76c0 .448.096.528.528.528h.8Zm13.485-11.152c1.728 0 3.168.576 4.304 1.744 1.136 1.168 1.712 2.576 1.712 4.256 0 1.68-.576 3.104-1.712 4.272-1.136 1.168-2.576 1.744-4.304 1.744-1.713 0-3.153-.576-4.288-1.744-1.136-1.168-1.713-2.592-1.713-4.272 0-1.68.577-3.088 1.713-4.256 1.135-1.168 2.575-1.744 4.288-1.744Zm1.344 11.328c1.328-.304 2.08-1.584 2.096-3.232.016-.816-.096-1.728-.32-2.72-.368-1.552-.96-2.768-1.744-3.664-.784-.896-1.68-1.232-2.672-1.024-2.08.464-2.529 3.072-1.809 5.968.369 1.536.961 2.752 1.745 3.648.784.896 1.696 1.232 2.704 1.024Zm14.773-8.672c.032.192-.032.304-.192.32-.144 0-.24-.08-.304-.256-.24-.688-.496-1.168-.752-1.44-.24-.272-.656-.416-1.232-.416h-1.136v9.504c0 .592.112.928.352 1.008.176.08.272.176.272.256 0 .128-.096.192-.288.176a31.379 31.379 0 0 0-1.632-.048c-.496 0-1.04.016-1.616.048-.192.016-.288-.048-.288-.176 0-.08.096-.176.272-.256.24-.08.352-.416.352-1.008V2.056h-1.136c-.576 0-.992.144-1.248.416-.24.272-.496.752-.736 1.44-.064.176-.176.256-.32.256-.144-.016-.208-.128-.176-.32.128-1.008.208-1.744.24-2.24.016-.192.128-.272.352-.256.352.032.976.048 1.888.048h4.848c.912 0 1.536-.016 1.888-.048.224-.016.336.064.352.256.032.496.112 1.232.24 2.24Zm9.304-.176c1.392 0 2.528.464 3.376 1.376.864.912 1.296 2.048 1.296 3.392 0 1.36-.432 2.496-1.296 3.408-.848.912-1.984 1.36-3.376 1.36s-2.528-.448-3.376-1.36c-.848-.912-1.28-2.048-1.28-3.408.016-1.36.448-2.48 1.296-3.392.848-.912 1.968-1.376 3.36-1.376Zm-.8.544c-1.504.288-1.744 2.384-1.344 4.592.208 1.2.576 2.16 1.104 2.912.528.752 1.152 1.056 1.872.944 1.456-.288 1.712-2.384 1.328-4.592-.208-1.2-.576-2.16-1.104-2.912-.528-.752-1.152-1.056-1.856-.944Zm16.06 8.352c.192.08.288.176.288.256 0 .128-.096.192-.304.176a24.6 24.6 0 0 0-3.072 0c-.208.016-.304-.048-.304-.176 0-.08.096-.176.288-.256.272-.112.336-.368.336-1.008V7.48c0-1.76-.592-2.64-1.776-2.64-.656 0-1.152.256-1.488.768-.336.496-.496 1.104-.496 1.792v4.16c0 .592.112.928.352 1.008.176.08.272.176.272.256 0 .128-.096.192-.304.176a24.494 24.494 0 0 0-3.056 0c-.208.016-.304-.048-.304-.176 0-.08.096-.16.272-.256.24-.08.352-.416.352-1.008V6.232c0-.576-.112-.912-.352-1.008-.192-.08-.288-.16-.288-.272 0-.112.08-.192.224-.224a9.438 9.438 0 0 0 2.384-.848c.176-.096.288-.048.304.16l.112 1.296.016.16c.56-1.216 1.536-1.824 2.912-1.824 2.288 0 3.296 1.232 3.296 3.808v4.08c0 .64.064.896.336 1.008Zm9.332-8.896c1.584 0 2.656.352 3.184 1.056.304.4.336.784.128 1.136a.697.697 0 0 1-.624.336c-1.632 0-.72-2.032-2.688-2.096-.72-.032-1.232.176-1.504.64-.272.448-.272.88-.016 1.28.208.336.56.624 1.04.88.496.24.976.464 1.472.64s.992.368 1.456.592c.96.432 1.584 1.216 1.504 2.32-.048.656-.288 1.232-.864 1.808-.576.576-1.696.944-3.216.944-1.632 0-2.768-.4-3.392-1.216-.368-.48-.464-.944-.288-1.376.144-.304.384-.464.704-.48 1.536-.064.608 2.656 2.976 2.656.624 0 1.104-.208 1.44-.608.336-.4.416-.864.272-1.376-.336-1.072-2.224-1.52-3.616-2.096-.96-.432-1.696-1.184-1.696-2.272 0-.848.352-1.52 1.04-2.016.688-.496 1.584-.752 2.688-.752Zm9.406 8.336c.08.08.08.192-.016.352-.4.544-1.008.816-1.824.816-1.392 0-2.08-.704-2.08-2.112V4.536h-.56c-.176 0-.256-.112-.256-.336 0-.256.048-.32.256-.32h.208c.464 0 .912-.176 1.328-.512.432-.352.72-.768.88-1.264.048-.144.144-.208.288-.208.176 0 .272.08.272.256V3.88h1.28c.16 0 .24.112.24.32 0 .224-.08.336-.24.336h-1.28v6.64c0 .624.16.96.496 1.024.096.016.32-.032.656-.144.176-.096.288-.112.352-.048Zm5.216-8.336c2-.016 3.168.944 3.632 2.016.368.72.448 1.36.368 1.872-.032.192-.144.288-.32.288h-5.744c.016.144.032.368.08.672.432 2.944 3.136 3.968 5.392 2.72.16-.08.288-.096.368-.032.08.08.08.208-.032.368-.848 1.088-2.016 1.632-3.472 1.632-1.312 0-2.4-.4-3.264-1.216-.864-.816-1.344-1.888-1.44-3.2-.112-1.392.256-2.592 1.088-3.6.848-1.008 1.952-1.504 3.344-1.52Zm-2.064 3.52h2.928c.848 0 1.008-.128.96-.88a2.9 2.9 0 0 0-.528-1.52c-.304-.464-.736-.704-1.296-.704-.592 0-1.072.304-1.44.912-.368.592-.576 1.328-.624 2.192Zm12.319-3.52c.944 0 1.568.32 1.872.96.24.496.24.944-.032 1.376-.208.336-.512.512-.928.496-.56 0-.832-.416-.912-.8-.064-.4-.368-.816-.96-.816-.752 0-1.136.8-1.136 2.384v4.288c0 .64.144.912.544 1.024.208.064.304.144.304.24 0 .128-.112.192-.32.176a28.035 28.035 0 0 0-3.28 0c-.208.016-.304-.048-.304-.176 0-.08.096-.176.288-.256.24-.08.352-.416.352-1.008V6.232c0-.576-.112-.912-.352-1.008-.192-.08-.288-.16-.288-.272 0-.112.08-.192.224-.224a9.438 9.438 0 0 0 2.384-.848c.176-.096.288-.048.304.16l.112 1.296v.048c.384-1.136 1.088-1.712 2.128-1.712Zm7.281 0c1.392 0 2.528.464 3.376 1.376.864.912 1.296 2.048 1.296 3.392 0 1.36-.432 2.496-1.296 3.408-.848.912-1.984 1.36-3.376 1.36s-2.528-.448-3.376-1.36c-.848-.912-1.28-2.048-1.28-3.408.016-1.36.448-2.48 1.296-3.392.848-.912 1.968-1.376 3.36-1.376Zm-.8.544c-1.504.288-1.744 2.384-1.344 4.592.208 1.2.576 2.16 1.104 2.912.528.752 1.152 1.056 1.872.944 1.456-.288 1.712-2.384 1.328-4.592-.208-1.2-.576-2.16-1.104-2.912-.528-.752-1.152-1.056-1.856-.944Zm9.609-1.424c-.624.496-1.616.496-2.24 0-.624-.512-.624-1.344 0-1.856s1.616-.512 2.24 0c.624.512.624 1.344 0 1.856Zm.544 9.776c.192.08.288.176.288.256 0 .128-.096.192-.304.176a28.022 28.022 0 0 0-1.536-.048c-.48 0-.992.016-1.536.048-.208.016-.304-.048-.304-.176 0-.08.096-.176.288-.256.272-.112.336-.368.336-1.008V6.248c0-.624-.064-.88-.336-1.008-.192-.08-.288-.16-.288-.272 0-.112.096-.208.288-.272a9.908 9.908 0 0 0 2.464-.816c.208-.096.304-.048.304.16v7.52c0 .64.064.896.336 1.008Zm11.013-.128c.192.08.288.176.288.256 0 .112-.096.176-.304.176-1.104.032-1.92.08-2.464.144-.192.032-.288-.064-.288-.272v-1.216c-.592 1.12-1.552 1.68-2.864 1.68-1.232 0-2.224-.464-2.944-1.392-.72-.928-1.056-2.192-1.008-3.776.048-1.456.496-2.576 1.36-3.36.88-.784 1.952-1.104 3.248-.96 1.008.112 1.744.608 2.208 1.472V3.608c0-.576-.112-.912-.336-1.008-.192-.08-.288-.16-.288-.272 0-.112.096-.208.272-.272a8.859 8.859 0 0 0 2.48-.816c.144-.08.288-.016.288.16v10.048c0 .624.08.88.352.992Zm-4.768-.256c1.216-.048 1.968-1.264 2.032-3.488V7.96c-.064-2.32-.976-3.536-2.336-3.472-.64.016-1.136.416-1.504 1.184-.368.768-.528 1.728-.512 2.88.016 1.168.24 2.064.688 2.72.448.64.992.944 1.632.912Zm9.932-8.512c1.584 0 2.656.352 3.184 1.056.304.4.336.784.128 1.136a.697.697 0 0 1-.624.336c-1.632 0-.72-2.032-2.688-2.096-.72-.032-1.232.176-1.504.64-.272.448-.272.88-.016 1.28.208.336.56.624 1.04.88.496.24.976.464 1.472.64s.992.368 1.456.592c.96.432 1.584 1.216 1.504 2.32-.048.656-.288 1.232-.864 1.808-.576.576-1.696.944-3.216.944-1.632 0-2.768-.4-3.392-1.216-.368-.48-.464-.944-.288-1.376.144-.304.384-.464.704-.48 1.536-.064.608 2.656 2.976 2.656.624 0 1.104-.208 1.44-.608.336-.4.416-.864.272-1.376-.336-1.072-2.224-1.52-3.616-2.096-.96-.432-1.696-1.184-1.696-2.272 0-.848.352-1.52 1.04-2.016.688-.496 1.584-.752 2.688-.752Z"/>
</svg>