<svg xmlns="http://www.w3.org/2000/svg" width="309" height="309" fill="none" viewBox="0 0 309 309">
  <rect width="309" height="309" fill="#9886E5" rx="74.389"/>
  <path fill="#FFFDF8" fill-rule="evenodd" d="M133.117 200.077c-12.936 19.822-34.612 44.906-63.455 44.906-13.635 0-26.746-5.613-26.746-29.996 0-62.096 84.782-158.223 163.446-158.223 44.751 0 62.582 31.048 62.582 66.306 0 45.257-29.368 97.004-58.561 97.004-9.265 0-13.81-5.087-13.81-13.156 0-2.105.35-4.385 1.049-6.841-9.964 17.015-29.193 32.803-47.199 32.803-13.11 0-19.753-8.245-19.753-19.822 0-4.21.874-8.595 2.447-12.981Zm67.76-78.232c0 10.274-6.062 15.411-12.843 15.411-6.883 0-12.842-5.137-12.842-15.411 0-10.274 5.959-15.411 12.842-15.411 6.781 0 12.843 5.137 12.843 15.411Zm38.527 0c0 10.274-6.062 15.411-12.843 15.411-6.884 0-12.842-5.137-12.842-15.411 0-10.274 5.958-15.411 12.842-15.411 6.781 0 12.843 5.137 12.843 15.411Z" clip-rule="evenodd"/>
</svg>